<?xml version="1.0" encoding="UTF-8" standalone="no"?>
<!DOCTYPE svg PUBLIC "-//W3C//DTD SVG 1.1//EN"
 "http://www.w3.org/Graphics/SVG/1.1/DTD/svg11.dtd">
<!-- Generated by graphviz version 2.44.0 (20200408.0750)
 -->
<!-- Title: InheritanceGraph Pages: 1 -->
<svg width="523pt" height="564pt"
 viewBox="0.00 0.00 523.00 564.00" xmlns="http://www.w3.org/2000/svg" xmlns:xlink="http://www.w3.org/1999/xlink">
<g id="graph0" class="graph" transform="scale(1 1) rotate(0) translate(4 560)">
<title>InheritanceGraph</title>
<g id="clust1" class="cluster">
<title>cluster_builtins</title>
<path fill="transparent" stroke="#bcd2ee" stroke-width="2" stroke-dasharray="5,2" d="M20,-422C20,-422 55,-422 55,-422 61,-422 67,-428 67,-434 67,-434 67,-465 67,-465 67,-471 61,-477 55,-477 55,-477 20,-477 20,-477 14,-477 8,-471 8,-465 8,-465 8,-434 8,-434 8,-428 14,-422 20,-422"/>
<text text-anchor="middle" x="37.5" y="-465" font-family="Arial" font-size="10.00">builtins</text>
</g>
<g id="clust2" class="cluster">
<title>cluster_uqbar.apis</title>
<path fill="transparent" stroke="#bcd2ee" stroke-width="2" stroke-dasharray="5,2" d="M360,-259C360,-259 407,-259 407,-259 413,-259 419,-265 419,-271 419,-271 419,-312 419,-312 419,-318 413,-324 407,-324 407,-324 360,-324 360,-324 354,-324 348,-318 348,-312 348,-312 348,-271 348,-271 348,-265 354,-259 360,-259"/>
<text text-anchor="middle" x="383.5" y="-312" font-family="Arial" font-size="10.00">uqbar.apis</text>
</g>
<g id="clust3" class="cluster">
<title>cluster_uqbar.containers</title>
<path fill="transparent" stroke="#bcd2ee" stroke-width="2" stroke-dasharray="5,2" d="M99,-332C99,-332 403,-332 403,-332 409,-332 415,-338 415,-344 415,-344 415,-536 415,-536 415,-542 409,-548 403,-548 403,-548 99,-548 99,-548 93,-548 87,-542 87,-536 87,-536 87,-344 87,-344 87,-338 93,-332 99,-332"/>
<text text-anchor="middle" x="251" y="-536" font-family="Arial" font-size="10.00">uqbar.containers</text>
</g>
<g id="clust4" class="cluster">
<title>cluster_uqbar.graphs</title>
<path fill="transparent" stroke="#bcd2ee" stroke-width="2" stroke-dasharray="5,2" d="M451,-8C451,-8 500,-8 500,-8 506,-8 512,-14 512,-20 512,-20 512,-270 512,-270 512,-276 506,-282 500,-282 500,-282 451,-282 451,-282 445,-282 439,-276 439,-270 439,-270 439,-20 439,-20 439,-14 445,-8 451,-8"/>
<text text-anchor="middle" x="475.5" y="-270" font-family="Arial" font-size="10.00">uqbar.graphs</text>
</g>
<!-- builtins.object&#45;&gt;uqbar.containers.UniqueTreeNode.UniqueTreeNode -->
<g id="edge6" class="edge">
<title>builtins.object&#45;&gt;uqbar.containers.UniqueTreeNode.UniqueTreeNode</title>
<path fill="none" stroke="lightslategrey" d="M59.26,-440C67.06,-440 76.13,-440 84.75,-440"/>
<polygon fill="lightslategrey" stroke="lightslategrey" points="84.94,-443.5 94.94,-440 84.94,-436.5 84.94,-443.5"/>
</g>
<!-- uqbar.containers.UniqueTreeContainer.UniqueTreeContainer&#45;&gt;uqbar.containers.UniqueTreeDict.UniqueTreeDict -->
<g id="edge1" class="edge">
<title>uqbar.containers.UniqueTreeContainer.UniqueTreeContainer&#45;&gt;uqbar.containers.UniqueTreeDict.UniqueTreeDict</title>
<path fill="none" stroke="lightslategrey" d="M231.36,-419.24C241.75,-409.81 254.18,-398.52 265.33,-388.4"/>
<polygon fill="lightslategrey" stroke="lightslategrey" points="267.74,-390.93 272.79,-381.62 263.04,-385.75 267.74,-390.93"/>
</g>
<!-- uqbar.containers.UniqueTreeContainer.UniqueTreeContainer&#45;&gt;uqbar.containers.UniqueTreeList.UniqueTreeList -->
<g id="edge2" class="edge">
<title>uqbar.containers.UniqueTreeContainer.UniqueTreeContainer&#45;&gt;uqbar.containers.UniqueTreeList.UniqueTreeList</title>
<path fill="none" stroke="lightslategrey" d="M237.47,-433.34C245.69,-431.45 254.7,-429.38 263.11,-427.45"/>
<polygon fill="lightslategrey" stroke="lightslategrey" points="264.02,-430.83 272.98,-425.18 262.45,-424.01 264.02,-430.83"/>
</g>
<!-- uqbar.containers.UniqueTreeContainer.UniqueTreeContainer&#45;&gt;uqbar.containers.UniqueTreeSet.UniqueTreeSet -->
<g id="edge3" class="edge">
<title>uqbar.containers.UniqueTreeContainer.UniqueTreeContainer&#45;&gt;uqbar.containers.UniqueTreeSet.UniqueTreeSet</title>
<path fill="none" stroke="lightslategrey" d="M237.02,-444.82C248.22,-446.6 261.19,-448.55 273,-450 298.73,-453.17 327.97,-455.79 349.76,-457.55"/>
<polygon fill="lightslategrey" stroke="lightslategrey" points="349.56,-461.05 359.81,-458.35 350.11,-454.07 349.56,-461.05"/>
</g>
<!-- uqbar.containers.UniqueTreeContainer.UniqueTreeContainer&#45;&gt;uqbar.containers.UniqueTreeTuple.UniqueTreeTuple -->
<g id="edge4" class="edge">
<title>uqbar.containers.UniqueTreeContainer.UniqueTreeContainer&#45;&gt;uqbar.containers.UniqueTreeTuple.UniqueTreeTuple</title>
<path fill="none" stroke="lightslategrey" d="M237.47,-459.98C246.14,-465.96 255.69,-472.55 264.49,-478.61"/>
<polygon fill="lightslategrey" stroke="lightslategrey" points="262.76,-481.68 272.98,-484.47 266.74,-475.91 262.76,-481.68"/>
</g>
<!-- uqbar.containers.UniqueTreeList.UniqueTreeList&#45;&gt;uqbar.apis.PackageNode.PackageNode -->
<g id="edge7" class="edge">
<title>uqbar.containers.UniqueTreeList.UniqueTreeList&#45;&gt;uqbar.apis.PackageNode.PackageNode</title>
<path fill="none" stroke="lightslategrey" d="M314.58,-399.2C316.51,-396.51 318.36,-393.73 320,-391 335.73,-364.7 332.49,-354.42 348,-328 352.48,-320.37 357.99,-312.52 363.28,-305.5"/>
<polygon fill="lightslategrey" stroke="lightslategrey" points="366.4,-307.19 369.77,-297.15 360.87,-302.9 366.4,-307.19"/>
</g>
<!-- uqbar.containers.UniqueTreeList.UniqueTreeList&#45;&gt;uqbar.graphs.Graph.Graph -->
<g id="edge8" class="edge">
<title>uqbar.containers.UniqueTreeList.UniqueTreeList&#45;&gt;uqbar.graphs.Graph.Graph</title>
<path fill="none" stroke="lightslategrey" d="M315.39,-399.18C317.13,-396.53 318.72,-393.78 320,-391 345.81,-334.94 301.75,-295.85 348,-255 373.67,-232.33 414.87,-233.58 443.12,-238.02"/>
<polygon fill="lightslategrey" stroke="lightslategrey" points="442.8,-241.51 453.26,-239.83 444.03,-234.62 442.8,-241.51"/>
</g>
<!-- uqbar.containers.UniqueTreeList.UniqueTreeList&#45;&gt;uqbar.graphs.Node.Node -->
<g id="edge9" class="edge">
<title>uqbar.containers.UniqueTreeList.UniqueTreeList&#45;&gt;uqbar.graphs.Node.Node</title>
<path fill="none" stroke="lightslategrey" d="M315.47,-399.22C317.2,-396.56 318.76,-393.8 320,-391 349.21,-324.98 297.14,-282.23 348,-231 373,-205.81 415.81,-203.09 444.5,-204.61"/>
<polygon fill="lightslategrey" stroke="lightslategrey" points="444.5,-208.12 454.73,-205.37 445.02,-201.14 444.5,-208.12"/>
</g>
<!-- uqbar.containers.UniqueTreeList.UniqueTreeList&#45;&gt;uqbar.graphs.RecordGroup.RecordGroup -->
<g id="edge10" class="edge">
<title>uqbar.containers.UniqueTreeList.UniqueTreeList&#45;&gt;uqbar.graphs.RecordGroup.RecordGroup</title>
<path fill="none" stroke="lightslategrey" d="M315.55,-399.25C317.26,-396.59 318.8,-393.81 320,-391 353.62,-312.07 291.25,-264.35 348,-200 371,-173.92 411.59,-166.52 440.49,-164.78"/>
<polygon fill="lightslategrey" stroke="lightslategrey" points="440.7,-168.27 450.55,-164.37 440.41,-161.28 440.7,-168.27"/>
</g>
<!-- uqbar.containers.UniqueTreeList.UniqueTreeList&#45;&gt;uqbar.graphs.Table.Table -->
<g id="edge11" class="edge">
<title>uqbar.containers.UniqueTreeList.UniqueTreeList&#45;&gt;uqbar.graphs.Table.Table</title>
<path fill="none" stroke="lightslategrey" d="M315.61,-399.28C317.31,-396.61 318.83,-393.83 320,-391 358.91,-296.61 283.08,-241.79 348,-163 371.58,-134.38 415.43,-125.55 444.66,-122.93"/>
<polygon fill="lightslategrey" stroke="lightslategrey" points="444.98,-126.42 454.71,-122.22 444.49,-119.43 444.98,-126.42"/>
</g>
<!-- uqbar.containers.UniqueTreeList.UniqueTreeList&#45;&gt;uqbar.graphs.TableCell.TableCell -->
<g id="edge12" class="edge">
<title>uqbar.containers.UniqueTreeList.UniqueTreeList&#45;&gt;uqbar.graphs.TableCell.TableCell</title>
<path fill="none" stroke="lightslategrey" d="M315.67,-399.3C317.36,-396.63 318.86,-393.84 320,-391 342.39,-335.23 310.55,-169 348,-122 371.22,-92.86 415.16,-83.37 444.52,-80.33"/>
<polygon fill="lightslategrey" stroke="lightslategrey" points="444.94,-83.81 454.61,-79.48 444.35,-76.84 444.94,-83.81"/>
</g>
<!-- uqbar.containers.UniqueTreeList.UniqueTreeList&#45;&gt;uqbar.graphs.TableRow.TableRow -->
<g id="edge13" class="edge">
<title>uqbar.containers.UniqueTreeList.UniqueTreeList&#45;&gt;uqbar.graphs.TableRow.TableRow</title>
<path fill="none" stroke="lightslategrey" d="M315.71,-399.31C317.39,-396.64 318.88,-393.85 320,-391 345.4,-326.43 306.29,-135.46 348,-80 370.87,-49.59 415.29,-38.05 444.81,-33.67"/>
<polygon fill="lightslategrey" stroke="lightslategrey" points="445.47,-37.11 454.94,-32.36 444.57,-30.17 445.47,-37.11"/>
</g>
<!-- uqbar.containers.UniqueTreeNode.UniqueTreeNode&#45;&gt;uqbar.containers.UniqueTreeContainer.UniqueTreeContainer -->
<g id="edge5" class="edge">
<title>uqbar.containers.UniqueTreeNode.UniqueTreeNode&#45;&gt;uqbar.containers.UniqueTreeContainer.UniqueTreeContainer</title>
<path fill="none" stroke="lightslategrey" d="M142.36,-440C150.17,-440 159.15,-440 167.86,-440"/>
<polygon fill="lightslategrey" stroke="lightslategrey" points="167.88,-443.5 177.88,-440 167.88,-436.5 167.88,-443.5"/>
</g>
<!-- builtins.object -->
<g id="node1" class="node">
<title>builtins.object</title>
<g id="a_node1"><a xlink:href="https://docs.python.org/3.6/library/functions.html#object" xlink:title="object" target="_top">
<path fill="#fbb4ae" stroke="#fbb4ae" stroke-width="2" d="M52.67,-449.5C52.67,-449.5 22.33,-449.5 22.33,-449.5 19.17,-449.5 16,-446.33 16,-443.17 16,-443.17 16,-436.83 16,-436.83 16,-433.67 19.17,-430.5 22.33,-430.5 22.33,-430.5 52.67,-430.5 52.67,-430.5 55.83,-430.5 59,-433.67 59,-436.83 59,-436.83 59,-443.17 59,-443.17 59,-446.33 55.83,-449.5 52.67,-449.5"/>
<text text-anchor="middle" x="37.5" y="-437.5" font-family="Arial" font-size="10.00">object</text>
</a>
</g>
</g>
<!-- uqbar.apis.PackageNode.PackageNode -->
<g id="node2" class="node">
<title>uqbar.apis.PackageNode.PackageNode</title>
<g id="a_node2"><a xlink:href="../api/uqbar/containers/../apis/PackageNode.html#uqbar.apis.PackageNode.PackageNode" xlink:title="Package\nNode" target="_top">
<path fill="#b3cde3" stroke="#b3cde3" stroke-width="2" d="M401,-297C401,-297 366,-297 366,-297 361,-297 356,-292 356,-287 356,-287 356,-277 356,-277 356,-272 361,-267 366,-267 366,-267 401,-267 401,-267 406,-267 411,-272 411,-277 411,-277 411,-287 411,-287 411,-292 406,-297 401,-297"/>
<text text-anchor="middle" x="383.5" y="-285" font-family="Arial" font-size="10.00">Package</text>
<text text-anchor="middle" x="383.5" y="-274" font-family="Arial" font-size="10.00">Node</text>
</a>
</g>
</g>
<!-- uqbar.containers.UniqueTreeContainer.UniqueTreeContainer -->
<g id="node3" class="node">
<title>uqbar.containers.UniqueTreeContainer.UniqueTreeContainer</title>
<g id="a_node3"><a xlink:href="../api/uqbar/containers/UniqueTreeContainer.html#uqbar.containers.UniqueTreeContainer.UniqueTreeContainer" xlink:title="Unique\nTree\nContainer" target="_top">
<path fill="black" stroke="black" stroke-width="2" d="M225,-460.5C225,-460.5 190,-460.5 190,-460.5 184,-460.5 178,-454.5 178,-448.5 178,-448.5 178,-431.5 178,-431.5 178,-425.5 184,-419.5 190,-419.5 190,-419.5 225,-419.5 225,-419.5 231,-419.5 237,-425.5 237,-431.5 237,-431.5 237,-448.5 237,-448.5 237,-454.5 231,-460.5 225,-460.5"/>
<text text-anchor="middle" x="207.5" y="-448.5" font-family="Arial" font-size="10.00" fill="white">Unique</text>
<text text-anchor="middle" x="207.5" y="-437.5" font-family="Arial" font-size="10.00" fill="white">Tree</text>
<text text-anchor="middle" x="207.5" y="-426.5" font-family="Arial" font-size="10.00" fill="white">Container</text>
</a>
</g>
</g>
<!-- uqbar.containers.UniqueTreeDict.UniqueTreeDict -->
<g id="node4" class="node">
<title>uqbar.containers.UniqueTreeDict.UniqueTreeDict</title>
<g id="a_node4"><a xlink:href="../api/uqbar/containers/UniqueTreeDict.html#uqbar.containers.UniqueTreeDict.UniqueTreeDict" xlink:title="Unique\nTree\nDict" target="_top">
<path fill="#ccebc5" stroke="#ccebc5" stroke-width="2" d="M308,-381.5C308,-381.5 285,-381.5 285,-381.5 279,-381.5 273,-375.5 273,-369.5 273,-369.5 273,-352.5 273,-352.5 273,-346.5 279,-340.5 285,-340.5 285,-340.5 308,-340.5 308,-340.5 314,-340.5 320,-346.5 320,-352.5 320,-352.5 320,-369.5 320,-369.5 320,-375.5 314,-381.5 308,-381.5"/>
<text text-anchor="middle" x="296.5" y="-369.5" font-family="Arial" font-size="10.00">Unique</text>
<text text-anchor="middle" x="296.5" y="-358.5" font-family="Arial" font-size="10.00">Tree</text>
<text text-anchor="middle" x="296.5" y="-347.5" font-family="Arial" font-size="10.00">Dict</text>
</a>
</g>
</g>
<!-- uqbar.containers.UniqueTreeList.UniqueTreeList -->
<g id="node5" class="node">
<title>uqbar.containers.UniqueTreeList.UniqueTreeList</title>
<g id="a_node5"><a xlink:href="../api/uqbar/containers/UniqueTreeList.html#uqbar.containers.UniqueTreeList.UniqueTreeList" xlink:title="Unique\nTree\nList" target="_top">
<path fill="#ccebc5" stroke="#ccebc5" stroke-width="2" d="M308,-440.5C308,-440.5 285,-440.5 285,-440.5 279,-440.5 273,-434.5 273,-428.5 273,-428.5 273,-411.5 273,-411.5 273,-405.5 279,-399.5 285,-399.5 285,-399.5 308,-399.5 308,-399.5 314,-399.5 320,-405.5 320,-411.5 320,-411.5 320,-428.5 320,-428.5 320,-434.5 314,-440.5 308,-440.5"/>
<text text-anchor="middle" x="296.5" y="-428.5" font-family="Arial" font-size="10.00">Unique</text>
<text text-anchor="middle" x="296.5" y="-417.5" font-family="Arial" font-size="10.00">Tree</text>
<text text-anchor="middle" x="296.5" y="-406.5" font-family="Arial" font-size="10.00">List</text>
</a>
</g>
</g>
<!-- uqbar.containers.UniqueTreeSet.UniqueTreeSet -->
<g id="node6" class="node">
<title>uqbar.containers.UniqueTreeSet.UniqueTreeSet</title>
<g id="a_node6"><a xlink:href="../api/uqbar/containers/UniqueTreeSet.html#uqbar.containers.UniqueTreeSet.UniqueTreeSet" xlink:title="Unique\nTree\nSet" target="_top">
<path fill="#ccebc5" stroke="#ccebc5" stroke-width="2" d="M395,-480.5C395,-480.5 372,-480.5 372,-480.5 366,-480.5 360,-474.5 360,-468.5 360,-468.5 360,-451.5 360,-451.5 360,-445.5 366,-439.5 372,-439.5 372,-439.5 395,-439.5 395,-439.5 401,-439.5 407,-445.5 407,-451.5 407,-451.5 407,-468.5 407,-468.5 407,-474.5 401,-480.5 395,-480.5"/>
<text text-anchor="middle" x="383.5" y="-468.5" font-family="Arial" font-size="10.00">Unique</text>
<text text-anchor="middle" x="383.5" y="-457.5" font-family="Arial" font-size="10.00">Tree</text>
<text text-anchor="middle" x="383.5" y="-446.5" font-family="Arial" font-size="10.00">Set</text>
</a>
</g>
</g>
<!-- uqbar.containers.UniqueTreeTuple.UniqueTreeTuple -->
<g id="node7" class="node">
<title>uqbar.containers.UniqueTreeTuple.UniqueTreeTuple</title>
<g id="a_node7"><a xlink:href="../api/uqbar/containers/UniqueTreeTuple.html#uqbar.containers.UniqueTreeTuple.UniqueTreeTuple" xlink:title="Unique\nTree\nTuple" target="_top">
<path fill="#ccebc5" stroke="#ccebc5" stroke-width="2" d="M308,-520.5C308,-520.5 285,-520.5 285,-520.5 279,-520.5 273,-514.5 273,-508.5 273,-508.5 273,-491.5 273,-491.5 273,-485.5 279,-479.5 285,-479.5 285,-479.5 308,-479.5 308,-479.5 314,-479.5 320,-485.5 320,-491.5 320,-491.5 320,-508.5 320,-508.5 320,-514.5 314,-520.5 308,-520.5"/>
<text text-anchor="middle" x="296.5" y="-508.5" font-family="Arial" font-size="10.00">Unique</text>
<text text-anchor="middle" x="296.5" y="-497.5" font-family="Arial" font-size="10.00">Tree</text>
<text text-anchor="middle" x="296.5" y="-486.5" font-family="Arial" font-size="10.00">Tuple</text>
</a>
</g>
</g>
<!-- uqbar.containers.UniqueTreeNode.UniqueTreeNode -->
<g id="node8" class="node">
<title>uqbar.containers.UniqueTreeNode.UniqueTreeNode</title>
<g id="a_node8"><a xlink:href="../api/uqbar/containers/UniqueTreeNode.html#uqbar.containers.UniqueTreeNode.UniqueTreeNode" xlink:title="Unique\nTree\nNode" target="_top">
<path fill="#ccebc5" stroke="#ccebc5" stroke-width="2" d="M130,-460.5C130,-460.5 107,-460.5 107,-460.5 101,-460.5 95,-454.5 95,-448.5 95,-448.5 95,-431.5 95,-431.5 95,-425.5 101,-419.5 107,-419.5 107,-419.5 130,-419.5 130,-419.5 136,-419.5 142,-425.5 142,-431.5 142,-431.5 142,-448.5 142,-448.5 142,-454.5 136,-460.5 130,-460.5"/>
<text text-anchor="middle" x="118.5" y="-448.5" font-family="Arial" font-size="10.00">Unique</text>
<text text-anchor="middle" x="118.5" y="-437.5" font-family="Arial" font-size="10.00">Tree</text>
<text text-anchor="middle" x="118.5" y="-426.5" font-family="Arial" font-size="10.00">Node</text>
</a>
</g>
</g>
<!-- uqbar.graphs.Graph.Graph -->
<g id="node9" class="node">
<title>uqbar.graphs.Graph.Graph</title>
<g id="a_node9"><a xlink:href="../api/uqbar/containers/../graphs/Graph.html#uqbar.graphs.Graph.Graph" xlink:title="Graph" target="_top">
<path fill="#decbe4" stroke="#decbe4" stroke-width="2" d="M490.17,-254.5C490.17,-254.5 459.83,-254.5 459.83,-254.5 456.67,-254.5 453.5,-251.33 453.5,-248.17 453.5,-248.17 453.5,-241.83 453.5,-241.83 453.5,-238.67 456.67,-235.5 459.83,-235.5 459.83,-235.5 490.17,-235.5 490.17,-235.5 493.33,-235.5 496.5,-238.67 496.5,-241.83 496.5,-241.83 496.5,-248.17 496.5,-248.17 496.5,-251.33 493.33,-254.5 490.17,-254.5"/>
<text text-anchor="middle" x="475" y="-242.5" font-family="Arial" font-size="10.00">Graph</text>
</a>
</g>
</g>
<!-- uqbar.graphs.Node.Node -->
<g id="node10" class="node">
<title>uqbar.graphs.Node.Node</title>
<g id="a_node10"><a xlink:href="../api/uqbar/containers/../graphs/Node.html#uqbar.graphs.Node.Node" xlink:title="Node" target="_top">
<path fill="#decbe4" stroke="#decbe4" stroke-width="2" d="M488.67,-217.5C488.67,-217.5 461.33,-217.5 461.33,-217.5 458.17,-217.5 455,-214.33 455,-211.17 455,-211.17 455,-204.83 455,-204.83 455,-201.67 458.17,-198.5 461.33,-198.5 461.33,-198.5 488.67,-198.5 488.67,-198.5 491.83,-198.5 495,-201.67 495,-204.83 495,-204.83 495,-211.17 495,-211.17 495,-214.33 491.83,-217.5 488.67,-217.5"/>
<text text-anchor="middle" x="475" y="-205.5" font-family="Arial" font-size="10.00">Node</text>
</a>
</g>
</g>
<!-- uqbar.graphs.RecordGroup.RecordGroup -->
<g id="node11" class="node">
<title>uqbar.graphs.RecordGroup.RecordGroup</title>
<g id="a_node11"><a xlink:href="../api/uqbar/containers/../graphs/RecordGroup.html#uqbar.graphs.RecordGroup.RecordGroup" xlink:title="Record\nGroup" target="_top">
<path fill="#decbe4" stroke="#decbe4" stroke-width="2" d="M489,-180C489,-180 461,-180 461,-180 456,-180 451,-175 451,-170 451,-170 451,-160 451,-160 451,-155 456,-150 461,-150 461,-150 489,-150 489,-150 494,-150 499,-155 499,-160 499,-160 499,-170 499,-170 499,-175 494,-180 489,-180"/>
<text text-anchor="middle" x="475" y="-168" font-family="Arial" font-size="10.00">Record</text>
<text text-anchor="middle" x="475" y="-157" font-family="Arial" font-size="10.00">Group</text>
</a>
</g>
</g>
<!-- uqbar.graphs.Table.Table -->
<g id="node12" class="node">
<title>uqbar.graphs.Table.Table</title>
<g id="a_node12"><a xlink:href="../api/uqbar/containers/../graphs/Table.html#uqbar.graphs.Table.Table" xlink:title="Table" target="_top">
<path fill="#decbe4" stroke="#decbe4" stroke-width="2" d="M488.67,-131.5C488.67,-131.5 461.33,-131.5 461.33,-131.5 458.17,-131.5 455,-128.33 455,-125.17 455,-125.17 455,-118.83 455,-118.83 455,-115.67 458.17,-112.5 461.33,-112.5 461.33,-112.5 488.67,-112.5 488.67,-112.5 491.83,-112.5 495,-115.67 495,-118.83 495,-118.83 495,-125.17 495,-125.17 495,-128.33 491.83,-131.5 488.67,-131.5"/>
<text text-anchor="middle" x="475" y="-119.5" font-family="Arial" font-size="10.00">Table</text>
</a>
</g>
</g>
<!-- uqbar.graphs.TableCell.TableCell -->
<g id="node13" class="node">
<title>uqbar.graphs.TableCell.TableCell</title>
<g id="a_node13"><a xlink:href="../api/uqbar/containers/../graphs/TableCell.html#uqbar.graphs.TableCell.TableCell" xlink:title="Table\nCell" target="_top">
<path fill="#decbe4" stroke="#decbe4" stroke-width="2" d="M485,-94C485,-94 465,-94 465,-94 460,-94 455,-89 455,-84 455,-84 455,-74 455,-74 455,-69 460,-64 465,-64 465,-64 485,-64 485,-64 490,-64 495,-69 495,-74 495,-74 495,-84 495,-84 495,-89 490,-94 485,-94"/>
<text text-anchor="middle" x="475" y="-82" font-family="Arial" font-size="10.00">Table</text>
<text text-anchor="middle" x="475" y="-71" font-family="Arial" font-size="10.00">Cell</text>
</a>
</g>
</g>
<!-- uqbar.graphs.TableRow.TableRow -->
<g id="node14" class="node">
<title>uqbar.graphs.TableRow.TableRow</title>
<g id="a_node14"><a xlink:href="../api/uqbar/containers/../graphs/TableRow.html#uqbar.graphs.TableRow.TableRow" xlink:title="Table\nRow" target="_top">
<path fill="#decbe4" stroke="#decbe4" stroke-width="2" d="M485,-46C485,-46 465,-46 465,-46 460,-46 455,-41 455,-36 455,-36 455,-26 455,-26 455,-21 460,-16 465,-16 465,-16 485,-16 485,-16 490,-16 495,-21 495,-26 495,-26 495,-36 495,-36 495,-41 490,-46 485,-46"/>
<text text-anchor="middle" x="475" y="-34" font-family="Arial" font-size="10.00">Table</text>
<text text-anchor="middle" x="475" y="-23" font-family="Arial" font-size="10.00">Row</text>
</a>
</g>
</g>
</g>
</svg>
