<?xml version="1.0" encoding="UTF-8" standalone="no"?>
<!DOCTYPE svg PUBLIC "-//W3C//DTD SVG 1.1//EN"
 "http://www.w3.org/Graphics/SVG/1.1/DTD/svg11.dtd">
<!-- Generated by graphviz version 2.44.1 (20200629.0846)
 -->
<!-- Title: InheritanceGraph Pages: 1 -->
<svg width="434pt" height="137pt"
 viewBox="0.00 0.00 433.99 137.00" xmlns="http://www.w3.org/2000/svg" xmlns:xlink="http://www.w3.org/1999/xlink">
<g id="graph0" class="graph" transform="scale(1 1) rotate(0) translate(4 133)">
<title>InheritanceGraph</title>
<g id="clust1" class="cluster">
<title>cluster_builtins</title>
<path fill="transparent" stroke="#bcd2ee" stroke-width="2" stroke-dasharray="5,2" d="M20,-37C20,-37 55,-37 55,-37 61,-37 67,-43 67,-49 67,-49 67,-80 67,-80 67,-86 61,-92 55,-92 55,-92 20,-92 20,-92 14,-92 8,-86 8,-80 8,-80 8,-49 8,-49 8,-43 14,-37 20,-37"/>
<text text-anchor="middle" x="37.5" y="-80" font-family="Arial" font-size="10.00">builtins</text>
</g>
<g id="clust2" class="cluster">
<title>cluster_uqbar.apis</title>
<path fill="transparent" stroke="#bcd2ee" stroke-width="2" stroke-dasharray="5,2" d="M99,-8C99,-8 405.99,-8 405.99,-8 411.99,-8 417.99,-14 417.99,-20 417.99,-20 417.99,-109 417.99,-109 417.99,-115 411.99,-121 405.99,-121 405.99,-121 99,-121 99,-121 93,-121 87,-115 87,-109 87,-109 87,-20 87,-20 87,-14 93,-8 99,-8"/>
<text text-anchor="middle" x="252.5" y="-109" font-family="Arial" font-size="10.00">uqbar.apis</text>
</g>
<!-- builtins.object&#45;&gt;uqbar.apis.MemberDocumenter.MemberDocumenter -->
<g id="edge4" class="edge">
<title>builtins.object&#45;&gt;uqbar.apis.MemberDocumenter.MemberDocumenter</title>
<path fill="none" stroke="lightslategrey" d="M59.24,-55C66.79,-55 75.75,-55 84.95,-55"/>
<polygon fill="lightslategrey" stroke="lightslategrey" points="84.98,-58.5 94.98,-55 84.98,-51.5 84.98,-58.5"/>
</g>
<!-- uqbar.apis.ClassDocumenter.ClassDocumenter&#45;&gt;uqbar.apis.SummarizingClassDocumenter.SummarizingClassDocumenter -->
<g id="edge1" class="edge">
<title>uqbar.apis.ClassDocumenter.ClassDocumenter&#45;&gt;uqbar.apis.SummarizingClassDocumenter.SummarizingClassDocumenter</title>
<path fill="none" stroke="lightslategrey" d="M300.12,-32.93C308.21,-33.39 316.97,-33.89 325.51,-34.37"/>
<polygon fill="lightslategrey" stroke="lightslategrey" points="325.56,-37.88 335.74,-34.95 325.96,-30.89 325.56,-37.88"/>
</g>
<!-- uqbar.apis.MemberDocumenter.MemberDocumenter&#45;&gt;uqbar.apis.ClassDocumenter.ClassDocumenter -->
<g id="edge2" class="edge">
<title>uqbar.apis.MemberDocumenter.MemberDocumenter&#45;&gt;uqbar.apis.ClassDocumenter.ClassDocumenter</title>
<path fill="none" stroke="lightslategrey" d="M189.62,-46.06C199.49,-44.07 209.95,-41.95 219.82,-39.95"/>
<polygon fill="lightslategrey" stroke="lightslategrey" points="220.73,-43.33 229.83,-37.92 219.34,-36.47 220.73,-43.33"/>
</g>
<!-- uqbar.apis.MemberDocumenter.MemberDocumenter&#45;&gt;uqbar.apis.FunctionDocumenter.FunctionDocumenter -->
<g id="edge3" class="edge">
<title>uqbar.apis.MemberDocumenter.MemberDocumenter&#45;&gt;uqbar.apis.FunctionDocumenter.FunctionDocumenter</title>
<path fill="none" stroke="lightslategrey" d="M189.62,-63.94C199.49,-65.93 209.95,-68.05 219.82,-70.05"/>
<polygon fill="lightslategrey" stroke="lightslategrey" points="219.34,-73.53 229.83,-72.08 220.73,-66.67 219.34,-73.53"/>
</g>
<!-- builtins.object -->
<g id="node1" class="node">
<title>builtins.object</title>
<g id="a_node1"><a xlink:href="https://docs.python.org/3.6/library/functions.html#object" xlink:title="object" target="_top">
<path fill="#fbb4ae" stroke="#fbb4ae" stroke-width="2" d="M52.67,-64.5C52.67,-64.5 22.33,-64.5 22.33,-64.5 19.17,-64.5 16,-61.33 16,-58.17 16,-58.17 16,-51.83 16,-51.83 16,-48.67 19.17,-45.5 22.33,-45.5 22.33,-45.5 52.67,-45.5 52.67,-45.5 55.83,-45.5 59,-48.67 59,-51.83 59,-51.83 59,-58.17 59,-58.17 59,-61.33 55.83,-64.5 52.67,-64.5"/>
<text text-anchor="middle" x="37.5" y="-52.5" font-family="Arial" font-size="10.00">object</text>
</a>
</g>
</g>
<!-- uqbar.apis.ClassDocumenter.ClassDocumenter -->
<g id="node2" class="node">
<title>uqbar.apis.ClassDocumenter.ClassDocumenter</title>
<g id="a_node2"><a xlink:href="../api/uqbar/apis/ClassDocumenter.html#uqbar.apis.ClassDocumenter.ClassDocumenter" xlink:title="Class\nDocumenter" target="_top">
<path fill="#b3cde3" stroke="#b3cde3" stroke-width="2" d="M289.99,-46C289.99,-46 239.99,-46 239.99,-46 234.99,-46 229.99,-41 229.99,-36 229.99,-36 229.99,-26 229.99,-26 229.99,-21 234.99,-16 239.99,-16 239.99,-16 289.99,-16 289.99,-16 294.99,-16 299.99,-21 299.99,-26 299.99,-26 299.99,-36 299.99,-36 299.99,-41 294.99,-46 289.99,-46"/>
<text text-anchor="middle" x="264.99" y="-34" font-family="Arial" font-size="10.00">Class</text>
<text text-anchor="middle" x="264.99" y="-23" font-family="Arial" font-size="10.00">Documenter</text>
</a>
</g>
</g>
<!-- uqbar.apis.FunctionDocumenter.FunctionDocumenter -->
<g id="node3" class="node">
<title>uqbar.apis.FunctionDocumenter.FunctionDocumenter</title>
<g id="a_node3"><a xlink:href="../api/uqbar/apis/FunctionDocumenter.html#uqbar.apis.FunctionDocumenter.FunctionDocumenter" xlink:title="Function\nDocumenter" target="_top">
<path fill="#b3cde3" stroke="#b3cde3" stroke-width="2" d="M289.99,-94C289.99,-94 239.99,-94 239.99,-94 234.99,-94 229.99,-89 229.99,-84 229.99,-84 229.99,-74 229.99,-74 229.99,-69 234.99,-64 239.99,-64 239.99,-64 289.99,-64 289.99,-64 294.99,-64 299.99,-69 299.99,-74 299.99,-74 299.99,-84 299.99,-84 299.99,-89 294.99,-94 289.99,-94"/>
<text text-anchor="middle" x="264.99" y="-82" font-family="Arial" font-size="10.00">Function</text>
<text text-anchor="middle" x="264.99" y="-71" font-family="Arial" font-size="10.00">Documenter</text>
</a>
</g>
</g>
<!-- uqbar.apis.MemberDocumenter.MemberDocumenter -->
<g id="node4" class="node">
<title>uqbar.apis.MemberDocumenter.MemberDocumenter</title>
<g id="a_node4"><a xlink:href="../api/uqbar/apis/MemberDocumenter.html#uqbar.apis.MemberDocumenter.MemberDocumenter" xlink:title="Member\nDocumenter" target="_top">
<ellipse fill="black" stroke="black" stroke-width="2" cx="144.5" cy="-55" rx="49.49" ry="21.43"/>
<text text-anchor="middle" x="144.5" y="-58" font-family="Arial" font-size="10.00" fill="white">Member</text>
<text text-anchor="middle" x="144.5" y="-47" font-family="Arial" font-size="10.00" fill="white">Documenter</text>
</a>
</g>
</g>
<!-- uqbar.apis.SummarizingClassDocumenter.SummarizingClassDocumenter -->
<g id="node5" class="node">
<title>uqbar.apis.SummarizingClassDocumenter.SummarizingClassDocumenter</title>
<g id="a_node5"><a xlink:href="../api/uqbar/apis/SummarizingClassDocumenter.html#uqbar.apis.SummarizingClassDocumenter.SummarizingClassDocumenter" xlink:title="Summarizing\nClass\nDocumenter" target="_top">
<path fill="#b3cde3" stroke="#b3cde3" stroke-width="2" d="M397.99,-57.5C397.99,-57.5 347.99,-57.5 347.99,-57.5 341.99,-57.5 335.99,-51.5 335.99,-45.5 335.99,-45.5 335.99,-28.5 335.99,-28.5 335.99,-22.5 341.99,-16.5 347.99,-16.5 347.99,-16.5 397.99,-16.5 397.99,-16.5 403.99,-16.5 409.99,-22.5 409.99,-28.5 409.99,-28.5 409.99,-45.5 409.99,-45.5 409.99,-51.5 403.99,-57.5 397.99,-57.5"/>
<text text-anchor="middle" x="372.99" y="-45.5" font-family="Arial" font-size="10.00">Summarizing</text>
<text text-anchor="middle" x="372.99" y="-34.5" font-family="Arial" font-size="10.00">Class</text>
<text text-anchor="middle" x="372.99" y="-23.5" font-family="Arial" font-size="10.00">Documenter</text>
</a>
</g>
</g>
</g>
</svg>
