<?xml version="1.0" encoding="UTF-8" standalone="no"?>
<!DOCTYPE svg PUBLIC "-//W3C//DTD SVG 1.1//EN"
 "http://www.w3.org/Graphics/SVG/1.1/DTD/svg11.dtd">
<!-- Generated by graphviz version 2.40.1 (20161225.0304)
 -->
<!-- Title: InheritanceGraph Pages: 1 -->
<svg width="430pt" height="250pt"
 viewBox="0.00 0.00 430.00 250.00" xmlns="http://www.w3.org/2000/svg" xmlns:xlink="http://www.w3.org/1999/xlink">
<g id="graph0" class="graph" transform="scale(1 1) rotate(0) translate(4 246)">
<title>InheritanceGraph</title>
<g id="clust1" class="cluster">
<title>cluster_builtins</title>
<path fill="transparent" stroke="#bcd2ee" stroke-width="2" stroke-dasharray="5,2" d="M20,-169C20,-169 220,-169 220,-169 226,-169 232,-175 232,-181 232,-181 232,-222 232,-222 232,-228 226,-234 220,-234 220,-234 20,-234 20,-234 14,-234 8,-228 8,-222 8,-222 8,-181 8,-181 8,-175 14,-169 20,-169"/>
<text text-anchor="middle" x="120" y="-222" font-family="Arial" font-size="10.00" fill="#000000">builtins</text>
</g>
<g id="clust2" class="cluster">
<title>cluster_code</title>
<path fill="transparent" stroke="#bcd2ee" stroke-width="2" stroke-dasharray="5,2" d="M178,-96C178,-96 308,-96 308,-96 314,-96 320,-102 320,-108 320,-108 320,-149 320,-149 320,-155 314,-161 308,-161 308,-161 178,-161 178,-161 172,-161 166,-155 166,-149 166,-149 166,-108 166,-108 166,-102 172,-96 178,-96"/>
<text text-anchor="middle" x="243" y="-149" font-family="Arial" font-size="10.00" fill="#000000">code</text>
</g>
<g id="clust3" class="cluster">
<title>cluster_uqbar.book.console</title>
<path fill="transparent" stroke="#bcd2ee" stroke-width="2" stroke-dasharray="5,2" d="M352,-8C352,-8 410,-8 410,-8 416,-8 422,-14 422,-20 422,-20 422,-195 422,-195 422,-201 416,-207 410,-207 410,-207 352,-207 352,-207 346,-207 340,-201 340,-195 340,-195 340,-20 340,-20 340,-14 346,-8 352,-8"/>
<text text-anchor="middle" x="381" y="-195" font-family="Arial" font-size="10.00" fill="#000000">uqbar.book.console</text>
</g>
<!-- builtins.BaseException&#45;&gt;builtins.Exception -->
<g id="edge1" class="edge">
<title>builtins.BaseException&#45;&gt;builtins.Exception</title>
<path fill="none" stroke="#778899" d="M138.3748,-191.1323C146.6468,-190.8437 156.0143,-190.5169 164.8862,-190.2075"/>
<polygon fill="#778899" stroke="#778899" points="165.1063,-193.702 174.9781,-189.8554 164.8622,-186.7063 165.1063,-193.702"/>
</g>
<!-- builtins.Exception&#45;&gt;uqbar.book.console.ConsoleError -->
<g id="edge4" class="edge">
<title>builtins.Exception&#45;&gt;uqbar.book.console.ConsoleError</title>
<path fill="none" stroke="#778899" d="M224.3562,-185.7132C256.6466,-181.4434 313.0855,-173.9804 348.6735,-169.2746"/>
<polygon fill="#778899" stroke="#778899" points="349.544,-172.69 358.9988,-167.9092 348.6263,-165.7504 349.544,-172.69"/>
</g>
<!-- builtins.object&#45;&gt;builtins.BaseException -->
<g id="edge2" class="edge">
<title>builtins.object&#45;&gt;builtins.BaseException</title>
<path fill="none" stroke="#778899" d="M53.2219,-188.1849C60.8959,-188.6706 70.0326,-189.2489 78.843,-189.8065"/>
<polygon fill="#778899" stroke="#778899" points="78.7274,-193.3061 88.9285,-190.4448 79.1696,-186.3201 78.7274,-193.3061"/>
</g>
<!-- builtins.object&#45;&gt;code.InteractiveInterpreter -->
<g id="edge5" class="edge">
<title>builtins.object&#45;&gt;code.InteractiveInterpreter</title>
<path fill="none" stroke="#778899" d="M53.1069,-179.3317C80.0316,-168.2355 130.3504,-147.498 164.3873,-133.4707"/>
<polygon fill="#778899" stroke="#778899" points="166.0407,-136.5749 173.9527,-129.5286 163.3735,-130.103 166.0407,-136.5749"/>
</g>
<!-- builtins.object&#45;&gt;uqbar.book.console.ConsoleInput -->
<g id="edge6" class="edge">
<title>builtins.object&#45;&gt;uqbar.book.console.ConsoleInput</title>
<path fill="none" stroke="#778899" d="M43.5104,-177.1912C63.2635,-156.5117 112.8745,-108.9538 166,-92 228.3985,-72.0869 306.0595,-73.3373 348.8867,-76.1129"/>
<polygon fill="#778899" stroke="#778899" points="348.7687,-79.6134 358.9939,-76.8395 349.2707,-72.6314 348.7687,-79.6134"/>
</g>
<!-- builtins.object&#45;&gt;uqbar.book.console.ConsoleOutput -->
<g id="edge7" class="edge">
<title>builtins.object&#45;&gt;uqbar.book.console.ConsoleOutput</title>
<path fill="none" stroke="#778899" d="M37.98,-177.3826C44.9155,-159.5412 62.1435,-121.2075 89,-100 166.934,-38.4588 290.7207,-30.3105 348.8535,-30.1616"/>
<polygon fill="#778899" stroke="#778899" points="348.8995,-33.6618 358.9182,-30.2158 348.9373,-26.6619 348.8995,-33.6618"/>
</g>
<!-- code.InteractiveConsole&#45;&gt;uqbar.book.console.Console -->
<g id="edge8" class="edge">
<title>code.InteractiveConsole&#45;&gt;uqbar.book.console.Console</title>
<path fill="none" stroke="#778899" d="M312.3225,-119.8198C323.4519,-120.1731 336.5935,-120.5903 348.3857,-120.9646"/>
<polygon fill="#778899" stroke="#778899" points="348.6334,-124.4742 358.7394,-121.2933 348.8556,-117.4777 348.6334,-124.4742"/>
</g>
<!-- code.InteractiveInterpreter&#45;&gt;code.InteractiveConsole -->
<g id="edge3" class="edge">
<title>code.InteractiveInterpreter&#45;&gt;code.InteractiveConsole</title>
<path fill="none" stroke="#778899" d="M225.1323,-119C233.1144,-119 242.0679,-119 250.6164,-119"/>
<polygon fill="#778899" stroke="#778899" points="250.7503,-122.5001 260.7503,-119 250.7502,-115.5001 250.7503,-122.5001"/>
</g>
<!-- builtins.BaseException -->
<g id="node1" class="node">
<title>builtins.BaseException</title>
<g id="a_node1"><a xlink:href="https://docs.python.org/3.6/library/exceptions.html#BaseException" xlink:title="Base\nException" target="_top">
<path fill="#fbb4ae" stroke="#fbb4ae" stroke-width="2" d="M128,-207C128,-207 99,-207 99,-207 94,-207 89,-202 89,-197 89,-197 89,-187 89,-187 89,-182 94,-177 99,-177 99,-177 128,-177 128,-177 133,-177 138,-182 138,-187 138,-187 138,-197 138,-197 138,-202 133,-207 128,-207"/>
<text text-anchor="middle" x="113.5" y="-195" font-family="Arial" font-size="10.00" fill="#000000">Base</text>
<text text-anchor="middle" x="113.5" y="-184" font-family="Arial" font-size="10.00" fill="#000000">Exception</text>
</a>
</g>
</g>
<!-- builtins.Exception -->
<g id="node2" class="node">
<title>builtins.Exception</title>
<g id="a_node2"><a xlink:href="https://docs.python.org/3.6/library/exceptions.html#Exception" xlink:title="Exception" target="_top">
<path fill="#fbb4ae" stroke="#fbb4ae" stroke-width="2" d="M217.6667,-198.5C217.6667,-198.5 181.3333,-198.5 181.3333,-198.5 178.1667,-198.5 175,-195.3333 175,-192.1667 175,-192.1667 175,-185.8333 175,-185.8333 175,-182.6667 178.1667,-179.5 181.3333,-179.5 181.3333,-179.5 217.6667,-179.5 217.6667,-179.5 220.8333,-179.5 224,-182.6667 224,-185.8333 224,-185.8333 224,-192.1667 224,-192.1667 224,-195.3333 220.8333,-198.5 217.6667,-198.5"/>
<text text-anchor="middle" x="199.5" y="-186.5" font-family="Arial" font-size="10.00" fill="#000000">Exception</text>
</a>
</g>
</g>
<!-- builtins.object -->
<g id="node3" class="node">
<title>builtins.object</title>
<g id="a_node3"><a xlink:href="https://docs.python.org/3.6/library/functions.html#object" xlink:title="object" target="_top">
<path fill="#fbb4ae" stroke="#fbb4ae" stroke-width="2" d="M46.6667,-196.5C46.6667,-196.5 22.3333,-196.5 22.3333,-196.5 19.1667,-196.5 16,-193.3333 16,-190.1667 16,-190.1667 16,-183.8333 16,-183.8333 16,-180.6667 19.1667,-177.5 22.3333,-177.5 22.3333,-177.5 46.6667,-177.5 46.6667,-177.5 49.8333,-177.5 53,-180.6667 53,-183.8333 53,-183.8333 53,-190.1667 53,-190.1667 53,-193.3333 49.8333,-196.5 46.6667,-196.5"/>
<text text-anchor="middle" x="34.5" y="-184.5" font-family="Arial" font-size="10.00" fill="#000000">object</text>
</a>
</g>
</g>
<!-- code.InteractiveConsole -->
<g id="node4" class="node">
<title>code.InteractiveConsole</title>
<g id="a_node4"><a xlink:href="https://docs.python.org/3.6/library/code.html#code.InteractiveConsole" xlink:title="Interactive\nConsole" target="_top">
<path fill="#b3cde3" stroke="#b3cde3" stroke-width="2" d="M302,-134C302,-134 271,-134 271,-134 266,-134 261,-129 261,-124 261,-124 261,-114 261,-114 261,-109 266,-104 271,-104 271,-104 302,-104 302,-104 307,-104 312,-109 312,-114 312,-114 312,-124 312,-124 312,-129 307,-134 302,-134"/>
<text text-anchor="middle" x="286.5" y="-122" font-family="Arial" font-size="10.00" fill="#000000">Interactive</text>
<text text-anchor="middle" x="286.5" y="-111" font-family="Arial" font-size="10.00" fill="#000000">Console</text>
</a>
</g>
</g>
<!-- code.InteractiveInterpreter -->
<g id="node5" class="node">
<title>code.InteractiveInterpreter</title>
<g id="a_node5"><a xlink:href="https://docs.python.org/3.6/library/code.html#code.InteractiveInterpreter" xlink:title="Interactive\nInterpreter" target="_top">
<path fill="#b3cde3" stroke="#b3cde3" stroke-width="2" d="M215,-134C215,-134 184,-134 184,-134 179,-134 174,-129 174,-124 174,-124 174,-114 174,-114 174,-109 179,-104 184,-104 184,-104 215,-104 215,-104 220,-104 225,-109 225,-114 225,-114 225,-124 225,-124 225,-129 220,-134 215,-134"/>
<text text-anchor="middle" x="199.5" y="-122" font-family="Arial" font-size="10.00" fill="#000000">Interactive</text>
<text text-anchor="middle" x="199.5" y="-111" font-family="Arial" font-size="10.00" fill="#000000">Interpreter</text>
</a>
</g>
</g>
<!-- uqbar.book.console.Console -->
<g id="node6" class="node">
<title>uqbar.book.console.Console</title>
<g id="a_node6"><a xlink:href="../api/uqbar/book/console.html#uqbar.book.console.Console" xlink:title="Console" target="_top">
<path fill="#000000" stroke="#000000" stroke-width="2" d="M396.6667,-131.5C396.6667,-131.5 365.3333,-131.5 365.3333,-131.5 362.1667,-131.5 359,-128.3333 359,-125.1667 359,-125.1667 359,-118.8333 359,-118.8333 359,-115.6667 362.1667,-112.5 365.3333,-112.5 365.3333,-112.5 396.6667,-112.5 396.6667,-112.5 399.8333,-112.5 403,-115.6667 403,-118.8333 403,-118.8333 403,-125.1667 403,-125.1667 403,-128.3333 399.8333,-131.5 396.6667,-131.5"/>
<text text-anchor="middle" x="381" y="-119.5" font-family="Arial" font-size="10.00" fill="#ffffff">Console</text>
</a>
</g>
</g>
<!-- uqbar.book.console.ConsoleError -->
<g id="node7" class="node">
<title>uqbar.book.console.ConsoleError</title>
<g id="a_node7"><a xlink:href="../api/uqbar/book/console.html#uqbar.book.console.ConsoleError" xlink:title="Console\nError" target="_top">
<path fill="#000000" stroke="#000000" stroke-width="2" d="M393,-180C393,-180 369,-180 369,-180 364,-180 359,-175 359,-170 359,-170 359,-160 359,-160 359,-155 364,-150 369,-150 369,-150 393,-150 393,-150 398,-150 403,-155 403,-160 403,-160 403,-170 403,-170 403,-175 398,-180 393,-180"/>
<text text-anchor="middle" x="381" y="-168" font-family="Arial" font-size="10.00" fill="#ffffff">Console</text>
<text text-anchor="middle" x="381" y="-157" font-family="Arial" font-size="10.00" fill="#ffffff">Error</text>
</a>
</g>
</g>
<!-- uqbar.book.console.ConsoleInput -->
<g id="node8" class="node">
<title>uqbar.book.console.ConsoleInput</title>
<g id="a_node8"><a xlink:href="../api/uqbar/book/console.html#uqbar.book.console.ConsoleInput" xlink:title="Console\nInput" target="_top">
<path fill="#000000" stroke="#000000" stroke-width="2" d="M393,-94C393,-94 369,-94 369,-94 364,-94 359,-89 359,-84 359,-84 359,-74 359,-74 359,-69 364,-64 369,-64 369,-64 393,-64 393,-64 398,-64 403,-69 403,-74 403,-74 403,-84 403,-84 403,-89 398,-94 393,-94"/>
<text text-anchor="middle" x="381" y="-82" font-family="Arial" font-size="10.00" fill="#ffffff">Console</text>
<text text-anchor="middle" x="381" y="-71" font-family="Arial" font-size="10.00" fill="#ffffff">Input</text>
</a>
</g>
</g>
<!-- uqbar.book.console.ConsoleOutput -->
<g id="node9" class="node">
<title>uqbar.book.console.ConsoleOutput</title>
<g id="a_node9"><a xlink:href="../api/uqbar/book/console.html#uqbar.book.console.ConsoleOutput" xlink:title="Console\nOutput" target="_top">
<path fill="#000000" stroke="#000000" stroke-width="2" d="M393,-46C393,-46 369,-46 369,-46 364,-46 359,-41 359,-36 359,-36 359,-26 359,-26 359,-21 364,-16 369,-16 369,-16 393,-16 393,-16 398,-16 403,-21 403,-26 403,-26 403,-36 403,-36 403,-41 398,-46 393,-46"/>
<text text-anchor="middle" x="381" y="-34" font-family="Arial" font-size="10.00" fill="#ffffff">Console</text>
<text text-anchor="middle" x="381" y="-23" font-family="Arial" font-size="10.00" fill="#ffffff">Output</text>
</a>
</g>
</g>
</g>
</svg>
