<?xml version="1.0" encoding="UTF-8" standalone="no"?>
<!DOCTYPE svg PUBLIC "-//W3C//DTD SVG 1.1//EN"
 "http://www.w3.org/Graphics/SVG/1.1/DTD/svg11.dtd">
<!-- Generated by graphviz version 2.40.1 (20161225.0304)
 -->
<!-- Title: InheritanceGraph Pages: 1 -->
<svg width="865pt" height="1464pt"
 viewBox="0.00 0.00 865.07 1464.00" xmlns="http://www.w3.org/2000/svg" xmlns:xlink="http://www.w3.org/1999/xlink">
<g id="graph0" class="graph" transform="scale(1 1) rotate(0) translate(4 1460)">
<title>InheritanceGraph</title>
<g id="clust1" class="cluster">
<title>cluster_abc</title>
<path fill="transparent" stroke="#bcd2ee" stroke-width="2" stroke-dasharray="5,2" d="M93,-1388C93,-1388 117,-1388 117,-1388 123,-1388 129,-1394 129,-1400 129,-1400 129,-1431 129,-1431 129,-1437 123,-1443 117,-1443 117,-1443 93,-1443 93,-1443 87,-1443 81,-1437 81,-1431 81,-1431 81,-1400 81,-1400 81,-1394 87,-1388 93,-1388"/>
<text text-anchor="middle" x="105" y="-1431" font-family="Arial" font-size="10.00" fill="#000000">abc</text>
</g>
<g id="clust2" class="cluster">
<title>cluster_builtins</title>
<path fill="transparent" stroke="#bcd2ee" stroke-width="2" stroke-dasharray="5,2" d="M20,-1324C20,-1324 184.799,-1324 184.799,-1324 190.799,-1324 196.799,-1330 196.799,-1336 196.799,-1336 196.799,-1367 196.799,-1367 196.799,-1373 190.799,-1379 184.799,-1379 184.799,-1379 20,-1379 20,-1379 14,-1379 8,-1373 8,-1367 8,-1367 8,-1336 8,-1336 8,-1330 14,-1324 20,-1324"/>
<text text-anchor="middle" x="102.3995" y="-1367" font-family="Arial" font-size="10.00" fill="#000000">builtins</text>
</g>
<g id="clust3" class="cluster">
<title>cluster_code</title>
<path fill="transparent" stroke="#bcd2ee" stroke-width="2" stroke-dasharray="5,2" d="M257.0599,-1148C257.0599,-1148 427.6701,-1148 427.6701,-1148 433.6701,-1148 439.6701,-1154 439.6701,-1160 439.6701,-1160 439.6701,-1201 439.6701,-1201 439.6701,-1207 433.6701,-1213 427.6701,-1213 427.6701,-1213 257.0599,-1213 257.0599,-1213 251.0599,-1213 245.0599,-1207 245.0599,-1201 245.0599,-1201 245.0599,-1160 245.0599,-1160 245.0599,-1154 251.0599,-1148 257.0599,-1148"/>
<text text-anchor="middle" x="342.365" y="-1201" font-family="Arial" font-size="10.00" fill="#000000">code</text>
</g>
<g id="clust4" class="cluster">
<title>cluster_collections.abc</title>
<path fill="transparent" stroke="#bcd2ee" stroke-width="2" stroke-dasharray="5,2" d="M247.9117,-959C247.9117,-959 664.0681,-959 664.0681,-959 670.0681,-959 676.0681,-965 676.0681,-971 676.0681,-971 676.0681,-1098 676.0681,-1098 676.0681,-1104 670.0681,-1110 664.0681,-1110 664.0681,-1110 247.9117,-1110 247.9117,-1110 241.9117,-1110 235.9117,-1104 235.9117,-1098 235.9117,-1098 235.9117,-971 235.9117,-971 235.9117,-965 241.9117,-959 247.9117,-959"/>
<text text-anchor="middle" x="455.9899" y="-1098" font-family="Arial" font-size="10.00" fill="#000000">collections.abc</text>
</g>
<g id="clust5" class="cluster">
<title>cluster_docutils.nodes</title>
<path fill="transparent" stroke="#bcd2ee" stroke-width="2" stroke-dasharray="5,2" d="M163.799,-353C163.799,-353 296.5599,-353 296.5599,-353 302.5599,-353 308.5599,-359 308.5599,-365 308.5599,-365 308.5599,-433 308.5599,-433 308.5599,-439 302.5599,-445 296.5599,-445 296.5599,-445 163.799,-445 163.799,-445 157.799,-445 151.799,-439 151.799,-433 151.799,-433 151.799,-365 151.799,-365 151.799,-359 157.799,-353 163.799,-353"/>
<text text-anchor="middle" x="230.1795" y="-433" font-family="Arial" font-size="10.00" fill="#000000">docutils.nodes</text>
</g>
<g id="clust6" class="cluster">
<title>cluster_docutils.parsers.rst</title>
<path fill="transparent" stroke="#bcd2ee" stroke-width="2" stroke-dasharray="5,2" d="M251.5599,-290C251.5599,-290 306.5599,-290 306.5599,-290 312.5599,-290 318.5599,-296 318.5599,-302 318.5599,-302 318.5599,-333 318.5599,-333 318.5599,-339 312.5599,-345 306.5599,-345 306.5599,-345 251.5599,-345 251.5599,-345 245.5599,-345 239.5599,-339 239.5599,-333 239.5599,-333 239.5599,-302 239.5599,-302 239.5599,-296 245.5599,-290 251.5599,-290"/>
<text text-anchor="middle" x="279.0599" y="-333" font-family="Arial" font-size="10.00" fill="#000000">docutils.parsers.rst</text>
</g>
<g id="clust7" class="cluster">
<title>cluster_enum</title>
<path fill="transparent" stroke="#bcd2ee" stroke-width="2" stroke-dasharray="5,2" d="M162.799,-1251C162.799,-1251 292.5599,-1251 292.5599,-1251 298.5599,-1251 304.5599,-1257 304.5599,-1263 304.5599,-1263 304.5599,-1304 304.5599,-1304 304.5599,-1310 298.5599,-1316 292.5599,-1316 292.5599,-1316 162.799,-1316 162.799,-1316 156.799,-1316 150.799,-1310 150.799,-1304 150.799,-1304 150.799,-1263 150.799,-1263 150.799,-1257 156.799,-1251 162.799,-1251"/>
<text text-anchor="middle" x="227.6795" y="-1304" font-family="Arial" font-size="10.00" fill="#000000">enum</text>
</g>
<g id="clust8" class="cluster">
<title>cluster_uqbar.apis</title>
<path fill="transparent" stroke="#bcd2ee" stroke-width="2" stroke-dasharray="5,2" d="M491.8183,-150C491.8183,-150 760.0681,-150 760.0681,-150 766.0681,-150 772.0681,-156 772.0681,-162 772.0681,-162 772.0681,-493 772.0681,-493 772.0681,-499 766.0681,-505 760.0681,-505 760.0681,-505 491.8183,-505 491.8183,-505 485.8183,-505 479.8183,-499 479.8183,-493 479.8183,-493 479.8183,-162 479.8183,-162 479.8183,-156 485.8183,-150 491.8183,-150"/>
<text text-anchor="middle" x="625.9432" y="-493" font-family="Arial" font-size="10.00" fill="#000000">uqbar.apis</text>
</g>
<g id="clust9" class="cluster">
<title>cluster_uqbar.apis.dummy</title>
<path fill="transparent" stroke="#bcd2ee" stroke-width="2" stroke-dasharray="5,2" d="M161.299,-205C161.299,-205 292.0599,-205 292.0599,-205 298.0599,-205 304.0599,-211 304.0599,-217 304.0599,-217 304.0599,-270 304.0599,-270 304.0599,-276 298.0599,-282 292.0599,-282 292.0599,-282 161.299,-282 161.299,-282 155.299,-282 149.299,-276 149.299,-270 149.299,-270 149.299,-217 149.299,-217 149.299,-211 155.299,-205 161.299,-205"/>
<text text-anchor="middle" x="226.6795" y="-270" font-family="Arial" font-size="10.00" fill="#000000">uqbar.apis.dummy</text>
</g>
<g id="clust10" class="cluster">
<title>cluster_uqbar.book</title>
<path fill="transparent" stroke="#bcd2ee" stroke-width="2" stroke-dasharray="5,2" d="M510.1234,-1153C510.1234,-1153 546.1234,-1153 546.1234,-1153 552.1234,-1153 558.1234,-1159 558.1234,-1165 558.1234,-1165 558.1234,-1196 558.1234,-1196 558.1234,-1202 552.1234,-1208 546.1234,-1208 546.1234,-1208 510.1234,-1208 510.1234,-1208 504.1234,-1208 498.1234,-1202 498.1234,-1196 498.1234,-1196 498.1234,-1165 498.1234,-1165 498.1234,-1159 504.1234,-1153 510.1234,-1153"/>
<text text-anchor="middle" x="528.1234" y="-1196" font-family="Arial" font-size="10.00" fill="#000000">uqbar.book</text>
</g>
<g id="clust11" class="cluster">
<title>cluster_uqbar.cli</title>
<path fill="transparent" stroke="#bcd2ee" stroke-width="2" stroke-dasharray="5,2" d="M161,-1387C161,-1387 320.5219,-1387 320.5219,-1387 326.5219,-1387 332.5219,-1393 332.5219,-1399 332.5219,-1399 332.5219,-1436 332.5219,-1436 332.5219,-1442 326.5219,-1448 320.5219,-1448 320.5219,-1448 161,-1448 161,-1448 155,-1448 149,-1442 149,-1436 149,-1436 149,-1399 149,-1399 149,-1393 155,-1387 161,-1387"/>
<text text-anchor="middle" x="240.7609" y="-1436" font-family="Arial" font-size="10.00" fill="#000000">uqbar.cli</text>
</g>
<g id="clust12" class="cluster">
<title>cluster_uqbar.containers</title>
<path fill="transparent" stroke="#bcd2ee" stroke-width="2" stroke-dasharray="5,2" d="M253.0599,-711C253.0599,-711 426.6701,-711 426.6701,-711 432.6701,-711 438.6701,-717 438.6701,-723 438.6701,-723 438.6701,-824 438.6701,-824 438.6701,-830 432.6701,-836 426.6701,-836 426.6701,-836 253.0599,-836 253.0599,-836 247.0599,-836 241.0599,-830 241.0599,-824 241.0599,-824 241.0599,-723 241.0599,-723 241.0599,-717 247.0599,-711 253.0599,-711"/>
<text text-anchor="middle" x="339.865" y="-824" font-family="Arial" font-size="10.00" fill="#000000">uqbar.containers</text>
</g>
<g id="clust13" class="cluster">
<title>cluster_uqbar.enums</title>
<path fill="transparent" stroke="#bcd2ee" stroke-width="2" stroke-dasharray="5,2" d="M380.6701,-1221C380.6701,-1221 431.6701,-1221 431.6701,-1221 437.6701,-1221 443.6701,-1227 443.6701,-1233 443.6701,-1233 443.6701,-1322 443.6701,-1322 443.6701,-1328 437.6701,-1334 431.6701,-1334 431.6701,-1334 380.6701,-1334 380.6701,-1334 374.6701,-1334 368.6701,-1328 368.6701,-1322 368.6701,-1322 368.6701,-1233 368.6701,-1233 368.6701,-1227 374.6701,-1221 380.6701,-1221"/>
<text text-anchor="middle" x="406.1701" y="-1322" font-family="Arial" font-size="10.00" fill="#000000">uqbar.enums</text>
</g>
<g id="clust14" class="cluster">
<title>cluster_uqbar.graphs</title>
<path fill="transparent" stroke="#bcd2ee" stroke-width="2" stroke-dasharray="5,2" d="M712.0681,-581C712.0681,-581 837.0681,-581 837.0681,-581 843.0681,-581 849.0681,-587 849.0681,-593 849.0681,-593 849.0681,-1066 849.0681,-1066 849.0681,-1072 843.0681,-1078 837.0681,-1078 837.0681,-1078 712.0681,-1078 712.0681,-1078 706.0681,-1078 700.0681,-1072 700.0681,-1066 700.0681,-1066 700.0681,-593 700.0681,-593 700.0681,-587 706.0681,-581 712.0681,-581"/>
<text text-anchor="middle" x="774.5681" y="-1066" font-family="Arial" font-size="10.00" fill="#000000">uqbar.graphs</text>
</g>
<g id="clust15" class="cluster">
<title>cluster_uqbar.io</title>
<path fill="transparent" stroke="#bcd2ee" stroke-width="2" stroke-dasharray="5,2" d="M256.0599,-8C256.0599,-8 301.0599,-8 301.0599,-8 307.0599,-8 313.0599,-14 313.0599,-20 313.0599,-20 313.0599,-185 313.0599,-185 313.0599,-191 307.0599,-197 301.0599,-197 301.0599,-197 256.0599,-197 256.0599,-197 250.0599,-197 244.0599,-191 244.0599,-185 244.0599,-185 244.0599,-20 244.0599,-20 244.0599,-14 250.0599,-8 256.0599,-8"/>
<text text-anchor="middle" x="278.5599" y="-185" font-family="Arial" font-size="10.00" fill="#000000">uqbar.io</text>
</g>
<g id="clust16" class="cluster">
<title>cluster_uqbar.sphinx.inheritance</title>
<path fill="transparent" stroke="#bcd2ee" stroke-width="2" stroke-dasharray="5,2" d="M369.1701,-300C369.1701,-300 443.1701,-300 443.1701,-300 449.1701,-300 455.1701,-306 455.1701,-312 455.1701,-312 455.1701,-401 455.1701,-401 455.1701,-407 449.1701,-413 443.1701,-413 443.1701,-413 369.1701,-413 369.1701,-413 363.1701,-413 357.1701,-407 357.1701,-401 357.1701,-401 357.1701,-312 357.1701,-312 357.1701,-306 363.1701,-300 369.1701,-300"/>
<text text-anchor="middle" x="406.1701" y="-401" font-family="Arial" font-size="10.00" fill="#000000">uqbar.sphinx.inheritance</text>
</g>
<!-- abc.ABC&#45;&gt;uqbar.cli.CLI.CLI -->
<g id="edge21" class="edge">
<title>abc.ABC&#45;&gt;uqbar.cli.CLI.CLI</title>
<path fill="none" stroke="#778899" d="M121.2923,-1406.4538C128.8224,-1406.6636 138.0128,-1406.9196 146.7317,-1407.1625"/>
<polygon fill="#778899" stroke="#778899" points="146.8959,-1410.6683 156.9895,-1407.4482 147.0909,-1403.671 146.8959,-1410.6683"/>
</g>
<!-- builtins.int&#45;&gt;enum.IntEnum -->
<g id="edge22" class="edge">
<title>builtins.int&#45;&gt;enum.IntEnum</title>
<path fill="none" stroke="#778899" d="M188.8719,-1333.9325C204.2811,-1323.6355 231.3819,-1305.5259 251.7717,-1291.9008"/>
<polygon fill="#778899" stroke="#778899" points="253.9532,-1294.6526 260.3231,-1286.1865 250.0639,-1288.8324 253.9532,-1294.6526"/>
</g>
<!-- builtins.object&#45;&gt;abc.ABC -->
<g id="edge23" class="edge">
<title>builtins.object&#45;&gt;abc.ABC</title>
<path fill="none" stroke="#778899" d="M45.2074,-1351.7202C56.1808,-1361.6818 73.4535,-1377.362 86.6185,-1389.3133"/>
<polygon fill="#778899" stroke="#778899" points="84.4351,-1392.0582 94.1918,-1396.1883 89.1402,-1386.8753 84.4351,-1392.0582"/>
</g>
<!-- builtins.object&#45;&gt;builtins.int -->
<g id="edge1" class="edge">
<title>builtins.object&#45;&gt;builtins.int</title>
<path fill="none" stroke="#778899" d="M53.1031,-1342C79.1739,-1342 126.5119,-1342 154.4577,-1342"/>
<polygon fill="#778899" stroke="#778899" points="154.4663,-1345.5001 164.4663,-1342 154.4662,-1338.5001 154.4663,-1345.5001"/>
</g>
<!-- builtins.object&#45;&gt;code.InteractiveInterpreter -->
<g id="edge24" class="edge">
<title>builtins.object&#45;&gt;code.InteractiveInterpreter</title>
<path fill="none" stroke="#778899" d="M42.5156,-1332.3822C51.3714,-1322.0488 66.3287,-1305.4371 81,-1293 133.0625,-1248.866 202.6751,-1209.7455 243.8505,-1188.3118"/>
<polygon fill="#778899" stroke="#778899" points="245.6476,-1191.3232 252.9332,-1183.631 242.4408,-1185.1009 245.6476,-1191.3232"/>
</g>
<!-- builtins.object&#45;&gt;collections.abc.Container -->
<g id="edge25" class="edge">
<title>builtins.object&#45;&gt;collections.abc.Container</title>
<path fill="none" stroke="#778899" d="M34.6662,-1332.4664C35.6586,-1286.3909 42.168,-1087.1565 81,-1042 118.9447,-997.8754 187.9038,-984.7638 233.4771,-981.0868"/>
<polygon fill="#778899" stroke="#778899" points="233.9377,-984.5635 243.6755,-980.389 233.4599,-977.5799 233.9377,-984.5635"/>
</g>
<!-- builtins.object&#45;&gt;collections.abc.Iterable -->
<g id="edge26" class="edge">
<title>builtins.object&#45;&gt;collections.abc.Iterable</title>
<path fill="none" stroke="#778899" d="M35.0978,-1332.4326C37.7385,-1293.291 49.6486,-1145.9193 81,-1114 122.2598,-1071.9927 194.1492,-1066.1262 238.8931,-1067.0858"/>
<polygon fill="#778899" stroke="#778899" points="238.9879,-1070.591 249.1012,-1067.4331 239.226,-1063.595 238.9879,-1070.591"/>
</g>
<!-- builtins.object&#45;&gt;collections.abc.Sized -->
<g id="edge27" class="edge">
<title>builtins.object&#45;&gt;collections.abc.Sized</title>
<path fill="none" stroke="#778899" d="M34.8796,-1332.2517C36.7433,-1289.4014 46.2866,-1118.2117 81,-1080 122.6666,-1034.1344 198.9943,-1025.2118 243.5938,-1024.1995"/>
<polygon fill="#778899" stroke="#778899" points="243.7116,-1027.6985 253.6742,-1024.0936 243.638,-1020.6989 243.7116,-1027.6985"/>
</g>
<!-- builtins.object&#45;&gt;docutils.nodes.Body -->
<g id="edge28" class="edge">
<title>builtins.object&#45;&gt;docutils.nodes.Body</title>
<path fill="none" stroke="#778899" d="M34.7099,-1332.4188C36.7996,-1238.6376 54.3496,-487.1948 81,-449 96.6393,-426.5861 127.1828,-416.348 149.593,-411.7209"/>
<polygon fill="#778899" stroke="#778899" points="150.3215,-415.1459 159.5369,-409.9186 149.073,-408.2582 150.3215,-415.1459"/>
</g>
<!-- builtins.object&#45;&gt;docutils.nodes.Node -->
<g id="edge29" class="edge">
<title>builtins.object&#45;&gt;docutils.nodes.Node</title>
<path fill="none" stroke="#778899" d="M34.6937,-1332.3368C36.6575,-1236.118 53.4644,-452.9211 81,-413 96.5772,-390.4161 127.1319,-379.8605 149.5617,-375.0015"/>
<polygon fill="#778899" stroke="#778899" points="150.3516,-378.4139 159.5153,-373.0964 149.0356,-371.5387 150.3516,-378.4139"/>
</g>
<!-- builtins.object&#45;&gt;docutils.parsers.rst.Directive -->
<g id="edge30" class="edge">
<title>builtins.object&#45;&gt;docutils.parsers.rst.Directive</title>
<path fill="none" stroke="#778899" d="M34.668,-1332.2566C36.4066,-1233.5377 51.6528,-417.0675 81,-376 118.5663,-323.431 199.5017,-311.0957 245.2664,-308.4555"/>
<polygon fill="#778899" stroke="#778899" points="245.4526,-311.9507 255.2835,-308.0005 245.135,-304.9579 245.4526,-311.9507"/>
</g>
<!-- builtins.object&#45;&gt;enum.Enum -->
<g id="edge31" class="edge">
<title>builtins.object&#45;&gt;enum.Enum</title>
<path fill="none" stroke="#778899" d="M53.1031,-1333.1102C77.6331,-1321.3881 120.9906,-1300.669 149.3079,-1287.1371"/>
<polygon fill="#778899" stroke="#778899" points="151.1276,-1290.1467 158.6412,-1282.677 148.1094,-1283.8308 151.1276,-1290.1467"/>
</g>
<!-- builtins.object&#45;&gt;uqbar.apis.APIBuilder.APIBuilder -->
<g id="edge32" class="edge">
<title>builtins.object&#45;&gt;uqbar.apis.APIBuilder.APIBuilder</title>
<path fill="none" stroke="#778899" d="M34.5472,-1332.2588C35.0168,-1250.8854 39.7557,-685.6421 81,-624 107.3731,-584.5838 129.3735,-577 176.799,-577 176.799,-577 176.799,-577 278.5599,-577 357.7748,-577 399.6695,-609.5215 455.1701,-553 521.0114,-485.9475 422.4656,-417.4432 479.8183,-343 483.2214,-338.5829 487.8013,-335.191 492.7904,-332.5869"/>
<polygon fill="#778899" stroke="#778899" points="494.1826,-335.7984 502.0469,-328.6988 491.4718,-329.3446 494.1826,-335.7984"/>
</g>
<!-- builtins.object&#45;&gt;uqbar.apis.InheritanceGraph.InheritanceGraph -->
<g id="edge33" class="edge">
<title>builtins.object&#45;&gt;uqbar.apis.InheritanceGraph.InheritanceGraph</title>
<path fill="none" stroke="#778899" d="M34.79,-1332.4997C37.4393,-1246.85 57.8773,-610.2191 81,-578 107.8033,-540.6522 130.8286,-539 176.799,-539 176.799,-539 176.799,-539 278.5599,-539 357.7748,-539 399.6539,-571.5061 455.1701,-515 520.7206,-448.2806 426.5973,-382.9147 479.8183,-306 483.0086,-301.3894 487.3175,-297.5727 492.0545,-294.4297"/>
<polygon fill="#778899" stroke="#778899" points="493.8833,-297.417 500.8943,-289.4737 490.46,-291.3111 493.8833,-297.417"/>
</g>
<!-- builtins.object&#45;&gt;uqbar.apis.MemberDocumenter.MemberDocumenter -->
<g id="edge34" class="edge">
<title>builtins.object&#45;&gt;uqbar.apis.MemberDocumenter.MemberDocumenter</title>
<path fill="none" stroke="#778899" d="M34.7624,-1332.281C37.2024,-1243.2469 56.3914,-571.7516 81,-538 107.89,-501.1194 131.1564,-501 176.799,-501 176.799,-501 176.799,-501 278.5599,-501 357.7748,-501 399.8185,-533.6674 455.1701,-477 489.545,-441.8078 453.5491,-298.5939 479.8183,-257 482.2564,-253.1396 485.3902,-249.6949 488.8887,-246.6417"/>
<polygon fill="#778899" stroke="#778899" points="491.0901,-249.3659 497.0018,-240.5737 486.8975,-243.7604 491.0901,-249.3659"/>
</g>
<!-- builtins.object&#45;&gt;uqbar.apis.ModuleDocumenter.ModuleDocumenter -->
<g id="edge35" class="edge">
<title>builtins.object&#45;&gt;uqbar.apis.ModuleDocumenter.ModuleDocumenter</title>
<path fill="none" stroke="#778899" d="M34.7334,-1332.3992C36.9783,-1241.5284 55.2243,-535.4491 81,-500 107.842,-463.0845 131.1564,-463 176.799,-463 176.799,-463 176.799,-463 278.5599,-463 312.7902,-463 432.9315,-442.6866 455.1701,-417 519.57,-342.6149 423.4038,-277.6095 479.8183,-197 482.6557,-192.9458 486.3799,-189.5427 490.504,-186.6946"/>
<polygon fill="#778899" stroke="#778899" points="492.448,-189.6143 499.3748,-181.5974 488.9604,-183.5449 492.448,-189.6143"/>
</g>
<!-- builtins.object&#45;&gt;uqbar.apis.RootDocumenter.RootDocumenter -->
<g id="edge36" class="edge">
<title>builtins.object&#45;&gt;uqbar.apis.RootDocumenter.RootDocumenter</title>
<path fill="none" stroke="#778899" d="M35.0031,-1332.2466C38.2136,-1271.1806 56.4853,-940.906 81,-843 107.6974,-736.3767 66.8841,-615 176.799,-615 176.799,-615 176.799,-615 278.5599,-615 357.7748,-615 399.5063,-647.3607 455.1701,-591 518.1044,-527.2778 428.061,-464.0919 479.8183,-391 482.678,-386.9615 486.4154,-383.5676 490.5462,-380.7243"/>
<polygon fill="#778899" stroke="#778899" points="492.491,-383.6438 499.4228,-375.6313 489.0073,-377.5722 492.491,-383.6438"/>
</g>
<!-- builtins.object&#45;&gt;uqbar.apis.dummy.MyParentClass -->
<g id="edge37" class="edge">
<title>builtins.object&#45;&gt;uqbar.apis.dummy.MyParentClass</title>
<path fill="none" stroke="#778899" d="M34.6995,-1332.2404C36.8231,-1229.7719 55.6865,-353.9683 81,-306 95.4439,-278.6293 125.4465,-258.7574 148.0503,-246.9108"/>
<polygon fill="#778899" stroke="#778899" points="149.839,-249.9296 157.2177,-242.3266 146.7082,-243.6688 149.839,-249.9296"/>
</g>
<!-- builtins.object&#45;&gt;uqbar.containers.DependencyGraph.DependencyGraph -->
<g id="edge38" class="edge">
<title>builtins.object&#45;&gt;uqbar.containers.DependencyGraph.DependencyGraph</title>
<path fill="none" stroke="#778899" d="M34.7771,-1332.3555C36.4785,-1277.2621 46.6018,-1002.1655 81,-926 122.2595,-834.6423 153.7734,-820.9295 232.598,-759 235.0198,-757.0973 237.6064,-755.26 240.2716,-753.5042"/>
<polygon fill="#778899" stroke="#778899" points="242.2451,-756.3999 248.9464,-748.1935 238.5902,-750.4298 242.2451,-756.3999"/>
</g>
<!-- builtins.object&#45;&gt;uqbar.containers.UniqueTreeNode.UniqueTreeNode -->
<g id="edge39" class="edge">
<title>builtins.object&#45;&gt;uqbar.containers.UniqueTreeNode.UniqueTreeNode</title>
<path fill="none" stroke="#778899" d="M35.0445,-1332.2537C37.9033,-1283.1883 52.1552,-1063.1594 81,-1002 120.8172,-917.576 205.939,-843.6309 250.3222,-808.9517"/>
<polygon fill="#778899" stroke="#778899" points="252.5913,-811.6218 258.3729,-802.7436 248.3166,-806.0785 252.5913,-811.6218"/>
</g>
<!-- builtins.object&#45;&gt;uqbar.graphs.Edge.Edge -->
<g id="edge40" class="edge">
<title>builtins.object&#45;&gt;uqbar.graphs.Edge.Edge</title>
<path fill="none" stroke="#778899" d="M36.0242,-1332.2488C43.1708,-1290.3841 77.3037,-1128 176.799,-1128 176.799,-1128 176.799,-1128 528.1234,-1128 594.1704,-1128 618.0079,-1145.4834 676.0681,-1114 698.4306,-1101.8738 715.1948,-1077.125 724.8067,-1059.8213"/>
<polygon fill="#778899" stroke="#778899" points="728.075,-1061.1256 729.6277,-1050.6451 721.8782,-1057.8698 728.075,-1061.1256"/>
</g>
<!-- builtins.object&#45;&gt;uqbar.io.DirectoryChange.DirectoryChange -->
<g id="edge41" class="edge">
<title>builtins.object&#45;&gt;uqbar.io.DirectoryChange.DirectoryChange</title>
<path fill="none" stroke="#778899" d="M34.6791,-1332.4123C36.6574,-1227.9879 54.8616,-304.7356 81,-254 112.526,-192.807 196.9117,-168.7595 244.5713,-159.8487"/>
<polygon fill="#778899" stroke="#778899" points="245.4671,-163.2454 254.7159,-158.0772 244.2628,-156.3497 245.4671,-163.2454"/>
</g>
<!-- builtins.object&#45;&gt;uqbar.io.Profiler.Profiler -->
<g id="edge42" class="edge">
<title>builtins.object&#45;&gt;uqbar.io.Profiler.Profiler</title>
<path fill="none" stroke="#778899" d="M34.6138,-1332.2551C35.9114,-1224.111 48.4721,-251.3106 81,-201 118.2503,-143.3853 202.6944,-122.6911 248.1829,-115.5535"/>
<polygon fill="#778899" stroke="#778899" points="248.9317,-118.9817 258.3277,-114.0862 247.9297,-112.0537 248.9317,-118.9817"/>
</g>
<!-- builtins.object&#45;&gt;uqbar.io.RedirectedStreams.RedirectedStreams -->
<g id="edge43" class="edge">
<title>builtins.object&#45;&gt;uqbar.io.RedirectedStreams.RedirectedStreams</title>
<path fill="none" stroke="#778899" d="M34.5836,-1332.1744C35.5653,-1221.0355 45.5117,-203.5 81,-152 117.6991,-98.7428 195.6651,-79.5418 241.9234,-72.7029"/>
<polygon fill="#778899" stroke="#778899" points="242.4062,-76.1696 251.8433,-71.354 241.4629,-69.2334 242.4062,-76.1696"/>
</g>
<!-- builtins.object&#45;&gt;uqbar.io.Timer.Timer -->
<g id="edge44" class="edge">
<title>builtins.object&#45;&gt;uqbar.io.Timer.Timer</title>
<path fill="none" stroke="#778899" d="M34.5664,-1332.1555C35.3689,-1218.6218 43.8377,-160.2946 81,-107 120.1755,-50.8183 205.7128,-33.5401 250.2826,-28.2746"/>
<polygon fill="#778899" stroke="#778899" points="250.8464,-31.7346 260.4227,-27.202 250.11,-24.7734 250.8464,-31.7346"/>
</g>
<!-- code.InteractiveConsole&#45;&gt;uqbar.book.Console.Console -->
<g id="edge45" class="edge">
<title>code.InteractiveConsole&#45;&gt;uqbar.book.Console.Console</title>
<path fill="none" stroke="#778899" d="M431.7355,-1171C450.3257,-1171 475.6361,-1171 495.6556,-1171"/>
<polygon fill="#778899" stroke="#778899" points="495.8672,-1174.5001 505.8672,-1171 495.8672,-1167.5001 495.8672,-1174.5001"/>
</g>
<!-- code.InteractiveInterpreter&#45;&gt;code.InteractiveConsole -->
<g id="edge2" class="edge">
<title>code.InteractiveInterpreter&#45;&gt;code.InteractiveConsole</title>
<path fill="none" stroke="#778899" d="M304.077,-1171C322.9925,-1171 349.0321,-1171 370.0785,-1171"/>
<polygon fill="#778899" stroke="#778899" points="370.2598,-1174.5001 380.2598,-1171 370.2598,-1167.5001 370.2598,-1174.5001"/>
</g>
<!-- collections.abc.Collection&#45;&gt;collections.abc.Mapping -->
<g id="edge3" class="edge">
<title>collections.abc.Collection&#45;&gt;collections.abc.Mapping</title>
<path fill="none" stroke="#778899" d="M440.7908,-1020.5806C454.8439,-1020.0044 471.2097,-1019.3334 485.9504,-1018.7291"/>
<polygon fill="#778899" stroke="#778899" points="486.4922,-1022.2099 496.3403,-1018.3031 486.2053,-1015.2158 486.4922,-1022.2099"/>
</g>
<!-- collections.abc.Mapping&#45;&gt;collections.abc.MutableMapping -->
<g id="edge6" class="edge">
<title>collections.abc.Mapping&#45;&gt;collections.abc.MutableMapping</title>
<path fill="none" stroke="#778899" d="M559.3976,-1014.1076C570.3962,-1013.0904 582.9349,-1011.9307 594.6482,-1010.8474"/>
<polygon fill="#778899" stroke="#778899" points="595.0347,-1014.3267 604.6698,-1009.9206 594.3899,-1007.3564 595.0347,-1014.3267"/>
</g>
<!-- collections.abc.Container&#45;&gt;collections.abc.Collection -->
<g id="edge4" class="edge">
<title>collections.abc.Container&#45;&gt;collections.abc.Collection</title>
<path fill="none" stroke="#778899" d="M305.0008,-988.7024C323.6966,-994.8557 349.0006,-1003.1839 369.6248,-1009.9719"/>
<polygon fill="#778899" stroke="#778899" points="368.731,-1013.3624 379.324,-1013.1642 370.9195,-1006.7133 368.731,-1013.3624"/>
</g>
<!-- collections.abc.Iterable&#45;&gt;collections.abc.Collection -->
<g id="edge5" class="edge">
<title>collections.abc.Iterable&#45;&gt;collections.abc.Collection</title>
<path fill="none" stroke="#778899" d="M301.6692,-1061.3076C321.1895,-1053.9651 349.4317,-1043.3419 371.6359,-1034.9899"/>
<polygon fill="#778899" stroke="#778899" points="372.9213,-1038.2459 381.0489,-1031.4492 370.4569,-1031.694 372.9213,-1038.2459"/>
</g>
<!-- collections.abc.MutableMapping&#45;&gt;uqbar.graphs.Attributes.Attributes -->
<g id="edge46" class="edge">
<title>collections.abc.MutableMapping&#45;&gt;uqbar.graphs.Attributes.Attributes</title>
<path fill="none" stroke="#778899" d="M668.2782,-1006.0177C678.3686,-1005.7082 689.5516,-1005.3653 699.792,-1005.0512"/>
<polygon fill="#778899" stroke="#778899" points="700.1489,-1008.542 710.0369,-1004.737 699.9343,-1001.5453 700.1489,-1008.542"/>
</g>
<!-- collections.abc.Sized&#45;&gt;collections.abc.Collection -->
<g id="edge7" class="edge">
<title>collections.abc.Sized&#45;&gt;collections.abc.Collection</title>
<path fill="none" stroke="#778899" d="M303.4674,-1024.4144C319.8219,-1024.03 341.6898,-1023.5159 361.0434,-1023.0609"/>
<polygon fill="#778899" stroke="#778899" points="361.273,-1026.5566 371.188,-1022.8224 361.1085,-1019.5585 361.273,-1026.5566"/>
</g>
<!-- docutils.nodes.Body&#45;&gt;docutils.nodes.General -->
<g id="edge8" class="edge">
<title>docutils.nodes.Body&#45;&gt;docutils.nodes.General</title>
<path fill="none" stroke="#778899" d="M194.0613,-408C208.4307,-408 229.275,-408 246.6651,-408"/>
<polygon fill="#778899" stroke="#778899" points="246.9577,-411.5001 256.9576,-408 246.9576,-404.5001 246.9577,-411.5001"/>
</g>
<!-- docutils.nodes.General&#45;&gt;uqbar.sphinx.inheritance.inheritance_diagram -->
<g id="edge48" class="edge">
<title>docutils.nodes.General&#45;&gt;uqbar.sphinx.inheritance.inheritance_diagram</title>
<path fill="none" stroke="#778899" d="M300.2072,-401.7235C319.2,-396.2166 347.2133,-388.0942 369.6672,-381.5839"/>
<polygon fill="#778899" stroke="#778899" points="370.9105,-384.8676 379.5402,-378.7212 368.9611,-378.1445 370.9105,-384.8676"/>
</g>
<!-- docutils.nodes.Element&#45;&gt;uqbar.sphinx.inheritance.inheritance_diagram -->
<g id="edge47" class="edge">
<title>docutils.nodes.Element&#45;&gt;uqbar.sphinx.inheritance.inheritance_diagram</title>
<path fill="none" stroke="#778899" d="M300.7879,-371C319.6515,-371 347.1026,-371 369.2584,-371"/>
<polygon fill="#778899" stroke="#778899" points="369.3313,-374.5001 379.3313,-371 369.3313,-367.5001 369.3313,-374.5001"/>
</g>
<!-- docutils.nodes.Node&#45;&gt;docutils.nodes.Element -->
<g id="edge9" class="edge">
<title>docutils.nodes.Node&#45;&gt;docutils.nodes.Element</title>
<path fill="none" stroke="#778899" d="M194.0613,-371C208.2429,-371 228.7312,-371 245.9813,-371"/>
<polygon fill="#778899" stroke="#778899" points="246.2183,-374.5001 256.2182,-371 246.2182,-367.5001 246.2183,-374.5001"/>
</g>
<!-- docutils.parsers.rst.Directive&#45;&gt;uqbar.sphinx.inheritance.InheritanceDiagram -->
<g id="edge49" class="edge">
<title>docutils.parsers.rst.Directive&#45;&gt;uqbar.sphinx.inheritance.InheritanceDiagram</title>
<path fill="none" stroke="#778899" d="M301.6692,-310.7164C320.3097,-312.9075 346.9035,-316.0335 368.598,-318.5836"/>
<polygon fill="#778899" stroke="#778899" points="368.4579,-322.0911 378.7982,-319.7826 369.2752,-315.139 368.4579,-322.0911"/>
</g>
<!-- enum.Enum&#45;&gt;enum.IntEnum -->
<g id="edge10" class="edge">
<title>enum.Enum&#45;&gt;enum.IntEnum</title>
<path fill="none" stroke="#778899" d="M194.9918,-1274C210.3307,-1274 232.543,-1274 250.2122,-1274"/>
<polygon fill="#778899" stroke="#778899" points="250.5246,-1277.5001 260.5246,-1274 250.5246,-1270.5001 250.5246,-1277.5001"/>
</g>
<!-- enum.Enum&#45;&gt;uqbar.enums.StrictEnumeration -->
<g id="edge50" class="edge">
<title>enum.Enum&#45;&gt;uqbar.enums.StrictEnumeration</title>
<path fill="none" stroke="#778899" d="M194.3226,-1264.4591C205.0404,-1259.1389 219.2205,-1252.9967 232.598,-1250 277.5276,-1239.9352 330.6148,-1239.7428 366.1414,-1241.2262"/>
<polygon fill="#778899" stroke="#778899" points="366.4171,-1244.7436 376.5747,-1241.7313 366.7556,-1237.7518 366.4171,-1244.7436"/>
</g>
<!-- enum.IntEnum&#45;&gt;uqbar.enums.IntEnumeration -->
<g id="edge51" class="edge">
<title>enum.IntEnum&#45;&gt;uqbar.enums.IntEnumeration</title>
<path fill="none" stroke="#778899" d="M296.5727,-1276.5408C314.6464,-1279.0902 343.0809,-1283.101 366.4578,-1286.3984"/>
<polygon fill="#778899" stroke="#778899" points="366.0628,-1289.8773 376.4537,-1287.8084 367.0406,-1282.9459 366.0628,-1289.8773"/>
</g>
<!-- uqbar.apis.ClassDocumenter.ClassDocumenter&#45;&gt;uqbar.apis.SummarizingClassDocumenter.SummarizingClassDocumenter -->
<g id="edge11" class="edge">
<title>uqbar.apis.ClassDocumenter.ClassDocumenter&#45;&gt;uqbar.apis.SummarizingClassDocumenter.SummarizingClassDocumenter</title>
<path fill="none" stroke="#778899" d="M664.8048,-263.4596C673.8329,-263.9211 683.987,-264.4401 693.6803,-264.9356"/>
<polygon fill="#778899" stroke="#778899" points="693.777,-268.445 703.9427,-265.4602 694.1344,-261.4541 693.777,-268.445"/>
</g>
<!-- uqbar.apis.MemberDocumenter.MemberDocumenter&#45;&gt;uqbar.apis.ClassDocumenter.ClassDocumenter -->
<g id="edge12" class="edge">
<title>uqbar.apis.MemberDocumenter.MemberDocumenter&#45;&gt;uqbar.apis.ClassDocumenter.ClassDocumenter</title>
<path fill="none" stroke="#778899" d="M562.6321,-238.1704C573.8176,-241.7912 586.2937,-245.8297 597.7505,-249.5383"/>
<polygon fill="#778899" stroke="#778899" points="596.9061,-252.9437 607.498,-252.6935 599.0619,-246.2839 596.9061,-252.9437"/>
</g>
<!-- uqbar.apis.MemberDocumenter.MemberDocumenter&#45;&gt;uqbar.apis.FunctionDocumenter.FunctionDocumenter -->
<g id="edge13" class="edge">
<title>uqbar.apis.MemberDocumenter.MemberDocumenter&#45;&gt;uqbar.apis.FunctionDocumenter.FunctionDocumenter</title>
<path fill="none" stroke="#778899" d="M568.3205,-224.2674C605.0772,-221.7687 659.0905,-218.0969 695.3687,-215.6308"/>
<polygon fill="#778899" stroke="#778899" points="695.8204,-219.1082 705.56,-214.938 695.3456,-212.1243 695.8204,-219.1082"/>
</g>
<!-- uqbar.apis.ModuleDocumenter.ModuleDocumenter&#45;&gt;uqbar.apis.SummarizingModuleDocumenter.SummarizingModuleDocumenter -->
<g id="edge14" class="edge">
<title>uqbar.apis.ModuleDocumenter.ModuleDocumenter&#45;&gt;uqbar.apis.SummarizingModuleDocumenter.SummarizingModuleDocumenter</title>
<path fill="none" stroke="#778899" d="M556.815,-174.5921C568.7617,-175.2551 582.8461,-176.0366 595.8119,-176.7561"/>
<polygon fill="#778899" stroke="#778899" points="595.7295,-180.2569 605.9081,-177.3164 596.1175,-173.2676 595.7295,-180.2569"/>
</g>
<!-- uqbar.apis.RootDocumenter.RootDocumenter&#45;&gt;uqbar.apis.SummarizingRootDocumenter.SummarizingRootDocumenter -->
<g id="edge15" class="edge">
<title>uqbar.apis.RootDocumenter.RootDocumenter&#45;&gt;uqbar.apis.SummarizingRootDocumenter.SummarizingRootDocumenter</title>
<path fill="none" stroke="#778899" d="M556.815,-367C568.7617,-367 582.8461,-367 595.8119,-367"/>
<polygon fill="#778899" stroke="#778899" points="595.9082,-370.5001 605.9081,-367 595.9081,-363.5001 595.9082,-370.5001"/>
</g>
<!-- uqbar.apis.dummy.MyParentClass&#45;&gt;uqbar.apis.dummy.MyChildClass -->
<g id="edge16" class="edge">
<title>uqbar.apis.dummy.MyParentClass&#45;&gt;uqbar.apis.dummy.MyChildClass</title>
<path fill="none" stroke="#778899" d="M196.4195,-234C211.9159,-234 233.7285,-234 250.9816,-234"/>
<polygon fill="#778899" stroke="#778899" points="251.0377,-237.5001 261.0376,-234 251.0376,-230.5001 251.0377,-237.5001"/>
</g>
<!-- uqbar.cli.CLI.CLI&#45;&gt;uqbar.cli.CLIAggregator.CLIAggregator -->
<g id="edge17" class="edge">
<title>uqbar.cli.CLI.CLI&#45;&gt;uqbar.cli.CLIAggregator.CLIAggregator</title>
<path fill="none" stroke="#778899" d="M196.9037,-1408C204.3105,-1408 213.1111,-1408 222.1472,-1408"/>
<polygon fill="#778899" stroke="#778899" points="222.3876,-1411.5001 232.3876,-1408 222.3876,-1404.5001 222.3876,-1411.5001"/>
</g>
<!-- uqbar.containers.UniqueTreeContainer.UniqueTreeContainer&#45;&gt;uqbar.apis.PackageNode.PackageNode -->
<g id="edge52" class="edge">
<title>uqbar.containers.UniqueTreeContainer.UniqueTreeContainer&#45;&gt;uqbar.apis.PackageNode.PackageNode</title>
<path fill="none" stroke="#778899" d="M423.3241,-719.2283C434.0141,-705.2661 447.205,-686.0047 455.1701,-667 476.2156,-616.7851 460.5244,-597.9136 479.8183,-547 488.017,-525.3649 501.3482,-502.732 511.931,-486.4177"/>
<polygon fill="#778899" stroke="#778899" points="514.8694,-488.3196 517.4774,-478.0507 509.0349,-484.4519 514.8694,-488.3196"/>
</g>
<!-- uqbar.containers.UniqueTreeContainer.UniqueTreeContainer&#45;&gt;uqbar.graphs.TableCell.TableCell -->
<g id="edge57" class="edge">
<title>uqbar.containers.UniqueTreeContainer.UniqueTreeContainer&#45;&gt;uqbar.graphs.TableCell.TableCell</title>
<path fill="none" stroke="#778899" d="M430.6904,-726.5601C439.3559,-720.841 448.5759,-713.5126 455.1701,-705 473.8365,-680.9031 457.2409,-661.4782 479.8183,-641 578.1007,-551.8558 672.0963,-492.7547 772.0681,-580 806.7099,-610.2319 792.466,-739.6543 800.0681,-785 804.5349,-811.6439 810.6986,-841.9505 815.0984,-862.7541"/>
<polygon fill="#778899" stroke="#778899" points="811.7102,-863.6477 817.2202,-872.6971 818.5561,-862.1868 811.7102,-863.6477"/>
</g>
<!-- uqbar.containers.UniqueTreeContainer.UniqueTreeContainer&#45;&gt;uqbar.graphs.Graph.Graph -->
<g id="edge53" class="edge">
<title>uqbar.containers.UniqueTreeContainer.UniqueTreeContainer&#45;&gt;uqbar.graphs.Graph.Graph</title>
<path fill="none" stroke="#778899" d="M430.8157,-742.2549C490.3713,-747.7037 641.8699,-761.5646 705.3725,-767.3746"/>
<polygon fill="#778899" stroke="#778899" points="705.1979,-770.8731 715.4753,-768.2989 705.8358,-763.9023 705.1979,-770.8731"/>
</g>
<!-- uqbar.containers.UniqueTreeContainer.UniqueTreeContainer&#45;&gt;uqbar.graphs.Node.Node -->
<g id="edge54" class="edge">
<title>uqbar.containers.UniqueTreeContainer.UniqueTreeContainer&#45;&gt;uqbar.graphs.Node.Node</title>
<path fill="none" stroke="#778899" d="M430.7142,-738.8467C445.0329,-738.2122 463.445,-737.4622 479.8183,-737 562.342,-734.6704 659.9738,-733.6098 706.6038,-733.2074"/>
<polygon fill="#778899" stroke="#778899" points="706.8305,-736.7057 716.8011,-733.123 706.7724,-729.706 706.8305,-736.7057"/>
</g>
<!-- uqbar.containers.UniqueTreeContainer.UniqueTreeContainer&#45;&gt;uqbar.graphs.RecordGroup.RecordGroup -->
<g id="edge55" class="edge">
<title>uqbar.containers.UniqueTreeContainer.UniqueTreeContainer&#45;&gt;uqbar.graphs.RecordGroup.RecordGroup</title>
<path fill="none" stroke="#778899" d="M430.8157,-736.2419C489.7889,-727.2493 638.9158,-704.5094 703.4845,-694.6636"/>
<polygon fill="#778899" stroke="#778899" points="704.0937,-698.1112 713.4518,-693.1437 703.0385,-691.1912 704.0937,-698.1112"/>
</g>
<!-- uqbar.containers.UniqueTreeContainer.UniqueTreeContainer&#45;&gt;uqbar.graphs.Table.Table -->
<g id="edge56" class="edge">
<title>uqbar.containers.UniqueTreeContainer.UniqueTreeContainer&#45;&gt;uqbar.graphs.Table.Table</title>
<path fill="none" stroke="#778899" d="M430.81,-729.8326C445.0023,-724.1787 463.2572,-717.2466 479.8183,-712 561.0109,-686.2779 659.1998,-663.4616 706.2679,-653.0232"/>
<polygon fill="#778899" stroke="#778899" points="707.2907,-656.382 716.3043,-650.8137 705.7856,-649.5457 707.2907,-656.382"/>
</g>
<!-- uqbar.containers.UniqueTreeContainer.UniqueTreeContainer&#45;&gt;uqbar.graphs.TableRow.TableRow -->
<g id="edge58" class="edge">
<title>uqbar.containers.UniqueTreeContainer.UniqueTreeContainer&#45;&gt;uqbar.graphs.TableRow.TableRow</title>
<path fill="none" stroke="#778899" d="M430.7307,-723.2415C438.6656,-717.6209 447.4132,-711.2021 455.1701,-705 466.6387,-695.8303 467.039,-690.2319 479.8183,-683 555.7383,-640.0363 657.9004,-617.4842 706.3513,-608.5984"/>
<polygon fill="#778899" stroke="#778899" points="707.1552,-612.0104 716.388,-606.8139 705.9297,-605.1185 707.1552,-612.0104"/>
</g>
<!-- uqbar.containers.UniqueTreeNode.UniqueTreeNode&#45;&gt;uqbar.apis.ModuleNode.ModuleNode -->
<g id="edge59" class="edge">
<title>uqbar.containers.UniqueTreeNode.UniqueTreeNode&#45;&gt;uqbar.apis.ModuleNode.ModuleNode</title>
<path fill="none" stroke="#778899" d="M298.8101,-781.1179C310.1996,-776.2906 323.8338,-768.757 332.5219,-758 356.1656,-728.7258 332.774,-705.6503 357.1701,-677 388.6131,-640.0739 426.9044,-668.4112 455.1701,-629 504.7971,-559.8044 430.3876,-508.3359 479.8183,-439 484.303,-432.7094 490.9139,-427.9807 497.8149,-424.4606"/>
<polygon fill="#778899" stroke="#778899" points="499.4507,-427.5662 507.2326,-420.3764 496.6656,-421.1441 499.4507,-427.5662"/>
</g>
<!-- uqbar.containers.UniqueTreeNode.UniqueTreeNode&#45;&gt;uqbar.containers.UniqueTreeContainer.UniqueTreeContainer -->
<g id="edge18" class="edge">
<title>uqbar.containers.UniqueTreeNode.UniqueTreeNode&#45;&gt;uqbar.containers.UniqueTreeContainer.UniqueTreeContainer</title>
<path fill="none" stroke="#778899" d="M298.7801,-780.3943C318.3351,-773.0387 348.3527,-761.7478 371.6854,-752.9713"/>
<polygon fill="#778899" stroke="#778899" points="373.0983,-756.1793 381.2259,-749.3827 370.6339,-749.6274 373.0983,-756.1793"/>
</g>
<!-- uqbar.containers.UniqueTreeNode.UniqueTreeNode&#45;&gt;uqbar.graphs.Attachable.Attachable -->
<g id="edge60" class="edge">
<title>uqbar.containers.UniqueTreeNode.UniqueTreeNode&#45;&gt;uqbar.graphs.Attachable.Attachable</title>
<path fill="none" stroke="#778899" d="M290.2809,-808.7675C303.6874,-830.6581 327.6452,-864.6004 357.1701,-884 478.5215,-963.7351 533.5535,-927.1894 676.0681,-955 683.0523,-956.3629 690.4989,-957.8659 697.6475,-959.3336"/>
<polygon fill="#778899" stroke="#778899" points="697.3175,-962.8394 707.8192,-961.4383 698.7359,-955.9846 697.3175,-962.8394"/>
</g>
<!-- uqbar.containers.UniqueTreeNode.UniqueTreeNode&#45;&gt;uqbar.graphs.RecordField.RecordField -->
<g id="edge63" class="edge">
<title>uqbar.containers.UniqueTreeNode.UniqueTreeNode&#45;&gt;uqbar.graphs.RecordField.RecordField</title>
<path fill="none" stroke="#778899" d="M298.6145,-780.2457C309.6594,-775.2019 323.0142,-767.7425 332.5219,-758 348.9958,-741.1192 339.9906,-727.1623 357.1701,-711 391.9441,-678.2849 424.5441,-703.6272 455.1701,-667 484.256,-632.2147 447.7529,-600.0595 479.8183,-568 520.1769,-527.6489 547.7817,-543.9404 604.4285,-537 678.382,-527.9392 714.077,-490.2213 772.0681,-537 802.7163,-561.7225 814.9644,-682.1098 818.9443,-735.4613"/>
<polygon fill="#778899" stroke="#778899" points="815.4764,-736.0411 819.6717,-745.7699 822.4591,-735.5483 815.4764,-736.0411"/>
</g>
<!-- uqbar.containers.UniqueTreeNode.UniqueTreeNode&#45;&gt;uqbar.graphs.HRule.HRule -->
<g id="edge61" class="edge">
<title>uqbar.containers.UniqueTreeNode.UniqueTreeNode&#45;&gt;uqbar.graphs.HRule.HRule</title>
<path fill="none" stroke="#778899" d="M297.9471,-808.7332C312.7802,-823.3357 334.4858,-842.1479 357.1701,-853 477.6222,-910.6241 639.8179,-925.2063 705.0852,-928.8296"/>
<polygon fill="#778899" stroke="#778899" points="705.2477,-932.3423 715.4126,-929.3547 705.6032,-925.3514 705.2477,-932.3423"/>
</g>
<!-- uqbar.containers.UniqueTreeNode.UniqueTreeNode&#45;&gt;uqbar.graphs.LineBreak.LineBreak -->
<g id="edge62" class="edge">
<title>uqbar.containers.UniqueTreeNode.UniqueTreeNode&#45;&gt;uqbar.graphs.LineBreak.LineBreak</title>
<path fill="none" stroke="#778899" d="M298.8572,-800.2129C314.3209,-808.9784 336.4174,-820.3706 357.1701,-827 483.3591,-867.311 642.3308,-881.2538 705.9107,-885.4274"/>
<polygon fill="#778899" stroke="#778899" points="705.7635,-888.925 715.9627,-886.0569 706.201,-881.9387 705.7635,-888.925"/>
</g>
<!-- uqbar.containers.UniqueTreeNode.UniqueTreeNode&#45;&gt;uqbar.graphs.Text.Text -->
<g id="edge64" class="edge">
<title>uqbar.containers.UniqueTreeNode.UniqueTreeNode&#45;&gt;uqbar.graphs.Text.Text</title>
<path fill="none" stroke="#778899" d="M298.7588,-793.7042C314.5429,-797.961 337.0962,-803.6057 357.1701,-807 488.0784,-829.135 646.9722,-839.3714 708.251,-842.7079"/>
<polygon fill="#778899" stroke="#778899" points="708.3573,-846.2183 718.5283,-843.2519 708.7274,-839.2281 708.3573,-846.2183"/>
</g>
<!-- uqbar.containers.UniqueTreeNode.UniqueTreeNode&#45;&gt;uqbar.graphs.VRule.VRule -->
<g id="edge65" class="edge">
<title>uqbar.containers.UniqueTreeNode.UniqueTreeNode&#45;&gt;uqbar.graphs.VRule.VRule</title>
<path fill="none" stroke="#778899" d="M298.7203,-788.8409C371.3708,-791.8713 619.9568,-802.2402 705.1486,-805.7937"/>
<polygon fill="#778899" stroke="#778899" points="705.0191,-809.2913 715.1563,-806.2112 705.3109,-802.2973 705.0191,-809.2913"/>
</g>
<!-- uqbar.graphs.Attachable.Attachable&#45;&gt;uqbar.graphs.RecordField.RecordField -->
<g id="edge19" class="edge">
<title>uqbar.graphs.Attachable.Attachable&#45;&gt;uqbar.graphs.RecordField.RecordField</title>
<path fill="none" stroke="#778899" d="M760.334,-958.3272C764.7436,-955.8909 768.9067,-952.827 772.0681,-949 782.5213,-936.3462 805.1425,-834.1241 815.3656,-785.9487"/>
<polygon fill="#778899" stroke="#778899" points="818.8232,-786.5147 817.4618,-776.0077 811.9738,-785.0704 818.8232,-786.5147"/>
</g>
<!-- uqbar.graphs.Attachable.Attachable&#45;&gt;uqbar.graphs.TableCell.TableCell -->
<g id="edge20" class="edge">
<title>uqbar.graphs.Attachable.Attachable&#45;&gt;uqbar.graphs.TableCell.TableCell</title>
<path fill="none" stroke="#778899" d="M758.7588,-957.3314C763.41,-954.9611 768.0651,-952.1761 772.0681,-949 785.2024,-938.579 796.9855,-923.9532 805.648,-911.6354"/>
<polygon fill="#778899" stroke="#778899" points="808.6728,-913.4106 811.3787,-903.1671 802.8755,-909.4873 808.6728,-913.4106"/>
</g>
<!-- abc.ABC -->
<g id="node1" class="node">
<title>abc.ABC</title>
<g id="a_node1"><a xlink:href="https://docs.python.org/3.6/library/abc.html#abc.ABC" xlink:title="ABC" target="_top">
<path fill="#fbb4ae" stroke="#fbb4ae" stroke-width="2" d="M114.6667,-1415.5C114.6667,-1415.5 95.3333,-1415.5 95.3333,-1415.5 92.1667,-1415.5 89,-1412.3333 89,-1409.1667 89,-1409.1667 89,-1402.8333 89,-1402.8333 89,-1399.6667 92.1667,-1396.5 95.3333,-1396.5 95.3333,-1396.5 114.6667,-1396.5 114.6667,-1396.5 117.8333,-1396.5 121,-1399.6667 121,-1402.8333 121,-1402.8333 121,-1409.1667 121,-1409.1667 121,-1412.3333 117.8333,-1415.5 114.6667,-1415.5"/>
<text text-anchor="middle" x="105" y="-1403.5" font-family="Arial" font-size="10.00" fill="#000000">ABC</text>
</a>
</g>
</g>
<!-- builtins.int -->
<g id="node2" class="node">
<title>builtins.int</title>
<g id="a_node2"><a xlink:href="https://docs.python.org/3.6/library/functions.html#int" xlink:title="int" target="_top">
<path fill="#b3cde3" stroke="#b3cde3" stroke-width="2" d="M182.4657,-1351.5C182.4657,-1351.5 171.1323,-1351.5 171.1323,-1351.5 167.9657,-1351.5 164.799,-1348.3333 164.799,-1345.1667 164.799,-1345.1667 164.799,-1338.8333 164.799,-1338.8333 164.799,-1335.6667 167.9657,-1332.5 171.1323,-1332.5 171.1323,-1332.5 182.4657,-1332.5 182.4657,-1332.5 185.6323,-1332.5 188.799,-1335.6667 188.799,-1338.8333 188.799,-1338.8333 188.799,-1345.1667 188.799,-1345.1667 188.799,-1348.3333 185.6323,-1351.5 182.4657,-1351.5"/>
<text text-anchor="middle" x="176.799" y="-1339.5" font-family="Arial" font-size="10.00" fill="#000000">int</text>
</a>
</g>
</g>
<!-- builtins.object -->
<g id="node3" class="node">
<title>builtins.object</title>
<g id="a_node3"><a xlink:href="https://docs.python.org/3.6/library/functions.html#object" xlink:title="object" target="_top">
<path fill="#b3cde3" stroke="#b3cde3" stroke-width="2" d="M46.6667,-1351.5C46.6667,-1351.5 22.3333,-1351.5 22.3333,-1351.5 19.1667,-1351.5 16,-1348.3333 16,-1345.1667 16,-1345.1667 16,-1338.8333 16,-1338.8333 16,-1335.6667 19.1667,-1332.5 22.3333,-1332.5 22.3333,-1332.5 46.6667,-1332.5 46.6667,-1332.5 49.8333,-1332.5 53,-1335.6667 53,-1338.8333 53,-1338.8333 53,-1345.1667 53,-1345.1667 53,-1348.3333 49.8333,-1351.5 46.6667,-1351.5"/>
<text text-anchor="middle" x="34.5" y="-1339.5" font-family="Arial" font-size="10.00" fill="#000000">object</text>
</a>
</g>
</g>
<!-- code.InteractiveConsole -->
<g id="node4" class="node">
<title>code.InteractiveConsole</title>
<g id="a_node4"><a xlink:href="https://docs.python.org/3.6/library/code.html#code.InteractiveConsole" xlink:title="Interactive\nConsole" target="_top">
<path fill="#ccebc5" stroke="#ccebc5" stroke-width="2" d="M421.6701,-1186C421.6701,-1186 390.6701,-1186 390.6701,-1186 385.6701,-1186 380.6701,-1181 380.6701,-1176 380.6701,-1176 380.6701,-1166 380.6701,-1166 380.6701,-1161 385.6701,-1156 390.6701,-1156 390.6701,-1156 421.6701,-1156 421.6701,-1156 426.6701,-1156 431.6701,-1161 431.6701,-1166 431.6701,-1166 431.6701,-1176 431.6701,-1176 431.6701,-1181 426.6701,-1186 421.6701,-1186"/>
<text text-anchor="middle" x="406.1701" y="-1174" font-family="Arial" font-size="10.00" fill="#000000">Interactive</text>
<text text-anchor="middle" x="406.1701" y="-1163" font-family="Arial" font-size="10.00" fill="#000000">Console</text>
</a>
</g>
</g>
<!-- code.InteractiveInterpreter -->
<g id="node5" class="node">
<title>code.InteractiveInterpreter</title>
<g id="a_node5"><a xlink:href="https://docs.python.org/3.6/library/code.html#code.InteractiveInterpreter" xlink:title="Interactive\nInterpreter" target="_top">
<path fill="#ccebc5" stroke="#ccebc5" stroke-width="2" d="M294.0599,-1186C294.0599,-1186 263.0599,-1186 263.0599,-1186 258.0599,-1186 253.0599,-1181 253.0599,-1176 253.0599,-1176 253.0599,-1166 253.0599,-1166 253.0599,-1161 258.0599,-1156 263.0599,-1156 263.0599,-1156 294.0599,-1156 294.0599,-1156 299.0599,-1156 304.0599,-1161 304.0599,-1166 304.0599,-1166 304.0599,-1176 304.0599,-1176 304.0599,-1181 299.0599,-1186 294.0599,-1186"/>
<text text-anchor="middle" x="278.5599" y="-1174" font-family="Arial" font-size="10.00" fill="#000000">Interactive</text>
<text text-anchor="middle" x="278.5599" y="-1163" font-family="Arial" font-size="10.00" fill="#000000">Interpreter</text>
</a>
</g>
</g>
<!-- collections.abc.Collection -->
<g id="node6" class="node">
<title>collections.abc.Collection</title>
<g id="a_node6"><a xlink:href="https://docs.python.org/3.6/library/collections.abc.html#collections.abc.Collection" xlink:title="Collection" target="_top">
<ellipse fill="none" stroke="#decbe4" stroke-width="2" cx="406.1701" cy="-1022" rx="34.7971" ry="13.3704"/>
<text text-anchor="middle" x="406.1701" y="-1019.5" font-family="Arial" font-size="10.00" fill="#000000">Collection</text>
</a>
</g>
</g>
<!-- collections.abc.Mapping -->
<g id="node7" class="node">
<title>collections.abc.Mapping</title>
<g id="a_node7"><a xlink:href="https://docs.python.org/3.6/library/collections.abc.html#collections.abc.Mapping" xlink:title="Mapping" target="_top">
<ellipse fill="none" stroke="#decbe4" stroke-width="2" cx="528.1234" cy="-1017" rx="31.6406" ry="13.3704"/>
<text text-anchor="middle" x="528.1234" y="-1014.5" font-family="Arial" font-size="10.00" fill="#000000">Mapping</text>
</a>
</g>
</g>
<!-- collections.abc.Container -->
<g id="node8" class="node">
<title>collections.abc.Container</title>
<g id="a_node8"><a xlink:href="https://docs.python.org/3.6/library/collections.abc.html#collections.abc.Container" xlink:title="Container" target="_top">
<ellipse fill="none" stroke="#decbe4" stroke-width="2" cx="278.5599" cy="-980" rx="34.7971" ry="13.3704"/>
<text text-anchor="middle" x="278.5599" y="-977.5" font-family="Arial" font-size="10.00" fill="#000000">Container</text>
</a>
</g>
</g>
<!-- collections.abc.Iterable -->
<g id="node9" class="node">
<title>collections.abc.Iterable</title>
<g id="a_node9"><a xlink:href="https://docs.python.org/3.6/library/collections.abc.html#collections.abc.Iterable" xlink:title="Iterable" target="_top">
<ellipse fill="none" stroke="#decbe4" stroke-width="2" cx="278.5599" cy="-1070" rx="29.8983" ry="13.3704"/>
<text text-anchor="middle" x="278.5599" y="-1067.5" font-family="Arial" font-size="10.00" fill="#000000">Iterable</text>
</a>
</g>
</g>
<!-- collections.abc.MutableMapping -->
<g id="node10" class="node">
<title>collections.abc.MutableMapping</title>
<g id="a_node10"><a xlink:href="https://docs.python.org/3.6/library/collections.abc.html#collections.abc.MutableMapping" xlink:title="Mutable\nMapping" target="_top">
<ellipse fill="none" stroke="#decbe4" stroke-width="2" cx="636.2483" cy="-1007" rx="31.6406" ry="21.4286"/>
<text text-anchor="middle" x="636.2483" y="-1010" font-family="Arial" font-size="10.00" fill="#000000">Mutable</text>
<text text-anchor="middle" x="636.2483" y="-999" font-family="Arial" font-size="10.00" fill="#000000">Mapping</text>
</a>
</g>
</g>
<!-- collections.abc.Sized -->
<g id="node11" class="node">
<title>collections.abc.Sized</title>
<g id="a_node11"><a xlink:href="https://docs.python.org/3.6/library/collections.abc.html#collections.abc.Sized" xlink:title="Sized" target="_top">
<ellipse fill="none" stroke="#decbe4" stroke-width="2" cx="278.5599" cy="-1025" rx="25" ry="13.3704"/>
<text text-anchor="middle" x="278.5599" y="-1022.5" font-family="Arial" font-size="10.00" fill="#000000">Sized</text>
</a>
</g>
</g>
<!-- docutils.nodes.Body -->
<g id="node12" class="node">
<title>docutils.nodes.Body</title>
<path fill="#fed9a6" stroke="#fed9a6" stroke-width="2" d="M187.4657,-417.5C187.4657,-417.5 166.1323,-417.5 166.1323,-417.5 162.9657,-417.5 159.799,-414.3333 159.799,-411.1667 159.799,-411.1667 159.799,-404.8333 159.799,-404.8333 159.799,-401.6667 162.9657,-398.5 166.1323,-398.5 166.1323,-398.5 187.4657,-398.5 187.4657,-398.5 190.6323,-398.5 193.799,-401.6667 193.799,-404.8333 193.799,-404.8333 193.799,-411.1667 193.799,-411.1667 193.799,-414.3333 190.6323,-417.5 187.4657,-417.5"/>
<text text-anchor="middle" x="176.799" y="-405.5" font-family="Arial" font-size="10.00" fill="#000000">Body</text>
</g>
<!-- docutils.nodes.General -->
<g id="node13" class="node">
<title>docutils.nodes.General</title>
<path fill="#fed9a6" stroke="#fed9a6" stroke-width="2" d="M293.7266,-417.5C293.7266,-417.5 263.3933,-417.5 263.3933,-417.5 260.2266,-417.5 257.0599,-414.3333 257.0599,-411.1667 257.0599,-411.1667 257.0599,-404.8333 257.0599,-404.8333 257.0599,-401.6667 260.2266,-398.5 263.3933,-398.5 263.3933,-398.5 293.7266,-398.5 293.7266,-398.5 296.8933,-398.5 300.0599,-401.6667 300.0599,-404.8333 300.0599,-404.8333 300.0599,-411.1667 300.0599,-411.1667 300.0599,-414.3333 296.8933,-417.5 293.7266,-417.5"/>
<text text-anchor="middle" x="278.5599" y="-405.5" font-family="Arial" font-size="10.00" fill="#000000">General</text>
</g>
<!-- docutils.nodes.Element -->
<g id="node14" class="node">
<title>docutils.nodes.Element</title>
<path fill="#fed9a6" stroke="#fed9a6" stroke-width="2" d="M294.2266,-380.5C294.2266,-380.5 262.8933,-380.5 262.8933,-380.5 259.7266,-380.5 256.5599,-377.3333 256.5599,-374.1667 256.5599,-374.1667 256.5599,-367.8333 256.5599,-367.8333 256.5599,-364.6667 259.7266,-361.5 262.8933,-361.5 262.8933,-361.5 294.2266,-361.5 294.2266,-361.5 297.3933,-361.5 300.5599,-364.6667 300.5599,-367.8333 300.5599,-367.8333 300.5599,-374.1667 300.5599,-374.1667 300.5599,-377.3333 297.3933,-380.5 294.2266,-380.5"/>
<text text-anchor="middle" x="278.5599" y="-368.5" font-family="Arial" font-size="10.00" fill="#000000">Element</text>
</g>
<!-- docutils.nodes.Node -->
<g id="node15" class="node">
<title>docutils.nodes.Node</title>
<path fill="#fed9a6" stroke="#fed9a6" stroke-width="2" d="M187.4657,-380.5C187.4657,-380.5 166.1323,-380.5 166.1323,-380.5 162.9657,-380.5 159.799,-377.3333 159.799,-374.1667 159.799,-374.1667 159.799,-367.8333 159.799,-367.8333 159.799,-364.6667 162.9657,-361.5 166.1323,-361.5 166.1323,-361.5 187.4657,-361.5 187.4657,-361.5 190.6323,-361.5 193.799,-364.6667 193.799,-367.8333 193.799,-367.8333 193.799,-374.1667 193.799,-374.1667 193.799,-377.3333 190.6323,-380.5 187.4657,-380.5"/>
<text text-anchor="middle" x="176.799" y="-368.5" font-family="Arial" font-size="10.00" fill="#000000">Node</text>
</g>
<!-- docutils.parsers.rst.Directive -->
<g id="node16" class="node">
<title>docutils.parsers.rst.Directive</title>
<g id="a_node16"><a xlink:href="http://www.sphinx-doc.org/en/stable/extdev/markupapi.html#docutils.parsers.rst.Directive" xlink:title="Directive" target="_top">
<path fill="#ffffcc" stroke="#ffffcc" stroke-width="2" d="M295.2266,-317.5C295.2266,-317.5 261.8933,-317.5 261.8933,-317.5 258.7266,-317.5 255.5599,-314.3333 255.5599,-311.1667 255.5599,-311.1667 255.5599,-304.8333 255.5599,-304.8333 255.5599,-301.6667 258.7266,-298.5 261.8933,-298.5 261.8933,-298.5 295.2266,-298.5 295.2266,-298.5 298.3933,-298.5 301.5599,-301.6667 301.5599,-304.8333 301.5599,-304.8333 301.5599,-311.1667 301.5599,-311.1667 301.5599,-314.3333 298.3933,-317.5 295.2266,-317.5"/>
<text text-anchor="middle" x="278.5599" y="-305.5" font-family="Arial" font-size="10.00" fill="#000000">Directive</text>
</a>
</g>
</g>
<!-- enum.Enum -->
<g id="node17" class="node">
<title>enum.Enum</title>
<g id="a_node17"><a xlink:href="https://docs.python.org/3.6/library/enum.html#enum.Enum" xlink:title="Enum" target="_top">
<path fill="#e5d8bd" stroke="#e5d8bd" stroke-width="2" d="M188.4657,-1283.5C188.4657,-1283.5 165.1323,-1283.5 165.1323,-1283.5 161.9657,-1283.5 158.799,-1280.3333 158.799,-1277.1667 158.799,-1277.1667 158.799,-1270.8333 158.799,-1270.8333 158.799,-1267.6667 161.9657,-1264.5 165.1323,-1264.5 165.1323,-1264.5 188.4657,-1264.5 188.4657,-1264.5 191.6323,-1264.5 194.799,-1267.6667 194.799,-1270.8333 194.799,-1270.8333 194.799,-1277.1667 194.799,-1277.1667 194.799,-1280.3333 191.6323,-1283.5 188.4657,-1283.5"/>
<text text-anchor="middle" x="176.799" y="-1271.5" font-family="Arial" font-size="10.00" fill="#000000">Enum</text>
</a>
</g>
</g>
<!-- enum.IntEnum -->
<g id="node18" class="node">
<title>enum.IntEnum</title>
<g id="a_node18"><a xlink:href="https://docs.python.org/3.6/library/enum.html#enum.IntEnum" xlink:title="Int\nEnum" target="_top">
<path fill="#e5d8bd" stroke="#e5d8bd" stroke-width="2" d="M286.5599,-1289C286.5599,-1289 270.5599,-1289 270.5599,-1289 265.5599,-1289 260.5599,-1284 260.5599,-1279 260.5599,-1279 260.5599,-1269 260.5599,-1269 260.5599,-1264 265.5599,-1259 270.5599,-1259 270.5599,-1259 286.5599,-1259 286.5599,-1259 291.5599,-1259 296.5599,-1264 296.5599,-1269 296.5599,-1269 296.5599,-1279 296.5599,-1279 296.5599,-1284 291.5599,-1289 286.5599,-1289"/>
<text text-anchor="middle" x="278.5599" y="-1277" font-family="Arial" font-size="10.00" fill="#000000">Int</text>
<text text-anchor="middle" x="278.5599" y="-1266" font-family="Arial" font-size="10.00" fill="#000000">Enum</text>
</a>
</g>
</g>
<!-- uqbar.apis.APIBuilder.APIBuilder -->
<g id="node19" class="node">
<title>uqbar.apis.APIBuilder.APIBuilder</title>
<g id="a_node19"><a xlink:href="../api/uqbar/apis/APIBuilder.html#uqbar.apis.APIBuilder.APIBuilder" xlink:title="APIBuilder" target="_top">
<path fill="#fddaec" stroke="#fddaec" stroke-width="2" d="M547.7901,-333.5C547.7901,-333.5 508.4567,-333.5 508.4567,-333.5 505.2901,-333.5 502.1234,-330.3333 502.1234,-327.1667 502.1234,-327.1667 502.1234,-320.8333 502.1234,-320.8333 502.1234,-317.6667 505.2901,-314.5 508.4567,-314.5 508.4567,-314.5 547.7901,-314.5 547.7901,-314.5 550.9567,-314.5 554.1234,-317.6667 554.1234,-320.8333 554.1234,-320.8333 554.1234,-327.1667 554.1234,-327.1667 554.1234,-330.3333 550.9567,-333.5 547.7901,-333.5"/>
<text text-anchor="middle" x="528.1234" y="-321.5" font-family="Arial" font-size="10.00" fill="#000000">APIBuilder</text>
</a>
</g>
</g>
<!-- uqbar.apis.ClassDocumenter.ClassDocumenter -->
<g id="node20" class="node">
<title>uqbar.apis.ClassDocumenter.ClassDocumenter</title>
<g id="a_node20"><a xlink:href="../api/uqbar/apis/ClassDocumenter.html#uqbar.apis.ClassDocumenter.ClassDocumenter" xlink:title="Class\nDocumenter" target="_top">
<path fill="#fddaec" stroke="#fddaec" stroke-width="2" d="M654.7483,-277C654.7483,-277 617.7483,-277 617.7483,-277 612.7483,-277 607.7483,-272 607.7483,-267 607.7483,-267 607.7483,-257 607.7483,-257 607.7483,-252 612.7483,-247 617.7483,-247 617.7483,-247 654.7483,-247 654.7483,-247 659.7483,-247 664.7483,-252 664.7483,-257 664.7483,-257 664.7483,-267 664.7483,-267 664.7483,-272 659.7483,-277 654.7483,-277"/>
<text text-anchor="middle" x="636.2483" y="-265" font-family="Arial" font-size="10.00" fill="#000000">Class</text>
<text text-anchor="middle" x="636.2483" y="-254" font-family="Arial" font-size="10.00" fill="#000000">Documenter</text>
</a>
</g>
</g>
<!-- uqbar.apis.SummarizingClassDocumenter.SummarizingClassDocumenter -->
<g id="node21" class="node">
<title>uqbar.apis.SummarizingClassDocumenter.SummarizingClassDocumenter</title>
<g id="a_node21"><a xlink:href="../api/uqbar/apis/SummarizingClassDocumenter.html#uqbar.apis.SummarizingClassDocumenter.SummarizingClassDocumenter" xlink:title="Summarizing\nClass\nDocumenter" target="_top">
<path fill="#fddaec" stroke="#fddaec" stroke-width="2" d="M752.0681,-287.5C752.0681,-287.5 716.0681,-287.5 716.0681,-287.5 710.0681,-287.5 704.0681,-281.5 704.0681,-275.5 704.0681,-275.5 704.0681,-258.5 704.0681,-258.5 704.0681,-252.5 710.0681,-246.5 716.0681,-246.5 716.0681,-246.5 752.0681,-246.5 752.0681,-246.5 758.0681,-246.5 764.0681,-252.5 764.0681,-258.5 764.0681,-258.5 764.0681,-275.5 764.0681,-275.5 764.0681,-281.5 758.0681,-287.5 752.0681,-287.5"/>
<text text-anchor="middle" x="734.0681" y="-275.5" font-family="Arial" font-size="10.00" fill="#000000">Summarizing</text>
<text text-anchor="middle" x="734.0681" y="-264.5" font-family="Arial" font-size="10.00" fill="#000000">Class</text>
<text text-anchor="middle" x="734.0681" y="-253.5" font-family="Arial" font-size="10.00" fill="#000000">Documenter</text>
</a>
</g>
</g>
<!-- uqbar.apis.FunctionDocumenter.FunctionDocumenter -->
<g id="node22" class="node">
<title>uqbar.apis.FunctionDocumenter.FunctionDocumenter</title>
<g id="a_node22"><a xlink:href="../api/uqbar/apis/FunctionDocumenter.html#uqbar.apis.FunctionDocumenter.FunctionDocumenter" xlink:title="Function\nDocumenter" target="_top">
<path fill="#fddaec" stroke="#fddaec" stroke-width="2" d="M752.5681,-228C752.5681,-228 715.5681,-228 715.5681,-228 710.5681,-228 705.5681,-223 705.5681,-218 705.5681,-218 705.5681,-208 705.5681,-208 705.5681,-203 710.5681,-198 715.5681,-198 715.5681,-198 752.5681,-198 752.5681,-198 757.5681,-198 762.5681,-203 762.5681,-208 762.5681,-208 762.5681,-218 762.5681,-218 762.5681,-223 757.5681,-228 752.5681,-228"/>
<text text-anchor="middle" x="734.0681" y="-216" font-family="Arial" font-size="10.00" fill="#000000">Function</text>
<text text-anchor="middle" x="734.0681" y="-205" font-family="Arial" font-size="10.00" fill="#000000">Documenter</text>
</a>
</g>
</g>
<!-- uqbar.apis.InheritanceGraph.InheritanceGraph -->
<g id="node23" class="node">
<title>uqbar.apis.InheritanceGraph.InheritanceGraph</title>
<g id="a_node23"><a xlink:href="../api/uqbar/apis/InheritanceGraph.html#uqbar.apis.InheritanceGraph.InheritanceGraph" xlink:title="Inheritance\nGraph" target="_top">
<path fill="#fddaec" stroke="#fddaec" stroke-width="2" d="M545.1234,-296C545.1234,-296 511.1234,-296 511.1234,-296 506.1234,-296 501.1234,-291 501.1234,-286 501.1234,-286 501.1234,-276 501.1234,-276 501.1234,-271 506.1234,-266 511.1234,-266 511.1234,-266 545.1234,-266 545.1234,-266 550.1234,-266 555.1234,-271 555.1234,-276 555.1234,-276 555.1234,-286 555.1234,-286 555.1234,-291 550.1234,-296 545.1234,-296"/>
<text text-anchor="middle" x="528.1234" y="-284" font-family="Arial" font-size="10.00" fill="#000000">Inheritance</text>
<text text-anchor="middle" x="528.1234" y="-273" font-family="Arial" font-size="10.00" fill="#000000">Graph</text>
</a>
</g>
</g>
<!-- uqbar.apis.MemberDocumenter.MemberDocumenter -->
<g id="node24" class="node">
<title>uqbar.apis.MemberDocumenter.MemberDocumenter</title>
<g id="a_node24"><a xlink:href="../api/uqbar/apis/MemberDocumenter.html#uqbar.apis.MemberDocumenter.MemberDocumenter" xlink:title="Member\nDocumenter" target="_top">
<ellipse fill="none" stroke="#fddaec" stroke-width="2" cx="528.1234" cy="-227" rx="40.1111" ry="21.4286"/>
<text text-anchor="middle" x="528.1234" y="-230" font-family="Arial" font-size="10.00" fill="#000000">Member</text>
<text text-anchor="middle" x="528.1234" y="-219" font-family="Arial" font-size="10.00" fill="#000000">Documenter</text>
</a>
</g>
</g>
<!-- uqbar.apis.ModuleDocumenter.ModuleDocumenter -->
<g id="node25" class="node">
<title>uqbar.apis.ModuleDocumenter.ModuleDocumenter</title>
<g id="a_node25"><a xlink:href="../api/uqbar/apis/ModuleDocumenter.html#uqbar.apis.ModuleDocumenter.ModuleDocumenter" xlink:title="Module\nDocumenter" target="_top">
<path fill="#fddaec" stroke="#fddaec" stroke-width="2" d="M546.6234,-188C546.6234,-188 509.6234,-188 509.6234,-188 504.6234,-188 499.6234,-183 499.6234,-178 499.6234,-178 499.6234,-168 499.6234,-168 499.6234,-163 504.6234,-158 509.6234,-158 509.6234,-158 546.6234,-158 546.6234,-158 551.6234,-158 556.6234,-163 556.6234,-168 556.6234,-168 556.6234,-178 556.6234,-178 556.6234,-183 551.6234,-188 546.6234,-188"/>
<text text-anchor="middle" x="528.1234" y="-176" font-family="Arial" font-size="10.00" fill="#000000">Module</text>
<text text-anchor="middle" x="528.1234" y="-165" font-family="Arial" font-size="10.00" fill="#000000">Documenter</text>
</a>
</g>
</g>
<!-- uqbar.apis.SummarizingModuleDocumenter.SummarizingModuleDocumenter -->
<g id="node26" class="node">
<title>uqbar.apis.SummarizingModuleDocumenter.SummarizingModuleDocumenter</title>
<g id="a_node26"><a xlink:href="../api/uqbar/apis/SummarizingModuleDocumenter.html#uqbar.apis.SummarizingModuleDocumenter.SummarizingModuleDocumenter" xlink:title="Summarizing\nModule\nDocumenter" target="_top">
<path fill="#fddaec" stroke="#fddaec" stroke-width="2" d="M654.2483,-199.5C654.2483,-199.5 618.2483,-199.5 618.2483,-199.5 612.2483,-199.5 606.2483,-193.5 606.2483,-187.5 606.2483,-187.5 606.2483,-170.5 606.2483,-170.5 606.2483,-164.5 612.2483,-158.5 618.2483,-158.5 618.2483,-158.5 654.2483,-158.5 654.2483,-158.5 660.2483,-158.5 666.2483,-164.5 666.2483,-170.5 666.2483,-170.5 666.2483,-187.5 666.2483,-187.5 666.2483,-193.5 660.2483,-199.5 654.2483,-199.5"/>
<text text-anchor="middle" x="636.2483" y="-187.5" font-family="Arial" font-size="10.00" fill="#000000">Summarizing</text>
<text text-anchor="middle" x="636.2483" y="-176.5" font-family="Arial" font-size="10.00" fill="#000000">Module</text>
<text text-anchor="middle" x="636.2483" y="-165.5" font-family="Arial" font-size="10.00" fill="#000000">Documenter</text>
</a>
</g>
</g>
<!-- uqbar.apis.ModuleNode.ModuleNode -->
<g id="node27" class="node">
<title>uqbar.apis.ModuleNode.ModuleNode</title>
<g id="a_node27"><a xlink:href="../api/uqbar/apis/ModuleNode.html#uqbar.apis.ModuleNode.ModuleNode" xlink:title="Module\nNode" target="_top">
<path fill="#fddaec" stroke="#fddaec" stroke-width="2" d="M538.6234,-430C538.6234,-430 517.6234,-430 517.6234,-430 512.6234,-430 507.6234,-425 507.6234,-420 507.6234,-420 507.6234,-410 507.6234,-410 507.6234,-405 512.6234,-400 517.6234,-400 517.6234,-400 538.6234,-400 538.6234,-400 543.6234,-400 548.6234,-405 548.6234,-410 548.6234,-410 548.6234,-420 548.6234,-420 548.6234,-425 543.6234,-430 538.6234,-430"/>
<text text-anchor="middle" x="528.1234" y="-418" font-family="Arial" font-size="10.00" fill="#000000">Module</text>
<text text-anchor="middle" x="528.1234" y="-407" font-family="Arial" font-size="10.00" fill="#000000">Node</text>
</a>
</g>
</g>
<!-- uqbar.apis.PackageNode.PackageNode -->
<g id="node28" class="node">
<title>uqbar.apis.PackageNode.PackageNode</title>
<g id="a_node28"><a xlink:href="../api/uqbar/apis/PackageNode.html#uqbar.apis.PackageNode.PackageNode" xlink:title="Package\nNode" target="_top">
<path fill="#fddaec" stroke="#fddaec" stroke-width="2" d="M541.1234,-478C541.1234,-478 515.1234,-478 515.1234,-478 510.1234,-478 505.1234,-473 505.1234,-468 505.1234,-468 505.1234,-458 505.1234,-458 505.1234,-453 510.1234,-448 515.1234,-448 515.1234,-448 541.1234,-448 541.1234,-448 546.1234,-448 551.1234,-453 551.1234,-458 551.1234,-458 551.1234,-468 551.1234,-468 551.1234,-473 546.1234,-478 541.1234,-478"/>
<text text-anchor="middle" x="528.1234" y="-466" font-family="Arial" font-size="10.00" fill="#000000">Package</text>
<text text-anchor="middle" x="528.1234" y="-455" font-family="Arial" font-size="10.00" fill="#000000">Node</text>
</a>
</g>
</g>
<!-- uqbar.apis.RootDocumenter.RootDocumenter -->
<g id="node29" class="node">
<title>uqbar.apis.RootDocumenter.RootDocumenter</title>
<g id="a_node29"><a xlink:href="../api/uqbar/apis/RootDocumenter.html#uqbar.apis.RootDocumenter.RootDocumenter" xlink:title="Root\nDocumenter" target="_top">
<path fill="#fddaec" stroke="#fddaec" stroke-width="2" d="M546.6234,-382C546.6234,-382 509.6234,-382 509.6234,-382 504.6234,-382 499.6234,-377 499.6234,-372 499.6234,-372 499.6234,-362 499.6234,-362 499.6234,-357 504.6234,-352 509.6234,-352 509.6234,-352 546.6234,-352 546.6234,-352 551.6234,-352 556.6234,-357 556.6234,-362 556.6234,-362 556.6234,-372 556.6234,-372 556.6234,-377 551.6234,-382 546.6234,-382"/>
<text text-anchor="middle" x="528.1234" y="-370" font-family="Arial" font-size="10.00" fill="#000000">Root</text>
<text text-anchor="middle" x="528.1234" y="-359" font-family="Arial" font-size="10.00" fill="#000000">Documenter</text>
</a>
</g>
</g>
<!-- uqbar.apis.SummarizingRootDocumenter.SummarizingRootDocumenter -->
<g id="node30" class="node">
<title>uqbar.apis.SummarizingRootDocumenter.SummarizingRootDocumenter</title>
<g id="a_node30"><a xlink:href="../api/uqbar/apis/SummarizingRootDocumenter.html#uqbar.apis.SummarizingRootDocumenter.SummarizingRootDocumenter" xlink:title="Summarizing\nRoot\nDocumenter" target="_top">
<path fill="#fddaec" stroke="#fddaec" stroke-width="2" d="M654.2483,-387.5C654.2483,-387.5 618.2483,-387.5 618.2483,-387.5 612.2483,-387.5 606.2483,-381.5 606.2483,-375.5 606.2483,-375.5 606.2483,-358.5 606.2483,-358.5 606.2483,-352.5 612.2483,-346.5 618.2483,-346.5 618.2483,-346.5 654.2483,-346.5 654.2483,-346.5 660.2483,-346.5 666.2483,-352.5 666.2483,-358.5 666.2483,-358.5 666.2483,-375.5 666.2483,-375.5 666.2483,-381.5 660.2483,-387.5 654.2483,-387.5"/>
<text text-anchor="middle" x="636.2483" y="-375.5" font-family="Arial" font-size="10.00" fill="#000000">Summarizing</text>
<text text-anchor="middle" x="636.2483" y="-364.5" font-family="Arial" font-size="10.00" fill="#000000">Root</text>
<text text-anchor="middle" x="636.2483" y="-353.5" font-family="Arial" font-size="10.00" fill="#000000">Documenter</text>
</a>
</g>
</g>
<!-- uqbar.apis.dummy.MyChildClass -->
<g id="node31" class="node">
<title>uqbar.apis.dummy.MyChildClass</title>
<g id="a_node31"><a xlink:href="../api/uqbar/apis/dummy.html#uqbar.apis.dummy.MyChildClass" xlink:title="My\nChild\nClass" target="_top">
<path fill="#f2f2f2" stroke="#f2f2f2" stroke-width="2" d="M284.3933,-254.5C284.3933,-254.5 272.7266,-254.5 272.7266,-254.5 266.8933,-254.5 261.0599,-248.6667 261.0599,-242.8333 261.0599,-242.8333 261.0599,-225.1667 261.0599,-225.1667 261.0599,-219.3333 266.8933,-213.5 272.7266,-213.5 272.7266,-213.5 284.3933,-213.5 284.3933,-213.5 290.2266,-213.5 296.0599,-219.3333 296.0599,-225.1667 296.0599,-225.1667 296.0599,-242.8333 296.0599,-242.8333 296.0599,-248.6667 290.2266,-254.5 284.3933,-254.5"/>
<text text-anchor="middle" x="278.5599" y="-242.5" font-family="Arial" font-size="10.00" fill="#000000">My</text>
<text text-anchor="middle" x="278.5599" y="-231.5" font-family="Arial" font-size="10.00" fill="#000000">Child</text>
<text text-anchor="middle" x="278.5599" y="-220.5" font-family="Arial" font-size="10.00" fill="#000000">Class</text>
</a>
</g>
</g>
<!-- uqbar.apis.dummy.MyParentClass -->
<g id="node32" class="node">
<title>uqbar.apis.dummy.MyParentClass</title>
<g id="a_node32"><a xlink:href="../api/uqbar/apis/dummy.html#uqbar.apis.dummy.MyParentClass" xlink:title="My\nParent\nClass" target="_top">
<path fill="#f2f2f2" stroke="#f2f2f2" stroke-width="2" d="M184.299,-254.5C184.299,-254.5 169.299,-254.5 169.299,-254.5 163.299,-254.5 157.299,-248.5 157.299,-242.5 157.299,-242.5 157.299,-225.5 157.299,-225.5 157.299,-219.5 163.299,-213.5 169.299,-213.5 169.299,-213.5 184.299,-213.5 184.299,-213.5 190.299,-213.5 196.299,-219.5 196.299,-225.5 196.299,-225.5 196.299,-242.5 196.299,-242.5 196.299,-248.5 190.299,-254.5 184.299,-254.5"/>
<text text-anchor="middle" x="176.799" y="-242.5" font-family="Arial" font-size="10.00" fill="#000000">My</text>
<text text-anchor="middle" x="176.799" y="-231.5" font-family="Arial" font-size="10.00" fill="#000000">Parent</text>
<text text-anchor="middle" x="176.799" y="-220.5" font-family="Arial" font-size="10.00" fill="#000000">Class</text>
</a>
</g>
</g>
<!-- uqbar.book.Console.Console -->
<g id="node33" class="node">
<title>uqbar.book.Console.Console</title>
<g id="a_node33"><a xlink:href="../api/uqbar/book/Console.html#uqbar.book.Console.Console" xlink:title="Console" target="_top">
<path fill="#fbb4ae" stroke="#fbb4ae" stroke-width="2" d="M543.7901,-1180.5C543.7901,-1180.5 512.4567,-1180.5 512.4567,-1180.5 509.2901,-1180.5 506.1234,-1177.3333 506.1234,-1174.1667 506.1234,-1174.1667 506.1234,-1167.8333 506.1234,-1167.8333 506.1234,-1164.6667 509.2901,-1161.5 512.4567,-1161.5 512.4567,-1161.5 543.7901,-1161.5 543.7901,-1161.5 546.9567,-1161.5 550.1234,-1164.6667 550.1234,-1167.8333 550.1234,-1167.8333 550.1234,-1174.1667 550.1234,-1174.1667 550.1234,-1177.3333 546.9567,-1180.5 543.7901,-1180.5"/>
<text text-anchor="middle" x="528.1234" y="-1168.5" font-family="Arial" font-size="10.00" fill="#000000">Console</text>
</a>
</g>
</g>
<!-- uqbar.cli.CLI.CLI -->
<g id="node34" class="node">
<title>uqbar.cli.CLI.CLI</title>
<g id="a_node34"><a xlink:href="../api/uqbar/cli/CLI.html#uqbar.cli.CLI.CLI" xlink:title="CLI" target="_top">
<ellipse fill="none" stroke="#b3cde3" stroke-width="2" cx="176.799" cy="-1408" rx="19.6" ry="13.3704"/>
<text text-anchor="middle" x="176.799" y="-1405.5" font-family="Arial" font-size="10.00" fill="#000000">CLI</text>
</a>
</g>
</g>
<!-- uqbar.cli.CLIAggregator.CLIAggregator -->
<g id="node35" class="node">
<title>uqbar.cli.CLIAggregator.CLIAggregator</title>
<g id="a_node35"><a xlink:href="../api/uqbar/cli/CLIAggregator.html#uqbar.cli.CLIAggregator.CLIAggregator" xlink:title="CLIAggregator" target="_top">
<ellipse fill="none" stroke="#b3cde3" stroke-width="2" cx="278.5599" cy="-1408" rx="45.9239" ry="13.3704"/>
<text text-anchor="middle" x="278.5599" y="-1405.5" font-family="Arial" font-size="10.00" fill="#000000">CLIAggregator</text>
</a>
</g>
</g>
<!-- uqbar.containers.DependencyGraph.DependencyGraph -->
<g id="node36" class="node">
<title>uqbar.containers.DependencyGraph.DependencyGraph</title>
<g id="a_node36"><a xlink:href="../api/uqbar/containers/DependencyGraph.html#uqbar.containers.DependencyGraph.DependencyGraph" xlink:title="Dependency\nGraph" target="_top">
<path fill="#ccebc5" stroke="#ccebc5" stroke-width="2" d="M298.0599,-749C298.0599,-749 259.0599,-749 259.0599,-749 254.0599,-749 249.0599,-744 249.0599,-739 249.0599,-739 249.0599,-729 249.0599,-729 249.0599,-724 254.0599,-719 259.0599,-719 259.0599,-719 298.0599,-719 298.0599,-719 303.0599,-719 308.0599,-724 308.0599,-729 308.0599,-729 308.0599,-739 308.0599,-739 308.0599,-744 303.0599,-749 298.0599,-749"/>
<text text-anchor="middle" x="278.5599" y="-737" font-family="Arial" font-size="10.00" fill="#000000">Dependency</text>
<text text-anchor="middle" x="278.5599" y="-726" font-family="Arial" font-size="10.00" fill="#000000">Graph</text>
</a>
</g>
</g>
<!-- uqbar.containers.UniqueTreeContainer.UniqueTreeContainer -->
<g id="node37" class="node">
<title>uqbar.containers.UniqueTreeContainer.UniqueTreeContainer</title>
<g id="a_node37"><a xlink:href="../api/uqbar/containers/UniqueTreeContainer.html#uqbar.containers.UniqueTreeContainer.UniqueTreeContainer" xlink:title="Unique\nTree\nContainer" target="_top">
<path fill="#ccebc5" stroke="#ccebc5" stroke-width="2" d="M418.6701,-760.5C418.6701,-760.5 393.6701,-760.5 393.6701,-760.5 387.6701,-760.5 381.6701,-754.5 381.6701,-748.5 381.6701,-748.5 381.6701,-731.5 381.6701,-731.5 381.6701,-725.5 387.6701,-719.5 393.6701,-719.5 393.6701,-719.5 418.6701,-719.5 418.6701,-719.5 424.6701,-719.5 430.6701,-725.5 430.6701,-731.5 430.6701,-731.5 430.6701,-748.5 430.6701,-748.5 430.6701,-754.5 424.6701,-760.5 418.6701,-760.5"/>
<text text-anchor="middle" x="406.1701" y="-748.5" font-family="Arial" font-size="10.00" fill="#000000">Unique</text>
<text text-anchor="middle" x="406.1701" y="-737.5" font-family="Arial" font-size="10.00" fill="#000000">Tree</text>
<text text-anchor="middle" x="406.1701" y="-726.5" font-family="Arial" font-size="10.00" fill="#000000">Container</text>
</a>
</g>
</g>
<!-- uqbar.containers.UniqueTreeNode.UniqueTreeNode -->
<g id="node38" class="node">
<title>uqbar.containers.UniqueTreeNode.UniqueTreeNode</title>
<g id="a_node38"><a xlink:href="../api/uqbar/containers/UniqueTreeNode.html#uqbar.containers.UniqueTreeNode.UniqueTreeNode" xlink:title="Unique\nTree\nNode" target="_top">
<path fill="#ccebc5" stroke="#ccebc5" stroke-width="2" d="M286.5599,-808.5C286.5599,-808.5 270.5599,-808.5 270.5599,-808.5 264.5599,-808.5 258.5599,-802.5 258.5599,-796.5 258.5599,-796.5 258.5599,-779.5 258.5599,-779.5 258.5599,-773.5 264.5599,-767.5 270.5599,-767.5 270.5599,-767.5 286.5599,-767.5 286.5599,-767.5 292.5599,-767.5 298.5599,-773.5 298.5599,-779.5 298.5599,-779.5 298.5599,-796.5 298.5599,-796.5 298.5599,-802.5 292.5599,-808.5 286.5599,-808.5"/>
<text text-anchor="middle" x="278.5599" y="-796.5" font-family="Arial" font-size="10.00" fill="#000000">Unique</text>
<text text-anchor="middle" x="278.5599" y="-785.5" font-family="Arial" font-size="10.00" fill="#000000">Tree</text>
<text text-anchor="middle" x="278.5599" y="-774.5" font-family="Arial" font-size="10.00" fill="#000000">Node</text>
</a>
</g>
</g>
<!-- uqbar.enums.IntEnumeration -->
<g id="node39" class="node">
<title>uqbar.enums.IntEnumeration</title>
<g id="a_node39"><a xlink:href="../api/uqbar/enums.html#uqbar.enums.IntEnumeration" xlink:title="Int\nEnumeration" target="_top">
<path fill="#decbe4" stroke="#decbe4" stroke-width="2" d="M425.6701,-1307C425.6701,-1307 386.6701,-1307 386.6701,-1307 381.6701,-1307 376.6701,-1302 376.6701,-1297 376.6701,-1297 376.6701,-1287 376.6701,-1287 376.6701,-1282 381.6701,-1277 386.6701,-1277 386.6701,-1277 425.6701,-1277 425.6701,-1277 430.6701,-1277 435.6701,-1282 435.6701,-1287 435.6701,-1287 435.6701,-1297 435.6701,-1297 435.6701,-1302 430.6701,-1307 425.6701,-1307"/>
<text text-anchor="middle" x="406.1701" y="-1295" font-family="Arial" font-size="10.00" fill="#000000">Int</text>
<text text-anchor="middle" x="406.1701" y="-1284" font-family="Arial" font-size="10.00" fill="#000000">Enumeration</text>
</a>
</g>
</g>
<!-- uqbar.enums.StrictEnumeration -->
<g id="node40" class="node">
<title>uqbar.enums.StrictEnumeration</title>
<g id="a_node40"><a xlink:href="../api/uqbar/enums.html#uqbar.enums.StrictEnumeration" xlink:title="Strict\nEnumeration" target="_top">
<path fill="#decbe4" stroke="#decbe4" stroke-width="2" d="M425.6701,-1259C425.6701,-1259 386.6701,-1259 386.6701,-1259 381.6701,-1259 376.6701,-1254 376.6701,-1249 376.6701,-1249 376.6701,-1239 376.6701,-1239 376.6701,-1234 381.6701,-1229 386.6701,-1229 386.6701,-1229 425.6701,-1229 425.6701,-1229 430.6701,-1229 435.6701,-1234 435.6701,-1239 435.6701,-1239 435.6701,-1249 435.6701,-1249 435.6701,-1254 430.6701,-1259 425.6701,-1259"/>
<text text-anchor="middle" x="406.1701" y="-1247" font-family="Arial" font-size="10.00" fill="#000000">Strict</text>
<text text-anchor="middle" x="406.1701" y="-1236" font-family="Arial" font-size="10.00" fill="#000000">Enumeration</text>
</a>
</g>
</g>
<!-- uqbar.graphs.Attachable.Attachable -->
<g id="node41" class="node">
<title>uqbar.graphs.Attachable.Attachable</title>
<g id="a_node41"><a xlink:href="../api/uqbar/graphs/Attachable.html#uqbar.graphs.Attachable.Attachable" xlink:title="Attachable" target="_top">
<path fill="#fed9a6" stroke="#fed9a6" stroke-width="2" d="M753.7348,-976.5C753.7348,-976.5 714.4014,-976.5 714.4014,-976.5 711.2348,-976.5 708.0681,-973.3333 708.0681,-970.1667 708.0681,-970.1667 708.0681,-963.8333 708.0681,-963.8333 708.0681,-960.6667 711.2348,-957.5 714.4014,-957.5 714.4014,-957.5 753.7348,-957.5 753.7348,-957.5 756.9014,-957.5 760.0681,-960.6667 760.0681,-963.8333 760.0681,-963.8333 760.0681,-970.1667 760.0681,-970.1667 760.0681,-973.3333 756.9014,-976.5 753.7348,-976.5"/>
<text text-anchor="middle" x="734.0681" y="-964.5" font-family="Arial" font-size="10.00" fill="#000000">Attachable</text>
</a>
</g>
</g>
<!-- uqbar.graphs.RecordField.RecordField -->
<g id="node42" class="node">
<title>uqbar.graphs.RecordField.RecordField</title>
<g id="a_node42"><a xlink:href="../api/uqbar/graphs/RecordField.html#uqbar.graphs.RecordField.RecordField" xlink:title="Record\nField" target="_top">
<path fill="#fed9a6" stroke="#fed9a6" stroke-width="2" d="M831.0681,-776C831.0681,-776 810.0681,-776 810.0681,-776 805.0681,-776 800.0681,-771 800.0681,-766 800.0681,-766 800.0681,-756 800.0681,-756 800.0681,-751 805.0681,-746 810.0681,-746 810.0681,-746 831.0681,-746 831.0681,-746 836.0681,-746 841.0681,-751 841.0681,-756 841.0681,-756 841.0681,-766 841.0681,-766 841.0681,-771 836.0681,-776 831.0681,-776"/>
<text text-anchor="middle" x="820.5681" y="-764" font-family="Arial" font-size="10.00" fill="#000000">Record</text>
<text text-anchor="middle" x="820.5681" y="-753" font-family="Arial" font-size="10.00" fill="#000000">Field</text>
</a>
</g>
</g>
<!-- uqbar.graphs.TableCell.TableCell -->
<g id="node43" class="node">
<title>uqbar.graphs.TableCell.TableCell</title>
<g id="a_node43"><a xlink:href="../api/uqbar/graphs/TableCell.html#uqbar.graphs.TableCell.TableCell" xlink:title="Table\nCell" target="_top">
<path fill="#fed9a6" stroke="#fed9a6" stroke-width="2" d="M828.0681,-903C828.0681,-903 813.0681,-903 813.0681,-903 808.0681,-903 803.0681,-898 803.0681,-893 803.0681,-893 803.0681,-883 803.0681,-883 803.0681,-878 808.0681,-873 813.0681,-873 813.0681,-873 828.0681,-873 828.0681,-873 833.0681,-873 838.0681,-878 838.0681,-883 838.0681,-883 838.0681,-893 838.0681,-893 838.0681,-898 833.0681,-903 828.0681,-903"/>
<text text-anchor="middle" x="820.5681" y="-891" font-family="Arial" font-size="10.00" fill="#000000">Table</text>
<text text-anchor="middle" x="820.5681" y="-880" font-family="Arial" font-size="10.00" fill="#000000">Cell</text>
</a>
</g>
</g>
<!-- uqbar.graphs.Attributes.Attributes -->
<g id="node44" class="node">
<title>uqbar.graphs.Attributes.Attributes</title>
<g id="a_node44"><a xlink:href="../api/uqbar/graphs/Attributes.html#uqbar.graphs.Attributes.Attributes" xlink:title="Attributes" target="_top">
<path fill="#fed9a6" stroke="#fed9a6" stroke-width="2" d="M751.7348,-1013.5C751.7348,-1013.5 716.4014,-1013.5 716.4014,-1013.5 713.2348,-1013.5 710.0681,-1010.3333 710.0681,-1007.1667 710.0681,-1007.1667 710.0681,-1000.8333 710.0681,-1000.8333 710.0681,-997.6667 713.2348,-994.5 716.4014,-994.5 716.4014,-994.5 751.7348,-994.5 751.7348,-994.5 754.9014,-994.5 758.0681,-997.6667 758.0681,-1000.8333 758.0681,-1000.8333 758.0681,-1007.1667 758.0681,-1007.1667 758.0681,-1010.3333 754.9014,-1013.5 751.7348,-1013.5"/>
<text text-anchor="middle" x="734.0681" y="-1001.5" font-family="Arial" font-size="10.00" fill="#000000">Attributes</text>
</a>
</g>
</g>
<!-- uqbar.graphs.Edge.Edge -->
<g id="node45" class="node">
<title>uqbar.graphs.Edge.Edge</title>
<g id="a_node45"><a xlink:href="../api/uqbar/graphs/Edge.html#uqbar.graphs.Edge.Edge" xlink:title="Edge" target="_top">
<path fill="#fed9a6" stroke="#fed9a6" stroke-width="2" d="M744.7348,-1050.5C744.7348,-1050.5 723.4014,-1050.5 723.4014,-1050.5 720.2348,-1050.5 717.0681,-1047.3333 717.0681,-1044.1667 717.0681,-1044.1667 717.0681,-1037.8333 717.0681,-1037.8333 717.0681,-1034.6667 720.2348,-1031.5 723.4014,-1031.5 723.4014,-1031.5 744.7348,-1031.5 744.7348,-1031.5 747.9014,-1031.5 751.0681,-1034.6667 751.0681,-1037.8333 751.0681,-1037.8333 751.0681,-1044.1667 751.0681,-1044.1667 751.0681,-1047.3333 747.9014,-1050.5 744.7348,-1050.5"/>
<text text-anchor="middle" x="734.0681" y="-1038.5" font-family="Arial" font-size="10.00" fill="#000000">Edge</text>
</a>
</g>
</g>
<!-- uqbar.graphs.Graph.Graph -->
<g id="node46" class="node">
<title>uqbar.graphs.Graph.Graph</title>
<g id="a_node46"><a xlink:href="../api/uqbar/graphs/Graph.html#uqbar.graphs.Graph.Graph" xlink:title="Graph" target="_top">
<path fill="#fed9a6" stroke="#fed9a6" stroke-width="2" d="M746.2348,-779.5C746.2348,-779.5 721.9014,-779.5 721.9014,-779.5 718.7348,-779.5 715.5681,-776.3333 715.5681,-773.1667 715.5681,-773.1667 715.5681,-766.8333 715.5681,-766.8333 715.5681,-763.6667 718.7348,-760.5 721.9014,-760.5 721.9014,-760.5 746.2348,-760.5 746.2348,-760.5 749.4014,-760.5 752.5681,-763.6667 752.5681,-766.8333 752.5681,-766.8333 752.5681,-773.1667 752.5681,-773.1667 752.5681,-776.3333 749.4014,-779.5 746.2348,-779.5"/>
<text text-anchor="middle" x="734.0681" y="-767.5" font-family="Arial" font-size="10.00" fill="#000000">Graph</text>
</a>
</g>
</g>
<!-- uqbar.graphs.HRule.HRule -->
<g id="node47" class="node">
<title>uqbar.graphs.HRule.HRule</title>
<g id="a_node47"><a xlink:href="../api/uqbar/graphs/HRule.html#uqbar.graphs.HRule.HRule" xlink:title="HRule" target="_top">
<path fill="#fed9a6" stroke="#fed9a6" stroke-width="2" d="M746.2348,-939.5C746.2348,-939.5 721.9014,-939.5 721.9014,-939.5 718.7348,-939.5 715.5681,-936.3333 715.5681,-933.1667 715.5681,-933.1667 715.5681,-926.8333 715.5681,-926.8333 715.5681,-923.6667 718.7348,-920.5 721.9014,-920.5 721.9014,-920.5 746.2348,-920.5 746.2348,-920.5 749.4014,-920.5 752.5681,-923.6667 752.5681,-926.8333 752.5681,-926.8333 752.5681,-933.1667 752.5681,-933.1667 752.5681,-936.3333 749.4014,-939.5 746.2348,-939.5"/>
<text text-anchor="middle" x="734.0681" y="-927.5" font-family="Arial" font-size="10.00" fill="#000000">HRule</text>
</a>
</g>
</g>
<!-- uqbar.graphs.LineBreak.LineBreak -->
<g id="node48" class="node">
<title>uqbar.graphs.LineBreak.LineBreak</title>
<g id="a_node48"><a xlink:href="../api/uqbar/graphs/LineBreak.html#uqbar.graphs.LineBreak.LineBreak" xlink:title="Line\nBreak" target="_top">
<path fill="#fed9a6" stroke="#fed9a6" stroke-width="2" d="M742.0681,-902C742.0681,-902 726.0681,-902 726.0681,-902 721.0681,-902 716.0681,-897 716.0681,-892 716.0681,-892 716.0681,-882 716.0681,-882 716.0681,-877 721.0681,-872 726.0681,-872 726.0681,-872 742.0681,-872 742.0681,-872 747.0681,-872 752.0681,-877 752.0681,-882 752.0681,-882 752.0681,-892 752.0681,-892 752.0681,-897 747.0681,-902 742.0681,-902"/>
<text text-anchor="middle" x="734.0681" y="-890" font-family="Arial" font-size="10.00" fill="#000000">Line</text>
<text text-anchor="middle" x="734.0681" y="-879" font-family="Arial" font-size="10.00" fill="#000000">Break</text>
</a>
</g>
</g>
<!-- uqbar.graphs.Node.Node -->
<g id="node49" class="node">
<title>uqbar.graphs.Node.Node</title>
<g id="a_node49"><a xlink:href="../api/uqbar/graphs/Node.html#uqbar.graphs.Node.Node" xlink:title="Node" target="_top">
<path fill="#fed9a6" stroke="#fed9a6" stroke-width="2" d="M744.7348,-742.5C744.7348,-742.5 723.4014,-742.5 723.4014,-742.5 720.2348,-742.5 717.0681,-739.3333 717.0681,-736.1667 717.0681,-736.1667 717.0681,-729.8333 717.0681,-729.8333 717.0681,-726.6667 720.2348,-723.5 723.4014,-723.5 723.4014,-723.5 744.7348,-723.5 744.7348,-723.5 747.9014,-723.5 751.0681,-726.6667 751.0681,-729.8333 751.0681,-729.8333 751.0681,-736.1667 751.0681,-736.1667 751.0681,-739.3333 747.9014,-742.5 744.7348,-742.5"/>
<text text-anchor="middle" x="734.0681" y="-730.5" font-family="Arial" font-size="10.00" fill="#000000">Node</text>
</a>
</g>
</g>
<!-- uqbar.graphs.RecordGroup.RecordGroup -->
<g id="node50" class="node">
<title>uqbar.graphs.RecordGroup.RecordGroup</title>
<g id="a_node50"><a xlink:href="../api/uqbar/graphs/RecordGroup.html#uqbar.graphs.RecordGroup.RecordGroup" xlink:title="Record\nGroup" target="_top">
<path fill="#fed9a6" stroke="#fed9a6" stroke-width="2" d="M744.5681,-705C744.5681,-705 723.5681,-705 723.5681,-705 718.5681,-705 713.5681,-700 713.5681,-695 713.5681,-695 713.5681,-685 713.5681,-685 713.5681,-680 718.5681,-675 723.5681,-675 723.5681,-675 744.5681,-675 744.5681,-675 749.5681,-675 754.5681,-680 754.5681,-685 754.5681,-685 754.5681,-695 754.5681,-695 754.5681,-700 749.5681,-705 744.5681,-705"/>
<text text-anchor="middle" x="734.0681" y="-693" font-family="Arial" font-size="10.00" fill="#000000">Record</text>
<text text-anchor="middle" x="734.0681" y="-682" font-family="Arial" font-size="10.00" fill="#000000">Group</text>
</a>
</g>
</g>
<!-- uqbar.graphs.Table.Table -->
<g id="node51" class="node">
<title>uqbar.graphs.Table.Table</title>
<g id="a_node51"><a xlink:href="../api/uqbar/graphs/Table.html#uqbar.graphs.Table.Table" xlink:title="Table" target="_top">
<path fill="#fed9a6" stroke="#fed9a6" stroke-width="2" d="M745.2348,-656.5C745.2348,-656.5 722.9014,-656.5 722.9014,-656.5 719.7348,-656.5 716.5681,-653.3333 716.5681,-650.1667 716.5681,-650.1667 716.5681,-643.8333 716.5681,-643.8333 716.5681,-640.6667 719.7348,-637.5 722.9014,-637.5 722.9014,-637.5 745.2348,-637.5 745.2348,-637.5 748.4014,-637.5 751.5681,-640.6667 751.5681,-643.8333 751.5681,-643.8333 751.5681,-650.1667 751.5681,-650.1667 751.5681,-653.3333 748.4014,-656.5 745.2348,-656.5"/>
<text text-anchor="middle" x="734.0681" y="-644.5" font-family="Arial" font-size="10.00" fill="#000000">Table</text>
</a>
</g>
</g>
<!-- uqbar.graphs.TableRow.TableRow -->
<g id="node52" class="node">
<title>uqbar.graphs.TableRow.TableRow</title>
<g id="a_node52"><a xlink:href="../api/uqbar/graphs/TableRow.html#uqbar.graphs.TableRow.TableRow" xlink:title="Table\nRow" target="_top">
<path fill="#fed9a6" stroke="#fed9a6" stroke-width="2" d="M741.5681,-619C741.5681,-619 726.5681,-619 726.5681,-619 721.5681,-619 716.5681,-614 716.5681,-609 716.5681,-609 716.5681,-599 716.5681,-599 716.5681,-594 721.5681,-589 726.5681,-589 726.5681,-589 741.5681,-589 741.5681,-589 746.5681,-589 751.5681,-594 751.5681,-599 751.5681,-599 751.5681,-609 751.5681,-609 751.5681,-614 746.5681,-619 741.5681,-619"/>
<text text-anchor="middle" x="734.0681" y="-607" font-family="Arial" font-size="10.00" fill="#000000">Table</text>
<text text-anchor="middle" x="734.0681" y="-596" font-family="Arial" font-size="10.00" fill="#000000">Row</text>
</a>
</g>
</g>
<!-- uqbar.graphs.Text.Text -->
<g id="node53" class="node">
<title>uqbar.graphs.Text.Text</title>
<g id="a_node53"><a xlink:href="../api/uqbar/graphs/Text.html#uqbar.graphs.Text.Text" xlink:title="Text" target="_top">
<path fill="#fed9a6" stroke="#fed9a6" stroke-width="2" d="M743.2348,-853.5C743.2348,-853.5 724.9014,-853.5 724.9014,-853.5 721.7348,-853.5 718.5681,-850.3333 718.5681,-847.1667 718.5681,-847.1667 718.5681,-840.8333 718.5681,-840.8333 718.5681,-837.6667 721.7348,-834.5 724.9014,-834.5 724.9014,-834.5 743.2348,-834.5 743.2348,-834.5 746.4014,-834.5 749.5681,-837.6667 749.5681,-840.8333 749.5681,-840.8333 749.5681,-847.1667 749.5681,-847.1667 749.5681,-850.3333 746.4014,-853.5 743.2348,-853.5"/>
<text text-anchor="middle" x="734.0681" y="-841.5" font-family="Arial" font-size="10.00" fill="#000000">Text</text>
</a>
</g>
</g>
<!-- uqbar.graphs.VRule.VRule -->
<g id="node54" class="node">
<title>uqbar.graphs.VRule.VRule</title>
<g id="a_node54"><a xlink:href="../api/uqbar/graphs/VRule.html#uqbar.graphs.VRule.VRule" xlink:title="VRule" target="_top">
<path fill="#fed9a6" stroke="#fed9a6" stroke-width="2" d="M746.2348,-816.5C746.2348,-816.5 721.9014,-816.5 721.9014,-816.5 718.7348,-816.5 715.5681,-813.3333 715.5681,-810.1667 715.5681,-810.1667 715.5681,-803.8333 715.5681,-803.8333 715.5681,-800.6667 718.7348,-797.5 721.9014,-797.5 721.9014,-797.5 746.2348,-797.5 746.2348,-797.5 749.4014,-797.5 752.5681,-800.6667 752.5681,-803.8333 752.5681,-803.8333 752.5681,-810.1667 752.5681,-810.1667 752.5681,-813.3333 749.4014,-816.5 746.2348,-816.5"/>
<text text-anchor="middle" x="734.0681" y="-804.5" font-family="Arial" font-size="10.00" fill="#000000">VRule</text>
</a>
</g>
</g>
<!-- uqbar.io.DirectoryChange.DirectoryChange -->
<g id="node55" class="node">
<title>uqbar.io.DirectoryChange.DirectoryChange</title>
<g id="a_node55"><a xlink:href="../api/uqbar/io/DirectoryChange.html#uqbar.io.DirectoryChange.DirectoryChange" xlink:title="Directory\nChange" target="_top">
<path fill="#ffffcc" stroke="#ffffcc" stroke-width="2" d="M292.0599,-170C292.0599,-170 265.0599,-170 265.0599,-170 260.0599,-170 255.0599,-165 255.0599,-160 255.0599,-160 255.0599,-150 255.0599,-150 255.0599,-145 260.0599,-140 265.0599,-140 265.0599,-140 292.0599,-140 292.0599,-140 297.0599,-140 302.0599,-145 302.0599,-150 302.0599,-150 302.0599,-160 302.0599,-160 302.0599,-165 297.0599,-170 292.0599,-170"/>
<text text-anchor="middle" x="278.5599" y="-158" font-family="Arial" font-size="10.00" fill="#000000">Directory</text>
<text text-anchor="middle" x="278.5599" y="-147" font-family="Arial" font-size="10.00" fill="#000000">Change</text>
</a>
</g>
</g>
<!-- uqbar.io.Profiler.Profiler -->
<g id="node56" class="node">
<title>uqbar.io.Profiler.Profiler</title>
<g id="a_node56"><a xlink:href="../api/uqbar/io/Profiler.html#uqbar.io.Profiler.Profiler" xlink:title="Profiler" target="_top">
<path fill="#ffffcc" stroke="#ffffcc" stroke-width="2" d="M292.2266,-121.5C292.2266,-121.5 264.8933,-121.5 264.8933,-121.5 261.7266,-121.5 258.5599,-118.3333 258.5599,-115.1667 258.5599,-115.1667 258.5599,-108.8333 258.5599,-108.8333 258.5599,-105.6667 261.7266,-102.5 264.8933,-102.5 264.8933,-102.5 292.2266,-102.5 292.2266,-102.5 295.3933,-102.5 298.5599,-105.6667 298.5599,-108.8333 298.5599,-108.8333 298.5599,-115.1667 298.5599,-115.1667 298.5599,-118.3333 295.3933,-121.5 292.2266,-121.5"/>
<text text-anchor="middle" x="278.5599" y="-109.5" font-family="Arial" font-size="10.00" fill="#000000">Profiler</text>
</a>
</g>
</g>
<!-- uqbar.io.RedirectedStreams.RedirectedStreams -->
<g id="node57" class="node">
<title>uqbar.io.RedirectedStreams.RedirectedStreams</title>
<g id="a_node57"><a xlink:href="../api/uqbar/io/RedirectedStreams.html#uqbar.io.RedirectedStreams.RedirectedStreams" xlink:title="Redirected\nStreams" target="_top">
<path fill="#ffffcc" stroke="#ffffcc" stroke-width="2" d="M295.0599,-84C295.0599,-84 262.0599,-84 262.0599,-84 257.0599,-84 252.0599,-79 252.0599,-74 252.0599,-74 252.0599,-64 252.0599,-64 252.0599,-59 257.0599,-54 262.0599,-54 262.0599,-54 295.0599,-54 295.0599,-54 300.0599,-54 305.0599,-59 305.0599,-64 305.0599,-64 305.0599,-74 305.0599,-74 305.0599,-79 300.0599,-84 295.0599,-84"/>
<text text-anchor="middle" x="278.5599" y="-72" font-family="Arial" font-size="10.00" fill="#000000">Redirected</text>
<text text-anchor="middle" x="278.5599" y="-61" font-family="Arial" font-size="10.00" fill="#000000">Streams</text>
</a>
</g>
</g>
<!-- uqbar.io.Timer.Timer -->
<g id="node58" class="node">
<title>uqbar.io.Timer.Timer</title>
<g id="a_node58"><a xlink:href="../api/uqbar/io/Timer.html#uqbar.io.Timer.Timer" xlink:title="Timer" target="_top">
<path fill="#ffffcc" stroke="#ffffcc" stroke-width="2" d="M290.2266,-35.5C290.2266,-35.5 266.8933,-35.5 266.8933,-35.5 263.7266,-35.5 260.5599,-32.3333 260.5599,-29.1667 260.5599,-29.1667 260.5599,-22.8333 260.5599,-22.8333 260.5599,-19.6667 263.7266,-16.5 266.8933,-16.5 266.8933,-16.5 290.2266,-16.5 290.2266,-16.5 293.3933,-16.5 296.5599,-19.6667 296.5599,-22.8333 296.5599,-22.8333 296.5599,-29.1667 296.5599,-29.1667 296.5599,-32.3333 293.3933,-35.5 290.2266,-35.5"/>
<text text-anchor="middle" x="278.5599" y="-23.5" font-family="Arial" font-size="10.00" fill="#000000">Timer</text>
</a>
</g>
</g>
<!-- uqbar.sphinx.inheritance.InheritanceDiagram -->
<g id="node59" class="node">
<title>uqbar.sphinx.inheritance.InheritanceDiagram</title>
<g id="a_node59"><a xlink:href="../api/uqbar/sphinx/inheritance.html#uqbar.sphinx.inheritance.InheritanceDiagram" xlink:title="Inheritance\nDiagram" target="_top">
<path fill="#e5d8bd" stroke="#e5d8bd" stroke-width="2" d="M423.1701,-338C423.1701,-338 389.1701,-338 389.1701,-338 384.1701,-338 379.1701,-333 379.1701,-328 379.1701,-328 379.1701,-318 379.1701,-318 379.1701,-313 384.1701,-308 389.1701,-308 389.1701,-308 423.1701,-308 423.1701,-308 428.1701,-308 433.1701,-313 433.1701,-318 433.1701,-318 433.1701,-328 433.1701,-328 433.1701,-333 428.1701,-338 423.1701,-338"/>
<text text-anchor="middle" x="406.1701" y="-326" font-family="Arial" font-size="10.00" fill="#000000">Inheritance</text>
<text text-anchor="middle" x="406.1701" y="-315" font-family="Arial" font-size="10.00" fill="#000000">Diagram</text>
</a>
</g>
</g>
<!-- uqbar.sphinx.inheritance.inheritance_diagram -->
<g id="node60" class="node">
<title>uqbar.sphinx.inheritance.inheritance_diagram</title>
<g id="a_node60"><a xlink:href="../api/uqbar/sphinx/inheritance.html#uqbar.sphinx.inheritance.inheritance_diagram" xlink:title="inheritance\ndiagram" target="_top">
<path fill="#e5d8bd" stroke="#e5d8bd" stroke-width="2" d="M422.6701,-386C422.6701,-386 389.6701,-386 389.6701,-386 384.6701,-386 379.6701,-381 379.6701,-376 379.6701,-376 379.6701,-366 379.6701,-366 379.6701,-361 384.6701,-356 389.6701,-356 389.6701,-356 422.6701,-356 422.6701,-356 427.6701,-356 432.6701,-361 432.6701,-366 432.6701,-366 432.6701,-376 432.6701,-376 432.6701,-381 427.6701,-386 422.6701,-386"/>
<text text-anchor="middle" x="406.1701" y="-374" font-family="Arial" font-size="10.00" fill="#000000">inheritance</text>
<text text-anchor="middle" x="406.1701" y="-363" font-family="Arial" font-size="10.00" fill="#000000">diagram</text>
</a>
</g>
</g>
</g>
</svg>
