<?xml version="1.0" encoding="UTF-8" standalone="no"?>
<!DOCTYPE svg PUBLIC "-//W3C//DTD SVG 1.1//EN"
 "http://www.w3.org/Graphics/SVG/1.1/DTD/svg11.dtd">
<!-- Generated by graphviz version 2.40.1 (20161225.0304)
 -->
<!-- Title: InheritanceGraph Pages: 1 -->
<svg width="203pt" height="213pt"
 viewBox="0.00 0.00 203.00 213.00" xmlns="http://www.w3.org/2000/svg" xmlns:xlink="http://www.w3.org/1999/xlink">
<g id="graph0" class="graph" transform="scale(1 1) rotate(0) translate(4 209)">
<title>InheritanceGraph</title>
<g id="clust1" class="cluster">
<title>cluster_builtins</title>
<path fill="transparent" stroke="#bcd2ee" stroke-width="2" stroke-dasharray="5,2" d="M20,-72C20,-72 49,-72 49,-72 55,-72 61,-78 61,-84 61,-84 61,-115 61,-115 61,-121 55,-127 49,-127 49,-127 20,-127 20,-127 14,-127 8,-121 8,-115 8,-115 8,-84 8,-84 8,-78 14,-72 20,-72"/>
<text text-anchor="middle" x="34.5" y="-115" font-family="Arial" font-size="10.00" fill="#000000">builtins</text>
</g>
<g id="clust2" class="cluster">
<title>cluster_uqbar.io</title>
<path fill="transparent" stroke="#bcd2ee" stroke-width="2" stroke-dasharray="5,2" d="M130,-8C130,-8 175,-8 175,-8 181,-8 187,-14 187,-20 187,-20 187,-185 187,-185 187,-191 181,-197 175,-197 175,-197 130,-197 130,-197 124,-197 118,-191 118,-185 118,-185 118,-20 118,-20 118,-14 124,-8 130,-8"/>
<text text-anchor="middle" x="152.5" y="-185" font-family="Arial" font-size="10.00" fill="#000000">uqbar.io</text>
</g>
<!-- builtins.object&#45;&gt;uqbar.io.DirectoryChange.DirectoryChange -->
<g id="edge1" class="edge">
<title>builtins.object&#45;&gt;uqbar.io.DirectoryChange.DirectoryChange</title>
<path fill="none" stroke="#778899" d="M51.9113,-99.591C69.7496,-109.4171 97.9076,-124.9279 119.9002,-137.0425"/>
<polygon fill="#778899" stroke="#778899" points="118.4524,-140.2408 128.9001,-142.0001 121.8298,-134.1095 118.4524,-140.2408"/>
</g>
<!-- builtins.object&#45;&gt;uqbar.io.Profiler.Profiler -->
<g id="edge2" class="edge">
<title>builtins.object&#45;&gt;uqbar.io.Profiler.Profiler</title>
<path fill="none" stroke="#778899" d="M53.1975,-93.486C71.7388,-96.9428 100.452,-102.2961 122.243,-106.3589"/>
<polygon fill="#778899" stroke="#778899" points="121.8373,-109.8435 132.3094,-108.2356 123.1203,-102.962 121.8373,-109.8435"/>
</g>
<!-- builtins.object&#45;&gt;uqbar.io.RedirectedStreams.RedirectedStreams -->
<g id="edge3" class="edge">
<title>builtins.object&#45;&gt;uqbar.io.RedirectedStreams.RedirectedStreams</title>
<path fill="none" stroke="#778899" d="M53.1975,-86.6725C69.9867,-83.6846 95.1163,-79.2124 115.8945,-75.5145"/>
<polygon fill="#778899" stroke="#778899" points="116.76,-78.9156 125.9921,-73.7175 115.5335,-72.0239 116.76,-78.9156"/>
</g>
<!-- builtins.object&#45;&gt;uqbar.io.Timer.Timer -->
<g id="edge4" class="edge">
<title>builtins.object&#45;&gt;uqbar.io.Timer.Timer</title>
<path fill="none" stroke="#778899" d="M52.1658,-80.4186C71.6305,-69.8614 103.1574,-52.7621 125.6757,-40.5488"/>
<polygon fill="#778899" stroke="#778899" points="127.5918,-43.4912 134.7134,-35.6469 124.2544,-37.338 127.5918,-43.4912"/>
</g>
<!-- builtins.object -->
<g id="node1" class="node">
<title>builtins.object</title>
<g id="a_node1"><a xlink:href="https://docs.python.org/3.6/library/functions.html#object" xlink:title="object" target="_top">
<path fill="#fbb4ae" stroke="#fbb4ae" stroke-width="2" d="M46.6667,-99.5C46.6667,-99.5 22.3333,-99.5 22.3333,-99.5 19.1667,-99.5 16,-96.3333 16,-93.1667 16,-93.1667 16,-86.8333 16,-86.8333 16,-83.6667 19.1667,-80.5 22.3333,-80.5 22.3333,-80.5 46.6667,-80.5 46.6667,-80.5 49.8333,-80.5 53,-83.6667 53,-86.8333 53,-86.8333 53,-93.1667 53,-93.1667 53,-96.3333 49.8333,-99.5 46.6667,-99.5"/>
<text text-anchor="middle" x="34.5" y="-87.5" font-family="Arial" font-size="10.00" fill="#000000">object</text>
</a>
</g>
</g>
<!-- uqbar.io.DirectoryChange.DirectoryChange -->
<g id="node2" class="node">
<title>uqbar.io.DirectoryChange.DirectoryChange</title>
<g id="a_node2"><a xlink:href="../api/uqbar/io/DirectoryChange.html#uqbar.io.DirectoryChange.DirectoryChange" xlink:title="Directory\nChange" target="_top">
<path fill="#000000" stroke="#000000" stroke-width="2" d="M166,-170C166,-170 139,-170 139,-170 134,-170 129,-165 129,-160 129,-160 129,-150 129,-150 129,-145 134,-140 139,-140 139,-140 166,-140 166,-140 171,-140 176,-145 176,-150 176,-150 176,-160 176,-160 176,-165 171,-170 166,-170"/>
<text text-anchor="middle" x="152.5" y="-158" font-family="Arial" font-size="10.00" fill="#ffffff">Directory</text>
<text text-anchor="middle" x="152.5" y="-147" font-family="Arial" font-size="10.00" fill="#ffffff">Change</text>
</a>
</g>
</g>
<!-- uqbar.io.Profiler.Profiler -->
<g id="node3" class="node">
<title>uqbar.io.Profiler.Profiler</title>
<g id="a_node3"><a xlink:href="../api/uqbar/io/Profiler.html#uqbar.io.Profiler.Profiler" xlink:title="Profiler" target="_top">
<path fill="#000000" stroke="#000000" stroke-width="2" d="M166.1667,-121.5C166.1667,-121.5 138.8333,-121.5 138.8333,-121.5 135.6667,-121.5 132.5,-118.3333 132.5,-115.1667 132.5,-115.1667 132.5,-108.8333 132.5,-108.8333 132.5,-105.6667 135.6667,-102.5 138.8333,-102.5 138.8333,-102.5 166.1667,-102.5 166.1667,-102.5 169.3333,-102.5 172.5,-105.6667 172.5,-108.8333 172.5,-108.8333 172.5,-115.1667 172.5,-115.1667 172.5,-118.3333 169.3333,-121.5 166.1667,-121.5"/>
<text text-anchor="middle" x="152.5" y="-109.5" font-family="Arial" font-size="10.00" fill="#ffffff">Profiler</text>
</a>
</g>
</g>
<!-- uqbar.io.RedirectedStreams.RedirectedStreams -->
<g id="node4" class="node">
<title>uqbar.io.RedirectedStreams.RedirectedStreams</title>
<g id="a_node4"><a xlink:href="../api/uqbar/io/RedirectedStreams.html#uqbar.io.RedirectedStreams.RedirectedStreams" xlink:title="Redirected\nStreams" target="_top">
<path fill="#000000" stroke="#000000" stroke-width="2" d="M169,-84C169,-84 136,-84 136,-84 131,-84 126,-79 126,-74 126,-74 126,-64 126,-64 126,-59 131,-54 136,-54 136,-54 169,-54 169,-54 174,-54 179,-59 179,-64 179,-64 179,-74 179,-74 179,-79 174,-84 169,-84"/>
<text text-anchor="middle" x="152.5" y="-72" font-family="Arial" font-size="10.00" fill="#ffffff">Redirected</text>
<text text-anchor="middle" x="152.5" y="-61" font-family="Arial" font-size="10.00" fill="#ffffff">Streams</text>
</a>
</g>
</g>
<!-- uqbar.io.Timer.Timer -->
<g id="node5" class="node">
<title>uqbar.io.Timer.Timer</title>
<g id="a_node5"><a xlink:href="../api/uqbar/io/Timer.html#uqbar.io.Timer.Timer" xlink:title="Timer" target="_top">
<path fill="#000000" stroke="#000000" stroke-width="2" d="M164.1667,-35.5C164.1667,-35.5 140.8333,-35.5 140.8333,-35.5 137.6667,-35.5 134.5,-32.3333 134.5,-29.1667 134.5,-29.1667 134.5,-22.8333 134.5,-22.8333 134.5,-19.6667 137.6667,-16.5 140.8333,-16.5 140.8333,-16.5 164.1667,-16.5 164.1667,-16.5 167.3333,-16.5 170.5,-19.6667 170.5,-22.8333 170.5,-22.8333 170.5,-29.1667 170.5,-29.1667 170.5,-32.3333 167.3333,-35.5 164.1667,-35.5"/>
<text text-anchor="middle" x="152.5" y="-23.5" font-family="Arial" font-size="10.00" fill="#ffffff">Timer</text>
</a>
</g>
</g>
</g>
</svg>
