<?xml version="1.0" encoding="UTF-8" standalone="no"?>
<!DOCTYPE svg PUBLIC "-//W3C//DTD SVG 1.1//EN"
 "http://www.w3.org/Graphics/SVG/1.1/DTD/svg11.dtd">
<!-- Generated by graphviz version 2.40.1 (20161225.0304)
 -->
<!-- Title: InheritanceGraph Pages: 1 -->
<svg width="865pt" height="1447pt"
 viewBox="0.00 0.00 865.07 1447.00" xmlns="http://www.w3.org/2000/svg" xmlns:xlink="http://www.w3.org/1999/xlink">
<g id="graph0" class="graph" transform="scale(1 1) rotate(0) translate(4 1443)">
<title>InheritanceGraph</title>
<g id="clust1" class="cluster">
<title>cluster_uqbar.apis.dummy</title>
<path fill="transparent" stroke="#bcd2ee" stroke-width="2" stroke-dasharray="5,2" d="M161.299,-1354C161.299,-1354 292.0599,-1354 292.0599,-1354 298.0599,-1354 304.0599,-1360 304.0599,-1366 304.0599,-1366 304.0599,-1419 304.0599,-1419 304.0599,-1425 298.0599,-1431 292.0599,-1431 292.0599,-1431 161.299,-1431 161.299,-1431 155.299,-1431 149.299,-1425 149.299,-1419 149.299,-1419 149.299,-1366 149.299,-1366 149.299,-1360 155.299,-1354 161.299,-1354"/>
<text text-anchor="middle" x="226.6795" y="-1419" font-family="Arial" font-size="10.00" fill="#000000">uqbar.apis.dummy</text>
</g>
<g id="clust2" class="cluster">
<title>cluster_abc</title>
<path fill="transparent" stroke="#bcd2ee" stroke-width="2" stroke-dasharray="5,2" d="M93,-1140C93,-1140 117,-1140 117,-1140 123,-1140 129,-1146 129,-1152 129,-1152 129,-1183 129,-1183 129,-1189 123,-1195 117,-1195 117,-1195 93,-1195 93,-1195 87,-1195 81,-1189 81,-1183 81,-1183 81,-1152 81,-1152 81,-1146 87,-1140 93,-1140"/>
<text text-anchor="middle" x="105" y="-1183" font-family="Arial" font-size="10.00" fill="#000000">abc</text>
</g>
<g id="clust3" class="cluster">
<title>cluster_builtins</title>
<path fill="transparent" stroke="#bcd2ee" stroke-width="2" stroke-dasharray="5,2" d="M20,-1205C20,-1205 184.799,-1205 184.799,-1205 190.799,-1205 196.799,-1211 196.799,-1217 196.799,-1217 196.799,-1248 196.799,-1248 196.799,-1254 190.799,-1260 184.799,-1260 184.799,-1260 20,-1260 20,-1260 14,-1260 8,-1254 8,-1248 8,-1248 8,-1217 8,-1217 8,-1211 14,-1205 20,-1205"/>
<text text-anchor="middle" x="102.3995" y="-1248" font-family="Arial" font-size="10.00" fill="#000000">builtins</text>
</g>
<g id="clust4" class="cluster">
<title>cluster_code</title>
<path fill="transparent" stroke="#bcd2ee" stroke-width="2" stroke-dasharray="5,2" d="M257.0599,-1063C257.0599,-1063 427.6701,-1063 427.6701,-1063 433.6701,-1063 439.6701,-1069 439.6701,-1075 439.6701,-1075 439.6701,-1116 439.6701,-1116 439.6701,-1122 433.6701,-1128 427.6701,-1128 427.6701,-1128 257.0599,-1128 257.0599,-1128 251.0599,-1128 245.0599,-1122 245.0599,-1116 245.0599,-1116 245.0599,-1075 245.0599,-1075 245.0599,-1069 251.0599,-1063 257.0599,-1063"/>
<text text-anchor="middle" x="342.365" y="-1116" font-family="Arial" font-size="10.00" fill="#000000">code</text>
</g>
<g id="clust5" class="cluster">
<title>cluster_collections.abc</title>
<path fill="transparent" stroke="#bcd2ee" stroke-width="2" stroke-dasharray="5,2" d="M247.9117,-874C247.9117,-874 664.0681,-874 664.0681,-874 670.0681,-874 676.0681,-880 676.0681,-886 676.0681,-886 676.0681,-1013 676.0681,-1013 676.0681,-1019 670.0681,-1025 664.0681,-1025 664.0681,-1025 247.9117,-1025 247.9117,-1025 241.9117,-1025 235.9117,-1019 235.9117,-1013 235.9117,-1013 235.9117,-886 235.9117,-886 235.9117,-880 241.9117,-874 247.9117,-874"/>
<text text-anchor="middle" x="455.9899" y="-1013" font-family="Arial" font-size="10.00" fill="#000000">collections.abc</text>
</g>
<g id="clust6" class="cluster">
<title>cluster_docutils.nodes</title>
<path fill="transparent" stroke="#bcd2ee" stroke-width="2" stroke-dasharray="5,2" d="M163.799,-268C163.799,-268 296.5599,-268 296.5599,-268 302.5599,-268 308.5599,-274 308.5599,-280 308.5599,-280 308.5599,-348 308.5599,-348 308.5599,-354 302.5599,-360 296.5599,-360 296.5599,-360 163.799,-360 163.799,-360 157.799,-360 151.799,-354 151.799,-348 151.799,-348 151.799,-280 151.799,-280 151.799,-274 157.799,-268 163.799,-268"/>
<text text-anchor="middle" x="230.1795" y="-348" font-family="Arial" font-size="10.00" fill="#000000">docutils.nodes</text>
</g>
<g id="clust7" class="cluster">
<title>cluster_docutils.parsers.rst</title>
<path fill="transparent" stroke="#bcd2ee" stroke-width="2" stroke-dasharray="5,2" d="M251.5599,-205C251.5599,-205 306.5599,-205 306.5599,-205 312.5599,-205 318.5599,-211 318.5599,-217 318.5599,-217 318.5599,-248 318.5599,-248 318.5599,-254 312.5599,-260 306.5599,-260 306.5599,-260 251.5599,-260 251.5599,-260 245.5599,-260 239.5599,-254 239.5599,-248 239.5599,-248 239.5599,-217 239.5599,-217 239.5599,-211 245.5599,-205 251.5599,-205"/>
<text text-anchor="middle" x="279.0599" y="-248" font-family="Arial" font-size="10.00" fill="#000000">docutils.parsers.rst</text>
</g>
<g id="clust8" class="cluster">
<title>cluster_enum</title>
<path fill="transparent" stroke="#bcd2ee" stroke-width="2" stroke-dasharray="5,2" d="M162.799,-1268C162.799,-1268 292.5599,-1268 292.5599,-1268 298.5599,-1268 304.5599,-1274 304.5599,-1280 304.5599,-1280 304.5599,-1321 304.5599,-1321 304.5599,-1327 298.5599,-1333 292.5599,-1333 292.5599,-1333 162.799,-1333 162.799,-1333 156.799,-1333 150.799,-1327 150.799,-1321 150.799,-1321 150.799,-1280 150.799,-1280 150.799,-1274 156.799,-1268 162.799,-1268"/>
<text text-anchor="middle" x="227.6795" y="-1321" font-family="Arial" font-size="10.00" fill="#000000">enum</text>
</g>
<g id="clust9" class="cluster">
<title>cluster_uqbar.apis</title>
<path fill="transparent" stroke="#bcd2ee" stroke-width="2" stroke-dasharray="5,2" d="M491.8183,-65C491.8183,-65 760.0681,-65 760.0681,-65 766.0681,-65 772.0681,-71 772.0681,-77 772.0681,-77 772.0681,-408 772.0681,-408 772.0681,-414 766.0681,-420 760.0681,-420 760.0681,-420 491.8183,-420 491.8183,-420 485.8183,-420 479.8183,-414 479.8183,-408 479.8183,-408 479.8183,-77 479.8183,-77 479.8183,-71 485.8183,-65 491.8183,-65"/>
<text text-anchor="middle" x="625.9432" y="-408" font-family="Arial" font-size="10.00" fill="#000000">uqbar.apis</text>
</g>
<g id="clust10" class="cluster">
<title>cluster_uqbar.book</title>
<path fill="transparent" stroke="#bcd2ee" stroke-width="2" stroke-dasharray="5,2" d="M510.1234,-1068C510.1234,-1068 546.1234,-1068 546.1234,-1068 552.1234,-1068 558.1234,-1074 558.1234,-1080 558.1234,-1080 558.1234,-1111 558.1234,-1111 558.1234,-1117 552.1234,-1123 546.1234,-1123 546.1234,-1123 510.1234,-1123 510.1234,-1123 504.1234,-1123 498.1234,-1117 498.1234,-1111 498.1234,-1111 498.1234,-1080 498.1234,-1080 498.1234,-1074 504.1234,-1068 510.1234,-1068"/>
<text text-anchor="middle" x="528.1234" y="-1111" font-family="Arial" font-size="10.00" fill="#000000">uqbar.book</text>
</g>
<g id="clust11" class="cluster">
<title>cluster_uqbar.cli</title>
<path fill="transparent" stroke="#bcd2ee" stroke-width="2" stroke-dasharray="5,2" d="M161,-1136C161,-1136 320.5219,-1136 320.5219,-1136 326.5219,-1136 332.5219,-1142 332.5219,-1148 332.5219,-1148 332.5219,-1185 332.5219,-1185 332.5219,-1191 326.5219,-1197 320.5219,-1197 320.5219,-1197 161,-1197 161,-1197 155,-1197 149,-1191 149,-1185 149,-1185 149,-1148 149,-1148 149,-1142 155,-1136 161,-1136"/>
<text text-anchor="middle" x="240.7609" y="-1185" font-family="Arial" font-size="10.00" fill="#000000">uqbar.cli</text>
</g>
<g id="clust12" class="cluster">
<title>cluster_uqbar.containers</title>
<path fill="transparent" stroke="#bcd2ee" stroke-width="2" stroke-dasharray="5,2" d="M253.0599,-626C253.0599,-626 426.6701,-626 426.6701,-626 432.6701,-626 438.6701,-632 438.6701,-638 438.6701,-638 438.6701,-739 438.6701,-739 438.6701,-745 432.6701,-751 426.6701,-751 426.6701,-751 253.0599,-751 253.0599,-751 247.0599,-751 241.0599,-745 241.0599,-739 241.0599,-739 241.0599,-638 241.0599,-638 241.0599,-632 247.0599,-626 253.0599,-626"/>
<text text-anchor="middle" x="339.865" y="-739" font-family="Arial" font-size="10.00" fill="#000000">uqbar.containers</text>
</g>
<g id="clust13" class="cluster">
<title>cluster_uqbar.enums</title>
<path fill="transparent" stroke="#bcd2ee" stroke-width="2" stroke-dasharray="5,2" d="M380.6701,-1265C380.6701,-1265 431.6701,-1265 431.6701,-1265 437.6701,-1265 443.6701,-1271 443.6701,-1277 443.6701,-1277 443.6701,-1366 443.6701,-1366 443.6701,-1372 437.6701,-1378 431.6701,-1378 431.6701,-1378 380.6701,-1378 380.6701,-1378 374.6701,-1378 368.6701,-1372 368.6701,-1366 368.6701,-1366 368.6701,-1277 368.6701,-1277 368.6701,-1271 374.6701,-1265 380.6701,-1265"/>
<text text-anchor="middle" x="406.1701" y="-1366" font-family="Arial" font-size="10.00" fill="#000000">uqbar.enums</text>
</g>
<g id="clust14" class="cluster">
<title>cluster_uqbar.graphs</title>
<path fill="transparent" stroke="#bcd2ee" stroke-width="2" stroke-dasharray="5,2" d="M712.0681,-496C712.0681,-496 837.0681,-496 837.0681,-496 843.0681,-496 849.0681,-502 849.0681,-508 849.0681,-508 849.0681,-981 849.0681,-981 849.0681,-987 843.0681,-993 837.0681,-993 837.0681,-993 712.0681,-993 712.0681,-993 706.0681,-993 700.0681,-987 700.0681,-981 700.0681,-981 700.0681,-508 700.0681,-508 700.0681,-502 706.0681,-496 712.0681,-496"/>
<text text-anchor="middle" x="774.5681" y="-981" font-family="Arial" font-size="10.00" fill="#000000">uqbar.graphs</text>
</g>
<g id="clust15" class="cluster">
<title>cluster_uqbar.io</title>
<path fill="transparent" stroke="#bcd2ee" stroke-width="2" stroke-dasharray="5,2" d="M256.0599,-8C256.0599,-8 301.0599,-8 301.0599,-8 307.0599,-8 313.0599,-14 313.0599,-20 313.0599,-20 313.0599,-185 313.0599,-185 313.0599,-191 307.0599,-197 301.0599,-197 301.0599,-197 256.0599,-197 256.0599,-197 250.0599,-197 244.0599,-191 244.0599,-185 244.0599,-185 244.0599,-20 244.0599,-20 244.0599,-14 250.0599,-8 256.0599,-8"/>
<text text-anchor="middle" x="278.5599" y="-185" font-family="Arial" font-size="10.00" fill="#000000">uqbar.io</text>
</g>
<g id="clust16" class="cluster">
<title>cluster_uqbar.sphinx.inheritance</title>
<path fill="transparent" stroke="#bcd2ee" stroke-width="2" stroke-dasharray="5,2" d="M369.1701,-215C369.1701,-215 443.1701,-215 443.1701,-215 449.1701,-215 455.1701,-221 455.1701,-227 455.1701,-227 455.1701,-316 455.1701,-316 455.1701,-322 449.1701,-328 443.1701,-328 443.1701,-328 369.1701,-328 369.1701,-328 363.1701,-328 357.1701,-322 357.1701,-316 357.1701,-316 357.1701,-227 357.1701,-227 357.1701,-221 363.1701,-215 369.1701,-215"/>
<text text-anchor="middle" x="406.1701" y="-316" font-family="Arial" font-size="10.00" fill="#000000">uqbar.sphinx.inheritance</text>
</g>
<!-- uqbar.apis.dummy.MyParentClass&#45;&gt;uqbar.apis.dummy.MyChildClass -->
<g id="edge1" class="edge">
<title>uqbar.apis.dummy.MyParentClass&#45;&gt;uqbar.apis.dummy.MyChildClass</title>
<path fill="none" stroke="#778899" d="M196.4195,-1383C211.9159,-1383 233.7285,-1383 250.9816,-1383"/>
<polygon fill="#778899" stroke="#778899" points="251.0377,-1386.5001 261.0376,-1383 251.0376,-1379.5001 251.0377,-1386.5001"/>
</g>
<!-- abc.ABC&#45;&gt;uqbar.cli.CLI.CLI -->
<g id="edge21" class="edge">
<title>abc.ABC&#45;&gt;uqbar.cli.CLI.CLI</title>
<path fill="none" stroke="#778899" d="M121.2923,-1157.7731C128.8224,-1157.6682 138.0128,-1157.5402 146.7317,-1157.4188"/>
<polygon fill="#778899" stroke="#778899" points="147.0393,-1160.9149 156.9895,-1157.2759 146.9417,-1153.9156 147.0393,-1160.9149"/>
</g>
<!-- builtins.int&#45;&gt;enum.IntEnum -->
<g id="edge22" class="edge">
<title>builtins.int&#45;&gt;enum.IntEnum</title>
<path fill="none" stroke="#778899" d="M188.8719,-1231.0675C204.2811,-1241.3645 231.3819,-1259.4741 251.7717,-1273.0992"/>
<polygon fill="#778899" stroke="#778899" points="250.0639,-1276.1676 260.3231,-1278.8135 253.9532,-1270.3474 250.0639,-1276.1676"/>
</g>
<!-- builtins.object&#45;&gt;uqbar.apis.dummy.MyParentClass -->
<g id="edge37" class="edge">
<title>builtins.object&#45;&gt;uqbar.apis.dummy.MyParentClass</title>
<path fill="none" stroke="#778899" d="M42.9753,-1232.5296C63.9462,-1256.1091 118.9175,-1317.9184 151.5116,-1354.5671"/>
<polygon fill="#778899" stroke="#778899" points="149.2376,-1357.2768 158.4985,-1362.4231 154.4682,-1352.6248 149.2376,-1357.2768"/>
</g>
<!-- builtins.object&#45;&gt;abc.ABC -->
<g id="edge23" class="edge">
<title>builtins.object&#45;&gt;abc.ABC</title>
<path fill="none" stroke="#778899" d="M44.9025,-1213.409C55.9408,-1203.2319 73.5929,-1186.9569 86.9163,-1174.6729"/>
<polygon fill="#778899" stroke="#778899" points="89.5752,-1176.982 94.5548,-1167.6303 84.8303,-1171.8356 89.5752,-1176.982"/>
</g>
<!-- builtins.object&#45;&gt;builtins.int -->
<g id="edge2" class="edge">
<title>builtins.object&#45;&gt;builtins.int</title>
<path fill="none" stroke="#778899" d="M53.1031,-1223C79.1739,-1223 126.5119,-1223 154.4577,-1223"/>
<polygon fill="#778899" stroke="#778899" points="154.4663,-1226.5001 164.4663,-1223 154.4662,-1219.5001 154.4663,-1226.5001"/>
</g>
<!-- builtins.object&#45;&gt;code.InteractiveInterpreter -->
<g id="edge24" class="edge">
<title>builtins.object&#45;&gt;code.InteractiveInterpreter</title>
<path fill="none" stroke="#778899" d="M36.8326,-1213.4871C41.7577,-1195.4734 54.9674,-1156.3678 81,-1136 128.3942,-1098.919 200.019,-1089.0399 242.7559,-1086.5853"/>
<polygon fill="#778899" stroke="#778899" points="243.1404,-1090.0713 252.9665,-1086.1092 242.8143,-1083.0789 243.1404,-1090.0713"/>
</g>
<!-- builtins.object&#45;&gt;collections.abc.Container -->
<g id="edge25" class="edge">
<title>builtins.object&#45;&gt;collections.abc.Container</title>
<path fill="none" stroke="#778899" d="M34.8849,-1213.4603C36.7952,-1170.7414 46.5869,-997.403 81,-958 119.3374,-914.1036 188.1926,-900.5317 233.6363,-896.4854"/>
<polygon fill="#778899" stroke="#778899" points="234.1021,-899.96 243.8042,-895.7034 233.5652,-892.9806 234.1021,-899.96"/>
</g>
<!-- builtins.object&#45;&gt;collections.abc.Iterable -->
<g id="edge26" class="edge">
<title>builtins.object&#45;&gt;collections.abc.Iterable</title>
<path fill="none" stroke="#778899" d="M35.4908,-1213.1957C39.2916,-1177.5416 54.0914,-1055.4785 81,-1029 122.9693,-987.7015 194.6394,-981.6159 239.1471,-982.3396"/>
<polygon fill="#778899" stroke="#778899" points="239.2024,-985.8425 249.2985,-982.6303 239.4028,-978.8454 239.2024,-985.8425"/>
</g>
<!-- builtins.object&#45;&gt;collections.abc.Sized -->
<g id="edge27" class="edge">
<title>builtins.object&#45;&gt;collections.abc.Sized</title>
<path fill="none" stroke="#778899" d="M35.1738,-1213.2577C38.0754,-1174.0803 50.7546,-1028.576 81,-996 123.2175,-950.5294 199.3471,-941.0025 243.7631,-939.5628"/>
<polygon fill="#778899" stroke="#778899" points="243.8737,-943.0613 253.8002,-939.3581 243.7309,-936.0628 243.8737,-943.0613"/>
</g>
<!-- builtins.object&#45;&gt;docutils.nodes.Body -->
<g id="edge28" class="edge">
<title>builtins.object&#45;&gt;docutils.nodes.Body</title>
<path fill="none" stroke="#778899" d="M34.7283,-1213.4993C36.9597,-1122.065 55.3505,-400.6799 81,-364 96.6623,-341.6022 127.2017,-331.3612 149.6046,-326.729"/>
<polygon fill="#778899" stroke="#778899" points="150.3311,-330.1544 159.5449,-324.9241 149.0805,-323.267 150.3311,-330.1544"/>
</g>
<!-- builtins.object&#45;&gt;docutils.nodes.Node -->
<g id="edge29" class="edge">
<title>builtins.object&#45;&gt;docutils.nodes.Node</title>
<path fill="none" stroke="#778899" d="M34.7112,-1213.3987C36.8135,-1119.4209 54.4608,-366.3986 81,-328 96.5986,-305.4309 127.1494,-294.8726 149.5725,-290.0089"/>
<polygon fill="#778899" stroke="#778899" points="150.3605,-293.4217 159.5228,-288.1016 149.0427,-286.5468 150.3605,-293.4217"/>
</g>
<!-- builtins.object&#45;&gt;docutils.parsers.rst.Directive -->
<g id="edge30" class="edge">
<title>builtins.object&#45;&gt;docutils.parsers.rst.Directive</title>
<path fill="none" stroke="#778899" d="M34.6848,-1213.3001C36.5607,-1116.7157 52.6781,-330.5595 81,-291 118.6123,-238.4639 199.5297,-226.1157 245.2791,-223.4646"/>
<polygon fill="#778899" stroke="#778899" points="245.463,-226.9599 255.2928,-223.0072 245.1435,-219.9672 245.463,-226.9599"/>
</g>
<!-- builtins.object&#45;&gt;enum.Enum -->
<g id="edge31" class="edge">
<title>builtins.object&#45;&gt;enum.Enum</title>
<path fill="none" stroke="#778899" d="M53.1031,-1231.8898C77.6331,-1243.6119 120.9906,-1264.331 149.3079,-1277.8629"/>
<polygon fill="#778899" stroke="#778899" points="148.1094,-1281.1692 158.6412,-1282.323 151.1276,-1274.8533 148.1094,-1281.1692"/>
</g>
<!-- builtins.object&#45;&gt;uqbar.apis.APIBuilder.APIBuilder -->
<g id="edge32" class="edge">
<title>builtins.object&#45;&gt;uqbar.apis.APIBuilder.APIBuilder</title>
<path fill="none" stroke="#778899" d="M34.5808,-1213.2235C35.311,-1133.9274 41.6893,-597.549 81,-539 107.4362,-499.6261 129.3735,-492 176.799,-492 176.799,-492 176.799,-492 278.5599,-492 357.7748,-492 399.6695,-524.5215 455.1701,-468 521.0114,-400.9475 422.4656,-332.4432 479.8183,-258 483.2214,-253.5829 487.8013,-250.191 492.7904,-247.5869"/>
<polygon fill="#778899" stroke="#778899" points="494.1826,-250.7984 502.0469,-243.6988 491.4718,-244.3446 494.1826,-250.7984"/>
</g>
<!-- builtins.object&#45;&gt;uqbar.apis.InheritanceGraph.InheritanceGraph -->
<g id="edge33" class="edge">
<title>builtins.object&#45;&gt;uqbar.apis.InheritanceGraph.InheritanceGraph</title>
<path fill="none" stroke="#778899" d="M34.821,-1213.401C37.6608,-1129.5355 58.9054,-523.6951 81,-493 107.856,-455.6901 130.8286,-454 176.799,-454 176.799,-454 176.799,-454 278.5599,-454 357.7748,-454 399.6539,-486.5061 455.1701,-430 520.7206,-363.2806 426.5973,-297.9147 479.8183,-221 483.0086,-216.3894 487.3175,-212.5727 492.0545,-209.4297"/>
<polygon fill="#778899" stroke="#778899" points="493.8833,-212.417 500.8943,-204.4737 490.46,-206.3111 493.8833,-212.417"/>
</g>
<!-- builtins.object&#45;&gt;uqbar.apis.MemberDocumenter.MemberDocumenter -->
<g id="edge34" class="edge">
<title>builtins.object&#45;&gt;uqbar.apis.MemberDocumenter.MemberDocumenter</title>
<path fill="none" stroke="#778899" d="M34.7836,-1213.4222C37.3766,-1127.0749 57.4121,-485.2653 81,-453 107.9369,-416.1536 131.1564,-416 176.799,-416 176.799,-416 176.799,-416 278.5599,-416 357.7748,-416 399.8185,-448.6674 455.1701,-392 489.545,-356.8078 453.5491,-213.5939 479.8183,-172 482.2564,-168.1396 485.3902,-164.6949 488.8887,-161.6417"/>
<polygon fill="#778899" stroke="#778899" points="491.0901,-164.3659 497.0018,-155.5737 486.8975,-158.7604 491.0901,-164.3659"/>
</g>
<!-- builtins.object&#45;&gt;uqbar.apis.ModuleDocumenter.ModuleDocumenter -->
<g id="edge35" class="edge">
<title>builtins.object&#45;&gt;uqbar.apis.ModuleDocumenter.ModuleDocumenter</title>
<path fill="none" stroke="#778899" d="M34.7608,-1213.2327C37.1868,-1123.7559 56.2742,-448.9225 81,-415 107.8847,-378.1156 131.1564,-378 176.799,-378 176.799,-378 176.799,-378 278.5599,-378 312.7902,-378 432.9315,-357.6866 455.1701,-332 519.57,-257.6149 423.4038,-192.6095 479.8183,-112 482.6557,-107.9458 486.3799,-104.5427 490.504,-101.6946"/>
<polygon fill="#778899" stroke="#778899" points="492.448,-104.6143 499.3748,-96.5974 488.9604,-98.5449 492.448,-104.6143"/>
</g>
<!-- builtins.object&#45;&gt;uqbar.apis.RootDocumenter.RootDocumenter -->
<g id="edge36" class="edge">
<title>builtins.object&#45;&gt;uqbar.apis.RootDocumenter.RootDocumenter</title>
<path fill="none" stroke="#778899" d="M35.087,-1213.1825C38.6547,-1154.5043 58.0428,-849.6458 81,-759 108.086,-652.0519 66.4743,-530 176.799,-530 176.799,-530 176.799,-530 278.5599,-530 357.7748,-530 399.5063,-562.3607 455.1701,-506 518.1044,-442.2778 428.061,-379.0919 479.8183,-306 482.678,-301.9615 486.4154,-298.5676 490.5462,-295.7243"/>
<polygon fill="#778899" stroke="#778899" points="492.491,-298.6438 499.4228,-290.6313 489.0073,-292.5722 492.491,-298.6438"/>
</g>
<!-- builtins.object&#45;&gt;uqbar.containers.DependencyGraph.DependencyGraph -->
<g id="edge38" class="edge">
<title>builtins.object&#45;&gt;uqbar.containers.DependencyGraph.DependencyGraph</title>
<path fill="none" stroke="#778899" d="M34.8863,-1213.4964C37.1145,-1161.5149 49.3469,-911.4234 81,-842 122.723,-750.4907 153.6066,-736.2504 232.598,-674 235.017,-672.0937 237.6015,-670.2538 240.2652,-668.4961"/>
<polygon fill="#778899" stroke="#778899" points="242.2396,-671.3912 248.9371,-663.1818 238.582,-665.4227 242.2396,-671.3912"/>
</g>
<!-- builtins.object&#45;&gt;uqbar.containers.UniqueTreeNode.UniqueTreeNode -->
<g id="edge39" class="edge">
<title>builtins.object&#45;&gt;uqbar.containers.UniqueTreeNode.UniqueTreeNode</title>
<path fill="none" stroke="#778899" d="M35.2163,-1213.3952C38.7284,-1167.8168 55.0156,-973.3023 81,-919 121.4942,-834.3751 206.3167,-759.4789 250.4802,-724.2847"/>
<polygon fill="#778899" stroke="#778899" points="252.7949,-726.917 258.4897,-717.9828 248.4664,-721.4157 252.7949,-726.917"/>
</g>
<!-- builtins.object&#45;&gt;uqbar.graphs.Edge.Edge -->
<g id="edge40" class="edge">
<title>builtins.object&#45;&gt;uqbar.graphs.Edge.Edge</title>
<path fill="none" stroke="#778899" d="M36.1977,-1213.4232C40.4157,-1191.9313 53.1075,-1139.0796 81,-1105 113.1218,-1065.753 126.0827,-1043 176.799,-1043 176.799,-1043 176.799,-1043 528.1234,-1043 594.1704,-1043 618.0079,-1060.4834 676.0681,-1029 698.4306,-1016.8738 715.1948,-992.125 724.8067,-974.8213"/>
<polygon fill="#778899" stroke="#778899" points="728.075,-976.1256 729.6277,-965.6451 721.8782,-972.8698 728.075,-976.1256"/>
</g>
<!-- builtins.object&#45;&gt;uqbar.io.DirectoryChange.DirectoryChange -->
<g id="edge41" class="edge">
<title>builtins.object&#45;&gt;uqbar.io.DirectoryChange.DirectoryChange</title>
<path fill="none" stroke="#778899" d="M34.6749,-1213.4942C36.5122,-1115.4664 52.7745,-291.4121 81,-249 118.3867,-192.8221 199.0304,-169.3455 244.8851,-160.238"/>
<polygon fill="#778899" stroke="#778899" points="245.7427,-163.6385 254.9305,-158.3626 244.458,-156.7574 245.7427,-163.6385"/>
</g>
<!-- builtins.object&#45;&gt;uqbar.io.Profiler.Profiler -->
<g id="edge42" class="edge">
<title>builtins.object&#45;&gt;uqbar.io.Profiler.Profiler</title>
<path fill="none" stroke="#778899" d="M34.6572,-1213.3452C36.3417,-1111.9803 51.5778,-245.6906 81,-201 118.7264,-143.6958 202.9682,-122.8697 248.301,-115.6305"/>
<polygon fill="#778899" stroke="#778899" points="249.0274,-119.0613 258.4097,-114.1396 248.006,-112.1363 249.0274,-119.0613"/>
</g>
<!-- builtins.object&#45;&gt;uqbar.io.RedirectedStreams.RedirectedStreams -->
<g id="edge43" class="edge">
<title>builtins.object&#45;&gt;uqbar.io.RedirectedStreams.RedirectedStreams</title>
<path fill="none" stroke="#778899" d="M34.6272,-1213.203C36.0227,-1108.457 49.0537,-198.1455 81,-152 117.8145,-98.8225 195.7391,-79.5929 241.959,-72.7275"/>
<polygon fill="#778899" stroke="#778899" points="242.4366,-76.1949 251.8704,-71.3726 241.4884,-69.2594 242.4366,-76.1949"/>
</g>
<!-- builtins.object&#45;&gt;uqbar.io.Timer.Timer -->
<g id="edge44" class="edge">
<title>builtins.object&#45;&gt;uqbar.io.Timer.Timer</title>
<path fill="none" stroke="#778899" d="M34.6065,-1213.4594C35.824,-1107.5828 47.6871,-155.2096 81,-107 119.9364,-50.6523 205.5797,-33.4478 250.227,-28.236"/>
<polygon fill="#778899" stroke="#778899" points="250.8027,-31.6951 260.3856,-27.1763 250.0764,-24.7328 250.8027,-31.6951"/>
</g>
<!-- code.InteractiveConsole&#45;&gt;uqbar.book.Console.Console -->
<g id="edge45" class="edge">
<title>code.InteractiveConsole&#45;&gt;uqbar.book.Console.Console</title>
<path fill="none" stroke="#778899" d="M431.7355,-1086C450.3257,-1086 475.6361,-1086 495.6556,-1086"/>
<polygon fill="#778899" stroke="#778899" points="495.8672,-1089.5001 505.8672,-1086 495.8672,-1082.5001 495.8672,-1089.5001"/>
</g>
<!-- code.InteractiveInterpreter&#45;&gt;code.InteractiveConsole -->
<g id="edge3" class="edge">
<title>code.InteractiveInterpreter&#45;&gt;code.InteractiveConsole</title>
<path fill="none" stroke="#778899" d="M304.077,-1086C322.9925,-1086 349.0321,-1086 370.0785,-1086"/>
<polygon fill="#778899" stroke="#778899" points="370.2598,-1089.5001 380.2598,-1086 370.2598,-1082.5001 370.2598,-1089.5001"/>
</g>
<!-- collections.abc.Collection&#45;&gt;collections.abc.Mapping -->
<g id="edge4" class="edge">
<title>collections.abc.Collection&#45;&gt;collections.abc.Mapping</title>
<path fill="none" stroke="#778899" d="M440.7908,-936.1483C454.8439,-935.8026 471.2097,-935.4001 485.9504,-935.0374"/>
<polygon fill="#778899" stroke="#778899" points="486.4295,-938.5268 496.3403,-934.7818 486.2573,-931.5289 486.4295,-938.5268"/>
</g>
<!-- collections.abc.Mapping&#45;&gt;collections.abc.MutableMapping -->
<g id="edge7" class="edge">
<title>collections.abc.Mapping&#45;&gt;collections.abc.MutableMapping</title>
<path fill="none" stroke="#778899" d="M559.9796,-932.5269C570.6629,-932.0329 582.7465,-931.4741 594.0936,-930.9494"/>
<polygon fill="#778899" stroke="#778899" points="594.4185,-934.4382 604.2461,-930.4799 594.0951,-927.4456 594.4185,-934.4382"/>
</g>
<!-- collections.abc.Container&#45;&gt;collections.abc.Collection -->
<g id="edge5" class="edge">
<title>collections.abc.Container&#45;&gt;collections.abc.Collection</title>
<path fill="none" stroke="#778899" d="M305.0008,-903.7024C323.6966,-909.8557 349.0006,-918.1839 369.6248,-924.9719"/>
<polygon fill="#778899" stroke="#778899" points="368.731,-928.3624 379.324,-928.1642 370.9195,-921.7133 368.731,-928.3624"/>
</g>
<!-- collections.abc.Iterable&#45;&gt;collections.abc.Collection -->
<g id="edge6" class="edge">
<title>collections.abc.Iterable&#45;&gt;collections.abc.Collection</title>
<path fill="none" stroke="#778899" d="M301.6692,-976.3076C321.1895,-968.9651 349.4317,-958.3419 371.6359,-949.9899"/>
<polygon fill="#778899" stroke="#778899" points="372.9213,-953.2459 381.0489,-946.4492 370.4569,-946.694 372.9213,-953.2459"/>
</g>
<!-- collections.abc.MutableMapping&#45;&gt;uqbar.graphs.Attributes.Attributes -->
<g id="edge46" class="edge">
<title>collections.abc.MutableMapping&#45;&gt;uqbar.graphs.Attributes.Attributes</title>
<path fill="none" stroke="#778899" d="M667.7375,-925.7809C677.9583,-924.736 689.3466,-923.5718 699.7621,-922.5071"/>
<polygon fill="#778899" stroke="#778899" points="700.1819,-925.9825 709.774,-921.4836 699.4699,-919.0188 700.1819,-925.9825"/>
</g>
<!-- collections.abc.Sized&#45;&gt;collections.abc.Collection -->
<g id="edge8" class="edge">
<title>collections.abc.Sized&#45;&gt;collections.abc.Collection</title>
<path fill="none" stroke="#778899" d="M303.4674,-939.4144C319.8219,-939.03 341.6898,-938.5159 361.0434,-938.0609"/>
<polygon fill="#778899" stroke="#778899" points="361.273,-941.5566 371.188,-937.8224 361.1085,-934.5585 361.273,-941.5566"/>
</g>
<!-- docutils.nodes.Body&#45;&gt;docutils.nodes.General -->
<g id="edge9" class="edge">
<title>docutils.nodes.Body&#45;&gt;docutils.nodes.General</title>
<path fill="none" stroke="#778899" d="M194.0613,-323C208.4307,-323 229.275,-323 246.6651,-323"/>
<polygon fill="#778899" stroke="#778899" points="246.9577,-326.5001 256.9576,-323 246.9576,-319.5001 246.9577,-326.5001"/>
</g>
<!-- docutils.nodes.General&#45;&gt;uqbar.sphinx.inheritance.inheritance_diagram -->
<g id="edge48" class="edge">
<title>docutils.nodes.General&#45;&gt;uqbar.sphinx.inheritance.inheritance_diagram</title>
<path fill="none" stroke="#778899" d="M300.2072,-316.7235C319.2,-311.2166 347.2133,-303.0942 369.6672,-296.5839"/>
<polygon fill="#778899" stroke="#778899" points="370.9105,-299.8676 379.5402,-293.7212 368.9611,-293.1445 370.9105,-299.8676"/>
</g>
<!-- docutils.nodes.Element&#45;&gt;uqbar.sphinx.inheritance.inheritance_diagram -->
<g id="edge47" class="edge">
<title>docutils.nodes.Element&#45;&gt;uqbar.sphinx.inheritance.inheritance_diagram</title>
<path fill="none" stroke="#778899" d="M300.7879,-286C319.6515,-286 347.1026,-286 369.2584,-286"/>
<polygon fill="#778899" stroke="#778899" points="369.3313,-289.5001 379.3313,-286 369.3313,-282.5001 369.3313,-289.5001"/>
</g>
<!-- docutils.nodes.Node&#45;&gt;docutils.nodes.Element -->
<g id="edge10" class="edge">
<title>docutils.nodes.Node&#45;&gt;docutils.nodes.Element</title>
<path fill="none" stroke="#778899" d="M194.0613,-286C208.2429,-286 228.7312,-286 245.9813,-286"/>
<polygon fill="#778899" stroke="#778899" points="246.2183,-289.5001 256.2182,-286 246.2182,-282.5001 246.2183,-289.5001"/>
</g>
<!-- docutils.parsers.rst.Directive&#45;&gt;uqbar.sphinx.inheritance.InheritanceDiagram -->
<g id="edge49" class="edge">
<title>docutils.parsers.rst.Directive&#45;&gt;uqbar.sphinx.inheritance.InheritanceDiagram</title>
<path fill="none" stroke="#778899" d="M301.6692,-225.7164C320.3097,-227.9075 346.9035,-231.0335 368.598,-233.5836"/>
<polygon fill="#778899" stroke="#778899" points="368.4579,-237.0911 378.7982,-234.7826 369.2752,-230.139 368.4579,-237.0911"/>
</g>
<!-- enum.Enum&#45;&gt;enum.IntEnum -->
<g id="edge11" class="edge">
<title>enum.Enum&#45;&gt;enum.IntEnum</title>
<path fill="none" stroke="#778899" d="M194.9918,-1291C210.3307,-1291 232.543,-1291 250.2122,-1291"/>
<polygon fill="#778899" stroke="#778899" points="250.5246,-1294.5001 260.5246,-1291 250.5246,-1287.5001 250.5246,-1294.5001"/>
</g>
<!-- enum.Enum&#45;&gt;uqbar.enums.StrictEnumeration -->
<g id="edge50" class="edge">
<title>enum.Enum&#45;&gt;uqbar.enums.StrictEnumeration</title>
<path fill="none" stroke="#778899" d="M194.9238,-1300.3652C205.6153,-1305.4869 219.5651,-1311.4869 232.598,-1315 277.5447,-1327.1157 330.9311,-1332.2517 366.5147,-1334.4225"/>
<polygon fill="#778899" stroke="#778899" points="366.3264,-1337.9173 376.5067,-1334.9825 366.7182,-1330.9283 366.3264,-1337.9173"/>
</g>
<!-- enum.IntEnum&#45;&gt;uqbar.enums.IntEnumeration -->
<g id="edge51" class="edge">
<title>enum.IntEnum&#45;&gt;uqbar.enums.IntEnumeration</title>
<path fill="none" stroke="#778899" d="M296.5727,-1290.5765C314.5653,-1290.1535 342.8261,-1289.4892 366.143,-1288.941"/>
<polygon fill="#778899" stroke="#778899" points="366.5388,-1292.4328 376.4537,-1288.6986 366.3742,-1285.4347 366.5388,-1292.4328"/>
</g>
<!-- uqbar.apis.ClassDocumenter.ClassDocumenter&#45;&gt;uqbar.apis.SummarizingClassDocumenter.SummarizingClassDocumenter -->
<g id="edge12" class="edge">
<title>uqbar.apis.ClassDocumenter.ClassDocumenter&#45;&gt;uqbar.apis.SummarizingClassDocumenter.SummarizingClassDocumenter</title>
<path fill="none" stroke="#778899" d="M664.8048,-178.4596C673.8329,-178.9211 683.987,-179.4401 693.6803,-179.9356"/>
<polygon fill="#778899" stroke="#778899" points="693.777,-183.445 703.9427,-180.4602 694.1344,-176.4541 693.777,-183.445"/>
</g>
<!-- uqbar.apis.MemberDocumenter.MemberDocumenter&#45;&gt;uqbar.apis.ClassDocumenter.ClassDocumenter -->
<g id="edge13" class="edge">
<title>uqbar.apis.MemberDocumenter.MemberDocumenter&#45;&gt;uqbar.apis.ClassDocumenter.ClassDocumenter</title>
<path fill="none" stroke="#778899" d="M562.6321,-153.1704C573.8176,-156.7912 586.2937,-160.8297 597.7505,-164.5383"/>
<polygon fill="#778899" stroke="#778899" points="596.9061,-167.9437 607.498,-167.6935 599.0619,-161.2839 596.9061,-167.9437"/>
</g>
<!-- uqbar.apis.MemberDocumenter.MemberDocumenter&#45;&gt;uqbar.apis.FunctionDocumenter.FunctionDocumenter -->
<g id="edge14" class="edge">
<title>uqbar.apis.MemberDocumenter.MemberDocumenter&#45;&gt;uqbar.apis.FunctionDocumenter.FunctionDocumenter</title>
<path fill="none" stroke="#778899" d="M568.3205,-139.2674C605.0772,-136.7687 659.0905,-133.0969 695.3687,-130.6308"/>
<polygon fill="#778899" stroke="#778899" points="695.8204,-134.1082 705.56,-129.938 695.3456,-127.1243 695.8204,-134.1082"/>
</g>
<!-- uqbar.apis.ModuleDocumenter.ModuleDocumenter&#45;&gt;uqbar.apis.SummarizingModuleDocumenter.SummarizingModuleDocumenter -->
<g id="edge15" class="edge">
<title>uqbar.apis.ModuleDocumenter.ModuleDocumenter&#45;&gt;uqbar.apis.SummarizingModuleDocumenter.SummarizingModuleDocumenter</title>
<path fill="none" stroke="#778899" d="M556.815,-89.5921C568.7617,-90.2551 582.8461,-91.0366 595.8119,-91.7561"/>
<polygon fill="#778899" stroke="#778899" points="595.7295,-95.2569 605.9081,-92.3164 596.1175,-88.2676 595.7295,-95.2569"/>
</g>
<!-- uqbar.apis.RootDocumenter.RootDocumenter&#45;&gt;uqbar.apis.SummarizingRootDocumenter.SummarizingRootDocumenter -->
<g id="edge16" class="edge">
<title>uqbar.apis.RootDocumenter.RootDocumenter&#45;&gt;uqbar.apis.SummarizingRootDocumenter.SummarizingRootDocumenter</title>
<path fill="none" stroke="#778899" d="M556.815,-282C568.7617,-282 582.8461,-282 595.8119,-282"/>
<polygon fill="#778899" stroke="#778899" points="595.9082,-285.5001 605.9081,-282 595.9081,-278.5001 595.9082,-285.5001"/>
</g>
<!-- uqbar.cli.CLI.CLI&#45;&gt;uqbar.cli.CLIAggregator.CLIAggregator -->
<g id="edge17" class="edge">
<title>uqbar.cli.CLI.CLI&#45;&gt;uqbar.cli.CLIAggregator.CLIAggregator</title>
<path fill="none" stroke="#778899" d="M196.9037,-1157C204.3105,-1157 213.1111,-1157 222.1472,-1157"/>
<polygon fill="#778899" stroke="#778899" points="222.3876,-1160.5001 232.3876,-1157 222.3876,-1153.5001 222.3876,-1160.5001"/>
</g>
<!-- uqbar.containers.UniqueTreeContainer.UniqueTreeContainer&#45;&gt;uqbar.apis.PackageNode.PackageNode -->
<g id="edge52" class="edge">
<title>uqbar.containers.UniqueTreeContainer.UniqueTreeContainer&#45;&gt;uqbar.apis.PackageNode.PackageNode</title>
<path fill="none" stroke="#778899" d="M423.3241,-634.2283C434.0141,-620.2661 447.205,-601.0047 455.1701,-582 476.2156,-531.7851 460.5244,-512.9136 479.8183,-462 488.017,-440.3649 501.3482,-417.732 511.931,-401.4177"/>
<polygon fill="#778899" stroke="#778899" points="514.8694,-403.3196 517.4774,-393.0507 509.0349,-399.4519 514.8694,-403.3196"/>
</g>
<!-- uqbar.containers.UniqueTreeContainer.UniqueTreeContainer&#45;&gt;uqbar.graphs.TableCell.TableCell -->
<g id="edge57" class="edge">
<title>uqbar.containers.UniqueTreeContainer.UniqueTreeContainer&#45;&gt;uqbar.graphs.TableCell.TableCell</title>
<path fill="none" stroke="#778899" d="M430.6904,-641.5601C439.3559,-635.841 448.5759,-628.5126 455.1701,-620 473.8365,-595.9031 457.2409,-576.4782 479.8183,-556 578.1007,-466.8558 672.0963,-407.7547 772.0681,-495 806.7099,-525.2319 792.466,-654.6543 800.0681,-700 804.5349,-726.6439 810.6986,-756.9505 815.0984,-777.7541"/>
<polygon fill="#778899" stroke="#778899" points="811.7102,-778.6477 817.2202,-787.6971 818.5561,-777.1868 811.7102,-778.6477"/>
</g>
<!-- uqbar.containers.UniqueTreeContainer.UniqueTreeContainer&#45;&gt;uqbar.graphs.Graph.Graph -->
<g id="edge53" class="edge">
<title>uqbar.containers.UniqueTreeContainer.UniqueTreeContainer&#45;&gt;uqbar.graphs.Graph.Graph</title>
<path fill="none" stroke="#778899" d="M430.8157,-657.2549C490.3713,-662.7037 641.8699,-676.5646 705.3725,-682.3746"/>
<polygon fill="#778899" stroke="#778899" points="705.1979,-685.8731 715.4753,-683.2989 705.8358,-678.9023 705.1979,-685.8731"/>
</g>
<!-- uqbar.containers.UniqueTreeContainer.UniqueTreeContainer&#45;&gt;uqbar.graphs.Node.Node -->
<g id="edge54" class="edge">
<title>uqbar.containers.UniqueTreeContainer.UniqueTreeContainer&#45;&gt;uqbar.graphs.Node.Node</title>
<path fill="none" stroke="#778899" d="M430.7142,-653.8467C445.0329,-653.2122 463.445,-652.4622 479.8183,-652 562.342,-649.6704 659.9738,-648.6098 706.6038,-648.2074"/>
<polygon fill="#778899" stroke="#778899" points="706.8305,-651.7057 716.8011,-648.123 706.7724,-644.706 706.8305,-651.7057"/>
</g>
<!-- uqbar.containers.UniqueTreeContainer.UniqueTreeContainer&#45;&gt;uqbar.graphs.RecordGroup.RecordGroup -->
<g id="edge55" class="edge">
<title>uqbar.containers.UniqueTreeContainer.UniqueTreeContainer&#45;&gt;uqbar.graphs.RecordGroup.RecordGroup</title>
<path fill="none" stroke="#778899" d="M430.8157,-651.2419C489.7889,-642.2493 638.9158,-619.5094 703.4845,-609.6636"/>
<polygon fill="#778899" stroke="#778899" points="704.0937,-613.1112 713.4518,-608.1437 703.0385,-606.1912 704.0937,-613.1112"/>
</g>
<!-- uqbar.containers.UniqueTreeContainer.UniqueTreeContainer&#45;&gt;uqbar.graphs.Table.Table -->
<g id="edge56" class="edge">
<title>uqbar.containers.UniqueTreeContainer.UniqueTreeContainer&#45;&gt;uqbar.graphs.Table.Table</title>
<path fill="none" stroke="#778899" d="M430.81,-644.8326C445.0023,-639.1787 463.2572,-632.2466 479.8183,-627 561.0109,-601.2779 659.1998,-578.4616 706.2679,-568.0232"/>
<polygon fill="#778899" stroke="#778899" points="707.2907,-571.382 716.3043,-565.8137 705.7856,-564.5457 707.2907,-571.382"/>
</g>
<!-- uqbar.containers.UniqueTreeContainer.UniqueTreeContainer&#45;&gt;uqbar.graphs.TableRow.TableRow -->
<g id="edge58" class="edge">
<title>uqbar.containers.UniqueTreeContainer.UniqueTreeContainer&#45;&gt;uqbar.graphs.TableRow.TableRow</title>
<path fill="none" stroke="#778899" d="M430.7307,-638.2415C438.6656,-632.6209 447.4132,-626.2021 455.1701,-620 466.6387,-610.8303 467.039,-605.2319 479.8183,-598 555.7383,-555.0363 657.9004,-532.4842 706.3513,-523.5984"/>
<polygon fill="#778899" stroke="#778899" points="707.1552,-527.0104 716.388,-521.8139 705.9297,-520.1185 707.1552,-527.0104"/>
</g>
<!-- uqbar.containers.UniqueTreeNode.UniqueTreeNode&#45;&gt;uqbar.apis.ModuleNode.ModuleNode -->
<g id="edge59" class="edge">
<title>uqbar.containers.UniqueTreeNode.UniqueTreeNode&#45;&gt;uqbar.apis.ModuleNode.ModuleNode</title>
<path fill="none" stroke="#778899" d="M298.8101,-696.1179C310.1996,-691.2906 323.8338,-683.757 332.5219,-673 356.1656,-643.7258 332.774,-620.6503 357.1701,-592 388.6131,-555.0739 426.9044,-583.4112 455.1701,-544 504.7971,-474.8044 430.3876,-423.3359 479.8183,-354 484.303,-347.7094 490.9139,-342.9807 497.8149,-339.4606"/>
<polygon fill="#778899" stroke="#778899" points="499.4507,-342.5662 507.2326,-335.3764 496.6656,-336.1441 499.4507,-342.5662"/>
</g>
<!-- uqbar.containers.UniqueTreeNode.UniqueTreeNode&#45;&gt;uqbar.containers.UniqueTreeContainer.UniqueTreeContainer -->
<g id="edge18" class="edge">
<title>uqbar.containers.UniqueTreeNode.UniqueTreeNode&#45;&gt;uqbar.containers.UniqueTreeContainer.UniqueTreeContainer</title>
<path fill="none" stroke="#778899" d="M298.7801,-695.3943C318.3351,-688.0387 348.3527,-676.7478 371.6854,-667.9713"/>
<polygon fill="#778899" stroke="#778899" points="373.0983,-671.1793 381.2259,-664.3827 370.6339,-664.6274 373.0983,-671.1793"/>
</g>
<!-- uqbar.containers.UniqueTreeNode.UniqueTreeNode&#45;&gt;uqbar.graphs.Attachable.Attachable -->
<g id="edge60" class="edge">
<title>uqbar.containers.UniqueTreeNode.UniqueTreeNode&#45;&gt;uqbar.graphs.Attachable.Attachable</title>
<path fill="none" stroke="#778899" d="M290.2809,-723.7675C303.6874,-745.6581 327.6452,-779.6004 357.1701,-799 478.5215,-878.7351 533.5535,-842.1894 676.0681,-870 683.0523,-871.3629 690.4989,-872.8659 697.6475,-874.3336"/>
<polygon fill="#778899" stroke="#778899" points="697.3175,-877.8394 707.8192,-876.4383 698.7359,-870.9846 697.3175,-877.8394"/>
</g>
<!-- uqbar.containers.UniqueTreeNode.UniqueTreeNode&#45;&gt;uqbar.graphs.RecordField.RecordField -->
<g id="edge63" class="edge">
<title>uqbar.containers.UniqueTreeNode.UniqueTreeNode&#45;&gt;uqbar.graphs.RecordField.RecordField</title>
<path fill="none" stroke="#778899" d="M298.6145,-695.2457C309.6594,-690.2019 323.0142,-682.7425 332.5219,-673 348.9958,-656.1192 339.9906,-642.1623 357.1701,-626 391.9441,-593.2849 424.5441,-618.6272 455.1701,-582 484.256,-547.2147 447.7529,-515.0595 479.8183,-483 520.1769,-442.6489 547.7817,-458.9404 604.4285,-452 678.382,-442.9392 714.077,-405.2213 772.0681,-452 802.7163,-476.7225 814.9644,-597.1098 818.9443,-650.4613"/>
<polygon fill="#778899" stroke="#778899" points="815.4764,-651.0411 819.6717,-660.7699 822.4591,-650.5483 815.4764,-651.0411"/>
</g>
<!-- uqbar.containers.UniqueTreeNode.UniqueTreeNode&#45;&gt;uqbar.graphs.HRule.HRule -->
<g id="edge61" class="edge">
<title>uqbar.containers.UniqueTreeNode.UniqueTreeNode&#45;&gt;uqbar.graphs.HRule.HRule</title>
<path fill="none" stroke="#778899" d="M297.9471,-723.7332C312.7802,-738.3357 334.4858,-757.1479 357.1701,-768 477.6222,-825.6241 639.8179,-840.2063 705.0852,-843.8296"/>
<polygon fill="#778899" stroke="#778899" points="705.2477,-847.3423 715.4126,-844.3547 705.6032,-840.3514 705.2477,-847.3423"/>
</g>
<!-- uqbar.containers.UniqueTreeNode.UniqueTreeNode&#45;&gt;uqbar.graphs.LineBreak.LineBreak -->
<g id="edge62" class="edge">
<title>uqbar.containers.UniqueTreeNode.UniqueTreeNode&#45;&gt;uqbar.graphs.LineBreak.LineBreak</title>
<path fill="none" stroke="#778899" d="M298.8572,-715.2129C314.3209,-723.9784 336.4174,-735.3706 357.1701,-742 483.3591,-782.311 642.3308,-796.2538 705.9107,-800.4274"/>
<polygon fill="#778899" stroke="#778899" points="705.7635,-803.925 715.9627,-801.0569 706.201,-796.9387 705.7635,-803.925"/>
</g>
<!-- uqbar.containers.UniqueTreeNode.UniqueTreeNode&#45;&gt;uqbar.graphs.Text.Text -->
<g id="edge64" class="edge">
<title>uqbar.containers.UniqueTreeNode.UniqueTreeNode&#45;&gt;uqbar.graphs.Text.Text</title>
<path fill="none" stroke="#778899" d="M298.7588,-708.7042C314.5429,-712.961 337.0962,-718.6057 357.1701,-722 488.0784,-744.135 646.9722,-754.3714 708.251,-757.7079"/>
<polygon fill="#778899" stroke="#778899" points="708.3573,-761.2183 718.5283,-758.2519 708.7274,-754.2281 708.3573,-761.2183"/>
</g>
<!-- uqbar.containers.UniqueTreeNode.UniqueTreeNode&#45;&gt;uqbar.graphs.VRule.VRule -->
<g id="edge65" class="edge">
<title>uqbar.containers.UniqueTreeNode.UniqueTreeNode&#45;&gt;uqbar.graphs.VRule.VRule</title>
<path fill="none" stroke="#778899" d="M298.7203,-703.8409C371.3708,-706.8713 619.9568,-717.2402 705.1486,-720.7937"/>
<polygon fill="#778899" stroke="#778899" points="705.0191,-724.2913 715.1563,-721.2112 705.3109,-717.2973 705.0191,-724.2913"/>
</g>
<!-- uqbar.graphs.Attachable.Attachable&#45;&gt;uqbar.graphs.RecordField.RecordField -->
<g id="edge19" class="edge">
<title>uqbar.graphs.Attachable.Attachable&#45;&gt;uqbar.graphs.RecordField.RecordField</title>
<path fill="none" stroke="#778899" d="M760.334,-873.3272C764.7436,-870.8909 768.9067,-867.827 772.0681,-864 782.5213,-851.3462 805.1425,-749.1241 815.3656,-700.9487"/>
<polygon fill="#778899" stroke="#778899" points="818.8232,-701.5147 817.4618,-691.0077 811.9738,-700.0704 818.8232,-701.5147"/>
</g>
<!-- uqbar.graphs.Attachable.Attachable&#45;&gt;uqbar.graphs.TableCell.TableCell -->
<g id="edge20" class="edge">
<title>uqbar.graphs.Attachable.Attachable&#45;&gt;uqbar.graphs.TableCell.TableCell</title>
<path fill="none" stroke="#778899" d="M758.7588,-872.3314C763.41,-869.9611 768.0651,-867.1761 772.0681,-864 785.2024,-853.579 796.9855,-838.9532 805.648,-826.6354"/>
<polygon fill="#778899" stroke="#778899" points="808.6728,-828.4106 811.3787,-818.1671 802.8755,-824.4873 808.6728,-828.4106"/>
</g>
<!-- uqbar.apis.dummy.MyChildClass -->
<g id="node1" class="node">
<title>uqbar.apis.dummy.MyChildClass</title>
<g id="a_node1"><a xlink:href="../api/uqbar/apis/dummy.html#uqbar.apis.dummy.MyChildClass" xlink:title="My\nChild\nClass" target="_top">
<path fill="#f2f2f2" stroke="#f2f2f2" stroke-width="2" d="M284.3933,-1403.5C284.3933,-1403.5 272.7266,-1403.5 272.7266,-1403.5 266.8933,-1403.5 261.0599,-1397.6667 261.0599,-1391.8333 261.0599,-1391.8333 261.0599,-1374.1667 261.0599,-1374.1667 261.0599,-1368.3333 266.8933,-1362.5 272.7266,-1362.5 272.7266,-1362.5 284.3933,-1362.5 284.3933,-1362.5 290.2266,-1362.5 296.0599,-1368.3333 296.0599,-1374.1667 296.0599,-1374.1667 296.0599,-1391.8333 296.0599,-1391.8333 296.0599,-1397.6667 290.2266,-1403.5 284.3933,-1403.5"/>
<text text-anchor="middle" x="278.5599" y="-1391.5" font-family="Arial" font-size="10.00" fill="#000000">My</text>
<text text-anchor="middle" x="278.5599" y="-1380.5" font-family="Arial" font-size="10.00" fill="#000000">Child</text>
<text text-anchor="middle" x="278.5599" y="-1369.5" font-family="Arial" font-size="10.00" fill="#000000">Class</text>
</a>
</g>
</g>
<!-- uqbar.apis.dummy.MyParentClass -->
<g id="node2" class="node">
<title>uqbar.apis.dummy.MyParentClass</title>
<g id="a_node2"><a xlink:href="../api/uqbar/apis/dummy.html#uqbar.apis.dummy.MyParentClass" xlink:title="My\nParent\nClass" target="_top">
<path fill="#f2f2f2" stroke="#f2f2f2" stroke-width="2" d="M184.299,-1403.5C184.299,-1403.5 169.299,-1403.5 169.299,-1403.5 163.299,-1403.5 157.299,-1397.5 157.299,-1391.5 157.299,-1391.5 157.299,-1374.5 157.299,-1374.5 157.299,-1368.5 163.299,-1362.5 169.299,-1362.5 169.299,-1362.5 184.299,-1362.5 184.299,-1362.5 190.299,-1362.5 196.299,-1368.5 196.299,-1374.5 196.299,-1374.5 196.299,-1391.5 196.299,-1391.5 196.299,-1397.5 190.299,-1403.5 184.299,-1403.5"/>
<text text-anchor="middle" x="176.799" y="-1391.5" font-family="Arial" font-size="10.00" fill="#000000">My</text>
<text text-anchor="middle" x="176.799" y="-1380.5" font-family="Arial" font-size="10.00" fill="#000000">Parent</text>
<text text-anchor="middle" x="176.799" y="-1369.5" font-family="Arial" font-size="10.00" fill="#000000">Class</text>
</a>
</g>
</g>
<!-- abc.ABC -->
<g id="node3" class="node">
<title>abc.ABC</title>
<g id="a_node3"><a xlink:href="https://docs.python.org/3.6/library/abc.html#abc.ABC" xlink:title="ABC" target="_top">
<path fill="#fbb4ae" stroke="#fbb4ae" stroke-width="2" d="M114.6667,-1167.5C114.6667,-1167.5 95.3333,-1167.5 95.3333,-1167.5 92.1667,-1167.5 89,-1164.3333 89,-1161.1667 89,-1161.1667 89,-1154.8333 89,-1154.8333 89,-1151.6667 92.1667,-1148.5 95.3333,-1148.5 95.3333,-1148.5 114.6667,-1148.5 114.6667,-1148.5 117.8333,-1148.5 121,-1151.6667 121,-1154.8333 121,-1154.8333 121,-1161.1667 121,-1161.1667 121,-1164.3333 117.8333,-1167.5 114.6667,-1167.5"/>
<text text-anchor="middle" x="105" y="-1155.5" font-family="Arial" font-size="10.00" fill="#000000">ABC</text>
</a>
</g>
</g>
<!-- builtins.int -->
<g id="node4" class="node">
<title>builtins.int</title>
<g id="a_node4"><a xlink:href="https://docs.python.org/3.6/library/functions.html#int" xlink:title="int" target="_top">
<path fill="#b3cde3" stroke="#b3cde3" stroke-width="2" d="M182.4657,-1232.5C182.4657,-1232.5 171.1323,-1232.5 171.1323,-1232.5 167.9657,-1232.5 164.799,-1229.3333 164.799,-1226.1667 164.799,-1226.1667 164.799,-1219.8333 164.799,-1219.8333 164.799,-1216.6667 167.9657,-1213.5 171.1323,-1213.5 171.1323,-1213.5 182.4657,-1213.5 182.4657,-1213.5 185.6323,-1213.5 188.799,-1216.6667 188.799,-1219.8333 188.799,-1219.8333 188.799,-1226.1667 188.799,-1226.1667 188.799,-1229.3333 185.6323,-1232.5 182.4657,-1232.5"/>
<text text-anchor="middle" x="176.799" y="-1220.5" font-family="Arial" font-size="10.00" fill="#000000">int</text>
</a>
</g>
</g>
<!-- builtins.object -->
<g id="node5" class="node">
<title>builtins.object</title>
<g id="a_node5"><a xlink:href="https://docs.python.org/3.6/library/functions.html#object" xlink:title="object" target="_top">
<path fill="#b3cde3" stroke="#b3cde3" stroke-width="2" d="M46.6667,-1232.5C46.6667,-1232.5 22.3333,-1232.5 22.3333,-1232.5 19.1667,-1232.5 16,-1229.3333 16,-1226.1667 16,-1226.1667 16,-1219.8333 16,-1219.8333 16,-1216.6667 19.1667,-1213.5 22.3333,-1213.5 22.3333,-1213.5 46.6667,-1213.5 46.6667,-1213.5 49.8333,-1213.5 53,-1216.6667 53,-1219.8333 53,-1219.8333 53,-1226.1667 53,-1226.1667 53,-1229.3333 49.8333,-1232.5 46.6667,-1232.5"/>
<text text-anchor="middle" x="34.5" y="-1220.5" font-family="Arial" font-size="10.00" fill="#000000">object</text>
</a>
</g>
</g>
<!-- code.InteractiveConsole -->
<g id="node6" class="node">
<title>code.InteractiveConsole</title>
<g id="a_node6"><a xlink:href="https://docs.python.org/3.6/library/code.html#code.InteractiveConsole" xlink:title="Interactive\nConsole" target="_top">
<path fill="#ccebc5" stroke="#ccebc5" stroke-width="2" d="M421.6701,-1101C421.6701,-1101 390.6701,-1101 390.6701,-1101 385.6701,-1101 380.6701,-1096 380.6701,-1091 380.6701,-1091 380.6701,-1081 380.6701,-1081 380.6701,-1076 385.6701,-1071 390.6701,-1071 390.6701,-1071 421.6701,-1071 421.6701,-1071 426.6701,-1071 431.6701,-1076 431.6701,-1081 431.6701,-1081 431.6701,-1091 431.6701,-1091 431.6701,-1096 426.6701,-1101 421.6701,-1101"/>
<text text-anchor="middle" x="406.1701" y="-1089" font-family="Arial" font-size="10.00" fill="#000000">Interactive</text>
<text text-anchor="middle" x="406.1701" y="-1078" font-family="Arial" font-size="10.00" fill="#000000">Console</text>
</a>
</g>
</g>
<!-- code.InteractiveInterpreter -->
<g id="node7" class="node">
<title>code.InteractiveInterpreter</title>
<g id="a_node7"><a xlink:href="https://docs.python.org/3.6/library/code.html#code.InteractiveInterpreter" xlink:title="Interactive\nInterpreter" target="_top">
<path fill="#ccebc5" stroke="#ccebc5" stroke-width="2" d="M294.0599,-1101C294.0599,-1101 263.0599,-1101 263.0599,-1101 258.0599,-1101 253.0599,-1096 253.0599,-1091 253.0599,-1091 253.0599,-1081 253.0599,-1081 253.0599,-1076 258.0599,-1071 263.0599,-1071 263.0599,-1071 294.0599,-1071 294.0599,-1071 299.0599,-1071 304.0599,-1076 304.0599,-1081 304.0599,-1081 304.0599,-1091 304.0599,-1091 304.0599,-1096 299.0599,-1101 294.0599,-1101"/>
<text text-anchor="middle" x="278.5599" y="-1089" font-family="Arial" font-size="10.00" fill="#000000">Interactive</text>
<text text-anchor="middle" x="278.5599" y="-1078" font-family="Arial" font-size="10.00" fill="#000000">Interpreter</text>
</a>
</g>
</g>
<!-- collections.abc.Collection -->
<g id="node8" class="node">
<title>collections.abc.Collection</title>
<g id="a_node8"><a xlink:href="https://docs.python.org/3.6/library/collections.abc.html#collections.abc.Collection" xlink:title="Collection" target="_top">
<ellipse fill="none" stroke="#decbe4" stroke-width="2" cx="406.1701" cy="-937" rx="34.7971" ry="13.3704"/>
<text text-anchor="middle" x="406.1701" y="-934.5" font-family="Arial" font-size="10.00" fill="#000000">Collection</text>
</a>
</g>
</g>
<!-- collections.abc.Mapping -->
<g id="node9" class="node">
<title>collections.abc.Mapping</title>
<g id="a_node9"><a xlink:href="https://docs.python.org/3.6/library/collections.abc.html#collections.abc.Mapping" xlink:title="Mapping" target="_top">
<ellipse fill="none" stroke="#decbe4" stroke-width="2" cx="528.1234" cy="-934" rx="31.6406" ry="13.3704"/>
<text text-anchor="middle" x="528.1234" y="-931.5" font-family="Arial" font-size="10.00" fill="#000000">Mapping</text>
</a>
</g>
</g>
<!-- collections.abc.Container -->
<g id="node10" class="node">
<title>collections.abc.Container</title>
<g id="a_node10"><a xlink:href="https://docs.python.org/3.6/library/collections.abc.html#collections.abc.Container" xlink:title="Container" target="_top">
<ellipse fill="none" stroke="#decbe4" stroke-width="2" cx="278.5599" cy="-895" rx="34.7971" ry="13.3704"/>
<text text-anchor="middle" x="278.5599" y="-892.5" font-family="Arial" font-size="10.00" fill="#000000">Container</text>
</a>
</g>
</g>
<!-- collections.abc.Iterable -->
<g id="node11" class="node">
<title>collections.abc.Iterable</title>
<g id="a_node11"><a xlink:href="https://docs.python.org/3.6/library/collections.abc.html#collections.abc.Iterable" xlink:title="Iterable" target="_top">
<ellipse fill="none" stroke="#decbe4" stroke-width="2" cx="278.5599" cy="-985" rx="29.8983" ry="13.3704"/>
<text text-anchor="middle" x="278.5599" y="-982.5" font-family="Arial" font-size="10.00" fill="#000000">Iterable</text>
</a>
</g>
</g>
<!-- collections.abc.MutableMapping -->
<g id="node12" class="node">
<title>collections.abc.MutableMapping</title>
<g id="a_node12"><a xlink:href="https://docs.python.org/3.6/library/collections.abc.html#collections.abc.MutableMapping" xlink:title="Mutable\nMapping" target="_top">
<ellipse fill="none" stroke="#decbe4" stroke-width="2" cx="636.2483" cy="-929" rx="31.6406" ry="21.4286"/>
<text text-anchor="middle" x="636.2483" y="-932" font-family="Arial" font-size="10.00" fill="#000000">Mutable</text>
<text text-anchor="middle" x="636.2483" y="-921" font-family="Arial" font-size="10.00" fill="#000000">Mapping</text>
</a>
</g>
</g>
<!-- collections.abc.Sized -->
<g id="node13" class="node">
<title>collections.abc.Sized</title>
<g id="a_node13"><a xlink:href="https://docs.python.org/3.6/library/collections.abc.html#collections.abc.Sized" xlink:title="Sized" target="_top">
<ellipse fill="none" stroke="#decbe4" stroke-width="2" cx="278.5599" cy="-940" rx="25" ry="13.3704"/>
<text text-anchor="middle" x="278.5599" y="-937.5" font-family="Arial" font-size="10.00" fill="#000000">Sized</text>
</a>
</g>
</g>
<!-- docutils.nodes.Body -->
<g id="node14" class="node">
<title>docutils.nodes.Body</title>
<path fill="#fed9a6" stroke="#fed9a6" stroke-width="2" d="M187.4657,-332.5C187.4657,-332.5 166.1323,-332.5 166.1323,-332.5 162.9657,-332.5 159.799,-329.3333 159.799,-326.1667 159.799,-326.1667 159.799,-319.8333 159.799,-319.8333 159.799,-316.6667 162.9657,-313.5 166.1323,-313.5 166.1323,-313.5 187.4657,-313.5 187.4657,-313.5 190.6323,-313.5 193.799,-316.6667 193.799,-319.8333 193.799,-319.8333 193.799,-326.1667 193.799,-326.1667 193.799,-329.3333 190.6323,-332.5 187.4657,-332.5"/>
<text text-anchor="middle" x="176.799" y="-320.5" font-family="Arial" font-size="10.00" fill="#000000">Body</text>
</g>
<!-- docutils.nodes.General -->
<g id="node15" class="node">
<title>docutils.nodes.General</title>
<path fill="#fed9a6" stroke="#fed9a6" stroke-width="2" d="M293.7266,-332.5C293.7266,-332.5 263.3933,-332.5 263.3933,-332.5 260.2266,-332.5 257.0599,-329.3333 257.0599,-326.1667 257.0599,-326.1667 257.0599,-319.8333 257.0599,-319.8333 257.0599,-316.6667 260.2266,-313.5 263.3933,-313.5 263.3933,-313.5 293.7266,-313.5 293.7266,-313.5 296.8933,-313.5 300.0599,-316.6667 300.0599,-319.8333 300.0599,-319.8333 300.0599,-326.1667 300.0599,-326.1667 300.0599,-329.3333 296.8933,-332.5 293.7266,-332.5"/>
<text text-anchor="middle" x="278.5599" y="-320.5" font-family="Arial" font-size="10.00" fill="#000000">General</text>
</g>
<!-- docutils.nodes.Element -->
<g id="node16" class="node">
<title>docutils.nodes.Element</title>
<path fill="#fed9a6" stroke="#fed9a6" stroke-width="2" d="M294.2266,-295.5C294.2266,-295.5 262.8933,-295.5 262.8933,-295.5 259.7266,-295.5 256.5599,-292.3333 256.5599,-289.1667 256.5599,-289.1667 256.5599,-282.8333 256.5599,-282.8333 256.5599,-279.6667 259.7266,-276.5 262.8933,-276.5 262.8933,-276.5 294.2266,-276.5 294.2266,-276.5 297.3933,-276.5 300.5599,-279.6667 300.5599,-282.8333 300.5599,-282.8333 300.5599,-289.1667 300.5599,-289.1667 300.5599,-292.3333 297.3933,-295.5 294.2266,-295.5"/>
<text text-anchor="middle" x="278.5599" y="-283.5" font-family="Arial" font-size="10.00" fill="#000000">Element</text>
</g>
<!-- docutils.nodes.Node -->
<g id="node17" class="node">
<title>docutils.nodes.Node</title>
<path fill="#fed9a6" stroke="#fed9a6" stroke-width="2" d="M187.4657,-295.5C187.4657,-295.5 166.1323,-295.5 166.1323,-295.5 162.9657,-295.5 159.799,-292.3333 159.799,-289.1667 159.799,-289.1667 159.799,-282.8333 159.799,-282.8333 159.799,-279.6667 162.9657,-276.5 166.1323,-276.5 166.1323,-276.5 187.4657,-276.5 187.4657,-276.5 190.6323,-276.5 193.799,-279.6667 193.799,-282.8333 193.799,-282.8333 193.799,-289.1667 193.799,-289.1667 193.799,-292.3333 190.6323,-295.5 187.4657,-295.5"/>
<text text-anchor="middle" x="176.799" y="-283.5" font-family="Arial" font-size="10.00" fill="#000000">Node</text>
</g>
<!-- docutils.parsers.rst.Directive -->
<g id="node18" class="node">
<title>docutils.parsers.rst.Directive</title>
<g id="a_node18"><a xlink:href="http://www.sphinx-doc.org/en/stable/extdev/markupapi.html#docutils.parsers.rst.Directive" xlink:title="Directive" target="_top">
<path fill="#ffffcc" stroke="#ffffcc" stroke-width="2" d="M295.2266,-232.5C295.2266,-232.5 261.8933,-232.5 261.8933,-232.5 258.7266,-232.5 255.5599,-229.3333 255.5599,-226.1667 255.5599,-226.1667 255.5599,-219.8333 255.5599,-219.8333 255.5599,-216.6667 258.7266,-213.5 261.8933,-213.5 261.8933,-213.5 295.2266,-213.5 295.2266,-213.5 298.3933,-213.5 301.5599,-216.6667 301.5599,-219.8333 301.5599,-219.8333 301.5599,-226.1667 301.5599,-226.1667 301.5599,-229.3333 298.3933,-232.5 295.2266,-232.5"/>
<text text-anchor="middle" x="278.5599" y="-220.5" font-family="Arial" font-size="10.00" fill="#000000">Directive</text>
</a>
</g>
</g>
<!-- enum.Enum -->
<g id="node19" class="node">
<title>enum.Enum</title>
<g id="a_node19"><a xlink:href="https://docs.python.org/3.6/library/enum.html#enum.Enum" xlink:title="Enum" target="_top">
<path fill="#e5d8bd" stroke="#e5d8bd" stroke-width="2" d="M188.4657,-1300.5C188.4657,-1300.5 165.1323,-1300.5 165.1323,-1300.5 161.9657,-1300.5 158.799,-1297.3333 158.799,-1294.1667 158.799,-1294.1667 158.799,-1287.8333 158.799,-1287.8333 158.799,-1284.6667 161.9657,-1281.5 165.1323,-1281.5 165.1323,-1281.5 188.4657,-1281.5 188.4657,-1281.5 191.6323,-1281.5 194.799,-1284.6667 194.799,-1287.8333 194.799,-1287.8333 194.799,-1294.1667 194.799,-1294.1667 194.799,-1297.3333 191.6323,-1300.5 188.4657,-1300.5"/>
<text text-anchor="middle" x="176.799" y="-1288.5" font-family="Arial" font-size="10.00" fill="#000000">Enum</text>
</a>
</g>
</g>
<!-- enum.IntEnum -->
<g id="node20" class="node">
<title>enum.IntEnum</title>
<g id="a_node20"><a xlink:href="https://docs.python.org/3.6/library/enum.html#enum.IntEnum" xlink:title="Int\nEnum" target="_top">
<path fill="#e5d8bd" stroke="#e5d8bd" stroke-width="2" d="M286.5599,-1306C286.5599,-1306 270.5599,-1306 270.5599,-1306 265.5599,-1306 260.5599,-1301 260.5599,-1296 260.5599,-1296 260.5599,-1286 260.5599,-1286 260.5599,-1281 265.5599,-1276 270.5599,-1276 270.5599,-1276 286.5599,-1276 286.5599,-1276 291.5599,-1276 296.5599,-1281 296.5599,-1286 296.5599,-1286 296.5599,-1296 296.5599,-1296 296.5599,-1301 291.5599,-1306 286.5599,-1306"/>
<text text-anchor="middle" x="278.5599" y="-1294" font-family="Arial" font-size="10.00" fill="#000000">Int</text>
<text text-anchor="middle" x="278.5599" y="-1283" font-family="Arial" font-size="10.00" fill="#000000">Enum</text>
</a>
</g>
</g>
<!-- uqbar.apis.APIBuilder.APIBuilder -->
<g id="node21" class="node">
<title>uqbar.apis.APIBuilder.APIBuilder</title>
<g id="a_node21"><a xlink:href="../api/uqbar/apis/APIBuilder.html#uqbar.apis.APIBuilder.APIBuilder" xlink:title="APIBuilder" target="_top">
<path fill="#fddaec" stroke="#fddaec" stroke-width="2" d="M547.7901,-248.5C547.7901,-248.5 508.4567,-248.5 508.4567,-248.5 505.2901,-248.5 502.1234,-245.3333 502.1234,-242.1667 502.1234,-242.1667 502.1234,-235.8333 502.1234,-235.8333 502.1234,-232.6667 505.2901,-229.5 508.4567,-229.5 508.4567,-229.5 547.7901,-229.5 547.7901,-229.5 550.9567,-229.5 554.1234,-232.6667 554.1234,-235.8333 554.1234,-235.8333 554.1234,-242.1667 554.1234,-242.1667 554.1234,-245.3333 550.9567,-248.5 547.7901,-248.5"/>
<text text-anchor="middle" x="528.1234" y="-236.5" font-family="Arial" font-size="10.00" fill="#000000">APIBuilder</text>
</a>
</g>
</g>
<!-- uqbar.apis.ClassDocumenter.ClassDocumenter -->
<g id="node22" class="node">
<title>uqbar.apis.ClassDocumenter.ClassDocumenter</title>
<g id="a_node22"><a xlink:href="../api/uqbar/apis/ClassDocumenter.html#uqbar.apis.ClassDocumenter.ClassDocumenter" xlink:title="Class\nDocumenter" target="_top">
<path fill="#fddaec" stroke="#fddaec" stroke-width="2" d="M654.7483,-192C654.7483,-192 617.7483,-192 617.7483,-192 612.7483,-192 607.7483,-187 607.7483,-182 607.7483,-182 607.7483,-172 607.7483,-172 607.7483,-167 612.7483,-162 617.7483,-162 617.7483,-162 654.7483,-162 654.7483,-162 659.7483,-162 664.7483,-167 664.7483,-172 664.7483,-172 664.7483,-182 664.7483,-182 664.7483,-187 659.7483,-192 654.7483,-192"/>
<text text-anchor="middle" x="636.2483" y="-180" font-family="Arial" font-size="10.00" fill="#000000">Class</text>
<text text-anchor="middle" x="636.2483" y="-169" font-family="Arial" font-size="10.00" fill="#000000">Documenter</text>
</a>
</g>
</g>
<!-- uqbar.apis.SummarizingClassDocumenter.SummarizingClassDocumenter -->
<g id="node23" class="node">
<title>uqbar.apis.SummarizingClassDocumenter.SummarizingClassDocumenter</title>
<g id="a_node23"><a xlink:href="../api/uqbar/apis/SummarizingClassDocumenter.html#uqbar.apis.SummarizingClassDocumenter.SummarizingClassDocumenter" xlink:title="Summarizing\nClass\nDocumenter" target="_top">
<path fill="#fddaec" stroke="#fddaec" stroke-width="2" d="M752.0681,-202.5C752.0681,-202.5 716.0681,-202.5 716.0681,-202.5 710.0681,-202.5 704.0681,-196.5 704.0681,-190.5 704.0681,-190.5 704.0681,-173.5 704.0681,-173.5 704.0681,-167.5 710.0681,-161.5 716.0681,-161.5 716.0681,-161.5 752.0681,-161.5 752.0681,-161.5 758.0681,-161.5 764.0681,-167.5 764.0681,-173.5 764.0681,-173.5 764.0681,-190.5 764.0681,-190.5 764.0681,-196.5 758.0681,-202.5 752.0681,-202.5"/>
<text text-anchor="middle" x="734.0681" y="-190.5" font-family="Arial" font-size="10.00" fill="#000000">Summarizing</text>
<text text-anchor="middle" x="734.0681" y="-179.5" font-family="Arial" font-size="10.00" fill="#000000">Class</text>
<text text-anchor="middle" x="734.0681" y="-168.5" font-family="Arial" font-size="10.00" fill="#000000">Documenter</text>
</a>
</g>
</g>
<!-- uqbar.apis.FunctionDocumenter.FunctionDocumenter -->
<g id="node24" class="node">
<title>uqbar.apis.FunctionDocumenter.FunctionDocumenter</title>
<g id="a_node24"><a xlink:href="../api/uqbar/apis/FunctionDocumenter.html#uqbar.apis.FunctionDocumenter.FunctionDocumenter" xlink:title="Function\nDocumenter" target="_top">
<path fill="#fddaec" stroke="#fddaec" stroke-width="2" d="M752.5681,-143C752.5681,-143 715.5681,-143 715.5681,-143 710.5681,-143 705.5681,-138 705.5681,-133 705.5681,-133 705.5681,-123 705.5681,-123 705.5681,-118 710.5681,-113 715.5681,-113 715.5681,-113 752.5681,-113 752.5681,-113 757.5681,-113 762.5681,-118 762.5681,-123 762.5681,-123 762.5681,-133 762.5681,-133 762.5681,-138 757.5681,-143 752.5681,-143"/>
<text text-anchor="middle" x="734.0681" y="-131" font-family="Arial" font-size="10.00" fill="#000000">Function</text>
<text text-anchor="middle" x="734.0681" y="-120" font-family="Arial" font-size="10.00" fill="#000000">Documenter</text>
</a>
</g>
</g>
<!-- uqbar.apis.InheritanceGraph.InheritanceGraph -->
<g id="node25" class="node">
<title>uqbar.apis.InheritanceGraph.InheritanceGraph</title>
<g id="a_node25"><a xlink:href="../api/uqbar/apis/InheritanceGraph.html#uqbar.apis.InheritanceGraph.InheritanceGraph" xlink:title="Inheritance\nGraph" target="_top">
<path fill="#fddaec" stroke="#fddaec" stroke-width="2" d="M545.1234,-211C545.1234,-211 511.1234,-211 511.1234,-211 506.1234,-211 501.1234,-206 501.1234,-201 501.1234,-201 501.1234,-191 501.1234,-191 501.1234,-186 506.1234,-181 511.1234,-181 511.1234,-181 545.1234,-181 545.1234,-181 550.1234,-181 555.1234,-186 555.1234,-191 555.1234,-191 555.1234,-201 555.1234,-201 555.1234,-206 550.1234,-211 545.1234,-211"/>
<text text-anchor="middle" x="528.1234" y="-199" font-family="Arial" font-size="10.00" fill="#000000">Inheritance</text>
<text text-anchor="middle" x="528.1234" y="-188" font-family="Arial" font-size="10.00" fill="#000000">Graph</text>
</a>
</g>
</g>
<!-- uqbar.apis.MemberDocumenter.MemberDocumenter -->
<g id="node26" class="node">
<title>uqbar.apis.MemberDocumenter.MemberDocumenter</title>
<g id="a_node26"><a xlink:href="../api/uqbar/apis/MemberDocumenter.html#uqbar.apis.MemberDocumenter.MemberDocumenter" xlink:title="Member\nDocumenter" target="_top">
<ellipse fill="none" stroke="#fddaec" stroke-width="2" cx="528.1234" cy="-142" rx="40.1111" ry="21.4286"/>
<text text-anchor="middle" x="528.1234" y="-145" font-family="Arial" font-size="10.00" fill="#000000">Member</text>
<text text-anchor="middle" x="528.1234" y="-134" font-family="Arial" font-size="10.00" fill="#000000">Documenter</text>
</a>
</g>
</g>
<!-- uqbar.apis.ModuleDocumenter.ModuleDocumenter -->
<g id="node27" class="node">
<title>uqbar.apis.ModuleDocumenter.ModuleDocumenter</title>
<g id="a_node27"><a xlink:href="../api/uqbar/apis/ModuleDocumenter.html#uqbar.apis.ModuleDocumenter.ModuleDocumenter" xlink:title="Module\nDocumenter" target="_top">
<path fill="#fddaec" stroke="#fddaec" stroke-width="2" d="M546.6234,-103C546.6234,-103 509.6234,-103 509.6234,-103 504.6234,-103 499.6234,-98 499.6234,-93 499.6234,-93 499.6234,-83 499.6234,-83 499.6234,-78 504.6234,-73 509.6234,-73 509.6234,-73 546.6234,-73 546.6234,-73 551.6234,-73 556.6234,-78 556.6234,-83 556.6234,-83 556.6234,-93 556.6234,-93 556.6234,-98 551.6234,-103 546.6234,-103"/>
<text text-anchor="middle" x="528.1234" y="-91" font-family="Arial" font-size="10.00" fill="#000000">Module</text>
<text text-anchor="middle" x="528.1234" y="-80" font-family="Arial" font-size="10.00" fill="#000000">Documenter</text>
</a>
</g>
</g>
<!-- uqbar.apis.SummarizingModuleDocumenter.SummarizingModuleDocumenter -->
<g id="node28" class="node">
<title>uqbar.apis.SummarizingModuleDocumenter.SummarizingModuleDocumenter</title>
<g id="a_node28"><a xlink:href="../api/uqbar/apis/SummarizingModuleDocumenter.html#uqbar.apis.SummarizingModuleDocumenter.SummarizingModuleDocumenter" xlink:title="Summarizing\nModule\nDocumenter" target="_top">
<path fill="#fddaec" stroke="#fddaec" stroke-width="2" d="M654.2483,-114.5C654.2483,-114.5 618.2483,-114.5 618.2483,-114.5 612.2483,-114.5 606.2483,-108.5 606.2483,-102.5 606.2483,-102.5 606.2483,-85.5 606.2483,-85.5 606.2483,-79.5 612.2483,-73.5 618.2483,-73.5 618.2483,-73.5 654.2483,-73.5 654.2483,-73.5 660.2483,-73.5 666.2483,-79.5 666.2483,-85.5 666.2483,-85.5 666.2483,-102.5 666.2483,-102.5 666.2483,-108.5 660.2483,-114.5 654.2483,-114.5"/>
<text text-anchor="middle" x="636.2483" y="-102.5" font-family="Arial" font-size="10.00" fill="#000000">Summarizing</text>
<text text-anchor="middle" x="636.2483" y="-91.5" font-family="Arial" font-size="10.00" fill="#000000">Module</text>
<text text-anchor="middle" x="636.2483" y="-80.5" font-family="Arial" font-size="10.00" fill="#000000">Documenter</text>
</a>
</g>
</g>
<!-- uqbar.apis.ModuleNode.ModuleNode -->
<g id="node29" class="node">
<title>uqbar.apis.ModuleNode.ModuleNode</title>
<g id="a_node29"><a xlink:href="../api/uqbar/apis/ModuleNode.html#uqbar.apis.ModuleNode.ModuleNode" xlink:title="Module\nNode" target="_top">
<path fill="#fddaec" stroke="#fddaec" stroke-width="2" d="M538.6234,-345C538.6234,-345 517.6234,-345 517.6234,-345 512.6234,-345 507.6234,-340 507.6234,-335 507.6234,-335 507.6234,-325 507.6234,-325 507.6234,-320 512.6234,-315 517.6234,-315 517.6234,-315 538.6234,-315 538.6234,-315 543.6234,-315 548.6234,-320 548.6234,-325 548.6234,-325 548.6234,-335 548.6234,-335 548.6234,-340 543.6234,-345 538.6234,-345"/>
<text text-anchor="middle" x="528.1234" y="-333" font-family="Arial" font-size="10.00" fill="#000000">Module</text>
<text text-anchor="middle" x="528.1234" y="-322" font-family="Arial" font-size="10.00" fill="#000000">Node</text>
</a>
</g>
</g>
<!-- uqbar.apis.PackageNode.PackageNode -->
<g id="node30" class="node">
<title>uqbar.apis.PackageNode.PackageNode</title>
<g id="a_node30"><a xlink:href="../api/uqbar/apis/PackageNode.html#uqbar.apis.PackageNode.PackageNode" xlink:title="Package\nNode" target="_top">
<path fill="#fddaec" stroke="#fddaec" stroke-width="2" d="M541.1234,-393C541.1234,-393 515.1234,-393 515.1234,-393 510.1234,-393 505.1234,-388 505.1234,-383 505.1234,-383 505.1234,-373 505.1234,-373 505.1234,-368 510.1234,-363 515.1234,-363 515.1234,-363 541.1234,-363 541.1234,-363 546.1234,-363 551.1234,-368 551.1234,-373 551.1234,-373 551.1234,-383 551.1234,-383 551.1234,-388 546.1234,-393 541.1234,-393"/>
<text text-anchor="middle" x="528.1234" y="-381" font-family="Arial" font-size="10.00" fill="#000000">Package</text>
<text text-anchor="middle" x="528.1234" y="-370" font-family="Arial" font-size="10.00" fill="#000000">Node</text>
</a>
</g>
</g>
<!-- uqbar.apis.RootDocumenter.RootDocumenter -->
<g id="node31" class="node">
<title>uqbar.apis.RootDocumenter.RootDocumenter</title>
<g id="a_node31"><a xlink:href="../api/uqbar/apis/RootDocumenter.html#uqbar.apis.RootDocumenter.RootDocumenter" xlink:title="Root\nDocumenter" target="_top">
<path fill="#fddaec" stroke="#fddaec" stroke-width="2" d="M546.6234,-297C546.6234,-297 509.6234,-297 509.6234,-297 504.6234,-297 499.6234,-292 499.6234,-287 499.6234,-287 499.6234,-277 499.6234,-277 499.6234,-272 504.6234,-267 509.6234,-267 509.6234,-267 546.6234,-267 546.6234,-267 551.6234,-267 556.6234,-272 556.6234,-277 556.6234,-277 556.6234,-287 556.6234,-287 556.6234,-292 551.6234,-297 546.6234,-297"/>
<text text-anchor="middle" x="528.1234" y="-285" font-family="Arial" font-size="10.00" fill="#000000">Root</text>
<text text-anchor="middle" x="528.1234" y="-274" font-family="Arial" font-size="10.00" fill="#000000">Documenter</text>
</a>
</g>
</g>
<!-- uqbar.apis.SummarizingRootDocumenter.SummarizingRootDocumenter -->
<g id="node32" class="node">
<title>uqbar.apis.SummarizingRootDocumenter.SummarizingRootDocumenter</title>
<g id="a_node32"><a xlink:href="../api/uqbar/apis/SummarizingRootDocumenter.html#uqbar.apis.SummarizingRootDocumenter.SummarizingRootDocumenter" xlink:title="Summarizing\nRoot\nDocumenter" target="_top">
<path fill="#fddaec" stroke="#fddaec" stroke-width="2" d="M654.2483,-302.5C654.2483,-302.5 618.2483,-302.5 618.2483,-302.5 612.2483,-302.5 606.2483,-296.5 606.2483,-290.5 606.2483,-290.5 606.2483,-273.5 606.2483,-273.5 606.2483,-267.5 612.2483,-261.5 618.2483,-261.5 618.2483,-261.5 654.2483,-261.5 654.2483,-261.5 660.2483,-261.5 666.2483,-267.5 666.2483,-273.5 666.2483,-273.5 666.2483,-290.5 666.2483,-290.5 666.2483,-296.5 660.2483,-302.5 654.2483,-302.5"/>
<text text-anchor="middle" x="636.2483" y="-290.5" font-family="Arial" font-size="10.00" fill="#000000">Summarizing</text>
<text text-anchor="middle" x="636.2483" y="-279.5" font-family="Arial" font-size="10.00" fill="#000000">Root</text>
<text text-anchor="middle" x="636.2483" y="-268.5" font-family="Arial" font-size="10.00" fill="#000000">Documenter</text>
</a>
</g>
</g>
<!-- uqbar.book.Console.Console -->
<g id="node33" class="node">
<title>uqbar.book.Console.Console</title>
<g id="a_node33"><a xlink:href="../api/uqbar/book/Console.html#uqbar.book.Console.Console" xlink:title="Console" target="_top">
<path fill="#fbb4ae" stroke="#fbb4ae" stroke-width="2" d="M543.7901,-1095.5C543.7901,-1095.5 512.4567,-1095.5 512.4567,-1095.5 509.2901,-1095.5 506.1234,-1092.3333 506.1234,-1089.1667 506.1234,-1089.1667 506.1234,-1082.8333 506.1234,-1082.8333 506.1234,-1079.6667 509.2901,-1076.5 512.4567,-1076.5 512.4567,-1076.5 543.7901,-1076.5 543.7901,-1076.5 546.9567,-1076.5 550.1234,-1079.6667 550.1234,-1082.8333 550.1234,-1082.8333 550.1234,-1089.1667 550.1234,-1089.1667 550.1234,-1092.3333 546.9567,-1095.5 543.7901,-1095.5"/>
<text text-anchor="middle" x="528.1234" y="-1083.5" font-family="Arial" font-size="10.00" fill="#000000">Console</text>
</a>
</g>
</g>
<!-- uqbar.cli.CLI.CLI -->
<g id="node34" class="node">
<title>uqbar.cli.CLI.CLI</title>
<g id="a_node34"><a xlink:href="../api/uqbar/cli/CLI.html#uqbar.cli.CLI.CLI" xlink:title="CLI" target="_top">
<ellipse fill="none" stroke="#b3cde3" stroke-width="2" cx="176.799" cy="-1157" rx="19.6" ry="13.3704"/>
<text text-anchor="middle" x="176.799" y="-1154.5" font-family="Arial" font-size="10.00" fill="#000000">CLI</text>
</a>
</g>
</g>
<!-- uqbar.cli.CLIAggregator.CLIAggregator -->
<g id="node35" class="node">
<title>uqbar.cli.CLIAggregator.CLIAggregator</title>
<g id="a_node35"><a xlink:href="../api/uqbar/cli/CLIAggregator.html#uqbar.cli.CLIAggregator.CLIAggregator" xlink:title="CLIAggregator" target="_top">
<ellipse fill="none" stroke="#b3cde3" stroke-width="2" cx="278.5599" cy="-1157" rx="45.9239" ry="13.3704"/>
<text text-anchor="middle" x="278.5599" y="-1154.5" font-family="Arial" font-size="10.00" fill="#000000">CLIAggregator</text>
</a>
</g>
</g>
<!-- uqbar.containers.DependencyGraph.DependencyGraph -->
<g id="node36" class="node">
<title>uqbar.containers.DependencyGraph.DependencyGraph</title>
<g id="a_node36"><a xlink:href="../api/uqbar/containers/DependencyGraph.html#uqbar.containers.DependencyGraph.DependencyGraph" xlink:title="Dependency\nGraph" target="_top">
<path fill="#ccebc5" stroke="#ccebc5" stroke-width="2" d="M298.0599,-664C298.0599,-664 259.0599,-664 259.0599,-664 254.0599,-664 249.0599,-659 249.0599,-654 249.0599,-654 249.0599,-644 249.0599,-644 249.0599,-639 254.0599,-634 259.0599,-634 259.0599,-634 298.0599,-634 298.0599,-634 303.0599,-634 308.0599,-639 308.0599,-644 308.0599,-644 308.0599,-654 308.0599,-654 308.0599,-659 303.0599,-664 298.0599,-664"/>
<text text-anchor="middle" x="278.5599" y="-652" font-family="Arial" font-size="10.00" fill="#000000">Dependency</text>
<text text-anchor="middle" x="278.5599" y="-641" font-family="Arial" font-size="10.00" fill="#000000">Graph</text>
</a>
</g>
</g>
<!-- uqbar.containers.UniqueTreeContainer.UniqueTreeContainer -->
<g id="node37" class="node">
<title>uqbar.containers.UniqueTreeContainer.UniqueTreeContainer</title>
<g id="a_node37"><a xlink:href="../api/uqbar/containers/UniqueTreeContainer.html#uqbar.containers.UniqueTreeContainer.UniqueTreeContainer" xlink:title="Unique\nTree\nContainer" target="_top">
<path fill="#ccebc5" stroke="#ccebc5" stroke-width="2" d="M418.6701,-675.5C418.6701,-675.5 393.6701,-675.5 393.6701,-675.5 387.6701,-675.5 381.6701,-669.5 381.6701,-663.5 381.6701,-663.5 381.6701,-646.5 381.6701,-646.5 381.6701,-640.5 387.6701,-634.5 393.6701,-634.5 393.6701,-634.5 418.6701,-634.5 418.6701,-634.5 424.6701,-634.5 430.6701,-640.5 430.6701,-646.5 430.6701,-646.5 430.6701,-663.5 430.6701,-663.5 430.6701,-669.5 424.6701,-675.5 418.6701,-675.5"/>
<text text-anchor="middle" x="406.1701" y="-663.5" font-family="Arial" font-size="10.00" fill="#000000">Unique</text>
<text text-anchor="middle" x="406.1701" y="-652.5" font-family="Arial" font-size="10.00" fill="#000000">Tree</text>
<text text-anchor="middle" x="406.1701" y="-641.5" font-family="Arial" font-size="10.00" fill="#000000">Container</text>
</a>
</g>
</g>
<!-- uqbar.containers.UniqueTreeNode.UniqueTreeNode -->
<g id="node38" class="node">
<title>uqbar.containers.UniqueTreeNode.UniqueTreeNode</title>
<g id="a_node38"><a xlink:href="../api/uqbar/containers/UniqueTreeNode.html#uqbar.containers.UniqueTreeNode.UniqueTreeNode" xlink:title="Unique\nTree\nNode" target="_top">
<path fill="#ccebc5" stroke="#ccebc5" stroke-width="2" d="M286.5599,-723.5C286.5599,-723.5 270.5599,-723.5 270.5599,-723.5 264.5599,-723.5 258.5599,-717.5 258.5599,-711.5 258.5599,-711.5 258.5599,-694.5 258.5599,-694.5 258.5599,-688.5 264.5599,-682.5 270.5599,-682.5 270.5599,-682.5 286.5599,-682.5 286.5599,-682.5 292.5599,-682.5 298.5599,-688.5 298.5599,-694.5 298.5599,-694.5 298.5599,-711.5 298.5599,-711.5 298.5599,-717.5 292.5599,-723.5 286.5599,-723.5"/>
<text text-anchor="middle" x="278.5599" y="-711.5" font-family="Arial" font-size="10.00" fill="#000000">Unique</text>
<text text-anchor="middle" x="278.5599" y="-700.5" font-family="Arial" font-size="10.00" fill="#000000">Tree</text>
<text text-anchor="middle" x="278.5599" y="-689.5" font-family="Arial" font-size="10.00" fill="#000000">Node</text>
</a>
</g>
</g>
<!-- uqbar.enums.IntEnumeration -->
<g id="node39" class="node">
<title>uqbar.enums.IntEnumeration</title>
<g id="a_node39"><a xlink:href="../api/uqbar/enums.html#uqbar.enums.IntEnumeration" xlink:title="Int\nEnumeration" target="_top">
<path fill="#decbe4" stroke="#decbe4" stroke-width="2" d="M425.6701,-1303C425.6701,-1303 386.6701,-1303 386.6701,-1303 381.6701,-1303 376.6701,-1298 376.6701,-1293 376.6701,-1293 376.6701,-1283 376.6701,-1283 376.6701,-1278 381.6701,-1273 386.6701,-1273 386.6701,-1273 425.6701,-1273 425.6701,-1273 430.6701,-1273 435.6701,-1278 435.6701,-1283 435.6701,-1283 435.6701,-1293 435.6701,-1293 435.6701,-1298 430.6701,-1303 425.6701,-1303"/>
<text text-anchor="middle" x="406.1701" y="-1291" font-family="Arial" font-size="10.00" fill="#000000">Int</text>
<text text-anchor="middle" x="406.1701" y="-1280" font-family="Arial" font-size="10.00" fill="#000000">Enumeration</text>
</a>
</g>
</g>
<!-- uqbar.enums.StrictEnumeration -->
<g id="node40" class="node">
<title>uqbar.enums.StrictEnumeration</title>
<g id="a_node40"><a xlink:href="../api/uqbar/enums.html#uqbar.enums.StrictEnumeration" xlink:title="Strict\nEnumeration" target="_top">
<path fill="#decbe4" stroke="#decbe4" stroke-width="2" d="M425.6701,-1351C425.6701,-1351 386.6701,-1351 386.6701,-1351 381.6701,-1351 376.6701,-1346 376.6701,-1341 376.6701,-1341 376.6701,-1331 376.6701,-1331 376.6701,-1326 381.6701,-1321 386.6701,-1321 386.6701,-1321 425.6701,-1321 425.6701,-1321 430.6701,-1321 435.6701,-1326 435.6701,-1331 435.6701,-1331 435.6701,-1341 435.6701,-1341 435.6701,-1346 430.6701,-1351 425.6701,-1351"/>
<text text-anchor="middle" x="406.1701" y="-1339" font-family="Arial" font-size="10.00" fill="#000000">Strict</text>
<text text-anchor="middle" x="406.1701" y="-1328" font-family="Arial" font-size="10.00" fill="#000000">Enumeration</text>
</a>
</g>
</g>
<!-- uqbar.graphs.Attachable.Attachable -->
<g id="node41" class="node">
<title>uqbar.graphs.Attachable.Attachable</title>
<g id="a_node41"><a xlink:href="../api/uqbar/graphs/Attachable.html#uqbar.graphs.Attachable.Attachable" xlink:title="Attachable" target="_top">
<path fill="#fed9a6" stroke="#fed9a6" stroke-width="2" d="M753.7348,-891.5C753.7348,-891.5 714.4014,-891.5 714.4014,-891.5 711.2348,-891.5 708.0681,-888.3333 708.0681,-885.1667 708.0681,-885.1667 708.0681,-878.8333 708.0681,-878.8333 708.0681,-875.6667 711.2348,-872.5 714.4014,-872.5 714.4014,-872.5 753.7348,-872.5 753.7348,-872.5 756.9014,-872.5 760.0681,-875.6667 760.0681,-878.8333 760.0681,-878.8333 760.0681,-885.1667 760.0681,-885.1667 760.0681,-888.3333 756.9014,-891.5 753.7348,-891.5"/>
<text text-anchor="middle" x="734.0681" y="-879.5" font-family="Arial" font-size="10.00" fill="#000000">Attachable</text>
</a>
</g>
</g>
<!-- uqbar.graphs.RecordField.RecordField -->
<g id="node42" class="node">
<title>uqbar.graphs.RecordField.RecordField</title>
<g id="a_node42"><a xlink:href="../api/uqbar/graphs/RecordField.html#uqbar.graphs.RecordField.RecordField" xlink:title="Record\nField" target="_top">
<path fill="#fed9a6" stroke="#fed9a6" stroke-width="2" d="M831.0681,-691C831.0681,-691 810.0681,-691 810.0681,-691 805.0681,-691 800.0681,-686 800.0681,-681 800.0681,-681 800.0681,-671 800.0681,-671 800.0681,-666 805.0681,-661 810.0681,-661 810.0681,-661 831.0681,-661 831.0681,-661 836.0681,-661 841.0681,-666 841.0681,-671 841.0681,-671 841.0681,-681 841.0681,-681 841.0681,-686 836.0681,-691 831.0681,-691"/>
<text text-anchor="middle" x="820.5681" y="-679" font-family="Arial" font-size="10.00" fill="#000000">Record</text>
<text text-anchor="middle" x="820.5681" y="-668" font-family="Arial" font-size="10.00" fill="#000000">Field</text>
</a>
</g>
</g>
<!-- uqbar.graphs.TableCell.TableCell -->
<g id="node43" class="node">
<title>uqbar.graphs.TableCell.TableCell</title>
<g id="a_node43"><a xlink:href="../api/uqbar/graphs/TableCell.html#uqbar.graphs.TableCell.TableCell" xlink:title="Table\nCell" target="_top">
<path fill="#fed9a6" stroke="#fed9a6" stroke-width="2" d="M828.0681,-818C828.0681,-818 813.0681,-818 813.0681,-818 808.0681,-818 803.0681,-813 803.0681,-808 803.0681,-808 803.0681,-798 803.0681,-798 803.0681,-793 808.0681,-788 813.0681,-788 813.0681,-788 828.0681,-788 828.0681,-788 833.0681,-788 838.0681,-793 838.0681,-798 838.0681,-798 838.0681,-808 838.0681,-808 838.0681,-813 833.0681,-818 828.0681,-818"/>
<text text-anchor="middle" x="820.5681" y="-806" font-family="Arial" font-size="10.00" fill="#000000">Table</text>
<text text-anchor="middle" x="820.5681" y="-795" font-family="Arial" font-size="10.00" fill="#000000">Cell</text>
</a>
</g>
</g>
<!-- uqbar.graphs.Attributes.Attributes -->
<g id="node44" class="node">
<title>uqbar.graphs.Attributes.Attributes</title>
<g id="a_node44"><a xlink:href="../api/uqbar/graphs/Attributes.html#uqbar.graphs.Attributes.Attributes" xlink:title="Attributes" target="_top">
<path fill="#fed9a6" stroke="#fed9a6" stroke-width="2" d="M751.7348,-928.5C751.7348,-928.5 716.4014,-928.5 716.4014,-928.5 713.2348,-928.5 710.0681,-925.3333 710.0681,-922.1667 710.0681,-922.1667 710.0681,-915.8333 710.0681,-915.8333 710.0681,-912.6667 713.2348,-909.5 716.4014,-909.5 716.4014,-909.5 751.7348,-909.5 751.7348,-909.5 754.9014,-909.5 758.0681,-912.6667 758.0681,-915.8333 758.0681,-915.8333 758.0681,-922.1667 758.0681,-922.1667 758.0681,-925.3333 754.9014,-928.5 751.7348,-928.5"/>
<text text-anchor="middle" x="734.0681" y="-916.5" font-family="Arial" font-size="10.00" fill="#000000">Attributes</text>
</a>
</g>
</g>
<!-- uqbar.graphs.Edge.Edge -->
<g id="node45" class="node">
<title>uqbar.graphs.Edge.Edge</title>
<g id="a_node45"><a xlink:href="../api/uqbar/graphs/Edge.html#uqbar.graphs.Edge.Edge" xlink:title="Edge" target="_top">
<path fill="#fed9a6" stroke="#fed9a6" stroke-width="2" d="M744.7348,-965.5C744.7348,-965.5 723.4014,-965.5 723.4014,-965.5 720.2348,-965.5 717.0681,-962.3333 717.0681,-959.1667 717.0681,-959.1667 717.0681,-952.8333 717.0681,-952.8333 717.0681,-949.6667 720.2348,-946.5 723.4014,-946.5 723.4014,-946.5 744.7348,-946.5 744.7348,-946.5 747.9014,-946.5 751.0681,-949.6667 751.0681,-952.8333 751.0681,-952.8333 751.0681,-959.1667 751.0681,-959.1667 751.0681,-962.3333 747.9014,-965.5 744.7348,-965.5"/>
<text text-anchor="middle" x="734.0681" y="-953.5" font-family="Arial" font-size="10.00" fill="#000000">Edge</text>
</a>
</g>
</g>
<!-- uqbar.graphs.Graph.Graph -->
<g id="node46" class="node">
<title>uqbar.graphs.Graph.Graph</title>
<g id="a_node46"><a xlink:href="../api/uqbar/graphs/Graph.html#uqbar.graphs.Graph.Graph" xlink:title="Graph" target="_top">
<path fill="#fed9a6" stroke="#fed9a6" stroke-width="2" d="M746.2348,-694.5C746.2348,-694.5 721.9014,-694.5 721.9014,-694.5 718.7348,-694.5 715.5681,-691.3333 715.5681,-688.1667 715.5681,-688.1667 715.5681,-681.8333 715.5681,-681.8333 715.5681,-678.6667 718.7348,-675.5 721.9014,-675.5 721.9014,-675.5 746.2348,-675.5 746.2348,-675.5 749.4014,-675.5 752.5681,-678.6667 752.5681,-681.8333 752.5681,-681.8333 752.5681,-688.1667 752.5681,-688.1667 752.5681,-691.3333 749.4014,-694.5 746.2348,-694.5"/>
<text text-anchor="middle" x="734.0681" y="-682.5" font-family="Arial" font-size="10.00" fill="#000000">Graph</text>
</a>
</g>
</g>
<!-- uqbar.graphs.HRule.HRule -->
<g id="node47" class="node">
<title>uqbar.graphs.HRule.HRule</title>
<g id="a_node47"><a xlink:href="../api/uqbar/graphs/HRule.html#uqbar.graphs.HRule.HRule" xlink:title="HRule" target="_top">
<path fill="#fed9a6" stroke="#fed9a6" stroke-width="2" d="M746.2348,-854.5C746.2348,-854.5 721.9014,-854.5 721.9014,-854.5 718.7348,-854.5 715.5681,-851.3333 715.5681,-848.1667 715.5681,-848.1667 715.5681,-841.8333 715.5681,-841.8333 715.5681,-838.6667 718.7348,-835.5 721.9014,-835.5 721.9014,-835.5 746.2348,-835.5 746.2348,-835.5 749.4014,-835.5 752.5681,-838.6667 752.5681,-841.8333 752.5681,-841.8333 752.5681,-848.1667 752.5681,-848.1667 752.5681,-851.3333 749.4014,-854.5 746.2348,-854.5"/>
<text text-anchor="middle" x="734.0681" y="-842.5" font-family="Arial" font-size="10.00" fill="#000000">HRule</text>
</a>
</g>
</g>
<!-- uqbar.graphs.LineBreak.LineBreak -->
<g id="node48" class="node">
<title>uqbar.graphs.LineBreak.LineBreak</title>
<g id="a_node48"><a xlink:href="../api/uqbar/graphs/LineBreak.html#uqbar.graphs.LineBreak.LineBreak" xlink:title="Line\nBreak" target="_top">
<path fill="#fed9a6" stroke="#fed9a6" stroke-width="2" d="M742.0681,-817C742.0681,-817 726.0681,-817 726.0681,-817 721.0681,-817 716.0681,-812 716.0681,-807 716.0681,-807 716.0681,-797 716.0681,-797 716.0681,-792 721.0681,-787 726.0681,-787 726.0681,-787 742.0681,-787 742.0681,-787 747.0681,-787 752.0681,-792 752.0681,-797 752.0681,-797 752.0681,-807 752.0681,-807 752.0681,-812 747.0681,-817 742.0681,-817"/>
<text text-anchor="middle" x="734.0681" y="-805" font-family="Arial" font-size="10.00" fill="#000000">Line</text>
<text text-anchor="middle" x="734.0681" y="-794" font-family="Arial" font-size="10.00" fill="#000000">Break</text>
</a>
</g>
</g>
<!-- uqbar.graphs.Node.Node -->
<g id="node49" class="node">
<title>uqbar.graphs.Node.Node</title>
<g id="a_node49"><a xlink:href="../api/uqbar/graphs/Node.html#uqbar.graphs.Node.Node" xlink:title="Node" target="_top">
<path fill="#fed9a6" stroke="#fed9a6" stroke-width="2" d="M744.7348,-657.5C744.7348,-657.5 723.4014,-657.5 723.4014,-657.5 720.2348,-657.5 717.0681,-654.3333 717.0681,-651.1667 717.0681,-651.1667 717.0681,-644.8333 717.0681,-644.8333 717.0681,-641.6667 720.2348,-638.5 723.4014,-638.5 723.4014,-638.5 744.7348,-638.5 744.7348,-638.5 747.9014,-638.5 751.0681,-641.6667 751.0681,-644.8333 751.0681,-644.8333 751.0681,-651.1667 751.0681,-651.1667 751.0681,-654.3333 747.9014,-657.5 744.7348,-657.5"/>
<text text-anchor="middle" x="734.0681" y="-645.5" font-family="Arial" font-size="10.00" fill="#000000">Node</text>
</a>
</g>
</g>
<!-- uqbar.graphs.RecordGroup.RecordGroup -->
<g id="node50" class="node">
<title>uqbar.graphs.RecordGroup.RecordGroup</title>
<g id="a_node50"><a xlink:href="../api/uqbar/graphs/RecordGroup.html#uqbar.graphs.RecordGroup.RecordGroup" xlink:title="Record\nGroup" target="_top">
<path fill="#fed9a6" stroke="#fed9a6" stroke-width="2" d="M744.5681,-620C744.5681,-620 723.5681,-620 723.5681,-620 718.5681,-620 713.5681,-615 713.5681,-610 713.5681,-610 713.5681,-600 713.5681,-600 713.5681,-595 718.5681,-590 723.5681,-590 723.5681,-590 744.5681,-590 744.5681,-590 749.5681,-590 754.5681,-595 754.5681,-600 754.5681,-600 754.5681,-610 754.5681,-610 754.5681,-615 749.5681,-620 744.5681,-620"/>
<text text-anchor="middle" x="734.0681" y="-608" font-family="Arial" font-size="10.00" fill="#000000">Record</text>
<text text-anchor="middle" x="734.0681" y="-597" font-family="Arial" font-size="10.00" fill="#000000">Group</text>
</a>
</g>
</g>
<!-- uqbar.graphs.Table.Table -->
<g id="node51" class="node">
<title>uqbar.graphs.Table.Table</title>
<g id="a_node51"><a xlink:href="../api/uqbar/graphs/Table.html#uqbar.graphs.Table.Table" xlink:title="Table" target="_top">
<path fill="#fed9a6" stroke="#fed9a6" stroke-width="2" d="M745.2348,-571.5C745.2348,-571.5 722.9014,-571.5 722.9014,-571.5 719.7348,-571.5 716.5681,-568.3333 716.5681,-565.1667 716.5681,-565.1667 716.5681,-558.8333 716.5681,-558.8333 716.5681,-555.6667 719.7348,-552.5 722.9014,-552.5 722.9014,-552.5 745.2348,-552.5 745.2348,-552.5 748.4014,-552.5 751.5681,-555.6667 751.5681,-558.8333 751.5681,-558.8333 751.5681,-565.1667 751.5681,-565.1667 751.5681,-568.3333 748.4014,-571.5 745.2348,-571.5"/>
<text text-anchor="middle" x="734.0681" y="-559.5" font-family="Arial" font-size="10.00" fill="#000000">Table</text>
</a>
</g>
</g>
<!-- uqbar.graphs.TableRow.TableRow -->
<g id="node52" class="node">
<title>uqbar.graphs.TableRow.TableRow</title>
<g id="a_node52"><a xlink:href="../api/uqbar/graphs/TableRow.html#uqbar.graphs.TableRow.TableRow" xlink:title="Table\nRow" target="_top">
<path fill="#fed9a6" stroke="#fed9a6" stroke-width="2" d="M741.5681,-534C741.5681,-534 726.5681,-534 726.5681,-534 721.5681,-534 716.5681,-529 716.5681,-524 716.5681,-524 716.5681,-514 716.5681,-514 716.5681,-509 721.5681,-504 726.5681,-504 726.5681,-504 741.5681,-504 741.5681,-504 746.5681,-504 751.5681,-509 751.5681,-514 751.5681,-514 751.5681,-524 751.5681,-524 751.5681,-529 746.5681,-534 741.5681,-534"/>
<text text-anchor="middle" x="734.0681" y="-522" font-family="Arial" font-size="10.00" fill="#000000">Table</text>
<text text-anchor="middle" x="734.0681" y="-511" font-family="Arial" font-size="10.00" fill="#000000">Row</text>
</a>
</g>
</g>
<!-- uqbar.graphs.Text.Text -->
<g id="node53" class="node">
<title>uqbar.graphs.Text.Text</title>
<g id="a_node53"><a xlink:href="../api/uqbar/graphs/Text.html#uqbar.graphs.Text.Text" xlink:title="Text" target="_top">
<path fill="#fed9a6" stroke="#fed9a6" stroke-width="2" d="M743.2348,-768.5C743.2348,-768.5 724.9014,-768.5 724.9014,-768.5 721.7348,-768.5 718.5681,-765.3333 718.5681,-762.1667 718.5681,-762.1667 718.5681,-755.8333 718.5681,-755.8333 718.5681,-752.6667 721.7348,-749.5 724.9014,-749.5 724.9014,-749.5 743.2348,-749.5 743.2348,-749.5 746.4014,-749.5 749.5681,-752.6667 749.5681,-755.8333 749.5681,-755.8333 749.5681,-762.1667 749.5681,-762.1667 749.5681,-765.3333 746.4014,-768.5 743.2348,-768.5"/>
<text text-anchor="middle" x="734.0681" y="-756.5" font-family="Arial" font-size="10.00" fill="#000000">Text</text>
</a>
</g>
</g>
<!-- uqbar.graphs.VRule.VRule -->
<g id="node54" class="node">
<title>uqbar.graphs.VRule.VRule</title>
<g id="a_node54"><a xlink:href="../api/uqbar/graphs/VRule.html#uqbar.graphs.VRule.VRule" xlink:title="VRule" target="_top">
<path fill="#fed9a6" stroke="#fed9a6" stroke-width="2" d="M746.2348,-731.5C746.2348,-731.5 721.9014,-731.5 721.9014,-731.5 718.7348,-731.5 715.5681,-728.3333 715.5681,-725.1667 715.5681,-725.1667 715.5681,-718.8333 715.5681,-718.8333 715.5681,-715.6667 718.7348,-712.5 721.9014,-712.5 721.9014,-712.5 746.2348,-712.5 746.2348,-712.5 749.4014,-712.5 752.5681,-715.6667 752.5681,-718.8333 752.5681,-718.8333 752.5681,-725.1667 752.5681,-725.1667 752.5681,-728.3333 749.4014,-731.5 746.2348,-731.5"/>
<text text-anchor="middle" x="734.0681" y="-719.5" font-family="Arial" font-size="10.00" fill="#000000">VRule</text>
</a>
</g>
</g>
<!-- uqbar.io.DirectoryChange.DirectoryChange -->
<g id="node55" class="node">
<title>uqbar.io.DirectoryChange.DirectoryChange</title>
<g id="a_node55"><a xlink:href="../api/uqbar/io/DirectoryChange.html#uqbar.io.DirectoryChange.DirectoryChange" xlink:title="Directory\nChange" target="_top">
<path fill="#ffffcc" stroke="#ffffcc" stroke-width="2" d="M292.0599,-170C292.0599,-170 265.0599,-170 265.0599,-170 260.0599,-170 255.0599,-165 255.0599,-160 255.0599,-160 255.0599,-150 255.0599,-150 255.0599,-145 260.0599,-140 265.0599,-140 265.0599,-140 292.0599,-140 292.0599,-140 297.0599,-140 302.0599,-145 302.0599,-150 302.0599,-150 302.0599,-160 302.0599,-160 302.0599,-165 297.0599,-170 292.0599,-170"/>
<text text-anchor="middle" x="278.5599" y="-158" font-family="Arial" font-size="10.00" fill="#000000">Directory</text>
<text text-anchor="middle" x="278.5599" y="-147" font-family="Arial" font-size="10.00" fill="#000000">Change</text>
</a>
</g>
</g>
<!-- uqbar.io.Profiler.Profiler -->
<g id="node56" class="node">
<title>uqbar.io.Profiler.Profiler</title>
<g id="a_node56"><a xlink:href="../api/uqbar/io/Profiler.html#uqbar.io.Profiler.Profiler" xlink:title="Profiler" target="_top">
<path fill="#ffffcc" stroke="#ffffcc" stroke-width="2" d="M292.2266,-121.5C292.2266,-121.5 264.8933,-121.5 264.8933,-121.5 261.7266,-121.5 258.5599,-118.3333 258.5599,-115.1667 258.5599,-115.1667 258.5599,-108.8333 258.5599,-108.8333 258.5599,-105.6667 261.7266,-102.5 264.8933,-102.5 264.8933,-102.5 292.2266,-102.5 292.2266,-102.5 295.3933,-102.5 298.5599,-105.6667 298.5599,-108.8333 298.5599,-108.8333 298.5599,-115.1667 298.5599,-115.1667 298.5599,-118.3333 295.3933,-121.5 292.2266,-121.5"/>
<text text-anchor="middle" x="278.5599" y="-109.5" font-family="Arial" font-size="10.00" fill="#000000">Profiler</text>
</a>
</g>
</g>
<!-- uqbar.io.RedirectedStreams.RedirectedStreams -->
<g id="node57" class="node">
<title>uqbar.io.RedirectedStreams.RedirectedStreams</title>
<g id="a_node57"><a xlink:href="../api/uqbar/io/RedirectedStreams.html#uqbar.io.RedirectedStreams.RedirectedStreams" xlink:title="Redirected\nStreams" target="_top">
<path fill="#ffffcc" stroke="#ffffcc" stroke-width="2" d="M295.0599,-84C295.0599,-84 262.0599,-84 262.0599,-84 257.0599,-84 252.0599,-79 252.0599,-74 252.0599,-74 252.0599,-64 252.0599,-64 252.0599,-59 257.0599,-54 262.0599,-54 262.0599,-54 295.0599,-54 295.0599,-54 300.0599,-54 305.0599,-59 305.0599,-64 305.0599,-64 305.0599,-74 305.0599,-74 305.0599,-79 300.0599,-84 295.0599,-84"/>
<text text-anchor="middle" x="278.5599" y="-72" font-family="Arial" font-size="10.00" fill="#000000">Redirected</text>
<text text-anchor="middle" x="278.5599" y="-61" font-family="Arial" font-size="10.00" fill="#000000">Streams</text>
</a>
</g>
</g>
<!-- uqbar.io.Timer.Timer -->
<g id="node58" class="node">
<title>uqbar.io.Timer.Timer</title>
<g id="a_node58"><a xlink:href="../api/uqbar/io/Timer.html#uqbar.io.Timer.Timer" xlink:title="Timer" target="_top">
<path fill="#ffffcc" stroke="#ffffcc" stroke-width="2" d="M290.2266,-35.5C290.2266,-35.5 266.8933,-35.5 266.8933,-35.5 263.7266,-35.5 260.5599,-32.3333 260.5599,-29.1667 260.5599,-29.1667 260.5599,-22.8333 260.5599,-22.8333 260.5599,-19.6667 263.7266,-16.5 266.8933,-16.5 266.8933,-16.5 290.2266,-16.5 290.2266,-16.5 293.3933,-16.5 296.5599,-19.6667 296.5599,-22.8333 296.5599,-22.8333 296.5599,-29.1667 296.5599,-29.1667 296.5599,-32.3333 293.3933,-35.5 290.2266,-35.5"/>
<text text-anchor="middle" x="278.5599" y="-23.5" font-family="Arial" font-size="10.00" fill="#000000">Timer</text>
</a>
</g>
</g>
<!-- uqbar.sphinx.inheritance.InheritanceDiagram -->
<g id="node59" class="node">
<title>uqbar.sphinx.inheritance.InheritanceDiagram</title>
<g id="a_node59"><a xlink:href="../api/uqbar/sphinx/inheritance.html#uqbar.sphinx.inheritance.InheritanceDiagram" xlink:title="Inheritance\nDiagram" target="_top">
<path fill="#e5d8bd" stroke="#e5d8bd" stroke-width="2" d="M423.1701,-253C423.1701,-253 389.1701,-253 389.1701,-253 384.1701,-253 379.1701,-248 379.1701,-243 379.1701,-243 379.1701,-233 379.1701,-233 379.1701,-228 384.1701,-223 389.1701,-223 389.1701,-223 423.1701,-223 423.1701,-223 428.1701,-223 433.1701,-228 433.1701,-233 433.1701,-233 433.1701,-243 433.1701,-243 433.1701,-248 428.1701,-253 423.1701,-253"/>
<text text-anchor="middle" x="406.1701" y="-241" font-family="Arial" font-size="10.00" fill="#000000">Inheritance</text>
<text text-anchor="middle" x="406.1701" y="-230" font-family="Arial" font-size="10.00" fill="#000000">Diagram</text>
</a>
</g>
</g>
<!-- uqbar.sphinx.inheritance.inheritance_diagram -->
<g id="node60" class="node">
<title>uqbar.sphinx.inheritance.inheritance_diagram</title>
<g id="a_node60"><a xlink:href="../api/uqbar/sphinx/inheritance.html#uqbar.sphinx.inheritance.inheritance_diagram" xlink:title="inheritance\ndiagram" target="_top">
<path fill="#e5d8bd" stroke="#e5d8bd" stroke-width="2" d="M422.6701,-301C422.6701,-301 389.6701,-301 389.6701,-301 384.6701,-301 379.6701,-296 379.6701,-291 379.6701,-291 379.6701,-281 379.6701,-281 379.6701,-276 384.6701,-271 389.6701,-271 389.6701,-271 422.6701,-271 422.6701,-271 427.6701,-271 432.6701,-276 432.6701,-281 432.6701,-281 432.6701,-291 432.6701,-291 432.6701,-296 427.6701,-301 422.6701,-301"/>
<text text-anchor="middle" x="406.1701" y="-289" font-family="Arial" font-size="10.00" fill="#000000">inheritance</text>
<text text-anchor="middle" x="406.1701" y="-278" font-family="Arial" font-size="10.00" fill="#000000">diagram</text>
</a>
</g>
</g>
</g>
</svg>
