<?xml version="1.0" encoding="UTF-8" standalone="no"?>
<!DOCTYPE svg PUBLIC "-//W3C//DTD SVG 1.1//EN"
 "http://www.w3.org/Graphics/SVG/1.1/DTD/svg11.dtd">
<!-- Generated by graphviz version 2.44.0 (20200408.0750)
 -->
<!-- Title: InheritanceGraph Pages: 1 -->
<svg width="436pt" height="174pt"
 viewBox="0.00 0.00 436.00 174.00" xmlns="http://www.w3.org/2000/svg" xmlns:xlink="http://www.w3.org/1999/xlink">
<g id="graph0" class="graph" transform="scale(1 1) rotate(0) translate(4 170)">
<title>InheritanceGraph</title>
<g id="clust1" class="cluster">
<title>cluster_builtins</title>
<path fill="transparent" stroke="#bcd2ee" stroke-width="2" stroke-dasharray="5,2" d="M20,-92C20,-92 55,-92 55,-92 61,-92 67,-98 67,-104 67,-104 67,-135 67,-135 67,-141 61,-147 55,-147 55,-147 20,-147 20,-147 14,-147 8,-141 8,-135 8,-135 8,-104 8,-104 8,-98 14,-92 20,-92"/>
<text text-anchor="middle" x="37.5" y="-135" font-family="Arial" font-size="10.00">builtins</text>
</g>
<g id="clust2" class="cluster">
<title>cluster_uqbar.containers</title>
<path fill="transparent" stroke="#bcd2ee" stroke-width="2" stroke-dasharray="5,2" d="M99,-81C99,-81 324,-81 324,-81 330,-81 336,-87 336,-93 336,-93 336,-146 336,-146 336,-152 330,-158 324,-158 324,-158 99,-158 99,-158 93,-158 87,-152 87,-146 87,-146 87,-93 87,-93 87,-87 93,-81 99,-81"/>
<text text-anchor="middle" x="211.5" y="-146" font-family="Arial" font-size="10.00">uqbar.containers</text>
</g>
<g id="clust3" class="cluster">
<title>cluster_uqbar.graphs</title>
<path fill="transparent" stroke="#bcd2ee" stroke-width="2" stroke-dasharray="5,2" d="M277,-8C277,-8 408,-8 408,-8 414,-8 420,-14 420,-20 420,-20 420,-61 420,-61 420,-67 414,-73 408,-73 408,-73 277,-73 277,-73 271,-73 265,-67 265,-61 265,-61 265,-20 265,-20 265,-14 271,-8 277,-8"/>
<text text-anchor="middle" x="342.5" y="-61" font-family="Arial" font-size="10.00">uqbar.graphs</text>
</g>
<!-- builtins.object&#45;&gt;uqbar.containers.UniqueTreeNode.UniqueTreeNode -->
<g id="edge4" class="edge">
<title>builtins.object&#45;&gt;uqbar.containers.UniqueTreeNode.UniqueTreeNode</title>
<path fill="none" stroke="lightslategrey" d="M59.26,-110C67.06,-110 76.13,-110 84.75,-110"/>
<polygon fill="lightslategrey" stroke="lightslategrey" points="84.94,-113.5 94.94,-110 84.94,-106.5 84.94,-113.5"/>
</g>
<!-- uqbar.containers.UniqueTreeContainer.UniqueTreeContainer&#45;&gt;uqbar.containers.UniqueTreeList.UniqueTreeList -->
<g id="edge1" class="edge">
<title>uqbar.containers.UniqueTreeContainer.UniqueTreeContainer&#45;&gt;uqbar.containers.UniqueTreeList.UniqueTreeList</title>
<path fill="none" stroke="lightslategrey" d="M237,-110C247.61,-110 259.72,-110 270.68,-110"/>
<polygon fill="lightslategrey" stroke="lightslategrey" points="270.75,-113.5 280.75,-110 270.75,-106.5 270.75,-113.5"/>
</g>
<!-- uqbar.containers.UniqueTreeList.UniqueTreeList&#45;&gt;uqbar.graphs.TableCell.TableCell -->
<g id="edge5" class="edge">
<title>uqbar.containers.UniqueTreeList.UniqueTreeList&#45;&gt;uqbar.graphs.TableCell.TableCell</title>
<path fill="none" stroke="lightslategrey" d="M327.96,-89.24C339.98,-78.14 354.77,-64.47 367.01,-53.17"/>
<polygon fill="lightslategrey" stroke="lightslategrey" points="369.66,-55.48 374.63,-46.13 364.91,-50.34 369.66,-55.48"/>
</g>
<!-- uqbar.containers.UniqueTreeNode.UniqueTreeNode&#45;&gt;uqbar.containers.UniqueTreeContainer.UniqueTreeContainer -->
<g id="edge2" class="edge">
<title>uqbar.containers.UniqueTreeNode.UniqueTreeNode&#45;&gt;uqbar.containers.UniqueTreeContainer.UniqueTreeContainer</title>
<path fill="none" stroke="lightslategrey" d="M142.36,-110C150.17,-110 159.15,-110 167.86,-110"/>
<polygon fill="lightslategrey" stroke="lightslategrey" points="167.88,-113.5 177.88,-110 167.88,-106.5 167.88,-113.5"/>
</g>
<!-- uqbar.containers.UniqueTreeNode.UniqueTreeNode&#45;&gt;uqbar.graphs.Attachable.Attachable -->
<g id="edge6" class="edge">
<title>uqbar.containers.UniqueTreeNode.UniqueTreeNode&#45;&gt;uqbar.graphs.Attachable.Attachable</title>
<path fill="none" stroke="lightslategrey" d="M142.04,-98.2C152.81,-92.72 165.95,-86.27 178,-81 207.43,-68.11 241.51,-55.2 266.73,-46.02"/>
<polygon fill="lightslategrey" stroke="lightslategrey" points="268.06,-49.26 276.27,-42.57 265.68,-42.68 268.06,-49.26"/>
</g>
<!-- uqbar.graphs.Attachable.Attachable&#45;&gt;uqbar.graphs.TableCell.TableCell -->
<g id="edge3" class="edge">
<title>uqbar.graphs.Attachable.Attachable&#45;&gt;uqbar.graphs.TableCell.TableCell</title>
<path fill="none" stroke="lightslategrey" d="M336.37,-32.28C344.62,-32.09 353.5,-31.88 361.67,-31.69"/>
<polygon fill="lightslategrey" stroke="lightslategrey" points="361.95,-35.18 371.87,-31.45 361.79,-28.18 361.95,-35.18"/>
</g>
<!-- builtins.object -->
<g id="node1" class="node">
<title>builtins.object</title>
<g id="a_node1"><a xlink:href="https://docs.python.org/3.6/library/functions.html#object" xlink:title="object" target="_top">
<path fill="#fbb4ae" stroke="#fbb4ae" stroke-width="2" d="M52.67,-119.5C52.67,-119.5 22.33,-119.5 22.33,-119.5 19.17,-119.5 16,-116.33 16,-113.17 16,-113.17 16,-106.83 16,-106.83 16,-103.67 19.17,-100.5 22.33,-100.5 22.33,-100.5 52.67,-100.5 52.67,-100.5 55.83,-100.5 59,-103.67 59,-106.83 59,-106.83 59,-113.17 59,-113.17 59,-116.33 55.83,-119.5 52.67,-119.5"/>
<text text-anchor="middle" x="37.5" y="-107.5" font-family="Arial" font-size="10.00">object</text>
</a>
</g>
</g>
<!-- uqbar.containers.UniqueTreeContainer.UniqueTreeContainer -->
<g id="node2" class="node">
<title>uqbar.containers.UniqueTreeContainer.UniqueTreeContainer</title>
<g id="a_node2"><a xlink:href="../api/uqbar/graphs/../containers/UniqueTreeContainer.html#uqbar.containers.UniqueTreeContainer.UniqueTreeContainer" xlink:title="Unique\nTree\nContainer" target="_top">
<path fill="#b3cde3" stroke="#b3cde3" stroke-width="2" d="M225,-130.5C225,-130.5 190,-130.5 190,-130.5 184,-130.5 178,-124.5 178,-118.5 178,-118.5 178,-101.5 178,-101.5 178,-95.5 184,-89.5 190,-89.5 190,-89.5 225,-89.5 225,-89.5 231,-89.5 237,-95.5 237,-101.5 237,-101.5 237,-118.5 237,-118.5 237,-124.5 231,-130.5 225,-130.5"/>
<text text-anchor="middle" x="207.5" y="-118.5" font-family="Arial" font-size="10.00">Unique</text>
<text text-anchor="middle" x="207.5" y="-107.5" font-family="Arial" font-size="10.00">Tree</text>
<text text-anchor="middle" x="207.5" y="-96.5" font-family="Arial" font-size="10.00">Container</text>
</a>
</g>
</g>
<!-- uqbar.containers.UniqueTreeList.UniqueTreeList -->
<g id="node3" class="node">
<title>uqbar.containers.UniqueTreeList.UniqueTreeList</title>
<g id="a_node3"><a xlink:href="../api/uqbar/graphs/../containers/UniqueTreeList.html#uqbar.containers.UniqueTreeList.UniqueTreeList" xlink:title="Unique\nTree\nList" target="_top">
<path fill="#b3cde3" stroke="#b3cde3" stroke-width="2" d="M316,-130.5C316,-130.5 293,-130.5 293,-130.5 287,-130.5 281,-124.5 281,-118.5 281,-118.5 281,-101.5 281,-101.5 281,-95.5 287,-89.5 293,-89.5 293,-89.5 316,-89.5 316,-89.5 322,-89.5 328,-95.5 328,-101.5 328,-101.5 328,-118.5 328,-118.5 328,-124.5 322,-130.5 316,-130.5"/>
<text text-anchor="middle" x="304.5" y="-118.5" font-family="Arial" font-size="10.00">Unique</text>
<text text-anchor="middle" x="304.5" y="-107.5" font-family="Arial" font-size="10.00">Tree</text>
<text text-anchor="middle" x="304.5" y="-96.5" font-family="Arial" font-size="10.00">List</text>
</a>
</g>
</g>
<!-- uqbar.containers.UniqueTreeNode.UniqueTreeNode -->
<g id="node4" class="node">
<title>uqbar.containers.UniqueTreeNode.UniqueTreeNode</title>
<g id="a_node4"><a xlink:href="../api/uqbar/graphs/../containers/UniqueTreeNode.html#uqbar.containers.UniqueTreeNode.UniqueTreeNode" xlink:title="Unique\nTree\nNode" target="_top">
<path fill="#b3cde3" stroke="#b3cde3" stroke-width="2" d="M130,-130.5C130,-130.5 107,-130.5 107,-130.5 101,-130.5 95,-124.5 95,-118.5 95,-118.5 95,-101.5 95,-101.5 95,-95.5 101,-89.5 107,-89.5 107,-89.5 130,-89.5 130,-89.5 136,-89.5 142,-95.5 142,-101.5 142,-101.5 142,-118.5 142,-118.5 142,-124.5 136,-130.5 130,-130.5"/>
<text text-anchor="middle" x="118.5" y="-118.5" font-family="Arial" font-size="10.00">Unique</text>
<text text-anchor="middle" x="118.5" y="-107.5" font-family="Arial" font-size="10.00">Tree</text>
<text text-anchor="middle" x="118.5" y="-96.5" font-family="Arial" font-size="10.00">Node</text>
</a>
</g>
</g>
<!-- uqbar.graphs.Attachable.Attachable -->
<g id="node5" class="node">
<title>uqbar.graphs.Attachable.Attachable</title>
<g id="a_node5"><a xlink:href="../api/uqbar/graphs/Attachable.html#uqbar.graphs.Attachable.Attachable" xlink:title="Attachable" target="_top">
<path fill="#ccebc5" stroke="#ccebc5" stroke-width="2" d="M329.67,-42.5C329.67,-42.5 279.33,-42.5 279.33,-42.5 276.17,-42.5 273,-39.33 273,-36.17 273,-36.17 273,-29.83 273,-29.83 273,-26.67 276.17,-23.5 279.33,-23.5 279.33,-23.5 329.67,-23.5 329.67,-23.5 332.83,-23.5 336,-26.67 336,-29.83 336,-29.83 336,-36.17 336,-36.17 336,-39.33 332.83,-42.5 329.67,-42.5"/>
<text text-anchor="middle" x="304.5" y="-30.5" font-family="Arial" font-size="10.00">Attachable</text>
</a>
</g>
</g>
<!-- uqbar.graphs.TableCell.TableCell -->
<g id="node6" class="node">
<title>uqbar.graphs.TableCell.TableCell</title>
<g id="a_node6"><a xlink:href="../api/uqbar/graphs/TableCell.html#uqbar.graphs.TableCell.TableCell" xlink:title="Table\nCell" target="_top">
<path fill="black" stroke="black" stroke-width="2" d="M402,-46C402,-46 382,-46 382,-46 377,-46 372,-41 372,-36 372,-36 372,-26 372,-26 372,-21 377,-16 382,-16 382,-16 402,-16 402,-16 407,-16 412,-21 412,-26 412,-26 412,-36 412,-36 412,-41 407,-46 402,-46"/>
<text text-anchor="middle" x="392" y="-34" font-family="Arial" font-size="10.00" fill="white">Table</text>
<text text-anchor="middle" x="392" y="-23" font-family="Arial" font-size="10.00" fill="white">Cell</text>
</a>
</g>
</g>
</g>
</svg>
