<?xml version="1.0" encoding="UTF-8" standalone="no"?>
<!DOCTYPE svg PUBLIC "-//W3C//DTD SVG 1.1//EN"
 "http://www.w3.org/Graphics/SVG/1.1/DTD/svg11.dtd">
<!-- Generated by graphviz version 2.40.1 (20161225.0304)
 -->
<!-- Title: InheritanceGraph Pages: 1 -->
<svg width="349pt" height="85pt"
 viewBox="0.00 0.00 348.52 85.00" xmlns="http://www.w3.org/2000/svg" xmlns:xlink="http://www.w3.org/1999/xlink">
<g id="graph0" class="graph" transform="scale(1 1) rotate(0) translate(4 81)">
<title>InheritanceGraph</title>
<g id="clust1" class="cluster">
<title>cluster_abc</title>
<path fill="transparent" stroke="#bcd2ee" stroke-width="2" stroke-dasharray="5,2" d="M93,-11C93,-11 117,-11 117,-11 123,-11 129,-17 129,-23 129,-23 129,-54 129,-54 129,-60 123,-66 117,-66 117,-66 93,-66 93,-66 87,-66 81,-60 81,-54 81,-54 81,-23 81,-23 81,-17 87,-11 93,-11"/>
<text text-anchor="middle" x="105" y="-54" font-family="Arial" font-size="10.00" fill="#000000">abc</text>
</g>
<g id="clust2" class="cluster">
<title>cluster_builtins</title>
<path fill="transparent" stroke="#bcd2ee" stroke-width="2" stroke-dasharray="5,2" d="M20,-11C20,-11 49,-11 49,-11 55,-11 61,-17 61,-23 61,-23 61,-54 61,-54 61,-60 55,-66 49,-66 49,-66 20,-66 20,-66 14,-66 8,-60 8,-54 8,-54 8,-23 8,-23 8,-17 14,-11 20,-11"/>
<text text-anchor="middle" x="34.5" y="-54" font-family="Arial" font-size="10.00" fill="#000000">builtins</text>
</g>
<g id="clust3" class="cluster">
<title>cluster_uqbar.cli</title>
<path fill="transparent" stroke="#bcd2ee" stroke-width="2" stroke-dasharray="5,2" d="M161,-8C161,-8 320.5219,-8 320.5219,-8 326.5219,-8 332.5219,-14 332.5219,-20 332.5219,-20 332.5219,-57 332.5219,-57 332.5219,-63 326.5219,-69 320.5219,-69 320.5219,-69 161,-69 161,-69 155,-69 149,-63 149,-57 149,-57 149,-20 149,-20 149,-14 155,-8 161,-8"/>
<text text-anchor="middle" x="240.7609" y="-57" font-family="Arial" font-size="10.00" fill="#000000">uqbar.cli</text>
</g>
<!-- abc.ABC&#45;&gt;uqbar.cli.CLI.CLI -->
<g id="edge2" class="edge">
<title>abc.ABC&#45;&gt;uqbar.cli.CLI.CLI</title>
<path fill="none" stroke="#778899" d="M121.2923,-29C128.8224,-29 138.0128,-29 146.7317,-29"/>
<polygon fill="#778899" stroke="#778899" points="146.9896,-32.5001 156.9895,-29 146.9895,-25.5001 146.9896,-32.5001"/>
</g>
<!-- builtins.object&#45;&gt;abc.ABC -->
<g id="edge3" class="edge">
<title>builtins.object&#45;&gt;abc.ABC</title>
<path fill="none" stroke="#778899" d="M53.023,-29C60.8254,-29 70.0511,-29 78.5482,-29"/>
<polygon fill="#778899" stroke="#778899" points="78.7595,-32.5001 88.7595,-29 78.7595,-25.5001 78.7595,-32.5001"/>
</g>
<!-- uqbar.cli.CLI.CLI&#45;&gt;uqbar.cli.CLIAggregator.CLIAggregator -->
<g id="edge1" class="edge">
<title>uqbar.cli.CLI.CLI&#45;&gt;uqbar.cli.CLIAggregator.CLIAggregator</title>
<path fill="none" stroke="#778899" d="M196.9037,-29C204.3105,-29 213.1111,-29 222.1472,-29"/>
<polygon fill="#778899" stroke="#778899" points="222.3876,-32.5001 232.3876,-29 222.3876,-25.5001 222.3876,-32.5001"/>
</g>
<!-- abc.ABC -->
<g id="node1" class="node">
<title>abc.ABC</title>
<g id="a_node1"><a xlink:href="https://docs.python.org/3.6/library/abc.html#abc.ABC" xlink:title="ABC" target="_top">
<path fill="#fbb4ae" stroke="#fbb4ae" stroke-width="2" d="M114.6667,-38.5C114.6667,-38.5 95.3333,-38.5 95.3333,-38.5 92.1667,-38.5 89,-35.3333 89,-32.1667 89,-32.1667 89,-25.8333 89,-25.8333 89,-22.6667 92.1667,-19.5 95.3333,-19.5 95.3333,-19.5 114.6667,-19.5 114.6667,-19.5 117.8333,-19.5 121,-22.6667 121,-25.8333 121,-25.8333 121,-32.1667 121,-32.1667 121,-35.3333 117.8333,-38.5 114.6667,-38.5"/>
<text text-anchor="middle" x="105" y="-26.5" font-family="Arial" font-size="10.00" fill="#000000">ABC</text>
</a>
</g>
</g>
<!-- builtins.object -->
<g id="node2" class="node">
<title>builtins.object</title>
<g id="a_node2"><a xlink:href="https://docs.python.org/3.6/library/functions.html#object" xlink:title="object" target="_top">
<path fill="#b3cde3" stroke="#b3cde3" stroke-width="2" d="M46.6667,-38.5C46.6667,-38.5 22.3333,-38.5 22.3333,-38.5 19.1667,-38.5 16,-35.3333 16,-32.1667 16,-32.1667 16,-25.8333 16,-25.8333 16,-22.6667 19.1667,-19.5 22.3333,-19.5 22.3333,-19.5 46.6667,-19.5 46.6667,-19.5 49.8333,-19.5 53,-22.6667 53,-25.8333 53,-25.8333 53,-32.1667 53,-32.1667 53,-35.3333 49.8333,-38.5 46.6667,-38.5"/>
<text text-anchor="middle" x="34.5" y="-26.5" font-family="Arial" font-size="10.00" fill="#000000">object</text>
</a>
</g>
</g>
<!-- uqbar.cli.CLI.CLI -->
<g id="node3" class="node">
<title>uqbar.cli.CLI.CLI</title>
<g id="a_node3"><a xlink:href="../api/uqbar/cli/CLI.html#uqbar.cli.CLI.CLI" xlink:title="CLI" target="_top">
<ellipse fill="#000000" stroke="#000000" stroke-width="2" cx="176.799" cy="-29" rx="19.6" ry="13.3704"/>
<text text-anchor="middle" x="176.799" y="-26.5" font-family="Arial" font-size="10.00" fill="#ffffff">CLI</text>
</a>
</g>
</g>
<!-- uqbar.cli.CLIAggregator.CLIAggregator -->
<g id="node4" class="node">
<title>uqbar.cli.CLIAggregator.CLIAggregator</title>
<g id="a_node4"><a xlink:href="../api/uqbar/cli/CLIAggregator.html#uqbar.cli.CLIAggregator.CLIAggregator" xlink:title="CLIAggregator" target="_top">
<ellipse fill="none" stroke="#ccebc5" stroke-width="2" cx="278.5599" cy="-29" rx="45.9239" ry="13.3704"/>
<text text-anchor="middle" x="278.5599" y="-26.5" font-family="Arial" font-size="10.00" fill="#000000">CLIAggregator</text>
</a>
</g>
</g>
</g>
</svg>
