<?xml version="1.0" encoding="UTF-8" standalone="no"?>
<!DOCTYPE svg PUBLIC "-//W3C//DTD SVG 1.1//EN"
 "http://www.w3.org/Graphics/SVG/1.1/DTD/svg11.dtd">
<!-- Generated by graphviz version 2.40.1 (20161225.0304)
 -->
<!-- Title: InheritanceGraph Pages: 1 -->
<svg width="431pt" height="314pt"
 viewBox="0.00 0.00 431.00 314.00" xmlns="http://www.w3.org/2000/svg" xmlns:xlink="http://www.w3.org/1999/xlink">
<g id="graph0" class="graph" transform="scale(1 1) rotate(0) translate(4 310)">
<title>InheritanceGraph</title>
<g id="clust1" class="cluster">
<title>cluster_builtins</title>
<path fill="transparent" stroke="#bcd2ee" stroke-width="2" stroke-dasharray="5,2" d="M20,-233C20,-233 220.5,-233 220.5,-233 226.5,-233 232.5,-239 232.5,-245 232.5,-245 232.5,-286 232.5,-286 232.5,-292 226.5,-298 220.5,-298 220.5,-298 20,-298 20,-298 14,-298 8,-292 8,-286 8,-286 8,-245 8,-245 8,-239 14,-233 20,-233"/>
<text text-anchor="middle" x="120.25" y="-286" font-family="Arial" font-size="10.00" fill="#000000">builtins</text>
</g>
<g id="clust2" class="cluster">
<title>cluster_code</title>
<path fill="transparent" stroke="#bcd2ee" stroke-width="2" stroke-dasharray="5,2" d="M178.5,-160C178.5,-160 309,-160 309,-160 315,-160 321,-166 321,-172 321,-172 321,-213 321,-213 321,-219 315,-225 309,-225 309,-225 178.5,-225 178.5,-225 172.5,-225 166.5,-219 166.5,-213 166.5,-213 166.5,-172 166.5,-172 166.5,-166 172.5,-160 178.5,-160"/>
<text text-anchor="middle" x="243.75" y="-213" font-family="Arial" font-size="10.00" fill="#000000">code</text>
</g>
<g id="clust3" class="cluster">
<title>cluster_uqbar.book.console</title>
<path fill="transparent" stroke="#bcd2ee" stroke-width="2" stroke-dasharray="5,2" d="M353,-8C353,-8 411,-8 411,-8 417,-8 423,-14 423,-20 423,-20 423,-195 423,-195 423,-201 417,-207 411,-207 411,-207 353,-207 353,-207 347,-207 341,-201 341,-195 341,-195 341,-20 341,-20 341,-14 347,-8 353,-8"/>
<text text-anchor="middle" x="382" y="-195" font-family="Arial" font-size="10.00" fill="#000000">uqbar.book.console</text>
</g>
<g id="clust4" class="cluster">
<title>cluster_uqbar.book.extensions</title>
<path fill="transparent" stroke="#bcd2ee" stroke-width="2" stroke-dasharray="5,2" d="M178,-49C178,-49 308,-49 308,-49 314,-49 320,-55 320,-61 320,-61 320,-140 320,-140 320,-146 314,-152 308,-152 308,-152 178,-152 178,-152 172,-152 166,-146 166,-140 166,-140 166,-61 166,-61 166,-55 172,-49 178,-49"/>
<text text-anchor="middle" x="243" y="-140" font-family="Arial" font-size="10.00" fill="#000000">uqbar.book.extensions</text>
</g>
<!-- builtins.BaseException&#45;&gt;builtins.Exception -->
<g id="edge1" class="edge">
<title>builtins.BaseException&#45;&gt;builtins.Exception</title>
<path fill="none" stroke="#778899" d="M138.0561,-255.1483C146.5479,-254.8538 156.2304,-254.518 165.3764,-254.2008"/>
<polygon fill="#778899" stroke="#778899" points="165.5099,-257.6984 175.3825,-253.8538 165.2672,-250.7026 165.5099,-257.6984"/>
</g>
<!-- builtins.Exception&#45;&gt;uqbar.book.console.ConsoleError -->
<g id="edge5" class="edge">
<title>builtins.Exception&#45;&gt;uqbar.book.console.ConsoleError</title>
<path fill="none" stroke="#778899" d="M224.6638,-252.4286C250.2176,-250.884 290.5963,-245.7124 321,-229 338.8231,-219.203 354.5376,-202.4026 365.5517,-188.473"/>
<polygon fill="#778899" stroke="#778899" points="368.5266,-190.3424 371.7789,-180.2591 362.9484,-186.1134 368.5266,-190.3424"/>
</g>
<!-- builtins.object&#45;&gt;builtins.BaseException -->
<g id="edge2" class="edge">
<title>builtins.object&#45;&gt;builtins.BaseException</title>
<path fill="none" stroke="#778899" d="M53.2219,-252.1849C60.8959,-252.6706 70.0326,-253.2489 78.843,-253.8065"/>
<polygon fill="#778899" stroke="#778899" points="78.7274,-257.3061 88.9285,-254.4448 79.1696,-250.3201 78.7274,-257.3061"/>
</g>
<!-- builtins.object&#45;&gt;code.InteractiveInterpreter -->
<g id="edge6" class="edge">
<title>builtins.object&#45;&gt;code.InteractiveInterpreter</title>
<path fill="none" stroke="#778899" d="M53.1632,-243.3317C80.1695,-232.2355 130.6408,-211.498 164.7809,-197.4707"/>
<polygon fill="#778899" stroke="#778899" points="166.4558,-200.5665 174.3753,-193.5286 163.7955,-194.0917 166.4558,-200.5665"/>
</g>
<!-- builtins.object&#45;&gt;uqbar.book.console.ConsoleInput -->
<g id="edge7" class="edge">
<title>builtins.object&#45;&gt;uqbar.book.console.ConsoleInput</title>
<path fill="none" stroke="#778899" d="M36.5004,-241.3949C44.6429,-205.2612 79.0919,-77.8817 166,-45 230.4314,-20.6224 254.3256,-27.6735 321,-45 324.4894,-45.9068 337.905,-53.3109 351.2695,-60.9789"/>
<polygon fill="#778899" stroke="#778899" points="349.5303,-64.0162 359.9396,-65.9903 353.0333,-57.9557 349.5303,-64.0162"/>
</g>
<!-- builtins.object&#45;&gt;uqbar.book.console.ConsoleOutput -->
<g id="edge8" class="edge">
<title>builtins.object&#45;&gt;uqbar.book.console.ConsoleOutput</title>
<path fill="none" stroke="#778899" d="M36.0565,-241.2726C41.8908,-205.8799 63.4404,-84.544 89,-56 154.8373,17.5247 288.3218,-5.7378 349.7439,-21.538"/>
<polygon fill="#778899" stroke="#778899" points="349.0889,-24.9857 359.6534,-24.1851 350.8955,-18.2228 349.0889,-24.9857"/>
</g>
<!-- builtins.object&#45;&gt;uqbar.book.extensions.Extension -->
<g id="edge9" class="edge">
<title>builtins.object&#45;&gt;uqbar.book.extensions.Extension</title>
<path fill="none" stroke="#778899" d="M45.6725,-241.1598C56.6192,-231.5675 73.822,-216.6227 89,-204 120.1841,-178.066 157.0314,-148.7849 179.4473,-131.1202"/>
<polygon fill="#778899" stroke="#778899" points="181.8688,-133.6686 187.5641,-124.7347 177.5406,-128.167 181.8688,-133.6686"/>
</g>
<!-- builtins.object&#45;&gt;uqbar.book.extensions.GraphableProxy -->
<g id="edge10" class="edge">
<title>builtins.object&#45;&gt;uqbar.book.extensions.GraphableProxy</title>
<path fill="none" stroke="#778899" d="M38.9394,-241.2535C47.1873,-223.7809 66.131,-186.4809 89,-160 117.9006,-126.5349 131.0654,-124.106 166,-97 167.5629,-95.7873 169.1744,-94.5523 170.8067,-93.3133"/>
<polygon fill="#778899" stroke="#778899" points="173.1074,-95.9631 179.0148,-87.168 168.9121,-90.3595 173.1074,-95.9631"/>
</g>
<!-- code.InteractiveConsole&#45;&gt;uqbar.book.console.Console -->
<g id="edge11" class="edge">
<title>code.InteractiveConsole&#45;&gt;uqbar.book.console.Console</title>
<path fill="none" stroke="#778899" d="M306.3253,-167.8746C320.2087,-156.7793 337.2998,-143.2673 341,-141 344.0352,-139.1401 347.2826,-137.3426 350.5715,-135.6438"/>
<polygon fill="#778899" stroke="#778899" points="352.349,-138.6713 359.8088,-131.1478 349.2855,-132.3772 352.349,-138.6713"/>
</g>
<!-- code.InteractiveInterpreter&#45;&gt;code.InteractiveConsole -->
<g id="edge3" class="edge">
<title>code.InteractiveInterpreter&#45;&gt;code.InteractiveConsole</title>
<path fill="none" stroke="#778899" d="M225.7796,-183C233.8792,-183 242.9734,-183 251.6404,-183"/>
<polygon fill="#778899" stroke="#778899" points="251.9047,-186.5001 261.9046,-183 251.9046,-179.5001 251.9047,-186.5001"/>
</g>
<!-- uqbar.book.extensions.Extension&#45;&gt;uqbar.book.extensions.GrapherExtension -->
<g id="edge4" class="edge">
<title>uqbar.book.extensions.Extension&#45;&gt;uqbar.book.extensions.GrapherExtension</title>
<path fill="none" stroke="#778899" d="M224.8399,-113.5806C233.5034,-113.0855 243.3919,-112.5205 252.7132,-111.9878"/>
<polygon fill="#778899" stroke="#778899" points="253.1168,-115.4706 262.9008,-111.4057 252.7174,-108.482 253.1168,-115.4706"/>
</g>
<!-- builtins.BaseException -->
<g id="node1" class="node">
<title>builtins.BaseException</title>
<g id="a_node1"><a xlink:href="https://docs.python.org/3.6/library/exceptions.html#BaseException" xlink:title="Base\nException" target="_top">
<path fill="#fbb4ae" stroke="#fbb4ae" stroke-width="2" d="M128,-271C128,-271 99,-271 99,-271 94,-271 89,-266 89,-261 89,-261 89,-251 89,-251 89,-246 94,-241 99,-241 99,-241 128,-241 128,-241 133,-241 138,-246 138,-251 138,-251 138,-261 138,-261 138,-266 133,-271 128,-271"/>
<text text-anchor="middle" x="113.5" y="-259" font-family="Arial" font-size="10.00" fill="#000000">Base</text>
<text text-anchor="middle" x="113.5" y="-248" font-family="Arial" font-size="10.00" fill="#000000">Exception</text>
</a>
</g>
</g>
<!-- builtins.Exception -->
<g id="node2" class="node">
<title>builtins.Exception</title>
<g id="a_node2"><a xlink:href="https://docs.python.org/3.6/library/exceptions.html#Exception" xlink:title="Exception" target="_top">
<path fill="#fbb4ae" stroke="#fbb4ae" stroke-width="2" d="M218.1667,-262.5C218.1667,-262.5 181.8333,-262.5 181.8333,-262.5 178.6667,-262.5 175.5,-259.3333 175.5,-256.1667 175.5,-256.1667 175.5,-249.8333 175.5,-249.8333 175.5,-246.6667 178.6667,-243.5 181.8333,-243.5 181.8333,-243.5 218.1667,-243.5 218.1667,-243.5 221.3333,-243.5 224.5,-246.6667 224.5,-249.8333 224.5,-249.8333 224.5,-256.1667 224.5,-256.1667 224.5,-259.3333 221.3333,-262.5 218.1667,-262.5"/>
<text text-anchor="middle" x="200" y="-250.5" font-family="Arial" font-size="10.00" fill="#000000">Exception</text>
</a>
</g>
</g>
<!-- builtins.object -->
<g id="node3" class="node">
<title>builtins.object</title>
<g id="a_node3"><a xlink:href="https://docs.python.org/3.6/library/functions.html#object" xlink:title="object" target="_top">
<path fill="#fbb4ae" stroke="#fbb4ae" stroke-width="2" d="M46.6667,-260.5C46.6667,-260.5 22.3333,-260.5 22.3333,-260.5 19.1667,-260.5 16,-257.3333 16,-254.1667 16,-254.1667 16,-247.8333 16,-247.8333 16,-244.6667 19.1667,-241.5 22.3333,-241.5 22.3333,-241.5 46.6667,-241.5 46.6667,-241.5 49.8333,-241.5 53,-244.6667 53,-247.8333 53,-247.8333 53,-254.1667 53,-254.1667 53,-257.3333 49.8333,-260.5 46.6667,-260.5"/>
<text text-anchor="middle" x="34.5" y="-248.5" font-family="Arial" font-size="10.00" fill="#000000">object</text>
</a>
</g>
</g>
<!-- code.InteractiveConsole -->
<g id="node4" class="node">
<title>code.InteractiveConsole</title>
<g id="a_node4"><a xlink:href="https://docs.python.org/3.6/library/code.html#code.InteractiveConsole" xlink:title="Interactive\nConsole" target="_top">
<path fill="#b3cde3" stroke="#b3cde3" stroke-width="2" d="M303,-198C303,-198 272,-198 272,-198 267,-198 262,-193 262,-188 262,-188 262,-178 262,-178 262,-173 267,-168 272,-168 272,-168 303,-168 303,-168 308,-168 313,-173 313,-178 313,-178 313,-188 313,-188 313,-193 308,-198 303,-198"/>
<text text-anchor="middle" x="287.5" y="-186" font-family="Arial" font-size="10.00" fill="#000000">Interactive</text>
<text text-anchor="middle" x="287.5" y="-175" font-family="Arial" font-size="10.00" fill="#000000">Console</text>
</a>
</g>
</g>
<!-- code.InteractiveInterpreter -->
<g id="node5" class="node">
<title>code.InteractiveInterpreter</title>
<g id="a_node5"><a xlink:href="https://docs.python.org/3.6/library/code.html#code.InteractiveInterpreter" xlink:title="Interactive\nInterpreter" target="_top">
<path fill="#b3cde3" stroke="#b3cde3" stroke-width="2" d="M215.5,-198C215.5,-198 184.5,-198 184.5,-198 179.5,-198 174.5,-193 174.5,-188 174.5,-188 174.5,-178 174.5,-178 174.5,-173 179.5,-168 184.5,-168 184.5,-168 215.5,-168 215.5,-168 220.5,-168 225.5,-173 225.5,-178 225.5,-178 225.5,-188 225.5,-188 225.5,-193 220.5,-198 215.5,-198"/>
<text text-anchor="middle" x="200" y="-186" font-family="Arial" font-size="10.00" fill="#000000">Interactive</text>
<text text-anchor="middle" x="200" y="-175" font-family="Arial" font-size="10.00" fill="#000000">Interpreter</text>
</a>
</g>
</g>
<!-- uqbar.book.console.Console -->
<g id="node6" class="node">
<title>uqbar.book.console.Console</title>
<g id="a_node6"><a xlink:href="../api/uqbar/book/console.html#uqbar.book.console.Console" xlink:title="Console" target="_top">
<path fill="#ccebc5" stroke="#ccebc5" stroke-width="2" d="M397.6667,-131.5C397.6667,-131.5 366.3333,-131.5 366.3333,-131.5 363.1667,-131.5 360,-128.3333 360,-125.1667 360,-125.1667 360,-118.8333 360,-118.8333 360,-115.6667 363.1667,-112.5 366.3333,-112.5 366.3333,-112.5 397.6667,-112.5 397.6667,-112.5 400.8333,-112.5 404,-115.6667 404,-118.8333 404,-118.8333 404,-125.1667 404,-125.1667 404,-128.3333 400.8333,-131.5 397.6667,-131.5"/>
<text text-anchor="middle" x="382" y="-119.5" font-family="Arial" font-size="10.00" fill="#000000">Console</text>
</a>
</g>
</g>
<!-- uqbar.book.console.ConsoleError -->
<g id="node7" class="node">
<title>uqbar.book.console.ConsoleError</title>
<g id="a_node7"><a xlink:href="../api/uqbar/book/console.html#uqbar.book.console.ConsoleError" xlink:title="Console\nError" target="_top">
<path fill="#ccebc5" stroke="#ccebc5" stroke-width="2" d="M394,-180C394,-180 370,-180 370,-180 365,-180 360,-175 360,-170 360,-170 360,-160 360,-160 360,-155 365,-150 370,-150 370,-150 394,-150 394,-150 399,-150 404,-155 404,-160 404,-160 404,-170 404,-170 404,-175 399,-180 394,-180"/>
<text text-anchor="middle" x="382" y="-168" font-family="Arial" font-size="10.00" fill="#000000">Console</text>
<text text-anchor="middle" x="382" y="-157" font-family="Arial" font-size="10.00" fill="#000000">Error</text>
</a>
</g>
</g>
<!-- uqbar.book.console.ConsoleInput -->
<g id="node8" class="node">
<title>uqbar.book.console.ConsoleInput</title>
<g id="a_node8"><a xlink:href="../api/uqbar/book/console.html#uqbar.book.console.ConsoleInput" xlink:title="Console\nInput" target="_top">
<path fill="#ccebc5" stroke="#ccebc5" stroke-width="2" d="M394,-94C394,-94 370,-94 370,-94 365,-94 360,-89 360,-84 360,-84 360,-74 360,-74 360,-69 365,-64 370,-64 370,-64 394,-64 394,-64 399,-64 404,-69 404,-74 404,-74 404,-84 404,-84 404,-89 399,-94 394,-94"/>
<text text-anchor="middle" x="382" y="-82" font-family="Arial" font-size="10.00" fill="#000000">Console</text>
<text text-anchor="middle" x="382" y="-71" font-family="Arial" font-size="10.00" fill="#000000">Input</text>
</a>
</g>
</g>
<!-- uqbar.book.console.ConsoleOutput -->
<g id="node9" class="node">
<title>uqbar.book.console.ConsoleOutput</title>
<g id="a_node9"><a xlink:href="../api/uqbar/book/console.html#uqbar.book.console.ConsoleOutput" xlink:title="Console\nOutput" target="_top">
<path fill="#ccebc5" stroke="#ccebc5" stroke-width="2" d="M394,-46C394,-46 370,-46 370,-46 365,-46 360,-41 360,-36 360,-36 360,-26 360,-26 360,-21 365,-16 370,-16 370,-16 394,-16 394,-16 399,-16 404,-21 404,-26 404,-26 404,-36 404,-36 404,-41 399,-46 394,-46"/>
<text text-anchor="middle" x="382" y="-34" font-family="Arial" font-size="10.00" fill="#000000">Console</text>
<text text-anchor="middle" x="382" y="-23" font-family="Arial" font-size="10.00" fill="#000000">Output</text>
</a>
</g>
</g>
<!-- uqbar.book.extensions.Extension -->
<g id="node10" class="node">
<title>uqbar.book.extensions.Extension</title>
<g id="a_node10"><a xlink:href="../api/uqbar/book/extensions.html#uqbar.book.extensions.Extension" xlink:title="Extension" target="_top">
<path fill="#decbe4" stroke="#decbe4" stroke-width="2" d="M218.1667,-124.5C218.1667,-124.5 181.8333,-124.5 181.8333,-124.5 178.6667,-124.5 175.5,-121.3333 175.5,-118.1667 175.5,-118.1667 175.5,-111.8333 175.5,-111.8333 175.5,-108.6667 178.6667,-105.5 181.8333,-105.5 181.8333,-105.5 218.1667,-105.5 218.1667,-105.5 221.3333,-105.5 224.5,-108.6667 224.5,-111.8333 224.5,-111.8333 224.5,-118.1667 224.5,-118.1667 224.5,-121.3333 221.3333,-124.5 218.1667,-124.5"/>
<text text-anchor="middle" x="200" y="-112.5" font-family="Arial" font-size="10.00" fill="#000000">Extension</text>
</a>
</g>
</g>
<!-- uqbar.book.extensions.GrapherExtension -->
<g id="node11" class="node">
<title>uqbar.book.extensions.GrapherExtension</title>
<g id="a_node11"><a xlink:href="../api/uqbar/book/extensions.html#uqbar.book.extensions.GrapherExtension" xlink:title="Grapher\nExtension" target="_top">
<path fill="#decbe4" stroke="#decbe4" stroke-width="2" d="M302,-125C302,-125 273,-125 273,-125 268,-125 263,-120 263,-115 263,-115 263,-105 263,-105 263,-100 268,-95 273,-95 273,-95 302,-95 302,-95 307,-95 312,-100 312,-105 312,-105 312,-115 312,-115 312,-120 307,-125 302,-125"/>
<text text-anchor="middle" x="287.5" y="-113" font-family="Arial" font-size="10.00" fill="#000000">Grapher</text>
<text text-anchor="middle" x="287.5" y="-102" font-family="Arial" font-size="10.00" fill="#000000">Extension</text>
</a>
</g>
</g>
<!-- uqbar.book.extensions.GraphableProxy -->
<g id="node12" class="node">
<title>uqbar.book.extensions.GraphableProxy</title>
<g id="a_node12"><a xlink:href="../api/uqbar/book/extensions.html#uqbar.book.extensions.GraphableProxy" xlink:title="Graphable\nProxy" target="_top">
<path fill="#decbe4" stroke="#decbe4" stroke-width="2" d="M216,-87C216,-87 184,-87 184,-87 179,-87 174,-82 174,-77 174,-77 174,-67 174,-67 174,-62 179,-57 184,-57 184,-57 216,-57 216,-57 221,-57 226,-62 226,-67 226,-67 226,-77 226,-77 226,-82 221,-87 216,-87"/>
<text text-anchor="middle" x="200" y="-75" font-family="Arial" font-size="10.00" fill="#000000">Graphable</text>
<text text-anchor="middle" x="200" y="-64" font-family="Arial" font-size="10.00" fill="#000000">Proxy</text>
</a>
</g>
</g>
</g>
</svg>
