<?xml version="1.0" encoding="UTF-8" standalone="no"?>
<!DOCTYPE svg PUBLIC "-//W3C//DTD SVG 1.1//EN"
 "http://www.w3.org/Graphics/SVG/1.1/DTD/svg11.dtd">
<!-- Generated by graphviz version 2.40.1 (20161225.0304)
 -->
<!-- Title: InheritanceGraph Pages: 1 -->
<svg width="250pt" height="127pt"
 viewBox="0.00 0.00 250.00 127.00" xmlns="http://www.w3.org/2000/svg" xmlns:xlink="http://www.w3.org/1999/xlink">
<g id="graph0" class="graph" transform="scale(1 1) rotate(0) translate(4 123)">
<title>InheritanceGraph</title>
<g id="clust1" class="cluster">
<title>cluster_builtins</title>
<path fill="transparent" stroke="#bcd2ee" stroke-width="2" stroke-dasharray="5,2" d="M20,-34C20,-34 49,-34 49,-34 55,-34 61,-40 61,-46 61,-46 61,-77 61,-77 61,-83 55,-89 49,-89 49,-89 20,-89 20,-89 14,-89 8,-83 8,-77 8,-77 8,-46 8,-46 8,-40 14,-34 20,-34"/>
<text text-anchor="middle" x="34.5" y="-77" font-family="Arial" font-size="10.00" fill="#000000">builtins</text>
</g>
<g id="clust2" class="cluster">
<title>cluster_uqbar.book.extensions</title>
<path fill="transparent" stroke="#bcd2ee" stroke-width="2" stroke-dasharray="5,2" d="M93,-8C93,-8 222,-8 222,-8 228,-8 234,-14 234,-20 234,-20 234,-99 234,-99 234,-105 228,-111 222,-111 222,-111 93,-111 93,-111 87,-111 81,-105 81,-99 81,-99 81,-20 81,-20 81,-14 87,-8 93,-8"/>
<text text-anchor="middle" x="157.5" y="-99" font-family="Arial" font-size="10.00" fill="#000000">uqbar.book.extensions</text>
</g>
<!-- builtins.object&#45;&gt;uqbar.book.extensions.Extension -->
<g id="edge2" class="edge">
<title>builtins.object&#45;&gt;uqbar.book.extensions.Extension</title>
<path fill="none" stroke="#778899" d="M53.1707,-57.1025C61.2886,-59.3211 71.0693,-61.9941 80.4315,-64.5527"/>
<polygon fill="#778899" stroke="#778899" points="79.7587,-67.9971 90.3277,-67.2573 81.6042,-61.2448 79.7587,-67.9971"/>
</g>
<!-- builtins.object&#45;&gt;uqbar.book.extensions.GraphableProxy -->
<g id="edge3" class="edge">
<title>builtins.object&#45;&gt;uqbar.book.extensions.GraphableProxy</title>
<path fill="none" stroke="#778899" d="M53.1707,-47.1294C60.8648,-45.1222 70.0525,-42.7254 78.962,-40.4012"/>
<polygon fill="#778899" stroke="#778899" points="80.0157,-43.7436 88.8083,-37.8326 78.2487,-36.9702 80.0157,-43.7436"/>
</g>
<!-- uqbar.book.extensions.Extension&#45;&gt;uqbar.book.extensions.GrapherExtension -->
<g id="edge1" class="edge">
<title>uqbar.book.extensions.Extension&#45;&gt;uqbar.book.extensions.GrapherExtension</title>
<path fill="none" stroke="#778899" d="M139.5561,-72.5806C148.0479,-72.0897 157.7304,-71.53 166.8764,-71.0014"/>
<polygon fill="#778899" stroke="#778899" points="167.1012,-74.4943 176.8825,-70.423 166.6972,-67.506 167.1012,-74.4943"/>
</g>
<!-- builtins.object -->
<g id="node1" class="node">
<title>builtins.object</title>
<g id="a_node1"><a xlink:href="https://docs.python.org/3.6/library/functions.html#object" xlink:title="object" target="_top">
<path fill="#fbb4ae" stroke="#fbb4ae" stroke-width="2" d="M46.6667,-61.5C46.6667,-61.5 22.3333,-61.5 22.3333,-61.5 19.1667,-61.5 16,-58.3333 16,-55.1667 16,-55.1667 16,-48.8333 16,-48.8333 16,-45.6667 19.1667,-42.5 22.3333,-42.5 22.3333,-42.5 46.6667,-42.5 46.6667,-42.5 49.8333,-42.5 53,-45.6667 53,-48.8333 53,-48.8333 53,-55.1667 53,-55.1667 53,-58.3333 49.8333,-61.5 46.6667,-61.5"/>
<text text-anchor="middle" x="34.5" y="-49.5" font-family="Arial" font-size="10.00" fill="#000000">object</text>
</a>
</g>
</g>
<!-- uqbar.book.extensions.Extension -->
<g id="node2" class="node">
<title>uqbar.book.extensions.Extension</title>
<g id="a_node2"><a xlink:href="../api/uqbar/book/extensions.html#uqbar.book.extensions.Extension" xlink:title="Extension" target="_top">
<path fill="#000000" stroke="#000000" stroke-width="2" d="M133.1667,-83.5C133.1667,-83.5 96.8333,-83.5 96.8333,-83.5 93.6667,-83.5 90.5,-80.3333 90.5,-77.1667 90.5,-77.1667 90.5,-70.8333 90.5,-70.8333 90.5,-67.6667 93.6667,-64.5 96.8333,-64.5 96.8333,-64.5 133.1667,-64.5 133.1667,-64.5 136.3333,-64.5 139.5,-67.6667 139.5,-70.8333 139.5,-70.8333 139.5,-77.1667 139.5,-77.1667 139.5,-80.3333 136.3333,-83.5 133.1667,-83.5"/>
<text text-anchor="middle" x="115" y="-71.5" font-family="Arial" font-size="10.00" fill="#ffffff">Extension</text>
</a>
</g>
</g>
<!-- uqbar.book.extensions.GraphableProxy -->
<g id="node3" class="node">
<title>uqbar.book.extensions.GraphableProxy</title>
<g id="a_node3"><a xlink:href="../api/uqbar/book/extensions.html#uqbar.book.extensions.GraphableProxy" xlink:title="Graphable\nProxy" target="_top">
<path fill="#000000" stroke="#000000" stroke-width="2" d="M131,-46C131,-46 99,-46 99,-46 94,-46 89,-41 89,-36 89,-36 89,-26 89,-26 89,-21 94,-16 99,-16 99,-16 131,-16 131,-16 136,-16 141,-21 141,-26 141,-26 141,-36 141,-36 141,-41 136,-46 131,-46"/>
<text text-anchor="middle" x="115" y="-34" font-family="Arial" font-size="10.00" fill="#ffffff">Graphable</text>
<text text-anchor="middle" x="115" y="-23" font-family="Arial" font-size="10.00" fill="#ffffff">Proxy</text>
</a>
</g>
</g>
<!-- uqbar.book.extensions.GrapherExtension -->
<g id="node4" class="node">
<title>uqbar.book.extensions.GrapherExtension</title>
<g id="a_node4"><a xlink:href="../api/uqbar/book/extensions.html#uqbar.book.extensions.GrapherExtension" xlink:title="Grapher\nExtension" target="_top">
<path fill="#000000" stroke="#000000" stroke-width="2" d="M216,-84C216,-84 187,-84 187,-84 182,-84 177,-79 177,-74 177,-74 177,-64 177,-64 177,-59 182,-54 187,-54 187,-54 216,-54 216,-54 221,-54 226,-59 226,-64 226,-64 226,-74 226,-74 226,-79 221,-84 216,-84"/>
<text text-anchor="middle" x="201.5" y="-72" font-family="Arial" font-size="10.00" fill="#ffffff">Grapher</text>
<text text-anchor="middle" x="201.5" y="-61" font-family="Arial" font-size="10.00" fill="#ffffff">Extension</text>
</a>
</g>
</g>
</g>
</svg>
