<?xml version="1.0" encoding="UTF-8" standalone="no"?>
<!DOCTYPE svg PUBLIC "-//W3C//DTD SVG 1.1//EN"
 "http://www.w3.org/Graphics/SVG/1.1/DTD/svg11.dtd">
<!-- Generated by graphviz version 2.40.1 (20161225.0304)
 -->
<!-- Title: InheritanceGraph Pages: 1 -->
<svg width="316pt" height="198pt"
 viewBox="0.00 0.00 316.00 198.00" xmlns="http://www.w3.org/2000/svg" xmlns:xlink="http://www.w3.org/1999/xlink">
<g id="graph0" class="graph" transform="scale(1 1) rotate(0) translate(4 194)">
<title>InheritanceGraph</title>
<g id="clust1" class="cluster">
<title>cluster_builtins</title>
<path fill="transparent" stroke="#bcd2ee" stroke-width="2" stroke-dasharray="5,2" d="M20,-127C20,-127 115,-127 115,-127 121,-127 127,-133 127,-139 127,-139 127,-170 127,-170 127,-176 121,-182 115,-182 115,-182 20,-182 20,-182 14,-182 8,-176 8,-170 8,-170 8,-139 8,-139 8,-133 14,-127 20,-127"/>
<text text-anchor="middle" x="67.5" y="-170" font-family="Arial" font-size="10.00" fill="#000000">builtins</text>
</g>
<g id="clust2" class="cluster">
<title>cluster_enum</title>
<path fill="transparent" stroke="#bcd2ee" stroke-width="2" stroke-dasharray="5,2" d="M93,-54C93,-54 193,-54 193,-54 199,-54 205,-60 205,-66 205,-66 205,-107 205,-107 205,-113 199,-119 193,-119 193,-119 93,-119 93,-119 87,-119 81,-113 81,-107 81,-107 81,-66 81,-66 81,-60 87,-54 93,-54"/>
<text text-anchor="middle" x="143" y="-107" font-family="Arial" font-size="10.00" fill="#000000">enum</text>
</g>
<g id="clust3" class="cluster">
<title>cluster_uqbar.enums</title>
<path fill="transparent" stroke="#bcd2ee" stroke-width="2" stroke-dasharray="5,2" d="M237,-8C237,-8 288,-8 288,-8 294,-8 300,-14 300,-20 300,-20 300,-109 300,-109 300,-115 294,-121 288,-121 288,-121 237,-121 237,-121 231,-121 225,-115 225,-109 225,-109 225,-20 225,-20 225,-14 231,-8 237,-8"/>
<text text-anchor="middle" x="262.5" y="-109" font-family="Arial" font-size="10.00" fill="#000000">uqbar.enums</text>
</g>
<!-- builtins.int&#45;&gt;enum.IntEnum -->
<g id="edge3" class="edge">
<title>builtins.int&#45;&gt;enum.IntEnum</title>
<path fill="none" stroke="#778899" d="M117.3158,-135.2573C127.1693,-125.9512 142.3793,-111.5862 155.2298,-99.4496"/>
<polygon fill="#778899" stroke="#778899" points="157.9902,-101.6568 162.8572,-92.246 153.1839,-96.5677 157.9902,-101.6568"/>
</g>
<!-- builtins.object&#45;&gt;builtins.int -->
<g id="edge1" class="edge">
<title>builtins.object&#45;&gt;builtins.int</title>
<path fill="none" stroke="#778899" d="M53.1706,-145C62.7836,-145 74.573,-145 84.6656,-145"/>
<polygon fill="#778899" stroke="#778899" points="84.768,-148.5001 94.768,-145 84.768,-141.5001 84.768,-148.5001"/>
</g>
<!-- builtins.object&#45;&gt;enum.Enum -->
<g id="edge4" class="edge">
<title>builtins.object&#45;&gt;enum.Enum</title>
<path fill="none" stroke="#778899" d="M44.8875,-135.2573C56.4086,-124.4513 75.2022,-106.8242 89.1039,-93.7853"/>
<polygon fill="#778899" stroke="#778899" points="91.7323,-96.1186 96.6318,-86.7247 86.9436,-91.0129 91.7323,-96.1186"/>
</g>
<!-- enum.Enum&#45;&gt;enum.IntEnum -->
<g id="edge2" class="edge">
<title>enum.Enum&#45;&gt;enum.IntEnum</title>
<path fill="none" stroke="#778899" d="M125.1686,-77C132.869,-77 142.0257,-77 150.5834,-77"/>
<polygon fill="#778899" stroke="#778899" points="150.5868,-80.5001 160.5867,-77 150.5867,-73.5001 150.5868,-80.5001"/>
</g>
<!-- enum.Enum&#45;&gt;uqbar.enums.StrictEnumeration -->
<g id="edge5" class="edge">
<title>enum.Enum&#45;&gt;uqbar.enums.StrictEnumeration</title>
<path fill="none" stroke="#778899" d="M125.1271,-67.825C135.4394,-62.8919 148.7128,-57.0152 161,-53 180.9561,-46.4789 203.7564,-41.3386 222.6854,-37.6721"/>
<polygon fill="#778899" stroke="#778899" points="223.5746,-41.0665 232.7605,-35.7873 222.2874,-34.1859 223.5746,-41.0665"/>
</g>
<!-- enum.IntEnum&#45;&gt;uqbar.enums.IntEnumeration -->
<g id="edge6" class="edge">
<title>enum.IntEnum&#45;&gt;uqbar.enums.IntEnumeration</title>
<path fill="none" stroke="#778899" d="M197.1183,-77.434C204.7154,-77.6159 213.8693,-77.8352 222.8896,-78.0512"/>
<polygon fill="#778899" stroke="#778899" points="222.846,-81.5511 232.927,-78.2917 223.0137,-74.5531 222.846,-81.5511"/>
</g>
<!-- builtins.int -->
<g id="node1" class="node">
<title>builtins.int</title>
<g id="a_node1"><a xlink:href="https://docs.python.org/3.6/library/functions.html#int" xlink:title="int" target="_top">
<path fill="#fbb4ae" stroke="#fbb4ae" stroke-width="2" d="M112.6667,-154.5C112.6667,-154.5 101.3333,-154.5 101.3333,-154.5 98.1667,-154.5 95,-151.3333 95,-148.1667 95,-148.1667 95,-141.8333 95,-141.8333 95,-138.6667 98.1667,-135.5 101.3333,-135.5 101.3333,-135.5 112.6667,-135.5 112.6667,-135.5 115.8333,-135.5 119,-138.6667 119,-141.8333 119,-141.8333 119,-148.1667 119,-148.1667 119,-151.3333 115.8333,-154.5 112.6667,-154.5"/>
<text text-anchor="middle" x="107" y="-142.5" font-family="Arial" font-size="10.00" fill="#000000">int</text>
</a>
</g>
</g>
<!-- builtins.object -->
<g id="node2" class="node">
<title>builtins.object</title>
<g id="a_node2"><a xlink:href="https://docs.python.org/3.6/library/functions.html#object" xlink:title="object" target="_top">
<path fill="#fbb4ae" stroke="#fbb4ae" stroke-width="2" d="M46.6667,-154.5C46.6667,-154.5 22.3333,-154.5 22.3333,-154.5 19.1667,-154.5 16,-151.3333 16,-148.1667 16,-148.1667 16,-141.8333 16,-141.8333 16,-138.6667 19.1667,-135.5 22.3333,-135.5 22.3333,-135.5 46.6667,-135.5 46.6667,-135.5 49.8333,-135.5 53,-138.6667 53,-141.8333 53,-141.8333 53,-148.1667 53,-148.1667 53,-151.3333 49.8333,-154.5 46.6667,-154.5"/>
<text text-anchor="middle" x="34.5" y="-142.5" font-family="Arial" font-size="10.00" fill="#000000">object</text>
</a>
</g>
</g>
<!-- enum.Enum -->
<g id="node3" class="node">
<title>enum.Enum</title>
<g id="a_node3"><a xlink:href="https://docs.python.org/3.6/library/enum.html#enum.Enum" xlink:title="Enum" target="_top">
<path fill="#b3cde3" stroke="#b3cde3" stroke-width="2" d="M118.6667,-86.5C118.6667,-86.5 95.3333,-86.5 95.3333,-86.5 92.1667,-86.5 89,-83.3333 89,-80.1667 89,-80.1667 89,-73.8333 89,-73.8333 89,-70.6667 92.1667,-67.5 95.3333,-67.5 95.3333,-67.5 118.6667,-67.5 118.6667,-67.5 121.8333,-67.5 125,-70.6667 125,-73.8333 125,-73.8333 125,-80.1667 125,-80.1667 125,-83.3333 121.8333,-86.5 118.6667,-86.5"/>
<text text-anchor="middle" x="107" y="-74.5" font-family="Arial" font-size="10.00" fill="#000000">Enum</text>
</a>
</g>
</g>
<!-- enum.IntEnum -->
<g id="node4" class="node">
<title>enum.IntEnum</title>
<g id="a_node4"><a xlink:href="https://docs.python.org/3.6/library/enum.html#enum.IntEnum" xlink:title="Int\nEnum" target="_top">
<path fill="#b3cde3" stroke="#b3cde3" stroke-width="2" d="M187,-92C187,-92 171,-92 171,-92 166,-92 161,-87 161,-82 161,-82 161,-72 161,-72 161,-67 166,-62 171,-62 171,-62 187,-62 187,-62 192,-62 197,-67 197,-72 197,-72 197,-82 197,-82 197,-87 192,-92 187,-92"/>
<text text-anchor="middle" x="179" y="-80" font-family="Arial" font-size="10.00" fill="#000000">Int</text>
<text text-anchor="middle" x="179" y="-69" font-family="Arial" font-size="10.00" fill="#000000">Enum</text>
</a>
</g>
</g>
<!-- uqbar.enums.IntEnumeration -->
<g id="node5" class="node">
<title>uqbar.enums.IntEnumeration</title>
<g id="a_node5"><a xlink:href="../api/uqbar/enums.html#uqbar.enums.IntEnumeration" xlink:title="Int\nEnumeration" target="_top">
<path fill="#000000" stroke="#000000" stroke-width="2" d="M282,-94C282,-94 243,-94 243,-94 238,-94 233,-89 233,-84 233,-84 233,-74 233,-74 233,-69 238,-64 243,-64 243,-64 282,-64 282,-64 287,-64 292,-69 292,-74 292,-74 292,-84 292,-84 292,-89 287,-94 282,-94"/>
<text text-anchor="middle" x="262.5" y="-82" font-family="Arial" font-size="10.00" fill="#ffffff">Int</text>
<text text-anchor="middle" x="262.5" y="-71" font-family="Arial" font-size="10.00" fill="#ffffff">Enumeration</text>
</a>
</g>
</g>
<!-- uqbar.enums.StrictEnumeration -->
<g id="node6" class="node">
<title>uqbar.enums.StrictEnumeration</title>
<g id="a_node6"><a xlink:href="../api/uqbar/enums.html#uqbar.enums.StrictEnumeration" xlink:title="Strict\nEnumeration" target="_top">
<path fill="#000000" stroke="#000000" stroke-width="2" d="M282,-46C282,-46 243,-46 243,-46 238,-46 233,-41 233,-36 233,-36 233,-26 233,-26 233,-21 238,-16 243,-16 243,-16 282,-16 282,-16 287,-16 292,-21 292,-26 292,-26 292,-36 292,-36 292,-41 287,-46 282,-46"/>
<text text-anchor="middle" x="262.5" y="-34" font-family="Arial" font-size="10.00" fill="#ffffff">Strict</text>
<text text-anchor="middle" x="262.5" y="-23" font-family="Arial" font-size="10.00" fill="#ffffff">Enumeration</text>
</a>
</g>
</g>
</g>
</svg>
