<?xml version="1.0" encoding="UTF-8" standalone="no"?>
<!DOCTYPE svg PUBLIC "-//W3C//DTD SVG 1.1//EN"
 "http://www.w3.org/Graphics/SVG/1.1/DTD/svg11.dtd">
<!-- Generated by graphviz version 2.40.1 (20161225.0304)
 -->
<!-- Title: InheritanceGraph Pages: 1 -->
<svg width="312pt" height="174pt"
 viewBox="0.00 0.00 312.00 174.00" xmlns="http://www.w3.org/2000/svg" xmlns:xlink="http://www.w3.org/1999/xlink">
<g id="graph0" class="graph" transform="scale(1 1) rotate(0) translate(4 170)">
<title>InheritanceGraph</title>
<g id="clust1" class="cluster">
<title>cluster_builtins</title>
<path fill="transparent" stroke="#bcd2ee" stroke-width="2" stroke-dasharray="5,2" d="M20,-92C20,-92 49,-92 49,-92 55,-92 61,-98 61,-104 61,-104 61,-135 61,-135 61,-141 55,-147 49,-147 49,-147 20,-147 20,-147 14,-147 8,-141 8,-135 8,-135 8,-104 8,-104 8,-98 14,-92 20,-92"/>
<text text-anchor="middle" x="34.5" y="-135" font-family="Arial" font-size="10.00" fill="#000000">builtins</text>
</g>
<g id="clust2" class="cluster">
<title>cluster_uqbar.containers</title>
<path fill="transparent" stroke="#bcd2ee" stroke-width="2" stroke-dasharray="5,2" d="M93,-81C93,-81 211.5,-81 211.5,-81 217.5,-81 223.5,-87 223.5,-93 223.5,-93 223.5,-146 223.5,-146 223.5,-152 217.5,-158 211.5,-158 211.5,-158 93,-158 93,-158 87,-158 81,-152 81,-146 81,-146 81,-93 81,-93 81,-87 87,-81 93,-81"/>
<text text-anchor="middle" x="152.25" y="-146" font-family="Arial" font-size="10.00" fill="#000000">uqbar.containers</text>
</g>
<g id="clust3" class="cluster">
<title>cluster_uqbar.graphs</title>
<path fill="transparent" stroke="#bcd2ee" stroke-width="2" stroke-dasharray="5,2" d="M169,-8C169,-8 284,-8 284,-8 290,-8 296,-14 296,-20 296,-20 296,-61 296,-61 296,-67 290,-73 284,-73 284,-73 169,-73 169,-73 163,-73 157,-67 157,-61 157,-61 157,-20 157,-20 157,-14 163,-8 169,-8"/>
<text text-anchor="middle" x="226.5" y="-61" font-family="Arial" font-size="10.00" fill="#000000">uqbar.graphs</text>
</g>
<!-- builtins.object&#45;&gt;uqbar.containers.UniqueTreeNode.UniqueTreeNode -->
<g id="edge3" class="edge">
<title>builtins.object&#45;&gt;uqbar.containers.UniqueTreeNode.UniqueTreeNode</title>
<path fill="none" stroke="#778899" d="M53.2995,-110C61.0221,-110 70.1602,-110 78.7776,-110"/>
<polygon fill="#778899" stroke="#778899" points="78.9006,-113.5001 88.9006,-110 78.9005,-106.5001 78.9006,-113.5001"/>
</g>
<!-- uqbar.containers.UniqueTreeContainer.UniqueTreeContainer&#45;&gt;uqbar.graphs.TableCell.TableCell -->
<g id="edge4" class="edge">
<title>uqbar.containers.UniqueTreeContainer.UniqueTreeContainer&#45;&gt;uqbar.graphs.TableCell.TableCell</title>
<path fill="none" stroke="#778899" d="M211.8877,-89.2437C222.9519,-78.2491 236.5542,-64.7324 247.8689,-53.4888"/>
<polygon fill="#778899" stroke="#778899" points="250.6511,-55.6583 255.2774,-46.1269 245.717,-50.6929 250.6511,-55.6583"/>
</g>
<!-- uqbar.containers.UniqueTreeNode.UniqueTreeNode&#45;&gt;uqbar.containers.UniqueTreeContainer.UniqueTreeContainer -->
<g id="edge1" class="edge">
<title>uqbar.containers.UniqueTreeNode.UniqueTreeNode&#45;&gt;uqbar.containers.UniqueTreeContainer.UniqueTreeContainer</title>
<path fill="none" stroke="#778899" d="M129.2697,-110C137.4019,-110 147.0107,-110 156.195,-110"/>
<polygon fill="#778899" stroke="#778899" points="156.2827,-113.5001 166.2826,-110 156.2826,-106.5001 156.2827,-113.5001"/>
</g>
<!-- uqbar.containers.UniqueTreeNode.UniqueTreeNode&#45;&gt;uqbar.graphs.Attachable.Attachable -->
<g id="edge5" class="edge">
<title>uqbar.containers.UniqueTreeNode.UniqueTreeNode&#45;&gt;uqbar.graphs.Attachable.Attachable</title>
<path fill="none" stroke="#778899" d="M129.2697,-90.9663C142.7804,-78.2794 160.3668,-61.7653 173.3108,-49.6106"/>
<polygon fill="#778899" stroke="#778899" points="175.7985,-52.0758 180.6925,-42.679 171.0068,-46.9729 175.7985,-52.0758"/>
</g>
<!-- uqbar.graphs.Attachable.Attachable&#45;&gt;uqbar.graphs.TableCell.TableCell -->
<g id="edge2" class="edge">
<title>uqbar.graphs.Attachable.Attachable&#45;&gt;uqbar.graphs.TableCell.TableCell</title>
<path fill="none" stroke="#778899" d="M217.0313,-32.3451C225.3098,-32.1369 234.4932,-31.9058 242.8799,-31.6948"/>
<polygon fill="#778899" stroke="#778899" points="243.04,-35.192 252.9488,-31.4415 242.8639,-28.1942 243.04,-35.192"/>
</g>
<!-- builtins.object -->
<g id="node1" class="node">
<title>builtins.object</title>
<g id="a_node1"><a xlink:href="https://docs.python.org/3.6/library/functions.html#object" xlink:title="object" target="_top">
<path fill="#fbb4ae" stroke="#fbb4ae" stroke-width="2" d="M46.6667,-119.5C46.6667,-119.5 22.3333,-119.5 22.3333,-119.5 19.1667,-119.5 16,-116.3333 16,-113.1667 16,-113.1667 16,-106.8333 16,-106.8333 16,-103.6667 19.1667,-100.5 22.3333,-100.5 22.3333,-100.5 46.6667,-100.5 46.6667,-100.5 49.8333,-100.5 53,-103.6667 53,-106.8333 53,-106.8333 53,-113.1667 53,-113.1667 53,-116.3333 49.8333,-119.5 46.6667,-119.5"/>
<text text-anchor="middle" x="34.5" y="-107.5" font-family="Arial" font-size="10.00" fill="#000000">object</text>
</a>
</g>
</g>
<!-- uqbar.containers.UniqueTreeContainer.UniqueTreeContainer -->
<g id="node2" class="node">
<title>uqbar.containers.UniqueTreeContainer.UniqueTreeContainer</title>
<g id="a_node2"><a xlink:href="../api/uqbar/graphs/../containers/UniqueTreeContainer.html#uqbar.containers.UniqueTreeContainer.UniqueTreeContainer" xlink:title="Unique\nTree\nContainer" target="_top">
<path fill="#b3cde3" stroke="#b3cde3" stroke-width="2" d="M203.5,-130.5C203.5,-130.5 178.5,-130.5 178.5,-130.5 172.5,-130.5 166.5,-124.5 166.5,-118.5 166.5,-118.5 166.5,-101.5 166.5,-101.5 166.5,-95.5 172.5,-89.5 178.5,-89.5 178.5,-89.5 203.5,-89.5 203.5,-89.5 209.5,-89.5 215.5,-95.5 215.5,-101.5 215.5,-101.5 215.5,-118.5 215.5,-118.5 215.5,-124.5 209.5,-130.5 203.5,-130.5"/>
<text text-anchor="middle" x="191" y="-118.5" font-family="Arial" font-size="10.00" fill="#000000">Unique</text>
<text text-anchor="middle" x="191" y="-107.5" font-family="Arial" font-size="10.00" fill="#000000">Tree</text>
<text text-anchor="middle" x="191" y="-96.5" font-family="Arial" font-size="10.00" fill="#000000">Container</text>
</a>
</g>
</g>
<!-- uqbar.containers.UniqueTreeNode.UniqueTreeNode -->
<g id="node3" class="node">
<title>uqbar.containers.UniqueTreeNode.UniqueTreeNode</title>
<g id="a_node3"><a xlink:href="../api/uqbar/graphs/../containers/UniqueTreeNode.html#uqbar.containers.UniqueTreeNode.UniqueTreeNode" xlink:title="Unique\nTree\nNode" target="_top">
<path fill="#b3cde3" stroke="#b3cde3" stroke-width="2" d="M117,-130.5C117,-130.5 101,-130.5 101,-130.5 95,-130.5 89,-124.5 89,-118.5 89,-118.5 89,-101.5 89,-101.5 89,-95.5 95,-89.5 101,-89.5 101,-89.5 117,-89.5 117,-89.5 123,-89.5 129,-95.5 129,-101.5 129,-101.5 129,-118.5 129,-118.5 129,-124.5 123,-130.5 117,-130.5"/>
<text text-anchor="middle" x="109" y="-118.5" font-family="Arial" font-size="10.00" fill="#000000">Unique</text>
<text text-anchor="middle" x="109" y="-107.5" font-family="Arial" font-size="10.00" fill="#000000">Tree</text>
<text text-anchor="middle" x="109" y="-96.5" font-family="Arial" font-size="10.00" fill="#000000">Node</text>
</a>
</g>
</g>
<!-- uqbar.graphs.Attachable.Attachable -->
<g id="node4" class="node">
<title>uqbar.graphs.Attachable.Attachable</title>
<g id="a_node4"><a xlink:href="../api/uqbar/graphs/Attachable.html#uqbar.graphs.Attachable.Attachable" xlink:title="Attachable" target="_top">
<path fill="#ccebc5" stroke="#ccebc5" stroke-width="2" d="M210.6667,-42.5C210.6667,-42.5 171.3333,-42.5 171.3333,-42.5 168.1667,-42.5 165,-39.3333 165,-36.1667 165,-36.1667 165,-29.8333 165,-29.8333 165,-26.6667 168.1667,-23.5 171.3333,-23.5 171.3333,-23.5 210.6667,-23.5 210.6667,-23.5 213.8333,-23.5 217,-26.6667 217,-29.8333 217,-29.8333 217,-36.1667 217,-36.1667 217,-39.3333 213.8333,-42.5 210.6667,-42.5"/>
<text text-anchor="middle" x="191" y="-30.5" font-family="Arial" font-size="10.00" fill="#000000">Attachable</text>
</a>
</g>
</g>
<!-- uqbar.graphs.TableCell.TableCell -->
<g id="node5" class="node">
<title>uqbar.graphs.TableCell.TableCell</title>
<g id="a_node5"><a xlink:href="../api/uqbar/graphs/TableCell.html#uqbar.graphs.TableCell.TableCell" xlink:title="Table\nCell" target="_top">
<path fill="#000000" stroke="#000000" stroke-width="2" d="M278,-46C278,-46 263,-46 263,-46 258,-46 253,-41 253,-36 253,-36 253,-26 253,-26 253,-21 258,-16 263,-16 263,-16 278,-16 278,-16 283,-16 288,-21 288,-26 288,-26 288,-36 288,-36 288,-41 283,-46 278,-46"/>
<text text-anchor="middle" x="270.5" y="-34" font-family="Arial" font-size="10.00" fill="#ffffff">Table</text>
<text text-anchor="middle" x="270.5" y="-23" font-family="Arial" font-size="10.00" fill="#ffffff">Cell</text>
</a>
</g>
</g>
</g>
</svg>
