<?xml version="1.0" encoding="UTF-8" standalone="no"?>
<!DOCTYPE svg PUBLIC "-//W3C//DTD SVG 1.1//EN"
 "http://www.w3.org/Graphics/SVG/1.1/DTD/svg11.dtd">
<!-- Generated by graphviz version 2.44.1 (20200629.0846)
 -->
<!-- Title: InheritanceGraph Pages: 1 -->
<svg width="375pt" height="137pt"
 viewBox="0.00 0.00 375.00 137.00" xmlns="http://www.w3.org/2000/svg" xmlns:xlink="http://www.w3.org/1999/xlink">
<g id="graph0" class="graph" transform="scale(1 1) rotate(0) translate(4 133)">
<title>InheritanceGraph</title>
<g id="clust1" class="cluster">
<title>cluster_builtins</title>
<path fill="transparent" stroke="#bcd2ee" stroke-width="2" stroke-dasharray="5,2" d="M20,-35C20,-35 55,-35 55,-35 61,-35 67,-41 67,-47 67,-47 67,-78 67,-78 67,-84 61,-90 55,-90 55,-90 20,-90 20,-90 14,-90 8,-84 8,-78 8,-78 8,-47 8,-47 8,-41 14,-35 20,-35"/>
<text text-anchor="middle" x="37.5" y="-78" font-family="Arial" font-size="10.00">builtins</text>
</g>
<g id="clust2" class="cluster">
<title>cluster_uqbar.containers</title>
<path fill="transparent" stroke="#bcd2ee" stroke-width="2" stroke-dasharray="5,2" d="M99,-24C99,-24 164,-24 164,-24 170,-24 176,-30 176,-36 176,-36 176,-89 176,-89 176,-95 170,-101 164,-101 164,-101 99,-101 99,-101 93,-101 87,-95 87,-89 87,-89 87,-36 87,-36 87,-30 93,-24 99,-24"/>
<text text-anchor="middle" x="131.5" y="-89" font-family="Arial" font-size="10.00">uqbar.containers</text>
</g>
<g id="clust3" class="cluster">
<title>cluster_uqbar.graphs</title>
<path fill="transparent" stroke="#bcd2ee" stroke-width="2" stroke-dasharray="5,2" d="M208,-8C208,-8 347,-8 347,-8 353,-8 359,-14 359,-20 359,-20 359,-109 359,-109 359,-115 353,-121 347,-121 347,-121 208,-121 208,-121 202,-121 196,-115 196,-109 196,-109 196,-20 196,-20 196,-14 202,-8 208,-8"/>
<text text-anchor="middle" x="277.5" y="-109" font-family="Arial" font-size="10.00">uqbar.graphs</text>
</g>
<!-- builtins.object&#45;&gt;uqbar.containers.UniqueTreeNode.UniqueTreeNode -->
<g id="edge3" class="edge">
<title>builtins.object&#45;&gt;uqbar.containers.UniqueTreeNode.UniqueTreeNode</title>
<path fill="none" stroke="lightslategrey" d="M59.38,-53C70.64,-53 84.81,-53 97.53,-53"/>
<polygon fill="lightslategrey" stroke="lightslategrey" points="97.77,-56.5 107.77,-53 97.77,-49.5 97.77,-56.5"/>
</g>
<!-- uqbar.containers.UniqueTreeNode.UniqueTreeNode&#45;&gt;uqbar.graphs.Attachable.Attachable -->
<g id="edge4" class="edge">
<title>uqbar.containers.UniqueTreeNode.UniqueTreeNode&#45;&gt;uqbar.graphs.Attachable.Attachable</title>
<path fill="none" stroke="lightslategrey" d="M155.14,-56.55C166.44,-58.32 180.46,-60.52 193.56,-62.58"/>
<polygon fill="lightslategrey" stroke="lightslategrey" points="193.38,-66.09 203.8,-64.18 194.46,-59.18 193.38,-66.09"/>
</g>
<!-- uqbar.containers.UniqueTreeNode.UniqueTreeNode&#45;&gt;uqbar.graphs.RecordField.RecordField -->
<g id="edge5" class="edge">
<title>uqbar.containers.UniqueTreeNode.UniqueTreeNode&#45;&gt;uqbar.graphs.RecordField.RecordField</title>
<path fill="none" stroke="lightslategrey" d="M155.08,-50.43C189.05,-46.57 253.51,-39.24 292.83,-34.77"/>
<polygon fill="lightslategrey" stroke="lightslategrey" points="293.43,-38.23 302.97,-33.62 292.64,-31.27 293.43,-38.23"/>
</g>
<!-- uqbar.graphs.Attachable.Attachable&#45;&gt;uqbar.graphs.RecordField.RecordField -->
<g id="edge1" class="edge">
<title>uqbar.graphs.Attachable.Attachable&#45;&gt;uqbar.graphs.RecordField.RecordField</title>
<path fill="none" stroke="lightslategrey" d="M259.08,-59.41C269.52,-54.98 282.11,-49.63 293.54,-44.78"/>
<polygon fill="lightslategrey" stroke="lightslategrey" points="294.96,-47.98 302.8,-40.85 292.23,-41.54 294.96,-47.98"/>
</g>
<!-- uqbar.graphs.Attachable.Attachable&#45;&gt;uqbar.graphs.TableCell.TableCell -->
<g id="edge2" class="edge">
<title>uqbar.graphs.Attachable.Attachable&#45;&gt;uqbar.graphs.TableCell.TableCell</title>
<path fill="none" stroke="lightslategrey" d="M267.05,-72.41C276.62,-73.48 287.15,-74.66 296.63,-75.72"/>
<polygon fill="lightslategrey" stroke="lightslategrey" points="296.46,-79.22 306.78,-76.85 297.24,-72.26 296.46,-79.22"/>
</g>
<!-- builtins.object -->
<g id="node1" class="node">
<title>builtins.object</title>
<g id="a_node1"><a xlink:href="https://docs.python.org/3.6/library/functions.html#object" xlink:title="object" target="_top">
<path fill="#fbb4ae" stroke="#fbb4ae" stroke-width="2" d="M52.67,-62.5C52.67,-62.5 22.33,-62.5 22.33,-62.5 19.17,-62.5 16,-59.33 16,-56.17 16,-56.17 16,-49.83 16,-49.83 16,-46.67 19.17,-43.5 22.33,-43.5 22.33,-43.5 52.67,-43.5 52.67,-43.5 55.83,-43.5 59,-46.67 59,-49.83 59,-49.83 59,-56.17 59,-56.17 59,-59.33 55.83,-62.5 52.67,-62.5"/>
<text text-anchor="middle" x="37.5" y="-50.5" font-family="Arial" font-size="10.00">object</text>
</a>
</g>
</g>
<!-- uqbar.containers.UniqueTreeNode.UniqueTreeNode -->
<g id="node2" class="node">
<title>uqbar.containers.UniqueTreeNode.UniqueTreeNode</title>
<g id="a_node2"><a xlink:href="../api/uqbar/graphs/../containers/UniqueTreeNode.html#uqbar.containers.UniqueTreeNode.UniqueTreeNode" xlink:title="Unique\nTree\nNode" target="_top">
<path fill="#b3cde3" stroke="#b3cde3" stroke-width="2" d="M143,-73.5C143,-73.5 120,-73.5 120,-73.5 114,-73.5 108,-67.5 108,-61.5 108,-61.5 108,-44.5 108,-44.5 108,-38.5 114,-32.5 120,-32.5 120,-32.5 143,-32.5 143,-32.5 149,-32.5 155,-38.5 155,-44.5 155,-44.5 155,-61.5 155,-61.5 155,-67.5 149,-73.5 143,-73.5"/>
<text text-anchor="middle" x="131.5" y="-61.5" font-family="Arial" font-size="10.00">Unique</text>
<text text-anchor="middle" x="131.5" y="-50.5" font-family="Arial" font-size="10.00">Tree</text>
<text text-anchor="middle" x="131.5" y="-39.5" font-family="Arial" font-size="10.00">Node</text>
</a>
</g>
</g>
<!-- uqbar.graphs.Attachable.Attachable -->
<g id="node3" class="node">
<title>uqbar.graphs.Attachable.Attachable</title>
<g id="a_node3"><a xlink:href="../api/uqbar/graphs/Attachable.html#uqbar.graphs.Attachable.Attachable" xlink:title="Attachable" target="_top">
<path fill="black" stroke="black" stroke-width="2" d="M260.67,-78.5C260.67,-78.5 210.33,-78.5 210.33,-78.5 207.17,-78.5 204,-75.33 204,-72.17 204,-72.17 204,-65.83 204,-65.83 204,-62.67 207.17,-59.5 210.33,-59.5 210.33,-59.5 260.67,-59.5 260.67,-59.5 263.83,-59.5 267,-62.67 267,-65.83 267,-65.83 267,-72.17 267,-72.17 267,-75.33 263.83,-78.5 260.67,-78.5"/>
<text text-anchor="middle" x="235.5" y="-66.5" font-family="Arial" font-size="10.00" fill="white">Attachable</text>
</a>
</g>
</g>
<!-- uqbar.graphs.RecordField.RecordField -->
<g id="node4" class="node">
<title>uqbar.graphs.RecordField.RecordField</title>
<g id="a_node4"><a xlink:href="../api/uqbar/graphs/RecordField.html#uqbar.graphs.RecordField.RecordField" xlink:title="Record\nField" target="_top">
<path fill="#ccebc5" stroke="#ccebc5" stroke-width="2" d="M341,-46C341,-46 313,-46 313,-46 308,-46 303,-41 303,-36 303,-36 303,-26 303,-26 303,-21 308,-16 313,-16 313,-16 341,-16 341,-16 346,-16 351,-21 351,-26 351,-26 351,-36 351,-36 351,-41 346,-46 341,-46"/>
<text text-anchor="middle" x="327" y="-34" font-family="Arial" font-size="10.00">Record</text>
<text text-anchor="middle" x="327" y="-23" font-family="Arial" font-size="10.00">Field</text>
</a>
</g>
</g>
<!-- uqbar.graphs.TableCell.TableCell -->
<g id="node5" class="node">
<title>uqbar.graphs.TableCell.TableCell</title>
<g id="a_node5"><a xlink:href="../api/uqbar/graphs/TableCell.html#uqbar.graphs.TableCell.TableCell" xlink:title="Table\nCell" target="_top">
<path fill="#ccebc5" stroke="#ccebc5" stroke-width="2" d="M337,-94C337,-94 317,-94 317,-94 312,-94 307,-89 307,-84 307,-84 307,-74 307,-74 307,-69 312,-64 317,-64 317,-64 337,-64 337,-64 342,-64 347,-69 347,-74 347,-74 347,-84 347,-84 347,-89 342,-94 337,-94"/>
<text text-anchor="middle" x="327" y="-82" font-family="Arial" font-size="10.00">Table</text>
<text text-anchor="middle" x="327" y="-71" font-family="Arial" font-size="10.00">Cell</text>
</a>
</g>
</g>
</g>
</svg>
