<?xml version="1.0" encoding="UTF-8" standalone="no"?>
<!DOCTYPE svg PUBLIC "-//W3C//DTD SVG 1.1//EN"
 "http://www.w3.org/Graphics/SVG/1.1/DTD/svg11.dtd">
<!-- Generated by graphviz version 2.40.1 (20161225.0304)
 -->
<!-- Title: InheritanceGraph Pages: 1 -->
<svg width="397pt" height="174pt"
 viewBox="0.00 0.00 397.00 174.00" xmlns="http://www.w3.org/2000/svg" xmlns:xlink="http://www.w3.org/1999/xlink">
<g id="graph0" class="graph" transform="scale(1 1) rotate(0) translate(4 170)">
<title>InheritanceGraph</title>
<g id="clust1" class="cluster">
<title>cluster_builtins</title>
<path fill="transparent" stroke="#bcd2ee" stroke-width="2" stroke-dasharray="5,2" d="M20,-92C20,-92 49,-92 49,-92 55,-92 61,-98 61,-104 61,-104 61,-135 61,-135 61,-141 55,-147 49,-147 49,-147 20,-147 20,-147 14,-147 8,-141 8,-135 8,-135 8,-104 8,-104 8,-98 14,-92 20,-92"/>
<text text-anchor="middle" x="34.5" y="-135" font-family="Arial" font-size="10.00" fill="#000000">builtins</text>
</g>
<g id="clust2" class="cluster">
<title>cluster_uqbar.containers</title>
<path fill="transparent" stroke="#bcd2ee" stroke-width="2" stroke-dasharray="5,2" d="M93,-81C93,-81 292,-81 292,-81 298,-81 304,-87 304,-93 304,-93 304,-146 304,-146 304,-152 298,-158 292,-158 292,-158 93,-158 93,-158 87,-158 81,-152 81,-146 81,-146 81,-93 81,-93 81,-87 87,-81 93,-81"/>
<text text-anchor="middle" x="192.5" y="-146" font-family="Arial" font-size="10.00" fill="#000000">uqbar.containers</text>
</g>
<g id="clust3" class="cluster">
<title>cluster_uqbar.graphs</title>
<path fill="transparent" stroke="#bcd2ee" stroke-width="2" stroke-dasharray="5,2" d="M254,-8C254,-8 369,-8 369,-8 375,-8 381,-14 381,-20 381,-20 381,-61 381,-61 381,-67 375,-73 369,-73 369,-73 254,-73 254,-73 248,-73 242,-67 242,-61 242,-61 242,-20 242,-20 242,-14 248,-8 254,-8"/>
<text text-anchor="middle" x="311.5" y="-61" font-family="Arial" font-size="10.00" fill="#000000">uqbar.graphs</text>
</g>
<!-- builtins.object&#45;&gt;uqbar.containers.UniqueTreeNode.UniqueTreeNode -->
<g id="edge4" class="edge">
<title>builtins.object&#45;&gt;uqbar.containers.UniqueTreeNode.UniqueTreeNode</title>
<path fill="none" stroke="#778899" d="M53.2995,-110C61.0221,-110 70.1602,-110 78.7776,-110"/>
<polygon fill="#778899" stroke="#778899" points="78.9006,-113.5001 88.9006,-110 78.9005,-106.5001 78.9006,-113.5001"/>
</g>
<!-- uqbar.containers.UniqueTreeContainer.UniqueTreeContainer&#45;&gt;uqbar.containers.UniqueTreeList.UniqueTreeList -->
<g id="edge1" class="edge">
<title>uqbar.containers.UniqueTreeContainer.UniqueTreeContainer&#45;&gt;uqbar.containers.UniqueTreeList.UniqueTreeList</title>
<path fill="none" stroke="#778899" d="M214.0561,-110C223.8427,-110 235.2106,-110 245.5163,-110"/>
<polygon fill="#778899" stroke="#778899" points="245.7606,-113.5001 255.7606,-110 245.7605,-106.5001 245.7606,-113.5001"/>
</g>
<!-- uqbar.containers.UniqueTreeList.UniqueTreeList&#45;&gt;uqbar.graphs.TableCell.TableCell -->
<g id="edge5" class="edge">
<title>uqbar.containers.UniqueTreeList.UniqueTreeList&#45;&gt;uqbar.graphs.TableCell.TableCell</title>
<path fill="none" stroke="#778899" d="M296.0612,-90.065C307.3057,-78.8912 321.3623,-64.923 332.9825,-53.3759"/>
<polygon fill="#778899" stroke="#778899" points="335.5865,-55.7225 340.2128,-46.1911 330.6523,-50.7572 335.5865,-55.7225"/>
</g>
<!-- uqbar.containers.UniqueTreeNode.UniqueTreeNode&#45;&gt;uqbar.containers.UniqueTreeContainer.UniqueTreeContainer -->
<g id="edge2" class="edge">
<title>uqbar.containers.UniqueTreeNode.UniqueTreeNode&#45;&gt;uqbar.containers.UniqueTreeContainer.UniqueTreeContainer</title>
<path fill="none" stroke="#778899" d="M129.3135,-110C136.9959,-110 145.9745,-110 154.617,-110"/>
<polygon fill="#778899" stroke="#778899" points="154.8826,-113.5001 164.8825,-110 154.8825,-106.5001 154.8826,-113.5001"/>
</g>
<!-- uqbar.containers.UniqueTreeNode.UniqueTreeNode&#45;&gt;uqbar.graphs.Attachable.Attachable -->
<g id="edge6" class="edge">
<title>uqbar.containers.UniqueTreeNode.UniqueTreeNode&#45;&gt;uqbar.graphs.Attachable.Attachable</title>
<path fill="none" stroke="#778899" d="M129.048,-99.1873C139.6482,-93.5801 152.9321,-86.7255 165,-81 190.9421,-68.6921 220.8454,-55.8355 243.0738,-46.5291"/>
<polygon fill="#778899" stroke="#778899" points="244.5148,-49.7204 252.4,-42.6441 241.823,-43.2587 244.5148,-49.7204"/>
</g>
<!-- uqbar.graphs.Attachable.Attachable&#45;&gt;uqbar.graphs.TableCell.TableCell -->
<g id="edge3" class="edge">
<title>uqbar.graphs.Attachable.Attachable&#45;&gt;uqbar.graphs.TableCell.TableCell</title>
<path fill="none" stroke="#778899" d="M302.0313,-32.3451C310.3098,-32.1369 319.4932,-31.9058 327.8799,-31.6948"/>
<polygon fill="#778899" stroke="#778899" points="328.04,-35.192 337.9488,-31.4415 327.8639,-28.1942 328.04,-35.192"/>
</g>
<!-- builtins.object -->
<g id="node1" class="node">
<title>builtins.object</title>
<g id="a_node1"><a xlink:href="https://docs.python.org/3.6/library/functions.html#object" xlink:title="object" target="_top">
<path fill="#fbb4ae" stroke="#fbb4ae" stroke-width="2" d="M46.6667,-119.5C46.6667,-119.5 22.3333,-119.5 22.3333,-119.5 19.1667,-119.5 16,-116.3333 16,-113.1667 16,-113.1667 16,-106.8333 16,-106.8333 16,-103.6667 19.1667,-100.5 22.3333,-100.5 22.3333,-100.5 46.6667,-100.5 46.6667,-100.5 49.8333,-100.5 53,-103.6667 53,-106.8333 53,-106.8333 53,-113.1667 53,-113.1667 53,-116.3333 49.8333,-119.5 46.6667,-119.5"/>
<text text-anchor="middle" x="34.5" y="-107.5" font-family="Arial" font-size="10.00" fill="#000000">object</text>
</a>
</g>
</g>
<!-- uqbar.containers.UniqueTreeContainer.UniqueTreeContainer -->
<g id="node2" class="node">
<title>uqbar.containers.UniqueTreeContainer.UniqueTreeContainer</title>
<g id="a_node2"><a xlink:href="../api/uqbar/graphs/../containers/UniqueTreeContainer.html#uqbar.containers.UniqueTreeContainer.UniqueTreeContainer" xlink:title="Unique\nTree\nContainer" target="_top">
<path fill="#b3cde3" stroke="#b3cde3" stroke-width="2" d="M202,-130.5C202,-130.5 177,-130.5 177,-130.5 171,-130.5 165,-124.5 165,-118.5 165,-118.5 165,-101.5 165,-101.5 165,-95.5 171,-89.5 177,-89.5 177,-89.5 202,-89.5 202,-89.5 208,-89.5 214,-95.5 214,-101.5 214,-101.5 214,-118.5 214,-118.5 214,-124.5 208,-130.5 202,-130.5"/>
<text text-anchor="middle" x="189.5" y="-118.5" font-family="Arial" font-size="10.00" fill="#000000">Unique</text>
<text text-anchor="middle" x="189.5" y="-107.5" font-family="Arial" font-size="10.00" fill="#000000">Tree</text>
<text text-anchor="middle" x="189.5" y="-96.5" font-family="Arial" font-size="10.00" fill="#000000">Container</text>
</a>
</g>
</g>
<!-- uqbar.containers.UniqueTreeList.UniqueTreeList -->
<g id="node3" class="node">
<title>uqbar.containers.UniqueTreeList.UniqueTreeList</title>
<g id="a_node3"><a xlink:href="../api/uqbar/graphs/../containers/UniqueTreeList.html#uqbar.containers.UniqueTreeList.UniqueTreeList" xlink:title="Unique\nTree\nList" target="_top">
<path fill="#b3cde3" stroke="#b3cde3" stroke-width="2" d="M284,-130.5C284,-130.5 268,-130.5 268,-130.5 262,-130.5 256,-124.5 256,-118.5 256,-118.5 256,-101.5 256,-101.5 256,-95.5 262,-89.5 268,-89.5 268,-89.5 284,-89.5 284,-89.5 290,-89.5 296,-95.5 296,-101.5 296,-101.5 296,-118.5 296,-118.5 296,-124.5 290,-130.5 284,-130.5"/>
<text text-anchor="middle" x="276" y="-118.5" font-family="Arial" font-size="10.00" fill="#000000">Unique</text>
<text text-anchor="middle" x="276" y="-107.5" font-family="Arial" font-size="10.00" fill="#000000">Tree</text>
<text text-anchor="middle" x="276" y="-96.5" font-family="Arial" font-size="10.00" fill="#000000">List</text>
</a>
</g>
</g>
<!-- uqbar.containers.UniqueTreeNode.UniqueTreeNode -->
<g id="node4" class="node">
<title>uqbar.containers.UniqueTreeNode.UniqueTreeNode</title>
<g id="a_node4"><a xlink:href="../api/uqbar/graphs/../containers/UniqueTreeNode.html#uqbar.containers.UniqueTreeNode.UniqueTreeNode" xlink:title="Unique\nTree\nNode" target="_top">
<path fill="#b3cde3" stroke="#b3cde3" stroke-width="2" d="M117,-130.5C117,-130.5 101,-130.5 101,-130.5 95,-130.5 89,-124.5 89,-118.5 89,-118.5 89,-101.5 89,-101.5 89,-95.5 95,-89.5 101,-89.5 101,-89.5 117,-89.5 117,-89.5 123,-89.5 129,-95.5 129,-101.5 129,-101.5 129,-118.5 129,-118.5 129,-124.5 123,-130.5 117,-130.5"/>
<text text-anchor="middle" x="109" y="-118.5" font-family="Arial" font-size="10.00" fill="#000000">Unique</text>
<text text-anchor="middle" x="109" y="-107.5" font-family="Arial" font-size="10.00" fill="#000000">Tree</text>
<text text-anchor="middle" x="109" y="-96.5" font-family="Arial" font-size="10.00" fill="#000000">Node</text>
</a>
</g>
</g>
<!-- uqbar.graphs.Attachable.Attachable -->
<g id="node5" class="node">
<title>uqbar.graphs.Attachable.Attachable</title>
<g id="a_node5"><a xlink:href="../api/uqbar/graphs/Attachable.html#uqbar.graphs.Attachable.Attachable" xlink:title="Attachable" target="_top">
<path fill="#ccebc5" stroke="#ccebc5" stroke-width="2" d="M295.6667,-42.5C295.6667,-42.5 256.3333,-42.5 256.3333,-42.5 253.1667,-42.5 250,-39.3333 250,-36.1667 250,-36.1667 250,-29.8333 250,-29.8333 250,-26.6667 253.1667,-23.5 256.3333,-23.5 256.3333,-23.5 295.6667,-23.5 295.6667,-23.5 298.8333,-23.5 302,-26.6667 302,-29.8333 302,-29.8333 302,-36.1667 302,-36.1667 302,-39.3333 298.8333,-42.5 295.6667,-42.5"/>
<text text-anchor="middle" x="276" y="-30.5" font-family="Arial" font-size="10.00" fill="#000000">Attachable</text>
</a>
</g>
</g>
<!-- uqbar.graphs.TableCell.TableCell -->
<g id="node6" class="node">
<title>uqbar.graphs.TableCell.TableCell</title>
<g id="a_node6"><a xlink:href="../api/uqbar/graphs/TableCell.html#uqbar.graphs.TableCell.TableCell" xlink:title="Table\nCell" target="_top">
<path fill="#000000" stroke="#000000" stroke-width="2" d="M363,-46C363,-46 348,-46 348,-46 343,-46 338,-41 338,-36 338,-36 338,-26 338,-26 338,-21 343,-16 348,-16 348,-16 363,-16 363,-16 368,-16 373,-21 373,-26 373,-26 373,-36 373,-36 373,-41 368,-46 363,-46"/>
<text text-anchor="middle" x="355.5" y="-34" font-family="Arial" font-size="10.00" fill="#ffffff">Table</text>
<text text-anchor="middle" x="355.5" y="-23" font-family="Arial" font-size="10.00" fill="#ffffff">Cell</text>
</a>
</g>
</g>
</g>
</svg>
