<?xml version="1.0" encoding="UTF-8" standalone="no"?>
<!DOCTYPE svg PUBLIC "-//W3C//DTD SVG 1.1//EN"
 "http://www.w3.org/Graphics/SVG/1.1/DTD/svg11.dtd">
<!-- Generated by graphviz version 2.40.1 (20161225.0304)
 -->
<!-- Title: InheritanceGraph Pages: 1 -->
<svg width="266pt" height="101pt"
 viewBox="0.00 0.00 266.00 101.00" xmlns="http://www.w3.org/2000/svg" xmlns:xlink="http://www.w3.org/1999/xlink">
<g id="graph0" class="graph" transform="scale(1 1) rotate(0) translate(4 97)">
<title>InheritanceGraph</title>
<g id="clust1" class="cluster">
<title>cluster_builtins</title>
<path fill="transparent" stroke="#bcd2ee" stroke-width="2" stroke-dasharray="5,2" d="M20,-19C20,-19 49,-19 49,-19 55,-19 61,-25 61,-31 61,-31 61,-62 61,-62 61,-68 55,-74 49,-74 49,-74 20,-74 20,-74 14,-74 8,-68 8,-62 8,-62 8,-31 8,-31 8,-25 14,-19 20,-19"/>
<text text-anchor="middle" x="34.5" y="-62" font-family="Arial" font-size="10.00" fill="#000000">builtins</text>
</g>
<g id="clust2" class="cluster">
<title>cluster_uqbar.apis</title>
<path fill="transparent" stroke="#bcd2ee" stroke-width="2" stroke-dasharray="5,2" d="M93,-8C93,-8 238,-8 238,-8 244,-8 250,-14 250,-20 250,-20 250,-73 250,-73 250,-79 244,-85 238,-85 238,-85 93,-85 93,-85 87,-85 81,-79 81,-73 81,-73 81,-20 81,-20 81,-14 87,-8 93,-8"/>
<text text-anchor="middle" x="165.5" y="-73" font-family="Arial" font-size="10.00" fill="#000000">uqbar.apis</text>
</g>
<!-- builtins.object&#45;&gt;uqbar.apis.RootDocumenter.RootDocumenter -->
<g id="edge2" class="edge">
<title>builtins.object&#45;&gt;uqbar.apis.RootDocumenter.RootDocumenter</title>
<path fill="none" stroke="#778899" d="M53.334,-37C60.897,-37 69.9087,-37 78.7529,-37"/>
<polygon fill="#778899" stroke="#778899" points="78.9616,-40.5001 88.9615,-37 78.9615,-33.5001 78.9616,-40.5001"/>
</g>
<!-- uqbar.apis.RootDocumenter.RootDocumenter&#45;&gt;uqbar.apis.SummarizingRootDocumenter.SummarizingRootDocumenter -->
<g id="edge1" class="edge">
<title>uqbar.apis.RootDocumenter.RootDocumenter&#45;&gt;uqbar.apis.SummarizingRootDocumenter.SummarizingRootDocumenter</title>
<path fill="none" stroke="#778899" d="M146.1096,-37C154.1427,-37 163.0319,-37 171.6126,-37"/>
<polygon fill="#778899" stroke="#778899" points="171.848,-40.5001 181.8479,-37 171.8479,-33.5001 171.848,-40.5001"/>
</g>
<!-- builtins.object -->
<g id="node1" class="node">
<title>builtins.object</title>
<g id="a_node1"><a xlink:href="https://docs.python.org/3.6/library/functions.html#object" xlink:title="object" target="_top">
<path fill="#fbb4ae" stroke="#fbb4ae" stroke-width="2" d="M46.6667,-46.5C46.6667,-46.5 22.3333,-46.5 22.3333,-46.5 19.1667,-46.5 16,-43.3333 16,-40.1667 16,-40.1667 16,-33.8333 16,-33.8333 16,-30.6667 19.1667,-27.5 22.3333,-27.5 22.3333,-27.5 46.6667,-27.5 46.6667,-27.5 49.8333,-27.5 53,-30.6667 53,-33.8333 53,-33.8333 53,-40.1667 53,-40.1667 53,-43.3333 49.8333,-46.5 46.6667,-46.5"/>
<text text-anchor="middle" x="34.5" y="-34.5" font-family="Arial" font-size="10.00" fill="#000000">object</text>
</a>
</g>
</g>
<!-- uqbar.apis.RootDocumenter.RootDocumenter -->
<g id="node2" class="node">
<title>uqbar.apis.RootDocumenter.RootDocumenter</title>
<g id="a_node2"><a xlink:href="../api/uqbar/apis/RootDocumenter.html#uqbar.apis.RootDocumenter.RootDocumenter" xlink:title="Root\nDocumenter" target="_top">
<path fill="#b3cde3" stroke="#b3cde3" stroke-width="2" d="M136,-52C136,-52 99,-52 99,-52 94,-52 89,-47 89,-42 89,-42 89,-32 89,-32 89,-27 94,-22 99,-22 99,-22 136,-22 136,-22 141,-22 146,-27 146,-32 146,-32 146,-42 146,-42 146,-47 141,-52 136,-52"/>
<text text-anchor="middle" x="117.5" y="-40" font-family="Arial" font-size="10.00" fill="#000000">Root</text>
<text text-anchor="middle" x="117.5" y="-29" font-family="Arial" font-size="10.00" fill="#000000">Documenter</text>
</a>
</g>
</g>
<!-- uqbar.apis.SummarizingRootDocumenter.SummarizingRootDocumenter -->
<g id="node3" class="node">
<title>uqbar.apis.SummarizingRootDocumenter.SummarizingRootDocumenter</title>
<g id="a_node3"><a xlink:href="../api/uqbar/apis/SummarizingRootDocumenter.html#uqbar.apis.SummarizingRootDocumenter.SummarizingRootDocumenter" xlink:title="Summarizing\nRoot\nDocumenter" target="_top">
<path fill="#000000" stroke="#000000" stroke-width="2" d="M230,-57.5C230,-57.5 194,-57.5 194,-57.5 188,-57.5 182,-51.5 182,-45.5 182,-45.5 182,-28.5 182,-28.5 182,-22.5 188,-16.5 194,-16.5 194,-16.5 230,-16.5 230,-16.5 236,-16.5 242,-22.5 242,-28.5 242,-28.5 242,-45.5 242,-45.5 242,-51.5 236,-57.5 230,-57.5"/>
<text text-anchor="middle" x="212" y="-45.5" font-family="Arial" font-size="10.00" fill="#ffffff">Summarizing</text>
<text text-anchor="middle" x="212" y="-34.5" font-family="Arial" font-size="10.00" fill="#ffffff">Root</text>
<text text-anchor="middle" x="212" y="-23.5" font-family="Arial" font-size="10.00" fill="#ffffff">Documenter</text>
</a>
</g>
</g>
</g>
</svg>
