<?xml version="1.0" encoding="UTF-8" standalone="no"?>
<!DOCTYPE svg PUBLIC "-//W3C//DTD SVG 1.1//EN"
 "http://www.w3.org/Graphics/SVG/1.1/DTD/svg11.dtd">
<!-- Generated by graphviz version 2.44.0 (20200408.0750)
 -->
<!-- Title: InheritanceGraph Pages: 1 -->
<svg width="642pt" height="644pt"
 viewBox="0.00 0.00 642.00 644.00" xmlns="http://www.w3.org/2000/svg" xmlns:xlink="http://www.w3.org/1999/xlink">
<g id="graph0" class="graph" transform="scale(1 1) rotate(0) translate(4 640)">
<title>InheritanceGraph</title>
<g id="clust1" class="cluster">
<title>cluster_builtins</title>
<path fill="transparent" stroke="#bcd2ee" stroke-width="2" stroke-dasharray="5,2" d="M20,-450C20,-450 55,-450 55,-450 61,-450 67,-456 67,-462 67,-462 67,-493 67,-493 67,-499 61,-505 55,-505 55,-505 20,-505 20,-505 14,-505 8,-499 8,-493 8,-493 8,-462 8,-462 8,-456 14,-450 20,-450"/>
<text text-anchor="middle" x="37.5" y="-493" font-family="Arial" font-size="10.00">builtins</text>
</g>
<g id="clust2" class="cluster">
<title>cluster_uqbar.apis</title>
<path fill="transparent" stroke="#bcd2ee" stroke-width="2" stroke-dasharray="5,2" d="M384,-210C384,-210 431,-210 431,-210 437,-210 443,-216 443,-222 443,-222 443,-311 443,-311 443,-317 437,-323 431,-323 431,-323 384,-323 384,-323 378,-323 372,-317 372,-311 372,-311 372,-222 372,-222 372,-216 378,-210 384,-210"/>
<text text-anchor="middle" x="407.5" y="-311" font-family="Arial" font-size="10.00">uqbar.apis</text>
</g>
<g id="clust3" class="cluster">
<title>cluster_uqbar.containers</title>
<path fill="transparent" stroke="#bcd2ee" stroke-width="2" stroke-dasharray="5,2" d="M99,-412C99,-412 427,-412 427,-412 433,-412 439,-418 439,-424 439,-424 439,-616 439,-616 439,-622 433,-628 427,-628 427,-628 99,-628 99,-628 93,-628 87,-622 87,-616 87,-616 87,-424 87,-424 87,-418 93,-412 99,-412"/>
<text text-anchor="middle" x="263" y="-616" font-family="Arial" font-size="10.00">uqbar.containers</text>
</g>
<g id="clust4" class="cluster">
<title>cluster_uqbar.graphs</title>
<path fill="transparent" stroke="#bcd2ee" stroke-width="2" stroke-dasharray="5,2" d="M475,-63C475,-63 614,-63 614,-63 620,-63 626,-69 626,-75 626,-75 626,-475 626,-475 626,-481 620,-487 614,-487 614,-487 475,-487 475,-487 469,-487 463,-481 463,-475 463,-475 463,-75 463,-75 463,-69 469,-63 475,-63"/>
<text text-anchor="middle" x="544.5" y="-475" font-family="Arial" font-size="10.00">uqbar.graphs</text>
</g>
<!-- builtins.object&#45;&gt;uqbar.containers.DependencyGraph.DependencyGraph -->
<g id="edge8" class="edge">
<title>builtins.object&#45;&gt;uqbar.containers.DependencyGraph.DependencyGraph</title>
<path fill="none" stroke="lightslategrey" d="M59.15,-474.13C66.85,-476.41 75.92,-479.1 84.95,-481.78"/>
<polygon fill="lightslategrey" stroke="lightslategrey" points="84.07,-485.17 94.65,-484.66 86.06,-478.46 84.07,-485.17"/>
</g>
<!-- builtins.object&#45;&gt;uqbar.containers.UniqueTreeNode.UniqueTreeNode -->
<g id="edge9" class="edge">
<title>builtins.object&#45;&gt;uqbar.containers.UniqueTreeNode.UniqueTreeNode</title>
<path fill="none" stroke="lightslategrey" d="M59.15,-461.87C70.32,-458.56 84.38,-454.39 96.98,-450.65"/>
<polygon fill="lightslategrey" stroke="lightslategrey" points="98.11,-453.97 106.7,-447.77 96.11,-447.25 98.11,-453.97"/>
</g>
<!-- uqbar.containers.UniqueTreeContainer.UniqueTreeContainer&#45;&gt;uqbar.containers.UniqueTreeDict.UniqueTreeDict -->
<g id="edge1" class="edge">
<title>uqbar.containers.UniqueTreeContainer.UniqueTreeContainer&#45;&gt;uqbar.containers.UniqueTreeDict.UniqueTreeDict</title>
<path fill="none" stroke="lightslategrey" d="M261.47,-480.35C270.14,-474.47 279.69,-468 288.49,-462.03"/>
<polygon fill="lightslategrey" stroke="lightslategrey" points="290.67,-464.78 296.98,-456.27 286.74,-458.99 290.67,-464.78"/>
</g>
<!-- uqbar.containers.UniqueTreeContainer.UniqueTreeContainer&#45;&gt;uqbar.containers.UniqueTreeList.UniqueTreeList -->
<g id="edge2" class="edge">
<title>uqbar.containers.UniqueTreeContainer.UniqueTreeContainer&#45;&gt;uqbar.containers.UniqueTreeList.UniqueTreeList</title>
<path fill="none" stroke="lightslategrey" d="M261.47,-500C269.6,-500 278.5,-500 286.83,-500"/>
<polygon fill="lightslategrey" stroke="lightslategrey" points="286.98,-503.5 296.98,-500 286.98,-496.5 286.98,-503.5"/>
</g>
<!-- uqbar.containers.UniqueTreeContainer.UniqueTreeContainer&#45;&gt;uqbar.containers.UniqueTreeSet.UniqueTreeSet -->
<g id="edge3" class="edge">
<title>uqbar.containers.UniqueTreeContainer.UniqueTreeContainer&#45;&gt;uqbar.containers.UniqueTreeSet.UniqueTreeSet</title>
<path fill="none" stroke="lightslategrey" d="M261.03,-513.38C272.23,-518.61 285.2,-524.62 297,-530 317.82,-539.49 323.18,-541.52 344,-551 354.06,-555.58 365.01,-560.64 374.89,-565.23"/>
<polygon fill="lightslategrey" stroke="lightslategrey" points="373.43,-568.41 383.97,-569.45 376.38,-562.06 373.43,-568.41"/>
</g>
<!-- uqbar.containers.UniqueTreeContainer.UniqueTreeContainer&#45;&gt;uqbar.containers.UniqueTreeTuple.UniqueTreeTuple -->
<g id="edge4" class="edge">
<title>uqbar.containers.UniqueTreeContainer.UniqueTreeContainer&#45;&gt;uqbar.containers.UniqueTreeTuple.UniqueTreeTuple</title>
<path fill="none" stroke="lightslategrey" d="M254.9,-520.6C265.46,-530.31 278.2,-542.02 289.57,-552.47"/>
<polygon fill="lightslategrey" stroke="lightslategrey" points="287.44,-555.28 297.17,-559.47 292.18,-550.12 287.44,-555.28"/>
</g>
<!-- uqbar.containers.UniqueTreeList.UniqueTreeList&#45;&gt;uqbar.apis.PackageNode.PackageNode -->
<g id="edge10" class="edge">
<title>uqbar.containers.UniqueTreeList.UniqueTreeList&#45;&gt;uqbar.apis.PackageNode.PackageNode</title>
<path fill="none" stroke="lightslategrey" d="M339.42,-479.19C341.16,-476.55 342.74,-473.79 344,-471 370.94,-411.63 345.55,-386.59 372,-327 375.53,-319.04 380.66,-311.17 385.89,-304.25"/>
<polygon fill="lightslategrey" stroke="lightslategrey" points="388.93,-306.05 392.45,-296.05 383.47,-301.67 388.93,-306.05"/>
</g>
<!-- uqbar.containers.UniqueTreeList.UniqueTreeList&#45;&gt;uqbar.graphs.TableCell.TableCell -->
<g id="edge15" class="edge">
<title>uqbar.containers.UniqueTreeList.UniqueTreeList&#45;&gt;uqbar.graphs.TableCell.TableCell</title>
<path fill="none" stroke="lightslategrey" d="M344.2,-504.19C387.29,-510.74 481.31,-518 534,-469 577.5,-428.54 588.97,-355.31 591.96,-316.6"/>
<polygon fill="lightslategrey" stroke="lightslategrey" points="595.48,-316.41 592.62,-306.2 588.49,-315.96 595.48,-316.41"/>
</g>
<!-- uqbar.containers.UniqueTreeList.UniqueTreeList&#45;&gt;uqbar.graphs.Graph.Graph -->
<g id="edge11" class="edge">
<title>uqbar.containers.UniqueTreeList.UniqueTreeList&#45;&gt;uqbar.graphs.Graph.Graph</title>
<path fill="none" stroke="lightslategrey" d="M344.01,-494.72C368.49,-488.86 408.71,-478.93 443,-469 452.17,-466.35 462.06,-463.23 471.06,-460.3"/>
<polygon fill="lightslategrey" stroke="lightslategrey" points="472.35,-463.55 480.75,-457.1 470.16,-456.91 472.35,-463.55"/>
</g>
<!-- uqbar.containers.UniqueTreeList.UniqueTreeList&#45;&gt;uqbar.graphs.Node.Node -->
<g id="edge12" class="edge">
<title>uqbar.containers.UniqueTreeList.UniqueTreeList&#45;&gt;uqbar.graphs.Node.Node</title>
<path fill="none" stroke="lightslategrey" d="M344.23,-485.1C352.78,-479.74 362.69,-473.84 372,-469 405.73,-451.47 446.15,-434.62 472.75,-424.06"/>
<polygon fill="lightslategrey" stroke="lightslategrey" points="474.21,-427.25 482.23,-420.33 471.65,-420.73 474.21,-427.25"/>
</g>
<!-- uqbar.containers.UniqueTreeList.UniqueTreeList&#45;&gt;uqbar.graphs.RecordGroup.RecordGroup -->
<g id="edge13" class="edge">
<title>uqbar.containers.UniqueTreeList.UniqueTreeList&#45;&gt;uqbar.graphs.RecordGroup.RecordGroup</title>
<path fill="none" stroke="lightslategrey" d="M337.57,-479.48C339.75,-476.64 341.94,-473.76 344,-471 356.76,-453.9 355.64,-445.7 372,-432 387.61,-418.92 436.04,-397.29 469.04,-383.34"/>
<polygon fill="lightslategrey" stroke="lightslategrey" points="470.44,-386.55 478.31,-379.45 467.74,-380.09 470.44,-386.55"/>
</g>
<!-- uqbar.containers.UniqueTreeList.UniqueTreeList&#45;&gt;uqbar.graphs.Table.Table -->
<g id="edge14" class="edge">
<title>uqbar.containers.UniqueTreeList.UniqueTreeList&#45;&gt;uqbar.graphs.Table.Table</title>
<path fill="none" stroke="lightslategrey" d="M338.78,-479.31C340.67,-476.6 342.47,-473.79 344,-471 361.73,-438.72 347.73,-420.71 372,-393 375.67,-388.81 435.98,-358.96 472.98,-340.87"/>
<polygon fill="lightslategrey" stroke="lightslategrey" points="474.84,-343.86 482.29,-336.32 471.77,-337.57 474.84,-343.86"/>
</g>
<!-- uqbar.containers.UniqueTreeList.UniqueTreeList&#45;&gt;uqbar.graphs.TableRow.TableRow -->
<g id="edge16" class="edge">
<title>uqbar.containers.UniqueTreeList.UniqueTreeList&#45;&gt;uqbar.graphs.TableRow.TableRow</title>
<path fill="none" stroke="lightslategrey" d="M339.08,-479.46C340.92,-476.73 342.62,-473.87 344,-471 366.99,-423.21 337.19,-395.01 372,-355 394.26,-329.41 414.16,-344.85 443,-327 453.17,-320.71 453.51,-316.28 463,-309 466.41,-306.38 470.1,-303.75 473.79,-301.24"/>
<polygon fill="lightslategrey" stroke="lightslategrey" points="475.87,-304.06 482.3,-295.63 472.02,-298.22 475.87,-304.06"/>
</g>
<!-- uqbar.containers.UniqueTreeNode.UniqueTreeNode&#45;&gt;uqbar.apis.ModuleNode.ModuleNode -->
<g id="edge17" class="edge">
<title>uqbar.containers.UniqueTreeNode.UniqueTreeNode&#45;&gt;uqbar.apis.ModuleNode.ModuleNode</title>
<path fill="none" stroke="lightslategrey" d="M154.12,-423.15C196.44,-389.87 290.68,-316.35 372,-257 373.38,-255.99 374.79,-254.97 376.22,-253.95"/>
<polygon fill="lightslategrey" stroke="lightslategrey" points="378.36,-256.72 384.49,-248.09 374.31,-251.01 378.36,-256.72"/>
</g>
<!-- uqbar.containers.UniqueTreeNode.UniqueTreeNode&#45;&gt;uqbar.containers.UniqueTreeContainer.UniqueTreeContainer -->
<g id="edge5" class="edge">
<title>uqbar.containers.UniqueTreeNode.UniqueTreeNode&#45;&gt;uqbar.containers.UniqueTreeContainer.UniqueTreeContainer</title>
<path fill="none" stroke="lightslategrey" d="M154.46,-454.68C165.97,-461.54 180.2,-470.02 193.22,-477.78"/>
<polygon fill="lightslategrey" stroke="lightslategrey" points="191.62,-480.9 202,-483.01 195.2,-474.89 191.62,-480.9"/>
</g>
<!-- uqbar.containers.UniqueTreeNode.UniqueTreeNode&#45;&gt;uqbar.graphs.Attachable.Attachable -->
<g id="edge18" class="edge">
<title>uqbar.containers.UniqueTreeNode.UniqueTreeNode&#45;&gt;uqbar.graphs.Attachable.Attachable</title>
<path fill="none" stroke="lightslategrey" d="M143.52,-420.26C173.93,-370.29 259.62,-244.51 372,-206 401.85,-195.77 413.38,-195.11 443,-206 453.95,-210.02 453.18,-216.7 463,-223 464.92,-224.23 466.93,-225.43 468.99,-226.58"/>
<polygon fill="lightslategrey" stroke="lightslategrey" points="467.67,-229.84 478.16,-231.31 470.88,-223.62 467.67,-229.84"/>
</g>
<!-- uqbar.containers.UniqueTreeNode.UniqueTreeNode&#45;&gt;uqbar.graphs.RecordField.RecordField -->
<g id="edge21" class="edge">
<title>uqbar.containers.UniqueTreeNode.UniqueTreeNode&#45;&gt;uqbar.graphs.RecordField.RecordField</title>
<path fill="none" stroke="lightslategrey" d="M130.8,-420.32C129.02,-333.13 134.31,0 319.5,0 319.5,0 319.5,0 408.5,0 470.91,0 490.54,-18.2 534,-63 562.22,-92.09 578.71,-137.15 586.77,-165.04"/>
<polygon fill="lightslategrey" stroke="lightslategrey" points="583.44,-166.11 589.46,-174.82 590.19,-164.25 583.44,-166.11"/>
</g>
<!-- uqbar.containers.UniqueTreeNode.UniqueTreeNode&#45;&gt;uqbar.graphs.HRule.HRule -->
<g id="edge19" class="edge">
<title>uqbar.containers.UniqueTreeNode.UniqueTreeNode&#45;&gt;uqbar.graphs.HRule.HRule</title>
<path fill="none" stroke="lightslategrey" d="M135.9,-420.35C143.98,-386.49 163.97,-318.5 202,-274 256.26,-210.52 289.27,-205.36 372,-194 403.26,-189.71 411.56,-191.33 443,-194 452,-194.76 461.7,-196.18 470.56,-197.71"/>
<polygon fill="lightslategrey" stroke="lightslategrey" points="470.02,-201.17 480.49,-199.52 471.28,-194.28 470.02,-201.17"/>
</g>
<!-- uqbar.containers.UniqueTreeNode.UniqueTreeNode&#45;&gt;uqbar.graphs.LineBreak.LineBreak -->
<g id="edge20" class="edge">
<title>uqbar.containers.UniqueTreeNode.UniqueTreeNode&#45;&gt;uqbar.graphs.LineBreak.LineBreak</title>
<path fill="none" stroke="lightslategrey" d="M131.71,-420.34C133.32,-376.39 143.51,-273.15 202,-218 277.02,-147.26 411.29,-151.18 471.2,-157.09"/>
<polygon fill="lightslategrey" stroke="lightslategrey" points="470.84,-160.57 481.16,-158.16 471.59,-153.61 470.84,-160.57"/>
</g>
<!-- uqbar.containers.UniqueTreeNode.UniqueTreeNode&#45;&gt;uqbar.graphs.Text.Text -->
<g id="edge22" class="edge">
<title>uqbar.containers.UniqueTreeNode.UniqueTreeNode&#45;&gt;uqbar.graphs.Text.Text</title>
<path fill="none" stroke="lightslategrey" d="M134.28,-420.27C142.22,-364.21 166.71,-211.48 202,-177 277.32,-103.42 416.14,-108.52 474.52,-114.48"/>
<polygon fill="lightslategrey" stroke="lightslategrey" points="474.44,-118 484.77,-115.63 475.22,-111.04 474.44,-118"/>
</g>
<!-- uqbar.containers.UniqueTreeNode.UniqueTreeNode&#45;&gt;uqbar.graphs.VRule.VRule -->
<g id="edge23" class="edge">
<title>uqbar.containers.UniqueTreeNode.UniqueTreeNode&#45;&gt;uqbar.graphs.VRule.VRule</title>
<path fill="none" stroke="lightslategrey" d="M133.48,-420.19C139.79,-358.11 161.46,-175.99 202,-135 274.2,-62 409.37,-68.71 470.3,-76.18"/>
<polygon fill="lightslategrey" stroke="lightslategrey" points="470.07,-79.68 480.45,-77.52 470.99,-72.74 470.07,-79.68"/>
</g>
<!-- uqbar.graphs.Attachable.Attachable&#45;&gt;uqbar.graphs.RecordField.RecordField -->
<g id="edge6" class="edge">
<title>uqbar.graphs.Attachable.Attachable&#45;&gt;uqbar.graphs.RecordField.RecordField</title>
<path fill="none" stroke="lightslategrey" d="M520.33,-231.41C531.8,-224.87 547.33,-216.02 561.1,-208.18"/>
<polygon fill="lightslategrey" stroke="lightslategrey" points="562.87,-211.2 569.82,-203.21 559.4,-205.12 562.87,-211.2"/>
</g>
<!-- uqbar.graphs.Attachable.Attachable&#45;&gt;uqbar.graphs.TableCell.TableCell -->
<g id="edge7" class="edge">
<title>uqbar.graphs.Attachable.Attachable&#45;&gt;uqbar.graphs.TableCell.TableCell</title>
<path fill="none" stroke="lightslategrey" d="M520.76,-250.64C533.26,-257.62 550.43,-267.22 564.9,-275.3"/>
<polygon fill="lightslategrey" stroke="lightslategrey" points="563.5,-278.53 573.94,-280.35 566.91,-272.42 563.5,-278.53"/>
</g>
<!-- builtins.object -->
<g id="node1" class="node">
<title>builtins.object</title>
<g id="a_node1"><a xlink:href="https://docs.python.org/3.6/library/functions.html#object" xlink:title="object" target="_top">
<path fill="#fbb4ae" stroke="#fbb4ae" stroke-width="2" d="M52.67,-477.5C52.67,-477.5 22.33,-477.5 22.33,-477.5 19.17,-477.5 16,-474.33 16,-471.17 16,-471.17 16,-464.83 16,-464.83 16,-461.67 19.17,-458.5 22.33,-458.5 22.33,-458.5 52.67,-458.5 52.67,-458.5 55.83,-458.5 59,-461.67 59,-464.83 59,-464.83 59,-471.17 59,-471.17 59,-474.33 55.83,-477.5 52.67,-477.5"/>
<text text-anchor="middle" x="37.5" y="-465.5" font-family="Arial" font-size="10.00">object</text>
</a>
</g>
</g>
<!-- uqbar.apis.ModuleNode.ModuleNode -->
<g id="node2" class="node">
<title>uqbar.apis.ModuleNode.ModuleNode</title>
<g id="a_node2"><a xlink:href="../api/uqbar/containers/../apis/ModuleNode.html#uqbar.apis.ModuleNode.ModuleNode" xlink:title="Module\nNode" target="_top">
<path fill="#b3cde3" stroke="#b3cde3" stroke-width="2" d="M421.5,-248C421.5,-248 393.5,-248 393.5,-248 388.5,-248 383.5,-243 383.5,-238 383.5,-238 383.5,-228 383.5,-228 383.5,-223 388.5,-218 393.5,-218 393.5,-218 421.5,-218 421.5,-218 426.5,-218 431.5,-223 431.5,-228 431.5,-228 431.5,-238 431.5,-238 431.5,-243 426.5,-248 421.5,-248"/>
<text text-anchor="middle" x="407.5" y="-236" font-family="Arial" font-size="10.00">Module</text>
<text text-anchor="middle" x="407.5" y="-225" font-family="Arial" font-size="10.00">Node</text>
</a>
</g>
</g>
<!-- uqbar.apis.PackageNode.PackageNode -->
<g id="node3" class="node">
<title>uqbar.apis.PackageNode.PackageNode</title>
<g id="a_node3"><a xlink:href="../api/uqbar/containers/../apis/PackageNode.html#uqbar.apis.PackageNode.PackageNode" xlink:title="Package\nNode" target="_top">
<path fill="#b3cde3" stroke="#b3cde3" stroke-width="2" d="M425,-296C425,-296 390,-296 390,-296 385,-296 380,-291 380,-286 380,-286 380,-276 380,-276 380,-271 385,-266 390,-266 390,-266 425,-266 425,-266 430,-266 435,-271 435,-276 435,-276 435,-286 435,-286 435,-291 430,-296 425,-296"/>
<text text-anchor="middle" x="407.5" y="-284" font-family="Arial" font-size="10.00">Package</text>
<text text-anchor="middle" x="407.5" y="-273" font-family="Arial" font-size="10.00">Node</text>
</a>
</g>
</g>
<!-- uqbar.containers.DependencyGraph.DependencyGraph -->
<g id="node4" class="node">
<title>uqbar.containers.DependencyGraph.DependencyGraph</title>
<g id="a_node4"><a xlink:href="../api/uqbar/containers/DependencyGraph.html#uqbar.containers.DependencyGraph.DependencyGraph" xlink:title="Dependency\nGraph" target="_top">
<path fill="black" stroke="black" stroke-width="2" d="M156,-510C156,-510 105,-510 105,-510 100,-510 95,-505 95,-500 95,-500 95,-490 95,-490 95,-485 100,-480 105,-480 105,-480 156,-480 156,-480 161,-480 166,-485 166,-490 166,-490 166,-500 166,-500 166,-505 161,-510 156,-510"/>
<text text-anchor="middle" x="130.5" y="-498" font-family="Arial" font-size="10.00" fill="white">Dependency</text>
<text text-anchor="middle" x="130.5" y="-487" font-family="Arial" font-size="10.00" fill="white">Graph</text>
</a>
</g>
</g>
<!-- uqbar.containers.UniqueTreeContainer.UniqueTreeContainer -->
<g id="node5" class="node">
<title>uqbar.containers.UniqueTreeContainer.UniqueTreeContainer</title>
<g id="a_node5"><a xlink:href="../api/uqbar/containers/UniqueTreeContainer.html#uqbar.containers.UniqueTreeContainer.UniqueTreeContainer" xlink:title="Unique\nTree\nContainer" target="_top">
<path fill="black" stroke="black" stroke-width="2" d="M249,-520.5C249,-520.5 214,-520.5 214,-520.5 208,-520.5 202,-514.5 202,-508.5 202,-508.5 202,-491.5 202,-491.5 202,-485.5 208,-479.5 214,-479.5 214,-479.5 249,-479.5 249,-479.5 255,-479.5 261,-485.5 261,-491.5 261,-491.5 261,-508.5 261,-508.5 261,-514.5 255,-520.5 249,-520.5"/>
<text text-anchor="middle" x="231.5" y="-508.5" font-family="Arial" font-size="10.00" fill="white">Unique</text>
<text text-anchor="middle" x="231.5" y="-497.5" font-family="Arial" font-size="10.00" fill="white">Tree</text>
<text text-anchor="middle" x="231.5" y="-486.5" font-family="Arial" font-size="10.00" fill="white">Container</text>
</a>
</g>
</g>
<!-- uqbar.containers.UniqueTreeDict.UniqueTreeDict -->
<g id="node6" class="node">
<title>uqbar.containers.UniqueTreeDict.UniqueTreeDict</title>
<g id="a_node6"><a xlink:href="../api/uqbar/containers/UniqueTreeDict.html#uqbar.containers.UniqueTreeDict.UniqueTreeDict" xlink:title="Unique\nTree\nDict" target="_top">
<path fill="black" stroke="black" stroke-width="2" d="M332,-461.5C332,-461.5 309,-461.5 309,-461.5 303,-461.5 297,-455.5 297,-449.5 297,-449.5 297,-432.5 297,-432.5 297,-426.5 303,-420.5 309,-420.5 309,-420.5 332,-420.5 332,-420.5 338,-420.5 344,-426.5 344,-432.5 344,-432.5 344,-449.5 344,-449.5 344,-455.5 338,-461.5 332,-461.5"/>
<text text-anchor="middle" x="320.5" y="-449.5" font-family="Arial" font-size="10.00" fill="white">Unique</text>
<text text-anchor="middle" x="320.5" y="-438.5" font-family="Arial" font-size="10.00" fill="white">Tree</text>
<text text-anchor="middle" x="320.5" y="-427.5" font-family="Arial" font-size="10.00" fill="white">Dict</text>
</a>
</g>
</g>
<!-- uqbar.containers.UniqueTreeList.UniqueTreeList -->
<g id="node7" class="node">
<title>uqbar.containers.UniqueTreeList.UniqueTreeList</title>
<g id="a_node7"><a xlink:href="../api/uqbar/containers/UniqueTreeList.html#uqbar.containers.UniqueTreeList.UniqueTreeList" xlink:title="Unique\nTree\nList" target="_top">
<path fill="black" stroke="black" stroke-width="2" d="M332,-520.5C332,-520.5 309,-520.5 309,-520.5 303,-520.5 297,-514.5 297,-508.5 297,-508.5 297,-491.5 297,-491.5 297,-485.5 303,-479.5 309,-479.5 309,-479.5 332,-479.5 332,-479.5 338,-479.5 344,-485.5 344,-491.5 344,-491.5 344,-508.5 344,-508.5 344,-514.5 338,-520.5 332,-520.5"/>
<text text-anchor="middle" x="320.5" y="-508.5" font-family="Arial" font-size="10.00" fill="white">Unique</text>
<text text-anchor="middle" x="320.5" y="-497.5" font-family="Arial" font-size="10.00" fill="white">Tree</text>
<text text-anchor="middle" x="320.5" y="-486.5" font-family="Arial" font-size="10.00" fill="white">List</text>
</a>
</g>
</g>
<!-- uqbar.containers.UniqueTreeSet.UniqueTreeSet -->
<g id="node8" class="node">
<title>uqbar.containers.UniqueTreeSet.UniqueTreeSet</title>
<g id="a_node8"><a xlink:href="../api/uqbar/containers/UniqueTreeSet.html#uqbar.containers.UniqueTreeSet.UniqueTreeSet" xlink:title="Unique\nTree\nSet" target="_top">
<path fill="black" stroke="black" stroke-width="2" d="M419,-600.5C419,-600.5 396,-600.5 396,-600.5 390,-600.5 384,-594.5 384,-588.5 384,-588.5 384,-571.5 384,-571.5 384,-565.5 390,-559.5 396,-559.5 396,-559.5 419,-559.5 419,-559.5 425,-559.5 431,-565.5 431,-571.5 431,-571.5 431,-588.5 431,-588.5 431,-594.5 425,-600.5 419,-600.5"/>
<text text-anchor="middle" x="407.5" y="-588.5" font-family="Arial" font-size="10.00" fill="white">Unique</text>
<text text-anchor="middle" x="407.5" y="-577.5" font-family="Arial" font-size="10.00" fill="white">Tree</text>
<text text-anchor="middle" x="407.5" y="-566.5" font-family="Arial" font-size="10.00" fill="white">Set</text>
</a>
</g>
</g>
<!-- uqbar.containers.UniqueTreeTuple.UniqueTreeTuple -->
<g id="node9" class="node">
<title>uqbar.containers.UniqueTreeTuple.UniqueTreeTuple</title>
<g id="a_node9"><a xlink:href="../api/uqbar/containers/UniqueTreeTuple.html#uqbar.containers.UniqueTreeTuple.UniqueTreeTuple" xlink:title="Unique\nTree\nTuple" target="_top">
<path fill="black" stroke="black" stroke-width="2" d="M332,-600.5C332,-600.5 309,-600.5 309,-600.5 303,-600.5 297,-594.5 297,-588.5 297,-588.5 297,-571.5 297,-571.5 297,-565.5 303,-559.5 309,-559.5 309,-559.5 332,-559.5 332,-559.5 338,-559.5 344,-565.5 344,-571.5 344,-571.5 344,-588.5 344,-588.5 344,-594.5 338,-600.5 332,-600.5"/>
<text text-anchor="middle" x="320.5" y="-588.5" font-family="Arial" font-size="10.00" fill="white">Unique</text>
<text text-anchor="middle" x="320.5" y="-577.5" font-family="Arial" font-size="10.00" fill="white">Tree</text>
<text text-anchor="middle" x="320.5" y="-566.5" font-family="Arial" font-size="10.00" fill="white">Tuple</text>
</a>
</g>
</g>
<!-- uqbar.containers.UniqueTreeNode.UniqueTreeNode -->
<g id="node10" class="node">
<title>uqbar.containers.UniqueTreeNode.UniqueTreeNode</title>
<g id="a_node10"><a xlink:href="../api/uqbar/containers/UniqueTreeNode.html#uqbar.containers.UniqueTreeNode.UniqueTreeNode" xlink:title="Unique\nTree\nNode" target="_top">
<path fill="black" stroke="black" stroke-width="2" d="M142,-461.5C142,-461.5 119,-461.5 119,-461.5 113,-461.5 107,-455.5 107,-449.5 107,-449.5 107,-432.5 107,-432.5 107,-426.5 113,-420.5 119,-420.5 119,-420.5 142,-420.5 142,-420.5 148,-420.5 154,-426.5 154,-432.5 154,-432.5 154,-449.5 154,-449.5 154,-455.5 148,-461.5 142,-461.5"/>
<text text-anchor="middle" x="130.5" y="-449.5" font-family="Arial" font-size="10.00" fill="white">Unique</text>
<text text-anchor="middle" x="130.5" y="-438.5" font-family="Arial" font-size="10.00" fill="white">Tree</text>
<text text-anchor="middle" x="130.5" y="-427.5" font-family="Arial" font-size="10.00" fill="white">Node</text>
</a>
</g>
</g>
<!-- uqbar.graphs.Attachable.Attachable -->
<g id="node11" class="node">
<title>uqbar.graphs.Attachable.Attachable</title>
<g id="a_node11"><a xlink:href="../api/uqbar/containers/../graphs/Attachable.html#uqbar.graphs.Attachable.Attachable" xlink:title="Attachable" target="_top">
<path fill="#decbe4" stroke="#decbe4" stroke-width="2" d="M527.67,-250.5C527.67,-250.5 477.33,-250.5 477.33,-250.5 474.17,-250.5 471,-247.33 471,-244.17 471,-244.17 471,-237.83 471,-237.83 471,-234.67 474.17,-231.5 477.33,-231.5 477.33,-231.5 527.67,-231.5 527.67,-231.5 530.83,-231.5 534,-234.67 534,-237.83 534,-237.83 534,-244.17 534,-244.17 534,-247.33 530.83,-250.5 527.67,-250.5"/>
<text text-anchor="middle" x="502.5" y="-238.5" font-family="Arial" font-size="10.00">Attachable</text>
</a>
</g>
</g>
<!-- uqbar.graphs.RecordField.RecordField -->
<g id="node12" class="node">
<title>uqbar.graphs.RecordField.RecordField</title>
<g id="a_node12"><a xlink:href="../api/uqbar/containers/../graphs/RecordField.html#uqbar.graphs.RecordField.RecordField" xlink:title="Record\nField" target="_top">
<path fill="#decbe4" stroke="#decbe4" stroke-width="2" d="M608,-205C608,-205 580,-205 580,-205 575,-205 570,-200 570,-195 570,-195 570,-185 570,-185 570,-180 575,-175 580,-175 580,-175 608,-175 608,-175 613,-175 618,-180 618,-185 618,-185 618,-195 618,-195 618,-200 613,-205 608,-205"/>
<text text-anchor="middle" x="594" y="-193" font-family="Arial" font-size="10.00">Record</text>
<text text-anchor="middle" x="594" y="-182" font-family="Arial" font-size="10.00">Field</text>
</a>
</g>
</g>
<!-- uqbar.graphs.TableCell.TableCell -->
<g id="node13" class="node">
<title>uqbar.graphs.TableCell.TableCell</title>
<g id="a_node13"><a xlink:href="../api/uqbar/containers/../graphs/TableCell.html#uqbar.graphs.TableCell.TableCell" xlink:title="Table\nCell" target="_top">
<path fill="#decbe4" stroke="#decbe4" stroke-width="2" d="M604,-306C604,-306 584,-306 584,-306 579,-306 574,-301 574,-296 574,-296 574,-286 574,-286 574,-281 579,-276 584,-276 584,-276 604,-276 604,-276 609,-276 614,-281 614,-286 614,-286 614,-296 614,-296 614,-301 609,-306 604,-306"/>
<text text-anchor="middle" x="594" y="-294" font-family="Arial" font-size="10.00">Table</text>
<text text-anchor="middle" x="594" y="-283" font-family="Arial" font-size="10.00">Cell</text>
</a>
</g>
</g>
<!-- uqbar.graphs.Graph.Graph -->
<g id="node14" class="node">
<title>uqbar.graphs.Graph.Graph</title>
<g id="a_node14"><a xlink:href="../api/uqbar/containers/../graphs/Graph.html#uqbar.graphs.Graph.Graph" xlink:title="Graph" target="_top">
<path fill="#decbe4" stroke="#decbe4" stroke-width="2" d="M517.67,-459.5C517.67,-459.5 487.33,-459.5 487.33,-459.5 484.17,-459.5 481,-456.33 481,-453.17 481,-453.17 481,-446.83 481,-446.83 481,-443.67 484.17,-440.5 487.33,-440.5 487.33,-440.5 517.67,-440.5 517.67,-440.5 520.83,-440.5 524,-443.67 524,-446.83 524,-446.83 524,-453.17 524,-453.17 524,-456.33 520.83,-459.5 517.67,-459.5"/>
<text text-anchor="middle" x="502.5" y="-447.5" font-family="Arial" font-size="10.00">Graph</text>
</a>
</g>
</g>
<!-- uqbar.graphs.HRule.HRule -->
<g id="node15" class="node">
<title>uqbar.graphs.HRule.HRule</title>
<g id="a_node15"><a xlink:href="../api/uqbar/containers/../graphs/HRule.html#uqbar.graphs.HRule.HRule" xlink:title="HRule" target="_top">
<path fill="#decbe4" stroke="#decbe4" stroke-width="2" d="M518.17,-213.5C518.17,-213.5 486.83,-213.5 486.83,-213.5 483.67,-213.5 480.5,-210.33 480.5,-207.17 480.5,-207.17 480.5,-200.83 480.5,-200.83 480.5,-197.67 483.67,-194.5 486.83,-194.5 486.83,-194.5 518.17,-194.5 518.17,-194.5 521.33,-194.5 524.5,-197.67 524.5,-200.83 524.5,-200.83 524.5,-207.17 524.5,-207.17 524.5,-210.33 521.33,-213.5 518.17,-213.5"/>
<text text-anchor="middle" x="502.5" y="-201.5" font-family="Arial" font-size="10.00">HRule</text>
</a>
</g>
</g>
<!-- uqbar.graphs.LineBreak.LineBreak -->
<g id="node16" class="node">
<title>uqbar.graphs.LineBreak.LineBreak</title>
<g id="a_node16"><a xlink:href="../api/uqbar/containers/../graphs/LineBreak.html#uqbar.graphs.LineBreak.LineBreak" xlink:title="Line\nBreak" target="_top">
<path fill="#decbe4" stroke="#decbe4" stroke-width="2" d="M513.5,-176C513.5,-176 491.5,-176 491.5,-176 486.5,-176 481.5,-171 481.5,-166 481.5,-166 481.5,-156 481.5,-156 481.5,-151 486.5,-146 491.5,-146 491.5,-146 513.5,-146 513.5,-146 518.5,-146 523.5,-151 523.5,-156 523.5,-156 523.5,-166 523.5,-166 523.5,-171 518.5,-176 513.5,-176"/>
<text text-anchor="middle" x="502.5" y="-164" font-family="Arial" font-size="10.00">Line</text>
<text text-anchor="middle" x="502.5" y="-153" font-family="Arial" font-size="10.00">Break</text>
</a>
</g>
</g>
<!-- uqbar.graphs.Node.Node -->
<g id="node17" class="node">
<title>uqbar.graphs.Node.Node</title>
<g id="a_node17"><a xlink:href="../api/uqbar/containers/../graphs/Node.html#uqbar.graphs.Node.Node" xlink:title="Node" target="_top">
<path fill="#decbe4" stroke="#decbe4" stroke-width="2" d="M516.17,-422.5C516.17,-422.5 488.83,-422.5 488.83,-422.5 485.67,-422.5 482.5,-419.33 482.5,-416.17 482.5,-416.17 482.5,-409.83 482.5,-409.83 482.5,-406.67 485.67,-403.5 488.83,-403.5 488.83,-403.5 516.17,-403.5 516.17,-403.5 519.33,-403.5 522.5,-406.67 522.5,-409.83 522.5,-409.83 522.5,-416.17 522.5,-416.17 522.5,-419.33 519.33,-422.5 516.17,-422.5"/>
<text text-anchor="middle" x="502.5" y="-410.5" font-family="Arial" font-size="10.00">Node</text>
</a>
</g>
</g>
<!-- uqbar.graphs.RecordGroup.RecordGroup -->
<g id="node18" class="node">
<title>uqbar.graphs.RecordGroup.RecordGroup</title>
<g id="a_node18"><a xlink:href="../api/uqbar/containers/../graphs/RecordGroup.html#uqbar.graphs.RecordGroup.RecordGroup" xlink:title="Record\nGroup" target="_top">
<path fill="#decbe4" stroke="#decbe4" stroke-width="2" d="M516.5,-385C516.5,-385 488.5,-385 488.5,-385 483.5,-385 478.5,-380 478.5,-375 478.5,-375 478.5,-365 478.5,-365 478.5,-360 483.5,-355 488.5,-355 488.5,-355 516.5,-355 516.5,-355 521.5,-355 526.5,-360 526.5,-365 526.5,-365 526.5,-375 526.5,-375 526.5,-380 521.5,-385 516.5,-385"/>
<text text-anchor="middle" x="502.5" y="-373" font-family="Arial" font-size="10.00">Record</text>
<text text-anchor="middle" x="502.5" y="-362" font-family="Arial" font-size="10.00">Group</text>
</a>
</g>
</g>
<!-- uqbar.graphs.Table.Table -->
<g id="node19" class="node">
<title>uqbar.graphs.Table.Table</title>
<g id="a_node19"><a xlink:href="../api/uqbar/containers/../graphs/Table.html#uqbar.graphs.Table.Table" xlink:title="Table" target="_top">
<path fill="#decbe4" stroke="#decbe4" stroke-width="2" d="M516.17,-336.5C516.17,-336.5 488.83,-336.5 488.83,-336.5 485.67,-336.5 482.5,-333.33 482.5,-330.17 482.5,-330.17 482.5,-323.83 482.5,-323.83 482.5,-320.67 485.67,-317.5 488.83,-317.5 488.83,-317.5 516.17,-317.5 516.17,-317.5 519.33,-317.5 522.5,-320.67 522.5,-323.83 522.5,-323.83 522.5,-330.17 522.5,-330.17 522.5,-333.33 519.33,-336.5 516.17,-336.5"/>
<text text-anchor="middle" x="502.5" y="-324.5" font-family="Arial" font-size="10.00">Table</text>
</a>
</g>
</g>
<!-- uqbar.graphs.TableRow.TableRow -->
<g id="node20" class="node">
<title>uqbar.graphs.TableRow.TableRow</title>
<g id="a_node20"><a xlink:href="../api/uqbar/containers/../graphs/TableRow.html#uqbar.graphs.TableRow.TableRow" xlink:title="Table\nRow" target="_top">
<path fill="#decbe4" stroke="#decbe4" stroke-width="2" d="M512.5,-299C512.5,-299 492.5,-299 492.5,-299 487.5,-299 482.5,-294 482.5,-289 482.5,-289 482.5,-279 482.5,-279 482.5,-274 487.5,-269 492.5,-269 492.5,-269 512.5,-269 512.5,-269 517.5,-269 522.5,-274 522.5,-279 522.5,-279 522.5,-289 522.5,-289 522.5,-294 517.5,-299 512.5,-299"/>
<text text-anchor="middle" x="502.5" y="-287" font-family="Arial" font-size="10.00">Table</text>
<text text-anchor="middle" x="502.5" y="-276" font-family="Arial" font-size="10.00">Row</text>
</a>
</g>
</g>
<!-- uqbar.graphs.Text.Text -->
<g id="node21" class="node">
<title>uqbar.graphs.Text.Text</title>
<g id="a_node21"><a xlink:href="../api/uqbar/containers/../graphs/Text.html#uqbar.graphs.Text.Text" xlink:title="Text" target="_top">
<path fill="#decbe4" stroke="#decbe4" stroke-width="2" d="M513.67,-127.5C513.67,-127.5 491.33,-127.5 491.33,-127.5 488.17,-127.5 485,-124.33 485,-121.17 485,-121.17 485,-114.83 485,-114.83 485,-111.67 488.17,-108.5 491.33,-108.5 491.33,-108.5 513.67,-108.5 513.67,-108.5 516.83,-108.5 520,-111.67 520,-114.83 520,-114.83 520,-121.17 520,-121.17 520,-124.33 516.83,-127.5 513.67,-127.5"/>
<text text-anchor="middle" x="502.5" y="-115.5" font-family="Arial" font-size="10.00">Text</text>
</a>
</g>
</g>
<!-- uqbar.graphs.VRule.VRule -->
<g id="node22" class="node">
<title>uqbar.graphs.VRule.VRule</title>
<g id="a_node22"><a xlink:href="../api/uqbar/containers/../graphs/VRule.html#uqbar.graphs.VRule.VRule" xlink:title="VRule" target="_top">
<path fill="#decbe4" stroke="#decbe4" stroke-width="2" d="M518.17,-90.5C518.17,-90.5 486.83,-90.5 486.83,-90.5 483.67,-90.5 480.5,-87.33 480.5,-84.17 480.5,-84.17 480.5,-77.83 480.5,-77.83 480.5,-74.67 483.67,-71.5 486.83,-71.5 486.83,-71.5 518.17,-71.5 518.17,-71.5 521.33,-71.5 524.5,-74.67 524.5,-77.83 524.5,-77.83 524.5,-84.17 524.5,-84.17 524.5,-87.33 521.33,-90.5 518.17,-90.5"/>
<text text-anchor="middle" x="502.5" y="-78.5" font-family="Arial" font-size="10.00">VRule</text>
</a>
</g>
</g>
</g>
</svg>
