<?xml version="1.0" encoding="UTF-8" standalone="no"?>
<!DOCTYPE svg PUBLIC "-//W3C//DTD SVG 1.1//EN"
 "http://www.w3.org/Graphics/SVG/1.1/DTD/svg11.dtd">
<!-- Generated by graphviz version 2.40.1 (20161225.0304)
 -->
<!-- Title: InheritanceGraph Pages: 1 -->
<svg width="331pt" height="89pt"
 viewBox="0.00 0.00 331.00 89.00" xmlns="http://www.w3.org/2000/svg" xmlns:xlink="http://www.w3.org/1999/xlink">
<g id="graph0" class="graph" transform="scale(1 1) rotate(0) translate(4 85)">
<title>InheritanceGraph</title>
<g id="clust1" class="cluster">
<title>cluster_builtins</title>
<path fill="transparent" stroke="#bcd2ee" stroke-width="2" stroke-dasharray="5,2" d="M20,-13C20,-13 49,-13 49,-13 55,-13 61,-19 61,-25 61,-25 61,-56 61,-56 61,-62 55,-68 49,-68 49,-68 20,-68 20,-68 14,-68 8,-62 8,-56 8,-56 8,-25 8,-25 8,-19 14,-13 20,-13"/>
<text text-anchor="middle" x="34.5" y="-56" font-family="Arial" font-size="10.00" fill="#000000">builtins</text>
</g>
<g id="clust2" class="cluster">
<title>cluster_code</title>
<path fill="transparent" stroke="#bcd2ee" stroke-width="2" stroke-dasharray="5,2" d="M93,-8C93,-8 223,-8 223,-8 229,-8 235,-14 235,-20 235,-20 235,-61 235,-61 235,-67 229,-73 223,-73 223,-73 93,-73 93,-73 87,-73 81,-67 81,-61 81,-61 81,-20 81,-20 81,-14 87,-8 93,-8"/>
<text text-anchor="middle" x="158" y="-61" font-family="Arial" font-size="10.00" fill="#000000">code</text>
</g>
<g id="clust3" class="cluster">
<title>cluster_uqbar.book</title>
<path fill="transparent" stroke="#bcd2ee" stroke-width="2" stroke-dasharray="5,2" d="M267,-13C267,-13 303,-13 303,-13 309,-13 315,-19 315,-25 315,-25 315,-56 315,-56 315,-62 309,-68 303,-68 303,-68 267,-68 267,-68 261,-68 255,-62 255,-56 255,-56 255,-25 255,-25 255,-19 261,-13 267,-13"/>
<text text-anchor="middle" x="285" y="-56" font-family="Arial" font-size="10.00" fill="#000000">uqbar.book</text>
</g>
<!-- builtins.object&#45;&gt;code.InteractiveInterpreter -->
<g id="edge2" class="edge">
<title>builtins.object&#45;&gt;code.InteractiveInterpreter</title>
<path fill="none" stroke="#778899" d="M53.0547,-31C60.6852,-31 69.7938,-31 78.6307,-31"/>
<polygon fill="#778899" stroke="#778899" points="78.7748,-34.5001 88.7747,-31 78.7747,-27.5001 78.7748,-34.5001"/>
</g>
<!-- code.InteractiveConsole&#45;&gt;uqbar.book.Console.Console -->
<g id="edge3" class="edge">
<title>code.InteractiveConsole&#45;&gt;uqbar.book.Console.Console</title>
<path fill="none" stroke="#778899" d="M227.0065,-31C235.1215,-31 244.2067,-31 252.7344,-31"/>
<polygon fill="#778899" stroke="#778899" points="252.7572,-34.5001 262.7572,-31 252.7572,-27.5001 252.7572,-34.5001"/>
</g>
<!-- code.InteractiveInterpreter&#45;&gt;code.InteractiveConsole -->
<g id="edge1" class="edge">
<title>code.InteractiveInterpreter&#45;&gt;code.InteractiveConsole</title>
<path fill="none" stroke="#778899" d="M140.1323,-31C148.1144,-31 157.0679,-31 165.6164,-31"/>
<polygon fill="#778899" stroke="#778899" points="165.7503,-34.5001 175.7503,-31 165.7502,-27.5001 165.7503,-34.5001"/>
</g>
<!-- builtins.object -->
<g id="node1" class="node">
<title>builtins.object</title>
<g id="a_node1"><a xlink:href="https://docs.python.org/3.6/library/functions.html#object" xlink:title="object" target="_top">
<path fill="#fbb4ae" stroke="#fbb4ae" stroke-width="2" d="M46.6667,-40.5C46.6667,-40.5 22.3333,-40.5 22.3333,-40.5 19.1667,-40.5 16,-37.3333 16,-34.1667 16,-34.1667 16,-27.8333 16,-27.8333 16,-24.6667 19.1667,-21.5 22.3333,-21.5 22.3333,-21.5 46.6667,-21.5 46.6667,-21.5 49.8333,-21.5 53,-24.6667 53,-27.8333 53,-27.8333 53,-34.1667 53,-34.1667 53,-37.3333 49.8333,-40.5 46.6667,-40.5"/>
<text text-anchor="middle" x="34.5" y="-28.5" font-family="Arial" font-size="10.00" fill="#000000">object</text>
</a>
</g>
</g>
<!-- code.InteractiveConsole -->
<g id="node2" class="node">
<title>code.InteractiveConsole</title>
<g id="a_node2"><a xlink:href="https://docs.python.org/3.6/library/code.html#code.InteractiveConsole" xlink:title="Interactive\nConsole" target="_top">
<path fill="#b3cde3" stroke="#b3cde3" stroke-width="2" d="M217,-46C217,-46 186,-46 186,-46 181,-46 176,-41 176,-36 176,-36 176,-26 176,-26 176,-21 181,-16 186,-16 186,-16 217,-16 217,-16 222,-16 227,-21 227,-26 227,-26 227,-36 227,-36 227,-41 222,-46 217,-46"/>
<text text-anchor="middle" x="201.5" y="-34" font-family="Arial" font-size="10.00" fill="#000000">Interactive</text>
<text text-anchor="middle" x="201.5" y="-23" font-family="Arial" font-size="10.00" fill="#000000">Console</text>
</a>
</g>
</g>
<!-- code.InteractiveInterpreter -->
<g id="node3" class="node">
<title>code.InteractiveInterpreter</title>
<g id="a_node3"><a xlink:href="https://docs.python.org/3.6/library/code.html#code.InteractiveInterpreter" xlink:title="Interactive\nInterpreter" target="_top">
<path fill="#b3cde3" stroke="#b3cde3" stroke-width="2" d="M130,-46C130,-46 99,-46 99,-46 94,-46 89,-41 89,-36 89,-36 89,-26 89,-26 89,-21 94,-16 99,-16 99,-16 130,-16 130,-16 135,-16 140,-21 140,-26 140,-26 140,-36 140,-36 140,-41 135,-46 130,-46"/>
<text text-anchor="middle" x="114.5" y="-34" font-family="Arial" font-size="10.00" fill="#000000">Interactive</text>
<text text-anchor="middle" x="114.5" y="-23" font-family="Arial" font-size="10.00" fill="#000000">Interpreter</text>
</a>
</g>
</g>
<!-- uqbar.book.Console.Console -->
<g id="node4" class="node">
<title>uqbar.book.Console.Console</title>
<g id="a_node4"><a xlink:href="../api/uqbar/book/Console.html#uqbar.book.Console.Console" xlink:title="Console" target="_top">
<path fill="#000000" stroke="#000000" stroke-width="2" d="M300.6667,-40.5C300.6667,-40.5 269.3333,-40.5 269.3333,-40.5 266.1667,-40.5 263,-37.3333 263,-34.1667 263,-34.1667 263,-27.8333 263,-27.8333 263,-24.6667 266.1667,-21.5 269.3333,-21.5 269.3333,-21.5 300.6667,-21.5 300.6667,-21.5 303.8333,-21.5 307,-24.6667 307,-27.8333 307,-27.8333 307,-34.1667 307,-34.1667 307,-37.3333 303.8333,-40.5 300.6667,-40.5"/>
<text text-anchor="middle" x="285" y="-28.5" font-family="Arial" font-size="10.00" fill="#ffffff">Console</text>
</a>
</g>
</g>
</g>
</svg>
