<?xml version="1.0" encoding="UTF-8" standalone="no"?>
<!DOCTYPE svg PUBLIC "-//W3C//DTD SVG 1.1//EN"
 "http://www.w3.org/Graphics/SVG/1.1/DTD/svg11.dtd">
<!-- Generated by graphviz version 2.44.1 (20200629.0846)
 -->
<!-- Title: InheritanceGraph Pages: 1 -->
<svg width="346pt" height="198pt"
 viewBox="0.00 0.00 346.00 198.00" xmlns="http://www.w3.org/2000/svg" xmlns:xlink="http://www.w3.org/1999/xlink">
<g id="graph0" class="graph" transform="scale(1 1) rotate(0) translate(4 194)">
<title>InheritanceGraph</title>
<g id="clust1" class="cluster">
<title>cluster_builtins</title>
<path fill="transparent" stroke="#bcd2ee" stroke-width="2" stroke-dasharray="5,2" d="M20,-127C20,-127 125.5,-127 125.5,-127 131.5,-127 137.5,-133 137.5,-139 137.5,-139 137.5,-170 137.5,-170 137.5,-176 131.5,-182 125.5,-182 125.5,-182 20,-182 20,-182 14,-182 8,-176 8,-170 8,-170 8,-139 8,-139 8,-133 14,-127 20,-127"/>
<text text-anchor="middle" x="72.75" y="-170" font-family="Arial" font-size="10.00">builtins</text>
</g>
<g id="clust2" class="cluster">
<title>cluster_enum</title>
<path fill="transparent" stroke="#bcd2ee" stroke-width="2" stroke-dasharray="5,2" d="M99,-54C99,-54 211,-54 211,-54 217,-54 223,-60 223,-66 223,-66 223,-107 223,-107 223,-113 217,-119 211,-119 211,-119 99,-119 99,-119 93,-119 87,-113 87,-107 87,-107 87,-66 87,-66 87,-60 93,-54 99,-54"/>
<text text-anchor="middle" x="155" y="-107" font-family="Arial" font-size="10.00">enum</text>
</g>
<g id="clust3" class="cluster">
<title>cluster_uqbar.enums</title>
<path fill="transparent" stroke="#bcd2ee" stroke-width="2" stroke-dasharray="5,2" d="M255,-8C255,-8 318,-8 318,-8 324,-8 330,-14 330,-20 330,-20 330,-109 330,-109 330,-115 324,-121 318,-121 318,-121 255,-121 255,-121 249,-121 243,-115 243,-109 243,-109 243,-20 243,-20 243,-14 249,-8 255,-8"/>
<text text-anchor="middle" x="286.5" y="-109" font-family="Arial" font-size="10.00">uqbar.enums</text>
</g>
<!-- builtins.int&#45;&gt;enum.IntEnum -->
<g id="edge3" class="edge">
<title>builtins.int&#45;&gt;enum.IntEnum</title>
<path fill="none" stroke="lightslategrey" d="M127.89,-135.26C138.39,-125.86 154.65,-111.31 168.29,-99.11"/>
<polygon fill="lightslategrey" stroke="lightslategrey" points="170.84,-101.52 175.96,-92.25 166.17,-96.31 170.84,-101.52"/>
</g>
<!-- builtins.object&#45;&gt;builtins.int -->
<g id="edge1" class="edge">
<title>builtins.object&#45;&gt;builtins.int</title>
<path fill="none" stroke="lightslategrey" d="M59,-145C69.25,-145 81.68,-145 92.23,-145"/>
<polygon fill="lightslategrey" stroke="lightslategrey" points="92.36,-148.5 102.36,-145 92.36,-141.5 92.36,-148.5"/>
</g>
<!-- builtins.object&#45;&gt;enum.Enum -->
<g id="edge4" class="edge">
<title>builtins.object&#45;&gt;enum.Enum</title>
<path fill="none" stroke="lightslategrey" d="M49.46,-135.26C61.73,-124.35 81.82,-106.49 96.53,-93.42"/>
<polygon fill="lightslategrey" stroke="lightslategrey" points="98.91,-95.98 104.06,-86.72 94.26,-90.75 98.91,-95.98"/>
</g>
<!-- enum.Enum&#45;&gt;enum.IntEnum -->
<g id="edge2" class="edge">
<title>enum.Enum&#45;&gt;enum.IntEnum</title>
<path fill="none" stroke="lightslategrey" d="M137.37,-77C145.18,-77 154.27,-77 162.82,-77"/>
<polygon fill="lightslategrey" stroke="lightslategrey" points="162.84,-80.5 172.84,-77 162.84,-73.5 162.84,-80.5"/>
</g>
<!-- enum.Enum&#45;&gt;uqbar.enums.StrictEnumeration -->
<g id="edge5" class="edge">
<title>enum.Enum&#45;&gt;uqbar.enums.StrictEnumeration</title>
<path fill="none" stroke="lightslategrey" d="M136.57,-67.4C147.15,-62.52 160.57,-56.83 173,-53 194.98,-46.22 220.05,-41.08 240.93,-37.48"/>
<polygon fill="lightslategrey" stroke="lightslategrey" points="241.53,-40.93 250.82,-35.83 240.38,-34.02 241.53,-40.93"/>
</g>
<!-- enum.IntEnum&#45;&gt;uqbar.enums.IntEnumeration -->
<g id="edge6" class="edge">
<title>enum.IntEnum&#45;&gt;uqbar.enums.IntEnumeration</title>
<path fill="none" stroke="lightslategrey" d="M215.08,-77.44C222.73,-77.61 231.77,-77.81 240.79,-78.01"/>
<polygon fill="lightslategrey" stroke="lightslategrey" points="240.81,-81.51 250.89,-78.24 240.97,-74.51 240.81,-81.51"/>
</g>
<!-- builtins.int -->
<g id="node1" class="node">
<title>builtins.int</title>
<g id="a_node1"><a xlink:href="https://docs.python.org/3.6/library/functions.html#int" xlink:title="int" target="_top">
<path fill="#fbb4ae" stroke="#fbb4ae" stroke-width="2" d="M123.17,-154.5C123.17,-154.5 108.83,-154.5 108.83,-154.5 105.67,-154.5 102.5,-151.33 102.5,-148.17 102.5,-148.17 102.5,-141.83 102.5,-141.83 102.5,-138.67 105.67,-135.5 108.83,-135.5 108.83,-135.5 123.17,-135.5 123.17,-135.5 126.33,-135.5 129.5,-138.67 129.5,-141.83 129.5,-141.83 129.5,-148.17 129.5,-148.17 129.5,-151.33 126.33,-154.5 123.17,-154.5"/>
<text text-anchor="middle" x="116" y="-142.5" font-family="Arial" font-size="10.00">int</text>
</a>
</g>
</g>
<!-- builtins.object -->
<g id="node2" class="node">
<title>builtins.object</title>
<g id="a_node2"><a xlink:href="https://docs.python.org/3.6/library/functions.html#object" xlink:title="object" target="_top">
<path fill="#fbb4ae" stroke="#fbb4ae" stroke-width="2" d="M52.67,-154.5C52.67,-154.5 22.33,-154.5 22.33,-154.5 19.17,-154.5 16,-151.33 16,-148.17 16,-148.17 16,-141.83 16,-141.83 16,-138.67 19.17,-135.5 22.33,-135.5 22.33,-135.5 52.67,-135.5 52.67,-135.5 55.83,-135.5 59,-138.67 59,-141.83 59,-141.83 59,-148.17 59,-148.17 59,-151.33 55.83,-154.5 52.67,-154.5"/>
<text text-anchor="middle" x="37.5" y="-142.5" font-family="Arial" font-size="10.00">object</text>
</a>
</g>
</g>
<!-- enum.Enum -->
<g id="node3" class="node">
<title>enum.Enum</title>
<g id="a_node3"><a xlink:href="https://docs.python.org/3.6/library/enum.html#enum.Enum" xlink:title="Enum" target="_top">
<path fill="#b3cde3" stroke="#b3cde3" stroke-width="2" d="M130.67,-86.5C130.67,-86.5 101.33,-86.5 101.33,-86.5 98.17,-86.5 95,-83.33 95,-80.17 95,-80.17 95,-73.83 95,-73.83 95,-70.67 98.17,-67.5 101.33,-67.5 101.33,-67.5 130.67,-67.5 130.67,-67.5 133.83,-67.5 137,-70.67 137,-73.83 137,-73.83 137,-80.17 137,-80.17 137,-83.33 133.83,-86.5 130.67,-86.5"/>
<text text-anchor="middle" x="116" y="-74.5" font-family="Arial" font-size="10.00">Enum</text>
</a>
</g>
</g>
<!-- enum.IntEnum -->
<g id="node4" class="node">
<title>enum.IntEnum</title>
<g id="a_node4"><a xlink:href="https://docs.python.org/3.6/library/enum.html#enum.IntEnum" xlink:title="Int\nEnum" target="_top">
<path fill="#b3cde3" stroke="#b3cde3" stroke-width="2" d="M205,-92C205,-92 183,-92 183,-92 178,-92 173,-87 173,-82 173,-82 173,-72 173,-72 173,-67 178,-62 183,-62 183,-62 205,-62 205,-62 210,-62 215,-67 215,-72 215,-72 215,-82 215,-82 215,-87 210,-92 205,-92"/>
<text text-anchor="middle" x="194" y="-80" font-family="Arial" font-size="10.00">Int</text>
<text text-anchor="middle" x="194" y="-69" font-family="Arial" font-size="10.00">Enum</text>
</a>
</g>
</g>
<!-- uqbar.enums.IntEnumeration -->
<g id="node5" class="node">
<title>uqbar.enums.IntEnumeration</title>
<g id="a_node5"><a xlink:href="../api/uqbar/enums.html#uqbar.enums.IntEnumeration" xlink:title="Int\nEnumeration" target="_top">
<path fill="black" stroke="black" stroke-width="2" d="M312,-94C312,-94 261,-94 261,-94 256,-94 251,-89 251,-84 251,-84 251,-74 251,-74 251,-69 256,-64 261,-64 261,-64 312,-64 312,-64 317,-64 322,-69 322,-74 322,-74 322,-84 322,-84 322,-89 317,-94 312,-94"/>
<text text-anchor="middle" x="286.5" y="-82" font-family="Arial" font-size="10.00" fill="white">Int</text>
<text text-anchor="middle" x="286.5" y="-71" font-family="Arial" font-size="10.00" fill="white">Enumeration</text>
</a>
</g>
</g>
<!-- uqbar.enums.StrictEnumeration -->
<g id="node6" class="node">
<title>uqbar.enums.StrictEnumeration</title>
<g id="a_node6"><a xlink:href="../api/uqbar/enums.html#uqbar.enums.StrictEnumeration" xlink:title="Strict\nEnumeration" target="_top">
<path fill="black" stroke="black" stroke-width="2" d="M312,-46C312,-46 261,-46 261,-46 256,-46 251,-41 251,-36 251,-36 251,-26 251,-26 251,-21 256,-16 261,-16 261,-16 312,-16 312,-16 317,-16 322,-21 322,-26 322,-26 322,-36 322,-36 322,-41 317,-46 312,-46"/>
<text text-anchor="middle" x="286.5" y="-34" font-family="Arial" font-size="10.00" fill="white">Strict</text>
<text text-anchor="middle" x="286.5" y="-23" font-family="Arial" font-size="10.00" fill="white">Enumeration</text>
</a>
</g>
</g>
</g>
</svg>
