<?xml version="1.0" encoding="UTF-8" standalone="no"?>
<!DOCTYPE svg PUBLIC "-//W3C//DTD SVG 1.1//EN"
 "http://www.w3.org/Graphics/SVG/1.1/DTD/svg11.dtd">
<!-- Generated by graphviz version 2.40.1 (20161225.0304)
 -->
<!-- Title: InheritanceGraph Pages: 1 -->
<svg width="561pt" height="644pt"
 viewBox="0.00 0.00 561.00 644.00" xmlns="http://www.w3.org/2000/svg" xmlns:xlink="http://www.w3.org/1999/xlink">
<g id="graph0" class="graph" transform="scale(1 1) rotate(0) translate(4 640)">
<title>InheritanceGraph</title>
<g id="clust1" class="cluster">
<title>cluster_builtins</title>
<path fill="transparent" stroke="#bcd2ee" stroke-width="2" stroke-dasharray="5,2" d="M20,-423C20,-423 49,-423 49,-423 55,-423 61,-429 61,-435 61,-435 61,-466 61,-466 61,-472 55,-478 49,-478 49,-478 20,-478 20,-478 14,-478 8,-472 8,-466 8,-466 8,-435 8,-435 8,-429 14,-423 20,-423"/>
<text text-anchor="middle" x="34.5" y="-466" font-family="Arial" font-size="10.00" fill="#000000">builtins</text>
</g>
<g id="clust2" class="cluster">
<title>cluster_uqbar.apis</title>
<path fill="transparent" stroke="#bcd2ee" stroke-width="2" stroke-dasharray="5,2" d="M330,-210C330,-210 368,-210 368,-210 374,-210 380,-216 380,-222 380,-222 380,-311 380,-311 380,-317 374,-323 368,-323 368,-323 330,-323 330,-323 324,-323 318,-317 318,-311 318,-311 318,-222 318,-222 318,-216 324,-210 330,-210"/>
<text text-anchor="middle" x="349" y="-311" font-family="Arial" font-size="10.00" fill="#000000">uqbar.apis</text>
</g>
<g id="clust3" class="cluster">
<title>cluster_uqbar.containers</title>
<path fill="transparent" stroke="#bcd2ee" stroke-width="2" stroke-dasharray="5,2" d="M93,-412C93,-412 365,-412 365,-412 371,-412 377,-418 377,-424 377,-424 377,-616 377,-616 377,-622 371,-628 365,-628 365,-628 93,-628 93,-628 87,-628 81,-622 81,-616 81,-616 81,-424 81,-424 81,-418 87,-412 93,-412"/>
<text text-anchor="middle" x="229" y="-616" font-family="Arial" font-size="10.00" fill="#000000">uqbar.containers</text>
</g>
<g id="clust4" class="cluster">
<title>cluster_uqbar.graphs</title>
<path fill="transparent" stroke="#bcd2ee" stroke-width="2" stroke-dasharray="5,2" d="M412,-63C412,-63 533,-63 533,-63 539,-63 545,-69 545,-75 545,-75 545,-475 545,-475 545,-481 539,-487 533,-487 533,-487 412,-487 412,-487 406,-487 400,-481 400,-475 400,-475 400,-75 400,-75 400,-69 406,-63 412,-63"/>
<text text-anchor="middle" x="472.5" y="-475" font-family="Arial" font-size="10.00" fill="#000000">uqbar.graphs</text>
</g>
<!-- builtins.object&#45;&gt;uqbar.containers.UniqueTreeNode.UniqueTreeNode -->
<g id="edge8" class="edge">
<title>builtins.object&#45;&gt;uqbar.containers.UniqueTreeNode.UniqueTreeNode</title>
<path fill="none" stroke="#778899" d="M53.2995,-441C61.0221,-441 70.1602,-441 78.7776,-441"/>
<polygon fill="#778899" stroke="#778899" points="78.9006,-444.5001 88.9006,-441 78.9005,-437.5001 78.9006,-444.5001"/>
</g>
<!-- uqbar.containers.UniqueTreeContainer.UniqueTreeContainer&#45;&gt;uqbar.containers.UniqueTreeDict.UniqueTreeDict -->
<g id="edge1" class="edge">
<title>uqbar.containers.UniqueTreeContainer.UniqueTreeContainer&#45;&gt;uqbar.containers.UniqueTreeDict.UniqueTreeDict</title>
<path fill="none" stroke="#778899" d="M214.0901,-481.9775C222.7798,-475.6086 232.6233,-468.3941 241.6027,-461.8129"/>
<polygon fill="#778899" stroke="#778899" points="243.8845,-464.48 249.8811,-455.7455 239.7465,-458.834 243.8845,-464.48"/>
</g>
<!-- uqbar.containers.UniqueTreeContainer.UniqueTreeContainer&#45;&gt;uqbar.containers.UniqueTreeList.UniqueTreeList -->
<g id="edge2" class="edge">
<title>uqbar.containers.UniqueTreeContainer.UniqueTreeContainer&#45;&gt;uqbar.containers.UniqueTreeList.UniqueTreeList</title>
<path fill="none" stroke="#778899" d="M214.0901,-500C222.1527,-500 231.2086,-500 239.6459,-500"/>
<polygon fill="#778899" stroke="#778899" points="239.8812,-503.5001 249.8811,-500 239.8811,-496.5001 239.8812,-503.5001"/>
</g>
<!-- uqbar.containers.UniqueTreeContainer.UniqueTreeContainer&#45;&gt;uqbar.containers.UniqueTreeSet.UniqueTreeSet -->
<g id="edge3" class="edge">
<title>uqbar.containers.UniqueTreeContainer.UniqueTreeContainer&#45;&gt;uqbar.containers.UniqueTreeSet.UniqueTreeSet</title>
<path fill="none" stroke="#778899" d="M214.0723,-512.3247C242.4587,-526.5624 289.1388,-549.9756 319.4727,-565.1901"/>
<polygon fill="#778899" stroke="#778899" points="318.1952,-568.4649 328.7031,-569.8197 321.3336,-562.2078 318.1952,-568.4649"/>
</g>
<!-- uqbar.containers.UniqueTreeContainer.UniqueTreeContainer&#45;&gt;uqbar.containers.UniqueTreeTuple.UniqueTreeTuple -->
<g id="edge4" class="edge">
<title>uqbar.containers.UniqueTreeContainer.UniqueTreeContainer&#45;&gt;uqbar.containers.UniqueTreeTuple.UniqueTreeTuple</title>
<path fill="none" stroke="#778899" d="M210.2308,-520.602C220.1476,-530.4572 232.1502,-542.3853 242.7899,-552.9589"/>
<polygon fill="#778899" stroke="#778899" points="240.3355,-555.4541 249.8957,-560.0206 245.2698,-550.489 240.3355,-555.4541"/>
</g>
<!-- uqbar.containers.UniqueTreeList.UniqueTreeList&#45;&gt;uqbar.apis.PackageNode.PackageNode -->
<g id="edge9" class="edge">
<title>uqbar.containers.UniqueTreeList.UniqueTreeList&#45;&gt;uqbar.apis.PackageNode.PackageNode</title>
<path fill="none" stroke="#778899" d="M285.7074,-479.3629C287.3301,-476.6432 288.8151,-473.8191 290,-471 315.2633,-410.8948 293.06,-387.24 318,-327 321.2118,-319.2421 325.8317,-311.4329 330.5279,-304.5072"/>
<polygon fill="#778899" stroke="#778899" points="333.4439,-306.4466 336.4171,-296.2774 327.7513,-302.3729 333.4439,-306.4466"/>
</g>
<!-- uqbar.containers.UniqueTreeList.UniqueTreeList&#45;&gt;uqbar.graphs.TableCell.TableCell -->
<g id="edge14" class="edge">
<title>uqbar.containers.UniqueTreeList.UniqueTreeList&#45;&gt;uqbar.graphs.TableCell.TableCell</title>
<path fill="none" stroke="#778899" d="M290.1099,-503.3752C328.6884,-508.6006 413.3871,-513.8299 460,-469 482.2361,-447.6144 502.6357,-359.6559 511.6408,-315.9226"/>
<polygon fill="#778899" stroke="#778899" points="515.0819,-316.5638 513.6305,-306.0689 508.2204,-315.1783 515.0819,-316.5638"/>
</g>
<!-- uqbar.containers.UniqueTreeList.UniqueTreeList&#45;&gt;uqbar.graphs.Graph.Graph -->
<g id="edge10" class="edge">
<title>uqbar.containers.UniqueTreeList.UniqueTreeList&#45;&gt;uqbar.graphs.Graph.Graph</title>
<path fill="none" stroke="#778899" d="M290.3888,-494.6707C312.5583,-488.7792 348.9772,-478.8182 380,-469 388.353,-466.3564 397.3566,-463.2804 405.5723,-460.3833"/>
<polygon fill="#778899" stroke="#778899" points="406.8653,-463.6382 415.1061,-456.9793 404.5114,-457.0458 406.8653,-463.6382"/>
</g>
<!-- uqbar.containers.UniqueTreeList.UniqueTreeList&#45;&gt;uqbar.graphs.Node.Node -->
<g id="edge11" class="edge">
<title>uqbar.containers.UniqueTreeList.UniqueTreeList&#45;&gt;uqbar.graphs.Node.Node</title>
<path fill="none" stroke="#778899" d="M290.2121,-486.156C298.6553,-480.5821 308.658,-474.2452 318,-469 347.8587,-452.2355 383.4999,-435.4907 407.3233,-424.74"/>
<polygon fill="#778899" stroke="#778899" points="409.0609,-427.7969 416.7584,-420.5169 406.2011,-421.4077 409.0609,-427.7969"/>
</g>
<!-- uqbar.containers.UniqueTreeList.UniqueTreeList&#45;&gt;uqbar.graphs.RecordGroup.RecordGroup -->
<g id="edge12" class="edge">
<title>uqbar.containers.UniqueTreeList.UniqueTreeList&#45;&gt;uqbar.graphs.RecordGroup.RecordGroup</title>
<path fill="none" stroke="#778899" d="M284.3541,-479.3291C296.9391,-461.3648 313.8571,-437.6563 318,-434 343.8813,-411.1588 379.2841,-393.103 404.1497,-382.0719"/>
<polygon fill="#778899" stroke="#778899" points="405.6556,-385.234 413.4479,-378.0556 402.8798,-378.8079 405.6556,-385.234"/>
</g>
<!-- uqbar.containers.UniqueTreeList.UniqueTreeList&#45;&gt;uqbar.graphs.Table.Table -->
<g id="edge13" class="edge">
<title>uqbar.containers.UniqueTreeList.UniqueTreeList&#45;&gt;uqbar.graphs.Table.Table</title>
<path fill="none" stroke="#778899" d="M285.0932,-479.4935C286.8604,-476.7058 288.5478,-473.8294 290,-471 306.8187,-438.2315 294.3425,-421.2306 318,-393 324.434,-385.3223 375.1074,-357.9009 407.3164,-340.9132"/>
<polygon fill="#778899" stroke="#778899" points="409.0303,-343.9664 416.2546,-336.2165 405.7742,-337.7698 409.0303,-343.9664"/>
</g>
<!-- uqbar.containers.UniqueTreeList.UniqueTreeList&#45;&gt;uqbar.graphs.TableRow.TableRow -->
<g id="edge15" class="edge">
<title>uqbar.containers.UniqueTreeList.UniqueTreeList&#45;&gt;uqbar.graphs.TableRow.TableRow</title>
<path fill="none" stroke="#778899" d="M285.5854,-479.31C287.229,-476.5994 288.7522,-473.7918 290,-471 311.6405,-422.5797 284.17,-395.8457 318,-355 337.2861,-331.7144 354.6846,-343.5318 380,-327 390.0129,-320.4613 390.7269,-316.5513 400,-309 402.6951,-306.8053 405.5588,-304.5656 408.4361,-302.3728"/>
<polygon fill="#778899" stroke="#778899" points="410.5289,-305.1782 416.4524,-296.394 406.3439,-299.567 410.5289,-305.1782"/>
</g>
<!-- uqbar.containers.UniqueTreeNode.UniqueTreeNode&#45;&gt;uqbar.apis.ModuleNode.ModuleNode -->
<g id="edge16" class="edge">
<title>uqbar.containers.UniqueTreeNode.UniqueTreeNode&#45;&gt;uqbar.apis.ModuleNode.ModuleNode</title>
<path fill="none" stroke="#778899" d="M129.0995,-422.5451C165.9318,-388.8987 246.9934,-315.6447 318,-257 319.0037,-256.1711 320.0304,-255.332 321.0711,-254.4891"/>
<polygon fill="#778899" stroke="#778899" points="323.5215,-257.0124 329.1735,-248.051 319.1667,-251.5319 323.5215,-257.0124"/>
</g>
<!-- uqbar.containers.UniqueTreeNode.UniqueTreeNode&#45;&gt;uqbar.containers.UniqueTreeContainer.UniqueTreeContainer -->
<g id="edge5" class="edge">
<title>uqbar.containers.UniqueTreeNode.UniqueTreeNode&#45;&gt;uqbar.containers.UniqueTreeContainer.UniqueTreeContainer</title>
<path fill="none" stroke="#778899" d="M129.3135,-455.8882C137.5868,-461.9518 147.3635,-469.1173 156.6047,-475.8904"/>
<polygon fill="#778899" stroke="#778899" points="154.7478,-478.8689 164.8825,-481.9574 158.8859,-473.2229 154.7478,-478.8689"/>
</g>
<!-- uqbar.containers.UniqueTreeNode.UniqueTreeNode&#45;&gt;uqbar.graphs.Attachable.Attachable -->
<g id="edge17" class="edge">
<title>uqbar.containers.UniqueTreeNode.UniqueTreeNode&#45;&gt;uqbar.graphs.Attachable.Attachable</title>
<path fill="none" stroke="#778899" d="M118.6789,-420.4331C143.3942,-370.8467 214.287,-245.8628 318,-206 343.7211,-196.1139 354.1364,-196.4931 380,-206 390.9498,-210.0249 390.3433,-216.4543 400,-223 401.6586,-224.1242 403.3953,-225.2322 405.1692,-226.3122"/>
<polygon fill="#778899" stroke="#778899" points="403.7347,-229.5228 414.1572,-231.4258 407.1962,-223.4386 403.7347,-229.5228"/>
</g>
<!-- uqbar.containers.UniqueTreeNode.UniqueTreeNode&#45;&gt;uqbar.graphs.RecordField.RecordField -->
<g id="edge20" class="edge">
<title>uqbar.containers.UniqueTreeNode.UniqueTreeNode&#45;&gt;uqbar.graphs.RecordField.RecordField</title>
<path fill="none" stroke="#778899" d="M110.8456,-420.1681C116.7798,-356.054 136.6501,-162.667 165,-107 195.2369,-47.6279 203.3719,0 270,0 270,0 270,0 349,0 405.7255,0 421.8943,-20.9794 460,-63 487.0241,-92.8005 502.8112,-137.6429 510.5366,-165.3006"/>
<polygon fill="#778899" stroke="#778899" points="507.1607,-166.2248 513.1094,-174.992 513.9264,-164.4287 507.1607,-166.2248"/>
</g>
<!-- uqbar.containers.UniqueTreeNode.UniqueTreeNode&#45;&gt;uqbar.graphs.HRule.HRule -->
<g id="edge18" class="edge">
<title>uqbar.containers.UniqueTreeNode.UniqueTreeNode&#45;&gt;uqbar.graphs.HRule.HRule</title>
<path fill="none" stroke="#778899" d="M112.0333,-420.3817C117.6964,-387.5468 132.3888,-322.5449 165,-278 192.7772,-240.0581 208.0478,-236.2407 250,-215 302.2155,-188.5629 321.7184,-188.649 380,-194 388.186,-194.7516 396.9832,-196.1312 405.0514,-197.6306"/>
<polygon fill="#778899" stroke="#778899" points="404.6354,-201.1161 415.1251,-199.6278 405.9968,-194.2498 404.6354,-201.1161"/>
</g>
<!-- uqbar.containers.UniqueTreeNode.UniqueTreeNode&#45;&gt;uqbar.graphs.LineBreak.LineBreak -->
<g id="edge19" class="edge">
<title>uqbar.containers.UniqueTreeNode.UniqueTreeNode&#45;&gt;uqbar.graphs.LineBreak.LineBreak</title>
<path fill="none" stroke="#778899" d="M112.098,-420.1892C119.5474,-372.6282 139.7328,-257.8541 165,-229 226.7337,-158.5028 349.9745,-155.8803 405.5986,-158.6854"/>
<polygon fill="#778899" stroke="#778899" points="405.5908,-162.1912 415.7836,-159.3002 406.0127,-155.2039 405.5908,-162.1912"/>
</g>
<!-- uqbar.containers.UniqueTreeNode.UniqueTreeNode&#45;&gt;uqbar.graphs.Text.Text -->
<g id="edge21" class="edge">
<title>uqbar.containers.UniqueTreeNode.UniqueTreeNode&#45;&gt;uqbar.graphs.Text.Text</title>
<path fill="none" stroke="#778899" d="M110.8648,-420.4009C116.179,-366.1515 133.1126,-221.1689 165,-187 229.9345,-117.4195 354.6718,-114.1188 408.3753,-116.2536"/>
<polygon fill="#778899" stroke="#778899" points="408.2592,-119.752 418.4205,-116.7523 408.6064,-112.7606 408.2592,-119.752"/>
</g>
<!-- uqbar.containers.UniqueTreeNode.UniqueTreeNode&#45;&gt;uqbar.graphs.VRule.VRule -->
<g id="edge22" class="edge">
<title>uqbar.containers.UniqueTreeNode.UniqueTreeNode&#45;&gt;uqbar.graphs.VRule.VRule</title>
<path fill="none" stroke="#778899" d="M110.2487,-420.3858C114.2734,-360.5928 128.8116,-188.7614 165,-148 227.0086,-78.1555 349.586,-75.7016 405.2697,-78.6027"/>
<polygon fill="#778899" stroke="#778899" points="405.2793,-82.1099 415.4768,-79.2359 405.7128,-75.1234 405.2793,-82.1099"/>
</g>
<!-- uqbar.graphs.Attachable.Attachable&#45;&gt;uqbar.graphs.RecordField.RecordField -->
<g id="edge6" class="edge">
<title>uqbar.graphs.Attachable.Attachable&#45;&gt;uqbar.graphs.RecordField.RecordField</title>
<path fill="none" stroke="#778899" d="M449.5176,-231.4073C460.0344,-224.906 474.2666,-216.1079 486.9075,-208.2935"/>
<polygon fill="#778899" stroke="#778899" points="489.0894,-211.0595 495.755,-202.8242 485.4086,-205.1054 489.0894,-211.0595"/>
</g>
<!-- uqbar.graphs.Attachable.Attachable&#45;&gt;uqbar.graphs.TableCell.TableCell -->
<g id="edge7" class="edge">
<title>uqbar.graphs.Attachable.Attachable&#45;&gt;uqbar.graphs.TableCell.TableCell</title>
<path fill="none" stroke="#778899" d="M449.9068,-250.6405C461.32,-257.5576 476.9593,-267.0359 490.214,-275.0691"/>
<polygon fill="#778899" stroke="#778899" points="488.5621,-278.1605 498.9281,-280.3504 492.1902,-272.1741 488.5621,-278.1605"/>
</g>
<!-- builtins.object -->
<g id="node1" class="node">
<title>builtins.object</title>
<g id="a_node1"><a xlink:href="https://docs.python.org/3.6/library/functions.html#object" xlink:title="object" target="_top">
<path fill="#fbb4ae" stroke="#fbb4ae" stroke-width="2" d="M46.6667,-450.5C46.6667,-450.5 22.3333,-450.5 22.3333,-450.5 19.1667,-450.5 16,-447.3333 16,-444.1667 16,-444.1667 16,-437.8333 16,-437.8333 16,-434.6667 19.1667,-431.5 22.3333,-431.5 22.3333,-431.5 46.6667,-431.5 46.6667,-431.5 49.8333,-431.5 53,-434.6667 53,-437.8333 53,-437.8333 53,-444.1667 53,-444.1667 53,-447.3333 49.8333,-450.5 46.6667,-450.5"/>
<text text-anchor="middle" x="34.5" y="-438.5" font-family="Arial" font-size="10.00" fill="#000000">object</text>
</a>
</g>
</g>
<!-- uqbar.apis.ModuleNode.ModuleNode -->
<g id="node2" class="node">
<title>uqbar.apis.ModuleNode.ModuleNode</title>
<g id="a_node2"><a xlink:href="../api/uqbar/containers/../apis/ModuleNode.html#uqbar.apis.ModuleNode.ModuleNode" xlink:title="Module\nNode" target="_top">
<path fill="#b3cde3" stroke="#b3cde3" stroke-width="2" d="M359.5,-248C359.5,-248 338.5,-248 338.5,-248 333.5,-248 328.5,-243 328.5,-238 328.5,-238 328.5,-228 328.5,-228 328.5,-223 333.5,-218 338.5,-218 338.5,-218 359.5,-218 359.5,-218 364.5,-218 369.5,-223 369.5,-228 369.5,-228 369.5,-238 369.5,-238 369.5,-243 364.5,-248 359.5,-248"/>
<text text-anchor="middle" x="349" y="-236" font-family="Arial" font-size="10.00" fill="#000000">Module</text>
<text text-anchor="middle" x="349" y="-225" font-family="Arial" font-size="10.00" fill="#000000">Node</text>
</a>
</g>
</g>
<!-- uqbar.apis.PackageNode.PackageNode -->
<g id="node3" class="node">
<title>uqbar.apis.PackageNode.PackageNode</title>
<g id="a_node3"><a xlink:href="../api/uqbar/containers/../apis/PackageNode.html#uqbar.apis.PackageNode.PackageNode" xlink:title="Package\nNode" target="_top">
<path fill="#b3cde3" stroke="#b3cde3" stroke-width="2" d="M362,-296C362,-296 336,-296 336,-296 331,-296 326,-291 326,-286 326,-286 326,-276 326,-276 326,-271 331,-266 336,-266 336,-266 362,-266 362,-266 367,-266 372,-271 372,-276 372,-276 372,-286 372,-286 372,-291 367,-296 362,-296"/>
<text text-anchor="middle" x="349" y="-284" font-family="Arial" font-size="10.00" fill="#000000">Package</text>
<text text-anchor="middle" x="349" y="-273" font-family="Arial" font-size="10.00" fill="#000000">Node</text>
</a>
</g>
</g>
<!-- uqbar.containers.UniqueTreeContainer.UniqueTreeContainer -->
<g id="node4" class="node">
<title>uqbar.containers.UniqueTreeContainer.UniqueTreeContainer</title>
<g id="a_node4"><a xlink:href="../api/uqbar/containers/UniqueTreeContainer.html#uqbar.containers.UniqueTreeContainer.UniqueTreeContainer" xlink:title="Unique\nTree\nContainer" target="_top">
<path fill="#ccebc5" stroke="#ccebc5" stroke-width="2" d="M202,-520.5C202,-520.5 177,-520.5 177,-520.5 171,-520.5 165,-514.5 165,-508.5 165,-508.5 165,-491.5 165,-491.5 165,-485.5 171,-479.5 177,-479.5 177,-479.5 202,-479.5 202,-479.5 208,-479.5 214,-485.5 214,-491.5 214,-491.5 214,-508.5 214,-508.5 214,-514.5 208,-520.5 202,-520.5"/>
<text text-anchor="middle" x="189.5" y="-508.5" font-family="Arial" font-size="10.00" fill="#000000">Unique</text>
<text text-anchor="middle" x="189.5" y="-497.5" font-family="Arial" font-size="10.00" fill="#000000">Tree</text>
<text text-anchor="middle" x="189.5" y="-486.5" font-family="Arial" font-size="10.00" fill="#000000">Container</text>
</a>
</g>
</g>
<!-- uqbar.containers.UniqueTreeDict.UniqueTreeDict -->
<g id="node5" class="node">
<title>uqbar.containers.UniqueTreeDict.UniqueTreeDict</title>
<g id="a_node5"><a xlink:href="../api/uqbar/containers/UniqueTreeDict.html#uqbar.containers.UniqueTreeDict.UniqueTreeDict" xlink:title="Unique\nTree\nDict" target="_top">
<path fill="#ccebc5" stroke="#ccebc5" stroke-width="2" d="M278,-461.5C278,-461.5 262,-461.5 262,-461.5 256,-461.5 250,-455.5 250,-449.5 250,-449.5 250,-432.5 250,-432.5 250,-426.5 256,-420.5 262,-420.5 262,-420.5 278,-420.5 278,-420.5 284,-420.5 290,-426.5 290,-432.5 290,-432.5 290,-449.5 290,-449.5 290,-455.5 284,-461.5 278,-461.5"/>
<text text-anchor="middle" x="270" y="-449.5" font-family="Arial" font-size="10.00" fill="#000000">Unique</text>
<text text-anchor="middle" x="270" y="-438.5" font-family="Arial" font-size="10.00" fill="#000000">Tree</text>
<text text-anchor="middle" x="270" y="-427.5" font-family="Arial" font-size="10.00" fill="#000000">Dict</text>
</a>
</g>
</g>
<!-- uqbar.containers.UniqueTreeList.UniqueTreeList -->
<g id="node6" class="node">
<title>uqbar.containers.UniqueTreeList.UniqueTreeList</title>
<g id="a_node6"><a xlink:href="../api/uqbar/containers/UniqueTreeList.html#uqbar.containers.UniqueTreeList.UniqueTreeList" xlink:title="Unique\nTree\nList" target="_top">
<path fill="#ccebc5" stroke="#ccebc5" stroke-width="2" d="M278,-520.5C278,-520.5 262,-520.5 262,-520.5 256,-520.5 250,-514.5 250,-508.5 250,-508.5 250,-491.5 250,-491.5 250,-485.5 256,-479.5 262,-479.5 262,-479.5 278,-479.5 278,-479.5 284,-479.5 290,-485.5 290,-491.5 290,-491.5 290,-508.5 290,-508.5 290,-514.5 284,-520.5 278,-520.5"/>
<text text-anchor="middle" x="270" y="-508.5" font-family="Arial" font-size="10.00" fill="#000000">Unique</text>
<text text-anchor="middle" x="270" y="-497.5" font-family="Arial" font-size="10.00" fill="#000000">Tree</text>
<text text-anchor="middle" x="270" y="-486.5" font-family="Arial" font-size="10.00" fill="#000000">List</text>
</a>
</g>
</g>
<!-- uqbar.containers.UniqueTreeSet.UniqueTreeSet -->
<g id="node7" class="node">
<title>uqbar.containers.UniqueTreeSet.UniqueTreeSet</title>
<g id="a_node7"><a xlink:href="../api/uqbar/containers/UniqueTreeSet.html#uqbar.containers.UniqueTreeSet.UniqueTreeSet" xlink:title="Unique\nTree\nSet" target="_top">
<path fill="#ccebc5" stroke="#ccebc5" stroke-width="2" d="M357,-600.5C357,-600.5 341,-600.5 341,-600.5 335,-600.5 329,-594.5 329,-588.5 329,-588.5 329,-571.5 329,-571.5 329,-565.5 335,-559.5 341,-559.5 341,-559.5 357,-559.5 357,-559.5 363,-559.5 369,-565.5 369,-571.5 369,-571.5 369,-588.5 369,-588.5 369,-594.5 363,-600.5 357,-600.5"/>
<text text-anchor="middle" x="349" y="-588.5" font-family="Arial" font-size="10.00" fill="#000000">Unique</text>
<text text-anchor="middle" x="349" y="-577.5" font-family="Arial" font-size="10.00" fill="#000000">Tree</text>
<text text-anchor="middle" x="349" y="-566.5" font-family="Arial" font-size="10.00" fill="#000000">Set</text>
</a>
</g>
</g>
<!-- uqbar.containers.UniqueTreeTuple.UniqueTreeTuple -->
<g id="node8" class="node">
<title>uqbar.containers.UniqueTreeTuple.UniqueTreeTuple</title>
<g id="a_node8"><a xlink:href="../api/uqbar/containers/UniqueTreeTuple.html#uqbar.containers.UniqueTreeTuple.UniqueTreeTuple" xlink:title="Unique\nTree\nTuple" target="_top">
<path fill="#ccebc5" stroke="#ccebc5" stroke-width="2" d="M278,-600.5C278,-600.5 262,-600.5 262,-600.5 256,-600.5 250,-594.5 250,-588.5 250,-588.5 250,-571.5 250,-571.5 250,-565.5 256,-559.5 262,-559.5 262,-559.5 278,-559.5 278,-559.5 284,-559.5 290,-565.5 290,-571.5 290,-571.5 290,-588.5 290,-588.5 290,-594.5 284,-600.5 278,-600.5"/>
<text text-anchor="middle" x="270" y="-588.5" font-family="Arial" font-size="10.00" fill="#000000">Unique</text>
<text text-anchor="middle" x="270" y="-577.5" font-family="Arial" font-size="10.00" fill="#000000">Tree</text>
<text text-anchor="middle" x="270" y="-566.5" font-family="Arial" font-size="10.00" fill="#000000">Tuple</text>
</a>
</g>
</g>
<!-- uqbar.containers.UniqueTreeNode.UniqueTreeNode -->
<g id="node9" class="node">
<title>uqbar.containers.UniqueTreeNode.UniqueTreeNode</title>
<g id="a_node9"><a xlink:href="../api/uqbar/containers/UniqueTreeNode.html#uqbar.containers.UniqueTreeNode.UniqueTreeNode" xlink:title="Unique\nTree\nNode" target="_top">
<path fill="#000000" stroke="#000000" stroke-width="2" d="M117,-461.5C117,-461.5 101,-461.5 101,-461.5 95,-461.5 89,-455.5 89,-449.5 89,-449.5 89,-432.5 89,-432.5 89,-426.5 95,-420.5 101,-420.5 101,-420.5 117,-420.5 117,-420.5 123,-420.5 129,-426.5 129,-432.5 129,-432.5 129,-449.5 129,-449.5 129,-455.5 123,-461.5 117,-461.5"/>
<text text-anchor="middle" x="109" y="-449.5" font-family="Arial" font-size="10.00" fill="#ffffff">Unique</text>
<text text-anchor="middle" x="109" y="-438.5" font-family="Arial" font-size="10.00" fill="#ffffff">Tree</text>
<text text-anchor="middle" x="109" y="-427.5" font-family="Arial" font-size="10.00" fill="#ffffff">Node</text>
</a>
</g>
</g>
<!-- uqbar.graphs.Attachable.Attachable -->
<g id="node10" class="node">
<title>uqbar.graphs.Attachable.Attachable</title>
<g id="a_node10"><a xlink:href="../api/uqbar/containers/../graphs/Attachable.html#uqbar.graphs.Attachable.Attachable" xlink:title="Attachable" target="_top">
<path fill="#decbe4" stroke="#decbe4" stroke-width="2" d="M453.6667,-250.5C453.6667,-250.5 414.3333,-250.5 414.3333,-250.5 411.1667,-250.5 408,-247.3333 408,-244.1667 408,-244.1667 408,-237.8333 408,-237.8333 408,-234.6667 411.1667,-231.5 414.3333,-231.5 414.3333,-231.5 453.6667,-231.5 453.6667,-231.5 456.8333,-231.5 460,-234.6667 460,-237.8333 460,-237.8333 460,-244.1667 460,-244.1667 460,-247.3333 456.8333,-250.5 453.6667,-250.5"/>
<text text-anchor="middle" x="434" y="-238.5" font-family="Arial" font-size="10.00" fill="#000000">Attachable</text>
</a>
</g>
</g>
<!-- uqbar.graphs.RecordField.RecordField -->
<g id="node11" class="node">
<title>uqbar.graphs.RecordField.RecordField</title>
<g id="a_node11"><a xlink:href="../api/uqbar/containers/../graphs/RecordField.html#uqbar.graphs.RecordField.RecordField" xlink:title="Record\nField" target="_top">
<path fill="#decbe4" stroke="#decbe4" stroke-width="2" d="M527,-205C527,-205 506,-205 506,-205 501,-205 496,-200 496,-195 496,-195 496,-185 496,-185 496,-180 501,-175 506,-175 506,-175 527,-175 527,-175 532,-175 537,-180 537,-185 537,-185 537,-195 537,-195 537,-200 532,-205 527,-205"/>
<text text-anchor="middle" x="516.5" y="-193" font-family="Arial" font-size="10.00" fill="#000000">Record</text>
<text text-anchor="middle" x="516.5" y="-182" font-family="Arial" font-size="10.00" fill="#000000">Field</text>
</a>
</g>
</g>
<!-- uqbar.graphs.TableCell.TableCell -->
<g id="node12" class="node">
<title>uqbar.graphs.TableCell.TableCell</title>
<g id="a_node12"><a xlink:href="../api/uqbar/containers/../graphs/TableCell.html#uqbar.graphs.TableCell.TableCell" xlink:title="Table\nCell" target="_top">
<path fill="#decbe4" stroke="#decbe4" stroke-width="2" d="M524,-306C524,-306 509,-306 509,-306 504,-306 499,-301 499,-296 499,-296 499,-286 499,-286 499,-281 504,-276 509,-276 509,-276 524,-276 524,-276 529,-276 534,-281 534,-286 534,-286 534,-296 534,-296 534,-301 529,-306 524,-306"/>
<text text-anchor="middle" x="516.5" y="-294" font-family="Arial" font-size="10.00" fill="#000000">Table</text>
<text text-anchor="middle" x="516.5" y="-283" font-family="Arial" font-size="10.00" fill="#000000">Cell</text>
</a>
</g>
</g>
<!-- uqbar.graphs.Graph.Graph -->
<g id="node13" class="node">
<title>uqbar.graphs.Graph.Graph</title>
<g id="a_node13"><a xlink:href="../api/uqbar/containers/../graphs/Graph.html#uqbar.graphs.Graph.Graph" xlink:title="Graph" target="_top">
<path fill="#decbe4" stroke="#decbe4" stroke-width="2" d="M446.1667,-459.5C446.1667,-459.5 421.8333,-459.5 421.8333,-459.5 418.6667,-459.5 415.5,-456.3333 415.5,-453.1667 415.5,-453.1667 415.5,-446.8333 415.5,-446.8333 415.5,-443.6667 418.6667,-440.5 421.8333,-440.5 421.8333,-440.5 446.1667,-440.5 446.1667,-440.5 449.3333,-440.5 452.5,-443.6667 452.5,-446.8333 452.5,-446.8333 452.5,-453.1667 452.5,-453.1667 452.5,-456.3333 449.3333,-459.5 446.1667,-459.5"/>
<text text-anchor="middle" x="434" y="-447.5" font-family="Arial" font-size="10.00" fill="#000000">Graph</text>
</a>
</g>
</g>
<!-- uqbar.graphs.HRule.HRule -->
<g id="node14" class="node">
<title>uqbar.graphs.HRule.HRule</title>
<g id="a_node14"><a xlink:href="../api/uqbar/containers/../graphs/HRule.html#uqbar.graphs.HRule.HRule" xlink:title="HRule" target="_top">
<path fill="#decbe4" stroke="#decbe4" stroke-width="2" d="M446.1667,-213.5C446.1667,-213.5 421.8333,-213.5 421.8333,-213.5 418.6667,-213.5 415.5,-210.3333 415.5,-207.1667 415.5,-207.1667 415.5,-200.8333 415.5,-200.8333 415.5,-197.6667 418.6667,-194.5 421.8333,-194.5 421.8333,-194.5 446.1667,-194.5 446.1667,-194.5 449.3333,-194.5 452.5,-197.6667 452.5,-200.8333 452.5,-200.8333 452.5,-207.1667 452.5,-207.1667 452.5,-210.3333 449.3333,-213.5 446.1667,-213.5"/>
<text text-anchor="middle" x="434" y="-201.5" font-family="Arial" font-size="10.00" fill="#000000">HRule</text>
</a>
</g>
</g>
<!-- uqbar.graphs.LineBreak.LineBreak -->
<g id="node15" class="node">
<title>uqbar.graphs.LineBreak.LineBreak</title>
<g id="a_node15"><a xlink:href="../api/uqbar/containers/../graphs/LineBreak.html#uqbar.graphs.LineBreak.LineBreak" xlink:title="Line\nBreak" target="_top">
<path fill="#decbe4" stroke="#decbe4" stroke-width="2" d="M442,-176C442,-176 426,-176 426,-176 421,-176 416,-171 416,-166 416,-166 416,-156 416,-156 416,-151 421,-146 426,-146 426,-146 442,-146 442,-146 447,-146 452,-151 452,-156 452,-156 452,-166 452,-166 452,-171 447,-176 442,-176"/>
<text text-anchor="middle" x="434" y="-164" font-family="Arial" font-size="10.00" fill="#000000">Line</text>
<text text-anchor="middle" x="434" y="-153" font-family="Arial" font-size="10.00" fill="#000000">Break</text>
</a>
</g>
</g>
<!-- uqbar.graphs.Node.Node -->
<g id="node16" class="node">
<title>uqbar.graphs.Node.Node</title>
<g id="a_node16"><a xlink:href="../api/uqbar/containers/../graphs/Node.html#uqbar.graphs.Node.Node" xlink:title="Node" target="_top">
<path fill="#decbe4" stroke="#decbe4" stroke-width="2" d="M444.6667,-422.5C444.6667,-422.5 423.3333,-422.5 423.3333,-422.5 420.1667,-422.5 417,-419.3333 417,-416.1667 417,-416.1667 417,-409.8333 417,-409.8333 417,-406.6667 420.1667,-403.5 423.3333,-403.5 423.3333,-403.5 444.6667,-403.5 444.6667,-403.5 447.8333,-403.5 451,-406.6667 451,-409.8333 451,-409.8333 451,-416.1667 451,-416.1667 451,-419.3333 447.8333,-422.5 444.6667,-422.5"/>
<text text-anchor="middle" x="434" y="-410.5" font-family="Arial" font-size="10.00" fill="#000000">Node</text>
</a>
</g>
</g>
<!-- uqbar.graphs.RecordGroup.RecordGroup -->
<g id="node17" class="node">
<title>uqbar.graphs.RecordGroup.RecordGroup</title>
<g id="a_node17"><a xlink:href="../api/uqbar/containers/../graphs/RecordGroup.html#uqbar.graphs.RecordGroup.RecordGroup" xlink:title="Record\nGroup" target="_top">
<path fill="#decbe4" stroke="#decbe4" stroke-width="2" d="M444.5,-385C444.5,-385 423.5,-385 423.5,-385 418.5,-385 413.5,-380 413.5,-375 413.5,-375 413.5,-365 413.5,-365 413.5,-360 418.5,-355 423.5,-355 423.5,-355 444.5,-355 444.5,-355 449.5,-355 454.5,-360 454.5,-365 454.5,-365 454.5,-375 454.5,-375 454.5,-380 449.5,-385 444.5,-385"/>
<text text-anchor="middle" x="434" y="-373" font-family="Arial" font-size="10.00" fill="#000000">Record</text>
<text text-anchor="middle" x="434" y="-362" font-family="Arial" font-size="10.00" fill="#000000">Group</text>
</a>
</g>
</g>
<!-- uqbar.graphs.Table.Table -->
<g id="node18" class="node">
<title>uqbar.graphs.Table.Table</title>
<g id="a_node18"><a xlink:href="../api/uqbar/containers/../graphs/Table.html#uqbar.graphs.Table.Table" xlink:title="Table" target="_top">
<path fill="#decbe4" stroke="#decbe4" stroke-width="2" d="M445.1667,-336.5C445.1667,-336.5 422.8333,-336.5 422.8333,-336.5 419.6667,-336.5 416.5,-333.3333 416.5,-330.1667 416.5,-330.1667 416.5,-323.8333 416.5,-323.8333 416.5,-320.6667 419.6667,-317.5 422.8333,-317.5 422.8333,-317.5 445.1667,-317.5 445.1667,-317.5 448.3333,-317.5 451.5,-320.6667 451.5,-323.8333 451.5,-323.8333 451.5,-330.1667 451.5,-330.1667 451.5,-333.3333 448.3333,-336.5 445.1667,-336.5"/>
<text text-anchor="middle" x="434" y="-324.5" font-family="Arial" font-size="10.00" fill="#000000">Table</text>
</a>
</g>
</g>
<!-- uqbar.graphs.TableRow.TableRow -->
<g id="node19" class="node">
<title>uqbar.graphs.TableRow.TableRow</title>
<g id="a_node19"><a xlink:href="../api/uqbar/containers/../graphs/TableRow.html#uqbar.graphs.TableRow.TableRow" xlink:title="Table\nRow" target="_top">
<path fill="#decbe4" stroke="#decbe4" stroke-width="2" d="M441.5,-299C441.5,-299 426.5,-299 426.5,-299 421.5,-299 416.5,-294 416.5,-289 416.5,-289 416.5,-279 416.5,-279 416.5,-274 421.5,-269 426.5,-269 426.5,-269 441.5,-269 441.5,-269 446.5,-269 451.5,-274 451.5,-279 451.5,-279 451.5,-289 451.5,-289 451.5,-294 446.5,-299 441.5,-299"/>
<text text-anchor="middle" x="434" y="-287" font-family="Arial" font-size="10.00" fill="#000000">Table</text>
<text text-anchor="middle" x="434" y="-276" font-family="Arial" font-size="10.00" fill="#000000">Row</text>
</a>
</g>
</g>
<!-- uqbar.graphs.Text.Text -->
<g id="node20" class="node">
<title>uqbar.graphs.Text.Text</title>
<g id="a_node20"><a xlink:href="../api/uqbar/containers/../graphs/Text.html#uqbar.graphs.Text.Text" xlink:title="Text" target="_top">
<path fill="#decbe4" stroke="#decbe4" stroke-width="2" d="M443.1667,-127.5C443.1667,-127.5 424.8333,-127.5 424.8333,-127.5 421.6667,-127.5 418.5,-124.3333 418.5,-121.1667 418.5,-121.1667 418.5,-114.8333 418.5,-114.8333 418.5,-111.6667 421.6667,-108.5 424.8333,-108.5 424.8333,-108.5 443.1667,-108.5 443.1667,-108.5 446.3333,-108.5 449.5,-111.6667 449.5,-114.8333 449.5,-114.8333 449.5,-121.1667 449.5,-121.1667 449.5,-124.3333 446.3333,-127.5 443.1667,-127.5"/>
<text text-anchor="middle" x="434" y="-115.5" font-family="Arial" font-size="10.00" fill="#000000">Text</text>
</a>
</g>
</g>
<!-- uqbar.graphs.VRule.VRule -->
<g id="node21" class="node">
<title>uqbar.graphs.VRule.VRule</title>
<g id="a_node21"><a xlink:href="../api/uqbar/containers/../graphs/VRule.html#uqbar.graphs.VRule.VRule" xlink:title="VRule" target="_top">
<path fill="#decbe4" stroke="#decbe4" stroke-width="2" d="M446.1667,-90.5C446.1667,-90.5 421.8333,-90.5 421.8333,-90.5 418.6667,-90.5 415.5,-87.3333 415.5,-84.1667 415.5,-84.1667 415.5,-77.8333 415.5,-77.8333 415.5,-74.6667 418.6667,-71.5 421.8333,-71.5 421.8333,-71.5 446.1667,-71.5 446.1667,-71.5 449.3333,-71.5 452.5,-74.6667 452.5,-77.8333 452.5,-77.8333 452.5,-84.1667 452.5,-84.1667 452.5,-87.3333 449.3333,-90.5 446.1667,-90.5"/>
<text text-anchor="middle" x="434" y="-78.5" font-family="Arial" font-size="10.00" fill="#000000">VRule</text>
</a>
</g>
</g>
</g>
</svg>
