<?xml version="1.0" encoding="UTF-8" standalone="no"?>
<!DOCTYPE svg PUBLIC "-//W3C//DTD SVG 1.1//EN"
 "http://www.w3.org/Graphics/SVG/1.1/DTD/svg11.dtd">
<!-- Generated by graphviz version 2.40.1 (20161225.0304)
 -->
<!-- Title: InheritanceGraph Pages: 1 -->
<svg width="334pt" height="137pt"
 viewBox="0.00 0.00 334.00 137.00" xmlns="http://www.w3.org/2000/svg" xmlns:xlink="http://www.w3.org/1999/xlink">
<g id="graph0" class="graph" transform="scale(1 1) rotate(0) translate(4 133)">
<title>InheritanceGraph</title>
<g id="clust3" class="cluster">
<title>cluster_uqbar.graphs</title>
<path fill="transparent" stroke="#bcd2ee" stroke-width="2" stroke-dasharray="5,2" d="M185,-8C185,-8 306,-8 306,-8 312,-8 318,-14 318,-20 318,-20 318,-109 318,-109 318,-115 312,-121 306,-121 306,-121 185,-121 185,-121 179,-121 173,-115 173,-109 173,-109 173,-20 173,-20 173,-14 179,-8 185,-8"/>
<text text-anchor="middle" x="245.5" y="-109" font-family="Arial" font-size="10.00" fill="#000000">uqbar.graphs</text>
</g>
<g id="clust1" class="cluster">
<title>cluster_builtins</title>
<path fill="transparent" stroke="#bcd2ee" stroke-width="2" stroke-dasharray="5,2" d="M20,-35C20,-35 49,-35 49,-35 55,-35 61,-41 61,-47 61,-47 61,-78 61,-78 61,-84 55,-90 49,-90 49,-90 20,-90 20,-90 14,-90 8,-84 8,-78 8,-78 8,-47 8,-47 8,-41 14,-35 20,-35"/>
<text text-anchor="middle" x="34.5" y="-78" font-family="Arial" font-size="10.00" fill="#000000">builtins</text>
</g>
<g id="clust2" class="cluster">
<title>cluster_uqbar.containers</title>
<path fill="transparent" stroke="#bcd2ee" stroke-width="2" stroke-dasharray="5,2" d="M93,-24C93,-24 141,-24 141,-24 147,-24 153,-30 153,-36 153,-36 153,-89 153,-89 153,-95 147,-101 141,-101 141,-101 93,-101 93,-101 87,-101 81,-95 81,-89 81,-89 81,-36 81,-36 81,-30 87,-24 93,-24"/>
<text text-anchor="middle" x="117" y="-89" font-family="Arial" font-size="10.00" fill="#000000">uqbar.containers</text>
</g>
<!-- builtins.object&#45;&gt;uqbar.containers.UniqueTreeNode.UniqueTreeNode -->
<g id="edge3" class="edge">
<title>builtins.object&#45;&gt;uqbar.containers.UniqueTreeNode.UniqueTreeNode</title>
<path fill="none" stroke="#778899" d="M53.2205,-53C63.092,-53 75.4465,-53 86.6465,-53"/>
<polygon fill="#778899" stroke="#778899" points="86.9122,-56.5001 96.9122,-53 86.9122,-49.5001 86.9122,-56.5001"/>
</g>
<!-- uqbar.containers.UniqueTreeNode.UniqueTreeNode&#45;&gt;uqbar.graphs.Attachable.Attachable -->
<g id="edge4" class="edge">
<title>uqbar.containers.UniqueTreeNode.UniqueTreeNode&#45;&gt;uqbar.graphs.Attachable.Attachable</title>
<path fill="none" stroke="#778899" d="M137.4224,-56.6306C147.2698,-58.3813 159.3824,-60.5347 170.7258,-62.5512"/>
<polygon fill="#778899" stroke="#778899" points="170.3815,-66.0449 180.8398,-64.3493 171.6068,-59.1529 170.3815,-66.0449"/>
</g>
<!-- uqbar.containers.UniqueTreeNode.UniqueTreeNode&#45;&gt;uqbar.graphs.RecordField.RecordField -->
<g id="edge5" class="edge">
<title>uqbar.containers.UniqueTreeNode.UniqueTreeNode&#45;&gt;uqbar.graphs.RecordField.RecordField</title>
<path fill="none" stroke="#778899" d="M137.1255,-50.4333C167.0873,-46.6121 223.6549,-39.3976 258.8013,-34.9152"/>
<polygon fill="#778899" stroke="#778899" points="259.4911,-38.3557 268.9679,-33.6186 258.6055,-31.4119 259.4911,-38.3557"/>
</g>
<!-- uqbar.graphs.Attachable.Attachable&#45;&gt;uqbar.graphs.RecordField.RecordField -->
<g id="edge1" class="edge">
<title>uqbar.graphs.Attachable.Attachable&#45;&gt;uqbar.graphs.RecordField.RecordField</title>
<path fill="none" stroke="#778899" d="M227.8182,-59.411C237.4665,-54.9669 249.11,-49.6039 259.6696,-44.7401"/>
<polygon fill="#778899" stroke="#778899" points="261.3557,-47.8169 268.9742,-40.4543 258.4271,-41.459 261.3557,-47.8169"/>
</g>
<!-- uqbar.graphs.Attachable.Attachable&#45;&gt;uqbar.graphs.TableCell.TableCell -->
<g id="edge2" class="edge">
<title>uqbar.graphs.Attachable.Attachable&#45;&gt;uqbar.graphs.TableCell.TableCell</title>
<path fill="none" stroke="#778899" d="M233.1035,-72.1641C242.2956,-73.2783 252.6529,-74.5337 261.9597,-75.6618"/>
<polygon fill="#778899" stroke="#778899" points="261.5543,-79.1382 271.9029,-76.867 262.3967,-72.189 261.5543,-79.1382"/>
</g>
<!-- builtins.object -->
<g id="node1" class="node">
<title>builtins.object</title>
<g id="a_node1"><a xlink:href="https://docs.python.org/3.6/library/functions.html#object" xlink:title="object" target="_top">
<path fill="#fbb4ae" stroke="#fbb4ae" stroke-width="2" d="M46.6667,-62.5C46.6667,-62.5 22.3333,-62.5 22.3333,-62.5 19.1667,-62.5 16,-59.3333 16,-56.1667 16,-56.1667 16,-49.8333 16,-49.8333 16,-46.6667 19.1667,-43.5 22.3333,-43.5 22.3333,-43.5 46.6667,-43.5 46.6667,-43.5 49.8333,-43.5 53,-46.6667 53,-49.8333 53,-49.8333 53,-56.1667 53,-56.1667 53,-59.3333 49.8333,-62.5 46.6667,-62.5"/>
<text text-anchor="middle" x="34.5" y="-50.5" font-family="Arial" font-size="10.00" fill="#000000">object</text>
</a>
</g>
</g>
<!-- uqbar.containers.UniqueTreeNode.UniqueTreeNode -->
<g id="node2" class="node">
<title>uqbar.containers.UniqueTreeNode.UniqueTreeNode</title>
<g id="a_node2"><a xlink:href="../api/uqbar/graphs/../containers/UniqueTreeNode.html#uqbar.containers.UniqueTreeNode.UniqueTreeNode" xlink:title="Unique\nTree\nNode" target="_top">
<path fill="#b3cde3" stroke="#b3cde3" stroke-width="2" d="M125,-73.5C125,-73.5 109,-73.5 109,-73.5 103,-73.5 97,-67.5 97,-61.5 97,-61.5 97,-44.5 97,-44.5 97,-38.5 103,-32.5 109,-32.5 109,-32.5 125,-32.5 125,-32.5 131,-32.5 137,-38.5 137,-44.5 137,-44.5 137,-61.5 137,-61.5 137,-67.5 131,-73.5 125,-73.5"/>
<text text-anchor="middle" x="117" y="-61.5" font-family="Arial" font-size="10.00" fill="#000000">Unique</text>
<text text-anchor="middle" x="117" y="-50.5" font-family="Arial" font-size="10.00" fill="#000000">Tree</text>
<text text-anchor="middle" x="117" y="-39.5" font-family="Arial" font-size="10.00" fill="#000000">Node</text>
</a>
</g>
</g>
<!-- uqbar.graphs.Attachable.Attachable -->
<g id="node3" class="node">
<title>uqbar.graphs.Attachable.Attachable</title>
<g id="a_node3"><a xlink:href="../api/uqbar/graphs/Attachable.html#uqbar.graphs.Attachable.Attachable" xlink:title="Attachable" target="_top">
<path fill="#000000" stroke="#000000" stroke-width="2" d="M226.6667,-78.5C226.6667,-78.5 187.3333,-78.5 187.3333,-78.5 184.1667,-78.5 181,-75.3333 181,-72.1667 181,-72.1667 181,-65.8333 181,-65.8333 181,-62.6667 184.1667,-59.5 187.3333,-59.5 187.3333,-59.5 226.6667,-59.5 226.6667,-59.5 229.8333,-59.5 233,-62.6667 233,-65.8333 233,-65.8333 233,-72.1667 233,-72.1667 233,-75.3333 229.8333,-78.5 226.6667,-78.5"/>
<text text-anchor="middle" x="207" y="-66.5" font-family="Arial" font-size="10.00" fill="#ffffff">Attachable</text>
</a>
</g>
</g>
<!-- uqbar.graphs.RecordField.RecordField -->
<g id="node4" class="node">
<title>uqbar.graphs.RecordField.RecordField</title>
<g id="a_node4"><a xlink:href="../api/uqbar/graphs/RecordField.html#uqbar.graphs.RecordField.RecordField" xlink:title="Record\nField" target="_top">
<path fill="#ccebc5" stroke="#ccebc5" stroke-width="2" d="M300,-46C300,-46 279,-46 279,-46 274,-46 269,-41 269,-36 269,-36 269,-26 269,-26 269,-21 274,-16 279,-16 279,-16 300,-16 300,-16 305,-16 310,-21 310,-26 310,-26 310,-36 310,-36 310,-41 305,-46 300,-46"/>
<text text-anchor="middle" x="289.5" y="-34" font-family="Arial" font-size="10.00" fill="#000000">Record</text>
<text text-anchor="middle" x="289.5" y="-23" font-family="Arial" font-size="10.00" fill="#000000">Field</text>
</a>
</g>
</g>
<!-- uqbar.graphs.TableCell.TableCell -->
<g id="node5" class="node">
<title>uqbar.graphs.TableCell.TableCell</title>
<g id="a_node5"><a xlink:href="../api/uqbar/graphs/TableCell.html#uqbar.graphs.TableCell.TableCell" xlink:title="Table\nCell" target="_top">
<path fill="#ccebc5" stroke="#ccebc5" stroke-width="2" d="M297,-94C297,-94 282,-94 282,-94 277,-94 272,-89 272,-84 272,-84 272,-74 272,-74 272,-69 277,-64 282,-64 282,-64 297,-64 297,-64 302,-64 307,-69 307,-74 307,-74 307,-84 307,-84 307,-89 302,-94 297,-94"/>
<text text-anchor="middle" x="289.5" y="-82" font-family="Arial" font-size="10.00" fill="#000000">Table</text>
<text text-anchor="middle" x="289.5" y="-71" font-family="Arial" font-size="10.00" fill="#000000">Cell</text>
</a>
</g>
</g>
</g>
</svg>
