<?xml version="1.0" encoding="UTF-8" standalone="no"?>
<!DOCTYPE svg PUBLIC "-//W3C//DTD SVG 1.1//EN"
 "http://www.w3.org/Graphics/SVG/1.1/DTD/svg11.dtd">
<!-- Generated by graphviz version 2.44.0 (20200408.0750)
 -->
<!-- Title: InheritanceGraph Pages: 1 -->
<svg width="640pt" height="175pt"
 viewBox="0.00 0.00 640.20 175.00" xmlns="http://www.w3.org/2000/svg" xmlns:xlink="http://www.w3.org/1999/xlink">
<g id="graph0" class="graph" transform="scale(1 1) rotate(0) translate(4 171)">
<title>InheritanceGraph</title>
<g id="clust1" class="cluster">
<title>cluster_builtins</title>
<path fill="transparent" stroke="#bcd2ee" stroke-width="2" stroke-dasharray="5,2" d="M20,-56C20,-56 55,-56 55,-56 61,-56 67,-62 67,-68 67,-68 67,-99 67,-99 67,-105 61,-111 55,-111 55,-111 20,-111 20,-111 14,-111 8,-105 8,-99 8,-99 8,-68 8,-68 8,-62 14,-56 20,-56"/>
<text text-anchor="middle" x="37.5" y="-99" font-family="Arial" font-size="10.00">builtins</text>
</g>
<g id="clust2" class="cluster">
<title>cluster_collections.abc</title>
<path fill="transparent" stroke="#bcd2ee" stroke-width="2" stroke-dasharray="5,2" d="M99,-8C99,-8 517.2,-8 517.2,-8 523.2,-8 529.2,-14 529.2,-20 529.2,-20 529.2,-147 529.2,-147 529.2,-153 523.2,-159 517.2,-159 517.2,-159 99,-159 99,-159 93,-159 87,-153 87,-147 87,-147 87,-20 87,-20 87,-14 93,-8 99,-8"/>
<text text-anchor="middle" x="308.1" y="-147" font-family="Arial" font-size="10.00">collections.abc</text>
</g>
<g id="clust3" class="cluster">
<title>cluster_uqbar.graphs</title>
<path fill="transparent" stroke="#bcd2ee" stroke-width="2" stroke-dasharray="5,2" d="M561.2,-56C561.2,-56 612.2,-56 612.2,-56 618.2,-56 624.2,-62 624.2,-68 624.2,-68 624.2,-99 624.2,-99 624.2,-105 618.2,-111 612.2,-111 612.2,-111 561.2,-111 561.2,-111 555.2,-111 549.2,-105 549.2,-99 549.2,-99 549.2,-68 549.2,-68 549.2,-62 555.2,-56 561.2,-56"/>
<text text-anchor="middle" x="586.7" y="-99" font-family="Arial" font-size="10.00">uqbar.graphs</text>
</g>
<!-- builtins.object&#45;&gt;collections.abc.Container -->
<g id="edge6" class="edge">
<title>builtins.object&#45;&gt;collections.abc.Container</title>
<path fill="none" stroke="lightslategrey" d="M59.12,-83.54C71.83,-89.43 88.41,-97.1 102.9,-103.81"/>
<polygon fill="lightslategrey" stroke="lightslategrey" points="101.51,-107.02 112.05,-108.05 104.45,-100.67 101.51,-107.02"/>
</g>
<!-- builtins.object&#45;&gt;collections.abc.Iterable -->
<g id="edge7" class="edge">
<title>builtins.object&#45;&gt;collections.abc.Iterable</title>
<path fill="none" stroke="lightslategrey" d="M59.12,-74C68.59,-74 80.22,-74 91.52,-74"/>
<polygon fill="lightslategrey" stroke="lightslategrey" points="91.74,-77.5 101.74,-74 91.74,-70.5 91.74,-77.5"/>
</g>
<!-- builtins.object&#45;&gt;collections.abc.Sized -->
<g id="edge8" class="edge">
<title>builtins.object&#45;&gt;collections.abc.Sized</title>
<path fill="none" stroke="lightslategrey" d="M59.12,-64.46C72.74,-58.15 90.82,-49.78 105.99,-42.76"/>
<polygon fill="lightslategrey" stroke="lightslategrey" points="107.86,-45.75 115.46,-38.38 104.92,-39.4 107.86,-45.75"/>
</g>
<!-- collections.abc.Collection&#45;&gt;collections.abc.Mapping -->
<g id="edge1" class="edge">
<title>collections.abc.Collection&#45;&gt;collections.abc.Mapping</title>
<path fill="none" stroke="lightslategrey" d="M299.31,-74C307.63,-74 316.43,-74 324.92,-74"/>
<polygon fill="lightslategrey" stroke="lightslategrey" points="325.07,-77.5 335.07,-74 325.07,-70.5 325.07,-77.5"/>
</g>
<!-- collections.abc.Container&#45;&gt;collections.abc.Collection -->
<g id="edge2" class="edge">
<title>collections.abc.Container&#45;&gt;collections.abc.Collection</title>
<path fill="none" stroke="lightslategrey" d="M164.53,-108.79C180.73,-102.62 201.6,-94.67 219.3,-87.93"/>
<polygon fill="lightslategrey" stroke="lightslategrey" points="220.65,-91.16 228.75,-84.33 218.16,-84.62 220.65,-91.16"/>
</g>
<!-- collections.abc.Iterable&#45;&gt;collections.abc.Collection -->
<g id="edge3" class="edge">
<title>collections.abc.Iterable&#45;&gt;collections.abc.Collection</title>
<path fill="none" stroke="lightslategrey" d="M171.58,-74C181.6,-74 192.82,-74 203.72,-74"/>
<polygon fill="lightslategrey" stroke="lightslategrey" points="204.02,-77.5 214.02,-74 204.02,-70.5 204.02,-77.5"/>
</g>
<!-- collections.abc.Mapping&#45;&gt;collections.abc.MutableMapping -->
<g id="edge4" class="edge">
<title>collections.abc.Mapping&#45;&gt;collections.abc.MutableMapping</title>
<path fill="none" stroke="lightslategrey" d="M410.35,-74C418.53,-74 427.31,-74 435.83,-74"/>
<polygon fill="lightslategrey" stroke="lightslategrey" points="436.05,-77.5 446.05,-74 436.05,-70.5 436.05,-77.5"/>
</g>
<!-- collections.abc.MutableMapping&#45;&gt;uqbar.graphs.Attributes.Attributes -->
<g id="edge9" class="edge">
<title>collections.abc.MutableMapping&#45;&gt;uqbar.graphs.Attributes.Attributes</title>
<path fill="none" stroke="lightslategrey" d="M521.46,-74C529.71,-74 538.49,-74 546.82,-74"/>
<polygon fill="lightslategrey" stroke="lightslategrey" points="547.06,-77.5 557.06,-74 547.06,-70.5 547.06,-77.5"/>
</g>
<!-- collections.abc.Sized&#45;&gt;collections.abc.Collection -->
<g id="edge5" class="edge">
<title>collections.abc.Sized&#45;&gt;collections.abc.Collection</title>
<path fill="none" stroke="lightslategrey" d="M159.66,-37.36C176.45,-43.75 199.96,-52.71 219.53,-60.16"/>
<polygon fill="lightslategrey" stroke="lightslategrey" points="218.48,-63.5 229.07,-63.79 220.97,-56.96 218.48,-63.5"/>
</g>
<!-- builtins.object -->
<g id="node1" class="node">
<title>builtins.object</title>
<g id="a_node1"><a xlink:href="https://docs.python.org/3.6/library/functions.html#object" xlink:title="object" target="_top">
<path fill="#fbb4ae" stroke="#fbb4ae" stroke-width="2" d="M52.67,-83.5C52.67,-83.5 22.33,-83.5 22.33,-83.5 19.17,-83.5 16,-80.33 16,-77.17 16,-77.17 16,-70.83 16,-70.83 16,-67.67 19.17,-64.5 22.33,-64.5 22.33,-64.5 52.67,-64.5 52.67,-64.5 55.83,-64.5 59,-67.67 59,-70.83 59,-70.83 59,-77.17 59,-77.17 59,-80.33 55.83,-83.5 52.67,-83.5"/>
<text text-anchor="middle" x="37.5" y="-71.5" font-family="Arial" font-size="10.00">object</text>
</a>
</g>
</g>
<!-- collections.abc.Collection -->
<g id="node2" class="node">
<title>collections.abc.Collection</title>
<g id="a_node2"><a xlink:href="https://docs.python.org/3.6/library/collections.abc.html#collections.abc.Collection" xlink:title="Collection" target="_top">
<ellipse fill="none" stroke="#b3cde3" stroke-width="2" cx="256.87" cy="-74" rx="42.35" ry="13.37"/>
<text text-anchor="middle" x="256.87" y="-71.5" font-family="Arial" font-size="10.00">Collection</text>
</a>
</g>
</g>
<!-- collections.abc.Container -->
<g id="node3" class="node">
<title>collections.abc.Container</title>
<g id="a_node3"><a xlink:href="https://docs.python.org/3.6/library/collections.abc.html#collections.abc.Container" xlink:title="Container" target="_top">
<ellipse fill="none" stroke="#b3cde3" stroke-width="2" cx="136.72" cy="-119" rx="41.94" ry="13.37"/>
<text text-anchor="middle" x="136.72" y="-116.5" font-family="Arial" font-size="10.00">Container</text>
</a>
</g>
</g>
<!-- collections.abc.Iterable -->
<g id="node4" class="node">
<title>collections.abc.Iterable</title>
<g id="a_node4"><a xlink:href="https://docs.python.org/3.6/library/collections.abc.html#collections.abc.Iterable" xlink:title="Iterable" target="_top">
<ellipse fill="none" stroke="#b3cde3" stroke-width="2" cx="136.72" cy="-74" rx="34.8" ry="13.37"/>
<text text-anchor="middle" x="136.72" y="-71.5" font-family="Arial" font-size="10.00">Iterable</text>
</a>
</g>
</g>
<!-- collections.abc.Mapping -->
<g id="node5" class="node">
<title>collections.abc.Mapping</title>
<g id="a_node5"><a xlink:href="https://docs.python.org/3.6/library/collections.abc.html#collections.abc.Mapping" xlink:title="Mapping" target="_top">
<ellipse fill="none" stroke="#b3cde3" stroke-width="2" cx="372.77" cy="-74" rx="37.45" ry="13.37"/>
<text text-anchor="middle" x="372.77" y="-71.5" font-family="Arial" font-size="10.00">Mapping</text>
</a>
</g>
</g>
<!-- collections.abc.MutableMapping -->
<g id="node6" class="node">
<title>collections.abc.MutableMapping</title>
<g id="a_node6"><a xlink:href="https://docs.python.org/3.6/library/collections.abc.html#collections.abc.MutableMapping" xlink:title="Mutable\nMapping" target="_top">
<ellipse fill="none" stroke="#b3cde3" stroke-width="2" cx="483.72" cy="-74" rx="37.45" ry="21.43"/>
<text text-anchor="middle" x="483.72" y="-77" font-family="Arial" font-size="10.00">Mutable</text>
<text text-anchor="middle" x="483.72" y="-66" font-family="Arial" font-size="10.00">Mapping</text>
</a>
</g>
</g>
<!-- collections.abc.Sized -->
<g id="node7" class="node">
<title>collections.abc.Sized</title>
<g id="a_node7"><a xlink:href="https://docs.python.org/3.6/library/collections.abc.html#collections.abc.Sized" xlink:title="Sized" target="_top">
<ellipse fill="none" stroke="#b3cde3" stroke-width="2" cx="136.72" cy="-29" rx="28.98" ry="13.37"/>
<text text-anchor="middle" x="136.72" y="-26.5" font-family="Arial" font-size="10.00">Sized</text>
</a>
</g>
</g>
<!-- uqbar.graphs.Attributes.Attributes -->
<g id="node8" class="node">
<title>uqbar.graphs.Attributes.Attributes</title>
<g id="a_node8"><a xlink:href="../api/uqbar/graphs/Attributes.html#uqbar.graphs.Attributes.Attributes" xlink:title="Attributes" target="_top">
<path fill="black" stroke="black" stroke-width="2" d="M609.86,-83.5C609.86,-83.5 563.53,-83.5 563.53,-83.5 560.36,-83.5 557.2,-80.33 557.2,-77.17 557.2,-77.17 557.2,-70.83 557.2,-70.83 557.2,-67.67 560.36,-64.5 563.53,-64.5 563.53,-64.5 609.86,-64.5 609.86,-64.5 613.03,-64.5 616.2,-67.67 616.2,-70.83 616.2,-70.83 616.2,-77.17 616.2,-77.17 616.2,-80.33 613.03,-83.5 609.86,-83.5"/>
<text text-anchor="middle" x="586.7" y="-71.5" font-family="Arial" font-size="10.00" fill="white">Attributes</text>
</a>
</g>
</g>
</g>
</svg>
