<?xml version="1.0" encoding="UTF-8" standalone="no"?>
<!DOCTYPE svg PUBLIC "-//W3C//DTD SVG 1.1//EN"
 "http://www.w3.org/Graphics/SVG/1.1/DTD/svg11.dtd">
<!-- Generated by graphviz version 2.40.1 (20161225.0304)
 -->
<!-- Title: InheritanceGraph Pages: 1 -->
<svg width="246pt" height="101pt"
 viewBox="0.00 0.00 246.00 101.00" xmlns="http://www.w3.org/2000/svg" xmlns:xlink="http://www.w3.org/1999/xlink">
<g id="graph0" class="graph" transform="scale(1 1) rotate(0) translate(4 97)">
<title>InheritanceGraph</title>
<g id="clust1" class="cluster">
<title>cluster_builtins</title>
<path fill="transparent" stroke="#bcd2ee" stroke-width="2" stroke-dasharray="5,2" d="M20,-19C20,-19 49,-19 49,-19 55,-19 61,-25 61,-31 61,-31 61,-62 61,-62 61,-68 55,-74 49,-74 49,-74 20,-74 20,-74 14,-74 8,-68 8,-62 8,-62 8,-31 8,-31 8,-25 14,-19 20,-19"/>
<text text-anchor="middle" x="34.5" y="-62" font-family="Arial" font-size="10.00" fill="#000000">builtins</text>
</g>
<g id="clust2" class="cluster">
<title>cluster_uqbar.containers</title>
<path fill="transparent" stroke="#bcd2ee" stroke-width="2" stroke-dasharray="5,2" d="M93,-8C93,-8 141,-8 141,-8 147,-8 153,-14 153,-20 153,-20 153,-73 153,-73 153,-79 147,-85 141,-85 141,-85 93,-85 93,-85 87,-85 81,-79 81,-73 81,-73 81,-20 81,-20 81,-14 87,-8 93,-8"/>
<text text-anchor="middle" x="117" y="-73" font-family="Arial" font-size="10.00" fill="#000000">uqbar.containers</text>
</g>
<g id="clust3" class="cluster">
<title>cluster_uqbar.graphs</title>
<path fill="transparent" stroke="#bcd2ee" stroke-width="2" stroke-dasharray="5,2" d="M185,-19C185,-19 222,-19 222,-19 228,-19 234,-25 234,-31 234,-31 234,-62 234,-62 234,-68 228,-74 222,-74 222,-74 185,-74 185,-74 179,-74 173,-68 173,-62 173,-62 173,-31 173,-31 173,-25 179,-19 185,-19"/>
<text text-anchor="middle" x="203.5" y="-62" font-family="Arial" font-size="10.00" fill="#000000">uqbar.graphs</text>
</g>
<!-- builtins.object&#45;&gt;uqbar.containers.UniqueTreeNode.UniqueTreeNode -->
<g id="edge1" class="edge">
<title>builtins.object&#45;&gt;uqbar.containers.UniqueTreeNode.UniqueTreeNode</title>
<path fill="none" stroke="#778899" d="M53.2205,-37C63.092,-37 75.4465,-37 86.6465,-37"/>
<polygon fill="#778899" stroke="#778899" points="86.9122,-40.5001 96.9122,-37 86.9122,-33.5001 86.9122,-40.5001"/>
</g>
<!-- uqbar.containers.UniqueTreeNode.UniqueTreeNode&#45;&gt;uqbar.graphs.VRule.VRule -->
<g id="edge2" class="edge">
<title>uqbar.containers.UniqueTreeNode.UniqueTreeNode&#45;&gt;uqbar.graphs.VRule.VRule</title>
<path fill="none" stroke="#778899" d="M137.0623,-37C148.1793,-37 162.1983,-37 174.49,-37"/>
<polygon fill="#778899" stroke="#778899" points="174.7308,-40.5001 184.7308,-37 174.7308,-33.5001 174.7308,-40.5001"/>
</g>
<!-- builtins.object -->
<g id="node1" class="node">
<title>builtins.object</title>
<g id="a_node1"><a xlink:href="https://docs.python.org/3.6/library/functions.html#object" xlink:title="object" target="_top">
<path fill="#fbb4ae" stroke="#fbb4ae" stroke-width="2" d="M46.6667,-46.5C46.6667,-46.5 22.3333,-46.5 22.3333,-46.5 19.1667,-46.5 16,-43.3333 16,-40.1667 16,-40.1667 16,-33.8333 16,-33.8333 16,-30.6667 19.1667,-27.5 22.3333,-27.5 22.3333,-27.5 46.6667,-27.5 46.6667,-27.5 49.8333,-27.5 53,-30.6667 53,-33.8333 53,-33.8333 53,-40.1667 53,-40.1667 53,-43.3333 49.8333,-46.5 46.6667,-46.5"/>
<text text-anchor="middle" x="34.5" y="-34.5" font-family="Arial" font-size="10.00" fill="#000000">object</text>
</a>
</g>
</g>
<!-- uqbar.containers.UniqueTreeNode.UniqueTreeNode -->
<g id="node2" class="node">
<title>uqbar.containers.UniqueTreeNode.UniqueTreeNode</title>
<g id="a_node2"><a xlink:href="../api/uqbar/graphs/../containers/UniqueTreeNode.html#uqbar.containers.UniqueTreeNode.UniqueTreeNode" xlink:title="Unique\nTree\nNode" target="_top">
<path fill="#b3cde3" stroke="#b3cde3" stroke-width="2" d="M125,-57.5C125,-57.5 109,-57.5 109,-57.5 103,-57.5 97,-51.5 97,-45.5 97,-45.5 97,-28.5 97,-28.5 97,-22.5 103,-16.5 109,-16.5 109,-16.5 125,-16.5 125,-16.5 131,-16.5 137,-22.5 137,-28.5 137,-28.5 137,-45.5 137,-45.5 137,-51.5 131,-57.5 125,-57.5"/>
<text text-anchor="middle" x="117" y="-45.5" font-family="Arial" font-size="10.00" fill="#000000">Unique</text>
<text text-anchor="middle" x="117" y="-34.5" font-family="Arial" font-size="10.00" fill="#000000">Tree</text>
<text text-anchor="middle" x="117" y="-23.5" font-family="Arial" font-size="10.00" fill="#000000">Node</text>
</a>
</g>
</g>
<!-- uqbar.graphs.VRule.VRule -->
<g id="node3" class="node">
<title>uqbar.graphs.VRule.VRule</title>
<g id="a_node3"><a xlink:href="../api/uqbar/graphs/VRule.html#uqbar.graphs.VRule.VRule" xlink:title="VRule" target="_top">
<path fill="#000000" stroke="#000000" stroke-width="2" d="M215.6667,-46.5C215.6667,-46.5 191.3333,-46.5 191.3333,-46.5 188.1667,-46.5 185,-43.3333 185,-40.1667 185,-40.1667 185,-33.8333 185,-33.8333 185,-30.6667 188.1667,-27.5 191.3333,-27.5 191.3333,-27.5 215.6667,-27.5 215.6667,-27.5 218.8333,-27.5 222,-30.6667 222,-33.8333 222,-33.8333 222,-40.1667 222,-40.1667 222,-43.3333 218.8333,-46.5 215.6667,-46.5"/>
<text text-anchor="middle" x="203.5" y="-34.5" font-family="Arial" font-size="10.00" fill="#ffffff">VRule</text>
</a>
</g>
</g>
</g>
</svg>
