<?xml version="1.0" encoding="UTF-8" standalone="no"?>
<!DOCTYPE svg PUBLIC "-//W3C//DTD SVG 1.1//EN"
 "http://www.w3.org/Graphics/SVG/1.1/DTD/svg11.dtd">
<!-- Generated by graphviz version 2.44.1 (20200629.0846)
 -->
<!-- Title: InheritanceGraph Pages: 1 -->
<svg width="183pt" height="89pt"
 viewBox="0.00 0.00 183.00 89.00" xmlns="http://www.w3.org/2000/svg" xmlns:xlink="http://www.w3.org/1999/xlink">
<g id="graph0" class="graph" transform="scale(1 1) rotate(0) translate(4 85)">
<title>InheritanceGraph</title>
<g id="clust1" class="cluster">
<title>cluster_builtins</title>
<path fill="transparent" stroke="#bcd2ee" stroke-width="2" stroke-dasharray="5,2" d="M20,-13C20,-13 55,-13 55,-13 61,-13 67,-19 67,-25 67,-25 67,-56 67,-56 67,-62 61,-68 55,-68 55,-68 20,-68 20,-68 14,-68 8,-62 8,-56 8,-56 8,-25 8,-25 8,-19 14,-13 20,-13"/>
<text text-anchor="middle" x="37.5" y="-56" font-family="Arial" font-size="10.00">builtins</text>
</g>
<g id="clust2" class="cluster">
<title>cluster_uqbar.io</title>
<path fill="transparent" stroke="#bcd2ee" stroke-width="2" stroke-dasharray="5,2" d="M99,-8C99,-8 155,-8 155,-8 161,-8 167,-14 167,-20 167,-20 167,-61 167,-61 167,-67 161,-73 155,-73 155,-73 99,-73 99,-73 93,-73 87,-67 87,-61 87,-61 87,-20 87,-20 87,-14 93,-8 99,-8"/>
<text text-anchor="middle" x="127" y="-61" font-family="Arial" font-size="10.00">uqbar.io</text>
</g>
<!-- builtins.object&#45;&gt;uqbar.io.RedirectedStreams.RedirectedStreams -->
<g id="edge1" class="edge">
<title>builtins.object&#45;&gt;uqbar.io.RedirectedStreams.RedirectedStreams</title>
<path fill="none" stroke="lightslategrey" d="M59.24,-31C66.86,-31 75.8,-31 84.6,-31"/>
<polygon fill="lightslategrey" stroke="lightslategrey" points="84.79,-34.5 94.79,-31 84.79,-27.5 84.79,-34.5"/>
</g>
<!-- builtins.object -->
<g id="node1" class="node">
<title>builtins.object</title>
<g id="a_node1"><a xlink:href="https://docs.python.org/3.6/library/functions.html#object" xlink:title="object" target="_top">
<path fill="#fbb4ae" stroke="#fbb4ae" stroke-width="2" d="M52.67,-40.5C52.67,-40.5 22.33,-40.5 22.33,-40.5 19.17,-40.5 16,-37.33 16,-34.17 16,-34.17 16,-27.83 16,-27.83 16,-24.67 19.17,-21.5 22.33,-21.5 22.33,-21.5 52.67,-21.5 52.67,-21.5 55.83,-21.5 59,-24.67 59,-27.83 59,-27.83 59,-34.17 59,-34.17 59,-37.33 55.83,-40.5 52.67,-40.5"/>
<text text-anchor="middle" x="37.5" y="-28.5" font-family="Arial" font-size="10.00">object</text>
</a>
</g>
</g>
<!-- uqbar.io.RedirectedStreams.RedirectedStreams -->
<g id="node2" class="node">
<title>uqbar.io.RedirectedStreams.RedirectedStreams</title>
<g id="a_node2"><a xlink:href="../api/uqbar/io/RedirectedStreams.html#uqbar.io.RedirectedStreams.RedirectedStreams" xlink:title="Redirected\nStreams" target="_top">
<path fill="black" stroke="black" stroke-width="2" d="M149,-46C149,-46 105,-46 105,-46 100,-46 95,-41 95,-36 95,-36 95,-26 95,-26 95,-21 100,-16 105,-16 105,-16 149,-16 149,-16 154,-16 159,-21 159,-26 159,-26 159,-36 159,-36 159,-41 154,-46 149,-46"/>
<text text-anchor="middle" x="127" y="-34" font-family="Arial" font-size="10.00" fill="white">Redirected</text>
<text text-anchor="middle" x="127" y="-23" font-family="Arial" font-size="10.00" fill="white">Streams</text>
</a>
</g>
</g>
</g>
</svg>
