<?xml version="1.0" encoding="UTF-8" standalone="no"?>
<!DOCTYPE svg PUBLIC "-//W3C//DTD SVG 1.1//EN"
 "http://www.w3.org/Graphics/SVG/1.1/DTD/svg11.dtd">
<!-- Generated by graphviz version 2.40.1 (20161225.0304)
 -->
<!-- Title: InheritanceGraph Pages: 1 -->
<svg width="442pt" height="641pt"
 viewBox="0.00 0.00 442.00 641.00" xmlns="http://www.w3.org/2000/svg" xmlns:xlink="http://www.w3.org/1999/xlink">
<g id="graph0" class="graph" transform="scale(1 1) rotate(0) translate(4 637)">
<title>InheritanceGraph</title>
<g id="clust1" class="cluster">
<title>cluster_builtins</title>
<path fill="transparent" stroke="#bcd2ee" stroke-width="2" stroke-dasharray="5,2" d="M20,-487C20,-487 225,-487 225,-487 231,-487 237,-493 237,-499 237,-499 237,-540 237,-540 237,-546 231,-552 225,-552 225,-552 20,-552 20,-552 14,-552 8,-546 8,-540 8,-540 8,-499 8,-499 8,-493 14,-487 20,-487"/>
<text text-anchor="middle" x="122.5" y="-540" font-family="Arial" font-size="10.00" fill="#000000">builtins</text>
</g>
<g id="clust2" class="cluster">
<title>cluster_code</title>
<path fill="transparent" stroke="#bcd2ee" stroke-width="2" stroke-dasharray="5,2" d="M183,-560C183,-560 320,-560 320,-560 326,-560 332,-566 332,-572 332,-572 332,-613 332,-613 332,-619 326,-625 320,-625 320,-625 183,-625 183,-625 177,-625 171,-619 171,-613 171,-613 171,-572 171,-572 171,-566 177,-560 183,-560"/>
<text text-anchor="middle" x="251.5" y="-613" font-family="Arial" font-size="10.00" fill="#000000">code</text>
</g>
<g id="clust3" class="cluster">
<title>cluster_docutils.nodes</title>
<path fill="transparent" stroke="#bcd2ee" stroke-width="2" stroke-dasharray="5,2" d="M191.5,-267C191.5,-267 316.5,-267 316.5,-267 322.5,-267 328.5,-273 328.5,-279 328.5,-279 328.5,-347 328.5,-347 328.5,-353 322.5,-359 316.5,-359 316.5,-359 191.5,-359 191.5,-359 185.5,-359 179.5,-353 179.5,-347 179.5,-347 179.5,-279 179.5,-279 179.5,-273 185.5,-267 191.5,-267"/>
<text text-anchor="middle" x="254" y="-347" font-family="Arial" font-size="10.00" fill="#000000">docutils.nodes</text>
</g>
<g id="clust4" class="cluster">
<title>cluster_docutils.parsers.rst</title>
<path fill="transparent" stroke="#bcd2ee" stroke-width="2" stroke-dasharray="5,2" d="M177.5,-135C177.5,-135 232.5,-135 232.5,-135 238.5,-135 244.5,-141 244.5,-147 244.5,-147 244.5,-178 244.5,-178 244.5,-184 238.5,-190 232.5,-190 232.5,-190 177.5,-190 177.5,-190 171.5,-190 165.5,-184 165.5,-178 165.5,-178 165.5,-147 165.5,-147 165.5,-141 171.5,-135 177.5,-135"/>
<text text-anchor="middle" x="205" y="-178" font-family="Arial" font-size="10.00" fill="#000000">docutils.parsers.rst</text>
</g>
<g id="clust5" class="cluster">
<title>cluster_uqbar.book.console</title>
<path fill="transparent" stroke="#bcd2ee" stroke-width="2" stroke-dasharray="5,2" d="M364,-373C364,-373 422,-373 422,-373 428,-373 434,-379 434,-385 434,-385 434,-608 434,-608 434,-614 428,-620 422,-620 422,-620 364,-620 364,-620 358,-620 352,-614 352,-608 352,-608 352,-385 352,-385 352,-379 358,-373 364,-373"/>
<text text-anchor="middle" x="393" y="-608" font-family="Arial" font-size="10.00" fill="#000000">uqbar.book.console</text>
</g>
<g id="clust6" class="cluster">
<title>cluster_uqbar.book.extensions</title>
<path fill="transparent" stroke="#bcd2ee" stroke-width="2" stroke-dasharray="5,2" d="M184,-13C184,-13 319,-13 319,-13 325,-13 331,-19 331,-25 331,-25 331,-66 331,-66 331,-72 325,-78 319,-78 319,-78 184,-78 184,-78 178,-78 172,-72 172,-66 172,-66 172,-25 172,-25 172,-19 178,-13 184,-13"/>
<text text-anchor="middle" x="251.5" y="-66" font-family="Arial" font-size="10.00" fill="#000000">uqbar.book.extensions</text>
</g>
<g id="clust7" class="cluster">
<title>cluster_uqbar.book.sphinx</title>
<path fill="transparent" stroke="#bcd2ee" stroke-width="2" stroke-dasharray="5,2" d="M366,-8C366,-8 420,-8 420,-8 426,-8 432,-14 432,-20 432,-20 432,-353 432,-353 432,-359 426,-365 420,-365 420,-365 366,-365 366,-365 360,-365 354,-359 354,-353 354,-353 354,-20 354,-20 354,-14 360,-8 366,-8"/>
<text text-anchor="middle" x="393" y="-353" font-family="Arial" font-size="10.00" fill="#000000">uqbar.book.sphinx</text>
</g>
<!-- builtins.BaseException&#45;&gt;builtins.Exception -->
<g id="edge1" class="edge">
<title>builtins.BaseException&#45;&gt;builtins.Exception</title>
<path fill="none" stroke="#778899" d="M138.3661,-510.5465C148.0753,-510.7599 159.3747,-511.0082 169.8575,-511.2386"/>
<polygon fill="#778899" stroke="#778899" points="169.9045,-514.7404 179.979,-511.4611 170.0583,-507.7421 169.9045,-514.7404"/>
</g>
<!-- builtins.Exception&#45;&gt;uqbar.book.console.ConsoleError -->
<g id="edge7" class="edge">
<title>builtins.Exception&#45;&gt;uqbar.book.console.ConsoleError</title>
<path fill="none" stroke="#778899" d="M229.1431,-515.6605C262.8407,-520.666 323.3603,-529.6556 360.6665,-535.1971"/>
<polygon fill="#778899" stroke="#778899" points="360.5817,-538.7229 370.9875,-536.7302 361.6103,-531.7989 360.5817,-538.7229"/>
</g>
<!-- builtins.object&#45;&gt;builtins.BaseException -->
<g id="edge2" class="edge">
<title>builtins.object&#45;&gt;builtins.BaseException</title>
<path fill="none" stroke="#778899" d="M53.2219,-506.1849C60.8959,-506.6706 70.0326,-507.2489 78.843,-507.8065"/>
<polygon fill="#778899" stroke="#778899" points="78.7274,-511.3061 88.9285,-508.4448 79.1696,-504.3201 78.7274,-511.3061"/>
</g>
<!-- builtins.object&#45;&gt;code.InteractiveInterpreter -->
<g id="edge8" class="edge">
<title>builtins.object&#45;&gt;code.InteractiveInterpreter</title>
<path fill="none" stroke="#778899" d="M51.4854,-514.533C62.14,-520.3887 76.2309,-527.9085 89,-534 115.6633,-546.7196 146.4926,-559.7148 169.5901,-569.1236"/>
<polygon fill="#778899" stroke="#778899" points="168.3983,-572.417 178.9809,-572.9251 171.0249,-565.9285 168.3983,-572.417"/>
</g>
<!-- builtins.object&#45;&gt;docutils.nodes.Body -->
<g id="edge9" class="edge">
<title>builtins.object&#45;&gt;docutils.nodes.Body</title>
<path fill="none" stroke="#778899" d="M36.177,-495.3631C40.6789,-472.1391 55.0642,-412.3879 89,-377 113.3192,-351.6402 151.6903,-336.6196 177.4582,-328.8443"/>
<polygon fill="#778899" stroke="#778899" points="178.6627,-332.1405 187.3215,-326.035 176.7452,-325.4082 178.6627,-332.1405"/>
</g>
<!-- builtins.object&#45;&gt;docutils.nodes.Node -->
<g id="edge10" class="edge">
<title>builtins.object&#45;&gt;docutils.nodes.Node</title>
<path fill="none" stroke="#778899" d="M35.1195,-495.1393C37.362,-467.3399 47.2972,-387.2898 89,-340 112.3685,-313.5007 151.295,-298.6969 177.4196,-291.286"/>
<polygon fill="#778899" stroke="#778899" points="178.6474,-294.5813 187.4146,-288.6326 176.8513,-287.8157 178.6474,-294.5813"/>
</g>
<!-- builtins.object&#45;&gt;docutils.parsers.rst.Directive -->
<g id="edge11" class="edge">
<title>builtins.object&#45;&gt;docutils.parsers.rst.Directive</title>
<path fill="none" stroke="#778899" d="M35.7276,-495.2117C39.7983,-465.0341 54.5967,-371.2903 89,-302 115.5134,-248.6004 162.7734,-195.7548 187.8318,-169.711"/>
<polygon fill="#778899" stroke="#778899" points="190.371,-172.1204 194.8483,-162.518 185.3601,-167.2325 190.371,-172.1204"/>
</g>
<!-- builtins.object&#45;&gt;uqbar.book.console.ConsoleInput -->
<g id="edge12" class="edge">
<title>builtins.object&#45;&gt;uqbar.book.console.ConsoleInput</title>
<path fill="none" stroke="#778899" d="M53.2556,-496.7093C63.5796,-492.5968 76.7492,-488.0742 89,-486 186.792,-469.4424 304.7941,-480.4217 360.6614,-487.4358"/>
<polygon fill="#778899" stroke="#778899" points="360.2996,-490.9182 370.6669,-488.7342 361.2005,-483.9764 360.2996,-490.9182"/>
</g>
<!-- builtins.object&#45;&gt;uqbar.book.console.ConsoleOutput -->
<g id="edge13" class="edge">
<title>builtins.object&#45;&gt;uqbar.book.console.ConsoleOutput</title>
<path fill="none" stroke="#778899" d="M49.091,-495.2375C59.6973,-488.6519 74.6516,-480.3904 89,-476 184.5869,-446.7516 304.0898,-443.2201 360.5662,-443.3958"/>
<polygon fill="#778899" stroke="#778899" points="360.6517,-446.8964 370.6772,-443.4701 360.7032,-439.8966 360.6517,-446.8964"/>
</g>
<!-- builtins.object&#45;&gt;uqbar.book.console.MonkeyPatch -->
<g id="edge14" class="edge">
<title>builtins.object&#45;&gt;uqbar.book.console.MonkeyPatch</title>
<path fill="none" stroke="#778899" d="M43.5325,-495.1252C53.6022,-484.7443 70.87,-468.7322 89,-460 181.2132,-415.5863 303.7635,-401.8508 361.0021,-397.7164"/>
<polygon fill="#778899" stroke="#778899" points="361.486,-401.1919 371.2296,-397.031 361.0179,-394.2076 361.486,-401.1919"/>
</g>
<!-- builtins.object&#45;&gt;uqbar.book.extensions.Extension -->
<g id="edge15" class="edge">
<title>builtins.object&#45;&gt;uqbar.book.extensions.Extension</title>
<path fill="none" stroke="#778899" d="M35.097,-495.4367C37.6331,-458.9314 49.2772,-325.321 89,-224 115.2512,-157.041 165.7925,-87.4541 190.3777,-55.702"/>
<polygon fill="#778899" stroke="#778899" points="193.1696,-57.8135 196.5819,-47.7832 187.6594,-53.4963 193.1696,-57.8135"/>
</g>
<!-- code.InteractiveConsole&#45;&gt;uqbar.book.console.Console -->
<g id="edge16" class="edge">
<title>code.InteractiveConsole&#45;&gt;uqbar.book.console.Console</title>
<path fill="none" stroke="#778899" d="M324.3225,-583C335.4519,-583 348.5935,-583 360.3857,-583"/>
<polygon fill="#778899" stroke="#778899" points="360.7395,-586.5001 370.7394,-583 360.7394,-579.5001 360.7395,-586.5001"/>
</g>
<!-- code.InteractiveInterpreter&#45;&gt;code.InteractiveConsole -->
<g id="edge3" class="edge">
<title>code.InteractiveInterpreter&#45;&gt;code.InteractiveConsole</title>
<path fill="none" stroke="#778899" d="M230.1859,-583C240.2372,-583 251.9384,-583 262.787,-583"/>
<polygon fill="#778899" stroke="#778899" points="262.8452,-586.5001 272.8451,-583 262.8451,-579.5001 262.8452,-586.5001"/>
</g>
<!-- docutils.nodes.Body&#45;&gt;docutils.nodes.General -->
<g id="edge4" class="edge">
<title>docutils.nodes.Body&#45;&gt;docutils.nodes.General</title>
<path fill="none" stroke="#778899" d="M221.741,-322C234.1949,-322 251.3842,-322 266.3397,-322"/>
<polygon fill="#778899" stroke="#778899" points="266.7352,-325.5001 276.7352,-322 266.7352,-318.5001 266.7352,-325.5001"/>
</g>
<!-- docutils.nodes.General&#45;&gt;uqbar.book.sphinx.uqbar_book_defaults_block -->
<g id="edge19" class="edge">
<title>docutils.nodes.General&#45;&gt;uqbar.book.sphinx.uqbar_book_defaults_block</title>
<path fill="none" stroke="#778899" d="M319.6179,-312.4892C323.9468,-310.0488 328.3049,-307.1963 332,-304 343.2944,-294.2302 341.8112,-287.9179 352,-277 355.5798,-273.164 359.5579,-269.3296 363.5883,-265.6801"/>
<polygon fill="#778899" stroke="#778899" points="366.0803,-268.1507 371.3123,-258.9379 361.477,-262.8772 366.0803,-268.1507"/>
</g>
<!-- docutils.nodes.General&#45;&gt;uqbar.book.sphinx.uqbar_book_import_block -->
<g id="edge20" class="edge">
<title>docutils.nodes.General&#45;&gt;uqbar.book.sphinx.uqbar_book_import_block</title>
<path fill="none" stroke="#778899" d="M320.4177,-319.6807C333.4524,-318.3013 350.1387,-316.5356 364.2248,-315.045"/>
<polygon fill="#778899" stroke="#778899" points="364.8101,-318.5027 374.3862,-313.9697 364.0734,-311.5416 364.8101,-318.5027"/>
</g>
<!-- docutils.nodes.Element&#45;&gt;uqbar.book.sphinx.uqbar_book_defaults_block -->
<g id="edge17" class="edge">
<title>docutils.nodes.Element&#45;&gt;uqbar.book.sphinx.uqbar_book_defaults_block</title>
<path fill="none" stroke="#778899" d="M319.4726,-275.4569C332.0199,-269.7476 348.192,-262.3888 362.1731,-256.027"/>
<polygon fill="#778899" stroke="#778899" points="363.7784,-259.142 371.4308,-251.8145 360.8792,-252.7705 363.7784,-259.142"/>
</g>
<!-- docutils.nodes.Element&#45;&gt;uqbar.book.sphinx.uqbar_book_import_block -->
<g id="edge18" class="edge">
<title>docutils.nodes.Element&#45;&gt;uqbar.book.sphinx.uqbar_book_import_block</title>
<path fill="none" stroke="#778899" d="M320.8952,-291.3986C333.9833,-295.1381 350.6282,-299.8938 364.6273,-303.8935"/>
<polygon fill="#778899" stroke="#778899" points="363.6878,-307.2651 374.2645,-306.647 365.6109,-300.5344 363.6878,-307.2651"/>
</g>
<!-- docutils.nodes.Node&#45;&gt;docutils.nodes.Element -->
<g id="edge5" class="edge">
<title>docutils.nodes.Node&#45;&gt;docutils.nodes.Element</title>
<path fill="none" stroke="#778899" d="M221.741,-285C234.1096,-285 251.149,-285 266.0321,-285"/>
<polygon fill="#778899" stroke="#778899" points="266.3907,-288.5001 276.3906,-285 266.3906,-281.5001 266.3907,-288.5001"/>
</g>
<!-- docutils.parsers.rst.Directive&#45;&gt;uqbar.book.sphinx.UqbarBookDefaultsDirective -->
<g id="edge21" class="edge">
<title>docutils.parsers.rst.Directive&#45;&gt;uqbar.book.sphinx.UqbarBookDefaultsDirective</title>
<path fill="none" stroke="#778899" d="M227.6138,-146.7464C260.7728,-137.775 322.0171,-121.2049 359.9532,-110.9411"/>
<polygon fill="#778899" stroke="#778899" points="361.2534,-114.2152 369.9923,-108.2249 359.4252,-107.4581 361.2534,-114.2152"/>
</g>
<!-- docutils.parsers.rst.Directive&#45;&gt;uqbar.book.sphinx.UqbarBookDirective -->
<g id="edge22" class="edge">
<title>docutils.parsers.rst.Directive&#45;&gt;uqbar.book.sphinx.UqbarBookDirective</title>
<path fill="none" stroke="#778899" d="M221.7993,-143.4063C256.0416,-124.4111 329.3968,-83.69 332,-82 341.3195,-75.9499 343.0719,-73.6141 352,-67 355.1782,-64.6456 358.5009,-62.1955 361.8202,-59.7554"/>
<polygon fill="#778899" stroke="#778899" points="363.9857,-62.5077 369.9792,-53.7711 359.8456,-56.8632 363.9857,-62.5077"/>
</g>
<!-- docutils.parsers.rst.Directive&#45;&gt;uqbar.book.sphinx.UqbarBookImportDirective -->
<g id="edge23" class="edge">
<title>docutils.parsers.rst.Directive&#45;&gt;uqbar.book.sphinx.UqbarBookImportDirective</title>
<path fill="none" stroke="#778899" d="M227.6138,-155.3298C260.7728,-158.6721 322.0171,-164.8452 359.9532,-168.669"/>
<polygon fill="#778899" stroke="#778899" points="359.6917,-172.1603 369.9923,-169.6809 360.3937,-165.1956 359.6917,-172.1603"/>
</g>
<!-- uqbar.book.extensions.Extension&#45;&gt;uqbar.book.extensions.GraphExtension -->
<g id="edge6" class="edge">
<title>uqbar.book.extensions.Extension&#45;&gt;uqbar.book.extensions.GraphExtension</title>
<path fill="none" stroke="#778899" d="M229.1974,-37.4745C239.7757,-37.2495 252.3161,-36.9826 263.8021,-36.7383"/>
<polygon fill="#778899" stroke="#778899" points="264.0443,-40.234 273.9676,-36.522 263.8953,-33.2356 264.0443,-40.234"/>
</g>
<!-- builtins.BaseException -->
<g id="node1" class="node">
<title>builtins.BaseException</title>
<g id="a_node1"><a xlink:href="https://docs.python.org/3.6/library/exceptions.html#BaseException" xlink:title="Base\nException" target="_top">
<path fill="#fbb4ae" stroke="#fbb4ae" stroke-width="2" d="M128,-525C128,-525 99,-525 99,-525 94,-525 89,-520 89,-515 89,-515 89,-505 89,-505 89,-500 94,-495 99,-495 99,-495 128,-495 128,-495 133,-495 138,-500 138,-505 138,-505 138,-515 138,-515 138,-520 133,-525 128,-525"/>
<text text-anchor="middle" x="113.5" y="-513" font-family="Arial" font-size="10.00" fill="#000000">Base</text>
<text text-anchor="middle" x="113.5" y="-502" font-family="Arial" font-size="10.00" fill="#000000">Exception</text>
</a>
</g>
</g>
<!-- builtins.Exception -->
<g id="node2" class="node">
<title>builtins.Exception</title>
<g id="a_node2"><a xlink:href="https://docs.python.org/3.6/library/exceptions.html#Exception" xlink:title="Exception" target="_top">
<path fill="#fbb4ae" stroke="#fbb4ae" stroke-width="2" d="M222.6667,-521.5C222.6667,-521.5 186.3333,-521.5 186.3333,-521.5 183.1667,-521.5 180,-518.3333 180,-515.1667 180,-515.1667 180,-508.8333 180,-508.8333 180,-505.6667 183.1667,-502.5 186.3333,-502.5 186.3333,-502.5 222.6667,-502.5 222.6667,-502.5 225.8333,-502.5 229,-505.6667 229,-508.8333 229,-508.8333 229,-515.1667 229,-515.1667 229,-518.3333 225.8333,-521.5 222.6667,-521.5"/>
<text text-anchor="middle" x="204.5" y="-509.5" font-family="Arial" font-size="10.00" fill="#000000">Exception</text>
</a>
</g>
</g>
<!-- builtins.object -->
<g id="node3" class="node">
<title>builtins.object</title>
<g id="a_node3"><a xlink:href="https://docs.python.org/3.6/library/functions.html#object" xlink:title="object" target="_top">
<path fill="#fbb4ae" stroke="#fbb4ae" stroke-width="2" d="M46.6667,-514.5C46.6667,-514.5 22.3333,-514.5 22.3333,-514.5 19.1667,-514.5 16,-511.3333 16,-508.1667 16,-508.1667 16,-501.8333 16,-501.8333 16,-498.6667 19.1667,-495.5 22.3333,-495.5 22.3333,-495.5 46.6667,-495.5 46.6667,-495.5 49.8333,-495.5 53,-498.6667 53,-501.8333 53,-501.8333 53,-508.1667 53,-508.1667 53,-511.3333 49.8333,-514.5 46.6667,-514.5"/>
<text text-anchor="middle" x="34.5" y="-502.5" font-family="Arial" font-size="10.00" fill="#000000">object</text>
</a>
</g>
</g>
<!-- code.InteractiveConsole -->
<g id="node4" class="node">
<title>code.InteractiveConsole</title>
<g id="a_node4"><a xlink:href="https://docs.python.org/3.6/library/code.html#code.InteractiveConsole" xlink:title="Interactive\nConsole" target="_top">
<path fill="#b3cde3" stroke="#b3cde3" stroke-width="2" d="M314,-598C314,-598 283,-598 283,-598 278,-598 273,-593 273,-588 273,-588 273,-578 273,-578 273,-573 278,-568 283,-568 283,-568 314,-568 314,-568 319,-568 324,-573 324,-578 324,-578 324,-588 324,-588 324,-593 319,-598 314,-598"/>
<text text-anchor="middle" x="298.5" y="-586" font-family="Arial" font-size="10.00" fill="#000000">Interactive</text>
<text text-anchor="middle" x="298.5" y="-575" font-family="Arial" font-size="10.00" fill="#000000">Console</text>
</a>
</g>
</g>
<!-- code.InteractiveInterpreter -->
<g id="node5" class="node">
<title>code.InteractiveInterpreter</title>
<g id="a_node5"><a xlink:href="https://docs.python.org/3.6/library/code.html#code.InteractiveInterpreter" xlink:title="Interactive\nInterpreter" target="_top">
<path fill="#b3cde3" stroke="#b3cde3" stroke-width="2" d="M220,-598C220,-598 189,-598 189,-598 184,-598 179,-593 179,-588 179,-588 179,-578 179,-578 179,-573 184,-568 189,-568 189,-568 220,-568 220,-568 225,-568 230,-573 230,-578 230,-578 230,-588 230,-588 230,-593 225,-598 220,-598"/>
<text text-anchor="middle" x="204.5" y="-586" font-family="Arial" font-size="10.00" fill="#000000">Interactive</text>
<text text-anchor="middle" x="204.5" y="-575" font-family="Arial" font-size="10.00" fill="#000000">Interpreter</text>
</a>
</g>
</g>
<!-- docutils.nodes.Body -->
<g id="node6" class="node">
<title>docutils.nodes.Body</title>
<path fill="#ccebc5" stroke="#ccebc5" stroke-width="2" d="M215.1667,-331.5C215.1667,-331.5 193.8333,-331.5 193.8333,-331.5 190.6667,-331.5 187.5,-328.3333 187.5,-325.1667 187.5,-325.1667 187.5,-318.8333 187.5,-318.8333 187.5,-315.6667 190.6667,-312.5 193.8333,-312.5 193.8333,-312.5 215.1667,-312.5 215.1667,-312.5 218.3333,-312.5 221.5,-315.6667 221.5,-318.8333 221.5,-318.8333 221.5,-325.1667 221.5,-325.1667 221.5,-328.3333 218.3333,-331.5 215.1667,-331.5"/>
<text text-anchor="middle" x="204.5" y="-319.5" font-family="Arial" font-size="10.00" fill="#000000">Body</text>
</g>
<!-- docutils.nodes.General -->
<g id="node7" class="node">
<title>docutils.nodes.General</title>
<path fill="#ccebc5" stroke="#ccebc5" stroke-width="2" d="M313.6667,-331.5C313.6667,-331.5 283.3333,-331.5 283.3333,-331.5 280.1667,-331.5 277,-328.3333 277,-325.1667 277,-325.1667 277,-318.8333 277,-318.8333 277,-315.6667 280.1667,-312.5 283.3333,-312.5 283.3333,-312.5 313.6667,-312.5 313.6667,-312.5 316.8333,-312.5 320,-315.6667 320,-318.8333 320,-318.8333 320,-325.1667 320,-325.1667 320,-328.3333 316.8333,-331.5 313.6667,-331.5"/>
<text text-anchor="middle" x="298.5" y="-319.5" font-family="Arial" font-size="10.00" fill="#000000">General</text>
</g>
<!-- docutils.nodes.Element -->
<g id="node8" class="node">
<title>docutils.nodes.Element</title>
<path fill="#ccebc5" stroke="#ccebc5" stroke-width="2" d="M314.1667,-294.5C314.1667,-294.5 282.8333,-294.5 282.8333,-294.5 279.6667,-294.5 276.5,-291.3333 276.5,-288.1667 276.5,-288.1667 276.5,-281.8333 276.5,-281.8333 276.5,-278.6667 279.6667,-275.5 282.8333,-275.5 282.8333,-275.5 314.1667,-275.5 314.1667,-275.5 317.3333,-275.5 320.5,-278.6667 320.5,-281.8333 320.5,-281.8333 320.5,-288.1667 320.5,-288.1667 320.5,-291.3333 317.3333,-294.5 314.1667,-294.5"/>
<text text-anchor="middle" x="298.5" y="-282.5" font-family="Arial" font-size="10.00" fill="#000000">Element</text>
</g>
<!-- docutils.nodes.Node -->
<g id="node9" class="node">
<title>docutils.nodes.Node</title>
<path fill="#ccebc5" stroke="#ccebc5" stroke-width="2" d="M215.1667,-294.5C215.1667,-294.5 193.8333,-294.5 193.8333,-294.5 190.6667,-294.5 187.5,-291.3333 187.5,-288.1667 187.5,-288.1667 187.5,-281.8333 187.5,-281.8333 187.5,-278.6667 190.6667,-275.5 193.8333,-275.5 193.8333,-275.5 215.1667,-275.5 215.1667,-275.5 218.3333,-275.5 221.5,-278.6667 221.5,-281.8333 221.5,-281.8333 221.5,-288.1667 221.5,-288.1667 221.5,-291.3333 218.3333,-294.5 215.1667,-294.5"/>
<text text-anchor="middle" x="204.5" y="-282.5" font-family="Arial" font-size="10.00" fill="#000000">Node</text>
</g>
<!-- docutils.parsers.rst.Directive -->
<g id="node10" class="node">
<title>docutils.parsers.rst.Directive</title>
<g id="a_node10"><a xlink:href="http://www.sphinx-doc.org/en/master/extdev/markupapi.html#docutils.parsers.rst.Directive" xlink:title="Directive" target="_top">
<path fill="#decbe4" stroke="#decbe4" stroke-width="2" d="M221.1667,-162.5C221.1667,-162.5 187.8333,-162.5 187.8333,-162.5 184.6667,-162.5 181.5,-159.3333 181.5,-156.1667 181.5,-156.1667 181.5,-149.8333 181.5,-149.8333 181.5,-146.6667 184.6667,-143.5 187.8333,-143.5 187.8333,-143.5 221.1667,-143.5 221.1667,-143.5 224.3333,-143.5 227.5,-146.6667 227.5,-149.8333 227.5,-149.8333 227.5,-156.1667 227.5,-156.1667 227.5,-159.3333 224.3333,-162.5 221.1667,-162.5"/>
<text text-anchor="middle" x="204.5" y="-150.5" font-family="Arial" font-size="10.00" fill="#000000">Directive</text>
</a>
</g>
</g>
<!-- uqbar.book.console.Console -->
<g id="node11" class="node">
<title>uqbar.book.console.Console</title>
<g id="a_node11"><a xlink:href="../api/uqbar/book/console.html#uqbar.book.console.Console" xlink:title="Console" target="_top">
<path fill="#fed9a6" stroke="#fed9a6" stroke-width="2" d="M408.6667,-592.5C408.6667,-592.5 377.3333,-592.5 377.3333,-592.5 374.1667,-592.5 371,-589.3333 371,-586.1667 371,-586.1667 371,-579.8333 371,-579.8333 371,-576.6667 374.1667,-573.5 377.3333,-573.5 377.3333,-573.5 408.6667,-573.5 408.6667,-573.5 411.8333,-573.5 415,-576.6667 415,-579.8333 415,-579.8333 415,-586.1667 415,-586.1667 415,-589.3333 411.8333,-592.5 408.6667,-592.5"/>
<text text-anchor="middle" x="393" y="-580.5" font-family="Arial" font-size="10.00" fill="#000000">Console</text>
</a>
</g>
</g>
<!-- uqbar.book.console.ConsoleError -->
<g id="node12" class="node">
<title>uqbar.book.console.ConsoleError</title>
<g id="a_node12"><a xlink:href="../api/uqbar/book/console.html#uqbar.book.console.ConsoleError" xlink:title="Console\nError" target="_top">
<path fill="#fed9a6" stroke="#fed9a6" stroke-width="2" d="M405,-555C405,-555 381,-555 381,-555 376,-555 371,-550 371,-545 371,-545 371,-535 371,-535 371,-530 376,-525 381,-525 381,-525 405,-525 405,-525 410,-525 415,-530 415,-535 415,-535 415,-545 415,-545 415,-550 410,-555 405,-555"/>
<text text-anchor="middle" x="393" y="-543" font-family="Arial" font-size="10.00" fill="#000000">Console</text>
<text text-anchor="middle" x="393" y="-532" font-family="Arial" font-size="10.00" fill="#000000">Error</text>
</a>
</g>
</g>
<!-- uqbar.book.console.ConsoleInput -->
<g id="node13" class="node">
<title>uqbar.book.console.ConsoleInput</title>
<g id="a_node13"><a xlink:href="../api/uqbar/book/console.html#uqbar.book.console.ConsoleInput" xlink:title="Console\nInput" target="_top">
<path fill="#fed9a6" stroke="#fed9a6" stroke-width="2" d="M405,-507C405,-507 381,-507 381,-507 376,-507 371,-502 371,-497 371,-497 371,-487 371,-487 371,-482 376,-477 381,-477 381,-477 405,-477 405,-477 410,-477 415,-482 415,-487 415,-487 415,-497 415,-497 415,-502 410,-507 405,-507"/>
<text text-anchor="middle" x="393" y="-495" font-family="Arial" font-size="10.00" fill="#000000">Console</text>
<text text-anchor="middle" x="393" y="-484" font-family="Arial" font-size="10.00" fill="#000000">Input</text>
</a>
</g>
</g>
<!-- uqbar.book.console.ConsoleOutput -->
<g id="node14" class="node">
<title>uqbar.book.console.ConsoleOutput</title>
<g id="a_node14"><a xlink:href="../api/uqbar/book/console.html#uqbar.book.console.ConsoleOutput" xlink:title="Console\nOutput" target="_top">
<path fill="#fed9a6" stroke="#fed9a6" stroke-width="2" d="M405,-459C405,-459 381,-459 381,-459 376,-459 371,-454 371,-449 371,-449 371,-439 371,-439 371,-434 376,-429 381,-429 381,-429 405,-429 405,-429 410,-429 415,-434 415,-439 415,-439 415,-449 415,-449 415,-454 410,-459 405,-459"/>
<text text-anchor="middle" x="393" y="-447" font-family="Arial" font-size="10.00" fill="#000000">Console</text>
<text text-anchor="middle" x="393" y="-436" font-family="Arial" font-size="10.00" fill="#000000">Output</text>
</a>
</g>
</g>
<!-- uqbar.book.console.MonkeyPatch -->
<g id="node15" class="node">
<title>uqbar.book.console.MonkeyPatch</title>
<g id="a_node15"><a xlink:href="../api/uqbar/book/console.html#uqbar.book.console.MonkeyPatch" xlink:title="Monkey\nPatch" target="_top">
<path fill="#fed9a6" stroke="#fed9a6" stroke-width="2" d="M404.5,-411C404.5,-411 381.5,-411 381.5,-411 376.5,-411 371.5,-406 371.5,-401 371.5,-401 371.5,-391 371.5,-391 371.5,-386 376.5,-381 381.5,-381 381.5,-381 404.5,-381 404.5,-381 409.5,-381 414.5,-386 414.5,-391 414.5,-391 414.5,-401 414.5,-401 414.5,-406 409.5,-411 404.5,-411"/>
<text text-anchor="middle" x="393" y="-399" font-family="Arial" font-size="10.00" fill="#000000">Monkey</text>
<text text-anchor="middle" x="393" y="-388" font-family="Arial" font-size="10.00" fill="#000000">Patch</text>
</a>
</g>
</g>
<!-- uqbar.book.extensions.Extension -->
<g id="node16" class="node">
<title>uqbar.book.extensions.Extension</title>
<g id="a_node16"><a xlink:href="../api/uqbar/book/extensions.html#uqbar.book.extensions.Extension" xlink:title="Extension" target="_top">
<path fill="#ffffcc" stroke="#ffffcc" stroke-width="2" d="M222.6667,-47.5C222.6667,-47.5 186.3333,-47.5 186.3333,-47.5 183.1667,-47.5 180,-44.3333 180,-41.1667 180,-41.1667 180,-34.8333 180,-34.8333 180,-31.6667 183.1667,-28.5 186.3333,-28.5 186.3333,-28.5 222.6667,-28.5 222.6667,-28.5 225.8333,-28.5 229,-31.6667 229,-34.8333 229,-34.8333 229,-41.1667 229,-41.1667 229,-44.3333 225.8333,-47.5 222.6667,-47.5"/>
<text text-anchor="middle" x="204.5" y="-35.5" font-family="Arial" font-size="10.00" fill="#000000">Extension</text>
</a>
</g>
</g>
<!-- uqbar.book.extensions.GraphExtension -->
<g id="node17" class="node">
<title>uqbar.book.extensions.GraphExtension</title>
<g id="a_node17"><a xlink:href="../api/uqbar/book/extensions.html#uqbar.book.extensions.GraphExtension" xlink:title="Graph\nExtension" target="_top">
<path fill="#ffffcc" stroke="#ffffcc" stroke-width="2" d="M313,-51C313,-51 284,-51 284,-51 279,-51 274,-46 274,-41 274,-41 274,-31 274,-31 274,-26 279,-21 284,-21 284,-21 313,-21 313,-21 318,-21 323,-26 323,-31 323,-31 323,-41 323,-41 323,-46 318,-51 313,-51"/>
<text text-anchor="middle" x="298.5" y="-39" font-family="Arial" font-size="10.00" fill="#000000">Graph</text>
<text text-anchor="middle" x="298.5" y="-28" font-family="Arial" font-size="10.00" fill="#000000">Extension</text>
</a>
</g>
</g>
<!-- uqbar.book.sphinx.UqbarBookDefaultsDirective -->
<g id="node18" class="node">
<title>uqbar.book.sphinx.UqbarBookDefaultsDirective</title>
<g id="a_node18"><a xlink:href="../api/uqbar/book/sphinx.html#uqbar.book.sphinx.UqbarBookDefaultsDirective" xlink:title="Uqbar\nBook\nDefaults\nDirective" target="_top">
<path fill="#e5d8bd" stroke="#e5d8bd" stroke-width="2" d="M404,-128C404,-128 382,-128 382,-128 376,-128 370,-122 370,-116 370,-116 370,-88 370,-88 370,-82 376,-76 382,-76 382,-76 404,-76 404,-76 410,-76 416,-82 416,-88 416,-88 416,-116 416,-116 416,-122 410,-128 404,-128"/>
<text text-anchor="middle" x="393" y="-116" font-family="Arial" font-size="10.00" fill="#000000">Uqbar</text>
<text text-anchor="middle" x="393" y="-105" font-family="Arial" font-size="10.00" fill="#000000">Book</text>
<text text-anchor="middle" x="393" y="-94" font-family="Arial" font-size="10.00" fill="#000000">Defaults</text>
<text text-anchor="middle" x="393" y="-83" font-family="Arial" font-size="10.00" fill="#000000">Directive</text>
</a>
</g>
</g>
<!-- uqbar.book.sphinx.UqbarBookDirective -->
<g id="node19" class="node">
<title>uqbar.book.sphinx.UqbarBookDirective</title>
<g id="a_node19"><a xlink:href="../api/uqbar/book/sphinx.html#uqbar.book.sphinx.UqbarBookDirective" xlink:title="Uqbar\nBook\nDirective" target="_top">
<path fill="#e5d8bd" stroke="#e5d8bd" stroke-width="2" d="M404,-57.5C404,-57.5 382,-57.5 382,-57.5 376,-57.5 370,-51.5 370,-45.5 370,-45.5 370,-28.5 370,-28.5 370,-22.5 376,-16.5 382,-16.5 382,-16.5 404,-16.5 404,-16.5 410,-16.5 416,-22.5 416,-28.5 416,-28.5 416,-45.5 416,-45.5 416,-51.5 410,-57.5 404,-57.5"/>
<text text-anchor="middle" x="393" y="-45.5" font-family="Arial" font-size="10.00" fill="#000000">Uqbar</text>
<text text-anchor="middle" x="393" y="-34.5" font-family="Arial" font-size="10.00" fill="#000000">Book</text>
<text text-anchor="middle" x="393" y="-23.5" font-family="Arial" font-size="10.00" fill="#000000">Directive</text>
</a>
</g>
</g>
<!-- uqbar.book.sphinx.UqbarBookImportDirective -->
<g id="node20" class="node">
<title>uqbar.book.sphinx.UqbarBookImportDirective</title>
<g id="a_node20"><a xlink:href="../api/uqbar/book/sphinx.html#uqbar.book.sphinx.UqbarBookImportDirective" xlink:title="Uqbar\nBook\nImport\nDirective" target="_top">
<path fill="#e5d8bd" stroke="#e5d8bd" stroke-width="2" d="M404,-198C404,-198 382,-198 382,-198 376,-198 370,-192 370,-186 370,-186 370,-158 370,-158 370,-152 376,-146 382,-146 382,-146 404,-146 404,-146 410,-146 416,-152 416,-158 416,-158 416,-186 416,-186 416,-192 410,-198 404,-198"/>
<text text-anchor="middle" x="393" y="-186" font-family="Arial" font-size="10.00" fill="#000000">Uqbar</text>
<text text-anchor="middle" x="393" y="-175" font-family="Arial" font-size="10.00" fill="#000000">Book</text>
<text text-anchor="middle" x="393" y="-164" font-family="Arial" font-size="10.00" fill="#000000">Import</text>
<text text-anchor="middle" x="393" y="-153" font-family="Arial" font-size="10.00" fill="#000000">Directive</text>
</a>
</g>
</g>
<!-- uqbar.book.sphinx.uqbar_book_defaults_block -->
<g id="node21" class="node">
<title>uqbar.book.sphinx.uqbar_book_defaults_block</title>
<g id="a_node21"><a xlink:href="../api/uqbar/book/sphinx.html#uqbar.book.sphinx.uqbar_book_defaults_block" xlink:title="uqbar\nbook\ndefaults\nblock" target="_top">
<path fill="#e5d8bd" stroke="#e5d8bd" stroke-width="2" d="M402.5,-268C402.5,-268 383.5,-268 383.5,-268 377.5,-268 371.5,-262 371.5,-256 371.5,-256 371.5,-228 371.5,-228 371.5,-222 377.5,-216 383.5,-216 383.5,-216 402.5,-216 402.5,-216 408.5,-216 414.5,-222 414.5,-228 414.5,-228 414.5,-256 414.5,-256 414.5,-262 408.5,-268 402.5,-268"/>
<text text-anchor="middle" x="393" y="-256" font-family="Arial" font-size="10.00" fill="#000000">uqbar</text>
<text text-anchor="middle" x="393" y="-245" font-family="Arial" font-size="10.00" fill="#000000">book</text>
<text text-anchor="middle" x="393" y="-234" font-family="Arial" font-size="10.00" fill="#000000">defaults</text>
<text text-anchor="middle" x="393" y="-223" font-family="Arial" font-size="10.00" fill="#000000">block</text>
</a>
</g>
</g>
<!-- uqbar.book.sphinx.uqbar_book_import_block -->
<g id="node22" class="node">
<title>uqbar.book.sphinx.uqbar_book_import_block</title>
<g id="a_node22"><a xlink:href="../api/uqbar/book/sphinx.html#uqbar.book.sphinx.uqbar_book_import_block" xlink:title="uqbar\nbook\nimport\nblock" target="_top">
<path fill="#e5d8bd" stroke="#e5d8bd" stroke-width="2" d="M399.5,-338C399.5,-338 386.5,-338 386.5,-338 380.5,-338 374.5,-332 374.5,-326 374.5,-326 374.5,-298 374.5,-298 374.5,-292 380.5,-286 386.5,-286 386.5,-286 399.5,-286 399.5,-286 405.5,-286 411.5,-292 411.5,-298 411.5,-298 411.5,-326 411.5,-326 411.5,-332 405.5,-338 399.5,-338"/>
<text text-anchor="middle" x="393" y="-326" font-family="Arial" font-size="10.00" fill="#000000">uqbar</text>
<text text-anchor="middle" x="393" y="-315" font-family="Arial" font-size="10.00" fill="#000000">book</text>
<text text-anchor="middle" x="393" y="-304" font-family="Arial" font-size="10.00" fill="#000000">import</text>
<text text-anchor="middle" x="393" y="-293" font-family="Arial" font-size="10.00" fill="#000000">block</text>
</a>
</g>
</g>
</g>
</svg>
