<?xml version="1.0" encoding="UTF-8" standalone="no"?>
<!DOCTYPE svg PUBLIC "-//W3C//DTD SVG 1.1//EN"
 "http://www.w3.org/Graphics/SVG/1.1/DTD/svg11.dtd">
<!-- Generated by graphviz version 2.44.0 (20200408.0750)
 -->
<!-- Title: InheritanceGraph Pages: 1 -->
<svg width="175pt" height="89pt"
 viewBox="0.00 0.00 175.00 89.00" xmlns="http://www.w3.org/2000/svg" xmlns:xlink="http://www.w3.org/1999/xlink">
<g id="graph0" class="graph" transform="scale(1 1) rotate(0) translate(4 85)">
<title>InheritanceGraph</title>
<g id="clust1" class="cluster">
<title>cluster_builtins</title>
<path fill="transparent" stroke="#bcd2ee" stroke-width="2" stroke-dasharray="5,2" d="M20,-13C20,-13 55,-13 55,-13 61,-13 67,-19 67,-25 67,-25 67,-56 67,-56 67,-62 61,-68 55,-68 55,-68 20,-68 20,-68 14,-68 8,-62 8,-56 8,-56 8,-25 8,-25 8,-19 14,-13 20,-13"/>
<text text-anchor="middle" x="37.5" y="-56" font-family="Arial" font-size="10.00">builtins</text>
</g>
<g id="clust2" class="cluster">
<title>cluster_uqbar.io</title>
<path fill="transparent" stroke="#bcd2ee" stroke-width="2" stroke-dasharray="5,2" d="M99,-8C99,-8 147,-8 147,-8 153,-8 159,-14 159,-20 159,-20 159,-61 159,-61 159,-67 153,-73 147,-73 147,-73 99,-73 99,-73 93,-73 87,-67 87,-61 87,-61 87,-20 87,-20 87,-14 93,-8 99,-8"/>
<text text-anchor="middle" x="123" y="-61" font-family="Arial" font-size="10.00">uqbar.io</text>
</g>
<!-- builtins.object&#45;&gt;uqbar.io.DirectoryChange.DirectoryChange -->
<g id="edge1" class="edge">
<title>builtins.object&#45;&gt;uqbar.io.DirectoryChange.DirectoryChange</title>
<path fill="none" stroke="lightslategrey" d="M59.14,-31C66.92,-31 76.02,-31 84.84,-31"/>
<polygon fill="lightslategrey" stroke="lightslategrey" points="84.98,-34.5 94.98,-31 84.98,-27.5 84.98,-34.5"/>
</g>
<!-- builtins.object -->
<g id="node1" class="node">
<title>builtins.object</title>
<g id="a_node1"><a xlink:href="https://docs.python.org/3.6/library/functions.html#object" xlink:title="object" target="_top">
<path fill="#fbb4ae" stroke="#fbb4ae" stroke-width="2" d="M52.67,-40.5C52.67,-40.5 22.33,-40.5 22.33,-40.5 19.17,-40.5 16,-37.33 16,-34.17 16,-34.17 16,-27.83 16,-27.83 16,-24.67 19.17,-21.5 22.33,-21.5 22.33,-21.5 52.67,-21.5 52.67,-21.5 55.83,-21.5 59,-24.67 59,-27.83 59,-27.83 59,-34.17 59,-34.17 59,-37.33 55.83,-40.5 52.67,-40.5"/>
<text text-anchor="middle" x="37.5" y="-28.5" font-family="Arial" font-size="10.00">object</text>
</a>
</g>
</g>
<!-- uqbar.io.DirectoryChange.DirectoryChange -->
<g id="node2" class="node">
<title>uqbar.io.DirectoryChange.DirectoryChange</title>
<g id="a_node2"><a xlink:href="../api/uqbar/io/DirectoryChange.html#uqbar.io.DirectoryChange.DirectoryChange" xlink:title="Directory\nChange" target="_top">
<path fill="black" stroke="black" stroke-width="2" d="M141,-46C141,-46 105,-46 105,-46 100,-46 95,-41 95,-36 95,-36 95,-26 95,-26 95,-21 100,-16 105,-16 105,-16 141,-16 141,-16 146,-16 151,-21 151,-26 151,-26 151,-36 151,-36 151,-41 146,-46 141,-46"/>
<text text-anchor="middle" x="123" y="-34" font-family="Arial" font-size="10.00" fill="white">Directory</text>
<text text-anchor="middle" x="123" y="-23" font-family="Arial" font-size="10.00" fill="white">Change</text>
</a>
</g>
</g>
</g>
</svg>
