<?xml version="1.0" encoding="UTF-8" standalone="no"?>
<!DOCTYPE svg PUBLIC "-//W3C//DTD SVG 1.1//EN"
 "http://www.w3.org/Graphics/SVG/1.1/DTD/svg11.dtd">
<!-- Generated by graphviz version 2.40.1 (20161225.0304)
 -->
<!-- Title: InheritanceGraph Pages: 1 -->
<svg width="694pt" height="467pt"
 viewBox="0.00 0.00 693.61 467.00" xmlns="http://www.w3.org/2000/svg" xmlns:xlink="http://www.w3.org/1999/xlink">
<g id="graph0" class="graph" transform="scale(1 1) rotate(0) translate(4 463)">
<title>InheritanceGraph</title>
<g id="clust1" class="cluster">
<title>cluster_builtins</title>
<path fill="transparent" stroke="#bcd2ee" stroke-width="2" stroke-dasharray="5,2" d="M20,-169C20,-169 49,-169 49,-169 55,-169 61,-175 61,-181 61,-181 61,-212 61,-212 61,-218 55,-224 49,-224 49,-224 20,-224 20,-224 14,-224 8,-218 8,-212 8,-212 8,-181 8,-181 8,-175 14,-169 20,-169"/>
<text text-anchor="middle" x="34.5" y="-212" font-family="Arial" font-size="10.00" fill="#000000">builtins</text>
</g>
<g id="clust2" class="cluster">
<title>cluster_uqbar.apis</title>
<path fill="transparent" stroke="#bcd2ee" stroke-width="2" stroke-dasharray="5,2" d="M401,-8C401,-8 665.6102,-8 665.6102,-8 671.6102,-8 677.6102,-14 677.6102,-20 677.6102,-20 677.6102,-351 677.6102,-351 677.6102,-357 671.6102,-363 665.6102,-363 665.6102,-363 401,-363 401,-363 395,-363 389,-357 389,-351 389,-351 389,-20 389,-20 389,-14 395,-8 401,-8"/>
<text text-anchor="middle" x="533.3051" y="-351" font-family="Arial" font-size="10.00" fill="#000000">uqbar.apis</text>
</g>
<g id="clust3" class="cluster">
<title>cluster_uqbar.apis.dummy</title>
<path fill="transparent" stroke="#bcd2ee" stroke-width="2" stroke-dasharray="5,2" d="M93.5,-374C93.5,-374 196,-374 196,-374 202,-374 208,-380 208,-386 208,-386 208,-439 208,-439 208,-445 202,-451 196,-451 196,-451 93.5,-451 93.5,-451 87.5,-451 81.5,-445 81.5,-439 81.5,-439 81.5,-386 81.5,-386 81.5,-380 87.5,-374 93.5,-374"/>
<text text-anchor="middle" x="144.75" y="-439" font-family="Arial" font-size="10.00" fill="#000000">uqbar.apis.dummy</text>
</g>
<g id="clust4" class="cluster">
<title>cluster_uqbar.containers</title>
<path fill="transparent" stroke="#bcd2ee" stroke-width="2" stroke-dasharray="5,2" d="M93,-289C93,-289 357,-289 357,-289 363,-289 369,-295 369,-301 369,-301 369,-354 369,-354 369,-360 363,-366 357,-366 357,-366 93,-366 93,-366 87,-366 81,-360 81,-354 81,-354 81,-301 81,-301 81,-295 87,-289 93,-289"/>
<text text-anchor="middle" x="225" y="-354" font-family="Arial" font-size="10.00" fill="#000000">uqbar.containers</text>
</g>
<!-- builtins.object&#45;&gt;uqbar.apis.APIBuilder.APIBuilder -->
<g id="edge9" class="edge">
<title>builtins.object&#45;&gt;uqbar.apis.APIBuilder.APIBuilder</title>
<path fill="none" stroke="#778899" d="M53.2195,-195.483C80.8848,-207.2246 134.5906,-227 182.5,-227 182.5,-227 182.5,-227 260.5,-227 309.0488,-227 365.0854,-228.1448 400.8327,-229.02"/>
<polygon fill="#778899" stroke="#778899" points="401.1598,-232.5292 411.2446,-229.2814 401.3356,-225.5315 401.1598,-232.5292"/>
</g>
<!-- builtins.object&#45;&gt;uqbar.apis.InheritanceGraph.InheritanceGraph -->
<g id="edge10" class="edge">
<title>builtins.object&#45;&gt;uqbar.apis.InheritanceGraph.InheritanceGraph</title>
<path fill="none" stroke="#778899" d="M53.1905,-187C81.2656,-187 135.9931,-187 182.5,-187 182.5,-187 182.5,-187 260.5,-187 308.4854,-187 363.7965,-187 399.5925,-187"/>
<polygon fill="#778899" stroke="#778899" points="400.0454,-190.5001 410.0453,-187 400.0453,-183.5001 400.0454,-190.5001"/>
</g>
<!-- builtins.object&#45;&gt;uqbar.apis.MemberDocumenter.MemberDocumenter -->
<g id="edge11" class="edge">
<title>builtins.object&#45;&gt;uqbar.apis.MemberDocumenter.MemberDocumenter</title>
<path fill="none" stroke="#778899" d="M52.6254,-177.4688C79.9798,-163.9951 133.7985,-141 182.5,-141 182.5,-141 182.5,-141 260.5,-141 303.2882,-141 351.8416,-138.6329 387.2274,-136.4738"/>
<polygon fill="#778899" stroke="#778899" points="387.5416,-139.9611 397.3033,-135.843 387.1041,-132.9748 387.5416,-139.9611"/>
</g>
<!-- builtins.object&#45;&gt;uqbar.apis.ModuleDocumenter.ModuleDocumenter -->
<g id="edge12" class="edge">
<title>builtins.object&#45;&gt;uqbar.apis.ModuleDocumenter.ModuleDocumenter</title>
<path fill="none" stroke="#778899" d="M42.0117,-177.4442C62.022,-153.1621 119.4094,-91 182.5,-91 182.5,-91 182.5,-91 260.5,-91 308.1031,-91 362.7504,-86.6164 398.5375,-83.1481"/>
<polygon fill="#778899" stroke="#778899" points="398.954,-86.624 408.5591,-82.1529 398.2622,-79.6583 398.954,-86.624"/>
</g>
<!-- builtins.object&#45;&gt;uqbar.apis.RootDocumenter.RootDocumenter -->
<g id="edge13" class="edge">
<title>builtins.object&#45;&gt;uqbar.apis.RootDocumenter.RootDocumenter</title>
<path fill="none" stroke="#778899" d="M37.4588,-177.4564C43.2679,-160.0723 57.6694,-122.9281 81,-100 117.1513,-64.4723 131.8134,-48 182.5,-48 182.5,-48 182.5,-48 260.5,-48 308.2129,-48 362.8373,-41.7899 398.589,-36.8765"/>
<polygon fill="#778899" stroke="#778899" points="399.1858,-40.3271 408.6,-35.4665 398.2095,-33.3955 399.1858,-40.3271"/>
</g>
<!-- builtins.object&#45;&gt;uqbar.apis.dummy.MyParentClass -->
<g id="edge14" class="edge">
<title>builtins.object&#45;&gt;uqbar.apis.dummy.MyParentClass</title>
<path fill="none" stroke="#778899" d="M35.4078,-196.6765C38.3686,-224.8706 49.4425,-308.8206 81,-370 81.7815,-371.515 82.6443,-373.0206 83.568,-374.5067"/>
<polygon fill="#778899" stroke="#778899" points="80.7511,-376.5852 89.3803,-382.7323 86.4679,-372.5456 80.7511,-376.5852"/>
</g>
<!-- builtins.object&#45;&gt;uqbar.containers.UniqueTreeNode.UniqueTreeNode -->
<g id="edge15" class="edge">
<title>builtins.object&#45;&gt;uqbar.containers.UniqueTreeNode.UniqueTreeNode</title>
<path fill="none" stroke="#778899" d="M40.0996,-196.8463C51.0311,-216.0681 75.5963,-259.2633 92.2396,-288.5287"/>
<polygon fill="#778899" stroke="#778899" points="89.3516,-290.5306 97.3376,-297.493 95.4365,-287.0701 89.3516,-290.5306"/>
</g>
<!-- uqbar.apis.ClassDocumenter.ClassDocumenter&#45;&gt;uqbar.apis.SummarizingClassDocumenter.SummarizingClassDocumenter -->
<g id="edge1" class="edge">
<title>uqbar.apis.ClassDocumenter.ClassDocumenter&#45;&gt;uqbar.apis.SummarizingClassDocumenter.SummarizingClassDocumenter</title>
<path fill="none" stroke="#778899" d="M572.1534,-148.5134C580.6667,-148.07 590.1629,-147.5754 599.2802,-147.1005"/>
<polygon fill="#778899" stroke="#778899" points="599.5358,-150.592 609.3402,-146.5766 599.1716,-143.6015 599.5358,-150.592"/>
</g>
<!-- uqbar.apis.MemberDocumenter.MemberDocumenter&#45;&gt;uqbar.apis.ClassDocumenter.ClassDocumenter -->
<g id="edge2" class="edge">
<title>uqbar.apis.MemberDocumenter.MemberDocumenter&#45;&gt;uqbar.apis.ClassDocumenter.ClassDocumenter</title>
<path fill="none" stroke="#778899" d="M475.9844,-139.1855C485.4013,-140.6914 495.4742,-142.3022 504.8929,-143.8084"/>
<polygon fill="#778899" stroke="#778899" points="504.3671,-147.2687 514.7943,-145.3919 505.4725,-140.3566 504.3671,-147.2687"/>
</g>
<!-- uqbar.apis.MemberDocumenter.MemberDocumenter&#45;&gt;uqbar.apis.FunctionDocumenter.FunctionDocumenter -->
<g id="edge3" class="edge">
<title>uqbar.apis.MemberDocumenter.MemberDocumenter&#45;&gt;uqbar.apis.FunctionDocumenter.FunctionDocumenter</title>
<path fill="none" stroke="#778899" d="M463.2455,-149.4379C477.6065,-157.8866 496.0577,-167.7028 513.6102,-174 542.0223,-184.1933 575.6128,-190.5964 600.9634,-194.3677"/>
<polygon fill="#778899" stroke="#778899" points="600.5454,-197.8434 610.9373,-195.7797 601.5267,-190.9125 600.5454,-197.8434"/>
</g>
<!-- uqbar.apis.ModuleDocumenter.ModuleDocumenter&#45;&gt;uqbar.apis.SummarizingModuleDocumenter.SummarizingModuleDocumenter -->
<g id="edge4" class="edge">
<title>uqbar.apis.ModuleDocumenter.ModuleDocumenter&#45;&gt;uqbar.apis.SummarizingModuleDocumenter.SummarizingModuleDocumenter</title>
<path fill="none" stroke="#778899" d="M466.0728,-83.6004C477.506,-85.4288 490.8611,-87.5645 503.2342,-89.5432"/>
<polygon fill="#778899" stroke="#778899" points="502.9057,-93.0351 513.333,-91.1582 504.0112,-86.1229 502.9057,-93.0351"/>
</g>
<!-- uqbar.apis.RootDocumenter.RootDocumenter&#45;&gt;uqbar.apis.SummarizingRootDocumenter.SummarizingRootDocumenter -->
<g id="edge5" class="edge">
<title>uqbar.apis.RootDocumenter.RootDocumenter&#45;&gt;uqbar.apis.SummarizingRootDocumenter.SummarizingRootDocumenter</title>
<path fill="none" stroke="#778899" d="M466.0728,-32.6237C477.506,-33.269 490.8611,-34.0228 503.2342,-34.7211"/>
<polygon fill="#778899" stroke="#778899" points="503.1516,-38.2219 513.333,-35.2911 503.5461,-31.2331 503.1516,-38.2219"/>
</g>
<!-- uqbar.apis.dummy.MyParentClass&#45;&gt;uqbar.apis.dummy.MyChildClass -->
<g id="edge6" class="edge">
<title>uqbar.apis.dummy.MyParentClass&#45;&gt;uqbar.apis.dummy.MyChildClass</title>
<path fill="none" stroke="#778899" d="M128.6967,-403C136.6776,-403 146.0373,-403 154.6925,-403"/>
<polygon fill="#778899" stroke="#778899" points="154.7605,-406.5001 164.7604,-403 154.7604,-399.5001 154.7605,-406.5001"/>
</g>
<!-- uqbar.containers.UniqueTreeContainer.UniqueTreeContainer&#45;&gt;uqbar.containers.UniqueTreeList.UniqueTreeList -->
<g id="edge7" class="edge">
<title>uqbar.containers.UniqueTreeContainer.UniqueTreeContainer&#45;&gt;uqbar.containers.UniqueTreeList.UniqueTreeList</title>
<path fill="none" stroke="#778899" d="M285.0901,-318C293.1527,-318 302.2086,-318 310.6459,-318"/>
<polygon fill="#778899" stroke="#778899" points="310.8812,-321.5001 320.8811,-318 310.8811,-314.5001 310.8812,-321.5001"/>
</g>
<!-- uqbar.containers.UniqueTreeList.UniqueTreeList&#45;&gt;uqbar.apis.PackageNode.PackageNode -->
<g id="edge16" class="edge">
<title>uqbar.containers.UniqueTreeList.UniqueTreeList&#45;&gt;uqbar.apis.PackageNode.PackageNode</title>
<path fill="none" stroke="#778899" d="M361.4238,-318.6362C373.7434,-319.02 389.7364,-319.5182 403.8614,-319.9582"/>
<polygon fill="#778899" stroke="#778899" points="404.1028,-323.4673 414.207,-320.2805 404.3209,-316.4707 404.1028,-323.4673"/>
</g>
<!-- uqbar.containers.UniqueTreeNode.UniqueTreeNode&#45;&gt;uqbar.apis.ModuleNode.ModuleNode -->
<g id="edge17" class="edge">
<title>uqbar.containers.UniqueTreeNode.UniqueTreeNode&#45;&gt;uqbar.apis.ModuleNode.ModuleNode</title>
<path fill="none" stroke="#778899" d="M129.0623,-312.4673C153.9489,-305.8255 197.7718,-294.8522 236,-289 295.9977,-279.8152 366.9123,-275.7358 406.5381,-274.057"/>
<polygon fill="#778899" stroke="#778899" points="406.7637,-277.5509 416.6157,-273.6538 406.4837,-270.5565 406.7637,-277.5509"/>
</g>
<!-- uqbar.containers.UniqueTreeNode.UniqueTreeNode&#45;&gt;uqbar.containers.UniqueTreeContainer.UniqueTreeContainer -->
<g id="edge8" class="edge">
<title>uqbar.containers.UniqueTreeNode.UniqueTreeNode&#45;&gt;uqbar.containers.UniqueTreeContainer.UniqueTreeContainer</title>
<path fill="none" stroke="#778899" d="M129.118,-318C153.7424,-318 195.8468,-318 225.7504,-318"/>
<polygon fill="#778899" stroke="#778899" points="225.7702,-321.5001 235.7702,-318 225.7702,-314.5001 225.7702,-321.5001"/>
</g>
<!-- builtins.object -->
<g id="node1" class="node">
<title>builtins.object</title>
<g id="a_node1"><a xlink:href="https://docs.python.org/3.6/library/functions.html#object" xlink:title="object" target="_top">
<path fill="#fbb4ae" stroke="#fbb4ae" stroke-width="2" d="M46.6667,-196.5C46.6667,-196.5 22.3333,-196.5 22.3333,-196.5 19.1667,-196.5 16,-193.3333 16,-190.1667 16,-190.1667 16,-183.8333 16,-183.8333 16,-180.6667 19.1667,-177.5 22.3333,-177.5 22.3333,-177.5 46.6667,-177.5 46.6667,-177.5 49.8333,-177.5 53,-180.6667 53,-183.8333 53,-183.8333 53,-190.1667 53,-190.1667 53,-193.3333 49.8333,-196.5 46.6667,-196.5"/>
<text text-anchor="middle" x="34.5" y="-184.5" font-family="Arial" font-size="10.00" fill="#000000">object</text>
</a>
</g>
</g>
<!-- uqbar.apis.APIBuilder.APIBuilder -->
<g id="node2" class="node">
<title>uqbar.apis.APIBuilder.APIBuilder</title>
<g id="a_node2"><a xlink:href="../api/uqbar/apis/APIBuilder.html#uqbar.apis.APIBuilder.APIBuilder" xlink:title="APIBuilder" target="_top">
<path fill="#000000" stroke="#000000" stroke-width="2" d="M456.9718,-239.5C456.9718,-239.5 417.6384,-239.5 417.6384,-239.5 414.4718,-239.5 411.3051,-236.3333 411.3051,-233.1667 411.3051,-233.1667 411.3051,-226.8333 411.3051,-226.8333 411.3051,-223.6667 414.4718,-220.5 417.6384,-220.5 417.6384,-220.5 456.9718,-220.5 456.9718,-220.5 460.1384,-220.5 463.3051,-223.6667 463.3051,-226.8333 463.3051,-226.8333 463.3051,-233.1667 463.3051,-233.1667 463.3051,-236.3333 460.1384,-239.5 456.9718,-239.5"/>
<text text-anchor="middle" x="437.3051" y="-227.5" font-family="Arial" font-size="10.00" fill="#ffffff">APIBuilder</text>
</a>
</g>
</g>
<!-- uqbar.apis.ClassDocumenter.ClassDocumenter -->
<g id="node3" class="node">
<title>uqbar.apis.ClassDocumenter.ClassDocumenter</title>
<g id="a_node3"><a xlink:href="../api/uqbar/apis/ClassDocumenter.html#uqbar.apis.ClassDocumenter.ClassDocumenter" xlink:title="Class\nDocumenter" target="_top">
<path fill="#000000" stroke="#000000" stroke-width="2" d="M562.1102,-165C562.1102,-165 525.1102,-165 525.1102,-165 520.1102,-165 515.1102,-160 515.1102,-155 515.1102,-155 515.1102,-145 515.1102,-145 515.1102,-140 520.1102,-135 525.1102,-135 525.1102,-135 562.1102,-135 562.1102,-135 567.1102,-135 572.1102,-140 572.1102,-145 572.1102,-145 572.1102,-155 572.1102,-155 572.1102,-160 567.1102,-165 562.1102,-165"/>
<text text-anchor="middle" x="543.6102" y="-153" font-family="Arial" font-size="10.00" fill="#ffffff">Class</text>
<text text-anchor="middle" x="543.6102" y="-142" font-family="Arial" font-size="10.00" fill="#ffffff">Documenter</text>
</a>
</g>
</g>
<!-- uqbar.apis.SummarizingClassDocumenter.SummarizingClassDocumenter -->
<g id="node4" class="node">
<title>uqbar.apis.SummarizingClassDocumenter.SummarizingClassDocumenter</title>
<g id="a_node4"><a xlink:href="../api/uqbar/apis/SummarizingClassDocumenter.html#uqbar.apis.SummarizingClassDocumenter.SummarizingClassDocumenter" xlink:title="Summarizing\nClass\nDocumenter" target="_top">
<path fill="#000000" stroke="#000000" stroke-width="2" d="M657.6102,-165.5C657.6102,-165.5 621.6102,-165.5 621.6102,-165.5 615.6102,-165.5 609.6102,-159.5 609.6102,-153.5 609.6102,-153.5 609.6102,-136.5 609.6102,-136.5 609.6102,-130.5 615.6102,-124.5 621.6102,-124.5 621.6102,-124.5 657.6102,-124.5 657.6102,-124.5 663.6102,-124.5 669.6102,-130.5 669.6102,-136.5 669.6102,-136.5 669.6102,-153.5 669.6102,-153.5 669.6102,-159.5 663.6102,-165.5 657.6102,-165.5"/>
<text text-anchor="middle" x="639.6102" y="-153.5" font-family="Arial" font-size="10.00" fill="#ffffff">Summarizing</text>
<text text-anchor="middle" x="639.6102" y="-142.5" font-family="Arial" font-size="10.00" fill="#ffffff">Class</text>
<text text-anchor="middle" x="639.6102" y="-131.5" font-family="Arial" font-size="10.00" fill="#ffffff">Documenter</text>
</a>
</g>
</g>
<!-- uqbar.apis.FunctionDocumenter.FunctionDocumenter -->
<g id="node5" class="node">
<title>uqbar.apis.FunctionDocumenter.FunctionDocumenter</title>
<g id="a_node5"><a xlink:href="../api/uqbar/apis/FunctionDocumenter.html#uqbar.apis.FunctionDocumenter.FunctionDocumenter" xlink:title="Function\nDocumenter" target="_top">
<path fill="#000000" stroke="#000000" stroke-width="2" d="M658.1102,-214C658.1102,-214 621.1102,-214 621.1102,-214 616.1102,-214 611.1102,-209 611.1102,-204 611.1102,-204 611.1102,-194 611.1102,-194 611.1102,-189 616.1102,-184 621.1102,-184 621.1102,-184 658.1102,-184 658.1102,-184 663.1102,-184 668.1102,-189 668.1102,-194 668.1102,-194 668.1102,-204 668.1102,-204 668.1102,-209 663.1102,-214 658.1102,-214"/>
<text text-anchor="middle" x="639.6102" y="-202" font-family="Arial" font-size="10.00" fill="#ffffff">Function</text>
<text text-anchor="middle" x="639.6102" y="-191" font-family="Arial" font-size="10.00" fill="#ffffff">Documenter</text>
</a>
</g>
</g>
<!-- uqbar.apis.InheritanceGraph.InheritanceGraph -->
<g id="node6" class="node">
<title>uqbar.apis.InheritanceGraph.InheritanceGraph</title>
<g id="a_node6"><a xlink:href="../api/uqbar/apis/InheritanceGraph.html#uqbar.apis.InheritanceGraph.InheritanceGraph" xlink:title="Inheritance\nGraph" target="_top">
<path fill="#000000" stroke="#000000" stroke-width="2" d="M454.3051,-202C454.3051,-202 420.3051,-202 420.3051,-202 415.3051,-202 410.3051,-197 410.3051,-192 410.3051,-192 410.3051,-182 410.3051,-182 410.3051,-177 415.3051,-172 420.3051,-172 420.3051,-172 454.3051,-172 454.3051,-172 459.3051,-172 464.3051,-177 464.3051,-182 464.3051,-182 464.3051,-192 464.3051,-192 464.3051,-197 459.3051,-202 454.3051,-202"/>
<text text-anchor="middle" x="437.3051" y="-190" font-family="Arial" font-size="10.00" fill="#ffffff">Inheritance</text>
<text text-anchor="middle" x="437.3051" y="-179" font-family="Arial" font-size="10.00" fill="#ffffff">Graph</text>
</a>
</g>
</g>
<!-- uqbar.apis.MemberDocumenter.MemberDocumenter -->
<g id="node7" class="node">
<title>uqbar.apis.MemberDocumenter.MemberDocumenter</title>
<g id="a_node7"><a xlink:href="../api/uqbar/apis/MemberDocumenter.html#uqbar.apis.MemberDocumenter.MemberDocumenter" xlink:title="Member\nDocumenter" target="_top">
<ellipse fill="#000000" stroke="#000000" stroke-width="2" cx="437.3051" cy="-133" rx="40.1111" ry="21.4286"/>
<text text-anchor="middle" x="437.3051" y="-136" font-family="Arial" font-size="10.00" fill="#ffffff">Member</text>
<text text-anchor="middle" x="437.3051" y="-125" font-family="Arial" font-size="10.00" fill="#ffffff">Documenter</text>
</a>
</g>
</g>
<!-- uqbar.apis.ModuleDocumenter.ModuleDocumenter -->
<g id="node8" class="node">
<title>uqbar.apis.ModuleDocumenter.ModuleDocumenter</title>
<g id="a_node8"><a xlink:href="../api/uqbar/apis/ModuleDocumenter.html#uqbar.apis.ModuleDocumenter.ModuleDocumenter" xlink:title="Module\nDocumenter" target="_top">
<path fill="#000000" stroke="#000000" stroke-width="2" d="M455.8051,-94C455.8051,-94 418.8051,-94 418.8051,-94 413.8051,-94 408.8051,-89 408.8051,-84 408.8051,-84 408.8051,-74 408.8051,-74 408.8051,-69 413.8051,-64 418.8051,-64 418.8051,-64 455.8051,-64 455.8051,-64 460.8051,-64 465.8051,-69 465.8051,-74 465.8051,-74 465.8051,-84 465.8051,-84 465.8051,-89 460.8051,-94 455.8051,-94"/>
<text text-anchor="middle" x="437.3051" y="-82" font-family="Arial" font-size="10.00" fill="#ffffff">Module</text>
<text text-anchor="middle" x="437.3051" y="-71" font-family="Arial" font-size="10.00" fill="#ffffff">Documenter</text>
</a>
</g>
</g>
<!-- uqbar.apis.SummarizingModuleDocumenter.SummarizingModuleDocumenter -->
<g id="node9" class="node">
<title>uqbar.apis.SummarizingModuleDocumenter.SummarizingModuleDocumenter</title>
<g id="a_node9"><a xlink:href="../api/uqbar/apis/SummarizingModuleDocumenter.html#uqbar.apis.SummarizingModuleDocumenter.SummarizingModuleDocumenter" xlink:title="Summarizing\nModule\nDocumenter" target="_top">
<path fill="#000000" stroke="#000000" stroke-width="2" d="M561.6102,-116.5C561.6102,-116.5 525.6102,-116.5 525.6102,-116.5 519.6102,-116.5 513.6102,-110.5 513.6102,-104.5 513.6102,-104.5 513.6102,-87.5 513.6102,-87.5 513.6102,-81.5 519.6102,-75.5 525.6102,-75.5 525.6102,-75.5 561.6102,-75.5 561.6102,-75.5 567.6102,-75.5 573.6102,-81.5 573.6102,-87.5 573.6102,-87.5 573.6102,-104.5 573.6102,-104.5 573.6102,-110.5 567.6102,-116.5 561.6102,-116.5"/>
<text text-anchor="middle" x="543.6102" y="-104.5" font-family="Arial" font-size="10.00" fill="#ffffff">Summarizing</text>
<text text-anchor="middle" x="543.6102" y="-93.5" font-family="Arial" font-size="10.00" fill="#ffffff">Module</text>
<text text-anchor="middle" x="543.6102" y="-82.5" font-family="Arial" font-size="10.00" fill="#ffffff">Documenter</text>
</a>
</g>
</g>
<!-- uqbar.apis.ModuleNode.ModuleNode -->
<g id="node10" class="node">
<title>uqbar.apis.ModuleNode.ModuleNode</title>
<g id="a_node10"><a xlink:href="../api/uqbar/apis/ModuleNode.html#uqbar.apis.ModuleNode.ModuleNode" xlink:title="Module\nNode" target="_top">
<path fill="#000000" stroke="#000000" stroke-width="2" d="M447.8051,-288C447.8051,-288 426.8051,-288 426.8051,-288 421.8051,-288 416.8051,-283 416.8051,-278 416.8051,-278 416.8051,-268 416.8051,-268 416.8051,-263 421.8051,-258 426.8051,-258 426.8051,-258 447.8051,-258 447.8051,-258 452.8051,-258 457.8051,-263 457.8051,-268 457.8051,-268 457.8051,-278 457.8051,-278 457.8051,-283 452.8051,-288 447.8051,-288"/>
<text text-anchor="middle" x="437.3051" y="-276" font-family="Arial" font-size="10.00" fill="#ffffff">Module</text>
<text text-anchor="middle" x="437.3051" y="-265" font-family="Arial" font-size="10.00" fill="#ffffff">Node</text>
</a>
</g>
</g>
<!-- uqbar.apis.PackageNode.PackageNode -->
<g id="node11" class="node">
<title>uqbar.apis.PackageNode.PackageNode</title>
<g id="a_node11"><a xlink:href="../api/uqbar/apis/PackageNode.html#uqbar.apis.PackageNode.PackageNode" xlink:title="Package\nNode" target="_top">
<path fill="#000000" stroke="#000000" stroke-width="2" d="M450.3051,-336C450.3051,-336 424.3051,-336 424.3051,-336 419.3051,-336 414.3051,-331 414.3051,-326 414.3051,-326 414.3051,-316 414.3051,-316 414.3051,-311 419.3051,-306 424.3051,-306 424.3051,-306 450.3051,-306 450.3051,-306 455.3051,-306 460.3051,-311 460.3051,-316 460.3051,-316 460.3051,-326 460.3051,-326 460.3051,-331 455.3051,-336 450.3051,-336"/>
<text text-anchor="middle" x="437.3051" y="-324" font-family="Arial" font-size="10.00" fill="#ffffff">Package</text>
<text text-anchor="middle" x="437.3051" y="-313" font-family="Arial" font-size="10.00" fill="#ffffff">Node</text>
</a>
</g>
</g>
<!-- uqbar.apis.RootDocumenter.RootDocumenter -->
<g id="node12" class="node">
<title>uqbar.apis.RootDocumenter.RootDocumenter</title>
<g id="a_node12"><a xlink:href="../api/uqbar/apis/RootDocumenter.html#uqbar.apis.RootDocumenter.RootDocumenter" xlink:title="Root\nDocumenter" target="_top">
<path fill="#000000" stroke="#000000" stroke-width="2" d="M455.8051,-46C455.8051,-46 418.8051,-46 418.8051,-46 413.8051,-46 408.8051,-41 408.8051,-36 408.8051,-36 408.8051,-26 408.8051,-26 408.8051,-21 413.8051,-16 418.8051,-16 418.8051,-16 455.8051,-16 455.8051,-16 460.8051,-16 465.8051,-21 465.8051,-26 465.8051,-26 465.8051,-36 465.8051,-36 465.8051,-41 460.8051,-46 455.8051,-46"/>
<text text-anchor="middle" x="437.3051" y="-34" font-family="Arial" font-size="10.00" fill="#ffffff">Root</text>
<text text-anchor="middle" x="437.3051" y="-23" font-family="Arial" font-size="10.00" fill="#ffffff">Documenter</text>
</a>
</g>
</g>
<!-- uqbar.apis.SummarizingRootDocumenter.SummarizingRootDocumenter -->
<g id="node13" class="node">
<title>uqbar.apis.SummarizingRootDocumenter.SummarizingRootDocumenter</title>
<g id="a_node13"><a xlink:href="../api/uqbar/apis/SummarizingRootDocumenter.html#uqbar.apis.SummarizingRootDocumenter.SummarizingRootDocumenter" xlink:title="Summarizing\nRoot\nDocumenter" target="_top">
<path fill="#000000" stroke="#000000" stroke-width="2" d="M561.6102,-57.5C561.6102,-57.5 525.6102,-57.5 525.6102,-57.5 519.6102,-57.5 513.6102,-51.5 513.6102,-45.5 513.6102,-45.5 513.6102,-28.5 513.6102,-28.5 513.6102,-22.5 519.6102,-16.5 525.6102,-16.5 525.6102,-16.5 561.6102,-16.5 561.6102,-16.5 567.6102,-16.5 573.6102,-22.5 573.6102,-28.5 573.6102,-28.5 573.6102,-45.5 573.6102,-45.5 573.6102,-51.5 567.6102,-57.5 561.6102,-57.5"/>
<text text-anchor="middle" x="543.6102" y="-45.5" font-family="Arial" font-size="10.00" fill="#ffffff">Summarizing</text>
<text text-anchor="middle" x="543.6102" y="-34.5" font-family="Arial" font-size="10.00" fill="#ffffff">Root</text>
<text text-anchor="middle" x="543.6102" y="-23.5" font-family="Arial" font-size="10.00" fill="#ffffff">Documenter</text>
</a>
</g>
</g>
<!-- uqbar.apis.dummy.MyChildClass -->
<g id="node14" class="node">
<title>uqbar.apis.dummy.MyChildClass</title>
<g id="a_node14"><a xlink:href="../api/uqbar/apis/dummy.html#uqbar.apis.dummy.MyChildClass" xlink:title="My\nChild\nClass" target="_top">
<path fill="#ccebc5" stroke="#ccebc5" stroke-width="2" d="M188.3333,-423.5C188.3333,-423.5 176.6667,-423.5 176.6667,-423.5 170.8333,-423.5 165,-417.6667 165,-411.8333 165,-411.8333 165,-394.1667 165,-394.1667 165,-388.3333 170.8333,-382.5 176.6667,-382.5 176.6667,-382.5 188.3333,-382.5 188.3333,-382.5 194.1667,-382.5 200,-388.3333 200,-394.1667 200,-394.1667 200,-411.8333 200,-411.8333 200,-417.6667 194.1667,-423.5 188.3333,-423.5"/>
<text text-anchor="middle" x="182.5" y="-411.5" font-family="Arial" font-size="10.00" fill="#000000">My</text>
<text text-anchor="middle" x="182.5" y="-400.5" font-family="Arial" font-size="10.00" fill="#000000">Child</text>
<text text-anchor="middle" x="182.5" y="-389.5" font-family="Arial" font-size="10.00" fill="#000000">Class</text>
</a>
</g>
</g>
<!-- uqbar.apis.dummy.MyParentClass -->
<g id="node15" class="node">
<title>uqbar.apis.dummy.MyParentClass</title>
<g id="a_node15"><a xlink:href="../api/uqbar/apis/dummy.html#uqbar.apis.dummy.MyParentClass" xlink:title="My\nParent\nClass" target="_top">
<path fill="#ccebc5" stroke="#ccebc5" stroke-width="2" d="M116.5,-423.5C116.5,-423.5 101.5,-423.5 101.5,-423.5 95.5,-423.5 89.5,-417.5 89.5,-411.5 89.5,-411.5 89.5,-394.5 89.5,-394.5 89.5,-388.5 95.5,-382.5 101.5,-382.5 101.5,-382.5 116.5,-382.5 116.5,-382.5 122.5,-382.5 128.5,-388.5 128.5,-394.5 128.5,-394.5 128.5,-411.5 128.5,-411.5 128.5,-417.5 122.5,-423.5 116.5,-423.5"/>
<text text-anchor="middle" x="109" y="-411.5" font-family="Arial" font-size="10.00" fill="#000000">My</text>
<text text-anchor="middle" x="109" y="-400.5" font-family="Arial" font-size="10.00" fill="#000000">Parent</text>
<text text-anchor="middle" x="109" y="-389.5" font-family="Arial" font-size="10.00" fill="#000000">Class</text>
</a>
</g>
</g>
<!-- uqbar.containers.UniqueTreeContainer.UniqueTreeContainer -->
<g id="node16" class="node">
<title>uqbar.containers.UniqueTreeContainer.UniqueTreeContainer</title>
<g id="a_node16"><a xlink:href="../api/uqbar/apis/../containers/UniqueTreeContainer.html#uqbar.containers.UniqueTreeContainer.UniqueTreeContainer" xlink:title="Unique\nTree\nContainer" target="_top">
<path fill="#decbe4" stroke="#decbe4" stroke-width="2" d="M273,-338.5C273,-338.5 248,-338.5 248,-338.5 242,-338.5 236,-332.5 236,-326.5 236,-326.5 236,-309.5 236,-309.5 236,-303.5 242,-297.5 248,-297.5 248,-297.5 273,-297.5 273,-297.5 279,-297.5 285,-303.5 285,-309.5 285,-309.5 285,-326.5 285,-326.5 285,-332.5 279,-338.5 273,-338.5"/>
<text text-anchor="middle" x="260.5" y="-326.5" font-family="Arial" font-size="10.00" fill="#000000">Unique</text>
<text text-anchor="middle" x="260.5" y="-315.5" font-family="Arial" font-size="10.00" fill="#000000">Tree</text>
<text text-anchor="middle" x="260.5" y="-304.5" font-family="Arial" font-size="10.00" fill="#000000">Container</text>
</a>
</g>
</g>
<!-- uqbar.containers.UniqueTreeList.UniqueTreeList -->
<g id="node17" class="node">
<title>uqbar.containers.UniqueTreeList.UniqueTreeList</title>
<g id="a_node17"><a xlink:href="../api/uqbar/apis/../containers/UniqueTreeList.html#uqbar.containers.UniqueTreeList.UniqueTreeList" xlink:title="Unique\nTree\nList" target="_top">
<path fill="#decbe4" stroke="#decbe4" stroke-width="2" d="M349,-338.5C349,-338.5 333,-338.5 333,-338.5 327,-338.5 321,-332.5 321,-326.5 321,-326.5 321,-309.5 321,-309.5 321,-303.5 327,-297.5 333,-297.5 333,-297.5 349,-297.5 349,-297.5 355,-297.5 361,-303.5 361,-309.5 361,-309.5 361,-326.5 361,-326.5 361,-332.5 355,-338.5 349,-338.5"/>
<text text-anchor="middle" x="341" y="-326.5" font-family="Arial" font-size="10.00" fill="#000000">Unique</text>
<text text-anchor="middle" x="341" y="-315.5" font-family="Arial" font-size="10.00" fill="#000000">Tree</text>
<text text-anchor="middle" x="341" y="-304.5" font-family="Arial" font-size="10.00" fill="#000000">List</text>
</a>
</g>
</g>
<!-- uqbar.containers.UniqueTreeNode.UniqueTreeNode -->
<g id="node18" class="node">
<title>uqbar.containers.UniqueTreeNode.UniqueTreeNode</title>
<g id="a_node18"><a xlink:href="../api/uqbar/apis/../containers/UniqueTreeNode.html#uqbar.containers.UniqueTreeNode.UniqueTreeNode" xlink:title="Unique\nTree\nNode" target="_top">
<path fill="#decbe4" stroke="#decbe4" stroke-width="2" d="M117,-338.5C117,-338.5 101,-338.5 101,-338.5 95,-338.5 89,-332.5 89,-326.5 89,-326.5 89,-309.5 89,-309.5 89,-303.5 95,-297.5 101,-297.5 101,-297.5 117,-297.5 117,-297.5 123,-297.5 129,-303.5 129,-309.5 129,-309.5 129,-326.5 129,-326.5 129,-332.5 123,-338.5 117,-338.5"/>
<text text-anchor="middle" x="109" y="-326.5" font-family="Arial" font-size="10.00" fill="#000000">Unique</text>
<text text-anchor="middle" x="109" y="-315.5" font-family="Arial" font-size="10.00" fill="#000000">Tree</text>
<text text-anchor="middle" x="109" y="-304.5" font-family="Arial" font-size="10.00" fill="#000000">Node</text>
</a>
</g>
</g>
</g>
</svg>
