<?xml version="1.0" encoding="UTF-8" standalone="no"?>
<!DOCTYPE svg PUBLIC "-//W3C//DTD SVG 1.1//EN"
 "http://www.w3.org/Graphics/SVG/1.1/DTD/svg11.dtd">
<!-- Generated by graphviz version 2.40.1 (20161225.0304)
 -->
<!-- Title: InheritanceGraph Pages: 1 -->
<svg width="383pt" height="137pt"
 viewBox="0.00 0.00 382.61 137.00" xmlns="http://www.w3.org/2000/svg" xmlns:xlink="http://www.w3.org/1999/xlink">
<g id="graph0" class="graph" transform="scale(1 1) rotate(0) translate(4 133)">
<title>InheritanceGraph</title>
<g id="clust1" class="cluster">
<title>cluster_builtins</title>
<path fill="transparent" stroke="#bcd2ee" stroke-width="2" stroke-dasharray="5,2" d="M20,-37C20,-37 49,-37 49,-37 55,-37 61,-43 61,-49 61,-49 61,-80 61,-80 61,-86 55,-92 49,-92 49,-92 20,-92 20,-92 14,-92 8,-86 8,-80 8,-80 8,-49 8,-49 8,-43 14,-37 20,-37"/>
<text text-anchor="middle" x="34.5" y="-80" font-family="Arial" font-size="10.00" fill="#000000">builtins</text>
</g>
<g id="clust2" class="cluster">
<title>cluster_uqbar.apis</title>
<path fill="transparent" stroke="#bcd2ee" stroke-width="2" stroke-dasharray="5,2" d="M93,-8C93,-8 354.6102,-8 354.6102,-8 360.6102,-8 366.6102,-14 366.6102,-20 366.6102,-20 366.6102,-109 366.6102,-109 366.6102,-115 360.6102,-121 354.6102,-121 354.6102,-121 93,-121 93,-121 87,-121 81,-115 81,-109 81,-109 81,-20 81,-20 81,-14 87,-8 93,-8"/>
<text text-anchor="middle" x="223.8051" y="-109" font-family="Arial" font-size="10.00" fill="#000000">uqbar.apis</text>
</g>
<!-- builtins.object&#45;&gt;uqbar.apis.MemberDocumenter.MemberDocumenter -->
<g id="edge4" class="edge">
<title>builtins.object&#45;&gt;uqbar.apis.MemberDocumenter.MemberDocumenter</title>
<path fill="none" stroke="#778899" d="M53.2304,-55C60.6015,-55 69.4541,-55 78.4731,-55"/>
<polygon fill="#778899" stroke="#778899" points="78.6566,-58.5001 88.6565,-55 78.6565,-51.5001 78.6566,-58.5001"/>
</g>
<!-- uqbar.apis.ClassDocumenter.ClassDocumenter&#45;&gt;uqbar.apis.SummarizingClassDocumenter.SummarizingClassDocumenter -->
<g id="edge1" class="edge">
<title>uqbar.apis.ClassDocumenter.ClassDocumenter&#45;&gt;uqbar.apis.SummarizingClassDocumenter.SummarizingClassDocumenter</title>
<path fill="none" stroke="#778899" d="M262.7197,-32.8165C270.7529,-33.3265 279.6421,-33.8909 288.2228,-34.4357"/>
<polygon fill="#778899" stroke="#778899" points="288.2564,-37.9448 298.4581,-35.0856 288.7,-30.9589 288.2564,-37.9448"/>
</g>
<!-- uqbar.apis.MemberDocumenter.MemberDocumenter&#45;&gt;uqbar.apis.ClassDocumenter.ClassDocumenter -->
<g id="edge2" class="edge">
<title>uqbar.apis.MemberDocumenter.MemberDocumenter&#45;&gt;uqbar.apis.ClassDocumenter.ClassDocumenter</title>
<path fill="none" stroke="#778899" d="M166.5505,-46.4709C175.9698,-44.3139 186.1039,-41.9933 195.5849,-39.8221"/>
<polygon fill="#778899" stroke="#778899" points="196.5854,-43.1837 205.5518,-37.5398 195.0228,-36.3603 196.5854,-43.1837"/>
</g>
<!-- uqbar.apis.MemberDocumenter.MemberDocumenter&#45;&gt;uqbar.apis.FunctionDocumenter.FunctionDocumenter -->
<g id="edge3" class="edge">
<title>uqbar.apis.MemberDocumenter.MemberDocumenter&#45;&gt;uqbar.apis.FunctionDocumenter.FunctionDocumenter</title>
<path fill="none" stroke="#778899" d="M166.5505,-63.5291C175.9698,-65.6861 186.1039,-68.0067 195.5849,-70.1779"/>
<polygon fill="#778899" stroke="#778899" points="195.0228,-73.6397 205.5518,-72.4602 196.5854,-66.8163 195.0228,-73.6397"/>
</g>
<!-- builtins.object -->
<g id="node1" class="node">
<title>builtins.object</title>
<g id="a_node1"><a xlink:href="https://docs.python.org/3.6/library/functions.html#object" xlink:title="object" target="_top">
<path fill="#fbb4ae" stroke="#fbb4ae" stroke-width="2" d="M46.6667,-64.5C46.6667,-64.5 22.3333,-64.5 22.3333,-64.5 19.1667,-64.5 16,-61.3333 16,-58.1667 16,-58.1667 16,-51.8333 16,-51.8333 16,-48.6667 19.1667,-45.5 22.3333,-45.5 22.3333,-45.5 46.6667,-45.5 46.6667,-45.5 49.8333,-45.5 53,-48.6667 53,-51.8333 53,-51.8333 53,-58.1667 53,-58.1667 53,-61.3333 49.8333,-64.5 46.6667,-64.5"/>
<text text-anchor="middle" x="34.5" y="-52.5" font-family="Arial" font-size="10.00" fill="#000000">object</text>
</a>
</g>
</g>
<!-- uqbar.apis.ClassDocumenter.ClassDocumenter -->
<g id="node2" class="node">
<title>uqbar.apis.ClassDocumenter.ClassDocumenter</title>
<g id="a_node2"><a xlink:href="../api/uqbar/apis/ClassDocumenter.html#uqbar.apis.ClassDocumenter.ClassDocumenter" xlink:title="Class\nDocumenter" target="_top">
<path fill="#b3cde3" stroke="#b3cde3" stroke-width="2" d="M252.6102,-46C252.6102,-46 215.6102,-46 215.6102,-46 210.6102,-46 205.6102,-41 205.6102,-36 205.6102,-36 205.6102,-26 205.6102,-26 205.6102,-21 210.6102,-16 215.6102,-16 215.6102,-16 252.6102,-16 252.6102,-16 257.6102,-16 262.6102,-21 262.6102,-26 262.6102,-26 262.6102,-36 262.6102,-36 262.6102,-41 257.6102,-46 252.6102,-46"/>
<text text-anchor="middle" x="234.1102" y="-34" font-family="Arial" font-size="10.00" fill="#000000">Class</text>
<text text-anchor="middle" x="234.1102" y="-23" font-family="Arial" font-size="10.00" fill="#000000">Documenter</text>
</a>
</g>
</g>
<!-- uqbar.apis.FunctionDocumenter.FunctionDocumenter -->
<g id="node3" class="node">
<title>uqbar.apis.FunctionDocumenter.FunctionDocumenter</title>
<g id="a_node3"><a xlink:href="../api/uqbar/apis/FunctionDocumenter.html#uqbar.apis.FunctionDocumenter.FunctionDocumenter" xlink:title="Function\nDocumenter" target="_top">
<path fill="#b3cde3" stroke="#b3cde3" stroke-width="2" d="M252.6102,-94C252.6102,-94 215.6102,-94 215.6102,-94 210.6102,-94 205.6102,-89 205.6102,-84 205.6102,-84 205.6102,-74 205.6102,-74 205.6102,-69 210.6102,-64 215.6102,-64 215.6102,-64 252.6102,-64 252.6102,-64 257.6102,-64 262.6102,-69 262.6102,-74 262.6102,-74 262.6102,-84 262.6102,-84 262.6102,-89 257.6102,-94 252.6102,-94"/>
<text text-anchor="middle" x="234.1102" y="-82" font-family="Arial" font-size="10.00" fill="#000000">Function</text>
<text text-anchor="middle" x="234.1102" y="-71" font-family="Arial" font-size="10.00" fill="#000000">Documenter</text>
</a>
</g>
</g>
<!-- uqbar.apis.MemberDocumenter.MemberDocumenter -->
<g id="node4" class="node">
<title>uqbar.apis.MemberDocumenter.MemberDocumenter</title>
<g id="a_node4"><a xlink:href="../api/uqbar/apis/MemberDocumenter.html#uqbar.apis.MemberDocumenter.MemberDocumenter" xlink:title="Member\nDocumenter" target="_top">
<ellipse fill="#000000" stroke="#000000" stroke-width="2" cx="129.3051" cy="-55" rx="40.1111" ry="21.4286"/>
<text text-anchor="middle" x="129.3051" y="-58" font-family="Arial" font-size="10.00" fill="#ffffff">Member</text>
<text text-anchor="middle" x="129.3051" y="-47" font-family="Arial" font-size="10.00" fill="#ffffff">Documenter</text>
</a>
</g>
</g>
<!-- uqbar.apis.SummarizingClassDocumenter.SummarizingClassDocumenter -->
<g id="node5" class="node">
<title>uqbar.apis.SummarizingClassDocumenter.SummarizingClassDocumenter</title>
<g id="a_node5"><a xlink:href="../api/uqbar/apis/SummarizingClassDocumenter.html#uqbar.apis.SummarizingClassDocumenter.SummarizingClassDocumenter" xlink:title="Summarizing\nClass\nDocumenter" target="_top">
<path fill="#b3cde3" stroke="#b3cde3" stroke-width="2" d="M346.6102,-57.5C346.6102,-57.5 310.6102,-57.5 310.6102,-57.5 304.6102,-57.5 298.6102,-51.5 298.6102,-45.5 298.6102,-45.5 298.6102,-28.5 298.6102,-28.5 298.6102,-22.5 304.6102,-16.5 310.6102,-16.5 310.6102,-16.5 346.6102,-16.5 346.6102,-16.5 352.6102,-16.5 358.6102,-22.5 358.6102,-28.5 358.6102,-28.5 358.6102,-45.5 358.6102,-45.5 358.6102,-51.5 352.6102,-57.5 346.6102,-57.5"/>
<text text-anchor="middle" x="328.6102" y="-45.5" font-family="Arial" font-size="10.00" fill="#000000">Summarizing</text>
<text text-anchor="middle" x="328.6102" y="-34.5" font-family="Arial" font-size="10.00" fill="#000000">Class</text>
<text text-anchor="middle" x="328.6102" y="-23.5" font-family="Arial" font-size="10.00" fill="#000000">Documenter</text>
</a>
</g>
</g>
</g>
</svg>
