<?xml version="1.0" encoding="UTF-8" standalone="no"?>
<!DOCTYPE svg PUBLIC "-//W3C//DTD SVG 1.1//EN"
 "http://www.w3.org/Graphics/SVG/1.1/DTD/svg11.dtd">
<!-- Generated by graphviz version 2.44.1 (20200629.0846)
 -->
<!-- Title: InheritanceGraph Pages: 1 -->
<svg width="375pt" height="101pt"
 viewBox="0.00 0.00 375.00 101.00" xmlns="http://www.w3.org/2000/svg" xmlns:xlink="http://www.w3.org/1999/xlink">
<g id="graph0" class="graph" transform="scale(1 1) rotate(0) translate(4 97)">
<title>InheritanceGraph</title>
<g id="clust1" class="cluster">
<title>cluster_builtins</title>
<path fill="transparent" stroke="#bcd2ee" stroke-width="2" stroke-dasharray="5,2" d="M20,-19C20,-19 55,-19 55,-19 61,-19 67,-25 67,-31 67,-31 67,-62 67,-62 67,-68 61,-74 55,-74 55,-74 20,-74 20,-74 14,-74 8,-68 8,-62 8,-62 8,-31 8,-31 8,-25 14,-19 20,-19"/>
<text text-anchor="middle" x="37.5" y="-62" font-family="Arial" font-size="10.00">builtins</text>
</g>
<g id="clust2" class="cluster">
<title>cluster_uqbar.containers</title>
<path fill="transparent" stroke="#bcd2ee" stroke-width="2" stroke-dasharray="5,2" d="M99,-8C99,-8 164,-8 164,-8 170,-8 176,-14 176,-20 176,-20 176,-73 176,-73 176,-79 170,-85 164,-85 164,-85 99,-85 99,-85 93,-85 87,-79 87,-73 87,-73 87,-20 87,-20 87,-14 93,-8 99,-8"/>
<text text-anchor="middle" x="131.5" y="-73" font-family="Arial" font-size="10.00">uqbar.containers</text>
</g>
<g id="clust3" class="cluster">
<title>cluster_uqbar.graphs</title>
<path fill="transparent" stroke="#bcd2ee" stroke-width="2" stroke-dasharray="5,2" d="M208,-15C208,-15 347,-15 347,-15 353,-15 359,-21 359,-27 359,-27 359,-68 359,-68 359,-74 353,-80 347,-80 347,-80 208,-80 208,-80 202,-80 196,-74 196,-68 196,-68 196,-27 196,-27 196,-21 202,-15 208,-15"/>
<text text-anchor="middle" x="277.5" y="-68" font-family="Arial" font-size="10.00">uqbar.graphs</text>
</g>
<!-- builtins.object&#45;&gt;uqbar.containers.UniqueTreeNode.UniqueTreeNode -->
<g id="edge2" class="edge">
<title>builtins.object&#45;&gt;uqbar.containers.UniqueTreeNode.UniqueTreeNode</title>
<path fill="none" stroke="lightslategrey" d="M59.38,-37C70.64,-37 84.81,-37 97.53,-37"/>
<polygon fill="lightslategrey" stroke="lightslategrey" points="97.77,-40.5 107.77,-37 97.77,-33.5 97.77,-40.5"/>
</g>
<!-- uqbar.containers.UniqueTreeNode.UniqueTreeNode&#45;&gt;uqbar.graphs.Attachable.Attachable -->
<g id="edge3" class="edge">
<title>uqbar.containers.UniqueTreeNode.UniqueTreeNode&#45;&gt;uqbar.graphs.Attachable.Attachable</title>
<path fill="none" stroke="lightslategrey" d="M155.14,-37.89C166.44,-38.33 180.46,-38.88 193.56,-39.39"/>
<polygon fill="lightslategrey" stroke="lightslategrey" points="193.67,-42.9 203.8,-39.8 193.95,-35.91 193.67,-42.9"/>
</g>
<!-- uqbar.containers.UniqueTreeNode.UniqueTreeNode&#45;&gt;uqbar.graphs.RecordField.RecordField -->
<g id="edge4" class="edge">
<title>uqbar.containers.UniqueTreeNode.UniqueTreeNode&#45;&gt;uqbar.graphs.RecordField.RecordField</title>
<path fill="none" stroke="lightslategrey" d="M155.23,-30.73C167.24,-27.74 182.31,-24.49 196,-23 227.37,-19.58 235.69,-19.08 267,-23 275.57,-24.07 284.69,-25.99 293.13,-28.1"/>
<polygon fill="lightslategrey" stroke="lightslategrey" points="292.43,-31.54 303,-30.73 294.24,-24.78 292.43,-31.54"/>
</g>
<!-- uqbar.graphs.Attachable.Attachable&#45;&gt;uqbar.graphs.RecordField.RecordField -->
<g id="edge1" class="edge">
<title>uqbar.graphs.Attachable.Attachable&#45;&gt;uqbar.graphs.RecordField.RecordField</title>
<path fill="none" stroke="lightslategrey" d="M267.05,-39.98C275.31,-39.7 284.29,-39.4 292.7,-39.12"/>
<polygon fill="lightslategrey" stroke="lightslategrey" points="293.06,-42.61 302.93,-38.77 292.82,-35.61 293.06,-42.61"/>
</g>
<!-- builtins.object -->
<g id="node1" class="node">
<title>builtins.object</title>
<g id="a_node1"><a xlink:href="https://docs.python.org/3.6/library/functions.html#object" xlink:title="object" target="_top">
<path fill="#fbb4ae" stroke="#fbb4ae" stroke-width="2" d="M52.67,-46.5C52.67,-46.5 22.33,-46.5 22.33,-46.5 19.17,-46.5 16,-43.33 16,-40.17 16,-40.17 16,-33.83 16,-33.83 16,-30.67 19.17,-27.5 22.33,-27.5 22.33,-27.5 52.67,-27.5 52.67,-27.5 55.83,-27.5 59,-30.67 59,-33.83 59,-33.83 59,-40.17 59,-40.17 59,-43.33 55.83,-46.5 52.67,-46.5"/>
<text text-anchor="middle" x="37.5" y="-34.5" font-family="Arial" font-size="10.00">object</text>
</a>
</g>
</g>
<!-- uqbar.containers.UniqueTreeNode.UniqueTreeNode -->
<g id="node2" class="node">
<title>uqbar.containers.UniqueTreeNode.UniqueTreeNode</title>
<g id="a_node2"><a xlink:href="../api/uqbar/graphs/../containers/UniqueTreeNode.html#uqbar.containers.UniqueTreeNode.UniqueTreeNode" xlink:title="Unique\nTree\nNode" target="_top">
<path fill="#b3cde3" stroke="#b3cde3" stroke-width="2" d="M143,-57.5C143,-57.5 120,-57.5 120,-57.5 114,-57.5 108,-51.5 108,-45.5 108,-45.5 108,-28.5 108,-28.5 108,-22.5 114,-16.5 120,-16.5 120,-16.5 143,-16.5 143,-16.5 149,-16.5 155,-22.5 155,-28.5 155,-28.5 155,-45.5 155,-45.5 155,-51.5 149,-57.5 143,-57.5"/>
<text text-anchor="middle" x="131.5" y="-45.5" font-family="Arial" font-size="10.00">Unique</text>
<text text-anchor="middle" x="131.5" y="-34.5" font-family="Arial" font-size="10.00">Tree</text>
<text text-anchor="middle" x="131.5" y="-23.5" font-family="Arial" font-size="10.00">Node</text>
</a>
</g>
</g>
<!-- uqbar.graphs.Attachable.Attachable -->
<g id="node3" class="node">
<title>uqbar.graphs.Attachable.Attachable</title>
<g id="a_node3"><a xlink:href="../api/uqbar/graphs/Attachable.html#uqbar.graphs.Attachable.Attachable" xlink:title="Attachable" target="_top">
<path fill="#ccebc5" stroke="#ccebc5" stroke-width="2" d="M260.67,-50.5C260.67,-50.5 210.33,-50.5 210.33,-50.5 207.17,-50.5 204,-47.33 204,-44.17 204,-44.17 204,-37.83 204,-37.83 204,-34.67 207.17,-31.5 210.33,-31.5 210.33,-31.5 260.67,-31.5 260.67,-31.5 263.83,-31.5 267,-34.67 267,-37.83 267,-37.83 267,-44.17 267,-44.17 267,-47.33 263.83,-50.5 260.67,-50.5"/>
<text text-anchor="middle" x="235.5" y="-38.5" font-family="Arial" font-size="10.00">Attachable</text>
</a>
</g>
</g>
<!-- uqbar.graphs.RecordField.RecordField -->
<g id="node4" class="node">
<title>uqbar.graphs.RecordField.RecordField</title>
<g id="a_node4"><a xlink:href="../api/uqbar/graphs/RecordField.html#uqbar.graphs.RecordField.RecordField" xlink:title="Record\nField" target="_top">
<path fill="black" stroke="black" stroke-width="2" d="M341,-53C341,-53 313,-53 313,-53 308,-53 303,-48 303,-43 303,-43 303,-33 303,-33 303,-28 308,-23 313,-23 313,-23 341,-23 341,-23 346,-23 351,-28 351,-33 351,-33 351,-43 351,-43 351,-48 346,-53 341,-53"/>
<text text-anchor="middle" x="327" y="-41" font-family="Arial" font-size="10.00" fill="white">Record</text>
<text text-anchor="middle" x="327" y="-30" font-family="Arial" font-size="10.00" fill="white">Field</text>
</a>
</g>
</g>
</g>
</svg>
