<?xml version="1.0" encoding="UTF-8" standalone="no"?>
<!DOCTYPE svg PUBLIC "-//W3C//DTD SVG 1.1//EN"
 "http://www.w3.org/Graphics/SVG/1.1/DTD/svg11.dtd">
<!-- Generated by graphviz version 2.40.1 (20161225.0304)
 -->
<!-- Title: InheritanceGraph Pages: 1 -->
<svg width="475pt" height="340pt"
 viewBox="0.00 0.00 475.00 340.00" xmlns="http://www.w3.org/2000/svg" xmlns:xlink="http://www.w3.org/1999/xlink">
<g id="graph0" class="graph" transform="scale(1 1) rotate(0) translate(4 336)">
<title>InheritanceGraph</title>
<g id="clust1" class="cluster">
<title>cluster_builtins</title>
<path fill="transparent" stroke="#bcd2ee" stroke-width="2" stroke-dasharray="5,2" d="M20,-145C20,-145 49,-145 49,-145 55,-145 61,-151 61,-157 61,-157 61,-188 61,-188 61,-194 55,-200 49,-200 49,-200 20,-200 20,-200 14,-200 8,-194 8,-188 8,-188 8,-157 8,-157 8,-151 14,-145 20,-145"/>
<text text-anchor="middle" x="34.5" y="-188" font-family="Arial" font-size="10.00" fill="#000000">builtins</text>
</g>
<g id="clust2" class="cluster">
<title>cluster_uqbar.apis</title>
<path fill="transparent" stroke="#bcd2ee" stroke-width="2" stroke-dasharray="5,2" d="M330,-259C330,-259 368,-259 368,-259 374,-259 380,-265 380,-271 380,-271 380,-312 380,-312 380,-318 374,-324 368,-324 368,-324 330,-324 330,-324 324,-324 318,-318 318,-312 318,-312 318,-271 318,-271 318,-265 324,-259 330,-259"/>
<text text-anchor="middle" x="349" y="-312" font-family="Arial" font-size="10.00" fill="#000000">uqbar.apis</text>
</g>
<g id="clust3" class="cluster">
<title>cluster_uqbar.containers</title>
<path fill="transparent" stroke="#bcd2ee" stroke-width="2" stroke-dasharray="5,2" d="M93,-134C93,-134 286,-134 286,-134 292,-134 298,-140 298,-146 298,-146 298,-199 298,-199 298,-205 292,-211 286,-211 286,-211 93,-211 93,-211 87,-211 81,-205 81,-199 81,-199 81,-146 81,-146 81,-140 87,-134 93,-134"/>
<text text-anchor="middle" x="189.5" y="-199" font-family="Arial" font-size="10.00" fill="#000000">uqbar.containers</text>
</g>
<g id="clust4" class="cluster">
<title>cluster_uqbar.graphs</title>
<path fill="transparent" stroke="#bcd2ee" stroke-width="2" stroke-dasharray="5,2" d="M412,-8C412,-8 449,-8 449,-8 455,-8 461,-14 461,-20 461,-20 461,-270 461,-270 461,-276 455,-282 449,-282 449,-282 412,-282 412,-282 406,-282 400,-276 400,-270 400,-270 400,-20 400,-20 400,-14 406,-8 412,-8"/>
<text text-anchor="middle" x="430.5" y="-270" font-family="Arial" font-size="10.00" fill="#000000">uqbar.graphs</text>
</g>
<!-- builtins.object&#45;&gt;uqbar.containers.UniqueTreeNode.UniqueTreeNode -->
<g id="edge3" class="edge">
<title>builtins.object&#45;&gt;uqbar.containers.UniqueTreeNode.UniqueTreeNode</title>
<path fill="none" stroke="#778899" d="M53.2995,-163C61.0221,-163 70.1602,-163 78.7776,-163"/>
<polygon fill="#778899" stroke="#778899" points="78.9006,-166.5001 88.9006,-163 78.9005,-159.5001 78.9006,-166.5001"/>
</g>
<!-- uqbar.containers.UniqueTreeContainer.UniqueTreeContainer&#45;&gt;uqbar.containers.UniqueTreeList.UniqueTreeList -->
<g id="edge1" class="edge">
<title>uqbar.containers.UniqueTreeContainer.UniqueTreeContainer&#45;&gt;uqbar.containers.UniqueTreeList.UniqueTreeList</title>
<path fill="none" stroke="#778899" d="M214.0901,-163C222.1527,-163 231.2086,-163 239.6459,-163"/>
<polygon fill="#778899" stroke="#778899" points="239.8812,-166.5001 249.8811,-163 239.8811,-159.5001 239.8812,-166.5001"/>
</g>
<!-- uqbar.containers.UniqueTreeList.UniqueTreeList&#45;&gt;uqbar.apis.PackageNode.PackageNode -->
<g id="edge4" class="edge">
<title>uqbar.containers.UniqueTreeList.UniqueTreeList&#45;&gt;uqbar.apis.PackageNode.PackageNode</title>
<path fill="none" stroke="#778899" d="M278.7179,-183.8031C287.2217,-202.822 301.2943,-231.2214 318,-253 319.7662,-255.3025 321.7224,-257.5827 323.7685,-259.7931"/>
<polygon fill="#778899" stroke="#778899" points="321.3856,-262.3603 330.9252,-266.9699 326.3423,-257.4175 321.3856,-262.3603"/>
</g>
<!-- uqbar.containers.UniqueTreeList.UniqueTreeList&#45;&gt;uqbar.graphs.Graph.Graph -->
<g id="edge5" class="edge">
<title>uqbar.containers.UniqueTreeList.UniqueTreeList&#45;&gt;uqbar.graphs.Graph.Graph</title>
<path fill="none" stroke="#778899" d="M290.1497,-180.5287C298.4191,-187.1781 308.3134,-194.4718 318,-200 345.2142,-215.5314 378.8471,-228.2239 402.2153,-236.1229"/>
<polygon fill="#778899" stroke="#778899" points="401.2679,-239.4959 411.8611,-239.3083 403.463,-232.8489 401.2679,-239.4959"/>
</g>
<!-- uqbar.containers.UniqueTreeList.UniqueTreeList&#45;&gt;uqbar.graphs.Node.Node -->
<g id="edge6" class="edge">
<title>uqbar.containers.UniqueTreeList.UniqueTreeList&#45;&gt;uqbar.graphs.Node.Node</title>
<path fill="none" stroke="#778899" d="M290.0275,-169.4661C298.6152,-172.1849 308.7748,-175.3298 318,-178 346.9985,-186.3934 380.4508,-195.2039 403.2908,-201.0881"/>
<polygon fill="#778899" stroke="#778899" points="402.7281,-204.557 413.2841,-203.6504 404.4667,-197.7763 402.7281,-204.557"/>
</g>
<!-- uqbar.containers.UniqueTreeList.UniqueTreeList&#45;&gt;uqbar.graphs.RecordGroup.RecordGroup -->
<g id="edge7" class="edge">
<title>uqbar.containers.UniqueTreeList.UniqueTreeList&#45;&gt;uqbar.graphs.RecordGroup.RecordGroup</title>
<path fill="none" stroke="#778899" d="M290.0029,-163.2493C317.5598,-163.5926 367.4523,-164.2144 399.7646,-164.617"/>
<polygon fill="#778899" stroke="#778899" points="399.9482,-168.1195 409.991,-164.7444 400.0355,-161.12 399.9482,-168.1195"/>
</g>
<!-- uqbar.containers.UniqueTreeList.UniqueTreeList&#45;&gt;uqbar.graphs.Table.Table -->
<g id="edge8" class="edge">
<title>uqbar.containers.UniqueTreeList.UniqueTreeList&#45;&gt;uqbar.graphs.Table.Table</title>
<path fill="none" stroke="#778899" d="M290.0029,-157.8902C318.3903,-150.6386 370.4798,-137.3323 402.637,-129.1177"/>
<polygon fill="#778899" stroke="#778899" points="403.8927,-132.4094 412.7153,-126.5431 402.1601,-125.6271 403.8927,-132.4094"/>
</g>
<!-- uqbar.containers.UniqueTreeList.UniqueTreeList&#45;&gt;uqbar.graphs.TableCell.TableCell -->
<g id="edge9" class="edge">
<title>uqbar.containers.UniqueTreeList.UniqueTreeList&#45;&gt;uqbar.graphs.TableCell.TableCell</title>
<path fill="none" stroke="#778899" d="M290.1163,-148.5798C298.5448,-142.8061 308.5624,-136.285 318,-131 346.2915,-115.1568 380.2591,-99.9468 403.4162,-90.1146"/>
<polygon fill="#778899" stroke="#778899" points="405.0681,-93.2171 412.9331,-86.1184 402.3579,-86.763 405.0681,-93.2171"/>
</g>
<!-- uqbar.containers.UniqueTreeList.UniqueTreeList&#45;&gt;uqbar.graphs.TableRow.TableRow -->
<g id="edge10" class="edge">
<title>uqbar.containers.UniqueTreeList.UniqueTreeList&#45;&gt;uqbar.graphs.TableRow.TableRow</title>
<path fill="none" stroke="#778899" d="M281.959,-142.2282C290.696,-128.283 303.5124,-110.1299 318,-97 343.8072,-73.6112 379.2138,-54.5025 403.369,-42.9737"/>
<polygon fill="#778899" stroke="#778899" points="405.0697,-46.0426 412.6579,-38.6487 402.115,-39.6968 405.0697,-46.0426"/>
</g>
<!-- uqbar.containers.UniqueTreeNode.UniqueTreeNode&#45;&gt;uqbar.containers.UniqueTreeContainer.UniqueTreeContainer -->
<g id="edge2" class="edge">
<title>uqbar.containers.UniqueTreeNode.UniqueTreeNode&#45;&gt;uqbar.containers.UniqueTreeContainer.UniqueTreeContainer</title>
<path fill="none" stroke="#778899" d="M129.3135,-163C136.9959,-163 145.9745,-163 154.617,-163"/>
<polygon fill="#778899" stroke="#778899" points="154.8826,-166.5001 164.8825,-163 154.8825,-159.5001 154.8826,-166.5001"/>
</g>
<!-- builtins.object -->
<g id="node1" class="node">
<title>builtins.object</title>
<g id="a_node1"><a xlink:href="https://docs.python.org/3.6/library/functions.html#object" xlink:title="object" target="_top">
<path fill="#fbb4ae" stroke="#fbb4ae" stroke-width="2" d="M46.6667,-172.5C46.6667,-172.5 22.3333,-172.5 22.3333,-172.5 19.1667,-172.5 16,-169.3333 16,-166.1667 16,-166.1667 16,-159.8333 16,-159.8333 16,-156.6667 19.1667,-153.5 22.3333,-153.5 22.3333,-153.5 46.6667,-153.5 46.6667,-153.5 49.8333,-153.5 53,-156.6667 53,-159.8333 53,-159.8333 53,-166.1667 53,-166.1667 53,-169.3333 49.8333,-172.5 46.6667,-172.5"/>
<text text-anchor="middle" x="34.5" y="-160.5" font-family="Arial" font-size="10.00" fill="#000000">object</text>
</a>
</g>
</g>
<!-- uqbar.apis.PackageNode.PackageNode -->
<g id="node2" class="node">
<title>uqbar.apis.PackageNode.PackageNode</title>
<g id="a_node2"><a xlink:href="../api/uqbar/containers/../apis/PackageNode.html#uqbar.apis.PackageNode.PackageNode" xlink:title="Package\nNode" target="_top">
<path fill="#b3cde3" stroke="#b3cde3" stroke-width="2" d="M362,-297C362,-297 336,-297 336,-297 331,-297 326,-292 326,-287 326,-287 326,-277 326,-277 326,-272 331,-267 336,-267 336,-267 362,-267 362,-267 367,-267 372,-272 372,-277 372,-277 372,-287 372,-287 372,-292 367,-297 362,-297"/>
<text text-anchor="middle" x="349" y="-285" font-family="Arial" font-size="10.00" fill="#000000">Package</text>
<text text-anchor="middle" x="349" y="-274" font-family="Arial" font-size="10.00" fill="#000000">Node</text>
</a>
</g>
</g>
<!-- uqbar.containers.UniqueTreeContainer.UniqueTreeContainer -->
<g id="node3" class="node">
<title>uqbar.containers.UniqueTreeContainer.UniqueTreeContainer</title>
<g id="a_node3"><a xlink:href="../api/uqbar/containers/UniqueTreeContainer.html#uqbar.containers.UniqueTreeContainer.UniqueTreeContainer" xlink:title="Unique\nTree\nContainer" target="_top">
<path fill="#ccebc5" stroke="#ccebc5" stroke-width="2" d="M202,-183.5C202,-183.5 177,-183.5 177,-183.5 171,-183.5 165,-177.5 165,-171.5 165,-171.5 165,-154.5 165,-154.5 165,-148.5 171,-142.5 177,-142.5 177,-142.5 202,-142.5 202,-142.5 208,-142.5 214,-148.5 214,-154.5 214,-154.5 214,-171.5 214,-171.5 214,-177.5 208,-183.5 202,-183.5"/>
<text text-anchor="middle" x="189.5" y="-171.5" font-family="Arial" font-size="10.00" fill="#000000">Unique</text>
<text text-anchor="middle" x="189.5" y="-160.5" font-family="Arial" font-size="10.00" fill="#000000">Tree</text>
<text text-anchor="middle" x="189.5" y="-149.5" font-family="Arial" font-size="10.00" fill="#000000">Container</text>
</a>
</g>
</g>
<!-- uqbar.containers.UniqueTreeList.UniqueTreeList -->
<g id="node4" class="node">
<title>uqbar.containers.UniqueTreeList.UniqueTreeList</title>
<g id="a_node4"><a xlink:href="../api/uqbar/containers/UniqueTreeList.html#uqbar.containers.UniqueTreeList.UniqueTreeList" xlink:title="Unique\nTree\nList" target="_top">
<path fill="#000000" stroke="#000000" stroke-width="2" d="M278,-183.5C278,-183.5 262,-183.5 262,-183.5 256,-183.5 250,-177.5 250,-171.5 250,-171.5 250,-154.5 250,-154.5 250,-148.5 256,-142.5 262,-142.5 262,-142.5 278,-142.5 278,-142.5 284,-142.5 290,-148.5 290,-154.5 290,-154.5 290,-171.5 290,-171.5 290,-177.5 284,-183.5 278,-183.5"/>
<text text-anchor="middle" x="270" y="-171.5" font-family="Arial" font-size="10.00" fill="#ffffff">Unique</text>
<text text-anchor="middle" x="270" y="-160.5" font-family="Arial" font-size="10.00" fill="#ffffff">Tree</text>
<text text-anchor="middle" x="270" y="-149.5" font-family="Arial" font-size="10.00" fill="#ffffff">List</text>
</a>
</g>
</g>
<!-- uqbar.containers.UniqueTreeNode.UniqueTreeNode -->
<g id="node5" class="node">
<title>uqbar.containers.UniqueTreeNode.UniqueTreeNode</title>
<g id="a_node5"><a xlink:href="../api/uqbar/containers/UniqueTreeNode.html#uqbar.containers.UniqueTreeNode.UniqueTreeNode" xlink:title="Unique\nTree\nNode" target="_top">
<path fill="#ccebc5" stroke="#ccebc5" stroke-width="2" d="M117,-183.5C117,-183.5 101,-183.5 101,-183.5 95,-183.5 89,-177.5 89,-171.5 89,-171.5 89,-154.5 89,-154.5 89,-148.5 95,-142.5 101,-142.5 101,-142.5 117,-142.5 117,-142.5 123,-142.5 129,-148.5 129,-154.5 129,-154.5 129,-171.5 129,-171.5 129,-177.5 123,-183.5 117,-183.5"/>
<text text-anchor="middle" x="109" y="-171.5" font-family="Arial" font-size="10.00" fill="#000000">Unique</text>
<text text-anchor="middle" x="109" y="-160.5" font-family="Arial" font-size="10.00" fill="#000000">Tree</text>
<text text-anchor="middle" x="109" y="-149.5" font-family="Arial" font-size="10.00" fill="#000000">Node</text>
</a>
</g>
</g>
<!-- uqbar.graphs.Graph.Graph -->
<g id="node6" class="node">
<title>uqbar.graphs.Graph.Graph</title>
<g id="a_node6"><a xlink:href="../api/uqbar/containers/../graphs/Graph.html#uqbar.graphs.Graph.Graph" xlink:title="Graph" target="_top">
<path fill="#decbe4" stroke="#decbe4" stroke-width="2" d="M442.6667,-254.5C442.6667,-254.5 418.3333,-254.5 418.3333,-254.5 415.1667,-254.5 412,-251.3333 412,-248.1667 412,-248.1667 412,-241.8333 412,-241.8333 412,-238.6667 415.1667,-235.5 418.3333,-235.5 418.3333,-235.5 442.6667,-235.5 442.6667,-235.5 445.8333,-235.5 449,-238.6667 449,-241.8333 449,-241.8333 449,-248.1667 449,-248.1667 449,-251.3333 445.8333,-254.5 442.6667,-254.5"/>
<text text-anchor="middle" x="430.5" y="-242.5" font-family="Arial" font-size="10.00" fill="#000000">Graph</text>
</a>
</g>
</g>
<!-- uqbar.graphs.Node.Node -->
<g id="node7" class="node">
<title>uqbar.graphs.Node.Node</title>
<g id="a_node7"><a xlink:href="../api/uqbar/containers/../graphs/Node.html#uqbar.graphs.Node.Node" xlink:title="Node" target="_top">
<path fill="#decbe4" stroke="#decbe4" stroke-width="2" d="M441.1667,-217.5C441.1667,-217.5 419.8333,-217.5 419.8333,-217.5 416.6667,-217.5 413.5,-214.3333 413.5,-211.1667 413.5,-211.1667 413.5,-204.8333 413.5,-204.8333 413.5,-201.6667 416.6667,-198.5 419.8333,-198.5 419.8333,-198.5 441.1667,-198.5 441.1667,-198.5 444.3333,-198.5 447.5,-201.6667 447.5,-204.8333 447.5,-204.8333 447.5,-211.1667 447.5,-211.1667 447.5,-214.3333 444.3333,-217.5 441.1667,-217.5"/>
<text text-anchor="middle" x="430.5" y="-205.5" font-family="Arial" font-size="10.00" fill="#000000">Node</text>
</a>
</g>
</g>
<!-- uqbar.graphs.RecordGroup.RecordGroup -->
<g id="node8" class="node">
<title>uqbar.graphs.RecordGroup.RecordGroup</title>
<g id="a_node8"><a xlink:href="../api/uqbar/containers/../graphs/RecordGroup.html#uqbar.graphs.RecordGroup.RecordGroup" xlink:title="Record\nGroup" target="_top">
<path fill="#decbe4" stroke="#decbe4" stroke-width="2" d="M441,-180C441,-180 420,-180 420,-180 415,-180 410,-175 410,-170 410,-170 410,-160 410,-160 410,-155 415,-150 420,-150 420,-150 441,-150 441,-150 446,-150 451,-155 451,-160 451,-160 451,-170 451,-170 451,-175 446,-180 441,-180"/>
<text text-anchor="middle" x="430.5" y="-168" font-family="Arial" font-size="10.00" fill="#000000">Record</text>
<text text-anchor="middle" x="430.5" y="-157" font-family="Arial" font-size="10.00" fill="#000000">Group</text>
</a>
</g>
</g>
<!-- uqbar.graphs.Table.Table -->
<g id="node9" class="node">
<title>uqbar.graphs.Table.Table</title>
<g id="a_node9"><a xlink:href="../api/uqbar/containers/../graphs/Table.html#uqbar.graphs.Table.Table" xlink:title="Table" target="_top">
<path fill="#decbe4" stroke="#decbe4" stroke-width="2" d="M441.6667,-131.5C441.6667,-131.5 419.3333,-131.5 419.3333,-131.5 416.1667,-131.5 413,-128.3333 413,-125.1667 413,-125.1667 413,-118.8333 413,-118.8333 413,-115.6667 416.1667,-112.5 419.3333,-112.5 419.3333,-112.5 441.6667,-112.5 441.6667,-112.5 444.8333,-112.5 448,-115.6667 448,-118.8333 448,-118.8333 448,-125.1667 448,-125.1667 448,-128.3333 444.8333,-131.5 441.6667,-131.5"/>
<text text-anchor="middle" x="430.5" y="-119.5" font-family="Arial" font-size="10.00" fill="#000000">Table</text>
</a>
</g>
</g>
<!-- uqbar.graphs.TableCell.TableCell -->
<g id="node10" class="node">
<title>uqbar.graphs.TableCell.TableCell</title>
<g id="a_node10"><a xlink:href="../api/uqbar/containers/../graphs/TableCell.html#uqbar.graphs.TableCell.TableCell" xlink:title="Table\nCell" target="_top">
<path fill="#decbe4" stroke="#decbe4" stroke-width="2" d="M438,-94C438,-94 423,-94 423,-94 418,-94 413,-89 413,-84 413,-84 413,-74 413,-74 413,-69 418,-64 423,-64 423,-64 438,-64 438,-64 443,-64 448,-69 448,-74 448,-74 448,-84 448,-84 448,-89 443,-94 438,-94"/>
<text text-anchor="middle" x="430.5" y="-82" font-family="Arial" font-size="10.00" fill="#000000">Table</text>
<text text-anchor="middle" x="430.5" y="-71" font-family="Arial" font-size="10.00" fill="#000000">Cell</text>
</a>
</g>
</g>
<!-- uqbar.graphs.TableRow.TableRow -->
<g id="node11" class="node">
<title>uqbar.graphs.TableRow.TableRow</title>
<g id="a_node11"><a xlink:href="../api/uqbar/containers/../graphs/TableRow.html#uqbar.graphs.TableRow.TableRow" xlink:title="Table\nRow" target="_top">
<path fill="#decbe4" stroke="#decbe4" stroke-width="2" d="M438,-46C438,-46 423,-46 423,-46 418,-46 413,-41 413,-36 413,-36 413,-26 413,-26 413,-21 418,-16 423,-16 423,-16 438,-16 438,-16 443,-16 448,-21 448,-26 448,-26 448,-36 448,-36 448,-41 443,-46 438,-46"/>
<text text-anchor="middle" x="430.5" y="-34" font-family="Arial" font-size="10.00" fill="#000000">Table</text>
<text text-anchor="middle" x="430.5" y="-23" font-family="Arial" font-size="10.00" fill="#000000">Row</text>
</a>
</g>
</g>
</g>
</svg>
