<?xml version="1.0" encoding="UTF-8" standalone="no"?>
<!DOCTYPE svg PUBLIC "-//W3C//DTD SVG 1.1//EN"
 "http://www.w3.org/Graphics/SVG/1.1/DTD/svg11.dtd">
<!-- Generated by graphviz version 2.40.1 (20161225.0304)
 -->
<!-- Title: InheritanceGraph Pages: 1 -->
<svg width="689pt" height="677pt"
 viewBox="0.00 0.00 688.87 677.00" xmlns="http://www.w3.org/2000/svg" xmlns:xlink="http://www.w3.org/1999/xlink">
<g id="graph0" class="graph" transform="scale(1 1) rotate(0) translate(4 672.9997)">
<title>InheritanceGraph</title>
<g id="clust1" class="cluster">
<title>cluster_collections.abc</title>
<path fill="transparent" stroke="#bcd2ee" stroke-width="2" stroke-dasharray="5,2" d="M130,-492.5353C130,-492.5353 495.8721,-492.5353 495.8721,-492.5353 501.8721,-492.5353 507.8721,-498.5353 507.8721,-504.5353 507.8721,-504.5353 507.8721,-631.5353 507.8721,-631.5353 507.8721,-637.5353 501.8721,-643.5353 495.8721,-643.5353 495.8721,-643.5353 130,-643.5353 130,-643.5353 124,-643.5353 118,-637.5353 118,-631.5353 118,-631.5353 118,-504.5353 118,-504.5353 118,-498.5353 124,-492.5353 130,-492.5353"/>
<text text-anchor="middle" x="312.9361" y="-631.5353" font-family="Arial" font-size="10.00" fill="#000000">collections.abc</text>
</g>
<g id="clust2" class="cluster">
<title>cluster_builtins</title>
<path fill="transparent" stroke="#bcd2ee" stroke-width="2" stroke-dasharray="5,2" d="M20,-518.5353C20,-518.5353 49,-518.5353 49,-518.5353 55,-518.5353 61,-524.5353 61,-530.5353 61,-530.5353 61,-561.5353 61,-561.5353 61,-567.5353 55,-573.5353 49,-573.5353 49,-573.5353 20,-573.5353 20,-573.5353 14,-573.5353 8,-567.5353 8,-561.5353 8,-561.5353 8,-530.5353 8,-530.5353 8,-524.5353 14,-518.5353 20,-518.5353"/>
<text text-anchor="middle" x="34.5" y="-561.5353" font-family="Arial" font-size="10.00" fill="#000000">builtins</text>
</g>
<g id="clust3" class="cluster">
<title>cluster_uqbar.containers</title>
<path fill="transparent" stroke="#bcd2ee" stroke-width="2" stroke-dasharray="5,2" d="M249.9447,-166.5353C249.9447,-166.5353 388.9127,-166.5353 388.9127,-166.5353 394.9127,-166.5353 400.9127,-172.5353 400.9127,-178.5353 400.9127,-178.5353 400.9127,-231.5353 400.9127,-231.5353 400.9127,-237.5353 394.9127,-243.5353 388.9127,-243.5353 388.9127,-243.5353 249.9447,-243.5353 249.9447,-243.5353 243.9447,-243.5353 237.9447,-237.5353 237.9447,-231.5353 237.9447,-231.5353 237.9447,-178.5353 237.9447,-178.5353 237.9447,-172.5353 243.9447,-166.5353 249.9447,-166.5353"/>
<text text-anchor="middle" x="319.4287" y="-231.5353" font-family="Arial" font-size="10.00" fill="#000000">uqbar.containers</text>
</g>
<g id="clust4" class="cluster">
<title>cluster_uqbar.graphs</title>
<path fill="transparent" stroke="#bcd2ee" stroke-width="2" stroke-dasharray="5,2" d="M539.8721,-20.5353C539.8721,-20.5353 660.8721,-20.5353 660.8721,-20.5353 666.8721,-20.5353 672.8721,-26.5353 672.8721,-32.5353 672.8721,-32.5353 672.8721,-543.5353 672.8721,-543.5353 672.8721,-549.5353 666.8721,-555.5353 660.8721,-555.5353 660.8721,-555.5353 539.8721,-555.5353 539.8721,-555.5353 533.8721,-555.5353 527.8721,-549.5353 527.8721,-543.5353 527.8721,-543.5353 527.8721,-32.5353 527.8721,-32.5353 527.8721,-26.5353 533.8721,-20.5353 539.8721,-20.5353"/>
<text text-anchor="middle" x="600.3721" y="-543.5353" font-family="Arial" font-size="10.00" fill="#000000">uqbar.graphs</text>
</g>
<!-- collections.abc.Collection&#45;&gt;collections.abc.Mapping -->
<g id="edge1" class="edge">
<title>collections.abc.Collection&#45;&gt;collections.abc.Mapping</title>
<path fill="none" stroke="#778899" d="M300.3501,-551.8564C308.7914,-551.4445 317.9184,-550.9992 326.6633,-550.5725"/>
<polygon fill="#778899" stroke="#778899" points="326.8722,-554.0665 336.6897,-550.0832 326.5309,-547.0748 326.8722,-554.0665"/>
</g>
<!-- collections.abc.Mapping&#45;&gt;collections.abc.MutableMapping -->
<g id="edge4" class="edge">
<title>collections.abc.Mapping&#45;&gt;collections.abc.MutableMapping</title>
<path fill="none" stroke="#778899" d="M399.6659,-545.7123C408.0342,-544.9564 417.218,-544.1269 426.0639,-543.3279"/>
<polygon fill="#778899" stroke="#778899" points="426.5794,-546.7957 436.2239,-542.4102 425.9496,-539.8241 426.5794,-546.7957"/>
</g>
<!-- collections.abc.Container&#45;&gt;collections.abc.Collection -->
<g id="edge2" class="edge">
<title>collections.abc.Container&#45;&gt;collections.abc.Collection</title>
<path fill="none" stroke="#778899" d="M185.602,-523.0147C199.3711,-528.2453 216.673,-534.8179 231.691,-540.523"/>
<polygon fill="#778899" stroke="#778899" points="230.5789,-543.8445 241.17,-544.1239 233.0647,-537.3007 230.5789,-543.8445"/>
</g>
<!-- collections.abc.Iterable&#45;&gt;collections.abc.Collection -->
<g id="edge3" class="edge">
<title>collections.abc.Iterable&#45;&gt;collections.abc.Collection</title>
<path fill="none" stroke="#778899" d="M181.2004,-593.7761C196.4509,-586.5344 217.5117,-576.5337 234.822,-568.3139"/>
<polygon fill="#778899" stroke="#778899" points="236.4603,-571.4105 243.9923,-563.9594 233.4576,-565.0872 236.4603,-571.4105"/>
</g>
<!-- collections.abc.MutableMapping&#45;&gt;uqbar.graphs.Attributes.Attributes -->
<g id="edge15" class="edge">
<title>collections.abc.MutableMapping&#45;&gt;uqbar.graphs.Attributes.Attributes</title>
<path fill="none" stroke="#778899" d="M490.5458,-524.3517C501.6647,-516.9799 515.3523,-508.1027 527.8721,-500.5353 530.2321,-499.1088 532.7031,-497.6547 535.1897,-496.2178"/>
<polygon fill="#778899" stroke="#778899" points="537.1204,-499.1467 544.094,-491.1705 533.6685,-493.057 537.1204,-499.1467"/>
</g>
<!-- collections.abc.Sized&#45;&gt;collections.abc.Collection -->
<g id="edge5" class="edge">
<title>collections.abc.Sized&#45;&gt;collections.abc.Collection</title>
<path fill="none" stroke="#778899" d="M185.3356,-557.363C196.0681,-556.8533 208.9845,-556.24 221.3023,-555.6551"/>
<polygon fill="#778899" stroke="#778899" points="221.6246,-559.1438 231.4473,-555.1734 221.2925,-552.1517 221.6246,-559.1438"/>
</g>
<!-- builtins.object&#45;&gt;collections.abc.Container -->
<g id="edge9" class="edge">
<title>builtins.object&#45;&gt;collections.abc.Container</title>
<path fill="none" stroke="#778899" d="M53.1136,-533.1415C70.4681,-529.9774 96.9593,-525.1473 119.305,-521.0732"/>
<polygon fill="#778899" stroke="#778899" points="120.0224,-524.5001 129.2325,-519.2631 118.7668,-517.6137 120.0224,-524.5001"/>
</g>
<!-- builtins.object&#45;&gt;collections.abc.Iterable -->
<g id="edge10" class="edge">
<title>builtins.object&#45;&gt;collections.abc.Iterable</title>
<path fill="none" stroke="#778899" d="M52.574,-546.1347C73.3836,-557.1872 107.8292,-575.482 132.2341,-588.4439"/>
<polygon fill="#778899" stroke="#778899" points="130.8934,-591.6948 141.3667,-593.2945 134.1769,-585.5127 130.8934,-591.6948"/>
</g>
<!-- builtins.object&#45;&gt;collections.abc.Sized -->
<g id="edge11" class="edge">
<title>builtins.object&#45;&gt;collections.abc.Sized</title>
<path fill="none" stroke="#778899" d="M53.1136,-539.7814C72.4567,-543.1548 103.1504,-548.5078 126.8033,-552.6328"/>
<polygon fill="#778899" stroke="#778899" points="126.329,-556.1028 136.7817,-554.373 127.5317,-549.2069 126.329,-556.1028"/>
</g>
<!-- builtins.object&#45;&gt;uqbar.containers.UniqueTreeNode.UniqueTreeNode -->
<g id="edge12" class="edge">
<title>builtins.object&#45;&gt;uqbar.containers.UniqueTreeNode.UniqueTreeNode</title>
<path fill="none" stroke="#778899" d="M41.1771,-526.6975C71.4558,-482.0863 196.5143,-297.8309 245.825,-225.1787"/>
<polygon fill="#778899" stroke="#778899" points="249.0031,-226.7286 251.723,-216.4888 243.2111,-222.7975 249.0031,-226.7286"/>
</g>
<!-- builtins.object&#45;&gt;uqbar.graphs.Edge.Edge -->
<g id="edge13" class="edge">
<title>builtins.object&#45;&gt;uqbar.graphs.Edge.Edge</title>
<path fill="none" stroke="#778899" d="M38.606,-546.3438C51.6683,-575.8114 95.2851,-661.5353 160.6482,-661.5353 160.6482,-661.5353 160.6482,-661.5353 368.4127,-661.5353 430.7062,-661.5353 457.803,-684.5968 507.8721,-647.5353 543.1887,-621.3937 555.5592,-567.7436 559.7766,-538.5434"/>
<polygon fill="#778899" stroke="#778899" points="563.2859,-538.6872 561.0597,-528.329 556.3405,-537.8147 563.2859,-538.6872"/>
</g>
<!-- builtins.object&#45;&gt;uqbar.graphs.Grapher.Grapher -->
<g id="edge14" class="edge">
<title>builtins.object&#45;&gt;uqbar.graphs.Grapher.Grapher</title>
<path fill="none" stroke="#778899" d="M45.0478,-526.815C65.6205,-508.9112 113.2512,-472.5353 160.6482,-472.5353 160.6482,-472.5353 160.6482,-472.5353 368.4127,-472.5353 425.6451,-472.5353 491.4283,-460.384 529.6589,-452.0911"/>
<polygon fill="#778899" stroke="#778899" points="530.6767,-455.4505 539.6813,-449.8678 529.1606,-448.6167 530.6767,-455.4505"/>
</g>
<!-- uqbar.containers.UniqueTreeContainer.UniqueTreeContainer&#45;&gt;uqbar.graphs.TableCell.TableCell -->
<g id="edge20" class="edge">
<title>uqbar.containers.UniqueTreeContainer.UniqueTreeContainer&#45;&gt;uqbar.graphs.TableCell.TableCell</title>
<path fill="none" stroke="#778899" d="M372.8122,-174.9749C380.4482,-144.1339 399.033,-85.9568 436.2325,-52.5353 487.4701,-6.5014 532.7189,20.7264 587.8721,-20.5353 614.7808,-40.6664 633.2826,-139.9932 640.7191,-187.3424"/>
<polygon fill="#778899" stroke="#778899" points="637.2852,-188.0418 642.2542,-197.3991 644.205,-186.9854 637.2852,-188.0418"/>
</g>
<!-- uqbar.containers.UniqueTreeContainer.UniqueTreeContainer&#45;&gt;uqbar.graphs.Graph.Graph -->
<g id="edge16" class="edge">
<title>uqbar.containers.UniqueTreeContainer.UniqueTreeContainer&#45;&gt;uqbar.graphs.Graph.Graph</title>
<path fill="none" stroke="#778899" d="M392.9145,-191.2291C428.788,-184.9245 495.4545,-173.208 533.4383,-166.5324"/>
<polygon fill="#778899" stroke="#778899" points="534.0984,-169.9701 543.3416,-164.792 532.8867,-163.0758 534.0984,-169.9701"/>
</g>
<!-- uqbar.containers.UniqueTreeContainer.UniqueTreeContainer&#45;&gt;uqbar.graphs.Node.Node -->
<g id="edge17" class="edge">
<title>uqbar.containers.UniqueTreeContainer.UniqueTreeContainer&#45;&gt;uqbar.graphs.Node.Node</title>
<path fill="none" stroke="#778899" d="M393.0698,-184.9256C405.8709,-179.5271 421.8108,-172.9743 436.2325,-167.5353 469.98,-154.8077 509.4018,-141.5773 534.9593,-133.2119"/>
<polygon fill="#778899" stroke="#778899" points="536.2578,-136.47 544.6824,-130.0453 534.0901,-129.8141 536.2578,-136.47"/>
</g>
<!-- uqbar.containers.UniqueTreeContainer.UniqueTreeContainer&#45;&gt;uqbar.graphs.RecordGroup.RecordGroup -->
<g id="edge18" class="edge">
<title>uqbar.containers.UniqueTreeContainer.UniqueTreeContainer&#45;&gt;uqbar.graphs.RecordGroup.RecordGroup</title>
<path fill="none" stroke="#778899" d="M389.1531,-175.032C401.9819,-163.0802 419.2047,-148.2916 436.2325,-137.5353 466.8466,-118.1965 505.272,-102.1206 531.5155,-92.2267"/>
<polygon fill="#778899" stroke="#778899" points="532.77,-95.4945 540.9354,-88.7436 530.3422,-88.929 532.77,-95.4945"/>
</g>
<!-- uqbar.containers.UniqueTreeContainer.UniqueTreeContainer&#45;&gt;uqbar.graphs.Table.Table -->
<g id="edge19" class="edge">
<title>uqbar.containers.UniqueTreeContainer.UniqueTreeContainer&#45;&gt;uqbar.graphs.Table.Table</title>
<path fill="none" stroke="#778899" d="M378.5674,-174.7569C390.0313,-153.0932 410.4861,-119.3196 436.2325,-97.5353 465.5947,-72.6916 507.1824,-55.8922 534.3374,-46.7635"/>
<polygon fill="#778899" stroke="#778899" points="535.5475,-50.0507 543.9825,-43.6397 533.3906,-43.3912 535.5475,-50.0507"/>
</g>
<!-- uqbar.containers.UniqueTreeContainer.UniqueTreeContainer&#45;&gt;uqbar.graphs.TableRow.TableRow -->
<g id="edge21" class="edge">
<title>uqbar.containers.UniqueTreeContainer.UniqueTreeContainer&#45;&gt;uqbar.graphs.TableRow.TableRow</title>
<path fill="none" stroke="#778899" d="M392.9145,-196.6751C428.9124,-198.3498 495.9169,-201.4669 533.8321,-203.2308"/>
<polygon fill="#778899" stroke="#778899" points="534.0002,-206.7423 544.1521,-203.7109 534.3256,-199.7499 534.0002,-206.7423"/>
</g>
<!-- uqbar.containers.UniqueTreeNode.UniqueTreeNode&#45;&gt;uqbar.containers.UniqueTreeContainer.UniqueTreeContainer -->
<g id="edge6" class="edge">
<title>uqbar.containers.UniqueTreeNode.UniqueTreeNode&#45;&gt;uqbar.containers.UniqueTreeContainer.UniqueTreeContainer</title>
<path fill="none" stroke="#778899" d="M286.1891,-195.5353C299.6475,-195.5353 317.6759,-195.5353 333.4214,-195.5353"/>
<polygon fill="#778899" stroke="#778899" points="333.8732,-199.0354 343.8732,-195.5353 333.8731,-192.0354 333.8732,-199.0354"/>
</g>
<!-- uqbar.containers.UniqueTreeNode.UniqueTreeNode&#45;&gt;uqbar.graphs.Attachable.Attachable -->
<g id="edge22" class="edge">
<title>uqbar.containers.UniqueTreeNode.UniqueTreeNode&#45;&gt;uqbar.graphs.Attachable.Attachable</title>
<path fill="none" stroke="#778899" d="M286.1878,-213.1193C299.6113,-223.8432 318.1012,-236.9111 336.5929,-244.5353 399.7927,-270.5925 479.8277,-279.6926 525.5023,-282.8586"/>
<polygon fill="#778899" stroke="#778899" points="525.3242,-286.3543 535.5261,-283.4956 525.7682,-279.3683 525.3242,-286.3543"/>
</g>
<!-- uqbar.containers.UniqueTreeNode.UniqueTreeNode&#45;&gt;uqbar.graphs.RecordField.RecordField -->
<g id="edge25" class="edge">
<title>uqbar.containers.UniqueTreeNode.UniqueTreeNode&#45;&gt;uqbar.graphs.RecordField.RecordField</title>
<path fill="none" stroke="#778899" d="M271.3041,-216.2241C280.5112,-248.8469 301.7756,-313.0928 336.5929,-357.5353 395.6962,-432.9774 449.6675,-412.3978 507.8721,-488.5353 522.1578,-507.2223 508.3482,-524.4166 527.8721,-537.5353 550.0063,-552.4078 566.3895,-553.3343 587.8721,-537.5353 613.2827,-518.8475 632.3106,-426.7108 640.2724,-381.5622"/>
<polygon fill="#778899" stroke="#778899" points="643.7277,-382.1199 641.9714,-371.6717 636.8288,-380.9347 643.7277,-382.1199"/>
</g>
<!-- uqbar.containers.UniqueTreeNode.UniqueTreeNode&#45;&gt;uqbar.graphs.HRule.HRule -->
<g id="edge23" class="edge">
<title>uqbar.containers.UniqueTreeNode.UniqueTreeNode&#45;&gt;uqbar.graphs.HRule.HRule</title>
<path fill="none" stroke="#778899" d="M286.0816,-206.0343C299.9131,-212.7535 318.9023,-221.0283 336.5929,-225.5353 405.5754,-243.1095 489.7327,-246.828 533.0486,-247.5"/>
<polygon fill="#778899" stroke="#778899" points="533.1089,-251.0008 543.1471,-247.6118 533.1865,-244.0012 533.1089,-251.0008"/>
</g>
<!-- uqbar.containers.UniqueTreeNode.UniqueTreeNode&#45;&gt;uqbar.graphs.LineBreak.LineBreak -->
<g id="edge24" class="edge">
<title>uqbar.containers.UniqueTreeNode.UniqueTreeNode&#45;&gt;uqbar.graphs.LineBreak.LineBreak</title>
<path fill="none" stroke="#778899" d="M272.169,-216.4082C281.6338,-244.7227 302.2658,-295.1357 336.5929,-324.5353 394.8637,-374.4415 487.0699,-392.4577 533.3653,-398.5918"/>
<polygon fill="#778899" stroke="#778899" points="533.2205,-402.1003 543.5732,-399.8483 534.0758,-395.1528 533.2205,-402.1003"/>
</g>
<!-- uqbar.containers.UniqueTreeNode.UniqueTreeNode&#45;&gt;uqbar.graphs.Text.Text -->
<g id="edge26" class="edge">
<title>uqbar.containers.UniqueTreeNode.UniqueTreeNode&#45;&gt;uqbar.graphs.Text.Text</title>
<path fill="none" stroke="#778899" d="M275.3482,-216.3272C286.6871,-239.0829 307.8637,-275.0478 336.5929,-295.5353 398.9078,-339.9734 491.5644,-353.1261 536.1172,-356.9731"/>
<polygon fill="#778899" stroke="#778899" points="535.8722,-360.4645 546.1126,-357.7472 536.4127,-353.4854 535.8722,-360.4645"/>
</g>
<!-- uqbar.containers.UniqueTreeNode.UniqueTreeNode&#45;&gt;uqbar.graphs.VRule.VRule -->
<g id="edge27" class="edge">
<title>uqbar.containers.UniqueTreeNode.UniqueTreeNode&#45;&gt;uqbar.graphs.VRule.VRule</title>
<path fill="none" stroke="#778899" d="M280.6772,-216.333C293.5573,-232.9589 313.7409,-255.5596 336.5929,-268.5353 400.5031,-304.8242 488.0975,-316.3134 532.9014,-319.9157"/>
<polygon fill="#778899" stroke="#778899" points="532.8464,-323.4209 543.0739,-320.6554 533.3541,-316.4393 532.8464,-323.4209"/>
</g>
<!-- uqbar.graphs.Attachable.Attachable&#45;&gt;uqbar.graphs.RecordField.RecordField -->
<g id="edge7" class="edge">
<title>uqbar.graphs.Attachable.Attachable&#45;&gt;uqbar.graphs.RecordField.RecordField</title>
<path fill="none" stroke="#778899" d="M575.6052,-294.0903C579.6354,-297.0219 583.9988,-300.3237 587.8721,-303.5353 599.4225,-313.1122 611.6359,-324.4075 621.7409,-334.1047"/>
<polygon fill="#778899" stroke="#778899" points="619.3955,-336.7056 629.0114,-341.1537 624.2681,-331.6799 619.3955,-336.7056"/>
</g>
<!-- uqbar.graphs.Attachable.Attachable&#45;&gt;uqbar.graphs.TableCell.TableCell -->
<g id="edge8" class="edge">
<title>uqbar.graphs.Attachable.Attachable&#45;&gt;uqbar.graphs.TableCell.TableCell</title>
<path fill="none" stroke="#778899" d="M576.4714,-275.0246C580.2705,-272.3898 584.2984,-269.4499 587.8721,-266.5353 599.7705,-256.8313 612.1892,-245.1556 622.3436,-235.147"/>
<polygon fill="#778899" stroke="#778899" points="625.0189,-237.4218 629.6212,-227.8787 620.0723,-232.4688 625.0189,-237.4218"/>
</g>
<!-- collections.abc.Collection -->
<g id="node1" class="node">
<title>collections.abc.Collection</title>
<g id="a_node1"><a xlink:href="https://docs.python.org/3.6/library/collections.abc.html#collections.abc.Collection" xlink:title="Collection" target="_top">
<ellipse fill="none" stroke="#b3cde3" stroke-width="2" cx="265.9447" cy="-553.5353" rx="34.7971" ry="13.3704"/>
<text text-anchor="middle" x="265.9447" y="-551.0353" font-family="Arial" font-size="10.00" fill="#000000">Collection</text>
</a>
</g>
</g>
<!-- collections.abc.Mapping -->
<g id="node2" class="node">
<title>collections.abc.Mapping</title>
<g id="a_node2"><a xlink:href="https://docs.python.org/3.6/library/collections.abc.html#collections.abc.Mapping" xlink:title="Mapping" target="_top">
<ellipse fill="none" stroke="#b3cde3" stroke-width="2" cx="368.4127" cy="-548.5353" rx="31.6406" ry="13.3704"/>
<text text-anchor="middle" x="368.4127" y="-546.0353" font-family="Arial" font-size="10.00" fill="#000000">Mapping</text>
</a>
</g>
</g>
<!-- collections.abc.Container -->
<g id="node3" class="node">
<title>collections.abc.Container</title>
<g id="a_node3"><a xlink:href="https://docs.python.org/3.6/library/collections.abc.html#collections.abc.Container" xlink:title="Container" target="_top">
<ellipse fill="none" stroke="#b3cde3" stroke-width="2" cx="160.6482" cy="-513.5353" rx="34.7971" ry="13.3704"/>
<text text-anchor="middle" x="160.6482" y="-511.0353" font-family="Arial" font-size="10.00" fill="#000000">Container</text>
</a>
</g>
</g>
<!-- collections.abc.Iterable -->
<g id="node4" class="node">
<title>collections.abc.Iterable</title>
<g id="a_node4"><a xlink:href="https://docs.python.org/3.6/library/collections.abc.html#collections.abc.Iterable" xlink:title="Iterable" target="_top">
<ellipse fill="none" stroke="#b3cde3" stroke-width="2" cx="160.6482" cy="-603.5353" rx="29.8983" ry="13.3704"/>
<text text-anchor="middle" x="160.6482" y="-601.0353" font-family="Arial" font-size="10.00" fill="#000000">Iterable</text>
</a>
</g>
</g>
<!-- collections.abc.MutableMapping -->
<g id="node5" class="node">
<title>collections.abc.MutableMapping</title>
<g id="a_node5"><a xlink:href="https://docs.python.org/3.6/library/collections.abc.html#collections.abc.MutableMapping" xlink:title="Mutable\nMapping" target="_top">
<ellipse fill="none" stroke="#b3cde3" stroke-width="2" cx="468.0523" cy="-539.5353" rx="31.6406" ry="21.4286"/>
<text text-anchor="middle" x="468.0523" y="-542.5353" font-family="Arial" font-size="10.00" fill="#000000">Mutable</text>
<text text-anchor="middle" x="468.0523" y="-531.5353" font-family="Arial" font-size="10.00" fill="#000000">Mapping</text>
</a>
</g>
</g>
<!-- collections.abc.Sized -->
<g id="node6" class="node">
<title>collections.abc.Sized</title>
<g id="a_node6"><a xlink:href="https://docs.python.org/3.6/library/collections.abc.html#collections.abc.Sized" xlink:title="Sized" target="_top">
<ellipse fill="none" stroke="#b3cde3" stroke-width="2" cx="160.6482" cy="-558.5353" rx="25" ry="13.3704"/>
<text text-anchor="middle" x="160.6482" y="-556.0353" font-family="Arial" font-size="10.00" fill="#000000">Sized</text>
</a>
</g>
</g>
<!-- builtins.object -->
<g id="node7" class="node">
<title>builtins.object</title>
<g id="a_node7"><a xlink:href="https://docs.python.org/3.6/library/functions.html#object" xlink:title="object" target="_top">
<path fill="#fbb4ae" stroke="#fbb4ae" stroke-width="2" d="M46.6667,-546.0353C46.6667,-546.0353 22.3333,-546.0353 22.3333,-546.0353 19.1667,-546.0353 16,-542.8686 16,-539.7019 16,-539.7019 16,-533.3686 16,-533.3686 16,-530.2019 19.1667,-527.0353 22.3333,-527.0353 22.3333,-527.0353 46.6667,-527.0353 46.6667,-527.0353 49.8333,-527.0353 53,-530.2019 53,-533.3686 53,-533.3686 53,-539.7019 53,-539.7019 53,-542.8686 49.8333,-546.0353 46.6667,-546.0353"/>
<text text-anchor="middle" x="34.5" y="-534.0353" font-family="Arial" font-size="10.00" fill="#000000">object</text>
</a>
</g>
</g>
<!-- uqbar.containers.UniqueTreeContainer.UniqueTreeContainer -->
<g id="node8" class="node">
<title>uqbar.containers.UniqueTreeContainer.UniqueTreeContainer</title>
<g id="a_node8"><a xlink:href="../api/uqbar/graphs/../containers/UniqueTreeContainer.html#uqbar.containers.UniqueTreeContainer.UniqueTreeContainer" xlink:title="Unique\nTree\nContainer" target="_top">
<path fill="#ccebc5" stroke="#ccebc5" stroke-width="2" d="M380.9127,-216.0353C380.9127,-216.0353 355.9127,-216.0353 355.9127,-216.0353 349.9127,-216.0353 343.9127,-210.0353 343.9127,-204.0353 343.9127,-204.0353 343.9127,-187.0353 343.9127,-187.0353 343.9127,-181.0353 349.9127,-175.0353 355.9127,-175.0353 355.9127,-175.0353 380.9127,-175.0353 380.9127,-175.0353 386.9127,-175.0353 392.9127,-181.0353 392.9127,-187.0353 392.9127,-187.0353 392.9127,-204.0353 392.9127,-204.0353 392.9127,-210.0353 386.9127,-216.0353 380.9127,-216.0353"/>
<text text-anchor="middle" x="368.4127" y="-204.0353" font-family="Arial" font-size="10.00" fill="#000000">Unique</text>
<text text-anchor="middle" x="368.4127" y="-193.0353" font-family="Arial" font-size="10.00" fill="#000000">Tree</text>
<text text-anchor="middle" x="368.4127" y="-182.0353" font-family="Arial" font-size="10.00" fill="#000000">Container</text>
</a>
</g>
</g>
<!-- uqbar.containers.UniqueTreeNode.UniqueTreeNode -->
<g id="node9" class="node">
<title>uqbar.containers.UniqueTreeNode.UniqueTreeNode</title>
<g id="a_node9"><a xlink:href="../api/uqbar/graphs/../containers/UniqueTreeNode.html#uqbar.containers.UniqueTreeNode.UniqueTreeNode" xlink:title="Unique\nTree\nNode" target="_top">
<path fill="#ccebc5" stroke="#ccebc5" stroke-width="2" d="M273.9447,-216.0353C273.9447,-216.0353 257.9447,-216.0353 257.9447,-216.0353 251.9447,-216.0353 245.9447,-210.0353 245.9447,-204.0353 245.9447,-204.0353 245.9447,-187.0353 245.9447,-187.0353 245.9447,-181.0353 251.9447,-175.0353 257.9447,-175.0353 257.9447,-175.0353 273.9447,-175.0353 273.9447,-175.0353 279.9447,-175.0353 285.9447,-181.0353 285.9447,-187.0353 285.9447,-187.0353 285.9447,-204.0353 285.9447,-204.0353 285.9447,-210.0353 279.9447,-216.0353 273.9447,-216.0353"/>
<text text-anchor="middle" x="265.9447" y="-204.0353" font-family="Arial" font-size="10.00" fill="#000000">Unique</text>
<text text-anchor="middle" x="265.9447" y="-193.0353" font-family="Arial" font-size="10.00" fill="#000000">Tree</text>
<text text-anchor="middle" x="265.9447" y="-182.0353" font-family="Arial" font-size="10.00" fill="#000000">Node</text>
</a>
</g>
</g>
<!-- uqbar.graphs.Attachable.Attachable -->
<g id="node10" class="node">
<title>uqbar.graphs.Attachable.Attachable</title>
<g id="a_node10"><a xlink:href="../api/uqbar/graphs/Attachable.html#uqbar.graphs.Attachable.Attachable" xlink:title="Attachable" target="_top">
<path fill="#000000" stroke="#000000" stroke-width="2" d="M581.5388,-294.0353C581.5388,-294.0353 542.2055,-294.0353 542.2055,-294.0353 539.0388,-294.0353 535.8721,-290.8686 535.8721,-287.7019 535.8721,-287.7019 535.8721,-281.3686 535.8721,-281.3686 535.8721,-278.2019 539.0388,-275.0353 542.2055,-275.0353 542.2055,-275.0353 581.5388,-275.0353 581.5388,-275.0353 584.7055,-275.0353 587.8721,-278.2019 587.8721,-281.3686 587.8721,-281.3686 587.8721,-287.7019 587.8721,-287.7019 587.8721,-290.8686 584.7055,-294.0353 581.5388,-294.0353"/>
<text text-anchor="middle" x="561.8721" y="-282.0353" font-family="Arial" font-size="10.00" fill="#ffffff">Attachable</text>
</a>
</g>
</g>
<!-- uqbar.graphs.RecordField.RecordField -->
<g id="node11" class="node">
<title>uqbar.graphs.RecordField.RecordField</title>
<g id="a_node11"><a xlink:href="../api/uqbar/graphs/RecordField.html#uqbar.graphs.RecordField.RecordField" xlink:title="Record\nField" target="_top">
<path fill="#000000" stroke="#000000" stroke-width="2" d="M654.8721,-371.5353C654.8721,-371.5353 633.8721,-371.5353 633.8721,-371.5353 628.8721,-371.5353 623.8721,-366.5353 623.8721,-361.5353 623.8721,-361.5353 623.8721,-351.5353 623.8721,-351.5353 623.8721,-346.5353 628.8721,-341.5353 633.8721,-341.5353 633.8721,-341.5353 654.8721,-341.5353 654.8721,-341.5353 659.8721,-341.5353 664.8721,-346.5353 664.8721,-351.5353 664.8721,-351.5353 664.8721,-361.5353 664.8721,-361.5353 664.8721,-366.5353 659.8721,-371.5353 654.8721,-371.5353"/>
<text text-anchor="middle" x="644.3721" y="-359.5353" font-family="Arial" font-size="10.00" fill="#ffffff">Record</text>
<text text-anchor="middle" x="644.3721" y="-348.5353" font-family="Arial" font-size="10.00" fill="#ffffff">Field</text>
</a>
</g>
</g>
<!-- uqbar.graphs.TableCell.TableCell -->
<g id="node12" class="node">
<title>uqbar.graphs.TableCell.TableCell</title>
<g id="a_node12"><a xlink:href="../api/uqbar/graphs/TableCell.html#uqbar.graphs.TableCell.TableCell" xlink:title="Table\nCell" target="_top">
<path fill="#000000" stroke="#000000" stroke-width="2" d="M651.8721,-227.5353C651.8721,-227.5353 636.8721,-227.5353 636.8721,-227.5353 631.8721,-227.5353 626.8721,-222.5353 626.8721,-217.5353 626.8721,-217.5353 626.8721,-207.5353 626.8721,-207.5353 626.8721,-202.5353 631.8721,-197.5353 636.8721,-197.5353 636.8721,-197.5353 651.8721,-197.5353 651.8721,-197.5353 656.8721,-197.5353 661.8721,-202.5353 661.8721,-207.5353 661.8721,-207.5353 661.8721,-217.5353 661.8721,-217.5353 661.8721,-222.5353 656.8721,-227.5353 651.8721,-227.5353"/>
<text text-anchor="middle" x="644.3721" y="-215.5353" font-family="Arial" font-size="10.00" fill="#ffffff">Table</text>
<text text-anchor="middle" x="644.3721" y="-204.5353" font-family="Arial" font-size="10.00" fill="#ffffff">Cell</text>
</a>
</g>
</g>
<!-- uqbar.graphs.Attributes.Attributes -->
<g id="node13" class="node">
<title>uqbar.graphs.Attributes.Attributes</title>
<g id="a_node13"><a xlink:href="../api/uqbar/graphs/Attributes.html#uqbar.graphs.Attributes.Attributes" xlink:title="Attributes" target="_top">
<path fill="#000000" stroke="#000000" stroke-width="2" d="M579.5388,-491.0353C579.5388,-491.0353 544.2055,-491.0353 544.2055,-491.0353 541.0388,-491.0353 537.8721,-487.8686 537.8721,-484.7019 537.8721,-484.7019 537.8721,-478.3686 537.8721,-478.3686 537.8721,-475.2019 541.0388,-472.0353 544.2055,-472.0353 544.2055,-472.0353 579.5388,-472.0353 579.5388,-472.0353 582.7055,-472.0353 585.8721,-475.2019 585.8721,-478.3686 585.8721,-478.3686 585.8721,-484.7019 585.8721,-484.7019 585.8721,-487.8686 582.7055,-491.0353 579.5388,-491.0353"/>
<text text-anchor="middle" x="561.8721" y="-479.0353" font-family="Arial" font-size="10.00" fill="#ffffff">Attributes</text>
</a>
</g>
</g>
<!-- uqbar.graphs.Edge.Edge -->
<g id="node14" class="node">
<title>uqbar.graphs.Edge.Edge</title>
<g id="a_node14"><a xlink:href="../api/uqbar/graphs/Edge.html#uqbar.graphs.Edge.Edge" xlink:title="Edge" target="_top">
<path fill="#000000" stroke="#000000" stroke-width="2" d="M572.5388,-528.0353C572.5388,-528.0353 551.2055,-528.0353 551.2055,-528.0353 548.0388,-528.0353 544.8721,-524.8686 544.8721,-521.7019 544.8721,-521.7019 544.8721,-515.3686 544.8721,-515.3686 544.8721,-512.2019 548.0388,-509.0353 551.2055,-509.0353 551.2055,-509.0353 572.5388,-509.0353 572.5388,-509.0353 575.7055,-509.0353 578.8721,-512.2019 578.8721,-515.3686 578.8721,-515.3686 578.8721,-521.7019 578.8721,-521.7019 578.8721,-524.8686 575.7055,-528.0353 572.5388,-528.0353"/>
<text text-anchor="middle" x="561.8721" y="-516.0353" font-family="Arial" font-size="10.00" fill="#ffffff">Edge</text>
</a>
</g>
</g>
<!-- uqbar.graphs.Graph.Graph -->
<g id="node15" class="node">
<title>uqbar.graphs.Graph.Graph</title>
<g id="a_node15"><a xlink:href="../api/uqbar/graphs/Graph.html#uqbar.graphs.Graph.Graph" xlink:title="Graph" target="_top">
<path fill="#000000" stroke="#000000" stroke-width="2" d="M574.0388,-171.0353C574.0388,-171.0353 549.7055,-171.0353 549.7055,-171.0353 546.5388,-171.0353 543.3721,-167.8686 543.3721,-164.7019 543.3721,-164.7019 543.3721,-158.3686 543.3721,-158.3686 543.3721,-155.2019 546.5388,-152.0353 549.7055,-152.0353 549.7055,-152.0353 574.0388,-152.0353 574.0388,-152.0353 577.2055,-152.0353 580.3721,-155.2019 580.3721,-158.3686 580.3721,-158.3686 580.3721,-164.7019 580.3721,-164.7019 580.3721,-167.8686 577.2055,-171.0353 574.0388,-171.0353"/>
<text text-anchor="middle" x="561.8721" y="-159.0353" font-family="Arial" font-size="10.00" fill="#ffffff">Graph</text>
</a>
</g>
</g>
<!-- uqbar.graphs.Grapher.Grapher -->
<g id="node16" class="node">
<title>uqbar.graphs.Grapher.Grapher</title>
<g id="a_node16"><a xlink:href="../api/uqbar/graphs/Grapher.html#uqbar.graphs.Grapher.Grapher" xlink:title="Grapher" target="_top">
<path fill="#000000" stroke="#000000" stroke-width="2" d="M577.5388,-454.0353C577.5388,-454.0353 546.2055,-454.0353 546.2055,-454.0353 543.0388,-454.0353 539.8721,-450.8686 539.8721,-447.7019 539.8721,-447.7019 539.8721,-441.3686 539.8721,-441.3686 539.8721,-438.2019 543.0388,-435.0353 546.2055,-435.0353 546.2055,-435.0353 577.5388,-435.0353 577.5388,-435.0353 580.7055,-435.0353 583.8721,-438.2019 583.8721,-441.3686 583.8721,-441.3686 583.8721,-447.7019 583.8721,-447.7019 583.8721,-450.8686 580.7055,-454.0353 577.5388,-454.0353"/>
<text text-anchor="middle" x="561.8721" y="-442.0353" font-family="Arial" font-size="10.00" fill="#ffffff">Grapher</text>
</a>
</g>
</g>
<!-- uqbar.graphs.HRule.HRule -->
<g id="node17" class="node">
<title>uqbar.graphs.HRule.HRule</title>
<g id="a_node17"><a xlink:href="../api/uqbar/graphs/HRule.html#uqbar.graphs.HRule.HRule" xlink:title="HRule" target="_top">
<path fill="#000000" stroke="#000000" stroke-width="2" d="M574.0388,-257.0353C574.0388,-257.0353 549.7055,-257.0353 549.7055,-257.0353 546.5388,-257.0353 543.3721,-253.8686 543.3721,-250.7019 543.3721,-250.7019 543.3721,-244.3686 543.3721,-244.3686 543.3721,-241.2019 546.5388,-238.0353 549.7055,-238.0353 549.7055,-238.0353 574.0388,-238.0353 574.0388,-238.0353 577.2055,-238.0353 580.3721,-241.2019 580.3721,-244.3686 580.3721,-244.3686 580.3721,-250.7019 580.3721,-250.7019 580.3721,-253.8686 577.2055,-257.0353 574.0388,-257.0353"/>
<text text-anchor="middle" x="561.8721" y="-245.0353" font-family="Arial" font-size="10.00" fill="#ffffff">HRule</text>
</a>
</g>
</g>
<!-- uqbar.graphs.LineBreak.LineBreak -->
<g id="node18" class="node">
<title>uqbar.graphs.LineBreak.LineBreak</title>
<g id="a_node18"><a xlink:href="../api/uqbar/graphs/LineBreak.html#uqbar.graphs.LineBreak.LineBreak" xlink:title="Line\nBreak" target="_top">
<path fill="#000000" stroke="#000000" stroke-width="2" d="M569.8721,-416.5353C569.8721,-416.5353 553.8721,-416.5353 553.8721,-416.5353 548.8721,-416.5353 543.8721,-411.5353 543.8721,-406.5353 543.8721,-406.5353 543.8721,-396.5353 543.8721,-396.5353 543.8721,-391.5353 548.8721,-386.5353 553.8721,-386.5353 553.8721,-386.5353 569.8721,-386.5353 569.8721,-386.5353 574.8721,-386.5353 579.8721,-391.5353 579.8721,-396.5353 579.8721,-396.5353 579.8721,-406.5353 579.8721,-406.5353 579.8721,-411.5353 574.8721,-416.5353 569.8721,-416.5353"/>
<text text-anchor="middle" x="561.8721" y="-404.5353" font-family="Arial" font-size="10.00" fill="#ffffff">Line</text>
<text text-anchor="middle" x="561.8721" y="-393.5353" font-family="Arial" font-size="10.00" fill="#ffffff">Break</text>
</a>
</g>
</g>
<!-- uqbar.graphs.Node.Node -->
<g id="node19" class="node">
<title>uqbar.graphs.Node.Node</title>
<g id="a_node19"><a xlink:href="../api/uqbar/graphs/Node.html#uqbar.graphs.Node.Node" xlink:title="Node" target="_top">
<path fill="#000000" stroke="#000000" stroke-width="2" d="M572.5388,-134.0353C572.5388,-134.0353 551.2055,-134.0353 551.2055,-134.0353 548.0388,-134.0353 544.8721,-130.8686 544.8721,-127.7019 544.8721,-127.7019 544.8721,-121.3686 544.8721,-121.3686 544.8721,-118.2019 548.0388,-115.0353 551.2055,-115.0353 551.2055,-115.0353 572.5388,-115.0353 572.5388,-115.0353 575.7055,-115.0353 578.8721,-118.2019 578.8721,-121.3686 578.8721,-121.3686 578.8721,-127.7019 578.8721,-127.7019 578.8721,-130.8686 575.7055,-134.0353 572.5388,-134.0353"/>
<text text-anchor="middle" x="561.8721" y="-122.0353" font-family="Arial" font-size="10.00" fill="#ffffff">Node</text>
</a>
</g>
</g>
<!-- uqbar.graphs.RecordGroup.RecordGroup -->
<g id="node20" class="node">
<title>uqbar.graphs.RecordGroup.RecordGroup</title>
<g id="a_node20"><a xlink:href="../api/uqbar/graphs/RecordGroup.html#uqbar.graphs.RecordGroup.RecordGroup" xlink:title="Record\nGroup" target="_top">
<path fill="#000000" stroke="#000000" stroke-width="2" d="M572.3721,-96.5353C572.3721,-96.5353 551.3721,-96.5353 551.3721,-96.5353 546.3721,-96.5353 541.3721,-91.5353 541.3721,-86.5353 541.3721,-86.5353 541.3721,-76.5353 541.3721,-76.5353 541.3721,-71.5353 546.3721,-66.5353 551.3721,-66.5353 551.3721,-66.5353 572.3721,-66.5353 572.3721,-66.5353 577.3721,-66.5353 582.3721,-71.5353 582.3721,-76.5353 582.3721,-76.5353 582.3721,-86.5353 582.3721,-86.5353 582.3721,-91.5353 577.3721,-96.5353 572.3721,-96.5353"/>
<text text-anchor="middle" x="561.8721" y="-84.5353" font-family="Arial" font-size="10.00" fill="#ffffff">Record</text>
<text text-anchor="middle" x="561.8721" y="-73.5353" font-family="Arial" font-size="10.00" fill="#ffffff">Group</text>
</a>
</g>
</g>
<!-- uqbar.graphs.Table.Table -->
<g id="node21" class="node">
<title>uqbar.graphs.Table.Table</title>
<g id="a_node21"><a xlink:href="../api/uqbar/graphs/Table.html#uqbar.graphs.Table.Table" xlink:title="Table" target="_top">
<path fill="#000000" stroke="#000000" stroke-width="2" d="M573.0388,-48.0353C573.0388,-48.0353 550.7055,-48.0353 550.7055,-48.0353 547.5388,-48.0353 544.3721,-44.8686 544.3721,-41.7019 544.3721,-41.7019 544.3721,-35.3686 544.3721,-35.3686 544.3721,-32.2019 547.5388,-29.0353 550.7055,-29.0353 550.7055,-29.0353 573.0388,-29.0353 573.0388,-29.0353 576.2055,-29.0353 579.3721,-32.2019 579.3721,-35.3686 579.3721,-35.3686 579.3721,-41.7019 579.3721,-41.7019 579.3721,-44.8686 576.2055,-48.0353 573.0388,-48.0353"/>
<text text-anchor="middle" x="561.8721" y="-36.0353" font-family="Arial" font-size="10.00" fill="#ffffff">Table</text>
</a>
</g>
</g>
<!-- uqbar.graphs.TableRow.TableRow -->
<g id="node22" class="node">
<title>uqbar.graphs.TableRow.TableRow</title>
<g id="a_node22"><a xlink:href="../api/uqbar/graphs/TableRow.html#uqbar.graphs.TableRow.TableRow" xlink:title="Table\nRow" target="_top">
<path fill="#000000" stroke="#000000" stroke-width="2" d="M569.3721,-219.5353C569.3721,-219.5353 554.3721,-219.5353 554.3721,-219.5353 549.3721,-219.5353 544.3721,-214.5353 544.3721,-209.5353 544.3721,-209.5353 544.3721,-199.5353 544.3721,-199.5353 544.3721,-194.5353 549.3721,-189.5353 554.3721,-189.5353 554.3721,-189.5353 569.3721,-189.5353 569.3721,-189.5353 574.3721,-189.5353 579.3721,-194.5353 579.3721,-199.5353 579.3721,-199.5353 579.3721,-209.5353 579.3721,-209.5353 579.3721,-214.5353 574.3721,-219.5353 569.3721,-219.5353"/>
<text text-anchor="middle" x="561.8721" y="-207.5353" font-family="Arial" font-size="10.00" fill="#ffffff">Table</text>
<text text-anchor="middle" x="561.8721" y="-196.5353" font-family="Arial" font-size="10.00" fill="#ffffff">Row</text>
</a>
</g>
</g>
<!-- uqbar.graphs.Text.Text -->
<g id="node23" class="node">
<title>uqbar.graphs.Text.Text</title>
<g id="a_node23"><a xlink:href="../api/uqbar/graphs/Text.html#uqbar.graphs.Text.Text" xlink:title="Text" target="_top">
<path fill="#000000" stroke="#000000" stroke-width="2" d="M571.0388,-368.0353C571.0388,-368.0353 552.7055,-368.0353 552.7055,-368.0353 549.5388,-368.0353 546.3721,-364.8686 546.3721,-361.7019 546.3721,-361.7019 546.3721,-355.3686 546.3721,-355.3686 546.3721,-352.2019 549.5388,-349.0353 552.7055,-349.0353 552.7055,-349.0353 571.0388,-349.0353 571.0388,-349.0353 574.2055,-349.0353 577.3721,-352.2019 577.3721,-355.3686 577.3721,-355.3686 577.3721,-361.7019 577.3721,-361.7019 577.3721,-364.8686 574.2055,-368.0353 571.0388,-368.0353"/>
<text text-anchor="middle" x="561.8721" y="-356.0353" font-family="Arial" font-size="10.00" fill="#ffffff">Text</text>
</a>
</g>
</g>
<!-- uqbar.graphs.VRule.VRule -->
<g id="node24" class="node">
<title>uqbar.graphs.VRule.VRule</title>
<g id="a_node24"><a xlink:href="../api/uqbar/graphs/VRule.html#uqbar.graphs.VRule.VRule" xlink:title="VRule" target="_top">
<path fill="#000000" stroke="#000000" stroke-width="2" d="M574.0388,-331.0353C574.0388,-331.0353 549.7055,-331.0353 549.7055,-331.0353 546.5388,-331.0353 543.3721,-327.8686 543.3721,-324.7019 543.3721,-324.7019 543.3721,-318.3686 543.3721,-318.3686 543.3721,-315.2019 546.5388,-312.0353 549.7055,-312.0353 549.7055,-312.0353 574.0388,-312.0353 574.0388,-312.0353 577.2055,-312.0353 580.3721,-315.2019 580.3721,-318.3686 580.3721,-318.3686 580.3721,-324.7019 580.3721,-324.7019 580.3721,-327.8686 577.2055,-331.0353 574.0388,-331.0353"/>
<text text-anchor="middle" x="561.8721" y="-319.0353" font-family="Arial" font-size="10.00" fill="#ffffff">VRule</text>
</a>
</g>
</g>
</g>
</svg>
