<?xml version="1.0" encoding="UTF-8" standalone="no"?>
<!DOCTYPE svg PUBLIC "-//W3C//DTD SVG 1.1//EN"
 "http://www.w3.org/Graphics/SVG/1.1/DTD/svg11.dtd">
<!-- Generated by graphviz version 2.44.0 (20200408.0750)
 -->
<!-- Title: InheritanceGraph Pages: 1 -->
<svg width="220pt" height="213pt"
 viewBox="0.00 0.00 220.00 213.00" xmlns="http://www.w3.org/2000/svg" xmlns:xlink="http://www.w3.org/1999/xlink">
<g id="graph0" class="graph" transform="scale(1 1) rotate(0) translate(4 209)">
<title>InheritanceGraph</title>
<g id="clust1" class="cluster">
<title>cluster_builtins</title>
<path fill="transparent" stroke="#bcd2ee" stroke-width="2" stroke-dasharray="5,2" d="M20,-72C20,-72 55,-72 55,-72 61,-72 67,-78 67,-84 67,-84 67,-115 67,-115 67,-121 61,-127 55,-127 55,-127 20,-127 20,-127 14,-127 8,-121 8,-115 8,-115 8,-84 8,-84 8,-78 14,-72 20,-72"/>
<text text-anchor="middle" x="37.5" y="-115" font-family="Arial" font-size="10.00">builtins</text>
</g>
<g id="clust2" class="cluster">
<title>cluster_uqbar.io</title>
<path fill="transparent" stroke="#bcd2ee" stroke-width="2" stroke-dasharray="5,2" d="M136,-8C136,-8 192,-8 192,-8 198,-8 204,-14 204,-20 204,-20 204,-185 204,-185 204,-191 198,-197 192,-197 192,-197 136,-197 136,-197 130,-197 124,-191 124,-185 124,-185 124,-20 124,-20 124,-14 130,-8 136,-8"/>
<text text-anchor="middle" x="164" y="-185" font-family="Arial" font-size="10.00">uqbar.io</text>
</g>
<!-- builtins.object&#45;&gt;uqbar.io.DirectoryChange.DirectoryChange -->
<g id="edge1" class="edge">
<title>builtins.object&#45;&gt;uqbar.io.DirectoryChange.DirectoryChange</title>
<path fill="none" stroke="lightslategrey" d="M56.87,-99.59C75.18,-109.15 103.8,-124.09 126.7,-136.05"/>
<polygon fill="lightslategrey" stroke="lightslategrey" points="125.32,-139.28 135.8,-140.8 128.56,-133.07 125.32,-139.28"/>
</g>
<!-- builtins.object&#45;&gt;uqbar.io.Profiler.Profiler -->
<g id="edge2" class="edge">
<title>builtins.object&#45;&gt;uqbar.io.Profiler.Profiler</title>
<path fill="none" stroke="lightslategrey" d="M59.06,-93.63C78.38,-97.05 107.61,-102.21 130.16,-106.2"/>
<polygon fill="lightslategrey" stroke="lightslategrey" points="129.84,-109.7 140.3,-107.99 131.06,-102.8 129.84,-109.7"/>
</g>
<!-- builtins.object&#45;&gt;uqbar.io.RedirectedStreams.RedirectedStreams -->
<g id="edge3" class="edge">
<title>builtins.object&#45;&gt;uqbar.io.RedirectedStreams.RedirectedStreams</title>
<path fill="none" stroke="lightslategrey" d="M59.06,-86.53C76.03,-83.67 100.66,-79.51 121.69,-75.97"/>
<polygon fill="lightslategrey" stroke="lightslategrey" points="122.39,-79.4 131.67,-74.28 121.23,-72.5 122.39,-79.4"/>
</g>
<!-- builtins.object&#45;&gt;uqbar.io.Timer.Timer -->
<g id="edge4" class="edge">
<title>builtins.object&#45;&gt;uqbar.io.Timer.Timer</title>
<path fill="none" stroke="lightslategrey" d="M56.43,-80.36C73.67,-71.13 100.51,-56.9 124,-45 127.19,-43.39 130.53,-41.72 133.87,-40.07"/>
<polygon fill="lightslategrey" stroke="lightslategrey" points="135.66,-43.09 143.1,-35.55 132.58,-36.8 135.66,-43.09"/>
</g>
<!-- builtins.object -->
<g id="node1" class="node">
<title>builtins.object</title>
<g id="a_node1"><a xlink:href="https://docs.python.org/3.6/library/functions.html#object" xlink:title="object" target="_top">
<path fill="#fbb4ae" stroke="#fbb4ae" stroke-width="2" d="M52.67,-99.5C52.67,-99.5 22.33,-99.5 22.33,-99.5 19.17,-99.5 16,-96.33 16,-93.17 16,-93.17 16,-86.83 16,-86.83 16,-83.67 19.17,-80.5 22.33,-80.5 22.33,-80.5 52.67,-80.5 52.67,-80.5 55.83,-80.5 59,-83.67 59,-86.83 59,-86.83 59,-93.17 59,-93.17 59,-96.33 55.83,-99.5 52.67,-99.5"/>
<text text-anchor="middle" x="37.5" y="-87.5" font-family="Arial" font-size="10.00">object</text>
</a>
</g>
</g>
<!-- uqbar.io.DirectoryChange.DirectoryChange -->
<g id="node2" class="node">
<title>uqbar.io.DirectoryChange.DirectoryChange</title>
<g id="a_node2"><a xlink:href="../api/uqbar/io/DirectoryChange.html#uqbar.io.DirectoryChange.DirectoryChange" xlink:title="Directory\nChange" target="_top">
<path fill="black" stroke="black" stroke-width="2" d="M182,-170C182,-170 146,-170 146,-170 141,-170 136,-165 136,-160 136,-160 136,-150 136,-150 136,-145 141,-140 146,-140 146,-140 182,-140 182,-140 187,-140 192,-145 192,-150 192,-150 192,-160 192,-160 192,-165 187,-170 182,-170"/>
<text text-anchor="middle" x="164" y="-158" font-family="Arial" font-size="10.00" fill="white">Directory</text>
<text text-anchor="middle" x="164" y="-147" font-family="Arial" font-size="10.00" fill="white">Change</text>
</a>
</g>
</g>
<!-- uqbar.io.Profiler.Profiler -->
<g id="node3" class="node">
<title>uqbar.io.Profiler.Profiler</title>
<g id="a_node3"><a xlink:href="../api/uqbar/io/Profiler.html#uqbar.io.Profiler.Profiler" xlink:title="Profiler" target="_top">
<path fill="black" stroke="black" stroke-width="2" d="M181.17,-121.5C181.17,-121.5 146.83,-121.5 146.83,-121.5 143.67,-121.5 140.5,-118.33 140.5,-115.17 140.5,-115.17 140.5,-108.83 140.5,-108.83 140.5,-105.67 143.67,-102.5 146.83,-102.5 146.83,-102.5 181.17,-102.5 181.17,-102.5 184.33,-102.5 187.5,-105.67 187.5,-108.83 187.5,-108.83 187.5,-115.17 187.5,-115.17 187.5,-118.33 184.33,-121.5 181.17,-121.5"/>
<text text-anchor="middle" x="164" y="-109.5" font-family="Arial" font-size="10.00" fill="white">Profiler</text>
</a>
</g>
</g>
<!-- uqbar.io.RedirectedStreams.RedirectedStreams -->
<g id="node4" class="node">
<title>uqbar.io.RedirectedStreams.RedirectedStreams</title>
<g id="a_node4"><a xlink:href="../api/uqbar/io/RedirectedStreams.html#uqbar.io.RedirectedStreams.RedirectedStreams" xlink:title="Redirected\nStreams" target="_top">
<path fill="black" stroke="black" stroke-width="2" d="M186,-84C186,-84 142,-84 142,-84 137,-84 132,-79 132,-74 132,-74 132,-64 132,-64 132,-59 137,-54 142,-54 142,-54 186,-54 186,-54 191,-54 196,-59 196,-64 196,-64 196,-74 196,-74 196,-79 191,-84 186,-84"/>
<text text-anchor="middle" x="164" y="-72" font-family="Arial" font-size="10.00" fill="white">Redirected</text>
<text text-anchor="middle" x="164" y="-61" font-family="Arial" font-size="10.00" fill="white">Streams</text>
</a>
</g>
</g>
<!-- uqbar.io.Timer.Timer -->
<g id="node5" class="node">
<title>uqbar.io.Timer.Timer</title>
<g id="a_node5"><a xlink:href="../api/uqbar/io/Timer.html#uqbar.io.Timer.Timer" xlink:title="Timer" target="_top">
<path fill="black" stroke="black" stroke-width="2" d="M178.17,-35.5C178.17,-35.5 149.83,-35.5 149.83,-35.5 146.67,-35.5 143.5,-32.33 143.5,-29.17 143.5,-29.17 143.5,-22.83 143.5,-22.83 143.5,-19.67 146.67,-16.5 149.83,-16.5 149.83,-16.5 178.17,-16.5 178.17,-16.5 181.33,-16.5 184.5,-19.67 184.5,-22.83 184.5,-22.83 184.5,-29.17 184.5,-29.17 184.5,-32.33 181.33,-35.5 178.17,-35.5"/>
<text text-anchor="middle" x="164" y="-23.5" font-family="Arial" font-size="10.00" fill="white">Timer</text>
</a>
</g>
</g>
</g>
</svg>
