<?xml version="1.0" encoding="UTF-8" standalone="no"?>
<!DOCTYPE svg PUBLIC "-//W3C//DTD SVG 1.1//EN"
 "http://www.w3.org/Graphics/SVG/1.1/DTD/svg11.dtd">
<!-- Generated by graphviz version 2.40.1 (20161225.0304)
 -->
<!-- Title: InheritanceGraph Pages: 1 -->
<svg width="247pt" height="89pt"
 viewBox="0.00 0.00 247.00 89.00" xmlns="http://www.w3.org/2000/svg" xmlns:xlink="http://www.w3.org/1999/xlink">
<g id="graph0" class="graph" transform="scale(1 1) rotate(0) translate(4 85)">
<title>InheritanceGraph</title>
<g id="clust1" class="cluster">
<title>cluster_builtins</title>
<path fill="transparent" stroke="#bcd2ee" stroke-width="2" stroke-dasharray="5,2" d="M20,-13C20,-13 49,-13 49,-13 55,-13 61,-19 61,-25 61,-25 61,-56 61,-56 61,-62 55,-68 49,-68 49,-68 20,-68 20,-68 14,-68 8,-62 8,-56 8,-56 8,-25 8,-25 8,-19 14,-13 20,-13"/>
<text text-anchor="middle" x="34.5" y="-56" font-family="Arial" font-size="10.00" fill="#000000">builtins</text>
</g>
<g id="clust2" class="cluster">
<title>cluster_uqbar.book.extensions</title>
<path fill="transparent" stroke="#bcd2ee" stroke-width="2" stroke-dasharray="5,2" d="M93,-8C93,-8 219,-8 219,-8 225,-8 231,-14 231,-20 231,-20 231,-61 231,-61 231,-67 225,-73 219,-73 219,-73 93,-73 93,-73 87,-73 81,-67 81,-61 81,-61 81,-20 81,-20 81,-14 87,-8 93,-8"/>
<text text-anchor="middle" x="156" y="-61" font-family="Arial" font-size="10.00" fill="#000000">uqbar.book.extensions</text>
</g>
<!-- builtins.object&#45;&gt;uqbar.book.extensions.Extension -->
<g id="edge2" class="edge">
<title>builtins.object&#45;&gt;uqbar.book.extensions.Extension</title>
<path fill="none" stroke="#778899" d="M53.2219,-31C60.8959,-31 70.0326,-31 78.843,-31"/>
<polygon fill="#778899" stroke="#778899" points="78.9285,-34.5001 88.9285,-31 78.9285,-27.5001 78.9285,-34.5001"/>
</g>
<!-- uqbar.book.extensions.Extension&#45;&gt;uqbar.book.extensions.GraphExtension -->
<g id="edge1" class="edge">
<title>uqbar.book.extensions.Extension&#45;&gt;uqbar.book.extensions.GraphExtension</title>
<path fill="none" stroke="#778899" d="M138.0855,-31C146.1028,-31 155.1612,-31 163.7779,-31"/>
<polygon fill="#778899" stroke="#778899" points="163.9698,-34.5001 173.9697,-31 163.9697,-27.5001 163.9698,-34.5001"/>
</g>
<!-- builtins.object -->
<g id="node1" class="node">
<title>builtins.object</title>
<g id="a_node1"><a xlink:href="https://docs.python.org/3.6/library/functions.html#object" xlink:title="object" target="_top">
<path fill="#fbb4ae" stroke="#fbb4ae" stroke-width="2" d="M46.6667,-40.5C46.6667,-40.5 22.3333,-40.5 22.3333,-40.5 19.1667,-40.5 16,-37.3333 16,-34.1667 16,-34.1667 16,-27.8333 16,-27.8333 16,-24.6667 19.1667,-21.5 22.3333,-21.5 22.3333,-21.5 46.6667,-21.5 46.6667,-21.5 49.8333,-21.5 53,-24.6667 53,-27.8333 53,-27.8333 53,-34.1667 53,-34.1667 53,-37.3333 49.8333,-40.5 46.6667,-40.5"/>
<text text-anchor="middle" x="34.5" y="-28.5" font-family="Arial" font-size="10.00" fill="#000000">object</text>
</a>
</g>
</g>
<!-- uqbar.book.extensions.Extension -->
<g id="node2" class="node">
<title>uqbar.book.extensions.Extension</title>
<g id="a_node2"><a xlink:href="../api/uqbar/book/extensions.html#uqbar.book.extensions.Extension" xlink:title="Extension" target="_top">
<path fill="#000000" stroke="#000000" stroke-width="2" d="M131.6667,-40.5C131.6667,-40.5 95.3333,-40.5 95.3333,-40.5 92.1667,-40.5 89,-37.3333 89,-34.1667 89,-34.1667 89,-27.8333 89,-27.8333 89,-24.6667 92.1667,-21.5 95.3333,-21.5 95.3333,-21.5 131.6667,-21.5 131.6667,-21.5 134.8333,-21.5 138,-24.6667 138,-27.8333 138,-27.8333 138,-34.1667 138,-34.1667 138,-37.3333 134.8333,-40.5 131.6667,-40.5"/>
<text text-anchor="middle" x="113.5" y="-28.5" font-family="Arial" font-size="10.00" fill="#ffffff">Extension</text>
</a>
</g>
</g>
<!-- uqbar.book.extensions.GraphExtension -->
<g id="node3" class="node">
<title>uqbar.book.extensions.GraphExtension</title>
<g id="a_node3"><a xlink:href="../api/uqbar/book/extensions.html#uqbar.book.extensions.GraphExtension" xlink:title="Graph\nExtension" target="_top">
<path fill="#000000" stroke="#000000" stroke-width="2" d="M213,-46C213,-46 184,-46 184,-46 179,-46 174,-41 174,-36 174,-36 174,-26 174,-26 174,-21 179,-16 184,-16 184,-16 213,-16 213,-16 218,-16 223,-21 223,-26 223,-26 223,-36 223,-36 223,-41 218,-46 213,-46"/>
<text text-anchor="middle" x="198.5" y="-34" font-family="Arial" font-size="10.00" fill="#ffffff">Graph</text>
<text text-anchor="middle" x="198.5" y="-23" font-family="Arial" font-size="10.00" fill="#ffffff">Extension</text>
</a>
</g>
</g>
</g>
</svg>
