<?xml version="1.0" encoding="UTF-8" standalone="no"?>
<!DOCTYPE svg PUBLIC "-//W3C//DTD SVG 1.1//EN"
 "http://www.w3.org/Graphics/SVG/1.1/DTD/svg11.dtd">
<!-- Generated by graphviz version 2.44.0 (20200408.0750)
 -->
<!-- Title: InheritanceGraph Pages: 1 -->
<svg width="511pt" height="641pt"
 viewBox="0.00 0.00 510.50 641.00" xmlns="http://www.w3.org/2000/svg" xmlns:xlink="http://www.w3.org/1999/xlink">
<g id="graph0" class="graph" transform="scale(1 1) rotate(0) translate(4 637)">
<title>InheritanceGraph</title>
<g id="clust1" class="cluster">
<title>cluster_builtins</title>
<path fill="transparent" stroke="#bcd2ee" stroke-width="2" stroke-dasharray="5,2" d="M20,-487C20,-487 259,-487 259,-487 265,-487 271,-493 271,-499 271,-499 271,-540 271,-540 271,-546 265,-552 259,-552 259,-552 20,-552 20,-552 14,-552 8,-546 8,-540 8,-540 8,-499 8,-499 8,-493 14,-487 20,-487"/>
<text text-anchor="middle" x="139.5" y="-540" font-family="Arial" font-size="10.00">builtins</text>
</g>
<g id="clust2" class="cluster">
<title>cluster_code</title>
<path fill="transparent" stroke="#bcd2ee" stroke-width="2" stroke-dasharray="5,2" d="M206,-560C206,-560 370,-560 370,-560 376,-560 382,-566 382,-572 382,-572 382,-613 382,-613 382,-619 376,-625 370,-625 370,-625 206,-625 206,-625 200,-625 194,-619 194,-613 194,-613 194,-572 194,-572 194,-566 200,-560 206,-560"/>
<text text-anchor="middle" x="288" y="-613" font-family="Arial" font-size="10.00">code</text>
</g>
<g id="clust3" class="cluster">
<title>cluster_docutils.nodes</title>
<path fill="transparent" stroke="#bcd2ee" stroke-width="2" stroke-dasharray="5,2" d="M217,-267C217,-267 365.5,-267 365.5,-267 371.5,-267 377.5,-273 377.5,-279 377.5,-279 377.5,-347 377.5,-347 377.5,-353 371.5,-359 365.5,-359 365.5,-359 217,-359 217,-359 211,-359 205,-353 205,-347 205,-347 205,-279 205,-279 205,-273 211,-267 217,-267"/>
<text text-anchor="middle" x="291.25" y="-347" font-family="Arial" font-size="10.00">docutils.nodes</text>
</g>
<g id="clust4" class="cluster">
<title>cluster_docutils.parsers.rst</title>
<path fill="transparent" stroke="#bcd2ee" stroke-width="2" stroke-dasharray="5,2" d="M195,-135C195,-135 271,-135 271,-135 277,-135 283,-141 283,-147 283,-147 283,-178 283,-178 283,-184 277,-190 271,-190 271,-190 195,-190 195,-190 189,-190 183,-184 183,-178 183,-178 183,-147 183,-147 183,-141 189,-135 195,-135"/>
<text text-anchor="middle" x="233" y="-178" font-family="Arial" font-size="10.00">docutils.parsers.rst</text>
</g>
<g id="clust5" class="cluster">
<title>cluster_uqbar.book.console</title>
<path fill="transparent" stroke="#bcd2ee" stroke-width="2" stroke-dasharray="5,2" d="M413.5,-373C413.5,-373 490.5,-373 490.5,-373 496.5,-373 502.5,-379 502.5,-385 502.5,-385 502.5,-608 502.5,-608 502.5,-614 496.5,-620 490.5,-620 490.5,-620 413.5,-620 413.5,-620 407.5,-620 401.5,-614 401.5,-608 401.5,-608 401.5,-385 401.5,-385 401.5,-379 407.5,-373 413.5,-373"/>
<text text-anchor="middle" x="452" y="-608" font-family="Arial" font-size="10.00">uqbar.book.console</text>
</g>
<g id="clust6" class="cluster">
<title>cluster_uqbar.book.extensions</title>
<path fill="transparent" stroke="#bcd2ee" stroke-width="2" stroke-dasharray="5,2" d="M207,-13C207,-13 369,-13 369,-13 375,-13 381,-19 381,-25 381,-25 381,-66 381,-66 381,-72 375,-78 369,-78 369,-78 207,-78 207,-78 201,-78 195,-72 195,-66 195,-66 195,-25 195,-25 195,-19 201,-13 207,-13"/>
<text text-anchor="middle" x="288" y="-66" font-family="Arial" font-size="10.00">uqbar.book.extensions</text>
</g>
<g id="clust7" class="cluster">
<title>cluster_uqbar.book.sphinx</title>
<path fill="transparent" stroke="#bcd2ee" stroke-width="2" stroke-dasharray="5,2" d="M416,-8C416,-8 488,-8 488,-8 494,-8 500,-14 500,-20 500,-20 500,-353 500,-353 500,-359 494,-365 488,-365 488,-365 416,-365 416,-365 410,-365 404,-359 404,-353 404,-353 404,-20 404,-20 404,-14 410,-8 416,-8"/>
<text text-anchor="middle" x="452" y="-353" font-family="Arial" font-size="10.00">uqbar.book.sphinx</text>
</g>
<!-- builtins.BaseException&#45;&gt;builtins.Exception -->
<g id="edge1" class="edge">
<title>builtins.BaseException&#45;&gt;builtins.Exception</title>
<path fill="none" stroke="lightslategrey" d="M155.25,-510.55C166.83,-510.77 180.33,-511.03 192.74,-511.26"/>
<polygon fill="lightslategrey" stroke="lightslategrey" points="192.79,-514.76 202.85,-511.45 192.92,-507.76 192.79,-514.76"/>
</g>
<!-- builtins.Exception&#45;&gt;uqbar.book.console.ConsoleError -->
<g id="edge7" class="edge">
<title>builtins.Exception&#45;&gt;uqbar.book.console.ConsoleError</title>
<path fill="none" stroke="lightslategrey" d="M263.27,-515.78C302.62,-520.85 372.55,-529.88 415.06,-535.36"/>
<polygon fill="lightslategrey" stroke="lightslategrey" points="414.87,-538.87 425.24,-536.68 415.77,-531.92 414.87,-538.87"/>
</g>
<!-- builtins.object&#45;&gt;builtins.BaseException -->
<g id="edge2" class="edge">
<title>builtins.object&#45;&gt;builtins.BaseException</title>
<path fill="none" stroke="lightslategrey" d="M59.2,-506.21C66.87,-506.66 75.85,-507.18 84.63,-507.7"/>
<polygon fill="lightslategrey" stroke="lightslategrey" points="84.58,-511.2 94.77,-508.29 84.99,-504.21 84.58,-511.2"/>
</g>
<!-- builtins.object&#45;&gt;code.InteractiveInterpreter -->
<g id="edge8" class="edge">
<title>builtins.object&#45;&gt;code.InteractiveInterpreter</title>
<path fill="none" stroke="lightslategrey" d="M56.03,-514.75C67.04,-520.68 81.65,-528.21 95,-534 127.1,-547.91 164.56,-561.11 192.19,-570.3"/>
<polygon fill="lightslategrey" stroke="lightslategrey" points="191.31,-573.69 201.9,-573.49 193.5,-567.04 191.31,-573.69"/>
</g>
<!-- builtins.object&#45;&gt;docutils.nodes.Body -->
<g id="edge9" class="edge">
<title>builtins.object&#45;&gt;docutils.nodes.Body</title>
<path fill="none" stroke="lightslategrey" d="M40.2,-495.22C44.79,-471.68 59.55,-411.27 95,-377 125.17,-347.84 172.77,-333.48 203.18,-326.92"/>
<polygon fill="lightslategrey" stroke="lightslategrey" points="204.05,-330.32 213.16,-324.91 202.67,-323.45 204.05,-330.32"/>
</g>
<!-- builtins.object&#45;&gt;docutils.nodes.Node -->
<g id="edge10" class="edge">
<title>builtins.object&#45;&gt;docutils.nodes.Node</title>
<path fill="none" stroke="lightslategrey" d="M38.98,-495.19C40.88,-466.78 50.19,-383.56 95,-337 123.88,-306.99 171.84,-294.1 202.68,-288.7"/>
<polygon fill="lightslategrey" stroke="lightslategrey" points="203.48,-292.12 212.81,-287.09 202.38,-285.21 203.48,-292.12"/>
</g>
<!-- builtins.object&#45;&gt;docutils.parsers.rst.Directive -->
<g id="edge11" class="edge">
<title>builtins.object&#45;&gt;docutils.parsers.rst.Directive</title>
<path fill="none" stroke="lightslategrey" d="M39.46,-495.3C42.83,-464.54 56.14,-367.18 95,-298 125.56,-243.58 180.99,-193.93 211.12,-169.29"/>
<polygon fill="lightslategrey" stroke="lightslategrey" points="213.66,-171.74 219.26,-162.75 209.27,-166.29 213.66,-171.74"/>
</g>
<!-- builtins.object&#45;&gt;uqbar.book.console.ConsoleInput -->
<g id="edge12" class="edge">
<title>builtins.object&#45;&gt;uqbar.book.console.ConsoleInput</title>
<path fill="none" stroke="lightslategrey" d="M59.02,-496.31C69.56,-492.31 82.74,-488.01 95,-486 210.86,-467.04 350.76,-479.52 415.25,-487.22"/>
<polygon fill="lightslategrey" stroke="lightslategrey" points="414.95,-490.71 425.3,-488.45 415.81,-483.76 414.95,-490.71"/>
</g>
<!-- builtins.object&#45;&gt;uqbar.book.console.ConsoleOutput -->
<g id="edge13" class="edge">
<title>builtins.object&#45;&gt;uqbar.book.console.ConsoleOutput</title>
<path fill="none" stroke="lightslategrey" d="M52.67,-495.4C63.7,-488.46 79.66,-479.53 95,-475 208.28,-441.51 349.98,-440.69 415.17,-442.47"/>
<polygon fill="lightslategrey" stroke="lightslategrey" points="415.22,-445.97 425.32,-442.78 415.44,-438.97 415.22,-445.97"/>
</g>
<!-- builtins.object&#45;&gt;uqbar.book.console.MonkeyPatch -->
<g id="edge14" class="edge">
<title>builtins.object&#45;&gt;uqbar.book.console.MonkeyPatch</title>
<path fill="none" stroke="lightslategrey" d="M47.03,-495.2C57.27,-484.11 75.51,-466.36 95,-457 203.71,-404.82 349.97,-396.61 416.03,-395.76"/>
<polygon fill="lightslategrey" stroke="lightslategrey" points="416.33,-399.26 426.3,-395.68 416.27,-392.26 416.33,-399.26"/>
</g>
<!-- builtins.object&#45;&gt;uqbar.book.extensions.Extension -->
<g id="edge15" class="edge">
<title>builtins.object&#45;&gt;uqbar.book.extensions.Extension</title>
<path fill="none" stroke="lightslategrey" d="M38.8,-495.29C40.28,-457.62 48.78,-318.26 95,-216 125.23,-149.13 185.04,-84.39 214.61,-54.78"/>
<polygon fill="lightslategrey" stroke="lightslategrey" points="217.12,-57.22 221.77,-47.71 212.2,-52.24 217.12,-57.22"/>
</g>
<!-- code.InteractiveConsole&#45;&gt;uqbar.book.console.Console -->
<g id="edge16" class="edge">
<title>code.InteractiveConsole&#45;&gt;uqbar.book.console.Console</title>
<path fill="none" stroke="lightslategrey" d="M374.09,-583C386.87,-583 401.87,-583 415.21,-583"/>
<polygon fill="lightslategrey" stroke="lightslategrey" points="415.48,-586.5 425.48,-583 415.48,-579.5 415.48,-586.5"/>
</g>
<!-- code.InteractiveInterpreter&#45;&gt;code.InteractiveConsole -->
<g id="edge3" class="edge">
<title>code.InteractiveInterpreter&#45;&gt;code.InteractiveConsole</title>
<path fill="none" stroke="lightslategrey" d="M264.08,-583C275.69,-583 289.14,-583 301.57,-583"/>
<polygon fill="lightslategrey" stroke="lightslategrey" points="301.7,-586.5 311.7,-583 301.7,-579.5 301.7,-586.5"/>
</g>
<!-- docutils.nodes.Body&#45;&gt;docutils.nodes.General -->
<g id="edge4" class="edge">
<title>docutils.nodes.Body&#45;&gt;docutils.nodes.General</title>
<path fill="none" stroke="lightslategrey" d="M252.81,-322C267.87,-322 289.39,-322 307.51,-322"/>
<polygon fill="lightslategrey" stroke="lightslategrey" points="307.72,-325.5 317.72,-322 307.72,-318.5 307.72,-325.5"/>
</g>
<!-- docutils.nodes.General&#45;&gt;uqbar.book.sphinx.uqbar_book_defaults_block -->
<g id="edge19" class="edge">
<title>docutils.nodes.General&#45;&gt;uqbar.book.sphinx.uqbar_book_defaults_block</title>
<path fill="none" stroke="lightslategrey" d="M368.01,-312.88C372.92,-310.42 377.85,-307.45 382,-304 393.38,-294.53 390.98,-287.41 401.5,-277 406.48,-272.07 412.21,-267.35 417.97,-263.04"/>
<polygon fill="lightslategrey" stroke="lightslategrey" points="420.23,-265.73 426.34,-257.07 416.16,-260.03 420.23,-265.73"/>
</g>
<!-- docutils.nodes.General&#45;&gt;uqbar.book.sphinx.uqbar_book_import_block -->
<g id="edge20" class="edge">
<title>docutils.nodes.General&#45;&gt;uqbar.book.sphinx.uqbar_book_import_block</title>
<path fill="none" stroke="lightslategrey" d="M368.01,-319.76C383.28,-318.33 403.2,-316.47 419.7,-314.93"/>
<polygon fill="lightslategrey" stroke="lightslategrey" points="420.33,-318.38 429.96,-313.97 419.68,-311.41 420.33,-318.38"/>
</g>
<!-- docutils.nodes.Element&#45;&gt;uqbar.book.sphinx.uqbar_book_defaults_block -->
<g id="edge17" class="edge">
<title>docutils.nodes.Element&#45;&gt;uqbar.book.sphinx.uqbar_book_defaults_block</title>
<path fill="none" stroke="lightslategrey" d="M367.75,-275.46C382.12,-269.68 400.71,-262.21 416.67,-255.8"/>
<polygon fill="lightslategrey" stroke="lightslategrey" points="418.23,-258.94 426.2,-251.96 415.62,-252.45 418.23,-258.94"/>
</g>
<!-- docutils.nodes.Element&#45;&gt;uqbar.book.sphinx.uqbar_book_import_block -->
<g id="edge18" class="edge">
<title>docutils.nodes.Element&#45;&gt;uqbar.book.sphinx.uqbar_book_import_block</title>
<path fill="none" stroke="lightslategrey" d="M369.63,-291.47C384.74,-295.28 403.97,-300.13 419.94,-304.16"/>
<polygon fill="lightslategrey" stroke="lightslategrey" points="419.34,-307.62 429.89,-306.67 421.05,-300.83 419.34,-307.62"/>
</g>
<!-- docutils.nodes.Node&#45;&gt;docutils.nodes.Element -->
<g id="edge5" class="edge">
<title>docutils.nodes.Node&#45;&gt;docutils.nodes.Element</title>
<path fill="none" stroke="lightslategrey" d="M253.06,-285C267.74,-285 288.46,-285 306.2,-285"/>
<polygon fill="lightslategrey" stroke="lightslategrey" points="306.24,-288.5 316.24,-285 306.24,-281.5 306.24,-288.5"/>
</g>
<!-- docutils.parsers.rst.Directive&#45;&gt;uqbar.book.sphinx.UqbarBookDefaultsDirective -->
<g id="edge21" class="edge">
<title>docutils.parsers.rst.Directive&#45;&gt;uqbar.book.sphinx.UqbarBookDefaultsDirective</title>
<path fill="none" stroke="lightslategrey" d="M261.04,-146.64C299.65,-137.57 370.67,-120.88 414.08,-110.68"/>
<polygon fill="lightslategrey" stroke="lightslategrey" points="415.02,-114.05 423.96,-108.36 413.42,-107.24 415.02,-114.05"/>
</g>
<!-- docutils.parsers.rst.Directive&#45;&gt;uqbar.book.sphinx.UqbarBookDirective -->
<g id="edge22" class="edge">
<title>docutils.parsers.rst.Directive&#45;&gt;uqbar.book.sphinx.UqbarBookDirective</title>
<path fill="none" stroke="lightslategrey" d="M252.82,-143.36C268.57,-135.35 291.65,-123.74 312,-114 342.86,-99.24 352.7,-99.65 382,-82 391.37,-76.36 392.48,-73.18 401.5,-67 405.85,-64.03 410.49,-61.01 415.12,-58.1"/>
<polygon fill="lightslategrey" stroke="lightslategrey" points="417.26,-60.89 423.94,-52.66 413.59,-54.93 417.26,-60.89"/>
</g>
<!-- docutils.parsers.rst.Directive&#45;&gt;uqbar.book.sphinx.UqbarBookImportDirective -->
<g id="edge23" class="edge">
<title>docutils.parsers.rst.Directive&#45;&gt;uqbar.book.sphinx.UqbarBookImportDirective</title>
<path fill="none" stroke="lightslategrey" d="M261.04,-155.37C299.56,-158.74 370.37,-164.94 413.8,-168.74"/>
<polygon fill="lightslategrey" stroke="lightslategrey" points="413.69,-172.25 423.96,-169.63 414.3,-165.27 413.69,-172.25"/>
</g>
<!-- uqbar.book.extensions.Extension&#45;&gt;uqbar.book.extensions.GraphExtension -->
<g id="edge6" class="edge">
<title>uqbar.book.extensions.Extension&#45;&gt;uqbar.book.extensions.GraphExtension</title>
<path fill="none" stroke="lightslategrey" d="M263.23,-37.46C275.35,-37.23 289.61,-36.97 302.63,-36.73"/>
<polygon fill="lightslategrey" stroke="lightslategrey" points="302.82,-40.23 312.75,-36.54 302.69,-33.23 302.82,-40.23"/>
</g>
<!-- builtins.BaseException -->
<g id="node1" class="node">
<title>builtins.BaseException</title>
<g id="a_node1"><a xlink:href="https://docs.python.org/3.6/library/exceptions.html#BaseException" xlink:title="Base\nException" target="_top">
<path fill="#fbb4ae" stroke="#fbb4ae" stroke-width="2" d="M145,-525C145,-525 105,-525 105,-525 100,-525 95,-520 95,-515 95,-515 95,-505 95,-505 95,-500 100,-495 105,-495 105,-495 145,-495 145,-495 150,-495 155,-500 155,-505 155,-505 155,-515 155,-515 155,-520 150,-525 145,-525"/>
<text text-anchor="middle" x="125" y="-513" font-family="Arial" font-size="10.00">Base</text>
<text text-anchor="middle" x="125" y="-502" font-family="Arial" font-size="10.00">Exception</text>
</a>
</g>
</g>
<!-- builtins.Exception -->
<g id="node2" class="node">
<title>builtins.Exception</title>
<g id="a_node2"><a xlink:href="https://docs.python.org/3.6/library/exceptions.html#Exception" xlink:title="Exception" target="_top">
<path fill="#fbb4ae" stroke="#fbb4ae" stroke-width="2" d="M256.67,-521.5C256.67,-521.5 209.33,-521.5 209.33,-521.5 206.17,-521.5 203,-518.33 203,-515.17 203,-515.17 203,-508.83 203,-508.83 203,-505.67 206.17,-502.5 209.33,-502.5 209.33,-502.5 256.67,-502.5 256.67,-502.5 259.83,-502.5 263,-505.67 263,-508.83 263,-508.83 263,-515.17 263,-515.17 263,-518.33 259.83,-521.5 256.67,-521.5"/>
<text text-anchor="middle" x="233" y="-509.5" font-family="Arial" font-size="10.00">Exception</text>
</a>
</g>
</g>
<!-- builtins.object -->
<g id="node3" class="node">
<title>builtins.object</title>
<g id="a_node3"><a xlink:href="https://docs.python.org/3.6/library/functions.html#object" xlink:title="object" target="_top">
<path fill="#fbb4ae" stroke="#fbb4ae" stroke-width="2" d="M52.67,-514.5C52.67,-514.5 22.33,-514.5 22.33,-514.5 19.17,-514.5 16,-511.33 16,-508.17 16,-508.17 16,-501.83 16,-501.83 16,-498.67 19.17,-495.5 22.33,-495.5 22.33,-495.5 52.67,-495.5 52.67,-495.5 55.83,-495.5 59,-498.67 59,-501.83 59,-501.83 59,-508.17 59,-508.17 59,-511.33 55.83,-514.5 52.67,-514.5"/>
<text text-anchor="middle" x="37.5" y="-502.5" font-family="Arial" font-size="10.00">object</text>
</a>
</g>
</g>
<!-- code.InteractiveConsole -->
<g id="node4" class="node">
<title>code.InteractiveConsole</title>
<g id="a_node4"><a xlink:href="https://docs.python.org/3.6/library/code.html#code.InteractiveConsole" xlink:title="Interactive\nConsole" target="_top">
<path fill="#b3cde3" stroke="#b3cde3" stroke-width="2" d="M364,-598C364,-598 322,-598 322,-598 317,-598 312,-593 312,-588 312,-588 312,-578 312,-578 312,-573 317,-568 322,-568 322,-568 364,-568 364,-568 369,-568 374,-573 374,-578 374,-578 374,-588 374,-588 374,-593 369,-598 364,-598"/>
<text text-anchor="middle" x="343" y="-586" font-family="Arial" font-size="10.00">Interactive</text>
<text text-anchor="middle" x="343" y="-575" font-family="Arial" font-size="10.00">Console</text>
</a>
</g>
</g>
<!-- code.InteractiveInterpreter -->
<g id="node5" class="node">
<title>code.InteractiveInterpreter</title>
<g id="a_node5"><a xlink:href="https://docs.python.org/3.6/library/code.html#code.InteractiveInterpreter" xlink:title="Interactive\nInterpreter" target="_top">
<path fill="#b3cde3" stroke="#b3cde3" stroke-width="2" d="M254,-598C254,-598 212,-598 212,-598 207,-598 202,-593 202,-588 202,-588 202,-578 202,-578 202,-573 207,-568 212,-568 212,-568 254,-568 254,-568 259,-568 264,-573 264,-578 264,-578 264,-588 264,-588 264,-593 259,-598 254,-598"/>
<text text-anchor="middle" x="233" y="-586" font-family="Arial" font-size="10.00">Interactive</text>
<text text-anchor="middle" x="233" y="-575" font-family="Arial" font-size="10.00">Interpreter</text>
</a>
</g>
</g>
<!-- docutils.nodes.Body -->
<g id="node6" class="node">
<title>docutils.nodes.Body</title>
<path fill="#ccebc5" stroke="#ccebc5" stroke-width="2" d="M246.17,-331.5C246.17,-331.5 219.83,-331.5 219.83,-331.5 216.67,-331.5 213.5,-328.33 213.5,-325.17 213.5,-325.17 213.5,-318.83 213.5,-318.83 213.5,-315.67 216.67,-312.5 219.83,-312.5 219.83,-312.5 246.17,-312.5 246.17,-312.5 249.33,-312.5 252.5,-315.67 252.5,-318.83 252.5,-318.83 252.5,-325.17 252.5,-325.17 252.5,-328.33 249.33,-331.5 246.17,-331.5"/>
<text text-anchor="middle" x="233" y="-319.5" font-family="Arial" font-size="10.00">Body</text>
</g>
<!-- docutils.nodes.General -->
<g id="node7" class="node">
<title>docutils.nodes.General</title>
<path fill="#ccebc5" stroke="#ccebc5" stroke-width="2" d="M361.67,-331.5C361.67,-331.5 324.33,-331.5 324.33,-331.5 321.17,-331.5 318,-328.33 318,-325.17 318,-325.17 318,-318.83 318,-318.83 318,-315.67 321.17,-312.5 324.33,-312.5 324.33,-312.5 361.67,-312.5 361.67,-312.5 364.83,-312.5 368,-315.67 368,-318.83 368,-318.83 368,-325.17 368,-325.17 368,-328.33 364.83,-331.5 361.67,-331.5"/>
<text text-anchor="middle" x="343" y="-319.5" font-family="Arial" font-size="10.00">General</text>
</g>
<!-- docutils.nodes.Element -->
<g id="node8" class="node">
<title>docutils.nodes.Element</title>
<path fill="#ccebc5" stroke="#ccebc5" stroke-width="2" d="M363.17,-294.5C363.17,-294.5 322.83,-294.5 322.83,-294.5 319.67,-294.5 316.5,-291.33 316.5,-288.17 316.5,-288.17 316.5,-281.83 316.5,-281.83 316.5,-278.67 319.67,-275.5 322.83,-275.5 322.83,-275.5 363.17,-275.5 363.17,-275.5 366.33,-275.5 369.5,-278.67 369.5,-281.83 369.5,-281.83 369.5,-288.17 369.5,-288.17 369.5,-291.33 366.33,-294.5 363.17,-294.5"/>
<text text-anchor="middle" x="343" y="-282.5" font-family="Arial" font-size="10.00">Element</text>
</g>
<!-- docutils.nodes.Node -->
<g id="node9" class="node">
<title>docutils.nodes.Node</title>
<path fill="#ccebc5" stroke="#ccebc5" stroke-width="2" d="M246.67,-294.5C246.67,-294.5 219.33,-294.5 219.33,-294.5 216.17,-294.5 213,-291.33 213,-288.17 213,-288.17 213,-281.83 213,-281.83 213,-278.67 216.17,-275.5 219.33,-275.5 219.33,-275.5 246.67,-275.5 246.67,-275.5 249.83,-275.5 253,-278.67 253,-281.83 253,-281.83 253,-288.17 253,-288.17 253,-291.33 249.83,-294.5 246.67,-294.5"/>
<text text-anchor="middle" x="233" y="-282.5" font-family="Arial" font-size="10.00">Node</text>
</g>
<!-- docutils.parsers.rst.Directive -->
<g id="node10" class="node">
<title>docutils.parsers.rst.Directive</title>
<g id="a_node10"><a xlink:href="https://www.sphinx-doc.org/en/stable/extdev/markupapi.html#docutils.parsers.rst.Directive" xlink:title="Directive" target="_top">
<path fill="#decbe4" stroke="#decbe4" stroke-width="2" d="M254.67,-162.5C254.67,-162.5 211.33,-162.5 211.33,-162.5 208.17,-162.5 205,-159.33 205,-156.17 205,-156.17 205,-149.83 205,-149.83 205,-146.67 208.17,-143.5 211.33,-143.5 211.33,-143.5 254.67,-143.5 254.67,-143.5 257.83,-143.5 261,-146.67 261,-149.83 261,-149.83 261,-156.17 261,-156.17 261,-159.33 257.83,-162.5 254.67,-162.5"/>
<text text-anchor="middle" x="233" y="-150.5" font-family="Arial" font-size="10.00">Directive</text>
</a>
</g>
</g>
<!-- uqbar.book.console.Console -->
<g id="node11" class="node">
<title>uqbar.book.console.Console</title>
<g id="a_node11"><a xlink:href="../api/uqbar/book/console.html#uqbar.book.console.Console" xlink:title="Console" target="_top">
<path fill="#fed9a6" stroke="#fed9a6" stroke-width="2" d="M472.17,-592.5C472.17,-592.5 431.83,-592.5 431.83,-592.5 428.67,-592.5 425.5,-589.33 425.5,-586.17 425.5,-586.17 425.5,-579.83 425.5,-579.83 425.5,-576.67 428.67,-573.5 431.83,-573.5 431.83,-573.5 472.17,-573.5 472.17,-573.5 475.33,-573.5 478.5,-576.67 478.5,-579.83 478.5,-579.83 478.5,-586.17 478.5,-586.17 478.5,-589.33 475.33,-592.5 472.17,-592.5"/>
<text text-anchor="middle" x="452" y="-580.5" font-family="Arial" font-size="10.00">Console</text>
</a>
</g>
</g>
<!-- uqbar.book.console.ConsoleError -->
<g id="node12" class="node">
<title>uqbar.book.console.ConsoleError</title>
<g id="a_node12"><a xlink:href="../api/uqbar/book/console.html#uqbar.book.console.ConsoleError" xlink:title="Console\nError" target="_top">
<path fill="#fed9a6" stroke="#fed9a6" stroke-width="2" d="M468.5,-555C468.5,-555 435.5,-555 435.5,-555 430.5,-555 425.5,-550 425.5,-545 425.5,-545 425.5,-535 425.5,-535 425.5,-530 430.5,-525 435.5,-525 435.5,-525 468.5,-525 468.5,-525 473.5,-525 478.5,-530 478.5,-535 478.5,-535 478.5,-545 478.5,-545 478.5,-550 473.5,-555 468.5,-555"/>
<text text-anchor="middle" x="452" y="-543" font-family="Arial" font-size="10.00">Console</text>
<text text-anchor="middle" x="452" y="-532" font-family="Arial" font-size="10.00">Error</text>
</a>
</g>
</g>
<!-- uqbar.book.console.ConsoleInput -->
<g id="node13" class="node">
<title>uqbar.book.console.ConsoleInput</title>
<g id="a_node13"><a xlink:href="../api/uqbar/book/console.html#uqbar.book.console.ConsoleInput" xlink:title="Console\nInput" target="_top">
<path fill="#fed9a6" stroke="#fed9a6" stroke-width="2" d="M468.5,-507C468.5,-507 435.5,-507 435.5,-507 430.5,-507 425.5,-502 425.5,-497 425.5,-497 425.5,-487 425.5,-487 425.5,-482 430.5,-477 435.5,-477 435.5,-477 468.5,-477 468.5,-477 473.5,-477 478.5,-482 478.5,-487 478.5,-487 478.5,-497 478.5,-497 478.5,-502 473.5,-507 468.5,-507"/>
<text text-anchor="middle" x="452" y="-495" font-family="Arial" font-size="10.00">Console</text>
<text text-anchor="middle" x="452" y="-484" font-family="Arial" font-size="10.00">Input</text>
</a>
</g>
</g>
<!-- uqbar.book.console.ConsoleOutput -->
<g id="node14" class="node">
<title>uqbar.book.console.ConsoleOutput</title>
<g id="a_node14"><a xlink:href="../api/uqbar/book/console.html#uqbar.book.console.ConsoleOutput" xlink:title="Console\nOutput" target="_top">
<path fill="#fed9a6" stroke="#fed9a6" stroke-width="2" d="M468.5,-459C468.5,-459 435.5,-459 435.5,-459 430.5,-459 425.5,-454 425.5,-449 425.5,-449 425.5,-439 425.5,-439 425.5,-434 430.5,-429 435.5,-429 435.5,-429 468.5,-429 468.5,-429 473.5,-429 478.5,-434 478.5,-439 478.5,-439 478.5,-449 478.5,-449 478.5,-454 473.5,-459 468.5,-459"/>
<text text-anchor="middle" x="452" y="-447" font-family="Arial" font-size="10.00">Console</text>
<text text-anchor="middle" x="452" y="-436" font-family="Arial" font-size="10.00">Output</text>
</a>
</g>
</g>
<!-- uqbar.book.console.MonkeyPatch -->
<g id="node15" class="node">
<title>uqbar.book.console.MonkeyPatch</title>
<g id="a_node15"><a xlink:href="../api/uqbar/book/console.html#uqbar.book.console.MonkeyPatch" xlink:title="Monkey\nPatch" target="_top">
<path fill="#fed9a6" stroke="#fed9a6" stroke-width="2" d="M467.5,-411C467.5,-411 436.5,-411 436.5,-411 431.5,-411 426.5,-406 426.5,-401 426.5,-401 426.5,-391 426.5,-391 426.5,-386 431.5,-381 436.5,-381 436.5,-381 467.5,-381 467.5,-381 472.5,-381 477.5,-386 477.5,-391 477.5,-391 477.5,-401 477.5,-401 477.5,-406 472.5,-411 467.5,-411"/>
<text text-anchor="middle" x="452" y="-399" font-family="Arial" font-size="10.00">Monkey</text>
<text text-anchor="middle" x="452" y="-388" font-family="Arial" font-size="10.00">Patch</text>
</a>
</g>
</g>
<!-- uqbar.book.extensions.Extension -->
<g id="node16" class="node">
<title>uqbar.book.extensions.Extension</title>
<g id="a_node16"><a xlink:href="../api/uqbar/book/extensions.html#uqbar.book.extensions.Extension" xlink:title="Extension" target="_top">
<path fill="#ffffcc" stroke="#ffffcc" stroke-width="2" d="M256.67,-47.5C256.67,-47.5 209.33,-47.5 209.33,-47.5 206.17,-47.5 203,-44.33 203,-41.17 203,-41.17 203,-34.83 203,-34.83 203,-31.67 206.17,-28.5 209.33,-28.5 209.33,-28.5 256.67,-28.5 256.67,-28.5 259.83,-28.5 263,-31.67 263,-34.83 263,-34.83 263,-41.17 263,-41.17 263,-44.33 259.83,-47.5 256.67,-47.5"/>
<text text-anchor="middle" x="233" y="-35.5" font-family="Arial" font-size="10.00">Extension</text>
</a>
</g>
</g>
<!-- uqbar.book.extensions.GraphExtension -->
<g id="node17" class="node">
<title>uqbar.book.extensions.GraphExtension</title>
<g id="a_node17"><a xlink:href="../api/uqbar/book/extensions.html#uqbar.book.extensions.GraphExtension" xlink:title="Graph\nExtension" target="_top">
<path fill="#ffffcc" stroke="#ffffcc" stroke-width="2" d="M363,-51C363,-51 323,-51 323,-51 318,-51 313,-46 313,-41 313,-41 313,-31 313,-31 313,-26 318,-21 323,-21 323,-21 363,-21 363,-21 368,-21 373,-26 373,-31 373,-31 373,-41 373,-41 373,-46 368,-51 363,-51"/>
<text text-anchor="middle" x="343" y="-39" font-family="Arial" font-size="10.00">Graph</text>
<text text-anchor="middle" x="343" y="-28" font-family="Arial" font-size="10.00">Extension</text>
</a>
</g>
</g>
<!-- uqbar.book.sphinx.UqbarBookDefaultsDirective -->
<g id="node18" class="node">
<title>uqbar.book.sphinx.UqbarBookDefaultsDirective</title>
<g id="a_node18"><a xlink:href="../api/uqbar/book/sphinx.html#uqbar.book.sphinx.UqbarBookDefaultsDirective" xlink:title="Uqbar\nBook\nDefaults\nDirective" target="_top">
<path fill="#e5d8bd" stroke="#e5d8bd" stroke-width="2" d="M468,-128C468,-128 436,-128 436,-128 430,-128 424,-122 424,-116 424,-116 424,-88 424,-88 424,-82 430,-76 436,-76 436,-76 468,-76 468,-76 474,-76 480,-82 480,-88 480,-88 480,-116 480,-116 480,-122 474,-128 468,-128"/>
<text text-anchor="middle" x="452" y="-116" font-family="Arial" font-size="10.00">Uqbar</text>
<text text-anchor="middle" x="452" y="-105" font-family="Arial" font-size="10.00">Book</text>
<text text-anchor="middle" x="452" y="-94" font-family="Arial" font-size="10.00">Defaults</text>
<text text-anchor="middle" x="452" y="-83" font-family="Arial" font-size="10.00">Directive</text>
</a>
</g>
</g>
<!-- uqbar.book.sphinx.UqbarBookDirective -->
<g id="node19" class="node">
<title>uqbar.book.sphinx.UqbarBookDirective</title>
<g id="a_node19"><a xlink:href="../api/uqbar/book/sphinx.html#uqbar.book.sphinx.UqbarBookDirective" xlink:title="Uqbar\nBook\nDirective" target="_top">
<path fill="#e5d8bd" stroke="#e5d8bd" stroke-width="2" d="M468,-57.5C468,-57.5 436,-57.5 436,-57.5 430,-57.5 424,-51.5 424,-45.5 424,-45.5 424,-28.5 424,-28.5 424,-22.5 430,-16.5 436,-16.5 436,-16.5 468,-16.5 468,-16.5 474,-16.5 480,-22.5 480,-28.5 480,-28.5 480,-45.5 480,-45.5 480,-51.5 474,-57.5 468,-57.5"/>
<text text-anchor="middle" x="452" y="-45.5" font-family="Arial" font-size="10.00">Uqbar</text>
<text text-anchor="middle" x="452" y="-34.5" font-family="Arial" font-size="10.00">Book</text>
<text text-anchor="middle" x="452" y="-23.5" font-family="Arial" font-size="10.00">Directive</text>
</a>
</g>
</g>
<!-- uqbar.book.sphinx.UqbarBookImportDirective -->
<g id="node20" class="node">
<title>uqbar.book.sphinx.UqbarBookImportDirective</title>
<g id="a_node20"><a xlink:href="../api/uqbar/book/sphinx.html#uqbar.book.sphinx.UqbarBookImportDirective" xlink:title="Uqbar\nBook\nImport\nDirective" target="_top">
<path fill="#e5d8bd" stroke="#e5d8bd" stroke-width="2" d="M468,-198C468,-198 436,-198 436,-198 430,-198 424,-192 424,-186 424,-186 424,-158 424,-158 424,-152 430,-146 436,-146 436,-146 468,-146 468,-146 474,-146 480,-152 480,-158 480,-158 480,-186 480,-186 480,-192 474,-198 468,-198"/>
<text text-anchor="middle" x="452" y="-186" font-family="Arial" font-size="10.00">Uqbar</text>
<text text-anchor="middle" x="452" y="-175" font-family="Arial" font-size="10.00">Book</text>
<text text-anchor="middle" x="452" y="-164" font-family="Arial" font-size="10.00">Import</text>
<text text-anchor="middle" x="452" y="-153" font-family="Arial" font-size="10.00">Directive</text>
</a>
</g>
</g>
<!-- uqbar.book.sphinx.uqbar_book_defaults_block -->
<g id="node21" class="node">
<title>uqbar.book.sphinx.uqbar_book_defaults_block</title>
<g id="a_node21"><a xlink:href="../api/uqbar/book/sphinx.html#uqbar.book.sphinx.uqbar_book_defaults_block" xlink:title="uqbar\nbook\ndefaults\nblock" target="_top">
<path fill="#e5d8bd" stroke="#e5d8bd" stroke-width="2" d="M465.5,-268C465.5,-268 438.5,-268 438.5,-268 432.5,-268 426.5,-262 426.5,-256 426.5,-256 426.5,-228 426.5,-228 426.5,-222 432.5,-216 438.5,-216 438.5,-216 465.5,-216 465.5,-216 471.5,-216 477.5,-222 477.5,-228 477.5,-228 477.5,-256 477.5,-256 477.5,-262 471.5,-268 465.5,-268"/>
<text text-anchor="middle" x="452" y="-256" font-family="Arial" font-size="10.00">uqbar</text>
<text text-anchor="middle" x="452" y="-245" font-family="Arial" font-size="10.00">book</text>
<text text-anchor="middle" x="452" y="-234" font-family="Arial" font-size="10.00">defaults</text>
<text text-anchor="middle" x="452" y="-223" font-family="Arial" font-size="10.00">block</text>
</a>
</g>
</g>
<!-- uqbar.book.sphinx.uqbar_book_import_block -->
<g id="node22" class="node">
<title>uqbar.book.sphinx.uqbar_book_import_block</title>
<g id="a_node22"><a xlink:href="../api/uqbar/book/sphinx.html#uqbar.book.sphinx.uqbar_book_import_block" xlink:title="uqbar\nbook\nimport\nblock" target="_top">
<path fill="#e5d8bd" stroke="#e5d8bd" stroke-width="2" d="M462,-338C462,-338 442,-338 442,-338 436,-338 430,-332 430,-326 430,-326 430,-298 430,-298 430,-292 436,-286 442,-286 442,-286 462,-286 462,-286 468,-286 474,-292 474,-298 474,-298 474,-326 474,-326 474,-332 468,-338 462,-338"/>
<text text-anchor="middle" x="452" y="-326" font-family="Arial" font-size="10.00">uqbar</text>
<text text-anchor="middle" x="452" y="-315" font-family="Arial" font-size="10.00">book</text>
<text text-anchor="middle" x="452" y="-304" font-family="Arial" font-size="10.00">import</text>
<text text-anchor="middle" x="452" y="-293" font-family="Arial" font-size="10.00">block</text>
</a>
</g>
</g>
</g>
</svg>
