<?xml version="1.0" encoding="UTF-8" standalone="no"?>
<!DOCTYPE svg PUBLIC "-//W3C//DTD SVG 1.1//EN"
 "http://www.w3.org/Graphics/SVG/1.1/DTD/svg11.dtd">
<!-- Generated by graphviz version 2.40.1 (20161225.0304)
 -->
<!-- Title: InheritanceGraph Pages: 1 -->
<svg width="430pt" height="354pt"
 viewBox="0.00 0.00 430.00 354.00" xmlns="http://www.w3.org/2000/svg" xmlns:xlink="http://www.w3.org/1999/xlink">
<g id="graph0" class="graph" transform="scale(1 1) rotate(0) translate(4 350)">
<title>InheritanceGraph</title>
<g id="clust1" class="cluster">
<title>cluster_builtins</title>
<path fill="transparent" stroke="#bcd2ee" stroke-width="2" stroke-dasharray="5,2" d="M20,-273C20,-273 220,-273 220,-273 226,-273 232,-279 232,-285 232,-285 232,-326 232,-326 232,-332 226,-338 220,-338 220,-338 20,-338 20,-338 14,-338 8,-332 8,-326 8,-326 8,-285 8,-285 8,-279 14,-273 20,-273"/>
<text text-anchor="middle" x="120" y="-326" font-family="Arial" font-size="10.00" fill="#000000">builtins</text>
</g>
<g id="clust2" class="cluster">
<title>cluster_code</title>
<path fill="transparent" stroke="#bcd2ee" stroke-width="2" stroke-dasharray="5,2" d="M178,-200C178,-200 308,-200 308,-200 314,-200 320,-206 320,-212 320,-212 320,-253 320,-253 320,-259 314,-265 308,-265 308,-265 178,-265 178,-265 172,-265 166,-259 166,-253 166,-253 166,-212 166,-212 166,-206 172,-200 178,-200"/>
<text text-anchor="middle" x="243" y="-253" font-family="Arial" font-size="10.00" fill="#000000">code</text>
</g>
<g id="clust3" class="cluster">
<title>cluster_uqbar.book.console</title>
<path fill="transparent" stroke="#bcd2ee" stroke-width="2" stroke-dasharray="5,2" d="M352,-8C352,-8 410,-8 410,-8 416,-8 422,-14 422,-20 422,-20 422,-243 422,-243 422,-249 416,-255 410,-255 410,-255 352,-255 352,-255 346,-255 340,-249 340,-243 340,-243 340,-20 340,-20 340,-14 346,-8 352,-8"/>
<text text-anchor="middle" x="381" y="-243" font-family="Arial" font-size="10.00" fill="#000000">uqbar.book.console</text>
</g>
<g id="clust4" class="cluster">
<title>cluster_uqbar.book.extensions</title>
<path fill="transparent" stroke="#bcd2ee" stroke-width="2" stroke-dasharray="5,2" d="M179,-127C179,-127 307,-127 307,-127 313,-127 319,-133 319,-139 319,-139 319,-180 319,-180 319,-186 313,-192 307,-192 307,-192 179,-192 179,-192 173,-192 167,-186 167,-180 167,-180 167,-139 167,-139 167,-133 173,-127 179,-127"/>
<text text-anchor="middle" x="243" y="-180" font-family="Arial" font-size="10.00" fill="#000000">uqbar.book.extensions</text>
</g>
<!-- builtins.BaseException&#45;&gt;builtins.Exception -->
<g id="edge1" class="edge">
<title>builtins.BaseException&#45;&gt;builtins.Exception</title>
<path fill="none" stroke="#778899" d="M138.3748,-295.1323C146.6468,-294.8437 156.0143,-294.5169 164.8862,-294.2075"/>
<polygon fill="#778899" stroke="#778899" points="165.1063,-297.702 174.9781,-293.8554 164.8622,-290.7063 165.1063,-297.702"/>
</g>
<!-- builtins.Exception&#45;&gt;uqbar.book.console.ConsoleError -->
<g id="edge5" class="edge">
<title>builtins.Exception&#45;&gt;uqbar.book.console.ConsoleError</title>
<path fill="none" stroke="#778899" d="M224.3144,-291.9589C249.6102,-290.028 289.3753,-284.5425 320,-269 335.9365,-260.912 350.7796,-247.474 361.8333,-235.7891"/>
<polygon fill="#778899" stroke="#778899" points="364.7146,-237.8224 368.8474,-228.0669 359.533,-233.116 364.7146,-237.8224"/>
</g>
<!-- builtins.object&#45;&gt;builtins.BaseException -->
<g id="edge2" class="edge">
<title>builtins.object&#45;&gt;builtins.BaseException</title>
<path fill="none" stroke="#778899" d="M53.2219,-292.1849C60.8959,-292.6706 70.0326,-293.2489 78.843,-293.8065"/>
<polygon fill="#778899" stroke="#778899" points="78.7274,-297.3061 88.9285,-294.4448 79.1696,-290.3201 78.7274,-297.3061"/>
</g>
<!-- builtins.object&#45;&gt;code.InteractiveInterpreter -->
<g id="edge6" class="edge">
<title>builtins.object&#45;&gt;code.InteractiveInterpreter</title>
<path fill="none" stroke="#778899" d="M53.1069,-283.3317C80.0316,-272.2355 130.3504,-251.498 164.3873,-237.4707"/>
<polygon fill="#778899" stroke="#778899" points="166.0407,-240.5749 173.9527,-233.5286 163.3735,-234.103 166.0407,-240.5749"/>
</g>
<!-- builtins.object&#45;&gt;uqbar.book.console.ConsoleInput -->
<g id="edge7" class="edge">
<title>builtins.object&#45;&gt;uqbar.book.console.ConsoleInput</title>
<path fill="none" stroke="#778899" d="M38.0359,-281.3479C50.0479,-250.2714 92.6711,-153.0934 166,-123 226.7824,-98.0555 305.6028,-109.298 348.9348,-118.7621"/>
<polygon fill="#778899" stroke="#778899" points="348.3703,-122.2234 358.8995,-121.0456 349.9339,-115.4003 348.3703,-122.2234"/>
</g>
<!-- builtins.object&#45;&gt;uqbar.book.console.ConsoleOutput -->
<g id="edge8" class="edge">
<title>builtins.object&#45;&gt;uqbar.book.console.ConsoleOutput</title>
<path fill="none" stroke="#778899" d="M35.2298,-281.2422C37.7335,-254.4893 48.2321,-179.1068 89,-136 157.3002,-63.7813 287.9253,-67.9305 348.5738,-74.4417"/>
<polygon fill="#778899" stroke="#778899" points="348.3745,-77.9421 358.7126,-75.6241 349.1854,-70.9893 348.3745,-77.9421"/>
</g>
<!-- builtins.object&#45;&gt;uqbar.book.console.MonkeyPatch -->
<g id="edge9" class="edge">
<title>builtins.object&#45;&gt;uqbar.book.console.MonkeyPatch</title>
<path fill="none" stroke="#778899" d="M36.0386,-281.3428C41.8104,-246.2099 63.1696,-125.8038 89,-98 157.4611,-24.3087 289.1223,-23.7192 349.4294,-27.8388"/>
<polygon fill="#778899" stroke="#778899" points="349.2512,-31.3354 359.4914,-28.617 349.791,-24.3563 349.2512,-31.3354"/>
</g>
<!-- builtins.object&#45;&gt;uqbar.book.extensions.Extension -->
<g id="edge10" class="edge">
<title>builtins.object&#45;&gt;uqbar.book.extensions.Extension</title>
<path fill="none" stroke="#778899" d="M45.724,-281.2212C56.7088,-271.6743 73.9391,-256.7622 89,-244 120.6084,-217.2159 157.6769,-186.4921 179.8404,-168.1947"/>
<polygon fill="#778899" stroke="#778899" points="182.3441,-170.6666 187.831,-161.6032 177.8897,-165.2667 182.3441,-170.6666"/>
</g>
<!-- code.InteractiveConsole&#45;&gt;uqbar.book.console.Console -->
<g id="edge11" class="edge">
<title>code.InteractiveConsole&#45;&gt;uqbar.book.console.Console</title>
<path fill="none" stroke="#778899" d="M308.7493,-207.9318C318.2115,-201.769 329.4731,-194.7514 340,-189 343.1239,-187.2932 346.4285,-185.5946 349.7516,-183.9548"/>
<polygon fill="#778899" stroke="#778899" points="351.5101,-186.9939 359.031,-179.5316 348.498,-180.6751 351.5101,-186.9939"/>
</g>
<!-- code.InteractiveInterpreter&#45;&gt;code.InteractiveConsole -->
<g id="edge3" class="edge">
<title>code.InteractiveInterpreter&#45;&gt;code.InteractiveConsole</title>
<path fill="none" stroke="#778899" d="M225.1323,-223C233.1144,-223 242.0679,-223 250.6164,-223"/>
<polygon fill="#778899" stroke="#778899" points="250.7503,-226.5001 260.7503,-223 250.7502,-219.5001 250.7503,-226.5001"/>
</g>
<!-- uqbar.book.extensions.Extension&#45;&gt;uqbar.book.extensions.GraphExtension -->
<g id="edge4" class="edge">
<title>uqbar.book.extensions.Extension&#45;&gt;uqbar.book.extensions.GraphExtension</title>
<path fill="none" stroke="#778899" d="M224.198,-151.4322C232.739,-151.2359 242.4774,-151.012 251.6763,-150.8005"/>
<polygon fill="#778899" stroke="#778899" points="251.8234,-154.2982 261.7402,-150.5692 251.6624,-147.3 251.8234,-154.2982"/>
</g>
<!-- builtins.BaseException -->
<g id="node1" class="node">
<title>builtins.BaseException</title>
<g id="a_node1"><a xlink:href="https://docs.python.org/3.6/library/exceptions.html#BaseException" xlink:title="Base\nException" target="_top">
<path fill="#fbb4ae" stroke="#fbb4ae" stroke-width="2" d="M128,-311C128,-311 99,-311 99,-311 94,-311 89,-306 89,-301 89,-301 89,-291 89,-291 89,-286 94,-281 99,-281 99,-281 128,-281 128,-281 133,-281 138,-286 138,-291 138,-291 138,-301 138,-301 138,-306 133,-311 128,-311"/>
<text text-anchor="middle" x="113.5" y="-299" font-family="Arial" font-size="10.00" fill="#000000">Base</text>
<text text-anchor="middle" x="113.5" y="-288" font-family="Arial" font-size="10.00" fill="#000000">Exception</text>
</a>
</g>
</g>
<!-- builtins.Exception -->
<g id="node2" class="node">
<title>builtins.Exception</title>
<g id="a_node2"><a xlink:href="https://docs.python.org/3.6/library/exceptions.html#Exception" xlink:title="Exception" target="_top">
<path fill="#fbb4ae" stroke="#fbb4ae" stroke-width="2" d="M217.6667,-302.5C217.6667,-302.5 181.3333,-302.5 181.3333,-302.5 178.1667,-302.5 175,-299.3333 175,-296.1667 175,-296.1667 175,-289.8333 175,-289.8333 175,-286.6667 178.1667,-283.5 181.3333,-283.5 181.3333,-283.5 217.6667,-283.5 217.6667,-283.5 220.8333,-283.5 224,-286.6667 224,-289.8333 224,-289.8333 224,-296.1667 224,-296.1667 224,-299.3333 220.8333,-302.5 217.6667,-302.5"/>
<text text-anchor="middle" x="199.5" y="-290.5" font-family="Arial" font-size="10.00" fill="#000000">Exception</text>
</a>
</g>
</g>
<!-- builtins.object -->
<g id="node3" class="node">
<title>builtins.object</title>
<g id="a_node3"><a xlink:href="https://docs.python.org/3.6/library/functions.html#object" xlink:title="object" target="_top">
<path fill="#fbb4ae" stroke="#fbb4ae" stroke-width="2" d="M46.6667,-300.5C46.6667,-300.5 22.3333,-300.5 22.3333,-300.5 19.1667,-300.5 16,-297.3333 16,-294.1667 16,-294.1667 16,-287.8333 16,-287.8333 16,-284.6667 19.1667,-281.5 22.3333,-281.5 22.3333,-281.5 46.6667,-281.5 46.6667,-281.5 49.8333,-281.5 53,-284.6667 53,-287.8333 53,-287.8333 53,-294.1667 53,-294.1667 53,-297.3333 49.8333,-300.5 46.6667,-300.5"/>
<text text-anchor="middle" x="34.5" y="-288.5" font-family="Arial" font-size="10.00" fill="#000000">object</text>
</a>
</g>
</g>
<!-- code.InteractiveConsole -->
<g id="node4" class="node">
<title>code.InteractiveConsole</title>
<g id="a_node4"><a xlink:href="https://docs.python.org/3.6/library/code.html#code.InteractiveConsole" xlink:title="Interactive\nConsole" target="_top">
<path fill="#b3cde3" stroke="#b3cde3" stroke-width="2" d="M302,-238C302,-238 271,-238 271,-238 266,-238 261,-233 261,-228 261,-228 261,-218 261,-218 261,-213 266,-208 271,-208 271,-208 302,-208 302,-208 307,-208 312,-213 312,-218 312,-218 312,-228 312,-228 312,-233 307,-238 302,-238"/>
<text text-anchor="middle" x="286.5" y="-226" font-family="Arial" font-size="10.00" fill="#000000">Interactive</text>
<text text-anchor="middle" x="286.5" y="-215" font-family="Arial" font-size="10.00" fill="#000000">Console</text>
</a>
</g>
</g>
<!-- code.InteractiveInterpreter -->
<g id="node5" class="node">
<title>code.InteractiveInterpreter</title>
<g id="a_node5"><a xlink:href="https://docs.python.org/3.6/library/code.html#code.InteractiveInterpreter" xlink:title="Interactive\nInterpreter" target="_top">
<path fill="#b3cde3" stroke="#b3cde3" stroke-width="2" d="M215,-238C215,-238 184,-238 184,-238 179,-238 174,-233 174,-228 174,-228 174,-218 174,-218 174,-213 179,-208 184,-208 184,-208 215,-208 215,-208 220,-208 225,-213 225,-218 225,-218 225,-228 225,-228 225,-233 220,-238 215,-238"/>
<text text-anchor="middle" x="199.5" y="-226" font-family="Arial" font-size="10.00" fill="#000000">Interactive</text>
<text text-anchor="middle" x="199.5" y="-215" font-family="Arial" font-size="10.00" fill="#000000">Interpreter</text>
</a>
</g>
</g>
<!-- uqbar.book.console.Console -->
<g id="node6" class="node">
<title>uqbar.book.console.Console</title>
<g id="a_node6"><a xlink:href="../api/uqbar/book/console.html#uqbar.book.console.Console" xlink:title="Console" target="_top">
<path fill="#ccebc5" stroke="#ccebc5" stroke-width="2" d="M396.6667,-179.5C396.6667,-179.5 365.3333,-179.5 365.3333,-179.5 362.1667,-179.5 359,-176.3333 359,-173.1667 359,-173.1667 359,-166.8333 359,-166.8333 359,-163.6667 362.1667,-160.5 365.3333,-160.5 365.3333,-160.5 396.6667,-160.5 396.6667,-160.5 399.8333,-160.5 403,-163.6667 403,-166.8333 403,-166.8333 403,-173.1667 403,-173.1667 403,-176.3333 399.8333,-179.5 396.6667,-179.5"/>
<text text-anchor="middle" x="381" y="-167.5" font-family="Arial" font-size="10.00" fill="#000000">Console</text>
</a>
</g>
</g>
<!-- uqbar.book.console.ConsoleError -->
<g id="node7" class="node">
<title>uqbar.book.console.ConsoleError</title>
<g id="a_node7"><a xlink:href="../api/uqbar/book/console.html#uqbar.book.console.ConsoleError" xlink:title="Console\nError" target="_top">
<path fill="#ccebc5" stroke="#ccebc5" stroke-width="2" d="M393,-228C393,-228 369,-228 369,-228 364,-228 359,-223 359,-218 359,-218 359,-208 359,-208 359,-203 364,-198 369,-198 369,-198 393,-198 393,-198 398,-198 403,-203 403,-208 403,-208 403,-218 403,-218 403,-223 398,-228 393,-228"/>
<text text-anchor="middle" x="381" y="-216" font-family="Arial" font-size="10.00" fill="#000000">Console</text>
<text text-anchor="middle" x="381" y="-205" font-family="Arial" font-size="10.00" fill="#000000">Error</text>
</a>
</g>
</g>
<!-- uqbar.book.console.ConsoleInput -->
<g id="node8" class="node">
<title>uqbar.book.console.ConsoleInput</title>
<g id="a_node8"><a xlink:href="../api/uqbar/book/console.html#uqbar.book.console.ConsoleInput" xlink:title="Console\nInput" target="_top">
<path fill="#ccebc5" stroke="#ccebc5" stroke-width="2" d="M393,-142C393,-142 369,-142 369,-142 364,-142 359,-137 359,-132 359,-132 359,-122 359,-122 359,-117 364,-112 369,-112 369,-112 393,-112 393,-112 398,-112 403,-117 403,-122 403,-122 403,-132 403,-132 403,-137 398,-142 393,-142"/>
<text text-anchor="middle" x="381" y="-130" font-family="Arial" font-size="10.00" fill="#000000">Console</text>
<text text-anchor="middle" x="381" y="-119" font-family="Arial" font-size="10.00" fill="#000000">Input</text>
</a>
</g>
</g>
<!-- uqbar.book.console.ConsoleOutput -->
<g id="node9" class="node">
<title>uqbar.book.console.ConsoleOutput</title>
<g id="a_node9"><a xlink:href="../api/uqbar/book/console.html#uqbar.book.console.ConsoleOutput" xlink:title="Console\nOutput" target="_top">
<path fill="#ccebc5" stroke="#ccebc5" stroke-width="2" d="M393,-94C393,-94 369,-94 369,-94 364,-94 359,-89 359,-84 359,-84 359,-74 359,-74 359,-69 364,-64 369,-64 369,-64 393,-64 393,-64 398,-64 403,-69 403,-74 403,-74 403,-84 403,-84 403,-89 398,-94 393,-94"/>
<text text-anchor="middle" x="381" y="-82" font-family="Arial" font-size="10.00" fill="#000000">Console</text>
<text text-anchor="middle" x="381" y="-71" font-family="Arial" font-size="10.00" fill="#000000">Output</text>
</a>
</g>
</g>
<!-- uqbar.book.console.MonkeyPatch -->
<g id="node10" class="node">
<title>uqbar.book.console.MonkeyPatch</title>
<g id="a_node10"><a xlink:href="../api/uqbar/book/console.html#uqbar.book.console.MonkeyPatch" xlink:title="Monkey\nPatch" target="_top">
<path fill="#ccebc5" stroke="#ccebc5" stroke-width="2" d="M392.5,-46C392.5,-46 369.5,-46 369.5,-46 364.5,-46 359.5,-41 359.5,-36 359.5,-36 359.5,-26 359.5,-26 359.5,-21 364.5,-16 369.5,-16 369.5,-16 392.5,-16 392.5,-16 397.5,-16 402.5,-21 402.5,-26 402.5,-26 402.5,-36 402.5,-36 402.5,-41 397.5,-46 392.5,-46"/>
<text text-anchor="middle" x="381" y="-34" font-family="Arial" font-size="10.00" fill="#000000">Monkey</text>
<text text-anchor="middle" x="381" y="-23" font-family="Arial" font-size="10.00" fill="#000000">Patch</text>
</a>
</g>
</g>
<!-- uqbar.book.extensions.Extension -->
<g id="node11" class="node">
<title>uqbar.book.extensions.Extension</title>
<g id="a_node11"><a xlink:href="../api/uqbar/book/extensions.html#uqbar.book.extensions.Extension" xlink:title="Extension" target="_top">
<path fill="#decbe4" stroke="#decbe4" stroke-width="2" d="M217.6667,-161.5C217.6667,-161.5 181.3333,-161.5 181.3333,-161.5 178.1667,-161.5 175,-158.3333 175,-155.1667 175,-155.1667 175,-148.8333 175,-148.8333 175,-145.6667 178.1667,-142.5 181.3333,-142.5 181.3333,-142.5 217.6667,-142.5 217.6667,-142.5 220.8333,-142.5 224,-145.6667 224,-148.8333 224,-148.8333 224,-155.1667 224,-155.1667 224,-158.3333 220.8333,-161.5 217.6667,-161.5"/>
<text text-anchor="middle" x="199.5" y="-149.5" font-family="Arial" font-size="10.00" fill="#000000">Extension</text>
</a>
</g>
</g>
<!-- uqbar.book.extensions.GraphExtension -->
<g id="node12" class="node">
<title>uqbar.book.extensions.GraphExtension</title>
<g id="a_node12"><a xlink:href="../api/uqbar/book/extensions.html#uqbar.book.extensions.GraphExtension" xlink:title="Graph\nExtension" target="_top">
<path fill="#decbe4" stroke="#decbe4" stroke-width="2" d="M301,-165C301,-165 272,-165 272,-165 267,-165 262,-160 262,-155 262,-155 262,-145 262,-145 262,-140 267,-135 272,-135 272,-135 301,-135 301,-135 306,-135 311,-140 311,-145 311,-145 311,-155 311,-155 311,-160 306,-165 301,-165"/>
<text text-anchor="middle" x="286.5" y="-153" font-family="Arial" font-size="10.00" fill="#000000">Graph</text>
<text text-anchor="middle" x="286.5" y="-142" font-family="Arial" font-size="10.00" fill="#000000">Extension</text>
</a>
</g>
</g>
</g>
</svg>
