<?xml version="1.0" encoding="UTF-8" standalone="no"?>
<!DOCTYPE svg PUBLIC "-//W3C//DTD SVG 1.1//EN"
 "http://www.w3.org/Graphics/SVG/1.1/DTD/svg11.dtd">
<!-- Generated by graphviz version 2.44.0 (20200408.0750)
 -->
<!-- Title: InheritanceGraph Pages: 1 -->
<svg width="437pt" height="381pt"
 viewBox="0.00 0.00 437.00 381.00" xmlns="http://www.w3.org/2000/svg" xmlns:xlink="http://www.w3.org/1999/xlink">
<g id="graph0" class="graph" transform="scale(1 1) rotate(0) translate(4 377)">
<title>InheritanceGraph</title>
<g id="clust1" class="cluster">
<title>cluster_builtins</title>
<path fill="transparent" stroke="#bcd2ee" stroke-width="2" stroke-dasharray="5,2" d="M20,-223C20,-223 55,-223 55,-223 61,-223 67,-229 67,-235 67,-235 67,-266 67,-266 67,-272 61,-278 55,-278 55,-278 20,-278 20,-278 14,-278 8,-272 8,-266 8,-266 8,-235 8,-235 8,-229 14,-223 20,-223"/>
<text text-anchor="middle" x="37.5" y="-266" font-family="Arial" font-size="10.00">builtins</text>
</g>
<g id="clust2" class="cluster">
<title>cluster_docutils.nodes</title>
<path fill="transparent" stroke="#bcd2ee" stroke-width="2" stroke-dasharray="5,2" d="M158,-224C158,-224 301,-224 301,-224 307,-224 313,-230 313,-236 313,-236 313,-304 313,-304 313,-310 307,-316 301,-316 301,-316 158,-316 158,-316 152,-316 146,-310 146,-304 146,-304 146,-236 146,-236 146,-230 152,-224 158,-224"/>
<text text-anchor="middle" x="229.5" y="-304" font-family="Arial" font-size="10.00">docutils.nodes</text>
</g>
<g id="clust3" class="cluster">
<title>cluster_docutils.parsers.rst</title>
<path fill="transparent" stroke="#bcd2ee" stroke-width="2" stroke-dasharray="5,2" d="M136,-113C136,-113 212,-113 212,-113 218,-113 224,-119 224,-125 224,-125 224,-156 224,-156 224,-162 218,-168 212,-168 212,-168 136,-168 136,-168 130,-168 124,-162 124,-156 124,-156 124,-125 124,-125 124,-119 130,-113 136,-113"/>
<text text-anchor="middle" x="174" y="-156" font-family="Arial" font-size="10.00">docutils.parsers.rst</text>
</g>
<g id="clust4" class="cluster">
<title>cluster_uqbar.book.sphinx</title>
<path fill="transparent" stroke="#bcd2ee" stroke-width="2" stroke-dasharray="5,2" d="M345,-8C345,-8 417,-8 417,-8 423,-8 429,-14 429,-20 429,-20 429,-353 429,-353 429,-359 423,-365 417,-365 417,-365 345,-365 345,-365 339,-365 333,-359 333,-353 333,-353 333,-20 333,-20 333,-14 339,-8 345,-8"/>
<text text-anchor="middle" x="381" y="-353" font-family="Arial" font-size="10.00">uqbar.book.sphinx</text>
</g>
<!-- builtins.object&#45;&gt;docutils.nodes.Body -->
<g id="edge3" class="edge">
<title>builtins.object&#45;&gt;docutils.nodes.Body</title>
<path fill="none" stroke="lightslategrey" d="M59.22,-246.85C82.02,-253.3 118.81,-263.69 144.36,-270.91"/>
<polygon fill="lightslategrey" stroke="lightslategrey" points="143.63,-274.34 154.21,-273.69 145.54,-267.6 143.63,-274.34"/>
</g>
<!-- builtins.object&#45;&gt;docutils.nodes.Node -->
<g id="edge4" class="edge">
<title>builtins.object&#45;&gt;docutils.nodes.Node</title>
<path fill="none" stroke="lightslategrey" d="M59.22,-241.15C81.79,-241.32 118.07,-241.59 143.58,-241.78"/>
<polygon fill="lightslategrey" stroke="lightslategrey" points="143.76,-245.28 153.78,-241.86 143.81,-238.28 143.76,-245.28"/>
</g>
<!-- builtins.object&#45;&gt;docutils.parsers.rst.Directive -->
<g id="edge5" class="edge">
<title>builtins.object&#45;&gt;docutils.parsers.rst.Directive</title>
<path fill="none" stroke="lightslategrey" d="M50.44,-231.24C73.63,-212.27 124.97,-170.28 153.29,-147.12"/>
<polygon fill="lightslategrey" stroke="lightslategrey" points="155.76,-149.62 161.28,-140.58 151.33,-144.2 155.76,-149.62"/>
</g>
<!-- docutils.nodes.Body&#45;&gt;docutils.nodes.General -->
<g id="edge1" class="edge">
<title>docutils.nodes.Body&#45;&gt;docutils.nodes.General</title>
<path fill="none" stroke="lightslategrey" d="M193.8,-279C207.55,-279 226.59,-279 243.04,-279"/>
<polygon fill="lightslategrey" stroke="lightslategrey" points="243.39,-282.5 253.39,-279 243.39,-275.5 243.39,-282.5"/>
</g>
<!-- docutils.nodes.General&#45;&gt;uqbar.book.sphinx.uqbar_book_defaults_block -->
<g id="edge8" class="edge">
<title>docutils.nodes.General&#45;&gt;uqbar.book.sphinx.uqbar_book_defaults_block</title>
<path fill="none" stroke="lightslategrey" d="M303.57,-270.14C316.19,-265.49 331.86,-259.72 345.72,-254.62"/>
<polygon fill="lightslategrey" stroke="lightslategrey" points="347.25,-257.79 355.43,-251.05 344.83,-251.22 347.25,-257.79"/>
</g>
<!-- docutils.nodes.General&#45;&gt;uqbar.book.sphinx.uqbar_book_import_block -->
<g id="edge9" class="edge">
<title>docutils.nodes.General&#45;&gt;uqbar.book.sphinx.uqbar_book_import_block</title>
<path fill="none" stroke="lightslategrey" d="M303.57,-286.9C317.26,-291.4 334.53,-297.07 349.19,-301.88"/>
<polygon fill="lightslategrey" stroke="lightslategrey" points="348.26,-305.26 358.85,-305.06 350.44,-298.61 348.26,-305.26"/>
</g>
<!-- docutils.nodes.Element&#45;&gt;uqbar.book.sphinx.uqbar_book_defaults_block -->
<g id="edge6" class="edge">
<title>docutils.nodes.Element&#45;&gt;uqbar.book.sphinx.uqbar_book_defaults_block</title>
<path fill="none" stroke="lightslategrey" d="M305.12,-242C317.33,-242 332.11,-242 345.3,-242"/>
<polygon fill="lightslategrey" stroke="lightslategrey" points="345.47,-245.5 355.47,-242 345.47,-238.5 345.47,-245.5"/>
</g>
<!-- docutils.nodes.Element&#45;&gt;uqbar.book.sphinx.uqbar_book_import_block -->
<g id="edge7" class="edge">
<title>docutils.nodes.Element&#45;&gt;uqbar.book.sphinx.uqbar_book_import_block</title>
<path fill="none" stroke="lightslategrey" d="M297.55,-251.55C302.65,-254.42 308.13,-257.7 313,-261 322.42,-267.38 323.99,-270.04 333,-277 338.63,-281.34 344.68,-285.92 350.52,-290.29"/>
<polygon fill="lightslategrey" stroke="lightslategrey" points="348.71,-293.31 358.83,-296.47 352.89,-287.69 348.71,-293.31"/>
</g>
<!-- docutils.nodes.Node&#45;&gt;docutils.nodes.Element -->
<g id="edge2" class="edge">
<title>docutils.nodes.Node&#45;&gt;docutils.nodes.Element</title>
<path fill="none" stroke="lightslategrey" d="M194.28,-242C207.6,-242 225.72,-242 241.65,-242"/>
<polygon fill="lightslategrey" stroke="lightslategrey" points="241.73,-245.5 251.73,-242 241.73,-238.5 241.73,-245.5"/>
</g>
<!-- docutils.parsers.rst.Directive&#45;&gt;uqbar.book.sphinx.UqbarBookDefaultsDirective -->
<g id="edge10" class="edge">
<title>docutils.parsers.rst.Directive&#45;&gt;uqbar.book.sphinx.UqbarBookDefaultsDirective</title>
<path fill="none" stroke="lightslategrey" d="M202.22,-127.15C238.39,-122.03 302.43,-112.97 342.97,-107.24"/>
<polygon fill="lightslategrey" stroke="lightslategrey" points="343.58,-110.69 352.99,-105.82 342.6,-103.76 343.58,-110.69"/>
</g>
<!-- docutils.parsers.rst.Directive&#45;&gt;uqbar.book.sphinx.UqbarBookDirective -->
<g id="edge11" class="edge">
<title>docutils.parsers.rst.Directive&#45;&gt;uqbar.book.sphinx.UqbarBookDirective</title>
<path fill="none" stroke="lightslategrey" d="M195.78,-121.47C230.42,-105.59 300.38,-73.51 343.42,-53.77"/>
<polygon fill="lightslategrey" stroke="lightslategrey" points="345.06,-56.87 352.69,-49.52 342.14,-50.51 345.06,-56.87"/>
</g>
<!-- docutils.parsers.rst.Directive&#45;&gt;uqbar.book.sphinx.UqbarBookImportDirective -->
<g id="edge12" class="edge">
<title>docutils.parsers.rst.Directive&#45;&gt;uqbar.book.sphinx.UqbarBookImportDirective</title>
<path fill="none" stroke="lightslategrey" d="M202.22,-136.44C238.39,-143.68 302.43,-156.49 342.97,-164.59"/>
<polygon fill="lightslategrey" stroke="lightslategrey" points="342.5,-168.07 352.99,-166.6 343.87,-161.21 342.5,-168.07"/>
</g>
<!-- builtins.object -->
<g id="node1" class="node">
<title>builtins.object</title>
<g id="a_node1"><a xlink:href="https://docs.python.org/3.6/library/functions.html#object" xlink:title="object" target="_top">
<path fill="#fbb4ae" stroke="#fbb4ae" stroke-width="2" d="M52.67,-250.5C52.67,-250.5 22.33,-250.5 22.33,-250.5 19.17,-250.5 16,-247.33 16,-244.17 16,-244.17 16,-237.83 16,-237.83 16,-234.67 19.17,-231.5 22.33,-231.5 22.33,-231.5 52.67,-231.5 52.67,-231.5 55.83,-231.5 59,-234.67 59,-237.83 59,-237.83 59,-244.17 59,-244.17 59,-247.33 55.83,-250.5 52.67,-250.5"/>
<text text-anchor="middle" x="37.5" y="-238.5" font-family="Arial" font-size="10.00">object</text>
</a>
</g>
</g>
<!-- docutils.nodes.Body -->
<g id="node2" class="node">
<title>docutils.nodes.Body</title>
<path fill="#b3cde3" stroke="#b3cde3" stroke-width="2" d="M187.17,-288.5C187.17,-288.5 160.83,-288.5 160.83,-288.5 157.67,-288.5 154.5,-285.33 154.5,-282.17 154.5,-282.17 154.5,-275.83 154.5,-275.83 154.5,-272.67 157.67,-269.5 160.83,-269.5 160.83,-269.5 187.17,-269.5 187.17,-269.5 190.33,-269.5 193.5,-272.67 193.5,-275.83 193.5,-275.83 193.5,-282.17 193.5,-282.17 193.5,-285.33 190.33,-288.5 187.17,-288.5"/>
<text text-anchor="middle" x="174" y="-276.5" font-family="Arial" font-size="10.00">Body</text>
</g>
<!-- docutils.nodes.General -->
<g id="node3" class="node">
<title>docutils.nodes.General</title>
<path fill="#b3cde3" stroke="#b3cde3" stroke-width="2" d="M297.17,-288.5C297.17,-288.5 259.83,-288.5 259.83,-288.5 256.67,-288.5 253.5,-285.33 253.5,-282.17 253.5,-282.17 253.5,-275.83 253.5,-275.83 253.5,-272.67 256.67,-269.5 259.83,-269.5 259.83,-269.5 297.17,-269.5 297.17,-269.5 300.33,-269.5 303.5,-272.67 303.5,-275.83 303.5,-275.83 303.5,-282.17 303.5,-282.17 303.5,-285.33 300.33,-288.5 297.17,-288.5"/>
<text text-anchor="middle" x="278.5" y="-276.5" font-family="Arial" font-size="10.00">General</text>
</g>
<!-- docutils.nodes.Element -->
<g id="node4" class="node">
<title>docutils.nodes.Element</title>
<path fill="#b3cde3" stroke="#b3cde3" stroke-width="2" d="M298.67,-251.5C298.67,-251.5 258.33,-251.5 258.33,-251.5 255.17,-251.5 252,-248.33 252,-245.17 252,-245.17 252,-238.83 252,-238.83 252,-235.67 255.17,-232.5 258.33,-232.5 258.33,-232.5 298.67,-232.5 298.67,-232.5 301.83,-232.5 305,-235.67 305,-238.83 305,-238.83 305,-245.17 305,-245.17 305,-248.33 301.83,-251.5 298.67,-251.5"/>
<text text-anchor="middle" x="278.5" y="-239.5" font-family="Arial" font-size="10.00">Element</text>
</g>
<!-- docutils.nodes.Node -->
<g id="node5" class="node">
<title>docutils.nodes.Node</title>
<path fill="#b3cde3" stroke="#b3cde3" stroke-width="2" d="M187.67,-251.5C187.67,-251.5 160.33,-251.5 160.33,-251.5 157.17,-251.5 154,-248.33 154,-245.17 154,-245.17 154,-238.83 154,-238.83 154,-235.67 157.17,-232.5 160.33,-232.5 160.33,-232.5 187.67,-232.5 187.67,-232.5 190.83,-232.5 194,-235.67 194,-238.83 194,-238.83 194,-245.17 194,-245.17 194,-248.33 190.83,-251.5 187.67,-251.5"/>
<text text-anchor="middle" x="174" y="-239.5" font-family="Arial" font-size="10.00">Node</text>
</g>
<!-- docutils.parsers.rst.Directive -->
<g id="node6" class="node">
<title>docutils.parsers.rst.Directive</title>
<g id="a_node6"><a xlink:href="https://www.sphinx-doc.org/en/stable/extdev/markupapi.html#docutils.parsers.rst.Directive" xlink:title="Directive" target="_top">
<path fill="#ccebc5" stroke="#ccebc5" stroke-width="2" d="M195.67,-140.5C195.67,-140.5 152.33,-140.5 152.33,-140.5 149.17,-140.5 146,-137.33 146,-134.17 146,-134.17 146,-127.83 146,-127.83 146,-124.67 149.17,-121.5 152.33,-121.5 152.33,-121.5 195.67,-121.5 195.67,-121.5 198.83,-121.5 202,-124.67 202,-127.83 202,-127.83 202,-134.17 202,-134.17 202,-137.33 198.83,-140.5 195.67,-140.5"/>
<text text-anchor="middle" x="174" y="-128.5" font-family="Arial" font-size="10.00">Directive</text>
</a>
</g>
</g>
<!-- uqbar.book.sphinx.UqbarBookDefaultsDirective -->
<g id="node7" class="node">
<title>uqbar.book.sphinx.UqbarBookDefaultsDirective</title>
<g id="a_node7"><a xlink:href="../api/uqbar/book/sphinx.html#uqbar.book.sphinx.UqbarBookDefaultsDirective" xlink:title="Uqbar\nBook\nDefaults\nDirective" target="_top">
<path fill="black" stroke="black" stroke-width="2" d="M397,-128C397,-128 365,-128 365,-128 359,-128 353,-122 353,-116 353,-116 353,-88 353,-88 353,-82 359,-76 365,-76 365,-76 397,-76 397,-76 403,-76 409,-82 409,-88 409,-88 409,-116 409,-116 409,-122 403,-128 397,-128"/>
<text text-anchor="middle" x="381" y="-116" font-family="Arial" font-size="10.00" fill="white">Uqbar</text>
<text text-anchor="middle" x="381" y="-105" font-family="Arial" font-size="10.00" fill="white">Book</text>
<text text-anchor="middle" x="381" y="-94" font-family="Arial" font-size="10.00" fill="white">Defaults</text>
<text text-anchor="middle" x="381" y="-83" font-family="Arial" font-size="10.00" fill="white">Directive</text>
</a>
</g>
</g>
<!-- uqbar.book.sphinx.UqbarBookDirective -->
<g id="node8" class="node">
<title>uqbar.book.sphinx.UqbarBookDirective</title>
<g id="a_node8"><a xlink:href="../api/uqbar/book/sphinx.html#uqbar.book.sphinx.UqbarBookDirective" xlink:title="Uqbar\nBook\nDirective" target="_top">
<path fill="black" stroke="black" stroke-width="2" d="M397,-57.5C397,-57.5 365,-57.5 365,-57.5 359,-57.5 353,-51.5 353,-45.5 353,-45.5 353,-28.5 353,-28.5 353,-22.5 359,-16.5 365,-16.5 365,-16.5 397,-16.5 397,-16.5 403,-16.5 409,-22.5 409,-28.5 409,-28.5 409,-45.5 409,-45.5 409,-51.5 403,-57.5 397,-57.5"/>
<text text-anchor="middle" x="381" y="-45.5" font-family="Arial" font-size="10.00" fill="white">Uqbar</text>
<text text-anchor="middle" x="381" y="-34.5" font-family="Arial" font-size="10.00" fill="white">Book</text>
<text text-anchor="middle" x="381" y="-23.5" font-family="Arial" font-size="10.00" fill="white">Directive</text>
</a>
</g>
</g>
<!-- uqbar.book.sphinx.UqbarBookImportDirective -->
<g id="node9" class="node">
<title>uqbar.book.sphinx.UqbarBookImportDirective</title>
<g id="a_node9"><a xlink:href="../api/uqbar/book/sphinx.html#uqbar.book.sphinx.UqbarBookImportDirective" xlink:title="Uqbar\nBook\nImport\nDirective" target="_top">
<path fill="black" stroke="black" stroke-width="2" d="M397,-198C397,-198 365,-198 365,-198 359,-198 353,-192 353,-186 353,-186 353,-158 353,-158 353,-152 359,-146 365,-146 365,-146 397,-146 397,-146 403,-146 409,-152 409,-158 409,-158 409,-186 409,-186 409,-192 403,-198 397,-198"/>
<text text-anchor="middle" x="381" y="-186" font-family="Arial" font-size="10.00" fill="white">Uqbar</text>
<text text-anchor="middle" x="381" y="-175" font-family="Arial" font-size="10.00" fill="white">Book</text>
<text text-anchor="middle" x="381" y="-164" font-family="Arial" font-size="10.00" fill="white">Import</text>
<text text-anchor="middle" x="381" y="-153" font-family="Arial" font-size="10.00" fill="white">Directive</text>
</a>
</g>
</g>
<!-- uqbar.book.sphinx.uqbar_book_defaults_block -->
<g id="node10" class="node">
<title>uqbar.book.sphinx.uqbar_book_defaults_block</title>
<g id="a_node10"><a xlink:href="../api/uqbar/book/sphinx.html#uqbar.book.sphinx.uqbar_book_defaults_block" xlink:title="uqbar\nbook\ndefaults\nblock" target="_top">
<path fill="black" stroke="black" stroke-width="2" d="M394.5,-268C394.5,-268 367.5,-268 367.5,-268 361.5,-268 355.5,-262 355.5,-256 355.5,-256 355.5,-228 355.5,-228 355.5,-222 361.5,-216 367.5,-216 367.5,-216 394.5,-216 394.5,-216 400.5,-216 406.5,-222 406.5,-228 406.5,-228 406.5,-256 406.5,-256 406.5,-262 400.5,-268 394.5,-268"/>
<text text-anchor="middle" x="381" y="-256" font-family="Arial" font-size="10.00" fill="white">uqbar</text>
<text text-anchor="middle" x="381" y="-245" font-family="Arial" font-size="10.00" fill="white">book</text>
<text text-anchor="middle" x="381" y="-234" font-family="Arial" font-size="10.00" fill="white">defaults</text>
<text text-anchor="middle" x="381" y="-223" font-family="Arial" font-size="10.00" fill="white">block</text>
</a>
</g>
</g>
<!-- uqbar.book.sphinx.uqbar_book_import_block -->
<g id="node11" class="node">
<title>uqbar.book.sphinx.uqbar_book_import_block</title>
<g id="a_node11"><a xlink:href="../api/uqbar/book/sphinx.html#uqbar.book.sphinx.uqbar_book_import_block" xlink:title="uqbar\nbook\nimport\nblock" target="_top">
<path fill="black" stroke="black" stroke-width="2" d="M391,-338C391,-338 371,-338 371,-338 365,-338 359,-332 359,-326 359,-326 359,-298 359,-298 359,-292 365,-286 371,-286 371,-286 391,-286 391,-286 397,-286 403,-292 403,-298 403,-298 403,-326 403,-326 403,-332 397,-338 391,-338"/>
<text text-anchor="middle" x="381" y="-326" font-family="Arial" font-size="10.00" fill="white">uqbar</text>
<text text-anchor="middle" x="381" y="-315" font-family="Arial" font-size="10.00" fill="white">book</text>
<text text-anchor="middle" x="381" y="-304" font-family="Arial" font-size="10.00" fill="white">import</text>
<text text-anchor="middle" x="381" y="-293" font-family="Arial" font-size="10.00" fill="white">block</text>
</a>
</g>
</g>
</g>
</svg>
