<?xml version="1.0" encoding="UTF-8" standalone="no"?>
<!DOCTYPE svg PUBLIC "-//W3C//DTD SVG 1.1//EN"
 "http://www.w3.org/Graphics/SVG/1.1/DTD/svg11.dtd">
<!-- Generated by graphviz version 2.40.1 (20161225.0304)
 -->
<!-- Title: InheritanceGraph Pages: 1 -->
<svg width="504pt" height="587pt"
 viewBox="0.00 0.00 504.00 586.77" xmlns="http://www.w3.org/2000/svg" xmlns:xlink="http://www.w3.org/1999/xlink">
<g id="graph0" class="graph" transform="scale(1 1) rotate(0) translate(4 582.7712)">
<title>InheritanceGraph</title>
<g id="clust1" class="cluster">
<title>cluster_uqbar.graphs</title>
<path fill="transparent" stroke="#bcd2ee" stroke-width="2" stroke-dasharray="5,2" d="M355,-147.7712C355,-147.7712 476,-147.7712 476,-147.7712 482,-147.7712 488,-153.7712 488,-159.7712 488,-159.7712 488,-558.7712 488,-558.7712 488,-564.7712 482,-570.7712 476,-570.7712 476,-570.7712 355,-570.7712 355,-570.7712 349,-570.7712 343,-564.7712 343,-558.7712 343,-558.7712 343,-159.7712 343,-159.7712 343,-153.7712 349,-147.7712 355,-147.7712"/>
<text text-anchor="middle" x="415.5" y="-558.7712" font-family="Arial" font-size="10.00" fill="#000000">uqbar.graphs</text>
</g>
<g id="clust2" class="cluster">
<title>cluster_builtins</title>
<path fill="transparent" stroke="#bcd2ee" stroke-width="2" stroke-dasharray="5,2" d="M20,-287.7712C20,-287.7712 49,-287.7712 49,-287.7712 55,-287.7712 61,-293.7712 61,-299.7712 61,-299.7712 61,-330.7712 61,-330.7712 61,-336.7712 55,-342.7712 49,-342.7712 49,-342.7712 20,-342.7712 20,-342.7712 14,-342.7712 8,-336.7712 8,-330.7712 8,-330.7712 8,-299.7712 8,-299.7712 8,-293.7712 14,-287.7712 20,-287.7712"/>
<text text-anchor="middle" x="34.5" y="-330.7712" font-family="Arial" font-size="10.00" fill="#000000">builtins</text>
</g>
<g id="clust3" class="cluster">
<title>cluster_uqbar.apis</title>
<path fill="transparent" stroke="#bcd2ee" stroke-width="2" stroke-dasharray="5,2" d="M273,-14.7712C273,-14.7712 311,-14.7712 311,-14.7712 317,-14.7712 323,-20.7712 323,-26.7712 323,-26.7712 323,-115.7712 323,-115.7712 323,-121.7712 317,-127.7712 311,-127.7712 311,-127.7712 273,-127.7712 273,-127.7712 267,-127.7712 261,-121.7712 261,-115.7712 261,-115.7712 261,-26.7712 261,-26.7712 261,-20.7712 267,-14.7712 273,-14.7712"/>
<text text-anchor="middle" x="292" y="-115.7712" font-family="Arial" font-size="10.00" fill="#000000">uqbar.apis</text>
</g>
<g id="clust4" class="cluster">
<title>cluster_uqbar.containers</title>
<path fill="transparent" stroke="#bcd2ee" stroke-width="2" stroke-dasharray="5,2" d="M93,-249.7712C93,-249.7712 229,-249.7712 229,-249.7712 235,-249.7712 241,-255.7712 241,-261.7712 241,-261.7712 241,-362.7712 241,-362.7712 241,-368.7712 235,-374.7712 229,-374.7712 229,-374.7712 93,-374.7712 93,-374.7712 87,-374.7712 81,-368.7712 81,-362.7712 81,-362.7712 81,-261.7712 81,-261.7712 81,-255.7712 87,-249.7712 93,-249.7712"/>
<text text-anchor="middle" x="161" y="-362.7712" font-family="Arial" font-size="10.00" fill="#000000">uqbar.containers</text>
</g>
<!-- uqbar.graphs.Attachable.Attachable&#45;&gt;uqbar.graphs.RecordField.RecordField -->
<g id="edge1" class="edge">
<title>uqbar.graphs.Attachable.Attachable&#45;&gt;uqbar.graphs.RecordField.RecordField</title>
<path fill="none" stroke="#778899" d="M394.3091,-487.1411C397.532,-484.7393 400.6269,-481.9324 403,-478.7712 420.3846,-455.6131 442.557,-375.9517 453.2185,-334.8087"/>
<polygon fill="#778899" stroke="#778899" points="456.6394,-335.5584 455.7303,-325.0026 449.8584,-333.8214 456.6394,-335.5584"/>
</g>
<!-- uqbar.graphs.Attachable.Attachable&#45;&gt;uqbar.graphs.TableCell.TableCell -->
<g id="edge2" class="edge">
<title>uqbar.graphs.Attachable.Attachable&#45;&gt;uqbar.graphs.TableCell.TableCell</title>
<path fill="none" stroke="#778899" d="M391.5623,-487.2148C395.3617,-484.5804 399.3989,-481.6521 403,-478.7712 414.6134,-469.4804 426.8349,-458.4117 436.929,-448.8793"/>
<polygon fill="#778899" stroke="#778899" points="439.3752,-451.3827 444.1879,-441.944 434.5396,-446.3214 439.3752,-451.3827"/>
</g>
<!-- builtins.object&#45;&gt;uqbar.containers.DependencyGraph.DependencyGraph -->
<g id="edge4" class="edge">
<title>builtins.object&#45;&gt;uqbar.containers.DependencyGraph.DependencyGraph</title>
<path fill="none" stroke="#778899" d="M53.1423,-311.7634C60.8093,-314.2278 69.999,-317.1816 79.0319,-320.085"/>
<polygon fill="#778899" stroke="#778899" points="78.1013,-323.4622 88.6926,-323.1902 80.2434,-316.798 78.1013,-323.4622"/>
</g>
<!-- builtins.object&#45;&gt;uqbar.containers.UniqueTreeNode.UniqueTreeNode -->
<g id="edge5" class="edge">
<title>builtins.object&#45;&gt;uqbar.containers.UniqueTreeNode.UniqueTreeNode</title>
<path fill="none" stroke="#778899" d="M53.1423,-299.779C63.6399,-296.4048 76.992,-292.1131 88.8879,-288.2894"/>
<polygon fill="#778899" stroke="#778899" points="89.9941,-291.6103 98.4433,-285.218 87.8519,-284.946 89.9941,-291.6103"/>
</g>
<!-- uqbar.containers.UniqueTreeContainer.UniqueTreeContainer&#45;&gt;uqbar.graphs.TableCell.TableCell -->
<g id="edge11" class="edge">
<title>uqbar.containers.UniqueTreeContainer.UniqueTreeContainer&#45;&gt;uqbar.graphs.TableCell.TableCell</title>
<path fill="none" stroke="#778899" d="M216.922,-258.1258C225.6359,-238.7936 240.8068,-210.0674 261,-190.7712 308.7685,-145.1247 352.0555,-104.6987 403,-146.7712 435.6298,-173.7185 430.4444,-292.3264 439,-333.7712 443.7723,-356.8891 449.5978,-383.1475 453.8174,-401.8529"/>
<polygon fill="#778899" stroke="#778899" points="450.4151,-402.6762 456.0377,-411.6559 457.2422,-401.1298 450.4151,-402.6762"/>
</g>
<!-- uqbar.containers.UniqueTreeContainer.UniqueTreeContainer&#45;&gt;uqbar.graphs.Graph.Graph -->
<g id="edge7" class="edge">
<title>uqbar.containers.UniqueTreeContainer.UniqueTreeContainer&#45;&gt;uqbar.graphs.Graph.Graph</title>
<path fill="none" stroke="#778899" d="M233.029,-290.8678C241.7462,-294.9298 251.7038,-299.3044 261,-302.7712 290.2899,-313.694 324.7679,-323.4169 348.4799,-329.6381"/>
<polygon fill="#778899" stroke="#778899" points="347.6901,-333.0489 358.2478,-332.1625 349.4417,-326.2716 347.6901,-333.0489"/>
</g>
<!-- uqbar.containers.UniqueTreeContainer.UniqueTreeContainer&#45;&gt;uqbar.graphs.Node.Node -->
<g id="edge8" class="edge">
<title>uqbar.containers.UniqueTreeContainer.UniqueTreeContainer&#45;&gt;uqbar.graphs.Node.Node</title>
<path fill="none" stroke="#778899" d="M233.0013,-281.8248C263.9994,-285.688 317.23,-292.3221 349.5614,-296.3515"/>
<polygon fill="#778899" stroke="#778899" points="349.3063,-299.8467 359.6624,-297.6104 350.1721,-292.9005 349.3063,-299.8467"/>
</g>
<!-- uqbar.containers.UniqueTreeContainer.UniqueTreeContainer&#45;&gt;uqbar.graphs.RecordGroup.RecordGroup -->
<g id="edge9" class="edge">
<title>uqbar.containers.UniqueTreeContainer.UniqueTreeContainer&#45;&gt;uqbar.graphs.RecordGroup.RecordGroup</title>
<path fill="none" stroke="#778899" d="M233.0013,-275.5722C262.9333,-271.6642 313.5949,-265.0496 346.1532,-260.7987"/>
<polygon fill="#778899" stroke="#778899" points="346.9819,-264.2203 356.4446,-259.455 346.0756,-257.2792 346.9819,-264.2203"/>
</g>
<!-- uqbar.containers.UniqueTreeContainer.UniqueTreeContainer&#45;&gt;uqbar.graphs.Table.Table -->
<g id="edge10" class="edge">
<title>uqbar.containers.UniqueTreeContainer.UniqueTreeContainer&#45;&gt;uqbar.graphs.Table.Table</title>
<path fill="none" stroke="#778899" d="M233.0013,-269.3196C263.9694,-257.3735 317.1272,-236.8675 349.4676,-224.392"/>
<polygon fill="#778899" stroke="#778899" points="351.1116,-227.5093 359.1818,-220.6447 348.5922,-220.9784 351.1116,-227.5093"/>
</g>
<!-- uqbar.containers.UniqueTreeContainer.UniqueTreeContainer&#45;&gt;uqbar.graphs.TableRow.TableRow -->
<g id="edge12" class="edge">
<title>uqbar.containers.UniqueTreeContainer.UniqueTreeContainer&#45;&gt;uqbar.graphs.TableRow.TableRow</title>
<path fill="none" stroke="#778899" d="M228.8772,-257.8053C238.1878,-248.8602 249.6548,-238.6837 261,-230.7712 289.6041,-210.8219 325.7101,-193.1855 349.9781,-182.2841"/>
<polygon fill="#778899" stroke="#778899" points="351.5511,-185.4156 359.2842,-178.1733 348.7226,-179.0125 351.5511,-185.4156"/>
</g>
<!-- uqbar.containers.UniqueTreeContainer.UniqueTreeContainer&#45;&gt;uqbar.apis.PackageNode.PackageNode -->
<g id="edge6" class="edge">
<title>uqbar.containers.UniqueTreeContainer.UniqueTreeContainer&#45;&gt;uqbar.apis.PackageNode.PackageNode</title>
<path fill="none" stroke="#778899" d="M214.0911,-258.1367C222.3581,-229.0734 239.2395,-174.8214 261,-131.7712 264.8488,-124.1568 269.7464,-116.3035 274.506,-109.2885"/>
<polygon fill="#778899" stroke="#778899" points="277.4908,-111.1281 280.3715,-100.9324 271.7614,-107.1064 277.4908,-111.1281"/>
</g>
<!-- uqbar.containers.UniqueTreeNode.UniqueTreeNode&#45;&gt;uqbar.graphs.Attachable.Attachable -->
<g id="edge14" class="edge">
<title>uqbar.containers.UniqueTreeNode.UniqueTreeNode&#45;&gt;uqbar.graphs.Attachable.Attachable</title>
<path fill="none" stroke="#778899" d="M138.7041,-297.192C142.0649,-300.8261 145.3225,-304.762 148,-308.7712 170.7849,-342.8888 157.0573,-362.8317 184,-393.7712 226.4873,-442.5613 297.8855,-472.0257 340.9079,-486.2808"/>
<polygon fill="#778899" stroke="#778899" points="340.0871,-489.6932 350.6784,-489.4181 342.2272,-483.0283 340.0871,-489.6932"/>
</g>
<!-- uqbar.containers.UniqueTreeNode.UniqueTreeNode&#45;&gt;uqbar.graphs.RecordField.RecordField -->
<g id="edge17" class="edge">
<title>uqbar.containers.UniqueTreeNode.UniqueTreeNode&#45;&gt;uqbar.graphs.RecordField.RecordField</title>
<path fill="none" stroke="#778899" d="M122.1,-258.1078C129.2604,-221.0404 147.812,-141.8006 184,-84.7712 221.498,-25.6774 260.9041,21.513 323,-10.7712 426.404,-64.5318 451.6968,-222.8217 457.6975,-284.6355"/>
<polygon fill="#778899" stroke="#778899" points="454.2185,-285.0285 458.5825,-294.6828 461.1915,-284.4143 454.2185,-285.0285"/>
</g>
<!-- uqbar.containers.UniqueTreeNode.UniqueTreeNode&#45;&gt;uqbar.graphs.HRule.HRule -->
<g id="edge15" class="edge">
<title>uqbar.containers.UniqueTreeNode.UniqueTreeNode&#45;&gt;uqbar.graphs.HRule.HRule</title>
<path fill="none" stroke="#778899" d="M138.673,-298.3333C141.8938,-301.7233 145.1128,-305.282 148,-308.7712 165.92,-330.4275 162.8601,-342.2448 184,-360.7712 234.6739,-405.1802 308.793,-435.8732 348.8305,-450.3295"/>
<polygon fill="#778899" stroke="#778899" points="347.8786,-453.7051 358.4734,-453.7339 350.2091,-447.1044 347.8786,-453.7051"/>
</g>
<!-- uqbar.containers.UniqueTreeNode.UniqueTreeNode&#45;&gt;uqbar.graphs.LineBreak.LineBreak -->
<g id="edge16" class="edge">
<title>uqbar.containers.UniqueTreeNode.UniqueTreeNode&#45;&gt;uqbar.graphs.LineBreak.LineBreak</title>
<path fill="none" stroke="#778899" d="M138.612,-297.8608C151.0307,-308.9885 167.6662,-322.7572 184,-332.7712 239.3381,-366.698 310.7999,-393.9847 349.3687,-407.5124"/>
<polygon fill="#778899" stroke="#778899" points="348.2907,-410.8429 358.8854,-410.8042 350.579,-404.2275 348.2907,-410.8429"/>
</g>
<!-- uqbar.containers.UniqueTreeNode.UniqueTreeNode&#45;&gt;uqbar.graphs.Text.Text -->
<g id="edge18" class="edge">
<title>uqbar.containers.UniqueTreeNode.UniqueTreeNode&#45;&gt;uqbar.graphs.Text.Text</title>
<path fill="none" stroke="#778899" d="M138.6212,-288.6497C151.4591,-294.7865 168.5343,-302.6445 184,-308.7712 242.9378,-332.1191 313.9927,-354.6474 351.2792,-366.0508"/>
<polygon fill="#778899" stroke="#778899" points="350.7042,-369.534 361.2898,-369.0927 352.7394,-362.8364 350.7042,-369.534"/>
</g>
<!-- uqbar.containers.UniqueTreeNode.UniqueTreeNode&#45;&gt;uqbar.graphs.VRule.VRule -->
<g id="edge19" class="edge">
<title>uqbar.containers.UniqueTreeNode.UniqueTreeNode&#45;&gt;uqbar.graphs.VRule.VRule</title>
<path fill="none" stroke="#778899" d="M138.7774,-296.6243C142.2111,-300.3713 145.4757,-304.4933 148,-308.7712 176.5135,-357.0933 150.4016,-384.8357 184,-429.7712 225.5861,-485.3896 305.9317,-514.5562 348.6631,-526.7239"/>
<polygon fill="#778899" stroke="#778899" points="347.854,-530.1311 358.423,-529.3923 349.7001,-523.3789 347.854,-530.1311"/>
</g>
<!-- uqbar.containers.UniqueTreeNode.UniqueTreeNode&#45;&gt;uqbar.apis.ModuleNode.ModuleNode -->
<g id="edge13" class="edge">
<title>uqbar.containers.UniqueTreeNode.UniqueTreeNode&#45;&gt;uqbar.apis.ModuleNode.ModuleNode</title>
<path fill="none" stroke="#778899" d="M129.078,-258.0461C150.4041,-217.4787 201.6225,-125.9544 261,-61.7712 261.884,-60.8157 262.8089,-59.869 263.7637,-58.9351"/>
<polygon fill="#778899" stroke="#778899" points="266.3213,-61.3452 271.485,-52.0939 261.6791,-56.1059 266.3213,-61.3452"/>
</g>
<!-- uqbar.containers.UniqueTreeNode.UniqueTreeNode&#45;&gt;uqbar.containers.UniqueTreeContainer.UniqueTreeContainer -->
<g id="edge3" class="edge">
<title>uqbar.containers.UniqueTreeNode.UniqueTreeNode&#45;&gt;uqbar.containers.UniqueTreeContainer.UniqueTreeContainer</title>
<path fill="none" stroke="#778899" d="M138.9224,-278.7712C149.2715,-278.7712 162.1223,-278.7712 173.9528,-278.7712"/>
<polygon fill="#778899" stroke="#778899" points="173.9982,-282.2713 183.9981,-278.7712 173.9981,-275.2713 173.9982,-282.2713"/>
</g>
<!-- uqbar.graphs.Attachable.Attachable -->
<g id="node1" class="node">
<title>uqbar.graphs.Attachable.Attachable</title>
<g id="a_node1"><a xlink:href="../api/uqbar/containers/../graphs/Attachable.html#uqbar.graphs.Attachable.Attachable" xlink:title="Attachable" target="_top">
<path fill="#decbe4" stroke="#decbe4" stroke-width="2" d="M396.6667,-506.2712C396.6667,-506.2712 357.3333,-506.2712 357.3333,-506.2712 354.1667,-506.2712 351,-503.1045 351,-499.9379 351,-499.9379 351,-493.6045 351,-493.6045 351,-490.4379 354.1667,-487.2712 357.3333,-487.2712 357.3333,-487.2712 396.6667,-487.2712 396.6667,-487.2712 399.8333,-487.2712 403,-490.4379 403,-493.6045 403,-493.6045 403,-499.9379 403,-499.9379 403,-503.1045 399.8333,-506.2712 396.6667,-506.2712"/>
<text text-anchor="middle" x="377" y="-494.2712" font-family="Arial" font-size="10.00" fill="#000000">Attachable</text>
</a>
</g>
</g>
<!-- uqbar.graphs.RecordField.RecordField -->
<g id="node2" class="node">
<title>uqbar.graphs.RecordField.RecordField</title>
<g id="a_node2"><a xlink:href="../api/uqbar/containers/../graphs/RecordField.html#uqbar.graphs.RecordField.RecordField" xlink:title="Record\nField" target="_top">
<path fill="#decbe4" stroke="#decbe4" stroke-width="2" d="M470,-324.7712C470,-324.7712 449,-324.7712 449,-324.7712 444,-324.7712 439,-319.7712 439,-314.7712 439,-314.7712 439,-304.7712 439,-304.7712 439,-299.7712 444,-294.7712 449,-294.7712 449,-294.7712 470,-294.7712 470,-294.7712 475,-294.7712 480,-299.7712 480,-304.7712 480,-304.7712 480,-314.7712 480,-314.7712 480,-319.7712 475,-324.7712 470,-324.7712"/>
<text text-anchor="middle" x="459.5" y="-312.7712" font-family="Arial" font-size="10.00" fill="#000000">Record</text>
<text text-anchor="middle" x="459.5" y="-301.7712" font-family="Arial" font-size="10.00" fill="#000000">Field</text>
</a>
</g>
</g>
<!-- uqbar.graphs.TableCell.TableCell -->
<g id="node3" class="node">
<title>uqbar.graphs.TableCell.TableCell</title>
<g id="a_node3"><a xlink:href="../api/uqbar/containers/../graphs/TableCell.html#uqbar.graphs.TableCell.TableCell" xlink:title="Table\nCell" target="_top">
<path fill="#decbe4" stroke="#decbe4" stroke-width="2" d="M467,-441.7712C467,-441.7712 452,-441.7712 452,-441.7712 447,-441.7712 442,-436.7712 442,-431.7712 442,-431.7712 442,-421.7712 442,-421.7712 442,-416.7712 447,-411.7712 452,-411.7712 452,-411.7712 467,-411.7712 467,-411.7712 472,-411.7712 477,-416.7712 477,-421.7712 477,-421.7712 477,-431.7712 477,-431.7712 477,-436.7712 472,-441.7712 467,-441.7712"/>
<text text-anchor="middle" x="459.5" y="-429.7712" font-family="Arial" font-size="10.00" fill="#000000">Table</text>
<text text-anchor="middle" x="459.5" y="-418.7712" font-family="Arial" font-size="10.00" fill="#000000">Cell</text>
</a>
</g>
</g>
<!-- uqbar.graphs.Graph.Graph -->
<g id="node4" class="node">
<title>uqbar.graphs.Graph.Graph</title>
<g id="a_node4"><a xlink:href="../api/uqbar/containers/../graphs/Graph.html#uqbar.graphs.Graph.Graph" xlink:title="Graph" target="_top">
<path fill="#decbe4" stroke="#decbe4" stroke-width="2" d="M389.1667,-346.2712C389.1667,-346.2712 364.8333,-346.2712 364.8333,-346.2712 361.6667,-346.2712 358.5,-343.1045 358.5,-339.9379 358.5,-339.9379 358.5,-333.6045 358.5,-333.6045 358.5,-330.4379 361.6667,-327.2712 364.8333,-327.2712 364.8333,-327.2712 389.1667,-327.2712 389.1667,-327.2712 392.3333,-327.2712 395.5,-330.4379 395.5,-333.6045 395.5,-333.6045 395.5,-339.9379 395.5,-339.9379 395.5,-343.1045 392.3333,-346.2712 389.1667,-346.2712"/>
<text text-anchor="middle" x="377" y="-334.2712" font-family="Arial" font-size="10.00" fill="#000000">Graph</text>
</a>
</g>
</g>
<!-- uqbar.graphs.HRule.HRule -->
<g id="node5" class="node">
<title>uqbar.graphs.HRule.HRule</title>
<g id="a_node5"><a xlink:href="../api/uqbar/containers/../graphs/HRule.html#uqbar.graphs.HRule.HRule" xlink:title="HRule" target="_top">
<path fill="#decbe4" stroke="#decbe4" stroke-width="2" d="M389.1667,-469.2712C389.1667,-469.2712 364.8333,-469.2712 364.8333,-469.2712 361.6667,-469.2712 358.5,-466.1045 358.5,-462.9379 358.5,-462.9379 358.5,-456.6045 358.5,-456.6045 358.5,-453.4379 361.6667,-450.2712 364.8333,-450.2712 364.8333,-450.2712 389.1667,-450.2712 389.1667,-450.2712 392.3333,-450.2712 395.5,-453.4379 395.5,-456.6045 395.5,-456.6045 395.5,-462.9379 395.5,-462.9379 395.5,-466.1045 392.3333,-469.2712 389.1667,-469.2712"/>
<text text-anchor="middle" x="377" y="-457.2712" font-family="Arial" font-size="10.00" fill="#000000">HRule</text>
</a>
</g>
</g>
<!-- uqbar.graphs.LineBreak.LineBreak -->
<g id="node6" class="node">
<title>uqbar.graphs.LineBreak.LineBreak</title>
<g id="a_node6"><a xlink:href="../api/uqbar/containers/../graphs/LineBreak.html#uqbar.graphs.LineBreak.LineBreak" xlink:title="Line\nBreak" target="_top">
<path fill="#decbe4" stroke="#decbe4" stroke-width="2" d="M385,-431.7712C385,-431.7712 369,-431.7712 369,-431.7712 364,-431.7712 359,-426.7712 359,-421.7712 359,-421.7712 359,-411.7712 359,-411.7712 359,-406.7712 364,-401.7712 369,-401.7712 369,-401.7712 385,-401.7712 385,-401.7712 390,-401.7712 395,-406.7712 395,-411.7712 395,-411.7712 395,-421.7712 395,-421.7712 395,-426.7712 390,-431.7712 385,-431.7712"/>
<text text-anchor="middle" x="377" y="-419.7712" font-family="Arial" font-size="10.00" fill="#000000">Line</text>
<text text-anchor="middle" x="377" y="-408.7712" font-family="Arial" font-size="10.00" fill="#000000">Break</text>
</a>
</g>
</g>
<!-- uqbar.graphs.Node.Node -->
<g id="node7" class="node">
<title>uqbar.graphs.Node.Node</title>
<g id="a_node7"><a xlink:href="../api/uqbar/containers/../graphs/Node.html#uqbar.graphs.Node.Node" xlink:title="Node" target="_top">
<path fill="#decbe4" stroke="#decbe4" stroke-width="2" d="M387.6667,-309.2712C387.6667,-309.2712 366.3333,-309.2712 366.3333,-309.2712 363.1667,-309.2712 360,-306.1045 360,-302.9379 360,-302.9379 360,-296.6045 360,-296.6045 360,-293.4379 363.1667,-290.2712 366.3333,-290.2712 366.3333,-290.2712 387.6667,-290.2712 387.6667,-290.2712 390.8333,-290.2712 394,-293.4379 394,-296.6045 394,-296.6045 394,-302.9379 394,-302.9379 394,-306.1045 390.8333,-309.2712 387.6667,-309.2712"/>
<text text-anchor="middle" x="377" y="-297.2712" font-family="Arial" font-size="10.00" fill="#000000">Node</text>
</a>
</g>
</g>
<!-- uqbar.graphs.RecordGroup.RecordGroup -->
<g id="node8" class="node">
<title>uqbar.graphs.RecordGroup.RecordGroup</title>
<g id="a_node8"><a xlink:href="../api/uqbar/containers/../graphs/RecordGroup.html#uqbar.graphs.RecordGroup.RecordGroup" xlink:title="Record\nGroup" target="_top">
<path fill="#decbe4" stroke="#decbe4" stroke-width="2" d="M387.5,-271.7712C387.5,-271.7712 366.5,-271.7712 366.5,-271.7712 361.5,-271.7712 356.5,-266.7712 356.5,-261.7712 356.5,-261.7712 356.5,-251.7712 356.5,-251.7712 356.5,-246.7712 361.5,-241.7712 366.5,-241.7712 366.5,-241.7712 387.5,-241.7712 387.5,-241.7712 392.5,-241.7712 397.5,-246.7712 397.5,-251.7712 397.5,-251.7712 397.5,-261.7712 397.5,-261.7712 397.5,-266.7712 392.5,-271.7712 387.5,-271.7712"/>
<text text-anchor="middle" x="377" y="-259.7712" font-family="Arial" font-size="10.00" fill="#000000">Record</text>
<text text-anchor="middle" x="377" y="-248.7712" font-family="Arial" font-size="10.00" fill="#000000">Group</text>
</a>
</g>
</g>
<!-- uqbar.graphs.Table.Table -->
<g id="node9" class="node">
<title>uqbar.graphs.Table.Table</title>
<g id="a_node9"><a xlink:href="../api/uqbar/containers/../graphs/Table.html#uqbar.graphs.Table.Table" xlink:title="Table" target="_top">
<path fill="#decbe4" stroke="#decbe4" stroke-width="2" d="M388.1667,-223.2712C388.1667,-223.2712 365.8333,-223.2712 365.8333,-223.2712 362.6667,-223.2712 359.5,-220.1045 359.5,-216.9379 359.5,-216.9379 359.5,-210.6045 359.5,-210.6045 359.5,-207.4379 362.6667,-204.2712 365.8333,-204.2712 365.8333,-204.2712 388.1667,-204.2712 388.1667,-204.2712 391.3333,-204.2712 394.5,-207.4379 394.5,-210.6045 394.5,-210.6045 394.5,-216.9379 394.5,-216.9379 394.5,-220.1045 391.3333,-223.2712 388.1667,-223.2712"/>
<text text-anchor="middle" x="377" y="-211.2712" font-family="Arial" font-size="10.00" fill="#000000">Table</text>
</a>
</g>
</g>
<!-- uqbar.graphs.TableRow.TableRow -->
<g id="node10" class="node">
<title>uqbar.graphs.TableRow.TableRow</title>
<g id="a_node10"><a xlink:href="../api/uqbar/containers/../graphs/TableRow.html#uqbar.graphs.TableRow.TableRow" xlink:title="Table\nRow" target="_top">
<path fill="#decbe4" stroke="#decbe4" stroke-width="2" d="M384.5,-185.7712C384.5,-185.7712 369.5,-185.7712 369.5,-185.7712 364.5,-185.7712 359.5,-180.7712 359.5,-175.7712 359.5,-175.7712 359.5,-165.7712 359.5,-165.7712 359.5,-160.7712 364.5,-155.7712 369.5,-155.7712 369.5,-155.7712 384.5,-155.7712 384.5,-155.7712 389.5,-155.7712 394.5,-160.7712 394.5,-165.7712 394.5,-165.7712 394.5,-175.7712 394.5,-175.7712 394.5,-180.7712 389.5,-185.7712 384.5,-185.7712"/>
<text text-anchor="middle" x="377" y="-173.7712" font-family="Arial" font-size="10.00" fill="#000000">Table</text>
<text text-anchor="middle" x="377" y="-162.7712" font-family="Arial" font-size="10.00" fill="#000000">Row</text>
</a>
</g>
</g>
<!-- uqbar.graphs.Text.Text -->
<g id="node11" class="node">
<title>uqbar.graphs.Text.Text</title>
<g id="a_node11"><a xlink:href="../api/uqbar/containers/../graphs/Text.html#uqbar.graphs.Text.Text" xlink:title="Text" target="_top">
<path fill="#decbe4" stroke="#decbe4" stroke-width="2" d="M386.1667,-383.2712C386.1667,-383.2712 367.8333,-383.2712 367.8333,-383.2712 364.6667,-383.2712 361.5,-380.1045 361.5,-376.9379 361.5,-376.9379 361.5,-370.6045 361.5,-370.6045 361.5,-367.4379 364.6667,-364.2712 367.8333,-364.2712 367.8333,-364.2712 386.1667,-364.2712 386.1667,-364.2712 389.3333,-364.2712 392.5,-367.4379 392.5,-370.6045 392.5,-370.6045 392.5,-376.9379 392.5,-376.9379 392.5,-380.1045 389.3333,-383.2712 386.1667,-383.2712"/>
<text text-anchor="middle" x="377" y="-371.2712" font-family="Arial" font-size="10.00" fill="#000000">Text</text>
</a>
</g>
</g>
<!-- uqbar.graphs.VRule.VRule -->
<g id="node12" class="node">
<title>uqbar.graphs.VRule.VRule</title>
<g id="a_node12"><a xlink:href="../api/uqbar/containers/../graphs/VRule.html#uqbar.graphs.VRule.VRule" xlink:title="VRule" target="_top">
<path fill="#decbe4" stroke="#decbe4" stroke-width="2" d="M389.1667,-543.2712C389.1667,-543.2712 364.8333,-543.2712 364.8333,-543.2712 361.6667,-543.2712 358.5,-540.1045 358.5,-536.9379 358.5,-536.9379 358.5,-530.6045 358.5,-530.6045 358.5,-527.4379 361.6667,-524.2712 364.8333,-524.2712 364.8333,-524.2712 389.1667,-524.2712 389.1667,-524.2712 392.3333,-524.2712 395.5,-527.4379 395.5,-530.6045 395.5,-530.6045 395.5,-536.9379 395.5,-536.9379 395.5,-540.1045 392.3333,-543.2712 389.1667,-543.2712"/>
<text text-anchor="middle" x="377" y="-531.2712" font-family="Arial" font-size="10.00" fill="#000000">VRule</text>
</a>
</g>
</g>
<!-- builtins.object -->
<g id="node13" class="node">
<title>builtins.object</title>
<g id="a_node13"><a xlink:href="https://docs.python.org/3.6/library/functions.html#object" xlink:title="object" target="_top">
<path fill="#fbb4ae" stroke="#fbb4ae" stroke-width="2" d="M46.6667,-315.2712C46.6667,-315.2712 22.3333,-315.2712 22.3333,-315.2712 19.1667,-315.2712 16,-312.1045 16,-308.9379 16,-308.9379 16,-302.6045 16,-302.6045 16,-299.4379 19.1667,-296.2712 22.3333,-296.2712 22.3333,-296.2712 46.6667,-296.2712 46.6667,-296.2712 49.8333,-296.2712 53,-299.4379 53,-302.6045 53,-302.6045 53,-308.9379 53,-308.9379 53,-312.1045 49.8333,-315.2712 46.6667,-315.2712"/>
<text text-anchor="middle" x="34.5" y="-303.2712" font-family="Arial" font-size="10.00" fill="#000000">object</text>
</a>
</g>
</g>
<!-- uqbar.apis.ModuleNode.ModuleNode -->
<g id="node14" class="node">
<title>uqbar.apis.ModuleNode.ModuleNode</title>
<g id="a_node14"><a xlink:href="../api/uqbar/containers/../apis/ModuleNode.html#uqbar.apis.ModuleNode.ModuleNode" xlink:title="Module\nNode" target="_top">
<path fill="#b3cde3" stroke="#b3cde3" stroke-width="2" d="M302.5,-52.7712C302.5,-52.7712 281.5,-52.7712 281.5,-52.7712 276.5,-52.7712 271.5,-47.7712 271.5,-42.7712 271.5,-42.7712 271.5,-32.7712 271.5,-32.7712 271.5,-27.7712 276.5,-22.7712 281.5,-22.7712 281.5,-22.7712 302.5,-22.7712 302.5,-22.7712 307.5,-22.7712 312.5,-27.7712 312.5,-32.7712 312.5,-32.7712 312.5,-42.7712 312.5,-42.7712 312.5,-47.7712 307.5,-52.7712 302.5,-52.7712"/>
<text text-anchor="middle" x="292" y="-40.7712" font-family="Arial" font-size="10.00" fill="#000000">Module</text>
<text text-anchor="middle" x="292" y="-29.7712" font-family="Arial" font-size="10.00" fill="#000000">Node</text>
</a>
</g>
</g>
<!-- uqbar.apis.PackageNode.PackageNode -->
<g id="node15" class="node">
<title>uqbar.apis.PackageNode.PackageNode</title>
<g id="a_node15"><a xlink:href="../api/uqbar/containers/../apis/PackageNode.html#uqbar.apis.PackageNode.PackageNode" xlink:title="Package\nNode" target="_top">
<path fill="#b3cde3" stroke="#b3cde3" stroke-width="2" d="M305,-100.7712C305,-100.7712 279,-100.7712 279,-100.7712 274,-100.7712 269,-95.7712 269,-90.7712 269,-90.7712 269,-80.7712 269,-80.7712 269,-75.7712 274,-70.7712 279,-70.7712 279,-70.7712 305,-70.7712 305,-70.7712 310,-70.7712 315,-75.7712 315,-80.7712 315,-80.7712 315,-90.7712 315,-90.7712 315,-95.7712 310,-100.7712 305,-100.7712"/>
<text text-anchor="middle" x="292" y="-88.7712" font-family="Arial" font-size="10.00" fill="#000000">Package</text>
<text text-anchor="middle" x="292" y="-77.7712" font-family="Arial" font-size="10.00" fill="#000000">Node</text>
</a>
</g>
</g>
<!-- uqbar.containers.DependencyGraph.DependencyGraph -->
<g id="node16" class="node">
<title>uqbar.containers.DependencyGraph.DependencyGraph</title>
<g id="a_node16"><a xlink:href="../api/uqbar/containers/DependencyGraph.html#uqbar.containers.DependencyGraph.DependencyGraph" xlink:title="Dependency\nGraph" target="_top">
<path fill="#000000" stroke="#000000" stroke-width="2" d="M138,-347.7712C138,-347.7712 99,-347.7712 99,-347.7712 94,-347.7712 89,-342.7712 89,-337.7712 89,-337.7712 89,-327.7712 89,-327.7712 89,-322.7712 94,-317.7712 99,-317.7712 99,-317.7712 138,-317.7712 138,-317.7712 143,-317.7712 148,-322.7712 148,-327.7712 148,-327.7712 148,-337.7712 148,-337.7712 148,-342.7712 143,-347.7712 138,-347.7712"/>
<text text-anchor="middle" x="118.5" y="-335.7712" font-family="Arial" font-size="10.00" fill="#ffffff">Dependency</text>
<text text-anchor="middle" x="118.5" y="-324.7712" font-family="Arial" font-size="10.00" fill="#ffffff">Graph</text>
</a>
</g>
</g>
<!-- uqbar.containers.UniqueTreeContainer.UniqueTreeContainer -->
<g id="node17" class="node">
<title>uqbar.containers.UniqueTreeContainer.UniqueTreeContainer</title>
<g id="a_node17"><a xlink:href="../api/uqbar/containers/UniqueTreeContainer.html#uqbar.containers.UniqueTreeContainer.UniqueTreeContainer" xlink:title="Unique\nTree\nContainer" target="_top">
<path fill="#000000" stroke="#000000" stroke-width="2" d="M221,-299.2712C221,-299.2712 196,-299.2712 196,-299.2712 190,-299.2712 184,-293.2712 184,-287.2712 184,-287.2712 184,-270.2712 184,-270.2712 184,-264.2712 190,-258.2712 196,-258.2712 196,-258.2712 221,-258.2712 221,-258.2712 227,-258.2712 233,-264.2712 233,-270.2712 233,-270.2712 233,-287.2712 233,-287.2712 233,-293.2712 227,-299.2712 221,-299.2712"/>
<text text-anchor="middle" x="208.5" y="-287.2712" font-family="Arial" font-size="10.00" fill="#ffffff">Unique</text>
<text text-anchor="middle" x="208.5" y="-276.2712" font-family="Arial" font-size="10.00" fill="#ffffff">Tree</text>
<text text-anchor="middle" x="208.5" y="-265.2712" font-family="Arial" font-size="10.00" fill="#ffffff">Container</text>
</a>
</g>
</g>
<!-- uqbar.containers.UniqueTreeNode.UniqueTreeNode -->
<g id="node18" class="node">
<title>uqbar.containers.UniqueTreeNode.UniqueTreeNode</title>
<g id="a_node18"><a xlink:href="../api/uqbar/containers/UniqueTreeNode.html#uqbar.containers.UniqueTreeNode.UniqueTreeNode" xlink:title="Unique\nTree\nNode" target="_top">
<path fill="#000000" stroke="#000000" stroke-width="2" d="M126.5,-299.2712C126.5,-299.2712 110.5,-299.2712 110.5,-299.2712 104.5,-299.2712 98.5,-293.2712 98.5,-287.2712 98.5,-287.2712 98.5,-270.2712 98.5,-270.2712 98.5,-264.2712 104.5,-258.2712 110.5,-258.2712 110.5,-258.2712 126.5,-258.2712 126.5,-258.2712 132.5,-258.2712 138.5,-264.2712 138.5,-270.2712 138.5,-270.2712 138.5,-287.2712 138.5,-287.2712 138.5,-293.2712 132.5,-299.2712 126.5,-299.2712"/>
<text text-anchor="middle" x="118.5" y="-287.2712" font-family="Arial" font-size="10.00" fill="#ffffff">Unique</text>
<text text-anchor="middle" x="118.5" y="-276.2712" font-family="Arial" font-size="10.00" fill="#ffffff">Tree</text>
<text text-anchor="middle" x="118.5" y="-265.2712" font-family="Arial" font-size="10.00" fill="#ffffff">Node</text>
</a>
</g>
</g>
</g>
</svg>
