<?xml version="1.0" encoding="UTF-8" standalone="no"?>
<!DOCTYPE svg PUBLIC "-//W3C//DTD SVG 1.1//EN"
 "http://www.w3.org/Graphics/SVG/1.1/DTD/svg11.dtd">
<!-- Generated by graphviz version 2.40.1 (20161225.0304)
 -->
<!-- Title: InheritanceGraph Pages: 1 -->
<svg width="580pt" height="644pt"
 viewBox="0.00 0.00 580.00 644.00" xmlns="http://www.w3.org/2000/svg" xmlns:xlink="http://www.w3.org/1999/xlink">
<g id="graph0" class="graph" transform="scale(1 1) rotate(0) translate(4 640)">
<title>InheritanceGraph</title>
<g id="clust1" class="cluster">
<title>cluster_builtins</title>
<path fill="transparent" stroke="#bcd2ee" stroke-width="2" stroke-dasharray="5,2" d="M20,-450C20,-450 49,-450 49,-450 55,-450 61,-456 61,-462 61,-462 61,-493 61,-493 61,-499 55,-505 49,-505 49,-505 20,-505 20,-505 14,-505 8,-499 8,-493 8,-493 8,-462 8,-462 8,-456 14,-450 20,-450"/>
<text text-anchor="middle" x="34.5" y="-493" font-family="Arial" font-size="10.00" fill="#000000">builtins</text>
</g>
<g id="clust2" class="cluster">
<title>cluster_uqbar.apis</title>
<path fill="transparent" stroke="#bcd2ee" stroke-width="2" stroke-dasharray="5,2" d="M349,-210C349,-210 387,-210 387,-210 393,-210 399,-216 399,-222 399,-222 399,-311 399,-311 399,-317 393,-323 387,-323 387,-323 349,-323 349,-323 343,-323 337,-317 337,-311 337,-311 337,-222 337,-222 337,-216 343,-210 349,-210"/>
<text text-anchor="middle" x="368" y="-311" font-family="Arial" font-size="10.00" fill="#000000">uqbar.apis</text>
</g>
<g id="clust3" class="cluster">
<title>cluster_uqbar.containers</title>
<path fill="transparent" stroke="#bcd2ee" stroke-width="2" stroke-dasharray="5,2" d="M93,-412C93,-412 384,-412 384,-412 390,-412 396,-418 396,-424 396,-424 396,-616 396,-616 396,-622 390,-628 384,-628 384,-628 93,-628 93,-628 87,-628 81,-622 81,-616 81,-616 81,-424 81,-424 81,-418 87,-412 93,-412"/>
<text text-anchor="middle" x="238.5" y="-616" font-family="Arial" font-size="10.00" fill="#000000">uqbar.containers</text>
</g>
<g id="clust4" class="cluster">
<title>cluster_uqbar.graphs</title>
<path fill="transparent" stroke="#bcd2ee" stroke-width="2" stroke-dasharray="5,2" d="M431,-63C431,-63 552,-63 552,-63 558,-63 564,-69 564,-75 564,-75 564,-475 564,-475 564,-481 558,-487 552,-487 552,-487 431,-487 431,-487 425,-487 419,-481 419,-475 419,-475 419,-75 419,-75 419,-69 425,-63 431,-63"/>
<text text-anchor="middle" x="491.5" y="-475" font-family="Arial" font-size="10.00" fill="#000000">uqbar.graphs</text>
</g>
<!-- builtins.object&#45;&gt;uqbar.containers.DependencyGraph.DependencyGraph -->
<g id="edge8" class="edge">
<title>builtins.object&#45;&gt;uqbar.containers.DependencyGraph.DependencyGraph</title>
<path fill="none" stroke="#778899" d="M53.1423,-473.9922C60.8093,-476.4566 69.999,-479.4104 79.0319,-482.3138"/>
<polygon fill="#778899" stroke="#778899" points="78.1013,-485.691 88.6926,-485.4191 80.2434,-479.0268 78.1013,-485.691"/>
</g>
<!-- builtins.object&#45;&gt;uqbar.containers.UniqueTreeNode.UniqueTreeNode -->
<g id="edge9" class="edge">
<title>builtins.object&#45;&gt;uqbar.containers.UniqueTreeNode.UniqueTreeNode</title>
<path fill="none" stroke="#778899" d="M53.1423,-462.0078C63.6399,-458.6336 76.992,-454.3419 88.8879,-450.5182"/>
<polygon fill="#778899" stroke="#778899" points="89.9941,-453.8391 98.4433,-447.4468 87.8519,-447.1749 89.9941,-453.8391"/>
</g>
<!-- uqbar.containers.UniqueTreeContainer.UniqueTreeContainer&#45;&gt;uqbar.containers.UniqueTreeDict.UniqueTreeDict -->
<g id="edge1" class="edge">
<title>uqbar.containers.UniqueTreeContainer.UniqueTreeContainer&#45;&gt;uqbar.containers.UniqueTreeDict.UniqueTreeDict</title>
<path fill="none" stroke="#778899" d="M233.0901,-481.9775C241.7798,-475.6086 251.6233,-468.3941 260.6027,-461.8129"/>
<polygon fill="#778899" stroke="#778899" points="262.8845,-464.48 268.8811,-455.7455 258.7465,-458.834 262.8845,-464.48"/>
</g>
<!-- uqbar.containers.UniqueTreeContainer.UniqueTreeContainer&#45;&gt;uqbar.containers.UniqueTreeList.UniqueTreeList -->
<g id="edge2" class="edge">
<title>uqbar.containers.UniqueTreeContainer.UniqueTreeContainer&#45;&gt;uqbar.containers.UniqueTreeList.UniqueTreeList</title>
<path fill="none" stroke="#778899" d="M233.0901,-500C241.1527,-500 250.2086,-500 258.6459,-500"/>
<polygon fill="#778899" stroke="#778899" points="258.8812,-503.5001 268.8811,-500 258.8811,-496.5001 258.8812,-503.5001"/>
</g>
<!-- uqbar.containers.UniqueTreeContainer.UniqueTreeContainer&#45;&gt;uqbar.containers.UniqueTreeSet.UniqueTreeSet -->
<g id="edge3" class="edge">
<title>uqbar.containers.UniqueTreeContainer.UniqueTreeContainer&#45;&gt;uqbar.containers.UniqueTreeSet.UniqueTreeSet</title>
<path fill="none" stroke="#778899" d="M233.0723,-512.3247C261.4587,-526.5624 308.1388,-549.9756 338.4727,-565.1901"/>
<polygon fill="#778899" stroke="#778899" points="337.1952,-568.4649 347.7031,-569.8197 340.3336,-562.2078 337.1952,-568.4649"/>
</g>
<!-- uqbar.containers.UniqueTreeContainer.UniqueTreeContainer&#45;&gt;uqbar.containers.UniqueTreeTuple.UniqueTreeTuple -->
<g id="edge4" class="edge">
<title>uqbar.containers.UniqueTreeContainer.UniqueTreeContainer&#45;&gt;uqbar.containers.UniqueTreeTuple.UniqueTreeTuple</title>
<path fill="none" stroke="#778899" d="M229.2308,-520.602C239.1476,-530.4572 251.1502,-542.3853 261.7899,-552.9589"/>
<polygon fill="#778899" stroke="#778899" points="259.3355,-555.4541 268.8957,-560.0206 264.2698,-550.489 259.3355,-555.4541"/>
</g>
<!-- uqbar.containers.UniqueTreeList.UniqueTreeList&#45;&gt;uqbar.apis.PackageNode.PackageNode -->
<g id="edge10" class="edge">
<title>uqbar.containers.UniqueTreeList.UniqueTreeList&#45;&gt;uqbar.apis.PackageNode.PackageNode</title>
<path fill="none" stroke="#778899" d="M304.7074,-479.3629C306.3301,-476.6432 307.8151,-473.8191 309,-471 334.2633,-410.8948 312.06,-387.24 337,-327 340.2118,-319.2421 344.8317,-311.4329 349.5279,-304.5072"/>
<polygon fill="#778899" stroke="#778899" points="352.4439,-306.4466 355.4171,-296.2774 346.7513,-302.3729 352.4439,-306.4466"/>
</g>
<!-- uqbar.containers.UniqueTreeList.UniqueTreeList&#45;&gt;uqbar.graphs.TableCell.TableCell -->
<g id="edge15" class="edge">
<title>uqbar.containers.UniqueTreeList.UniqueTreeList&#45;&gt;uqbar.graphs.TableCell.TableCell</title>
<path fill="none" stroke="#778899" d="M309.1099,-503.3752C347.6884,-508.6006 432.3871,-513.8299 479,-469 501.2361,-447.6144 521.6357,-359.6559 530.6408,-315.9226"/>
<polygon fill="#778899" stroke="#778899" points="534.0819,-316.5638 532.6305,-306.0689 527.2204,-315.1783 534.0819,-316.5638"/>
</g>
<!-- uqbar.containers.UniqueTreeList.UniqueTreeList&#45;&gt;uqbar.graphs.Graph.Graph -->
<g id="edge11" class="edge">
<title>uqbar.containers.UniqueTreeList.UniqueTreeList&#45;&gt;uqbar.graphs.Graph.Graph</title>
<path fill="none" stroke="#778899" d="M309.3888,-494.6707C331.5583,-488.7792 367.9772,-478.8182 399,-469 407.353,-466.3564 416.3566,-463.2804 424.5723,-460.3833"/>
<polygon fill="#778899" stroke="#778899" points="425.8653,-463.6382 434.1061,-456.9793 423.5114,-457.0458 425.8653,-463.6382"/>
</g>
<!-- uqbar.containers.UniqueTreeList.UniqueTreeList&#45;&gt;uqbar.graphs.Node.Node -->
<g id="edge12" class="edge">
<title>uqbar.containers.UniqueTreeList.UniqueTreeList&#45;&gt;uqbar.graphs.Node.Node</title>
<path fill="none" stroke="#778899" d="M309.2121,-486.156C317.6553,-480.5821 327.658,-474.2452 337,-469 366.8587,-452.2355 402.4999,-435.4907 426.3233,-424.74"/>
<polygon fill="#778899" stroke="#778899" points="428.0609,-427.7969 435.7584,-420.5169 425.2011,-421.4077 428.0609,-427.7969"/>
</g>
<!-- uqbar.containers.UniqueTreeList.UniqueTreeList&#45;&gt;uqbar.graphs.RecordGroup.RecordGroup -->
<g id="edge13" class="edge">
<title>uqbar.containers.UniqueTreeList.UniqueTreeList&#45;&gt;uqbar.graphs.RecordGroup.RecordGroup</title>
<path fill="none" stroke="#778899" d="M303.3541,-479.3291C315.9391,-461.3648 332.8571,-437.6563 337,-434 362.8813,-411.1588 398.2841,-393.103 423.1497,-382.0719"/>
<polygon fill="#778899" stroke="#778899" points="424.6556,-385.234 432.4479,-378.0556 421.8798,-378.8079 424.6556,-385.234"/>
</g>
<!-- uqbar.containers.UniqueTreeList.UniqueTreeList&#45;&gt;uqbar.graphs.Table.Table -->
<g id="edge14" class="edge">
<title>uqbar.containers.UniqueTreeList.UniqueTreeList&#45;&gt;uqbar.graphs.Table.Table</title>
<path fill="none" stroke="#778899" d="M304.0932,-479.4935C305.8604,-476.7058 307.5478,-473.8294 309,-471 325.8187,-438.2315 313.3425,-421.2306 337,-393 343.434,-385.3223 394.1074,-357.9009 426.3164,-340.9132"/>
<polygon fill="#778899" stroke="#778899" points="428.0303,-343.9664 435.2546,-336.2165 424.7742,-337.7698 428.0303,-343.9664"/>
</g>
<!-- uqbar.containers.UniqueTreeList.UniqueTreeList&#45;&gt;uqbar.graphs.TableRow.TableRow -->
<g id="edge16" class="edge">
<title>uqbar.containers.UniqueTreeList.UniqueTreeList&#45;&gt;uqbar.graphs.TableRow.TableRow</title>
<path fill="none" stroke="#778899" d="M304.5854,-479.31C306.229,-476.5994 307.7522,-473.7918 309,-471 330.6405,-422.5797 303.17,-395.8457 337,-355 356.2861,-331.7144 373.6846,-343.5318 399,-327 409.0129,-320.4613 409.7269,-316.5513 419,-309 421.6951,-306.8053 424.5588,-304.5656 427.4361,-302.3728"/>
<polygon fill="#778899" stroke="#778899" points="429.5289,-305.1782 435.4524,-296.394 425.3439,-299.567 429.5289,-305.1782"/>
</g>
<!-- uqbar.containers.UniqueTreeNode.UniqueTreeNode&#45;&gt;uqbar.apis.ModuleNode.ModuleNode -->
<g id="edge17" class="edge">
<title>uqbar.containers.UniqueTreeNode.UniqueTreeNode&#45;&gt;uqbar.apis.ModuleNode.ModuleNode</title>
<path fill="none" stroke="#778899" d="M138.751,-423.467C177.0548,-390.4121 262.9221,-316.8243 337,-257 338.0127,-256.1821 339.0471,-255.3525 340.0943,-254.5175"/>
<polygon fill="#778899" stroke="#778899" points="342.5342,-257.0512 348.2255,-248.1147 338.2036,-251.5515 342.5342,-257.0512"/>
</g>
<!-- uqbar.containers.UniqueTreeNode.UniqueTreeNode&#45;&gt;uqbar.containers.UniqueTreeContainer.UniqueTreeContainer -->
<g id="edge5" class="edge">
<title>uqbar.containers.UniqueTreeNode.UniqueTreeNode&#45;&gt;uqbar.containers.UniqueTreeContainer.UniqueTreeContainer</title>
<path fill="none" stroke="#778899" d="M138.9224,-454.388C149.6896,-461.4465 163.1648,-470.2803 175.3816,-478.289"/>
<polygon fill="#778899" stroke="#778899" points="173.7161,-481.3822 183.9981,-483.9377 177.5539,-475.528 173.7161,-481.3822"/>
</g>
<!-- uqbar.containers.UniqueTreeNode.UniqueTreeNode&#45;&gt;uqbar.graphs.Attachable.Attachable -->
<g id="edge18" class="edge">
<title>uqbar.containers.UniqueTreeNode.UniqueTreeNode&#45;&gt;uqbar.graphs.Attachable.Attachable</title>
<path fill="none" stroke="#778899" d="M128.9199,-420.4623C155.4361,-370.9418 230.9586,-246.0947 337,-206 362.7747,-196.2545 373.1364,-196.4931 399,-206 409.9498,-210.0249 409.3433,-216.4543 419,-223 420.6586,-224.1242 422.3953,-225.2322 424.1692,-226.3122"/>
<polygon fill="#778899" stroke="#778899" points="422.7347,-229.5228 433.1572,-231.4258 426.1962,-223.4386 422.7347,-229.5228"/>
</g>
<!-- uqbar.containers.UniqueTreeNode.UniqueTreeNode&#45;&gt;uqbar.graphs.RecordField.RecordField -->
<g id="edge21" class="edge">
<title>uqbar.containers.UniqueTreeNode.UniqueTreeNode&#45;&gt;uqbar.graphs.RecordField.RecordField</title>
<path fill="none" stroke="#778899" d="M120.9068,-420.4749C128.6685,-356.3761 154.27,-160.8776 184,-105 214.9993,-46.7368 223.0034,0 289,0 289,0 289,0 368,0 424.7255,0 440.8943,-20.9794 479,-63 506.0241,-92.8005 521.8112,-137.6429 529.5366,-165.3006"/>
<polygon fill="#778899" stroke="#778899" points="526.1607,-166.2248 532.1094,-174.992 532.9264,-164.4287 526.1607,-166.2248"/>
</g>
<!-- uqbar.containers.UniqueTreeNode.UniqueTreeNode&#45;&gt;uqbar.graphs.HRule.HRule -->
<g id="edge19" class="edge">
<title>uqbar.containers.UniqueTreeNode.UniqueTreeNode&#45;&gt;uqbar.graphs.HRule.HRule</title>
<path fill="none" stroke="#778899" d="M122.5474,-420.4154C129.9537,-386.9724 148.3145,-320.0498 184,-275 231.7752,-214.688 260.9982,-205.9885 337,-194 366.6084,-189.3296 400.8374,-193.4252 424.3992,-197.6985"/>
<polygon fill="#778899" stroke="#778899" points="423.9357,-201.1738 434.4194,-199.6435 425.2696,-194.302 423.9357,-201.1738"/>
</g>
<!-- uqbar.containers.UniqueTreeNode.UniqueTreeNode&#45;&gt;uqbar.graphs.LineBreak.LineBreak -->
<g id="edge20" class="edge">
<title>uqbar.containers.UniqueTreeNode.UniqueTreeNode&#45;&gt;uqbar.graphs.LineBreak.LineBreak</title>
<path fill="none" stroke="#778899" d="M122.1484,-420.439C131.184,-371.6622 155.9133,-250.8727 184,-222 248.7991,-155.3875 369.9362,-154.7134 424.7598,-158.2866"/>
<polygon fill="#778899" stroke="#778899" points="424.5703,-161.7821 434.804,-159.0395 425.0936,-154.8017 424.5703,-161.7821"/>
</g>
<!-- uqbar.containers.UniqueTreeNode.UniqueTreeNode&#45;&gt;uqbar.graphs.Text.Text -->
<g id="edge22" class="edge">
<title>uqbar.containers.UniqueTreeNode.UniqueTreeNode&#45;&gt;uqbar.graphs.Text.Text</title>
<path fill="none" stroke="#778899" d="M121.1449,-420.1284C128.5122,-365.1659 150.9228,-218.3072 184,-184 249.7285,-115.8275 373.5183,-113.4838 427.1437,-116.0316"/>
<polygon fill="#778899" stroke="#778899" points="427.0019,-119.5291 437.186,-116.6079 427.403,-112.5406 427.0019,-119.5291"/>
</g>
<!-- uqbar.containers.UniqueTreeNode.UniqueTreeNode&#45;&gt;uqbar.graphs.VRule.VRule -->
<g id="edge23" class="edge">
<title>uqbar.containers.UniqueTreeNode.UniqueTreeNode&#45;&gt;uqbar.graphs.VRule.VRule</title>
<path fill="none" stroke="#778899" d="M120.4401,-420.2171C126.4668,-359.9388 146.7329,-186.7439 184,-146 246.7765,-77.3668 368.4416,-75.3659 424.0287,-78.469"/>
<polygon fill="#778899" stroke="#778899" points="424.0199,-81.9759 434.228,-79.1395 424.4792,-74.991 424.0199,-81.9759"/>
</g>
<!-- uqbar.graphs.Attachable.Attachable&#45;&gt;uqbar.graphs.RecordField.RecordField -->
<g id="edge6" class="edge">
<title>uqbar.graphs.Attachable.Attachable&#45;&gt;uqbar.graphs.RecordField.RecordField</title>
<path fill="none" stroke="#778899" d="M468.5176,-231.4073C479.0344,-224.906 493.2666,-216.1079 505.9075,-208.2935"/>
<polygon fill="#778899" stroke="#778899" points="508.0894,-211.0595 514.755,-202.8242 504.4086,-205.1054 508.0894,-211.0595"/>
</g>
<!-- uqbar.graphs.Attachable.Attachable&#45;&gt;uqbar.graphs.TableCell.TableCell -->
<g id="edge7" class="edge">
<title>uqbar.graphs.Attachable.Attachable&#45;&gt;uqbar.graphs.TableCell.TableCell</title>
<path fill="none" stroke="#778899" d="M468.9068,-250.6405C480.32,-257.5576 495.9593,-267.0359 509.214,-275.0691"/>
<polygon fill="#778899" stroke="#778899" points="507.5621,-278.1605 517.9281,-280.3504 511.1902,-272.1741 507.5621,-278.1605"/>
</g>
<!-- builtins.object -->
<g id="node1" class="node">
<title>builtins.object</title>
<g id="a_node1"><a xlink:href="https://docs.python.org/3.6/library/functions.html#object" xlink:title="object" target="_top">
<path fill="#fbb4ae" stroke="#fbb4ae" stroke-width="2" d="M46.6667,-477.5C46.6667,-477.5 22.3333,-477.5 22.3333,-477.5 19.1667,-477.5 16,-474.3333 16,-471.1667 16,-471.1667 16,-464.8333 16,-464.8333 16,-461.6667 19.1667,-458.5 22.3333,-458.5 22.3333,-458.5 46.6667,-458.5 46.6667,-458.5 49.8333,-458.5 53,-461.6667 53,-464.8333 53,-464.8333 53,-471.1667 53,-471.1667 53,-474.3333 49.8333,-477.5 46.6667,-477.5"/>
<text text-anchor="middle" x="34.5" y="-465.5" font-family="Arial" font-size="10.00" fill="#000000">object</text>
</a>
</g>
</g>
<!-- uqbar.apis.ModuleNode.ModuleNode -->
<g id="node2" class="node">
<title>uqbar.apis.ModuleNode.ModuleNode</title>
<g id="a_node2"><a xlink:href="../api/uqbar/containers/../apis/ModuleNode.html#uqbar.apis.ModuleNode.ModuleNode" xlink:title="Module\nNode" target="_top">
<path fill="#b3cde3" stroke="#b3cde3" stroke-width="2" d="M378.5,-248C378.5,-248 357.5,-248 357.5,-248 352.5,-248 347.5,-243 347.5,-238 347.5,-238 347.5,-228 347.5,-228 347.5,-223 352.5,-218 357.5,-218 357.5,-218 378.5,-218 378.5,-218 383.5,-218 388.5,-223 388.5,-228 388.5,-228 388.5,-238 388.5,-238 388.5,-243 383.5,-248 378.5,-248"/>
<text text-anchor="middle" x="368" y="-236" font-family="Arial" font-size="10.00" fill="#000000">Module</text>
<text text-anchor="middle" x="368" y="-225" font-family="Arial" font-size="10.00" fill="#000000">Node</text>
</a>
</g>
</g>
<!-- uqbar.apis.PackageNode.PackageNode -->
<g id="node3" class="node">
<title>uqbar.apis.PackageNode.PackageNode</title>
<g id="a_node3"><a xlink:href="../api/uqbar/containers/../apis/PackageNode.html#uqbar.apis.PackageNode.PackageNode" xlink:title="Package\nNode" target="_top">
<path fill="#b3cde3" stroke="#b3cde3" stroke-width="2" d="M381,-296C381,-296 355,-296 355,-296 350,-296 345,-291 345,-286 345,-286 345,-276 345,-276 345,-271 350,-266 355,-266 355,-266 381,-266 381,-266 386,-266 391,-271 391,-276 391,-276 391,-286 391,-286 391,-291 386,-296 381,-296"/>
<text text-anchor="middle" x="368" y="-284" font-family="Arial" font-size="10.00" fill="#000000">Package</text>
<text text-anchor="middle" x="368" y="-273" font-family="Arial" font-size="10.00" fill="#000000">Node</text>
</a>
</g>
</g>
<!-- uqbar.containers.DependencyGraph.DependencyGraph -->
<g id="node4" class="node">
<title>uqbar.containers.DependencyGraph.DependencyGraph</title>
<g id="a_node4"><a xlink:href="../api/uqbar/containers/DependencyGraph.html#uqbar.containers.DependencyGraph.DependencyGraph" xlink:title="Dependency\nGraph" target="_top">
<path fill="#000000" stroke="#000000" stroke-width="2" d="M138,-510C138,-510 99,-510 99,-510 94,-510 89,-505 89,-500 89,-500 89,-490 89,-490 89,-485 94,-480 99,-480 99,-480 138,-480 138,-480 143,-480 148,-485 148,-490 148,-490 148,-500 148,-500 148,-505 143,-510 138,-510"/>
<text text-anchor="middle" x="118.5" y="-498" font-family="Arial" font-size="10.00" fill="#ffffff">Dependency</text>
<text text-anchor="middle" x="118.5" y="-487" font-family="Arial" font-size="10.00" fill="#ffffff">Graph</text>
</a>
</g>
</g>
<!-- uqbar.containers.UniqueTreeContainer.UniqueTreeContainer -->
<g id="node5" class="node">
<title>uqbar.containers.UniqueTreeContainer.UniqueTreeContainer</title>
<g id="a_node5"><a xlink:href="../api/uqbar/containers/UniqueTreeContainer.html#uqbar.containers.UniqueTreeContainer.UniqueTreeContainer" xlink:title="Unique\nTree\nContainer" target="_top">
<path fill="#000000" stroke="#000000" stroke-width="2" d="M221,-520.5C221,-520.5 196,-520.5 196,-520.5 190,-520.5 184,-514.5 184,-508.5 184,-508.5 184,-491.5 184,-491.5 184,-485.5 190,-479.5 196,-479.5 196,-479.5 221,-479.5 221,-479.5 227,-479.5 233,-485.5 233,-491.5 233,-491.5 233,-508.5 233,-508.5 233,-514.5 227,-520.5 221,-520.5"/>
<text text-anchor="middle" x="208.5" y="-508.5" font-family="Arial" font-size="10.00" fill="#ffffff">Unique</text>
<text text-anchor="middle" x="208.5" y="-497.5" font-family="Arial" font-size="10.00" fill="#ffffff">Tree</text>
<text text-anchor="middle" x="208.5" y="-486.5" font-family="Arial" font-size="10.00" fill="#ffffff">Container</text>
</a>
</g>
</g>
<!-- uqbar.containers.UniqueTreeDict.UniqueTreeDict -->
<g id="node6" class="node">
<title>uqbar.containers.UniqueTreeDict.UniqueTreeDict</title>
<g id="a_node6"><a xlink:href="../api/uqbar/containers/UniqueTreeDict.html#uqbar.containers.UniqueTreeDict.UniqueTreeDict" xlink:title="Unique\nTree\nDict" target="_top">
<path fill="#000000" stroke="#000000" stroke-width="2" d="M297,-461.5C297,-461.5 281,-461.5 281,-461.5 275,-461.5 269,-455.5 269,-449.5 269,-449.5 269,-432.5 269,-432.5 269,-426.5 275,-420.5 281,-420.5 281,-420.5 297,-420.5 297,-420.5 303,-420.5 309,-426.5 309,-432.5 309,-432.5 309,-449.5 309,-449.5 309,-455.5 303,-461.5 297,-461.5"/>
<text text-anchor="middle" x="289" y="-449.5" font-family="Arial" font-size="10.00" fill="#ffffff">Unique</text>
<text text-anchor="middle" x="289" y="-438.5" font-family="Arial" font-size="10.00" fill="#ffffff">Tree</text>
<text text-anchor="middle" x="289" y="-427.5" font-family="Arial" font-size="10.00" fill="#ffffff">Dict</text>
</a>
</g>
</g>
<!-- uqbar.containers.UniqueTreeList.UniqueTreeList -->
<g id="node7" class="node">
<title>uqbar.containers.UniqueTreeList.UniqueTreeList</title>
<g id="a_node7"><a xlink:href="../api/uqbar/containers/UniqueTreeList.html#uqbar.containers.UniqueTreeList.UniqueTreeList" xlink:title="Unique\nTree\nList" target="_top">
<path fill="#000000" stroke="#000000" stroke-width="2" d="M297,-520.5C297,-520.5 281,-520.5 281,-520.5 275,-520.5 269,-514.5 269,-508.5 269,-508.5 269,-491.5 269,-491.5 269,-485.5 275,-479.5 281,-479.5 281,-479.5 297,-479.5 297,-479.5 303,-479.5 309,-485.5 309,-491.5 309,-491.5 309,-508.5 309,-508.5 309,-514.5 303,-520.5 297,-520.5"/>
<text text-anchor="middle" x="289" y="-508.5" font-family="Arial" font-size="10.00" fill="#ffffff">Unique</text>
<text text-anchor="middle" x="289" y="-497.5" font-family="Arial" font-size="10.00" fill="#ffffff">Tree</text>
<text text-anchor="middle" x="289" y="-486.5" font-family="Arial" font-size="10.00" fill="#ffffff">List</text>
</a>
</g>
</g>
<!-- uqbar.containers.UniqueTreeSet.UniqueTreeSet -->
<g id="node8" class="node">
<title>uqbar.containers.UniqueTreeSet.UniqueTreeSet</title>
<g id="a_node8"><a xlink:href="../api/uqbar/containers/UniqueTreeSet.html#uqbar.containers.UniqueTreeSet.UniqueTreeSet" xlink:title="Unique\nTree\nSet" target="_top">
<path fill="#000000" stroke="#000000" stroke-width="2" d="M376,-600.5C376,-600.5 360,-600.5 360,-600.5 354,-600.5 348,-594.5 348,-588.5 348,-588.5 348,-571.5 348,-571.5 348,-565.5 354,-559.5 360,-559.5 360,-559.5 376,-559.5 376,-559.5 382,-559.5 388,-565.5 388,-571.5 388,-571.5 388,-588.5 388,-588.5 388,-594.5 382,-600.5 376,-600.5"/>
<text text-anchor="middle" x="368" y="-588.5" font-family="Arial" font-size="10.00" fill="#ffffff">Unique</text>
<text text-anchor="middle" x="368" y="-577.5" font-family="Arial" font-size="10.00" fill="#ffffff">Tree</text>
<text text-anchor="middle" x="368" y="-566.5" font-family="Arial" font-size="10.00" fill="#ffffff">Set</text>
</a>
</g>
</g>
<!-- uqbar.containers.UniqueTreeTuple.UniqueTreeTuple -->
<g id="node9" class="node">
<title>uqbar.containers.UniqueTreeTuple.UniqueTreeTuple</title>
<g id="a_node9"><a xlink:href="../api/uqbar/containers/UniqueTreeTuple.html#uqbar.containers.UniqueTreeTuple.UniqueTreeTuple" xlink:title="Unique\nTree\nTuple" target="_top">
<path fill="#000000" stroke="#000000" stroke-width="2" d="M297,-600.5C297,-600.5 281,-600.5 281,-600.5 275,-600.5 269,-594.5 269,-588.5 269,-588.5 269,-571.5 269,-571.5 269,-565.5 275,-559.5 281,-559.5 281,-559.5 297,-559.5 297,-559.5 303,-559.5 309,-565.5 309,-571.5 309,-571.5 309,-588.5 309,-588.5 309,-594.5 303,-600.5 297,-600.5"/>
<text text-anchor="middle" x="289" y="-588.5" font-family="Arial" font-size="10.00" fill="#ffffff">Unique</text>
<text text-anchor="middle" x="289" y="-577.5" font-family="Arial" font-size="10.00" fill="#ffffff">Tree</text>
<text text-anchor="middle" x="289" y="-566.5" font-family="Arial" font-size="10.00" fill="#ffffff">Tuple</text>
</a>
</g>
</g>
<!-- uqbar.containers.UniqueTreeNode.UniqueTreeNode -->
<g id="node10" class="node">
<title>uqbar.containers.UniqueTreeNode.UniqueTreeNode</title>
<g id="a_node10"><a xlink:href="../api/uqbar/containers/UniqueTreeNode.html#uqbar.containers.UniqueTreeNode.UniqueTreeNode" xlink:title="Unique\nTree\nNode" target="_top">
<path fill="#000000" stroke="#000000" stroke-width="2" d="M126.5,-461.5C126.5,-461.5 110.5,-461.5 110.5,-461.5 104.5,-461.5 98.5,-455.5 98.5,-449.5 98.5,-449.5 98.5,-432.5 98.5,-432.5 98.5,-426.5 104.5,-420.5 110.5,-420.5 110.5,-420.5 126.5,-420.5 126.5,-420.5 132.5,-420.5 138.5,-426.5 138.5,-432.5 138.5,-432.5 138.5,-449.5 138.5,-449.5 138.5,-455.5 132.5,-461.5 126.5,-461.5"/>
<text text-anchor="middle" x="118.5" y="-449.5" font-family="Arial" font-size="10.00" fill="#ffffff">Unique</text>
<text text-anchor="middle" x="118.5" y="-438.5" font-family="Arial" font-size="10.00" fill="#ffffff">Tree</text>
<text text-anchor="middle" x="118.5" y="-427.5" font-family="Arial" font-size="10.00" fill="#ffffff">Node</text>
</a>
</g>
</g>
<!-- uqbar.graphs.Attachable.Attachable -->
<g id="node11" class="node">
<title>uqbar.graphs.Attachable.Attachable</title>
<g id="a_node11"><a xlink:href="../api/uqbar/containers/../graphs/Attachable.html#uqbar.graphs.Attachable.Attachable" xlink:title="Attachable" target="_top">
<path fill="#decbe4" stroke="#decbe4" stroke-width="2" d="M472.6667,-250.5C472.6667,-250.5 433.3333,-250.5 433.3333,-250.5 430.1667,-250.5 427,-247.3333 427,-244.1667 427,-244.1667 427,-237.8333 427,-237.8333 427,-234.6667 430.1667,-231.5 433.3333,-231.5 433.3333,-231.5 472.6667,-231.5 472.6667,-231.5 475.8333,-231.5 479,-234.6667 479,-237.8333 479,-237.8333 479,-244.1667 479,-244.1667 479,-247.3333 475.8333,-250.5 472.6667,-250.5"/>
<text text-anchor="middle" x="453" y="-238.5" font-family="Arial" font-size="10.00" fill="#000000">Attachable</text>
</a>
</g>
</g>
<!-- uqbar.graphs.RecordField.RecordField -->
<g id="node12" class="node">
<title>uqbar.graphs.RecordField.RecordField</title>
<g id="a_node12"><a xlink:href="../api/uqbar/containers/../graphs/RecordField.html#uqbar.graphs.RecordField.RecordField" xlink:title="Record\nField" target="_top">
<path fill="#decbe4" stroke="#decbe4" stroke-width="2" d="M546,-205C546,-205 525,-205 525,-205 520,-205 515,-200 515,-195 515,-195 515,-185 515,-185 515,-180 520,-175 525,-175 525,-175 546,-175 546,-175 551,-175 556,-180 556,-185 556,-185 556,-195 556,-195 556,-200 551,-205 546,-205"/>
<text text-anchor="middle" x="535.5" y="-193" font-family="Arial" font-size="10.00" fill="#000000">Record</text>
<text text-anchor="middle" x="535.5" y="-182" font-family="Arial" font-size="10.00" fill="#000000">Field</text>
</a>
</g>
</g>
<!-- uqbar.graphs.TableCell.TableCell -->
<g id="node13" class="node">
<title>uqbar.graphs.TableCell.TableCell</title>
<g id="a_node13"><a xlink:href="../api/uqbar/containers/../graphs/TableCell.html#uqbar.graphs.TableCell.TableCell" xlink:title="Table\nCell" target="_top">
<path fill="#decbe4" stroke="#decbe4" stroke-width="2" d="M543,-306C543,-306 528,-306 528,-306 523,-306 518,-301 518,-296 518,-296 518,-286 518,-286 518,-281 523,-276 528,-276 528,-276 543,-276 543,-276 548,-276 553,-281 553,-286 553,-286 553,-296 553,-296 553,-301 548,-306 543,-306"/>
<text text-anchor="middle" x="535.5" y="-294" font-family="Arial" font-size="10.00" fill="#000000">Table</text>
<text text-anchor="middle" x="535.5" y="-283" font-family="Arial" font-size="10.00" fill="#000000">Cell</text>
</a>
</g>
</g>
<!-- uqbar.graphs.Graph.Graph -->
<g id="node14" class="node">
<title>uqbar.graphs.Graph.Graph</title>
<g id="a_node14"><a xlink:href="../api/uqbar/containers/../graphs/Graph.html#uqbar.graphs.Graph.Graph" xlink:title="Graph" target="_top">
<path fill="#decbe4" stroke="#decbe4" stroke-width="2" d="M465.1667,-459.5C465.1667,-459.5 440.8333,-459.5 440.8333,-459.5 437.6667,-459.5 434.5,-456.3333 434.5,-453.1667 434.5,-453.1667 434.5,-446.8333 434.5,-446.8333 434.5,-443.6667 437.6667,-440.5 440.8333,-440.5 440.8333,-440.5 465.1667,-440.5 465.1667,-440.5 468.3333,-440.5 471.5,-443.6667 471.5,-446.8333 471.5,-446.8333 471.5,-453.1667 471.5,-453.1667 471.5,-456.3333 468.3333,-459.5 465.1667,-459.5"/>
<text text-anchor="middle" x="453" y="-447.5" font-family="Arial" font-size="10.00" fill="#000000">Graph</text>
</a>
</g>
</g>
<!-- uqbar.graphs.HRule.HRule -->
<g id="node15" class="node">
<title>uqbar.graphs.HRule.HRule</title>
<g id="a_node15"><a xlink:href="../api/uqbar/containers/../graphs/HRule.html#uqbar.graphs.HRule.HRule" xlink:title="HRule" target="_top">
<path fill="#decbe4" stroke="#decbe4" stroke-width="2" d="M465.1667,-213.5C465.1667,-213.5 440.8333,-213.5 440.8333,-213.5 437.6667,-213.5 434.5,-210.3333 434.5,-207.1667 434.5,-207.1667 434.5,-200.8333 434.5,-200.8333 434.5,-197.6667 437.6667,-194.5 440.8333,-194.5 440.8333,-194.5 465.1667,-194.5 465.1667,-194.5 468.3333,-194.5 471.5,-197.6667 471.5,-200.8333 471.5,-200.8333 471.5,-207.1667 471.5,-207.1667 471.5,-210.3333 468.3333,-213.5 465.1667,-213.5"/>
<text text-anchor="middle" x="453" y="-201.5" font-family="Arial" font-size="10.00" fill="#000000">HRule</text>
</a>
</g>
</g>
<!-- uqbar.graphs.LineBreak.LineBreak -->
<g id="node16" class="node">
<title>uqbar.graphs.LineBreak.LineBreak</title>
<g id="a_node16"><a xlink:href="../api/uqbar/containers/../graphs/LineBreak.html#uqbar.graphs.LineBreak.LineBreak" xlink:title="Line\nBreak" target="_top">
<path fill="#decbe4" stroke="#decbe4" stroke-width="2" d="M461,-176C461,-176 445,-176 445,-176 440,-176 435,-171 435,-166 435,-166 435,-156 435,-156 435,-151 440,-146 445,-146 445,-146 461,-146 461,-146 466,-146 471,-151 471,-156 471,-156 471,-166 471,-166 471,-171 466,-176 461,-176"/>
<text text-anchor="middle" x="453" y="-164" font-family="Arial" font-size="10.00" fill="#000000">Line</text>
<text text-anchor="middle" x="453" y="-153" font-family="Arial" font-size="10.00" fill="#000000">Break</text>
</a>
</g>
</g>
<!-- uqbar.graphs.Node.Node -->
<g id="node17" class="node">
<title>uqbar.graphs.Node.Node</title>
<g id="a_node17"><a xlink:href="../api/uqbar/containers/../graphs/Node.html#uqbar.graphs.Node.Node" xlink:title="Node" target="_top">
<path fill="#decbe4" stroke="#decbe4" stroke-width="2" d="M463.6667,-422.5C463.6667,-422.5 442.3333,-422.5 442.3333,-422.5 439.1667,-422.5 436,-419.3333 436,-416.1667 436,-416.1667 436,-409.8333 436,-409.8333 436,-406.6667 439.1667,-403.5 442.3333,-403.5 442.3333,-403.5 463.6667,-403.5 463.6667,-403.5 466.8333,-403.5 470,-406.6667 470,-409.8333 470,-409.8333 470,-416.1667 470,-416.1667 470,-419.3333 466.8333,-422.5 463.6667,-422.5"/>
<text text-anchor="middle" x="453" y="-410.5" font-family="Arial" font-size="10.00" fill="#000000">Node</text>
</a>
</g>
</g>
<!-- uqbar.graphs.RecordGroup.RecordGroup -->
<g id="node18" class="node">
<title>uqbar.graphs.RecordGroup.RecordGroup</title>
<g id="a_node18"><a xlink:href="../api/uqbar/containers/../graphs/RecordGroup.html#uqbar.graphs.RecordGroup.RecordGroup" xlink:title="Record\nGroup" target="_top">
<path fill="#decbe4" stroke="#decbe4" stroke-width="2" d="M463.5,-385C463.5,-385 442.5,-385 442.5,-385 437.5,-385 432.5,-380 432.5,-375 432.5,-375 432.5,-365 432.5,-365 432.5,-360 437.5,-355 442.5,-355 442.5,-355 463.5,-355 463.5,-355 468.5,-355 473.5,-360 473.5,-365 473.5,-365 473.5,-375 473.5,-375 473.5,-380 468.5,-385 463.5,-385"/>
<text text-anchor="middle" x="453" y="-373" font-family="Arial" font-size="10.00" fill="#000000">Record</text>
<text text-anchor="middle" x="453" y="-362" font-family="Arial" font-size="10.00" fill="#000000">Group</text>
</a>
</g>
</g>
<!-- uqbar.graphs.Table.Table -->
<g id="node19" class="node">
<title>uqbar.graphs.Table.Table</title>
<g id="a_node19"><a xlink:href="../api/uqbar/containers/../graphs/Table.html#uqbar.graphs.Table.Table" xlink:title="Table" target="_top">
<path fill="#decbe4" stroke="#decbe4" stroke-width="2" d="M464.1667,-336.5C464.1667,-336.5 441.8333,-336.5 441.8333,-336.5 438.6667,-336.5 435.5,-333.3333 435.5,-330.1667 435.5,-330.1667 435.5,-323.8333 435.5,-323.8333 435.5,-320.6667 438.6667,-317.5 441.8333,-317.5 441.8333,-317.5 464.1667,-317.5 464.1667,-317.5 467.3333,-317.5 470.5,-320.6667 470.5,-323.8333 470.5,-323.8333 470.5,-330.1667 470.5,-330.1667 470.5,-333.3333 467.3333,-336.5 464.1667,-336.5"/>
<text text-anchor="middle" x="453" y="-324.5" font-family="Arial" font-size="10.00" fill="#000000">Table</text>
</a>
</g>
</g>
<!-- uqbar.graphs.TableRow.TableRow -->
<g id="node20" class="node">
<title>uqbar.graphs.TableRow.TableRow</title>
<g id="a_node20"><a xlink:href="../api/uqbar/containers/../graphs/TableRow.html#uqbar.graphs.TableRow.TableRow" xlink:title="Table\nRow" target="_top">
<path fill="#decbe4" stroke="#decbe4" stroke-width="2" d="M460.5,-299C460.5,-299 445.5,-299 445.5,-299 440.5,-299 435.5,-294 435.5,-289 435.5,-289 435.5,-279 435.5,-279 435.5,-274 440.5,-269 445.5,-269 445.5,-269 460.5,-269 460.5,-269 465.5,-269 470.5,-274 470.5,-279 470.5,-279 470.5,-289 470.5,-289 470.5,-294 465.5,-299 460.5,-299"/>
<text text-anchor="middle" x="453" y="-287" font-family="Arial" font-size="10.00" fill="#000000">Table</text>
<text text-anchor="middle" x="453" y="-276" font-family="Arial" font-size="10.00" fill="#000000">Row</text>
</a>
</g>
</g>
<!-- uqbar.graphs.Text.Text -->
<g id="node21" class="node">
<title>uqbar.graphs.Text.Text</title>
<g id="a_node21"><a xlink:href="../api/uqbar/containers/../graphs/Text.html#uqbar.graphs.Text.Text" xlink:title="Text" target="_top">
<path fill="#decbe4" stroke="#decbe4" stroke-width="2" d="M462.1667,-127.5C462.1667,-127.5 443.8333,-127.5 443.8333,-127.5 440.6667,-127.5 437.5,-124.3333 437.5,-121.1667 437.5,-121.1667 437.5,-114.8333 437.5,-114.8333 437.5,-111.6667 440.6667,-108.5 443.8333,-108.5 443.8333,-108.5 462.1667,-108.5 462.1667,-108.5 465.3333,-108.5 468.5,-111.6667 468.5,-114.8333 468.5,-114.8333 468.5,-121.1667 468.5,-121.1667 468.5,-124.3333 465.3333,-127.5 462.1667,-127.5"/>
<text text-anchor="middle" x="453" y="-115.5" font-family="Arial" font-size="10.00" fill="#000000">Text</text>
</a>
</g>
</g>
<!-- uqbar.graphs.VRule.VRule -->
<g id="node22" class="node">
<title>uqbar.graphs.VRule.VRule</title>
<g id="a_node22"><a xlink:href="../api/uqbar/containers/../graphs/VRule.html#uqbar.graphs.VRule.VRule" xlink:title="VRule" target="_top">
<path fill="#decbe4" stroke="#decbe4" stroke-width="2" d="M465.1667,-90.5C465.1667,-90.5 440.8333,-90.5 440.8333,-90.5 437.6667,-90.5 434.5,-87.3333 434.5,-84.1667 434.5,-84.1667 434.5,-77.8333 434.5,-77.8333 434.5,-74.6667 437.6667,-71.5 440.8333,-71.5 440.8333,-71.5 465.1667,-71.5 465.1667,-71.5 468.3333,-71.5 471.5,-74.6667 471.5,-77.8333 471.5,-77.8333 471.5,-84.1667 471.5,-84.1667 471.5,-87.3333 468.3333,-90.5 465.1667,-90.5"/>
<text text-anchor="middle" x="453" y="-78.5" font-family="Arial" font-size="10.00" fill="#000000">VRule</text>
</a>
</g>
</g>
</g>
</svg>
