<?xml version="1.0" encoding="UTF-8" standalone="no"?>
<!DOCTYPE svg PUBLIC "-//W3C//DTD SVG 1.1//EN"
 "http://www.w3.org/Graphics/SVG/1.1/DTD/svg11.dtd">
<!-- Generated by graphviz version 2.40.1 (20161225.0304)
 -->
<!-- Title: InheritanceGraph Pages: 1 -->
<svg width="356pt" height="179pt"
 viewBox="0.00 0.00 356.00 179.00" xmlns="http://www.w3.org/2000/svg" xmlns:xlink="http://www.w3.org/1999/xlink">
<g id="graph0" class="graph" transform="scale(1 1) rotate(0) translate(4 175)">
<title>InheritanceGraph</title>
<g id="clust1" class="cluster">
<title>cluster_builtins</title>
<path fill="transparent" stroke="#bcd2ee" stroke-width="2" stroke-dasharray="5,2" d="M20,-71C20,-71 49,-71 49,-71 55,-71 61,-77 61,-83 61,-83 61,-114 61,-114 61,-120 55,-126 49,-126 49,-126 20,-126 20,-126 14,-126 8,-120 8,-114 8,-114 8,-83 8,-83 8,-77 14,-71 20,-71"/>
<text text-anchor="middle" x="34.5" y="-114" font-family="Arial" font-size="10.00" fill="#000000">builtins</text>
</g>
<g id="clust2" class="cluster">
<title>cluster_docutils.nodes</title>
<path fill="transparent" stroke="#bcd2ee" stroke-width="2" stroke-dasharray="5,2" d="M93,-71C93,-71 208,-71 208,-71 214,-71 220,-77 220,-83 220,-83 220,-151 220,-151 220,-157 214,-163 208,-163 208,-163 93,-163 93,-163 87,-163 81,-157 81,-151 81,-151 81,-83 81,-83 81,-77 87,-71 93,-71"/>
<text text-anchor="middle" x="150.5" y="-151" font-family="Arial" font-size="10.00" fill="#000000">docutils.nodes</text>
</g>
<g id="clust3" class="cluster">
<title>cluster_docutils.parsers.rst</title>
<path fill="transparent" stroke="#bcd2ee" stroke-width="2" stroke-dasharray="5,2" d="M163,-8C163,-8 218,-8 218,-8 224,-8 230,-14 230,-20 230,-20 230,-51 230,-51 230,-57 224,-63 218,-63 218,-63 163,-63 163,-63 157,-63 151,-57 151,-51 151,-51 151,-20 151,-20 151,-14 157,-8 163,-8"/>
<text text-anchor="middle" x="190.5" y="-51" font-family="Arial" font-size="10.00" fill="#000000">docutils.parsers.rst</text>
</g>
<g id="clust4" class="cluster">
<title>cluster_uqbar.sphinx.inheritance</title>
<path fill="transparent" stroke="#bcd2ee" stroke-width="2" stroke-dasharray="5,2" d="M262,-18C262,-18 336,-18 336,-18 342,-18 348,-24 348,-30 348,-30 348,-119 348,-119 348,-125 342,-131 336,-131 336,-131 262,-131 262,-131 256,-131 250,-125 250,-119 250,-119 250,-30 250,-30 250,-24 256,-18 262,-18"/>
<text text-anchor="middle" x="299" y="-119" font-family="Arial" font-size="10.00" fill="#000000">uqbar.sphinx.inheritance</text>
</g>
<!-- builtins.object&#45;&gt;docutils.nodes.Body -->
<g id="edge3" class="edge">
<title>builtins.object&#45;&gt;docutils.nodes.Body</title>
<path fill="none" stroke="#778899" d="M52.913,-98.5284C61.1431,-102.7874 70.9907,-107.8833 79.9569,-112.5231"/>
<polygon fill="#778899" stroke="#778899" points="78.3869,-115.6515 88.8768,-117.139 81.6041,-109.4346 78.3869,-115.6515"/>
</g>
<!-- builtins.object&#45;&gt;docutils.nodes.Node -->
<g id="edge4" class="edge">
<title>builtins.object&#45;&gt;docutils.nodes.Node</title>
<path fill="none" stroke="#778899" d="M53.2858,-89C60.9661,-89 70.0063,-89 78.4108,-89"/>
<polygon fill="#778899" stroke="#778899" points="78.5663,-92.5001 88.5663,-89 78.5663,-85.5001 78.5663,-92.5001"/>
</g>
<!-- builtins.object&#45;&gt;docutils.parsers.rst.Directive -->
<g id="edge5" class="edge">
<title>builtins.object&#45;&gt;docutils.parsers.rst.Directive</title>
<path fill="none" stroke="#778899" d="M53.3447,-79.653C61.7387,-75.6018 71.7903,-70.903 81,-67 106.3446,-56.2593 135.561,-45.3465 157.3625,-37.4825"/>
<polygon fill="#778899" stroke="#778899" points="158.5833,-40.7631 166.817,-34.0955 156.2225,-34.1732 158.5833,-40.7631"/>
</g>
<!-- docutils.nodes.Body&#45;&gt;docutils.nodes.General -->
<g id="edge1" class="edge">
<title>docutils.nodes.Body&#45;&gt;docutils.nodes.General</title>
<path fill="none" stroke="#778899" d="M123.4049,-126C133.5144,-126 146.5594,-126 158.4207,-126"/>
<polygon fill="#778899" stroke="#778899" points="158.4361,-129.5001 168.4361,-126 158.4361,-122.5001 158.4361,-129.5001"/>
</g>
<!-- docutils.nodes.Element&#45;&gt;uqbar.sphinx.inheritance.inheritance_diagram -->
<g id="edge6" class="edge">
<title>docutils.nodes.Element&#45;&gt;uqbar.sphinx.inheritance.inheritance_diagram</title>
<path fill="none" stroke="#778899" d="M212.0578,-89C226.346,-89 245.3117,-89 261.8826,-89"/>
<polygon fill="#778899" stroke="#778899" points="262.3531,-92.5001 272.353,-89 262.353,-85.5001 262.3531,-92.5001"/>
</g>
<!-- docutils.nodes.General&#45;&gt;uqbar.sphinx.inheritance.inheritance_diagram -->
<g id="edge7" class="edge">
<title>docutils.nodes.General&#45;&gt;uqbar.sphinx.inheritance.inheritance_diagram</title>
<path fill="none" stroke="#778899" d="M211.5349,-118.69C226.1605,-113.7253 245.8596,-107.0385 262.86,-101.2677"/>
<polygon fill="#778899" stroke="#778899" points="264.1546,-104.5245 272.4989,-97.9958 261.9045,-97.8959 264.1546,-104.5245"/>
</g>
<!-- docutils.nodes.Node&#45;&gt;docutils.nodes.Element -->
<g id="edge2" class="edge">
<title>docutils.nodes.Node&#45;&gt;docutils.nodes.Element</title>
<path fill="none" stroke="#778899" d="M123.4049,-89C133.2651,-89 145.9178,-89 157.5412,-89"/>
<polygon fill="#778899" stroke="#778899" points="157.8167,-92.5001 167.8167,-89 157.8166,-85.5001 157.8167,-92.5001"/>
</g>
<!-- docutils.parsers.rst.Directive&#45;&gt;uqbar.sphinx.inheritance.InheritanceDiagram -->
<g id="edge8" class="edge">
<title>docutils.parsers.rst.Directive&#45;&gt;uqbar.sphinx.inheritance.InheritanceDiagram</title>
<path fill="none" stroke="#778899" d="M213.1161,-29.1811C227.1622,-31.1141 245.4272,-33.6276 261.5001,-35.8395"/>
<polygon fill="#778899" stroke="#778899" points="261.2955,-39.3442 271.6793,-37.2403 262.2499,-32.4096 261.2955,-39.3442"/>
</g>
<!-- builtins.object -->
<g id="node1" class="node">
<title>builtins.object</title>
<g id="a_node1"><a xlink:href="https://docs.python.org/3.6/library/functions.html#object" xlink:title="object" target="_top">
<path fill="#fbb4ae" stroke="#fbb4ae" stroke-width="2" d="M46.6667,-98.5C46.6667,-98.5 22.3333,-98.5 22.3333,-98.5 19.1667,-98.5 16,-95.3333 16,-92.1667 16,-92.1667 16,-85.8333 16,-85.8333 16,-82.6667 19.1667,-79.5 22.3333,-79.5 22.3333,-79.5 46.6667,-79.5 46.6667,-79.5 49.8333,-79.5 53,-82.6667 53,-85.8333 53,-85.8333 53,-92.1667 53,-92.1667 53,-95.3333 49.8333,-98.5 46.6667,-98.5"/>
<text text-anchor="middle" x="34.5" y="-86.5" font-family="Arial" font-size="10.00" fill="#000000">object</text>
</a>
</g>
</g>
<!-- docutils.nodes.Body -->
<g id="node2" class="node">
<title>docutils.nodes.Body</title>
<path fill="#b3cde3" stroke="#b3cde3" stroke-width="2" d="M116.6667,-135.5C116.6667,-135.5 95.3333,-135.5 95.3333,-135.5 92.1667,-135.5 89,-132.3333 89,-129.1667 89,-129.1667 89,-122.8333 89,-122.8333 89,-119.6667 92.1667,-116.5 95.3333,-116.5 95.3333,-116.5 116.6667,-116.5 116.6667,-116.5 119.8333,-116.5 123,-119.6667 123,-122.8333 123,-122.8333 123,-129.1667 123,-129.1667 123,-132.3333 119.8333,-135.5 116.6667,-135.5"/>
<text text-anchor="middle" x="106" y="-123.5" font-family="Arial" font-size="10.00" fill="#000000">Body</text>
</g>
<!-- docutils.nodes.Element -->
<g id="node3" class="node">
<title>docutils.nodes.Element</title>
<path fill="#b3cde3" stroke="#b3cde3" stroke-width="2" d="M205.6667,-98.5C205.6667,-98.5 174.3333,-98.5 174.3333,-98.5 171.1667,-98.5 168,-95.3333 168,-92.1667 168,-92.1667 168,-85.8333 168,-85.8333 168,-82.6667 171.1667,-79.5 174.3333,-79.5 174.3333,-79.5 205.6667,-79.5 205.6667,-79.5 208.8333,-79.5 212,-82.6667 212,-85.8333 212,-85.8333 212,-92.1667 212,-92.1667 212,-95.3333 208.8333,-98.5 205.6667,-98.5"/>
<text text-anchor="middle" x="190" y="-86.5" font-family="Arial" font-size="10.00" fill="#000000">Element</text>
</g>
<!-- docutils.nodes.General -->
<g id="node4" class="node">
<title>docutils.nodes.General</title>
<path fill="#b3cde3" stroke="#b3cde3" stroke-width="2" d="M205.1667,-135.5C205.1667,-135.5 174.8333,-135.5 174.8333,-135.5 171.6667,-135.5 168.5,-132.3333 168.5,-129.1667 168.5,-129.1667 168.5,-122.8333 168.5,-122.8333 168.5,-119.6667 171.6667,-116.5 174.8333,-116.5 174.8333,-116.5 205.1667,-116.5 205.1667,-116.5 208.3333,-116.5 211.5,-119.6667 211.5,-122.8333 211.5,-122.8333 211.5,-129.1667 211.5,-129.1667 211.5,-132.3333 208.3333,-135.5 205.1667,-135.5"/>
<text text-anchor="middle" x="190" y="-123.5" font-family="Arial" font-size="10.00" fill="#000000">General</text>
</g>
<!-- docutils.nodes.Node -->
<g id="node5" class="node">
<title>docutils.nodes.Node</title>
<path fill="#b3cde3" stroke="#b3cde3" stroke-width="2" d="M116.6667,-98.5C116.6667,-98.5 95.3333,-98.5 95.3333,-98.5 92.1667,-98.5 89,-95.3333 89,-92.1667 89,-92.1667 89,-85.8333 89,-85.8333 89,-82.6667 92.1667,-79.5 95.3333,-79.5 95.3333,-79.5 116.6667,-79.5 116.6667,-79.5 119.8333,-79.5 123,-82.6667 123,-85.8333 123,-85.8333 123,-92.1667 123,-92.1667 123,-95.3333 119.8333,-98.5 116.6667,-98.5"/>
<text text-anchor="middle" x="106" y="-86.5" font-family="Arial" font-size="10.00" fill="#000000">Node</text>
</g>
<!-- docutils.parsers.rst.Directive -->
<g id="node6" class="node">
<title>docutils.parsers.rst.Directive</title>
<g id="a_node6"><a xlink:href="http://www.sphinx-doc.org/en/master/extdev/markupapi.html#docutils.parsers.rst.Directive" xlink:title="Directive" target="_top">
<path fill="#ccebc5" stroke="#ccebc5" stroke-width="2" d="M206.6667,-35.5C206.6667,-35.5 173.3333,-35.5 173.3333,-35.5 170.1667,-35.5 167,-32.3333 167,-29.1667 167,-29.1667 167,-22.8333 167,-22.8333 167,-19.6667 170.1667,-16.5 173.3333,-16.5 173.3333,-16.5 206.6667,-16.5 206.6667,-16.5 209.8333,-16.5 213,-19.6667 213,-22.8333 213,-22.8333 213,-29.1667 213,-29.1667 213,-32.3333 209.8333,-35.5 206.6667,-35.5"/>
<text text-anchor="middle" x="190" y="-23.5" font-family="Arial" font-size="10.00" fill="#000000">Directive</text>
</a>
</g>
</g>
<!-- uqbar.sphinx.inheritance.InheritanceDiagram -->
<g id="node7" class="node">
<title>uqbar.sphinx.inheritance.InheritanceDiagram</title>
<g id="a_node7"><a xlink:href="../api/uqbar/sphinx/inheritance.html#uqbar.sphinx.inheritance.InheritanceDiagram" xlink:title="Inheritance\nDiagram" target="_top">
<path fill="#000000" stroke="#000000" stroke-width="2" d="M316,-56C316,-56 282,-56 282,-56 277,-56 272,-51 272,-46 272,-46 272,-36 272,-36 272,-31 277,-26 282,-26 282,-26 316,-26 316,-26 321,-26 326,-31 326,-36 326,-36 326,-46 326,-46 326,-51 321,-56 316,-56"/>
<text text-anchor="middle" x="299" y="-44" font-family="Arial" font-size="10.00" fill="#ffffff">Inheritance</text>
<text text-anchor="middle" x="299" y="-33" font-family="Arial" font-size="10.00" fill="#ffffff">Diagram</text>
</a>
</g>
</g>
<!-- uqbar.sphinx.inheritance.inheritance_diagram -->
<g id="node8" class="node">
<title>uqbar.sphinx.inheritance.inheritance_diagram</title>
<g id="a_node8"><a xlink:href="../api/uqbar/sphinx/inheritance.html#uqbar.sphinx.inheritance.inheritance_diagram" xlink:title="inheritance\ndiagram" target="_top">
<path fill="#000000" stroke="#000000" stroke-width="2" d="M315.5,-104C315.5,-104 282.5,-104 282.5,-104 277.5,-104 272.5,-99 272.5,-94 272.5,-94 272.5,-84 272.5,-84 272.5,-79 277.5,-74 282.5,-74 282.5,-74 315.5,-74 315.5,-74 320.5,-74 325.5,-79 325.5,-84 325.5,-84 325.5,-94 325.5,-94 325.5,-99 320.5,-104 315.5,-104"/>
<text text-anchor="middle" x="299" y="-92" font-family="Arial" font-size="10.00" fill="#ffffff">inheritance</text>
<text text-anchor="middle" x="299" y="-81" font-family="Arial" font-size="10.00" fill="#ffffff">diagram</text>
</a>
</g>
</g>
</g>
</svg>
