<?xml version="1.0" encoding="UTF-8" standalone="no"?>
<!DOCTYPE svg PUBLIC "-//W3C//DTD SVG 1.1//EN"
 "http://www.w3.org/Graphics/SVG/1.1/DTD/svg11.dtd">
<!-- Generated by graphviz version 2.44.1 (20200629.0846)
 -->
<!-- Title: InheritanceGraph Pages: 1 -->
<svg width="324pt" height="101pt"
 viewBox="0.00 0.00 323.99 101.00" xmlns="http://www.w3.org/2000/svg" xmlns:xlink="http://www.w3.org/1999/xlink">
<g id="graph0" class="graph" transform="scale(1 1) rotate(0) translate(4 97)">
<title>InheritanceGraph</title>
<g id="clust1" class="cluster">
<title>cluster_builtins</title>
<path fill="transparent" stroke="#bcd2ee" stroke-width="2" stroke-dasharray="5,2" d="M20,-19C20,-19 55,-19 55,-19 61,-19 67,-25 67,-31 67,-31 67,-62 67,-62 67,-68 61,-74 55,-74 55,-74 20,-74 20,-74 14,-74 8,-68 8,-62 8,-62 8,-31 8,-31 8,-25 14,-19 20,-19"/>
<text text-anchor="middle" x="37.5" y="-62" font-family="Arial" font-size="10.00">builtins</text>
</g>
<g id="clust2" class="cluster">
<title>cluster_uqbar.apis</title>
<path fill="transparent" stroke="#bcd2ee" stroke-width="2" stroke-dasharray="5,2" d="M99,-8C99,-8 295.99,-8 295.99,-8 301.99,-8 307.99,-14 307.99,-20 307.99,-20 307.99,-73 307.99,-73 307.99,-79 301.99,-85 295.99,-85 295.99,-85 99,-85 99,-85 93,-85 87,-79 87,-73 87,-73 87,-20 87,-20 87,-14 93,-8 99,-8"/>
<text text-anchor="middle" x="197.5" y="-73" font-family="Arial" font-size="10.00">uqbar.apis</text>
</g>
<!-- builtins.object&#45;&gt;uqbar.apis.MemberDocumenter.MemberDocumenter -->
<g id="edge2" class="edge">
<title>builtins.object&#45;&gt;uqbar.apis.MemberDocumenter.MemberDocumenter</title>
<path fill="none" stroke="lightslategrey" d="M59.24,-37C66.79,-37 75.75,-37 84.95,-37"/>
<polygon fill="lightslategrey" stroke="lightslategrey" points="84.98,-40.5 94.98,-37 84.98,-33.5 84.98,-40.5"/>
</g>
<!-- uqbar.apis.MemberDocumenter.MemberDocumenter&#45;&gt;uqbar.apis.FunctionDocumenter.FunctionDocumenter -->
<g id="edge1" class="edge">
<title>uqbar.apis.MemberDocumenter.MemberDocumenter&#45;&gt;uqbar.apis.FunctionDocumenter.FunctionDocumenter</title>
<path fill="none" stroke="lightslategrey" d="M194.04,-37C202.49,-37 211.24,-37 219.57,-37"/>
<polygon fill="lightslategrey" stroke="lightslategrey" points="219.84,-40.5 229.84,-37 219.84,-33.5 219.84,-40.5"/>
</g>
<!-- builtins.object -->
<g id="node1" class="node">
<title>builtins.object</title>
<g id="a_node1"><a xlink:href="https://docs.python.org/3.6/library/functions.html#object" xlink:title="object" target="_top">
<path fill="#fbb4ae" stroke="#fbb4ae" stroke-width="2" d="M52.67,-46.5C52.67,-46.5 22.33,-46.5 22.33,-46.5 19.17,-46.5 16,-43.33 16,-40.17 16,-40.17 16,-33.83 16,-33.83 16,-30.67 19.17,-27.5 22.33,-27.5 22.33,-27.5 52.67,-27.5 52.67,-27.5 55.83,-27.5 59,-30.67 59,-33.83 59,-33.83 59,-40.17 59,-40.17 59,-43.33 55.83,-46.5 52.67,-46.5"/>
<text text-anchor="middle" x="37.5" y="-34.5" font-family="Arial" font-size="10.00">object</text>
</a>
</g>
</g>
<!-- uqbar.apis.FunctionDocumenter.FunctionDocumenter -->
<g id="node2" class="node">
<title>uqbar.apis.FunctionDocumenter.FunctionDocumenter</title>
<g id="a_node2"><a xlink:href="../api/uqbar/apis/FunctionDocumenter.html#uqbar.apis.FunctionDocumenter.FunctionDocumenter" xlink:title="Function\nDocumenter" target="_top">
<path fill="black" stroke="black" stroke-width="2" d="M289.99,-52C289.99,-52 239.99,-52 239.99,-52 234.99,-52 229.99,-47 229.99,-42 229.99,-42 229.99,-32 229.99,-32 229.99,-27 234.99,-22 239.99,-22 239.99,-22 289.99,-22 289.99,-22 294.99,-22 299.99,-27 299.99,-32 299.99,-32 299.99,-42 299.99,-42 299.99,-47 294.99,-52 289.99,-52"/>
<text text-anchor="middle" x="264.99" y="-40" font-family="Arial" font-size="10.00" fill="white">Function</text>
<text text-anchor="middle" x="264.99" y="-29" font-family="Arial" font-size="10.00" fill="white">Documenter</text>
</a>
</g>
</g>
<!-- uqbar.apis.MemberDocumenter.MemberDocumenter -->
<g id="node3" class="node">
<title>uqbar.apis.MemberDocumenter.MemberDocumenter</title>
<g id="a_node3"><a xlink:href="../api/uqbar/apis/MemberDocumenter.html#uqbar.apis.MemberDocumenter.MemberDocumenter" xlink:title="Member\nDocumenter" target="_top">
<ellipse fill="none" stroke="#b3cde3" stroke-width="2" cx="144.5" cy="-37" rx="49.49" ry="21.43"/>
<text text-anchor="middle" x="144.5" y="-40" font-family="Arial" font-size="10.00">Member</text>
<text text-anchor="middle" x="144.5" y="-29" font-family="Arial" font-size="10.00">Documenter</text>
</a>
</g>
</g>
</g>
</svg>
