<?xml version="1.0" encoding="UTF-8" standalone="no"?>
<!DOCTYPE svg PUBLIC "-//W3C//DTD SVG 1.1//EN"
 "http://www.w3.org/Graphics/SVG/1.1/DTD/svg11.dtd">
<!-- Generated by graphviz version 2.44.1 (20200629.0846)
 -->
<!-- Title: InheritanceGraph Pages: 1 -->
<svg width="387pt" height="85pt"
 viewBox="0.00 0.00 387.39 85.00" xmlns="http://www.w3.org/2000/svg" xmlns:xlink="http://www.w3.org/1999/xlink">
<g id="graph0" class="graph" transform="scale(1 1) rotate(0) translate(4 81)">
<title>InheritanceGraph</title>
<g id="clust1" class="cluster">
<title>cluster_abc</title>
<path fill="transparent" stroke="#bcd2ee" stroke-width="2" stroke-dasharray="5,2" d="M99,-11C99,-11 129,-11 129,-11 135,-11 141,-17 141,-23 141,-23 141,-54 141,-54 141,-60 135,-66 129,-66 129,-66 99,-66 99,-66 93,-66 87,-60 87,-54 87,-54 87,-23 87,-23 87,-17 93,-11 99,-11"/>
<text text-anchor="middle" x="114" y="-54" font-family="Arial" font-size="10.00">abc</text>
</g>
<g id="clust2" class="cluster">
<title>cluster_builtins</title>
<path fill="transparent" stroke="#bcd2ee" stroke-width="2" stroke-dasharray="5,2" d="M20,-11C20,-11 55,-11 55,-11 61,-11 67,-17 67,-23 67,-23 67,-54 67,-54 67,-60 61,-66 55,-66 55,-66 20,-66 20,-66 14,-66 8,-60 8,-54 8,-54 8,-23 8,-23 8,-17 14,-11 20,-11"/>
<text text-anchor="middle" x="37.5" y="-54" font-family="Arial" font-size="10.00">builtins</text>
</g>
<g id="clust3" class="cluster">
<title>cluster_uqbar.cli</title>
<path fill="transparent" stroke="#bcd2ee" stroke-width="2" stroke-dasharray="5,2" d="M173,-8C173,-8 359.39,-8 359.39,-8 365.39,-8 371.39,-14 371.39,-20 371.39,-20 371.39,-57 371.39,-57 371.39,-63 365.39,-69 359.39,-69 359.39,-69 173,-69 173,-69 167,-69 161,-63 161,-57 161,-57 161,-20 161,-20 161,-14 167,-8 173,-8"/>
<text text-anchor="middle" x="266.2" y="-57" font-family="Arial" font-size="10.00">uqbar.cli</text>
</g>
<!-- abc.ABC&#45;&gt;uqbar.cli.CLI.CLI -->
<g id="edge2" class="edge">
<title>abc.ABC&#45;&gt;uqbar.cli.CLI.CLI</title>
<path fill="none" stroke="lightslategrey" d="M133.31,-29C140.95,-29 150.06,-29 158.75,-29"/>
<polygon fill="lightslategrey" stroke="lightslategrey" points="159,-32.5 169,-29 159,-25.5 159,-32.5"/>
</g>
<!-- builtins.object&#45;&gt;abc.ABC -->
<g id="edge3" class="edge">
<title>builtins.object&#45;&gt;abc.ABC</title>
<path fill="none" stroke="lightslategrey" d="M59.25,-29C67.12,-29 76.23,-29 84.68,-29"/>
<polygon fill="lightslategrey" stroke="lightslategrey" points="84.89,-32.5 94.89,-29 84.89,-25.5 84.89,-32.5"/>
</g>
<!-- uqbar.cli.CLI.CLI&#45;&gt;uqbar.cli.CLIAggregator.CLIAggregator -->
<g id="edge1" class="edge">
<title>uqbar.cli.CLI.CLI&#45;&gt;uqbar.cli.CLIAggregator.CLIAggregator</title>
<path fill="none" stroke="lightslategrey" d="M214.45,-29C222,-29 230.9,-29 240.13,-29"/>
<polygon fill="lightslategrey" stroke="lightslategrey" points="240.22,-32.5 250.22,-29 240.22,-25.5 240.22,-32.5"/>
</g>
<!-- abc.ABC -->
<g id="node1" class="node">
<title>abc.ABC</title>
<g id="a_node1"><a xlink:href="https://docs.python.org/3.6/library/abc.html#abc.ABC" xlink:title="ABC" target="_top">
<path fill="#fbb4ae" stroke="#fbb4ae" stroke-width="2" d="M126.67,-38.5C126.67,-38.5 101.33,-38.5 101.33,-38.5 98.17,-38.5 95,-35.33 95,-32.17 95,-32.17 95,-25.83 95,-25.83 95,-22.67 98.17,-19.5 101.33,-19.5 101.33,-19.5 126.67,-19.5 126.67,-19.5 129.83,-19.5 133,-22.67 133,-25.83 133,-25.83 133,-32.17 133,-32.17 133,-35.33 129.83,-38.5 126.67,-38.5"/>
<text text-anchor="middle" x="114" y="-26.5" font-family="Arial" font-size="10.00">ABC</text>
</a>
</g>
</g>
<!-- builtins.object -->
<g id="node2" class="node">
<title>builtins.object</title>
<g id="a_node2"><a xlink:href="https://docs.python.org/3.6/library/functions.html#object" xlink:title="object" target="_top">
<path fill="#b3cde3" stroke="#b3cde3" stroke-width="2" d="M52.67,-38.5C52.67,-38.5 22.33,-38.5 22.33,-38.5 19.17,-38.5 16,-35.33 16,-32.17 16,-32.17 16,-25.83 16,-25.83 16,-22.67 19.17,-19.5 22.33,-19.5 22.33,-19.5 52.67,-19.5 52.67,-19.5 55.83,-19.5 59,-22.67 59,-25.83 59,-25.83 59,-32.17 59,-32.17 59,-35.33 55.83,-38.5 52.67,-38.5"/>
<text text-anchor="middle" x="37.5" y="-26.5" font-family="Arial" font-size="10.00">object</text>
</a>
</g>
</g>
<!-- uqbar.cli.CLI.CLI -->
<g id="node3" class="node">
<title>uqbar.cli.CLI.CLI</title>
<g id="a_node3"><a xlink:href="../api/uqbar/cli/CLI.html#uqbar.cli.CLI.CLI" xlink:title="CLI" target="_top">
<ellipse fill="black" stroke="black" stroke-width="2" cx="191.63" cy="-29" rx="22.76" ry="13.37"/>
<text text-anchor="middle" x="191.63" y="-26.5" font-family="Arial" font-size="10.00" fill="white">CLI</text>
</a>
</g>
</g>
<!-- uqbar.cli.CLIAggregator.CLIAggregator -->
<g id="node4" class="node">
<title>uqbar.cli.CLIAggregator.CLIAggregator</title>
<g id="a_node4"><a xlink:href="../api/uqbar/cli/CLIAggregator.html#uqbar.cli.CLIAggregator.CLIAggregator" xlink:title="CLIAggregator" target="_top">
<ellipse fill="black" stroke="black" stroke-width="2" cx="306.82" cy="-29" rx="56.64" ry="13.37"/>
<text text-anchor="middle" x="306.82" y="-26.5" font-family="Arial" font-size="10.00" fill="white">CLIAggregator</text>
</a>
</g>
</g>
</g>
</svg>
