<?xml version="1.0" encoding="UTF-8" standalone="no"?>
<!DOCTYPE svg PUBLIC "-//W3C//DTD SVG 1.1//EN"
 "http://www.w3.org/Graphics/SVG/1.1/DTD/svg11.dtd">
<!-- Generated by graphviz version 2.40.1 (20161225.0304)
 -->
<!-- Title: InheritanceGraph Pages: 1 -->
<svg width="314pt" height="101pt"
 viewBox="0.00 0.00 314.00 101.00" xmlns="http://www.w3.org/2000/svg" xmlns:xlink="http://www.w3.org/1999/xlink">
<g id="graph0" class="graph" transform="scale(1 1) rotate(0) translate(4 97)">
<title>InheritanceGraph</title>
<g id="clust1" class="cluster">
<title>cluster_builtins</title>
<path fill="transparent" stroke="#bcd2ee" stroke-width="2" stroke-dasharray="5,2" d="M20,-19C20,-19 49,-19 49,-19 55,-19 61,-25 61,-31 61,-31 61,-62 61,-62 61,-68 55,-74 49,-74 49,-74 20,-74 20,-74 14,-74 8,-68 8,-62 8,-62 8,-31 8,-31 8,-25 14,-19 20,-19"/>
<text text-anchor="middle" x="34.5" y="-62" font-family="Arial" font-size="10.00" fill="#000000">builtins</text>
</g>
<g id="clust2" class="cluster">
<title>cluster_uqbar.containers</title>
<path fill="transparent" stroke="#bcd2ee" stroke-width="2" stroke-dasharray="5,2" d="M93,-8C93,-8 210,-8 210,-8 216,-8 222,-14 222,-20 222,-20 222,-73 222,-73 222,-79 216,-85 210,-85 210,-85 93,-85 93,-85 87,-85 81,-79 81,-73 81,-73 81,-20 81,-20 81,-14 87,-8 93,-8"/>
<text text-anchor="middle" x="151.5" y="-73" font-family="Arial" font-size="10.00" fill="#000000">uqbar.containers</text>
</g>
<g id="clust3" class="cluster">
<title>cluster_uqbar.graphs</title>
<path fill="transparent" stroke="#bcd2ee" stroke-width="2" stroke-dasharray="5,2" d="M254,-14C254,-14 291,-14 291,-14 297,-14 303,-20 303,-26 303,-26 303,-67 303,-67 303,-73 297,-79 291,-79 291,-79 254,-79 254,-79 248,-79 242,-73 242,-67 242,-67 242,-26 242,-26 242,-20 248,-14 254,-14"/>
<text text-anchor="middle" x="272.5" y="-67" font-family="Arial" font-size="10.00" fill="#000000">uqbar.graphs</text>
</g>
<!-- builtins.object&#45;&gt;uqbar.containers.UniqueTreeNode.UniqueTreeNode -->
<g id="edge2" class="edge">
<title>builtins.object&#45;&gt;uqbar.containers.UniqueTreeNode.UniqueTreeNode</title>
<path fill="none" stroke="#778899" d="M53.2995,-37C61.0221,-37 70.1602,-37 78.7776,-37"/>
<polygon fill="#778899" stroke="#778899" points="78.9006,-40.5001 88.9006,-37 78.9005,-33.5001 78.9006,-40.5001"/>
</g>
<!-- uqbar.containers.UniqueTreeContainer.UniqueTreeContainer&#45;&gt;uqbar.graphs.TableRow.TableRow -->
<g id="edge3" class="edge">
<title>uqbar.containers.UniqueTreeContainer.UniqueTreeContainer&#45;&gt;uqbar.graphs.TableRow.TableRow</title>
<path fill="none" stroke="#778899" d="M214.4027,-37C224.011,-37 235.0404,-37 244.8898,-37"/>
<polygon fill="#778899" stroke="#778899" points="244.9914,-40.5001 254.9913,-37 244.9913,-33.5001 244.9914,-40.5001"/>
</g>
<!-- uqbar.containers.UniqueTreeNode.UniqueTreeNode&#45;&gt;uqbar.containers.UniqueTreeContainer.UniqueTreeContainer -->
<g id="edge1" class="edge">
<title>uqbar.containers.UniqueTreeNode.UniqueTreeNode&#45;&gt;uqbar.containers.UniqueTreeContainer.UniqueTreeContainer</title>
<path fill="none" stroke="#778899" d="M129.3135,-37C136.9959,-37 145.9745,-37 154.617,-37"/>
<polygon fill="#778899" stroke="#778899" points="154.8826,-40.5001 164.8825,-37 154.8825,-33.5001 154.8826,-40.5001"/>
</g>
<!-- builtins.object -->
<g id="node1" class="node">
<title>builtins.object</title>
<g id="a_node1"><a xlink:href="https://docs.python.org/3.6/library/functions.html#object" xlink:title="object" target="_top">
<path fill="#fbb4ae" stroke="#fbb4ae" stroke-width="2" d="M46.6667,-46.5C46.6667,-46.5 22.3333,-46.5 22.3333,-46.5 19.1667,-46.5 16,-43.3333 16,-40.1667 16,-40.1667 16,-33.8333 16,-33.8333 16,-30.6667 19.1667,-27.5 22.3333,-27.5 22.3333,-27.5 46.6667,-27.5 46.6667,-27.5 49.8333,-27.5 53,-30.6667 53,-33.8333 53,-33.8333 53,-40.1667 53,-40.1667 53,-43.3333 49.8333,-46.5 46.6667,-46.5"/>
<text text-anchor="middle" x="34.5" y="-34.5" font-family="Arial" font-size="10.00" fill="#000000">object</text>
</a>
</g>
</g>
<!-- uqbar.containers.UniqueTreeContainer.UniqueTreeContainer -->
<g id="node2" class="node">
<title>uqbar.containers.UniqueTreeContainer.UniqueTreeContainer</title>
<g id="a_node2"><a xlink:href="../api/uqbar/graphs/../containers/UniqueTreeContainer.html#uqbar.containers.UniqueTreeContainer.UniqueTreeContainer" xlink:title="Unique\nTree\nContainer" target="_top">
<path fill="#b3cde3" stroke="#b3cde3" stroke-width="2" d="M202,-57.5C202,-57.5 177,-57.5 177,-57.5 171,-57.5 165,-51.5 165,-45.5 165,-45.5 165,-28.5 165,-28.5 165,-22.5 171,-16.5 177,-16.5 177,-16.5 202,-16.5 202,-16.5 208,-16.5 214,-22.5 214,-28.5 214,-28.5 214,-45.5 214,-45.5 214,-51.5 208,-57.5 202,-57.5"/>
<text text-anchor="middle" x="189.5" y="-45.5" font-family="Arial" font-size="10.00" fill="#000000">Unique</text>
<text text-anchor="middle" x="189.5" y="-34.5" font-family="Arial" font-size="10.00" fill="#000000">Tree</text>
<text text-anchor="middle" x="189.5" y="-23.5" font-family="Arial" font-size="10.00" fill="#000000">Container</text>
</a>
</g>
</g>
<!-- uqbar.containers.UniqueTreeNode.UniqueTreeNode -->
<g id="node3" class="node">
<title>uqbar.containers.UniqueTreeNode.UniqueTreeNode</title>
<g id="a_node3"><a xlink:href="../api/uqbar/graphs/../containers/UniqueTreeNode.html#uqbar.containers.UniqueTreeNode.UniqueTreeNode" xlink:title="Unique\nTree\nNode" target="_top">
<path fill="#b3cde3" stroke="#b3cde3" stroke-width="2" d="M117,-57.5C117,-57.5 101,-57.5 101,-57.5 95,-57.5 89,-51.5 89,-45.5 89,-45.5 89,-28.5 89,-28.5 89,-22.5 95,-16.5 101,-16.5 101,-16.5 117,-16.5 117,-16.5 123,-16.5 129,-22.5 129,-28.5 129,-28.5 129,-45.5 129,-45.5 129,-51.5 123,-57.5 117,-57.5"/>
<text text-anchor="middle" x="109" y="-45.5" font-family="Arial" font-size="10.00" fill="#000000">Unique</text>
<text text-anchor="middle" x="109" y="-34.5" font-family="Arial" font-size="10.00" fill="#000000">Tree</text>
<text text-anchor="middle" x="109" y="-23.5" font-family="Arial" font-size="10.00" fill="#000000">Node</text>
</a>
</g>
</g>
<!-- uqbar.graphs.TableRow.TableRow -->
<g id="node4" class="node">
<title>uqbar.graphs.TableRow.TableRow</title>
<g id="a_node4"><a xlink:href="../api/uqbar/graphs/TableRow.html#uqbar.graphs.TableRow.TableRow" xlink:title="Table\nRow" target="_top">
<path fill="#000000" stroke="#000000" stroke-width="2" d="M280,-52C280,-52 265,-52 265,-52 260,-52 255,-47 255,-42 255,-42 255,-32 255,-32 255,-27 260,-22 265,-22 265,-22 280,-22 280,-22 285,-22 290,-27 290,-32 290,-32 290,-42 290,-42 290,-47 285,-52 280,-52"/>
<text text-anchor="middle" x="272.5" y="-40" font-family="Arial" font-size="10.00" fill="#ffffff">Table</text>
<text text-anchor="middle" x="272.5" y="-29" font-family="Arial" font-size="10.00" fill="#ffffff">Row</text>
</a>
</g>
</g>
</g>
</svg>
