<?xml version="1.0" encoding="UTF-8" standalone="no"?>
<!DOCTYPE svg PUBLIC "-//W3C//DTD SVG 1.1//EN"
 "http://www.w3.org/Graphics/SVG/1.1/DTD/svg11.dtd">
<!-- Generated by graphviz version 2.44.1 (20200629.0846)
 -->
<!-- Title: InheritanceGraph Pages: 1 -->
<svg width="777pt" height="467pt"
 viewBox="0.00 0.00 776.99 467.00" xmlns="http://www.w3.org/2000/svg" xmlns:xlink="http://www.w3.org/1999/xlink">
<g id="graph0" class="graph" transform="scale(1 1) rotate(0) translate(4 463)">
<title>InheritanceGraph</title>
<g id="clust1" class="cluster">
<title>cluster_builtins</title>
<path fill="transparent" stroke="#bcd2ee" stroke-width="2" stroke-dasharray="5,2" d="M20,-169C20,-169 55,-169 55,-169 61,-169 67,-175 67,-181 67,-181 67,-212 67,-212 67,-218 61,-224 55,-224 55,-224 20,-224 20,-224 14,-224 8,-218 8,-212 8,-212 8,-181 8,-181 8,-175 14,-169 20,-169"/>
<text text-anchor="middle" x="37.5" y="-212" font-family="Arial" font-size="10.00">builtins</text>
</g>
<g id="clust2" class="cluster">
<title>cluster_uqbar.apis</title>
<path fill="transparent" stroke="#bcd2ee" stroke-width="2" stroke-dasharray="5,2" d="M438,-8C438,-8 748.99,-8 748.99,-8 754.99,-8 760.99,-14 760.99,-20 760.99,-20 760.99,-351 760.99,-351 760.99,-357 754.99,-363 748.99,-363 748.99,-363 438,-363 438,-363 432,-363 426,-357 426,-351 426,-351 426,-20 426,-20 426,-14 432,-8 438,-8"/>
<text text-anchor="middle" x="593.5" y="-351" font-family="Arial" font-size="10.00">uqbar.apis</text>
</g>
<g id="clust3" class="cluster">
<title>cluster_uqbar.apis.dummy</title>
<path fill="transparent" stroke="#bcd2ee" stroke-width="2" stroke-dasharray="5,2" d="M100,-374C100,-374 216,-374 216,-374 222,-374 228,-380 228,-386 228,-386 228,-439 228,-439 228,-445 222,-451 216,-451 216,-451 100,-451 100,-451 94,-451 88,-445 88,-439 88,-439 88,-386 88,-386 88,-380 94,-374 100,-374"/>
<text text-anchor="middle" x="158" y="-439" font-family="Arial" font-size="10.00">uqbar.apis.dummy</text>
</g>
<g id="clust4" class="cluster">
<title>cluster_uqbar.containers</title>
<path fill="transparent" stroke="#bcd2ee" stroke-width="2" stroke-dasharray="5,2" d="M99,-289C99,-289 394,-289 394,-289 400,-289 406,-295 406,-301 406,-301 406,-354 406,-354 406,-360 400,-366 394,-366 394,-366 99,-366 99,-366 93,-366 87,-360 87,-354 87,-354 87,-301 87,-301 87,-295 93,-289 99,-289"/>
<text text-anchor="middle" x="246.5" y="-354" font-family="Arial" font-size="10.00">uqbar.containers</text>
</g>
<!-- builtins.object&#45;&gt;uqbar.apis.APIBuilder.APIBuilder -->
<g id="edge9" class="edge">
<title>builtins.object&#45;&gt;uqbar.apis.APIBuilder.APIBuilder</title>
<path fill="none" stroke="lightslategrey" d="M59.24,-195.68C89.28,-207.44 146.9,-227 198,-227 198,-227 198,-227 286.5,-227 340.23,-227 402.24,-228.14 441.88,-229.02"/>
<polygon fill="lightslategrey" stroke="lightslategrey" points="441.87,-232.52 451.95,-229.24 442.03,-225.52 441.87,-232.52"/>
</g>
<!-- builtins.object&#45;&gt;uqbar.apis.InheritanceGraph.InheritanceGraph -->
<g id="edge10" class="edge">
<title>builtins.object&#45;&gt;uqbar.apis.InheritanceGraph.InheritanceGraph</title>
<path fill="none" stroke="lightslategrey" d="M59.15,-187C89.55,-187 148.16,-187 198,-187 198,-187 198,-187 286.5,-187 339.76,-187 401.16,-187 440.83,-187"/>
<polygon fill="lightslategrey" stroke="lightslategrey" points="440.93,-190.5 450.93,-187 440.93,-183.5 440.93,-190.5"/>
</g>
<!-- builtins.object&#45;&gt;uqbar.apis.MemberDocumenter.MemberDocumenter -->
<g id="edge11" class="edge">
<title>builtins.object&#45;&gt;uqbar.apis.MemberDocumenter.MemberDocumenter</title>
<path fill="none" stroke="lightslategrey" d="M58.12,-177.47C87.7,-164 145.84,-141 198,-141 198,-141 198,-141 286.5,-141 332.77,-141 385.13,-138.75 424.08,-136.63"/>
<polygon fill="lightslategrey" stroke="lightslategrey" points="424.4,-140.12 434.19,-136.07 424.01,-133.13 424.4,-140.12"/>
</g>
<!-- builtins.object&#45;&gt;uqbar.apis.ModuleDocumenter.ModuleDocumenter -->
<g id="edge12" class="edge">
<title>builtins.object&#45;&gt;uqbar.apis.ModuleDocumenter.ModuleDocumenter</title>
<path fill="none" stroke="lightslategrey" d="M46.76,-177.44C68.71,-153.16 131.42,-91 198,-91 198,-91 198,-91 286.5,-91 338.61,-91 398.36,-86.72 438.05,-83.28"/>
<polygon fill="lightslategrey" stroke="lightslategrey" points="438.54,-86.75 448.19,-82.37 437.92,-79.77 438.54,-86.75"/>
</g>
<!-- builtins.object&#45;&gt;uqbar.apis.RootDocumenter.RootDocumenter -->
<g id="edge13" class="edge">
<title>builtins.object&#45;&gt;uqbar.apis.RootDocumenter.RootDocumenter</title>
<path fill="none" stroke="lightslategrey" d="M41.62,-177.38C47.73,-159.86 62.84,-122.52 87,-100 126.85,-62.86 143.52,-48 198,-48 198,-48 198,-48 286.5,-48 338.7,-48 398.44,-41.94 438.1,-37.06"/>
<polygon fill="lightslategrey" stroke="lightslategrey" points="438.75,-40.5 448.23,-35.78 437.87,-33.56 438.75,-40.5"/>
</g>
<!-- builtins.object&#45;&gt;uqbar.apis.dummy.MyParentClass -->
<g id="edge14" class="edge">
<title>builtins.object&#45;&gt;uqbar.apis.dummy.MyParentClass</title>
<path fill="none" stroke="lightslategrey" d="M39.41,-196.74C42.42,-225.12 53.75,-309.51 87,-370 87.83,-371.5 88.74,-372.99 89.71,-374.46"/>
<polygon fill="lightslategrey" stroke="lightslategrey" points="87,-376.68 95.82,-382.54 92.58,-372.45 87,-376.68"/>
</g>
<!-- builtins.object&#45;&gt;uqbar.containers.UniqueTreeNode.UniqueTreeNode -->
<g id="edge15" class="edge">
<title>builtins.object&#45;&gt;uqbar.containers.UniqueTreeNode.UniqueTreeNode</title>
<path fill="none" stroke="lightslategrey" d="M44.44,-196.85C56.08,-216.15 82.3,-259.64 99.96,-288.91"/>
<polygon fill="lightslategrey" stroke="lightslategrey" points="96.97,-290.74 105.13,-297.49 102.97,-287.12 96.97,-290.74"/>
</g>
<!-- uqbar.apis.ClassDocumenter.ClassDocumenter&#45;&gt;uqbar.apis.SummarizingClassDocumenter.SummarizingClassDocumenter -->
<g id="edge1" class="edge">
<title>uqbar.apis.ClassDocumenter.ClassDocumenter&#45;&gt;uqbar.apis.SummarizingClassDocumenter.SummarizingClassDocumenter</title>
<path fill="none" stroke="lightslategrey" d="M641.17,-148.42C649.88,-148.01 659.39,-147.57 668.6,-147.15"/>
<polygon fill="lightslategrey" stroke="lightslategrey" points="668.98,-150.63 678.81,-146.68 668.66,-143.64 668.98,-150.63"/>
</g>
<!-- uqbar.apis.MemberDocumenter.MemberDocumenter&#45;&gt;uqbar.apis.ClassDocumenter.ClassDocumenter -->
<g id="edge2" class="edge">
<title>uqbar.apis.MemberDocumenter.MemberDocumenter&#45;&gt;uqbar.apis.ClassDocumenter.ClassDocumenter</title>
<path fill="none" stroke="lightslategrey" d="M530.74,-139.52C540.59,-140.91 550.97,-142.38 560.75,-143.76"/>
<polygon fill="lightslategrey" stroke="lightslategrey" points="560.28,-147.23 570.67,-145.16 561.25,-140.29 560.28,-147.23"/>
</g>
<!-- uqbar.apis.MemberDocumenter.MemberDocumenter&#45;&gt;uqbar.apis.FunctionDocumenter.FunctionDocumenter -->
<g id="edge3" class="edge">
<title>uqbar.apis.MemberDocumenter.MemberDocumenter&#45;&gt;uqbar.apis.FunctionDocumenter.FunctionDocumenter</title>
<path fill="none" stroke="lightslategrey" d="M514.15,-149.94C529.98,-158.32 550.05,-167.92 568.99,-174 602.29,-184.69 641.4,-191.08 670.76,-194.72"/>
<polygon fill="lightslategrey" stroke="lightslategrey" points="670.37,-198.19 680.71,-195.89 671.19,-191.24 670.37,-198.19"/>
</g>
<!-- uqbar.apis.ModuleDocumenter.ModuleDocumenter&#45;&gt;uqbar.apis.SummarizingModuleDocumenter.SummarizingModuleDocumenter -->
<g id="edge4" class="edge">
<title>uqbar.apis.ModuleDocumenter.ModuleDocumenter&#45;&gt;uqbar.apis.SummarizingModuleDocumenter.SummarizingModuleDocumenter</title>
<path fill="none" stroke="lightslategrey" d="M518.7,-83.83C531.12,-85.58 545.37,-87.59 558.66,-89.46"/>
<polygon fill="lightslategrey" stroke="lightslategrey" points="558.21,-92.93 568.6,-90.86 559.18,-86 558.21,-92.93"/>
</g>
<!-- uqbar.apis.RootDocumenter.RootDocumenter&#45;&gt;uqbar.apis.SummarizingRootDocumenter.SummarizingRootDocumenter -->
<g id="edge5" class="edge">
<title>uqbar.apis.RootDocumenter.RootDocumenter&#45;&gt;uqbar.apis.SummarizingRootDocumenter.SummarizingRootDocumenter</title>
<path fill="none" stroke="lightslategrey" d="M518.7,-32.7C531,-33.32 545.09,-34.02 558.27,-34.67"/>
<polygon fill="lightslategrey" stroke="lightslategrey" points="558.43,-38.19 568.6,-35.19 558.78,-31.19 558.43,-38.19"/>
</g>
<!-- uqbar.apis.dummy.MyParentClass&#45;&gt;uqbar.apis.dummy.MyChildClass -->
<g id="edge6" class="edge">
<title>uqbar.apis.dummy.MyParentClass&#45;&gt;uqbar.apis.dummy.MyChildClass</title>
<path fill="none" stroke="lightslategrey" d="M141.37,-403C149.49,-403 158.87,-403 167.62,-403"/>
<polygon fill="lightslategrey" stroke="lightslategrey" points="167.86,-406.5 177.86,-403 167.86,-399.5 167.86,-406.5"/>
</g>
<!-- uqbar.containers.UniqueTreeContainer.UniqueTreeContainer&#45;&gt;uqbar.containers.UniqueTreeList.UniqueTreeList -->
<g id="edge7" class="edge">
<title>uqbar.containers.UniqueTreeContainer.UniqueTreeContainer&#45;&gt;uqbar.containers.UniqueTreeList.UniqueTreeList</title>
<path fill="none" stroke="lightslategrey" d="M315.47,-318C323.6,-318 332.5,-318 340.83,-318"/>
<polygon fill="lightslategrey" stroke="lightslategrey" points="340.98,-321.5 350.98,-318 340.98,-314.5 340.98,-321.5"/>
</g>
<!-- uqbar.containers.UniqueTreeList.UniqueTreeList&#45;&gt;uqbar.apis.PackageNode.PackageNode -->
<g id="edge16" class="edge">
<title>uqbar.containers.UniqueTreeList.UniqueTreeList&#45;&gt;uqbar.apis.PackageNode.PackageNode</title>
<path fill="none" stroke="lightslategrey" d="M398.19,-318.64C411.85,-319.02 429.57,-319.52 445.24,-319.96"/>
<polygon fill="lightslategrey" stroke="lightslategrey" points="445.58,-323.47 455.68,-320.25 445.78,-316.47 445.58,-323.47"/>
</g>
<!-- uqbar.containers.UniqueTreeNode.UniqueTreeNode&#45;&gt;uqbar.apis.ModuleNode.ModuleNode -->
<g id="edge17" class="edge">
<title>uqbar.containers.UniqueTreeNode.UniqueTreeNode&#45;&gt;uqbar.apis.ModuleNode.ModuleNode</title>
<path fill="none" stroke="lightslategrey" d="M142.03,-312.21C168.96,-305.52 215.46,-294.71 256,-289 324.16,-279.4 404.7,-275.45 449.04,-273.91"/>
<polygon fill="lightslategrey" stroke="lightslategrey" points="449.36,-277.4 459.24,-273.58 449.13,-270.41 449.36,-277.4"/>
</g>
<!-- uqbar.containers.UniqueTreeNode.UniqueTreeNode&#45;&gt;uqbar.containers.UniqueTreeContainer.UniqueTreeContainer -->
<g id="edge8" class="edge">
<title>uqbar.containers.UniqueTreeNode.UniqueTreeNode&#45;&gt;uqbar.containers.UniqueTreeContainer.UniqueTreeContainer</title>
<path fill="none" stroke="lightslategrey" d="M142.1,-318C168.66,-318 213.2,-318 245.41,-318"/>
<polygon fill="lightslategrey" stroke="lightslategrey" points="245.81,-321.5 255.81,-318 245.81,-314.5 245.81,-321.5"/>
</g>
<!-- builtins.object -->
<g id="node1" class="node">
<title>builtins.object</title>
<g id="a_node1"><a xlink:href="https://docs.python.org/3.6/library/functions.html#object" xlink:title="object" target="_top">
<path fill="#fbb4ae" stroke="#fbb4ae" stroke-width="2" d="M52.67,-196.5C52.67,-196.5 22.33,-196.5 22.33,-196.5 19.17,-196.5 16,-193.33 16,-190.17 16,-190.17 16,-183.83 16,-183.83 16,-180.67 19.17,-177.5 22.33,-177.5 22.33,-177.5 52.67,-177.5 52.67,-177.5 55.83,-177.5 59,-180.67 59,-183.83 59,-183.83 59,-190.17 59,-190.17 59,-193.33 55.83,-196.5 52.67,-196.5"/>
<text text-anchor="middle" x="37.5" y="-184.5" font-family="Arial" font-size="10.00">object</text>
</a>
</g>
</g>
<!-- uqbar.apis.APIBuilder.APIBuilder -->
<g id="node2" class="node">
<title>uqbar.apis.APIBuilder.APIBuilder</title>
<g id="a_node2"><a xlink:href="../api/uqbar/apis/APIBuilder.html#uqbar.apis.APIBuilder.APIBuilder" xlink:title="APIBuilder" target="_top">
<path fill="black" stroke="black" stroke-width="2" d="M508.66,-239.5C508.66,-239.5 458.33,-239.5 458.33,-239.5 455.16,-239.5 452,-236.33 452,-233.17 452,-233.17 452,-226.83 452,-226.83 452,-223.67 455.16,-220.5 458.33,-220.5 458.33,-220.5 508.66,-220.5 508.66,-220.5 511.83,-220.5 515,-223.67 515,-226.83 515,-226.83 515,-233.17 515,-233.17 515,-236.33 511.83,-239.5 508.66,-239.5"/>
<text text-anchor="middle" x="483.5" y="-227.5" font-family="Arial" font-size="10.00" fill="white">APIBuilder</text>
</a>
</g>
</g>
<!-- uqbar.apis.ClassDocumenter.ClassDocumenter -->
<g id="node3" class="node">
<title>uqbar.apis.ClassDocumenter.ClassDocumenter</title>
<g id="a_node3"><a xlink:href="../api/uqbar/apis/ClassDocumenter.html#uqbar.apis.ClassDocumenter.ClassDocumenter" xlink:title="Class\nDocumenter" target="_top">
<path fill="black" stroke="black" stroke-width="2" d="M630.99,-165C630.99,-165 580.99,-165 580.99,-165 575.99,-165 570.99,-160 570.99,-155 570.99,-155 570.99,-145 570.99,-145 570.99,-140 575.99,-135 580.99,-135 580.99,-135 630.99,-135 630.99,-135 635.99,-135 640.99,-140 640.99,-145 640.99,-145 640.99,-155 640.99,-155 640.99,-160 635.99,-165 630.99,-165"/>
<text text-anchor="middle" x="605.99" y="-153" font-family="Arial" font-size="10.00" fill="white">Class</text>
<text text-anchor="middle" x="605.99" y="-142" font-family="Arial" font-size="10.00" fill="white">Documenter</text>
</a>
</g>
</g>
<!-- uqbar.apis.SummarizingClassDocumenter.SummarizingClassDocumenter -->
<g id="node4" class="node">
<title>uqbar.apis.SummarizingClassDocumenter.SummarizingClassDocumenter</title>
<g id="a_node4"><a xlink:href="../api/uqbar/apis/SummarizingClassDocumenter.html#uqbar.apis.SummarizingClassDocumenter.SummarizingClassDocumenter" xlink:title="Summarizing\nClass\nDocumenter" target="_top">
<path fill="black" stroke="black" stroke-width="2" d="M740.99,-165.5C740.99,-165.5 690.99,-165.5 690.99,-165.5 684.99,-165.5 678.99,-159.5 678.99,-153.5 678.99,-153.5 678.99,-136.5 678.99,-136.5 678.99,-130.5 684.99,-124.5 690.99,-124.5 690.99,-124.5 740.99,-124.5 740.99,-124.5 746.99,-124.5 752.99,-130.5 752.99,-136.5 752.99,-136.5 752.99,-153.5 752.99,-153.5 752.99,-159.5 746.99,-165.5 740.99,-165.5"/>
<text text-anchor="middle" x="715.99" y="-153.5" font-family="Arial" font-size="10.00" fill="white">Summarizing</text>
<text text-anchor="middle" x="715.99" y="-142.5" font-family="Arial" font-size="10.00" fill="white">Class</text>
<text text-anchor="middle" x="715.99" y="-131.5" font-family="Arial" font-size="10.00" fill="white">Documenter</text>
</a>
</g>
</g>
<!-- uqbar.apis.FunctionDocumenter.FunctionDocumenter -->
<g id="node5" class="node">
<title>uqbar.apis.FunctionDocumenter.FunctionDocumenter</title>
<g id="a_node5"><a xlink:href="../api/uqbar/apis/FunctionDocumenter.html#uqbar.apis.FunctionDocumenter.FunctionDocumenter" xlink:title="Function\nDocumenter" target="_top">
<path fill="black" stroke="black" stroke-width="2" d="M740.99,-214C740.99,-214 690.99,-214 690.99,-214 685.99,-214 680.99,-209 680.99,-204 680.99,-204 680.99,-194 680.99,-194 680.99,-189 685.99,-184 690.99,-184 690.99,-184 740.99,-184 740.99,-184 745.99,-184 750.99,-189 750.99,-194 750.99,-194 750.99,-204 750.99,-204 750.99,-209 745.99,-214 740.99,-214"/>
<text text-anchor="middle" x="715.99" y="-202" font-family="Arial" font-size="10.00" fill="white">Function</text>
<text text-anchor="middle" x="715.99" y="-191" font-family="Arial" font-size="10.00" fill="white">Documenter</text>
</a>
</g>
</g>
<!-- uqbar.apis.InheritanceGraph.InheritanceGraph -->
<g id="node6" class="node">
<title>uqbar.apis.InheritanceGraph.InheritanceGraph</title>
<g id="a_node6"><a xlink:href="../api/uqbar/apis/InheritanceGraph.html#uqbar.apis.InheritanceGraph.InheritanceGraph" xlink:title="Inheritance\nGraph" target="_top">
<path fill="black" stroke="black" stroke-width="2" d="M506,-202C506,-202 461,-202 461,-202 456,-202 451,-197 451,-192 451,-192 451,-182 451,-182 451,-177 456,-172 461,-172 461,-172 506,-172 506,-172 511,-172 516,-177 516,-182 516,-182 516,-192 516,-192 516,-197 511,-202 506,-202"/>
<text text-anchor="middle" x="483.5" y="-190" font-family="Arial" font-size="10.00" fill="white">Inheritance</text>
<text text-anchor="middle" x="483.5" y="-179" font-family="Arial" font-size="10.00" fill="white">Graph</text>
</a>
</g>
</g>
<!-- uqbar.apis.MemberDocumenter.MemberDocumenter -->
<g id="node7" class="node">
<title>uqbar.apis.MemberDocumenter.MemberDocumenter</title>
<g id="a_node7"><a xlink:href="../api/uqbar/apis/MemberDocumenter.html#uqbar.apis.MemberDocumenter.MemberDocumenter" xlink:title="Member\nDocumenter" target="_top">
<ellipse fill="black" stroke="black" stroke-width="2" cx="483.5" cy="-133" rx="49.49" ry="21.43"/>
<text text-anchor="middle" x="483.5" y="-136" font-family="Arial" font-size="10.00" fill="white">Member</text>
<text text-anchor="middle" x="483.5" y="-125" font-family="Arial" font-size="10.00" fill="white">Documenter</text>
</a>
</g>
</g>
<!-- uqbar.apis.ModuleDocumenter.ModuleDocumenter -->
<g id="node8" class="node">
<title>uqbar.apis.ModuleDocumenter.ModuleDocumenter</title>
<g id="a_node8"><a xlink:href="../api/uqbar/apis/ModuleDocumenter.html#uqbar.apis.ModuleDocumenter.ModuleDocumenter" xlink:title="Module\nDocumenter" target="_top">
<path fill="black" stroke="black" stroke-width="2" d="M508.5,-94C508.5,-94 458.5,-94 458.5,-94 453.5,-94 448.5,-89 448.5,-84 448.5,-84 448.5,-74 448.5,-74 448.5,-69 453.5,-64 458.5,-64 458.5,-64 508.5,-64 508.5,-64 513.5,-64 518.5,-69 518.5,-74 518.5,-74 518.5,-84 518.5,-84 518.5,-89 513.5,-94 508.5,-94"/>
<text text-anchor="middle" x="483.5" y="-82" font-family="Arial" font-size="10.00" fill="white">Module</text>
<text text-anchor="middle" x="483.5" y="-71" font-family="Arial" font-size="10.00" fill="white">Documenter</text>
</a>
</g>
</g>
<!-- uqbar.apis.SummarizingModuleDocumenter.SummarizingModuleDocumenter -->
<g id="node9" class="node">
<title>uqbar.apis.SummarizingModuleDocumenter.SummarizingModuleDocumenter</title>
<g id="a_node9"><a xlink:href="../api/uqbar/apis/SummarizingModuleDocumenter.html#uqbar.apis.SummarizingModuleDocumenter.SummarizingModuleDocumenter" xlink:title="Summarizing\nModule\nDocumenter" target="_top">
<path fill="black" stroke="black" stroke-width="2" d="M630.99,-116.5C630.99,-116.5 580.99,-116.5 580.99,-116.5 574.99,-116.5 568.99,-110.5 568.99,-104.5 568.99,-104.5 568.99,-87.5 568.99,-87.5 568.99,-81.5 574.99,-75.5 580.99,-75.5 580.99,-75.5 630.99,-75.5 630.99,-75.5 636.99,-75.5 642.99,-81.5 642.99,-87.5 642.99,-87.5 642.99,-104.5 642.99,-104.5 642.99,-110.5 636.99,-116.5 630.99,-116.5"/>
<text text-anchor="middle" x="605.99" y="-104.5" font-family="Arial" font-size="10.00" fill="white">Summarizing</text>
<text text-anchor="middle" x="605.99" y="-93.5" font-family="Arial" font-size="10.00" fill="white">Module</text>
<text text-anchor="middle" x="605.99" y="-82.5" font-family="Arial" font-size="10.00" fill="white">Documenter</text>
</a>
</g>
</g>
<!-- uqbar.apis.ModuleNode.ModuleNode -->
<g id="node10" class="node">
<title>uqbar.apis.ModuleNode.ModuleNode</title>
<g id="a_node10"><a xlink:href="../api/uqbar/apis/ModuleNode.html#uqbar.apis.ModuleNode.ModuleNode" xlink:title="Module\nNode" target="_top">
<path fill="black" stroke="black" stroke-width="2" d="M497.5,-288C497.5,-288 469.5,-288 469.5,-288 464.5,-288 459.5,-283 459.5,-278 459.5,-278 459.5,-268 459.5,-268 459.5,-263 464.5,-258 469.5,-258 469.5,-258 497.5,-258 497.5,-258 502.5,-258 507.5,-263 507.5,-268 507.5,-268 507.5,-278 507.5,-278 507.5,-283 502.5,-288 497.5,-288"/>
<text text-anchor="middle" x="483.5" y="-276" font-family="Arial" font-size="10.00" fill="white">Module</text>
<text text-anchor="middle" x="483.5" y="-265" font-family="Arial" font-size="10.00" fill="white">Node</text>
</a>
</g>
</g>
<!-- uqbar.apis.PackageNode.PackageNode -->
<g id="node11" class="node">
<title>uqbar.apis.PackageNode.PackageNode</title>
<g id="a_node11"><a xlink:href="../api/uqbar/apis/PackageNode.html#uqbar.apis.PackageNode.PackageNode" xlink:title="Package\nNode" target="_top">
<path fill="black" stroke="black" stroke-width="2" d="M501,-336C501,-336 466,-336 466,-336 461,-336 456,-331 456,-326 456,-326 456,-316 456,-316 456,-311 461,-306 466,-306 466,-306 501,-306 501,-306 506,-306 511,-311 511,-316 511,-316 511,-326 511,-326 511,-331 506,-336 501,-336"/>
<text text-anchor="middle" x="483.5" y="-324" font-family="Arial" font-size="10.00" fill="white">Package</text>
<text text-anchor="middle" x="483.5" y="-313" font-family="Arial" font-size="10.00" fill="white">Node</text>
</a>
</g>
</g>
<!-- uqbar.apis.RootDocumenter.RootDocumenter -->
<g id="node12" class="node">
<title>uqbar.apis.RootDocumenter.RootDocumenter</title>
<g id="a_node12"><a xlink:href="../api/uqbar/apis/RootDocumenter.html#uqbar.apis.RootDocumenter.RootDocumenter" xlink:title="Root\nDocumenter" target="_top">
<path fill="black" stroke="black" stroke-width="2" d="M508.5,-46C508.5,-46 458.5,-46 458.5,-46 453.5,-46 448.5,-41 448.5,-36 448.5,-36 448.5,-26 448.5,-26 448.5,-21 453.5,-16 458.5,-16 458.5,-16 508.5,-16 508.5,-16 513.5,-16 518.5,-21 518.5,-26 518.5,-26 518.5,-36 518.5,-36 518.5,-41 513.5,-46 508.5,-46"/>
<text text-anchor="middle" x="483.5" y="-34" font-family="Arial" font-size="10.00" fill="white">Root</text>
<text text-anchor="middle" x="483.5" y="-23" font-family="Arial" font-size="10.00" fill="white">Documenter</text>
</a>
</g>
</g>
<!-- uqbar.apis.SummarizingRootDocumenter.SummarizingRootDocumenter -->
<g id="node13" class="node">
<title>uqbar.apis.SummarizingRootDocumenter.SummarizingRootDocumenter</title>
<g id="a_node13"><a xlink:href="../api/uqbar/apis/SummarizingRootDocumenter.html#uqbar.apis.SummarizingRootDocumenter.SummarizingRootDocumenter" xlink:title="Summarizing\nRoot\nDocumenter" target="_top">
<path fill="black" stroke="black" stroke-width="2" d="M630.99,-57.5C630.99,-57.5 580.99,-57.5 580.99,-57.5 574.99,-57.5 568.99,-51.5 568.99,-45.5 568.99,-45.5 568.99,-28.5 568.99,-28.5 568.99,-22.5 574.99,-16.5 580.99,-16.5 580.99,-16.5 630.99,-16.5 630.99,-16.5 636.99,-16.5 642.99,-22.5 642.99,-28.5 642.99,-28.5 642.99,-45.5 642.99,-45.5 642.99,-51.5 636.99,-57.5 630.99,-57.5"/>
<text text-anchor="middle" x="605.99" y="-45.5" font-family="Arial" font-size="10.00" fill="white">Summarizing</text>
<text text-anchor="middle" x="605.99" y="-34.5" font-family="Arial" font-size="10.00" fill="white">Root</text>
<text text-anchor="middle" x="605.99" y="-23.5" font-family="Arial" font-size="10.00" fill="white">Documenter</text>
</a>
</g>
</g>
<!-- uqbar.apis.dummy.MyChildClass -->
<g id="node14" class="node">
<title>uqbar.apis.dummy.MyChildClass</title>
<g id="a_node14"><a xlink:href="../api/uqbar/apis/dummy.html#uqbar.apis.dummy.MyChildClass" xlink:title="My\nChild\nClass" target="_top">
<path fill="#ccebc5" stroke="#ccebc5" stroke-width="2" d="M208,-423.5C208,-423.5 190,-423.5 190,-423.5 184,-423.5 178,-417.5 178,-411.5 178,-411.5 178,-394.5 178,-394.5 178,-388.5 184,-382.5 190,-382.5 190,-382.5 208,-382.5 208,-382.5 214,-382.5 220,-388.5 220,-394.5 220,-394.5 220,-411.5 220,-411.5 220,-417.5 214,-423.5 208,-423.5"/>
<text text-anchor="middle" x="199" y="-411.5" font-family="Arial" font-size="10.00">My</text>
<text text-anchor="middle" x="199" y="-400.5" font-family="Arial" font-size="10.00">Child</text>
<text text-anchor="middle" x="199" y="-389.5" font-family="Arial" font-size="10.00">Class</text>
</a>
</g>
</g>
<!-- uqbar.apis.dummy.MyParentClass -->
<g id="node15" class="node">
<title>uqbar.apis.dummy.MyParentClass</title>
<g id="a_node15"><a xlink:href="../api/uqbar/apis/dummy.html#uqbar.apis.dummy.MyParentClass" xlink:title="My\nParent\nClass" target="_top">
<path fill="#ccebc5" stroke="#ccebc5" stroke-width="2" d="M129,-423.5C129,-423.5 108,-423.5 108,-423.5 102,-423.5 96,-417.5 96,-411.5 96,-411.5 96,-394.5 96,-394.5 96,-388.5 102,-382.5 108,-382.5 108,-382.5 129,-382.5 129,-382.5 135,-382.5 141,-388.5 141,-394.5 141,-394.5 141,-411.5 141,-411.5 141,-417.5 135,-423.5 129,-423.5"/>
<text text-anchor="middle" x="118.5" y="-411.5" font-family="Arial" font-size="10.00">My</text>
<text text-anchor="middle" x="118.5" y="-400.5" font-family="Arial" font-size="10.00">Parent</text>
<text text-anchor="middle" x="118.5" y="-389.5" font-family="Arial" font-size="10.00">Class</text>
</a>
</g>
</g>
<!-- uqbar.containers.UniqueTreeContainer.UniqueTreeContainer -->
<g id="node16" class="node">
<title>uqbar.containers.UniqueTreeContainer.UniqueTreeContainer</title>
<g id="a_node16"><a xlink:href="../api/uqbar/apis/../containers/UniqueTreeContainer.html#uqbar.containers.UniqueTreeContainer.UniqueTreeContainer" xlink:title="Unique\nTree\nContainer" target="_top">
<path fill="#decbe4" stroke="#decbe4" stroke-width="2" d="M303,-338.5C303,-338.5 268,-338.5 268,-338.5 262,-338.5 256,-332.5 256,-326.5 256,-326.5 256,-309.5 256,-309.5 256,-303.5 262,-297.5 268,-297.5 268,-297.5 303,-297.5 303,-297.5 309,-297.5 315,-303.5 315,-309.5 315,-309.5 315,-326.5 315,-326.5 315,-332.5 309,-338.5 303,-338.5"/>
<text text-anchor="middle" x="285.5" y="-326.5" font-family="Arial" font-size="10.00">Unique</text>
<text text-anchor="middle" x="285.5" y="-315.5" font-family="Arial" font-size="10.00">Tree</text>
<text text-anchor="middle" x="285.5" y="-304.5" font-family="Arial" font-size="10.00">Container</text>
</a>
</g>
</g>
<!-- uqbar.containers.UniqueTreeList.UniqueTreeList -->
<g id="node17" class="node">
<title>uqbar.containers.UniqueTreeList.UniqueTreeList</title>
<g id="a_node17"><a xlink:href="../api/uqbar/apis/../containers/UniqueTreeList.html#uqbar.containers.UniqueTreeList.UniqueTreeList" xlink:title="Unique\nTree\nList" target="_top">
<path fill="#decbe4" stroke="#decbe4" stroke-width="2" d="M386,-338.5C386,-338.5 363,-338.5 363,-338.5 357,-338.5 351,-332.5 351,-326.5 351,-326.5 351,-309.5 351,-309.5 351,-303.5 357,-297.5 363,-297.5 363,-297.5 386,-297.5 386,-297.5 392,-297.5 398,-303.5 398,-309.5 398,-309.5 398,-326.5 398,-326.5 398,-332.5 392,-338.5 386,-338.5"/>
<text text-anchor="middle" x="374.5" y="-326.5" font-family="Arial" font-size="10.00">Unique</text>
<text text-anchor="middle" x="374.5" y="-315.5" font-family="Arial" font-size="10.00">Tree</text>
<text text-anchor="middle" x="374.5" y="-304.5" font-family="Arial" font-size="10.00">List</text>
</a>
</g>
</g>
<!-- uqbar.containers.UniqueTreeNode.UniqueTreeNode -->
<g id="node18" class="node">
<title>uqbar.containers.UniqueTreeNode.UniqueTreeNode</title>
<g id="a_node18"><a xlink:href="../api/uqbar/apis/../containers/UniqueTreeNode.html#uqbar.containers.UniqueTreeNode.UniqueTreeNode" xlink:title="Unique\nTree\nNode" target="_top">
<path fill="#decbe4" stroke="#decbe4" stroke-width="2" d="M130,-338.5C130,-338.5 107,-338.5 107,-338.5 101,-338.5 95,-332.5 95,-326.5 95,-326.5 95,-309.5 95,-309.5 95,-303.5 101,-297.5 107,-297.5 107,-297.5 130,-297.5 130,-297.5 136,-297.5 142,-303.5 142,-309.5 142,-309.5 142,-326.5 142,-326.5 142,-332.5 136,-338.5 130,-338.5"/>
<text text-anchor="middle" x="118.5" y="-326.5" font-family="Arial" font-size="10.00">Unique</text>
<text text-anchor="middle" x="118.5" y="-315.5" font-family="Arial" font-size="10.00">Tree</text>
<text text-anchor="middle" x="118.5" y="-304.5" font-family="Arial" font-size="10.00">Node</text>
</a>
</g>
</g>
</g>
</svg>
