<?xml version="1.0" encoding="UTF-8" standalone="no"?>
<!DOCTYPE svg PUBLIC "-//W3C//DTD SVG 1.1//EN"
 "http://www.w3.org/Graphics/SVG/1.1/DTD/svg11.dtd">
<!-- Generated by graphviz version 2.44.1 (20200629.0846)
 -->
<!-- Title: InheritanceGraph Pages: 1 -->
<svg width="191pt" height="89pt"
 viewBox="0.00 0.00 191.00 89.00" xmlns="http://www.w3.org/2000/svg" xmlns:xlink="http://www.w3.org/1999/xlink">
<g id="graph0" class="graph" transform="scale(1 1) rotate(0) translate(4 85)">
<title>InheritanceGraph</title>
<g id="clust1" class="cluster">
<title>cluster_builtins</title>
<path fill="transparent" stroke="#bcd2ee" stroke-width="2" stroke-dasharray="5,2" d="M20,-13C20,-13 55,-13 55,-13 61,-13 67,-19 67,-25 67,-25 67,-56 67,-56 67,-62 61,-68 55,-68 55,-68 20,-68 20,-68 14,-68 8,-62 8,-56 8,-56 8,-25 8,-25 8,-19 14,-13 20,-13"/>
<text text-anchor="middle" x="37.5" y="-56" font-family="Arial" font-size="10.00">builtins</text>
</g>
<g id="clust2" class="cluster">
<title>cluster_uqbar.containers</title>
<path fill="transparent" stroke="#bcd2ee" stroke-width="2" stroke-dasharray="5,2" d="M99,-8C99,-8 164,-8 164,-8 170,-8 176,-14 176,-20 176,-20 176,-61 176,-61 176,-67 170,-73 164,-73 164,-73 99,-73 99,-73 93,-73 87,-67 87,-61 87,-61 87,-20 87,-20 87,-14 93,-8 99,-8"/>
<text text-anchor="middle" x="131.5" y="-61" font-family="Arial" font-size="10.00">uqbar.containers</text>
</g>
<!-- builtins.object&#45;&gt;uqbar.containers.DependencyGraph.DependencyGraph -->
<g id="edge1" class="edge">
<title>builtins.object&#45;&gt;uqbar.containers.DependencyGraph.DependencyGraph</title>
<path fill="none" stroke="lightslategrey" d="M59.38,-31C67.23,-31 76.5,-31 85.71,-31"/>
<polygon fill="lightslategrey" stroke="lightslategrey" points="85.99,-34.5 95.99,-31 85.99,-27.5 85.99,-34.5"/>
</g>
<!-- builtins.object -->
<g id="node1" class="node">
<title>builtins.object</title>
<g id="a_node1"><a xlink:href="https://docs.python.org/3.6/library/functions.html#object" xlink:title="object" target="_top">
<path fill="#fbb4ae" stroke="#fbb4ae" stroke-width="2" d="M52.67,-40.5C52.67,-40.5 22.33,-40.5 22.33,-40.5 19.17,-40.5 16,-37.33 16,-34.17 16,-34.17 16,-27.83 16,-27.83 16,-24.67 19.17,-21.5 22.33,-21.5 22.33,-21.5 52.67,-21.5 52.67,-21.5 55.83,-21.5 59,-24.67 59,-27.83 59,-27.83 59,-34.17 59,-34.17 59,-37.33 55.83,-40.5 52.67,-40.5"/>
<text text-anchor="middle" x="37.5" y="-28.5" font-family="Arial" font-size="10.00">object</text>
</a>
</g>
</g>
<!-- uqbar.containers.DependencyGraph.DependencyGraph -->
<g id="node2" class="node">
<title>uqbar.containers.DependencyGraph.DependencyGraph</title>
<g id="a_node2"><a xlink:href="../api/uqbar/containers/DependencyGraph.html#uqbar.containers.DependencyGraph.DependencyGraph" xlink:title="Dependency\nGraph" target="_top">
<path fill="black" stroke="black" stroke-width="2" d="M157,-46C157,-46 106,-46 106,-46 101,-46 96,-41 96,-36 96,-36 96,-26 96,-26 96,-21 101,-16 106,-16 106,-16 157,-16 157,-16 162,-16 167,-21 167,-26 167,-26 167,-36 167,-36 167,-41 162,-46 157,-46"/>
<text text-anchor="middle" x="131.5" y="-34" font-family="Arial" font-size="10.00" fill="white">Dependency</text>
<text text-anchor="middle" x="131.5" y="-23" font-family="Arial" font-size="10.00" fill="white">Graph</text>
</a>
</g>
</g>
</g>
</svg>
