<?xml version="1.0" encoding="UTF-8" standalone="no"?>
<!DOCTYPE svg PUBLIC "-//W3C//DTD SVG 1.1//EN"
 "http://www.w3.org/Graphics/SVG/1.1/DTD/svg11.dtd">
<!-- Generated by graphviz version 2.44.1 (20200629.0846)
 -->
<!-- Title: InheritanceGraph Pages: 1 -->
<svg width="242pt" height="101pt"
 viewBox="0.00 0.00 242.00 101.00" xmlns="http://www.w3.org/2000/svg" xmlns:xlink="http://www.w3.org/1999/xlink">
<g id="graph0" class="graph" transform="scale(1 1) rotate(0) translate(4 97)">
<title>InheritanceGraph</title>
<g id="clust1" class="cluster">
<title>cluster_builtins</title>
<path fill="transparent" stroke="#bcd2ee" stroke-width="2" stroke-dasharray="5,2" d="M20,-19C20,-19 55,-19 55,-19 61,-19 67,-25 67,-31 67,-31 67,-62 67,-62 67,-68 61,-74 55,-74 55,-74 20,-74 20,-74 14,-74 8,-68 8,-62 8,-62 8,-31 8,-31 8,-25 14,-19 20,-19"/>
<text text-anchor="middle" x="37.5" y="-62" font-family="Arial" font-size="10.00">builtins</text>
</g>
<g id="clust2" class="cluster">
<title>cluster_uqbar.apis.dummy</title>
<path fill="transparent" stroke="#bcd2ee" stroke-width="2" stroke-dasharray="5,2" d="M99,-8C99,-8 214,-8 214,-8 220,-8 226,-14 226,-20 226,-20 226,-73 226,-73 226,-79 220,-85 214,-85 214,-85 99,-85 99,-85 93,-85 87,-79 87,-73 87,-73 87,-20 87,-20 87,-14 93,-8 99,-8"/>
<text text-anchor="middle" x="156.5" y="-73" font-family="Arial" font-size="10.00">uqbar.apis.dummy</text>
</g>
<!-- builtins.object&#45;&gt;uqbar.apis.dummy.MyParentClass -->
<g id="edge2" class="edge">
<title>builtins.object&#45;&gt;uqbar.apis.dummy.MyParentClass</title>
<path fill="none" stroke="lightslategrey" d="M59.4,-37C67.23,-37 76.31,-37 84.89,-37"/>
<polygon fill="lightslategrey" stroke="lightslategrey" points="85,-40.5 95,-37 85,-33.5 85,-40.5"/>
</g>
<!-- uqbar.apis.dummy.MyParentClass&#45;&gt;uqbar.apis.dummy.MyChildClass -->
<g id="edge1" class="edge">
<title>uqbar.apis.dummy.MyParentClass&#45;&gt;uqbar.apis.dummy.MyChildClass</title>
<path fill="none" stroke="lightslategrey" d="M140.09,-37C148.05,-37 157.22,-37 165.8,-37"/>
<polygon fill="lightslategrey" stroke="lightslategrey" points="165.86,-40.5 175.86,-37 165.86,-33.5 165.86,-40.5"/>
</g>
<!-- builtins.object -->
<g id="node1" class="node">
<title>builtins.object</title>
<g id="a_node1"><a xlink:href="https://docs.python.org/3.6/library/functions.html#object" xlink:title="object" target="_top">
<path fill="#fbb4ae" stroke="#fbb4ae" stroke-width="2" d="M52.67,-46.5C52.67,-46.5 22.33,-46.5 22.33,-46.5 19.17,-46.5 16,-43.33 16,-40.17 16,-40.17 16,-33.83 16,-33.83 16,-30.67 19.17,-27.5 22.33,-27.5 22.33,-27.5 52.67,-27.5 52.67,-27.5 55.83,-27.5 59,-30.67 59,-33.83 59,-33.83 59,-40.17 59,-40.17 59,-43.33 55.83,-46.5 52.67,-46.5"/>
<text text-anchor="middle" x="37.5" y="-34.5" font-family="Arial" font-size="10.00">object</text>
</a>
</g>
</g>
<!-- uqbar.apis.dummy.MyChildClass -->
<g id="node2" class="node">
<title>uqbar.apis.dummy.MyChildClass</title>
<g id="a_node2"><a xlink:href="../api/uqbar/apis/dummy.html#uqbar.apis.dummy.MyChildClass" xlink:title="My\nChild\nClass" target="_top">
<path fill="black" stroke="black" stroke-width="2" d="M206,-57.5C206,-57.5 188,-57.5 188,-57.5 182,-57.5 176,-51.5 176,-45.5 176,-45.5 176,-28.5 176,-28.5 176,-22.5 182,-16.5 188,-16.5 188,-16.5 206,-16.5 206,-16.5 212,-16.5 218,-22.5 218,-28.5 218,-28.5 218,-45.5 218,-45.5 218,-51.5 212,-57.5 206,-57.5"/>
<text text-anchor="middle" x="197" y="-45.5" font-family="Arial" font-size="10.00" fill="white">My</text>
<text text-anchor="middle" x="197" y="-34.5" font-family="Arial" font-size="10.00" fill="white">Child</text>
<text text-anchor="middle" x="197" y="-23.5" font-family="Arial" font-size="10.00" fill="white">Class</text>
</a>
</g>
</g>
<!-- uqbar.apis.dummy.MyParentClass -->
<g id="node3" class="node">
<title>uqbar.apis.dummy.MyParentClass</title>
<g id="a_node3"><a xlink:href="../api/uqbar/apis/dummy.html#uqbar.apis.dummy.MyParentClass" xlink:title="My\nParent\nClass" target="_top">
<path fill="black" stroke="black" stroke-width="2" d="M128,-57.5C128,-57.5 107,-57.5 107,-57.5 101,-57.5 95,-51.5 95,-45.5 95,-45.5 95,-28.5 95,-28.5 95,-22.5 101,-16.5 107,-16.5 107,-16.5 128,-16.5 128,-16.5 134,-16.5 140,-22.5 140,-28.5 140,-28.5 140,-45.5 140,-45.5 140,-51.5 134,-57.5 128,-57.5"/>
<text text-anchor="middle" x="117.5" y="-45.5" font-family="Arial" font-size="10.00" fill="white">My</text>
<text text-anchor="middle" x="117.5" y="-34.5" font-family="Arial" font-size="10.00" fill="white">Parent</text>
<text text-anchor="middle" x="117.5" y="-23.5" font-family="Arial" font-size="10.00" fill="white">Class</text>
</a>
</g>
</g>
</g>
</svg>
