<?xml version="1.0" encoding="UTF-8" standalone="no"?>
<!DOCTYPE svg PUBLIC "-//W3C//DTD SVG 1.1//EN"
 "http://www.w3.org/Graphics/SVG/1.1/DTD/svg11.dtd">
<!-- Generated by graphviz version 2.40.1 (20161225.0304)
 -->
<!-- Title: InheritanceGraph Pages: 1 -->
<svg width="430pt" height="291pt"
 viewBox="0.00 0.00 430.00 291.00" xmlns="http://www.w3.org/2000/svg" xmlns:xlink="http://www.w3.org/1999/xlink">
<g id="graph0" class="graph" transform="scale(1 1) rotate(0) translate(4 287)">
<title>InheritanceGraph</title>
<g id="clust1" class="cluster">
<title>cluster_code</title>
<path fill="transparent" stroke="#bcd2ee" stroke-width="2" stroke-dasharray="5,2" d="M178,-137C178,-137 308,-137 308,-137 314,-137 320,-143 320,-149 320,-149 320,-190 320,-190 320,-196 314,-202 308,-202 308,-202 178,-202 178,-202 172,-202 166,-196 166,-190 166,-190 166,-149 166,-149 166,-143 172,-137 178,-137"/>
<text text-anchor="middle" x="243" y="-190" font-family="Arial" font-size="10.00" fill="#000000">code</text>
</g>
<g id="clust2" class="cluster">
<title>cluster_uqbar.book.console</title>
<path fill="transparent" stroke="#bcd2ee" stroke-width="2" stroke-dasharray="5,2" d="M352,-8C352,-8 410,-8 410,-8 416,-8 422,-14 422,-20 422,-20 422,-243 422,-243 422,-249 416,-255 410,-255 410,-255 352,-255 352,-255 346,-255 340,-249 340,-243 340,-243 340,-20 340,-20 340,-14 346,-8 352,-8"/>
<text text-anchor="middle" x="381" y="-243" font-family="Arial" font-size="10.00" fill="#000000">uqbar.book.console</text>
</g>
<g id="clust3" class="cluster">
<title>cluster_builtins</title>
<path fill="transparent" stroke="#bcd2ee" stroke-width="2" stroke-dasharray="5,2" d="M20,-210C20,-210 220,-210 220,-210 226,-210 232,-216 232,-222 232,-222 232,-263 232,-263 232,-269 226,-275 220,-275 220,-275 20,-275 20,-275 14,-275 8,-269 8,-263 8,-263 8,-222 8,-222 8,-216 14,-210 20,-210"/>
<text text-anchor="middle" x="120" y="-263" font-family="Arial" font-size="10.00" fill="#000000">builtins</text>
</g>
<!-- code.InteractiveConsole&#45;&gt;uqbar.book.console.Console -->
<g id="edge9" class="edge">
<title>code.InteractiveConsole&#45;&gt;uqbar.book.console.Console</title>
<path fill="none" stroke="#778899" d="M312.3225,-162.7325C323.5655,-163.9223 336.8619,-165.3293 348.7462,-166.5869"/>
<polygon fill="#778899" stroke="#778899" points="348.4266,-170.0725 358.7394,-167.6444 349.1633,-163.1114 348.4266,-170.0725"/>
</g>
<!-- code.InteractiveInterpreter&#45;&gt;code.InteractiveConsole -->
<g id="edge1" class="edge">
<title>code.InteractiveInterpreter&#45;&gt;code.InteractiveConsole</title>
<path fill="none" stroke="#778899" d="M225.1323,-160C233.1144,-160 242.0679,-160 250.6164,-160"/>
<polygon fill="#778899" stroke="#778899" points="250.7503,-163.5001 260.7503,-160 250.7502,-156.5001 250.7503,-163.5001"/>
</g>
<!-- builtins.BaseException&#45;&gt;builtins.Exception -->
<g id="edge2" class="edge">
<title>builtins.BaseException&#45;&gt;builtins.Exception</title>
<path fill="none" stroke="#778899" d="M138.3748,-232.1323C146.6468,-231.8437 156.0143,-231.5169 164.8862,-231.2075"/>
<polygon fill="#778899" stroke="#778899" points="165.1063,-234.702 174.9781,-230.8554 164.8622,-227.7063 165.1063,-234.702"/>
</g>
<!-- builtins.Exception&#45;&gt;uqbar.book.console.ConsoleError -->
<g id="edge4" class="edge">
<title>builtins.Exception&#45;&gt;uqbar.book.console.ConsoleError</title>
<path fill="none" stroke="#778899" d="M224.3562,-227.6719C256.6466,-224.6474 313.0855,-219.3611 348.6735,-216.0278"/>
<polygon fill="#778899" stroke="#778899" points="349.3688,-219.4781 358.9988,-215.0607 348.716,-212.5086 349.3688,-219.4781"/>
</g>
<!-- builtins.object&#45;&gt;code.InteractiveInterpreter -->
<g id="edge5" class="edge">
<title>builtins.object&#45;&gt;code.InteractiveInterpreter</title>
<path fill="none" stroke="#778899" d="M53.1069,-220.3317C80.0316,-209.2355 130.3504,-188.498 164.3873,-174.4707"/>
<polygon fill="#778899" stroke="#778899" points="166.0407,-177.5749 173.9527,-170.5286 163.3735,-171.103 166.0407,-177.5749"/>
</g>
<!-- builtins.object&#45;&gt;uqbar.book.console.ConsoleInput -->
<g id="edge6" class="edge">
<title>builtins.object&#45;&gt;uqbar.book.console.ConsoleInput</title>
<path fill="none" stroke="#778899" d="M43.1733,-218.3731C62.6423,-197.6056 112.3364,-149.1698 166,-133 228.459,-114.18 305.7936,-118.2516 348.6158,-122.7362"/>
<polygon fill="#778899" stroke="#778899" points="348.4011,-126.234 358.7292,-123.8716 349.1821,-119.2777 348.4011,-126.234"/>
</g>
<!-- builtins.object&#45;&gt;uqbar.book.console.ConsoleOutput -->
<g id="edge7" class="edge">
<title>builtins.object&#45;&gt;uqbar.book.console.ConsoleOutput</title>
<path fill="none" stroke="#778899" d="M37.7735,-218.4647C44.468,-200.3923 61.4585,-161.0801 89,-140 167.399,-79.9941 290.9582,-75.5308 348.9444,-77.1636"/>
<polygon fill="#778899" stroke="#778899" points="348.8627,-80.6628 358.9829,-77.5274 349.1163,-73.6674 348.8627,-80.6628"/>
</g>
<!-- builtins.object&#45;&gt;uqbar.book.console.MonkeyPatch -->
<g id="edge8" class="edge">
<title>builtins.object&#45;&gt;uqbar.book.console.MonkeyPatch</title>
<path fill="none" stroke="#778899" d="M36.1994,-218.3985C40.6791,-195.8749 54.8949,-139.1953 89,-108 163.1118,-40.2113 289.8269,-30.7597 348.9106,-30.2957"/>
<polygon fill="#778899" stroke="#778899" points="349.1257,-33.7957 359.1278,-30.3016 349.1298,-26.7957 349.1257,-33.7957"/>
</g>
<!-- builtins.object&#45;&gt;builtins.BaseException -->
<g id="edge3" class="edge">
<title>builtins.object&#45;&gt;builtins.BaseException</title>
<path fill="none" stroke="#778899" d="M53.2219,-229.1849C60.8959,-229.6706 70.0326,-230.2489 78.843,-230.8065"/>
<polygon fill="#778899" stroke="#778899" points="78.7274,-234.3061 88.9285,-231.4448 79.1696,-227.3201 78.7274,-234.3061"/>
</g>
<!-- code.InteractiveConsole -->
<g id="node1" class="node">
<title>code.InteractiveConsole</title>
<g id="a_node1"><a xlink:href="https://docs.python.org/3.6/library/code.html#code.InteractiveConsole" xlink:title="Interactive\nConsole" target="_top">
<path fill="#b3cde3" stroke="#b3cde3" stroke-width="2" d="M302,-175C302,-175 271,-175 271,-175 266,-175 261,-170 261,-165 261,-165 261,-155 261,-155 261,-150 266,-145 271,-145 271,-145 302,-145 302,-145 307,-145 312,-150 312,-155 312,-155 312,-165 312,-165 312,-170 307,-175 302,-175"/>
<text text-anchor="middle" x="286.5" y="-163" font-family="Arial" font-size="10.00" fill="#000000">Interactive</text>
<text text-anchor="middle" x="286.5" y="-152" font-family="Arial" font-size="10.00" fill="#000000">Console</text>
</a>
</g>
</g>
<!-- code.InteractiveInterpreter -->
<g id="node2" class="node">
<title>code.InteractiveInterpreter</title>
<g id="a_node2"><a xlink:href="https://docs.python.org/3.6/library/code.html#code.InteractiveInterpreter" xlink:title="Interactive\nInterpreter" target="_top">
<path fill="#b3cde3" stroke="#b3cde3" stroke-width="2" d="M215,-175C215,-175 184,-175 184,-175 179,-175 174,-170 174,-165 174,-165 174,-155 174,-155 174,-150 179,-145 184,-145 184,-145 215,-145 215,-145 220,-145 225,-150 225,-155 225,-155 225,-165 225,-165 225,-170 220,-175 215,-175"/>
<text text-anchor="middle" x="199.5" y="-163" font-family="Arial" font-size="10.00" fill="#000000">Interactive</text>
<text text-anchor="middle" x="199.5" y="-152" font-family="Arial" font-size="10.00" fill="#000000">Interpreter</text>
</a>
</g>
</g>
<!-- uqbar.book.console.Console -->
<g id="node3" class="node">
<title>uqbar.book.console.Console</title>
<g id="a_node3"><a xlink:href="../api/uqbar/book/console.html#uqbar.book.console.Console" xlink:title="Console" target="_top">
<path fill="#000000" stroke="#000000" stroke-width="2" d="M396.6667,-179.5C396.6667,-179.5 365.3333,-179.5 365.3333,-179.5 362.1667,-179.5 359,-176.3333 359,-173.1667 359,-173.1667 359,-166.8333 359,-166.8333 359,-163.6667 362.1667,-160.5 365.3333,-160.5 365.3333,-160.5 396.6667,-160.5 396.6667,-160.5 399.8333,-160.5 403,-163.6667 403,-166.8333 403,-166.8333 403,-173.1667 403,-173.1667 403,-176.3333 399.8333,-179.5 396.6667,-179.5"/>
<text text-anchor="middle" x="381" y="-167.5" font-family="Arial" font-size="10.00" fill="#ffffff">Console</text>
</a>
</g>
</g>
<!-- uqbar.book.console.ConsoleError -->
<g id="node4" class="node">
<title>uqbar.book.console.ConsoleError</title>
<g id="a_node4"><a xlink:href="../api/uqbar/book/console.html#uqbar.book.console.ConsoleError" xlink:title="Console\nError" target="_top">
<path fill="#000000" stroke="#000000" stroke-width="2" d="M393,-228C393,-228 369,-228 369,-228 364,-228 359,-223 359,-218 359,-218 359,-208 359,-208 359,-203 364,-198 369,-198 369,-198 393,-198 393,-198 398,-198 403,-203 403,-208 403,-208 403,-218 403,-218 403,-223 398,-228 393,-228"/>
<text text-anchor="middle" x="381" y="-216" font-family="Arial" font-size="10.00" fill="#ffffff">Console</text>
<text text-anchor="middle" x="381" y="-205" font-family="Arial" font-size="10.00" fill="#ffffff">Error</text>
</a>
</g>
</g>
<!-- uqbar.book.console.ConsoleInput -->
<g id="node5" class="node">
<title>uqbar.book.console.ConsoleInput</title>
<g id="a_node5"><a xlink:href="../api/uqbar/book/console.html#uqbar.book.console.ConsoleInput" xlink:title="Console\nInput" target="_top">
<path fill="#000000" stroke="#000000" stroke-width="2" d="M393,-142C393,-142 369,-142 369,-142 364,-142 359,-137 359,-132 359,-132 359,-122 359,-122 359,-117 364,-112 369,-112 369,-112 393,-112 393,-112 398,-112 403,-117 403,-122 403,-122 403,-132 403,-132 403,-137 398,-142 393,-142"/>
<text text-anchor="middle" x="381" y="-130" font-family="Arial" font-size="10.00" fill="#ffffff">Console</text>
<text text-anchor="middle" x="381" y="-119" font-family="Arial" font-size="10.00" fill="#ffffff">Input</text>
</a>
</g>
</g>
<!-- uqbar.book.console.ConsoleOutput -->
<g id="node6" class="node">
<title>uqbar.book.console.ConsoleOutput</title>
<g id="a_node6"><a xlink:href="../api/uqbar/book/console.html#uqbar.book.console.ConsoleOutput" xlink:title="Console\nOutput" target="_top">
<path fill="#000000" stroke="#000000" stroke-width="2" d="M393,-94C393,-94 369,-94 369,-94 364,-94 359,-89 359,-84 359,-84 359,-74 359,-74 359,-69 364,-64 369,-64 369,-64 393,-64 393,-64 398,-64 403,-69 403,-74 403,-74 403,-84 403,-84 403,-89 398,-94 393,-94"/>
<text text-anchor="middle" x="381" y="-82" font-family="Arial" font-size="10.00" fill="#ffffff">Console</text>
<text text-anchor="middle" x="381" y="-71" font-family="Arial" font-size="10.00" fill="#ffffff">Output</text>
</a>
</g>
</g>
<!-- uqbar.book.console.MonkeyPatch -->
<g id="node7" class="node">
<title>uqbar.book.console.MonkeyPatch</title>
<g id="a_node7"><a xlink:href="../api/uqbar/book/console.html#uqbar.book.console.MonkeyPatch" xlink:title="Monkey\nPatch" target="_top">
<path fill="#000000" stroke="#000000" stroke-width="2" d="M392.5,-46C392.5,-46 369.5,-46 369.5,-46 364.5,-46 359.5,-41 359.5,-36 359.5,-36 359.5,-26 359.5,-26 359.5,-21 364.5,-16 369.5,-16 369.5,-16 392.5,-16 392.5,-16 397.5,-16 402.5,-21 402.5,-26 402.5,-26 402.5,-36 402.5,-36 402.5,-41 397.5,-46 392.5,-46"/>
<text text-anchor="middle" x="381" y="-34" font-family="Arial" font-size="10.00" fill="#ffffff">Monkey</text>
<text text-anchor="middle" x="381" y="-23" font-family="Arial" font-size="10.00" fill="#ffffff">Patch</text>
</a>
</g>
</g>
<!-- builtins.BaseException -->
<g id="node8" class="node">
<title>builtins.BaseException</title>
<g id="a_node8"><a xlink:href="https://docs.python.org/3.6/library/exceptions.html#BaseException" xlink:title="Base\nException" target="_top">
<path fill="#fbb4ae" stroke="#fbb4ae" stroke-width="2" d="M128,-248C128,-248 99,-248 99,-248 94,-248 89,-243 89,-238 89,-238 89,-228 89,-228 89,-223 94,-218 99,-218 99,-218 128,-218 128,-218 133,-218 138,-223 138,-228 138,-228 138,-238 138,-238 138,-243 133,-248 128,-248"/>
<text text-anchor="middle" x="113.5" y="-236" font-family="Arial" font-size="10.00" fill="#000000">Base</text>
<text text-anchor="middle" x="113.5" y="-225" font-family="Arial" font-size="10.00" fill="#000000">Exception</text>
</a>
</g>
</g>
<!-- builtins.Exception -->
<g id="node9" class="node">
<title>builtins.Exception</title>
<g id="a_node9"><a xlink:href="https://docs.python.org/3.6/library/exceptions.html#Exception" xlink:title="Exception" target="_top">
<path fill="#fbb4ae" stroke="#fbb4ae" stroke-width="2" d="M217.6667,-239.5C217.6667,-239.5 181.3333,-239.5 181.3333,-239.5 178.1667,-239.5 175,-236.3333 175,-233.1667 175,-233.1667 175,-226.8333 175,-226.8333 175,-223.6667 178.1667,-220.5 181.3333,-220.5 181.3333,-220.5 217.6667,-220.5 217.6667,-220.5 220.8333,-220.5 224,-223.6667 224,-226.8333 224,-226.8333 224,-233.1667 224,-233.1667 224,-236.3333 220.8333,-239.5 217.6667,-239.5"/>
<text text-anchor="middle" x="199.5" y="-227.5" font-family="Arial" font-size="10.00" fill="#000000">Exception</text>
</a>
</g>
</g>
<!-- builtins.object -->
<g id="node10" class="node">
<title>builtins.object</title>
<g id="a_node10"><a xlink:href="https://docs.python.org/3.6/library/functions.html#object" xlink:title="object" target="_top">
<path fill="#fbb4ae" stroke="#fbb4ae" stroke-width="2" d="M46.6667,-237.5C46.6667,-237.5 22.3333,-237.5 22.3333,-237.5 19.1667,-237.5 16,-234.3333 16,-231.1667 16,-231.1667 16,-224.8333 16,-224.8333 16,-221.6667 19.1667,-218.5 22.3333,-218.5 22.3333,-218.5 46.6667,-218.5 46.6667,-218.5 49.8333,-218.5 53,-221.6667 53,-224.8333 53,-224.8333 53,-231.1667 53,-231.1667 53,-234.3333 49.8333,-237.5 46.6667,-237.5"/>
<text text-anchor="middle" x="34.5" y="-225.5" font-family="Arial" font-size="10.00" fill="#000000">object</text>
</a>
</g>
</g>
</g>
</svg>
