<?xml version="1.0" encoding="UTF-8" standalone="no"?>
<!DOCTYPE svg PUBLIC "-//W3C//DTD SVG 1.1//EN"
 "http://www.w3.org/Graphics/SVG/1.1/DTD/svg11.dtd">
<!-- Generated by graphviz version 2.40.1 (20161225.0304)
 -->
<!-- Title: InheritanceGraph Pages: 1 -->
<svg width="287pt" height="101pt"
 viewBox="0.00 0.00 286.61 101.00" xmlns="http://www.w3.org/2000/svg" xmlns:xlink="http://www.w3.org/1999/xlink">
<g id="graph0" class="graph" transform="scale(1 1) rotate(0) translate(4 97)">
<title>InheritanceGraph</title>
<g id="clust1" class="cluster">
<title>cluster_builtins</title>
<path fill="transparent" stroke="#bcd2ee" stroke-width="2" stroke-dasharray="5,2" d="M20,-19C20,-19 49,-19 49,-19 55,-19 61,-25 61,-31 61,-31 61,-62 61,-62 61,-68 55,-74 49,-74 49,-74 20,-74 20,-74 14,-74 8,-68 8,-62 8,-62 8,-31 8,-31 8,-25 14,-19 20,-19"/>
<text text-anchor="middle" x="34.5" y="-62" font-family="Arial" font-size="10.00" fill="#000000">builtins</text>
</g>
<g id="clust2" class="cluster">
<title>cluster_uqbar.apis</title>
<path fill="transparent" stroke="#bcd2ee" stroke-width="2" stroke-dasharray="5,2" d="M93,-8C93,-8 258.6102,-8 258.6102,-8 264.6102,-8 270.6102,-14 270.6102,-20 270.6102,-20 270.6102,-73 270.6102,-73 270.6102,-79 264.6102,-85 258.6102,-85 258.6102,-85 93,-85 93,-85 87,-85 81,-79 81,-73 81,-73 81,-20 81,-20 81,-14 87,-8 93,-8"/>
<text text-anchor="middle" x="175.8051" y="-73" font-family="Arial" font-size="10.00" fill="#000000">uqbar.apis</text>
</g>
<!-- builtins.object&#45;&gt;uqbar.apis.MemberDocumenter.MemberDocumenter -->
<g id="edge2" class="edge">
<title>builtins.object&#45;&gt;uqbar.apis.MemberDocumenter.MemberDocumenter</title>
<path fill="none" stroke="#778899" d="M53.2304,-37C60.6015,-37 69.4541,-37 78.4731,-37"/>
<polygon fill="#778899" stroke="#778899" points="78.6566,-40.5001 88.6565,-37 78.6565,-33.5001 78.6566,-40.5001"/>
</g>
<!-- uqbar.apis.MemberDocumenter.MemberDocumenter&#45;&gt;uqbar.apis.FunctionDocumenter.FunctionDocumenter -->
<g id="edge1" class="edge">
<title>uqbar.apis.MemberDocumenter.MemberDocumenter&#45;&gt;uqbar.apis.FunctionDocumenter.FunctionDocumenter</title>
<path fill="none" stroke="#778899" d="M169.8255,-37C178.1687,-37 186.9362,-37 195.2201,-37"/>
<polygon fill="#778899" stroke="#778899" points="195.3862,-40.5001 205.3862,-37 195.3862,-33.5001 195.3862,-40.5001"/>
</g>
<!-- builtins.object -->
<g id="node1" class="node">
<title>builtins.object</title>
<g id="a_node1"><a xlink:href="https://docs.python.org/3.6/library/functions.html#object" xlink:title="object" target="_top">
<path fill="#fbb4ae" stroke="#fbb4ae" stroke-width="2" d="M46.6667,-46.5C46.6667,-46.5 22.3333,-46.5 22.3333,-46.5 19.1667,-46.5 16,-43.3333 16,-40.1667 16,-40.1667 16,-33.8333 16,-33.8333 16,-30.6667 19.1667,-27.5 22.3333,-27.5 22.3333,-27.5 46.6667,-27.5 46.6667,-27.5 49.8333,-27.5 53,-30.6667 53,-33.8333 53,-33.8333 53,-40.1667 53,-40.1667 53,-43.3333 49.8333,-46.5 46.6667,-46.5"/>
<text text-anchor="middle" x="34.5" y="-34.5" font-family="Arial" font-size="10.00" fill="#000000">object</text>
</a>
</g>
</g>
<!-- uqbar.apis.FunctionDocumenter.FunctionDocumenter -->
<g id="node2" class="node">
<title>uqbar.apis.FunctionDocumenter.FunctionDocumenter</title>
<g id="a_node2"><a xlink:href="../api/uqbar/apis/FunctionDocumenter.html#uqbar.apis.FunctionDocumenter.FunctionDocumenter" xlink:title="Function\nDocumenter" target="_top">
<path fill="#000000" stroke="#000000" stroke-width="2" d="M252.6102,-52C252.6102,-52 215.6102,-52 215.6102,-52 210.6102,-52 205.6102,-47 205.6102,-42 205.6102,-42 205.6102,-32 205.6102,-32 205.6102,-27 210.6102,-22 215.6102,-22 215.6102,-22 252.6102,-22 252.6102,-22 257.6102,-22 262.6102,-27 262.6102,-32 262.6102,-32 262.6102,-42 262.6102,-42 262.6102,-47 257.6102,-52 252.6102,-52"/>
<text text-anchor="middle" x="234.1102" y="-40" font-family="Arial" font-size="10.00" fill="#ffffff">Function</text>
<text text-anchor="middle" x="234.1102" y="-29" font-family="Arial" font-size="10.00" fill="#ffffff">Documenter</text>
</a>
</g>
</g>
<!-- uqbar.apis.MemberDocumenter.MemberDocumenter -->
<g id="node3" class="node">
<title>uqbar.apis.MemberDocumenter.MemberDocumenter</title>
<g id="a_node3"><a xlink:href="../api/uqbar/apis/MemberDocumenter.html#uqbar.apis.MemberDocumenter.MemberDocumenter" xlink:title="Member\nDocumenter" target="_top">
<ellipse fill="none" stroke="#b3cde3" stroke-width="2" cx="129.3051" cy="-37" rx="40.1111" ry="21.4286"/>
<text text-anchor="middle" x="129.3051" y="-40" font-family="Arial" font-size="10.00" fill="#000000">Member</text>
<text text-anchor="middle" x="129.3051" y="-29" font-family="Arial" font-size="10.00" fill="#000000">Documenter</text>
</a>
</g>
</g>
</g>
</svg>
