<?xml version="1.0" encoding="UTF-8" standalone="no"?>
<!DOCTYPE svg PUBLIC "-//W3C//DTD SVG 1.1//EN"
 "http://www.w3.org/Graphics/SVG/1.1/DTD/svg11.dtd">
<!-- Generated by graphviz version 2.40.1 (20161225.0304)
 -->
<!-- Title: InheritanceGraph Pages: 1 -->
<svg width="334pt" height="101pt"
 viewBox="0.00 0.00 334.00 101.00" xmlns="http://www.w3.org/2000/svg" xmlns:xlink="http://www.w3.org/1999/xlink">
<g id="graph0" class="graph" transform="scale(1 1) rotate(0) translate(4 97)">
<title>InheritanceGraph</title>
<g id="clust1" class="cluster">
<title>cluster_builtins</title>
<path fill="transparent" stroke="#bcd2ee" stroke-width="2" stroke-dasharray="5,2" d="M20,-19C20,-19 49,-19 49,-19 55,-19 61,-25 61,-31 61,-31 61,-62 61,-62 61,-68 55,-74 49,-74 49,-74 20,-74 20,-74 14,-74 8,-68 8,-62 8,-62 8,-31 8,-31 8,-25 14,-19 20,-19"/>
<text text-anchor="middle" x="34.5" y="-62" font-family="Arial" font-size="10.00" fill="#000000">builtins</text>
</g>
<g id="clust2" class="cluster">
<title>cluster_uqbar.containers</title>
<path fill="transparent" stroke="#bcd2ee" stroke-width="2" stroke-dasharray="5,2" d="M93,-8C93,-8 141,-8 141,-8 147,-8 153,-14 153,-20 153,-20 153,-73 153,-73 153,-79 147,-85 141,-85 141,-85 93,-85 93,-85 87,-85 81,-79 81,-73 81,-73 81,-20 81,-20 81,-14 87,-8 93,-8"/>
<text text-anchor="middle" x="117" y="-73" font-family="Arial" font-size="10.00" fill="#000000">uqbar.containers</text>
</g>
<g id="clust3" class="cluster">
<title>cluster_uqbar.graphs</title>
<path fill="transparent" stroke="#bcd2ee" stroke-width="2" stroke-dasharray="5,2" d="M185,-15C185,-15 306,-15 306,-15 312,-15 318,-21 318,-27 318,-27 318,-68 318,-68 318,-74 312,-80 306,-80 306,-80 185,-80 185,-80 179,-80 173,-74 173,-68 173,-68 173,-27 173,-27 173,-21 179,-15 185,-15"/>
<text text-anchor="middle" x="245.5" y="-68" font-family="Arial" font-size="10.00" fill="#000000">uqbar.graphs</text>
</g>
<!-- builtins.object&#45;&gt;uqbar.containers.UniqueTreeNode.UniqueTreeNode -->
<g id="edge2" class="edge">
<title>builtins.object&#45;&gt;uqbar.containers.UniqueTreeNode.UniqueTreeNode</title>
<path fill="none" stroke="#778899" d="M53.2205,-37C63.092,-37 75.4465,-37 86.6465,-37"/>
<polygon fill="#778899" stroke="#778899" points="86.9122,-40.5001 96.9122,-37 86.9122,-33.5001 86.9122,-40.5001"/>
</g>
<!-- uqbar.containers.UniqueTreeNode.UniqueTreeNode&#45;&gt;uqbar.graphs.Attachable.Attachable -->
<g id="edge3" class="edge">
<title>uqbar.containers.UniqueTreeNode.UniqueTreeNode&#45;&gt;uqbar.graphs.Attachable.Attachable</title>
<path fill="none" stroke="#778899" d="M137.4224,-37.9077C147.2698,-38.3453 159.3824,-38.8837 170.7258,-39.3878"/>
<polygon fill="#778899" stroke="#778899" points="170.6942,-42.8898 180.8398,-39.8373 171.0051,-35.8967 170.6942,-42.8898"/>
</g>
<!-- uqbar.containers.UniqueTreeNode.UniqueTreeNode&#45;&gt;uqbar.graphs.RecordField.RecordField -->
<g id="edge4" class="edge">
<title>uqbar.containers.UniqueTreeNode.UniqueTreeNode&#45;&gt;uqbar.graphs.RecordField.RecordField</title>
<path fill="none" stroke="#778899" d="M137.254,-30.6624C147.7961,-27.6903 160.9649,-24.4816 173,-23 199.4669,-19.7418 206.5575,-19.5497 233,-23 241.5854,-24.1203 250.7234,-26.1597 259.0921,-28.3813"/>
<polygon fill="#778899" stroke="#778899" points="258.2548,-31.7817 268.8297,-31.1319 260.1577,-25.0453 258.2548,-31.7817"/>
</g>
<!-- uqbar.graphs.Attachable.Attachable&#45;&gt;uqbar.graphs.RecordField.RecordField -->
<g id="edge1" class="edge">
<title>uqbar.graphs.Attachable.Attachable&#45;&gt;uqbar.graphs.RecordField.RecordField</title>
<path fill="none" stroke="#778899" d="M233.1035,-40.0508C241.2024,-39.7563 250.206,-39.4289 258.5985,-39.1237"/>
<polygon fill="#778899" stroke="#778899" points="258.9221,-42.6143 268.7883,-38.7532 258.6676,-35.619 258.9221,-42.6143"/>
</g>
<!-- builtins.object -->
<g id="node1" class="node">
<title>builtins.object</title>
<g id="a_node1"><a xlink:href="https://docs.python.org/3.6/library/functions.html#object" xlink:title="object" target="_top">
<path fill="#fbb4ae" stroke="#fbb4ae" stroke-width="2" d="M46.6667,-46.5C46.6667,-46.5 22.3333,-46.5 22.3333,-46.5 19.1667,-46.5 16,-43.3333 16,-40.1667 16,-40.1667 16,-33.8333 16,-33.8333 16,-30.6667 19.1667,-27.5 22.3333,-27.5 22.3333,-27.5 46.6667,-27.5 46.6667,-27.5 49.8333,-27.5 53,-30.6667 53,-33.8333 53,-33.8333 53,-40.1667 53,-40.1667 53,-43.3333 49.8333,-46.5 46.6667,-46.5"/>
<text text-anchor="middle" x="34.5" y="-34.5" font-family="Arial" font-size="10.00" fill="#000000">object</text>
</a>
</g>
</g>
<!-- uqbar.containers.UniqueTreeNode.UniqueTreeNode -->
<g id="node2" class="node">
<title>uqbar.containers.UniqueTreeNode.UniqueTreeNode</title>
<g id="a_node2"><a xlink:href="../api/uqbar/graphs/../containers/UniqueTreeNode.html#uqbar.containers.UniqueTreeNode.UniqueTreeNode" xlink:title="Unique\nTree\nNode" target="_top">
<path fill="#b3cde3" stroke="#b3cde3" stroke-width="2" d="M125,-57.5C125,-57.5 109,-57.5 109,-57.5 103,-57.5 97,-51.5 97,-45.5 97,-45.5 97,-28.5 97,-28.5 97,-22.5 103,-16.5 109,-16.5 109,-16.5 125,-16.5 125,-16.5 131,-16.5 137,-22.5 137,-28.5 137,-28.5 137,-45.5 137,-45.5 137,-51.5 131,-57.5 125,-57.5"/>
<text text-anchor="middle" x="117" y="-45.5" font-family="Arial" font-size="10.00" fill="#000000">Unique</text>
<text text-anchor="middle" x="117" y="-34.5" font-family="Arial" font-size="10.00" fill="#000000">Tree</text>
<text text-anchor="middle" x="117" y="-23.5" font-family="Arial" font-size="10.00" fill="#000000">Node</text>
</a>
</g>
</g>
<!-- uqbar.graphs.Attachable.Attachable -->
<g id="node3" class="node">
<title>uqbar.graphs.Attachable.Attachable</title>
<g id="a_node3"><a xlink:href="../api/uqbar/graphs/Attachable.html#uqbar.graphs.Attachable.Attachable" xlink:title="Attachable" target="_top">
<path fill="#ccebc5" stroke="#ccebc5" stroke-width="2" d="M226.6667,-50.5C226.6667,-50.5 187.3333,-50.5 187.3333,-50.5 184.1667,-50.5 181,-47.3333 181,-44.1667 181,-44.1667 181,-37.8333 181,-37.8333 181,-34.6667 184.1667,-31.5 187.3333,-31.5 187.3333,-31.5 226.6667,-31.5 226.6667,-31.5 229.8333,-31.5 233,-34.6667 233,-37.8333 233,-37.8333 233,-44.1667 233,-44.1667 233,-47.3333 229.8333,-50.5 226.6667,-50.5"/>
<text text-anchor="middle" x="207" y="-38.5" font-family="Arial" font-size="10.00" fill="#000000">Attachable</text>
</a>
</g>
</g>
<!-- uqbar.graphs.RecordField.RecordField -->
<g id="node4" class="node">
<title>uqbar.graphs.RecordField.RecordField</title>
<g id="a_node4"><a xlink:href="../api/uqbar/graphs/RecordField.html#uqbar.graphs.RecordField.RecordField" xlink:title="Record\nField" target="_top">
<path fill="#000000" stroke="#000000" stroke-width="2" d="M300,-53C300,-53 279,-53 279,-53 274,-53 269,-48 269,-43 269,-43 269,-33 269,-33 269,-28 274,-23 279,-23 279,-23 300,-23 300,-23 305,-23 310,-28 310,-33 310,-33 310,-43 310,-43 310,-48 305,-53 300,-53"/>
<text text-anchor="middle" x="289.5" y="-41" font-family="Arial" font-size="10.00" fill="#ffffff">Record</text>
<text text-anchor="middle" x="289.5" y="-30" font-family="Arial" font-size="10.00" fill="#ffffff">Field</text>
</a>
</g>
</g>
</g>
</svg>
