<?xml version="1.0" encoding="UTF-8" standalone="no"?>
<!DOCTYPE svg PUBLIC "-//W3C//DTD SVG 1.1//EN"
 "http://www.w3.org/Graphics/SVG/1.1/DTD/svg11.dtd">
<!-- Generated by graphviz version 2.40.1 (20161225.0304)
 -->
<!-- Title: InheritanceGraph Pages: 1 -->
<svg width="223pt" height="101pt"
 viewBox="0.00 0.00 223.00 101.00" xmlns="http://www.w3.org/2000/svg" xmlns:xlink="http://www.w3.org/1999/xlink">
<g id="graph0" class="graph" transform="scale(1 1) rotate(0) translate(4 97)">
<title>InheritanceGraph</title>
<g id="clust1" class="cluster">
<title>cluster_builtins</title>
<path fill="transparent" stroke="#bcd2ee" stroke-width="2" stroke-dasharray="5,2" d="M20,-19C20,-19 49,-19 49,-19 55,-19 61,-25 61,-31 61,-31 61,-62 61,-62 61,-68 55,-74 49,-74 49,-74 20,-74 20,-74 14,-74 8,-68 8,-62 8,-62 8,-31 8,-31 8,-25 14,-19 20,-19"/>
<text text-anchor="middle" x="34.5" y="-62" font-family="Arial" font-size="10.00" fill="#000000">builtins</text>
</g>
<g id="clust2" class="cluster">
<title>cluster_uqbar.apis.dummy</title>
<path fill="transparent" stroke="#bcd2ee" stroke-width="2" stroke-dasharray="5,2" d="M93,-8C93,-8 195,-8 195,-8 201,-8 207,-14 207,-20 207,-20 207,-73 207,-73 207,-79 201,-85 195,-85 195,-85 93,-85 93,-85 87,-85 81,-79 81,-73 81,-73 81,-20 81,-20 81,-14 87,-8 93,-8"/>
<text text-anchor="middle" x="144" y="-73" font-family="Arial" font-size="10.00" fill="#000000">uqbar.apis.dummy</text>
</g>
<!-- builtins.object&#45;&gt;uqbar.apis.dummy.MyParentClass -->
<g id="edge2" class="edge">
<title>builtins.object&#45;&gt;uqbar.apis.dummy.MyParentClass</title>
<path fill="none" stroke="#778899" d="M53.1733,-37C60.905,-37 70.065,-37 78.6841,-37"/>
<polygon fill="#778899" stroke="#778899" points="78.797,-40.5001 88.7969,-37 78.7969,-33.5001 78.797,-40.5001"/>
</g>
<!-- uqbar.apis.dummy.MyParentClass&#45;&gt;uqbar.apis.dummy.MyChildClass -->
<g id="edge1" class="edge">
<title>uqbar.apis.dummy.MyParentClass&#45;&gt;uqbar.apis.dummy.MyChildClass</title>
<path fill="none" stroke="#778899" d="M128.0627,-37C135.9022,-37 145.0812,-37 153.598,-37"/>
<polygon fill="#778899" stroke="#778899" points="153.8811,-40.5001 163.8811,-37 153.8811,-33.5001 153.8811,-40.5001"/>
</g>
<!-- builtins.object -->
<g id="node1" class="node">
<title>builtins.object</title>
<g id="a_node1"><a xlink:href="https://docs.python.org/3.6/library/functions.html#object" xlink:title="object" target="_top">
<path fill="#fbb4ae" stroke="#fbb4ae" stroke-width="2" d="M46.6667,-46.5C46.6667,-46.5 22.3333,-46.5 22.3333,-46.5 19.1667,-46.5 16,-43.3333 16,-40.1667 16,-40.1667 16,-33.8333 16,-33.8333 16,-30.6667 19.1667,-27.5 22.3333,-27.5 22.3333,-27.5 46.6667,-27.5 46.6667,-27.5 49.8333,-27.5 53,-30.6667 53,-33.8333 53,-33.8333 53,-40.1667 53,-40.1667 53,-43.3333 49.8333,-46.5 46.6667,-46.5"/>
<text text-anchor="middle" x="34.5" y="-34.5" font-family="Arial" font-size="10.00" fill="#000000">object</text>
</a>
</g>
</g>
<!-- uqbar.apis.dummy.MyChildClass -->
<g id="node2" class="node">
<title>uqbar.apis.dummy.MyChildClass</title>
<g id="a_node2"><a xlink:href="../api/uqbar/apis/dummy.html#uqbar.apis.dummy.MyChildClass" xlink:title="My\nChild\nClass" target="_top">
<path fill="#000000" stroke="#000000" stroke-width="2" d="M187.3333,-57.5C187.3333,-57.5 175.6667,-57.5 175.6667,-57.5 169.8333,-57.5 164,-51.6667 164,-45.8333 164,-45.8333 164,-28.1667 164,-28.1667 164,-22.3333 169.8333,-16.5 175.6667,-16.5 175.6667,-16.5 187.3333,-16.5 187.3333,-16.5 193.1667,-16.5 199,-22.3333 199,-28.1667 199,-28.1667 199,-45.8333 199,-45.8333 199,-51.6667 193.1667,-57.5 187.3333,-57.5"/>
<text text-anchor="middle" x="181.5" y="-45.5" font-family="Arial" font-size="10.00" fill="#ffffff">My</text>
<text text-anchor="middle" x="181.5" y="-34.5" font-family="Arial" font-size="10.00" fill="#ffffff">Child</text>
<text text-anchor="middle" x="181.5" y="-23.5" font-family="Arial" font-size="10.00" fill="#ffffff">Class</text>
</a>
</g>
</g>
<!-- uqbar.apis.dummy.MyParentClass -->
<g id="node3" class="node">
<title>uqbar.apis.dummy.MyParentClass</title>
<g id="a_node3"><a xlink:href="../api/uqbar/apis/dummy.html#uqbar.apis.dummy.MyParentClass" xlink:title="My\nParent\nClass" target="_top">
<path fill="#000000" stroke="#000000" stroke-width="2" d="M116,-57.5C116,-57.5 101,-57.5 101,-57.5 95,-57.5 89,-51.5 89,-45.5 89,-45.5 89,-28.5 89,-28.5 89,-22.5 95,-16.5 101,-16.5 101,-16.5 116,-16.5 116,-16.5 122,-16.5 128,-22.5 128,-28.5 128,-28.5 128,-45.5 128,-45.5 128,-51.5 122,-57.5 116,-57.5"/>
<text text-anchor="middle" x="108.5" y="-45.5" font-family="Arial" font-size="10.00" fill="#ffffff">My</text>
<text text-anchor="middle" x="108.5" y="-34.5" font-family="Arial" font-size="10.00" fill="#ffffff">Parent</text>
<text text-anchor="middle" x="108.5" y="-23.5" font-family="Arial" font-size="10.00" fill="#ffffff">Class</text>
</a>
</g>
</g>
</g>
</svg>
