<?xml version="1.0" encoding="UTF-8" standalone="no"?>
<!DOCTYPE svg PUBLIC "-//W3C//DTD SVG 1.1//EN"
 "http://www.w3.org/Graphics/SVG/1.1/DTD/svg11.dtd">
<!-- Generated by graphviz version 2.40.1 (20161225.0304)
 -->
<!-- Title: InheritanceGraph Pages: 1 -->
<svg width="504pt" height="583pt"
 viewBox="0.00 0.00 504.00 582.87" xmlns="http://www.w3.org/2000/svg" xmlns:xlink="http://www.w3.org/1999/xlink">
<g id="graph0" class="graph" transform="scale(1 1) rotate(0) translate(4 578.8732)">
<title>InheritanceGraph</title>
<g id="clust1" class="cluster">
<title>cluster_builtins</title>
<path fill="transparent" stroke="#bcd2ee" stroke-width="2" stroke-dasharray="5,2" d="M20,-215.8732C20,-215.8732 49,-215.8732 49,-215.8732 55,-215.8732 61,-221.8732 61,-227.8732 61,-227.8732 61,-258.8732 61,-258.8732 61,-264.8732 55,-270.8732 49,-270.8732 49,-270.8732 20,-270.8732 20,-270.8732 14,-270.8732 8,-264.8732 8,-258.8732 8,-258.8732 8,-227.8732 8,-227.8732 8,-221.8732 14,-215.8732 20,-215.8732"/>
<text text-anchor="middle" x="34.5" y="-258.8732" font-family="Arial" font-size="10.00" fill="#000000">builtins</text>
</g>
<g id="clust2" class="cluster">
<title>cluster_uqbar.containers</title>
<path fill="transparent" stroke="#bcd2ee" stroke-width="2" stroke-dasharray="5,2" d="M93,-177.8732C93,-177.8732 229,-177.8732 229,-177.8732 235,-177.8732 241,-183.8732 241,-189.8732 241,-189.8732 241,-290.8732 241,-290.8732 241,-296.8732 235,-302.8732 229,-302.8732 229,-302.8732 93,-302.8732 93,-302.8732 87,-302.8732 81,-296.8732 81,-290.8732 81,-290.8732 81,-189.8732 81,-189.8732 81,-183.8732 87,-177.8732 93,-177.8732"/>
<text text-anchor="middle" x="161" y="-290.8732" font-family="Arial" font-size="10.00" fill="#000000">uqbar.containers</text>
</g>
<g id="clust3" class="cluster">
<title>cluster_uqbar.apis</title>
<path fill="transparent" stroke="#bcd2ee" stroke-width="2" stroke-dasharray="5,2" d="M273,-453.8732C273,-453.8732 311,-453.8732 311,-453.8732 317,-453.8732 323,-459.8732 323,-465.8732 323,-465.8732 323,-554.8732 323,-554.8732 323,-560.8732 317,-566.8732 311,-566.8732 311,-566.8732 273,-566.8732 273,-566.8732 267,-566.8732 261,-560.8732 261,-554.8732 261,-554.8732 261,-465.8732 261,-465.8732 261,-459.8732 267,-453.8732 273,-453.8732"/>
<text text-anchor="middle" x="292" y="-554.8732" font-family="Arial" font-size="10.00" fill="#000000">uqbar.apis</text>
</g>
<g id="clust4" class="cluster">
<title>cluster_uqbar.graphs</title>
<path fill="transparent" stroke="#bcd2ee" stroke-width="2" stroke-dasharray="5,2" d="M355,-8.8732C355,-8.8732 476,-8.8732 476,-8.8732 482,-8.8732 488,-14.8732 488,-20.8732 488,-20.8732 488,-420.8732 488,-420.8732 488,-426.8732 482,-432.8732 476,-432.8732 476,-432.8732 355,-432.8732 355,-432.8732 349,-432.8732 343,-426.8732 343,-420.8732 343,-420.8732 343,-20.8732 343,-20.8732 343,-14.8732 349,-8.8732 355,-8.8732"/>
<text text-anchor="middle" x="415.5" y="-420.8732" font-family="Arial" font-size="10.00" fill="#000000">uqbar.graphs</text>
</g>
<!-- builtins.object&#45;&gt;uqbar.containers.DependencyGraph.DependencyGraph -->
<g id="edge4" class="edge">
<title>builtins.object&#45;&gt;uqbar.containers.DependencyGraph.DependencyGraph</title>
<path fill="none" stroke="#778899" d="M53.1423,-239.8654C60.8093,-242.3298 69.999,-245.2836 79.0319,-248.187"/>
<polygon fill="#778899" stroke="#778899" points="78.1013,-251.5642 88.6926,-251.2922 80.2434,-244.9 78.1013,-251.5642"/>
</g>
<!-- builtins.object&#45;&gt;uqbar.containers.UniqueTreeNode.UniqueTreeNode -->
<g id="edge5" class="edge">
<title>builtins.object&#45;&gt;uqbar.containers.UniqueTreeNode.UniqueTreeNode</title>
<path fill="none" stroke="#778899" d="M53.1423,-227.881C63.6399,-224.5068 76.992,-220.2151 88.8879,-216.3914"/>
<polygon fill="#778899" stroke="#778899" points="89.9941,-219.7123 98.4433,-213.32 87.8519,-213.0481 89.9941,-219.7123"/>
</g>
<!-- uqbar.containers.UniqueTreeContainer.UniqueTreeContainer&#45;&gt;uqbar.apis.PackageNode.PackageNode -->
<g id="edge6" class="edge">
<title>uqbar.containers.UniqueTreeContainer.UniqueTreeContainer&#45;&gt;uqbar.apis.PackageNode.PackageNode</title>
<path fill="none" stroke="#778899" d="M212.6319,-275.5699C221.5566,-319.0761 243.2619,-418.4257 261,-447.8732 262.3309,-450.0827 263.8774,-452.2302 265.5556,-454.2912"/>
<polygon fill="#778899" stroke="#778899" points="263.13,-456.8224 272.5036,-461.7605 268.2554,-452.0547 263.13,-456.8224"/>
</g>
<!-- uqbar.containers.UniqueTreeContainer.UniqueTreeContainer&#45;&gt;uqbar.graphs.TableCell.TableCell -->
<g id="edge11" class="edge">
<title>uqbar.containers.UniqueTreeContainer.UniqueTreeContainer&#45;&gt;uqbar.graphs.TableCell.TableCell</title>
<path fill="none" stroke="#778899" d="M222.9057,-275.5087C229.0012,-284.8144 235.8639,-296.1126 241,-306.8732 252.7455,-331.4811 243.9044,-343.6306 261,-364.8732 302.9495,-416.9988 349.0034,-454.3853 403,-414.8732 427.9577,-396.6104 447.0941,-306.7196 455.2258,-262.0964"/>
<polygon fill="#778899" stroke="#778899" points="458.7078,-262.5052 457.0098,-252.0474 451.8156,-261.2816 458.7078,-262.5052"/>
</g>
<!-- uqbar.containers.UniqueTreeContainer.UniqueTreeContainer&#45;&gt;uqbar.graphs.Graph.Graph -->
<g id="edge7" class="edge">
<title>uqbar.containers.UniqueTreeContainer.UniqueTreeContainer&#45;&gt;uqbar.graphs.Graph.Graph</title>
<path fill="none" stroke="#778899" d="M219.0331,-275.4474C228.3576,-292.1732 243.2266,-315.5856 261,-331.8732 287.1977,-355.8808 324.0221,-374.2204 349.106,-384.9896"/>
<polygon fill="#778899" stroke="#778899" points="347.8454,-388.256 358.4222,-388.8736 350.5391,-381.795 347.8454,-388.256"/>
</g>
<!-- uqbar.containers.UniqueTreeContainer.UniqueTreeContainer&#45;&gt;uqbar.graphs.Node.Node -->
<g id="edge8" class="edge">
<title>uqbar.containers.UniqueTreeContainer.UniqueTreeContainer&#45;&gt;uqbar.graphs.Node.Node</title>
<path fill="none" stroke="#778899" d="M228.8644,-275.4834C238.1726,-284.2571 249.6413,-294.211 261,-301.8732 289.7752,-321.284 326.1291,-338.0485 350.3966,-348.2776"/>
<polygon fill="#778899" stroke="#778899" points="349.1091,-351.5326 359.6874,-352.1233 351.7863,-345.0648 349.1091,-351.5326"/>
</g>
<!-- uqbar.containers.UniqueTreeContainer.UniqueTreeContainer&#45;&gt;uqbar.graphs.RecordGroup.RecordGroup -->
<g id="edge9" class="edge">
<title>uqbar.containers.UniqueTreeContainer.UniqueTreeContainer&#45;&gt;uqbar.graphs.RecordGroup.RecordGroup</title>
<path fill="none" stroke="#778899" d="M233.1338,-266.2495C241.8601,-270.1233 251.7967,-274.3592 261,-277.8732 289.628,-288.8041 322.9254,-299.5104 346.4832,-306.7584"/>
<polygon fill="#778899" stroke="#778899" points="345.669,-310.1691 356.2551,-309.7384 347.7109,-303.4736 345.669,-310.1691"/>
</g>
<!-- uqbar.containers.UniqueTreeContainer.UniqueTreeContainer&#45;&gt;uqbar.graphs.Table.Table -->
<g id="edge10" class="edge">
<title>uqbar.containers.UniqueTreeContainer.UniqueTreeContainer&#45;&gt;uqbar.graphs.Table.Table</title>
<path fill="none" stroke="#778899" d="M233.0013,-257.4906C263.8354,-260.7844 316.6673,-266.4282 349.0464,-269.8871"/>
<polygon fill="#778899" stroke="#778899" points="348.8665,-273.3877 359.1818,-270.9698 349.6102,-266.4273 348.8665,-273.3877"/>
</g>
<!-- uqbar.containers.UniqueTreeContainer.UniqueTreeContainer&#45;&gt;uqbar.graphs.TableRow.TableRow -->
<g id="edge12" class="edge">
<title>uqbar.containers.UniqueTreeContainer.UniqueTreeContainer&#45;&gt;uqbar.graphs.TableRow.TableRow</title>
<path fill="none" stroke="#778899" d="M233.0013,-251.238C263.8354,-246.6632 316.6673,-238.8246 349.0464,-234.0206"/>
<polygon fill="#778899" stroke="#778899" points="349.8037,-237.4467 359.1818,-232.5169 348.7764,-230.5224 349.8037,-237.4467"/>
</g>
<!-- uqbar.containers.UniqueTreeNode.UniqueTreeNode&#45;&gt;uqbar.containers.UniqueTreeContainer.UniqueTreeContainer -->
<g id="edge1" class="edge">
<title>uqbar.containers.UniqueTreeNode.UniqueTreeNode&#45;&gt;uqbar.containers.UniqueTreeContainer.UniqueTreeContainer</title>
<path fill="none" stroke="#778899" d="M138.9224,-217.7651C149.5851,-223.4519 162.9034,-230.555 175.0254,-237.0201"/>
<polygon fill="#778899" stroke="#778899" points="173.5275,-240.1878 183.9981,-241.8055 176.8217,-234.0114 173.5275,-240.1878"/>
</g>
<!-- uqbar.containers.UniqueTreeNode.UniqueTreeNode&#45;&gt;uqbar.apis.ModuleNode.ModuleNode -->
<g id="edge13" class="edge">
<title>uqbar.containers.UniqueTreeNode.UniqueTreeNode&#45;&gt;uqbar.apis.ModuleNode.ModuleNode</title>
<path fill="none" stroke="#778899" d="M138.6915,-225.3025C142.0535,-228.9357 145.3149,-232.8691 148,-236.8732 219.0841,-342.8753 182.9283,-399.9069 261,-500.8732 261.9108,-502.051 262.8922,-503.2028 263.9256,-504.3244"/>
<polygon fill="#778899" stroke="#778899" points="261.6137,-506.9546 271.3014,-511.2442 266.4032,-501.8496 261.6137,-506.9546"/>
</g>
<!-- uqbar.containers.UniqueTreeNode.UniqueTreeNode&#45;&gt;uqbar.graphs.Attachable.Attachable -->
<g id="edge14" class="edge">
<title>uqbar.containers.UniqueTreeNode.UniqueTreeNode&#45;&gt;uqbar.graphs.Attachable.Attachable</title>
<path fill="none" stroke="#778899" d="M138.7841,-205.3038C182.3919,-201.9299 285.5744,-193.9467 340.7376,-189.6788"/>
<polygon fill="#778899" stroke="#778899" points="341.0759,-193.1632 350.7761,-188.9021 340.5359,-186.184 341.0759,-193.1632"/>
</g>
<!-- uqbar.containers.UniqueTreeNode.UniqueTreeNode&#45;&gt;uqbar.graphs.RecordField.RecordField -->
<g id="edge17" class="edge">
<title>uqbar.containers.UniqueTreeNode.UniqueTreeNode&#45;&gt;uqbar.graphs.RecordField.RecordField</title>
<path fill="none" stroke="#778899" d="M123.8755,-186.2377C132.2887,-157.6063 151.1062,-105.7632 184,-73.8732 238.9345,-20.6151 267.7332,-21.6255 343,-7.8732 369.2324,-3.0802 380.6587,6.6862 403,-7.8732 437.7999,-30.5517 451.3186,-80.0444 456.4594,-110.4106"/>
<polygon fill="#778899" stroke="#778899" points="453.0505,-111.279 457.9982,-120.6476 459.9727,-110.2384 453.0505,-111.279"/>
</g>
<!-- uqbar.containers.UniqueTreeNode.UniqueTreeNode&#45;&gt;uqbar.graphs.HRule.HRule -->
<g id="edge15" class="edge">
<title>uqbar.containers.UniqueTreeNode.UniqueTreeNode&#45;&gt;uqbar.graphs.HRule.HRule</title>
<path fill="none" stroke="#778899" d="M138.7841,-202.4005C184.4376,-192.3338 295.3862,-167.8693 348.1727,-156.2297"/>
<polygon fill="#778899" stroke="#778899" points="349.2024,-159.5868 358.2141,-154.0155 347.695,-152.751 349.2024,-159.5868"/>
</g>
<!-- uqbar.containers.UniqueTreeNode.UniqueTreeNode&#45;&gt;uqbar.graphs.LineBreak.LineBreak -->
<g id="edge16" class="edge">
<title>uqbar.containers.UniqueTreeNode.UniqueTreeNode&#45;&gt;uqbar.graphs.LineBreak.LineBreak</title>
<path fill="none" stroke="#778899" d="M138.626,-196.7155C151.4658,-190.3936 168.5412,-182.2764 184,-175.8732 241.8463,-151.9125 311.3515,-128.2923 349.1604,-115.8643"/>
<polygon fill="#778899" stroke="#778899" points="350.5305,-119.0987 358.9479,-112.6647 348.3554,-112.4452 350.5305,-119.0987"/>
</g>
<!-- uqbar.containers.UniqueTreeNode.UniqueTreeNode&#45;&gt;uqbar.graphs.Text.Text -->
<g id="edge18" class="edge">
<title>uqbar.containers.UniqueTreeNode.UniqueTreeNode&#45;&gt;uqbar.graphs.Text.Text</title>
<path fill="none" stroke="#778899" d="M138.7604,-186.4266C151.1,-174.7203 167.6038,-160.3285 184,-149.8732 240.1194,-114.088 313.6395,-85.8279 351.7039,-72.4022"/>
<polygon fill="#778899" stroke="#778899" points="353.1579,-75.6024 361.4558,-69.0149 350.861,-68.9899 353.1579,-75.6024"/>
</g>
<!-- uqbar.containers.UniqueTreeNode.UniqueTreeNode&#45;&gt;uqbar.graphs.VRule.VRule -->
<g id="edge19" class="edge">
<title>uqbar.containers.UniqueTreeNode.UniqueTreeNode&#45;&gt;uqbar.graphs.VRule.VRule</title>
<path fill="none" stroke="#778899" d="M129.0574,-186.2361C140.3389,-165.8726 159.8998,-134.9557 184,-114.8732 234.6192,-72.6926 308.7601,-46.4865 348.8156,-34.53"/>
<polygon fill="#778899" stroke="#778899" points="349.8348,-37.8787 358.4631,-31.7304 347.8839,-31.156 349.8348,-37.8787"/>
</g>
<!-- uqbar.graphs.Attachable.Attachable&#45;&gt;uqbar.graphs.RecordField.RecordField -->
<g id="edge2" class="edge">
<title>uqbar.graphs.Attachable.Attachable&#45;&gt;uqbar.graphs.RecordField.RecordField</title>
<path fill="none" stroke="#778899" d="M392.5176,-177.2805C403.0344,-170.7792 417.2666,-161.9811 429.9075,-154.1667"/>
<polygon fill="#778899" stroke="#778899" points="432.0894,-156.9327 438.755,-148.6974 428.4086,-150.9786 432.0894,-156.9327"/>
</g>
<!-- uqbar.graphs.Attachable.Attachable&#45;&gt;uqbar.graphs.TableCell.TableCell -->
<g id="edge3" class="edge">
<title>uqbar.graphs.Attachable.Attachable&#45;&gt;uqbar.graphs.TableCell.TableCell</title>
<path fill="none" stroke="#778899" d="M392.9068,-196.5137C404.32,-203.4308 419.9593,-212.9091 433.214,-220.9423"/>
<polygon fill="#778899" stroke="#778899" points="431.5621,-224.0337 441.9281,-226.2236 435.1902,-218.0473 431.5621,-224.0337"/>
</g>
<!-- builtins.object -->
<g id="node1" class="node">
<title>builtins.object</title>
<g id="a_node1"><a xlink:href="https://docs.python.org/3.6/library/functions.html#object" xlink:title="object" target="_top">
<path fill="#fbb4ae" stroke="#fbb4ae" stroke-width="2" d="M46.6667,-243.3732C46.6667,-243.3732 22.3333,-243.3732 22.3333,-243.3732 19.1667,-243.3732 16,-240.2065 16,-237.0399 16,-237.0399 16,-230.7065 16,-230.7065 16,-227.5399 19.1667,-224.3732 22.3333,-224.3732 22.3333,-224.3732 46.6667,-224.3732 46.6667,-224.3732 49.8333,-224.3732 53,-227.5399 53,-230.7065 53,-230.7065 53,-237.0399 53,-237.0399 53,-240.2065 49.8333,-243.3732 46.6667,-243.3732"/>
<text text-anchor="middle" x="34.5" y="-231.3732" font-family="Arial" font-size="10.00" fill="#000000">object</text>
</a>
</g>
</g>
<!-- uqbar.containers.DependencyGraph.DependencyGraph -->
<g id="node2" class="node">
<title>uqbar.containers.DependencyGraph.DependencyGraph</title>
<g id="a_node2"><a xlink:href="../api/uqbar/containers/DependencyGraph.html#uqbar.containers.DependencyGraph.DependencyGraph" xlink:title="Dependency\nGraph" target="_top">
<path fill="#000000" stroke="#000000" stroke-width="2" d="M138,-275.8732C138,-275.8732 99,-275.8732 99,-275.8732 94,-275.8732 89,-270.8732 89,-265.8732 89,-265.8732 89,-255.8732 89,-255.8732 89,-250.8732 94,-245.8732 99,-245.8732 99,-245.8732 138,-245.8732 138,-245.8732 143,-245.8732 148,-250.8732 148,-255.8732 148,-255.8732 148,-265.8732 148,-265.8732 148,-270.8732 143,-275.8732 138,-275.8732"/>
<text text-anchor="middle" x="118.5" y="-263.8732" font-family="Arial" font-size="10.00" fill="#ffffff">Dependency</text>
<text text-anchor="middle" x="118.5" y="-252.8732" font-family="Arial" font-size="10.00" fill="#ffffff">Graph</text>
</a>
</g>
</g>
<!-- uqbar.containers.UniqueTreeContainer.UniqueTreeContainer -->
<g id="node3" class="node">
<title>uqbar.containers.UniqueTreeContainer.UniqueTreeContainer</title>
<g id="a_node3"><a xlink:href="../api/uqbar/containers/UniqueTreeContainer.html#uqbar.containers.UniqueTreeContainer.UniqueTreeContainer" xlink:title="Unique\nTree\nContainer" target="_top">
<path fill="#000000" stroke="#000000" stroke-width="2" d="M221,-275.3732C221,-275.3732 196,-275.3732 196,-275.3732 190,-275.3732 184,-269.3732 184,-263.3732 184,-263.3732 184,-246.3732 184,-246.3732 184,-240.3732 190,-234.3732 196,-234.3732 196,-234.3732 221,-234.3732 221,-234.3732 227,-234.3732 233,-240.3732 233,-246.3732 233,-246.3732 233,-263.3732 233,-263.3732 233,-269.3732 227,-275.3732 221,-275.3732"/>
<text text-anchor="middle" x="208.5" y="-263.3732" font-family="Arial" font-size="10.00" fill="#ffffff">Unique</text>
<text text-anchor="middle" x="208.5" y="-252.3732" font-family="Arial" font-size="10.00" fill="#ffffff">Tree</text>
<text text-anchor="middle" x="208.5" y="-241.3732" font-family="Arial" font-size="10.00" fill="#ffffff">Container</text>
</a>
</g>
</g>
<!-- uqbar.containers.UniqueTreeNode.UniqueTreeNode -->
<g id="node4" class="node">
<title>uqbar.containers.UniqueTreeNode.UniqueTreeNode</title>
<g id="a_node4"><a xlink:href="../api/uqbar/containers/UniqueTreeNode.html#uqbar.containers.UniqueTreeNode.UniqueTreeNode" xlink:title="Unique\nTree\nNode" target="_top">
<path fill="#000000" stroke="#000000" stroke-width="2" d="M126.5,-227.3732C126.5,-227.3732 110.5,-227.3732 110.5,-227.3732 104.5,-227.3732 98.5,-221.3732 98.5,-215.3732 98.5,-215.3732 98.5,-198.3732 98.5,-198.3732 98.5,-192.3732 104.5,-186.3732 110.5,-186.3732 110.5,-186.3732 126.5,-186.3732 126.5,-186.3732 132.5,-186.3732 138.5,-192.3732 138.5,-198.3732 138.5,-198.3732 138.5,-215.3732 138.5,-215.3732 138.5,-221.3732 132.5,-227.3732 126.5,-227.3732"/>
<text text-anchor="middle" x="118.5" y="-215.3732" font-family="Arial" font-size="10.00" fill="#ffffff">Unique</text>
<text text-anchor="middle" x="118.5" y="-204.3732" font-family="Arial" font-size="10.00" fill="#ffffff">Tree</text>
<text text-anchor="middle" x="118.5" y="-193.3732" font-family="Arial" font-size="10.00" fill="#ffffff">Node</text>
</a>
</g>
</g>
<!-- uqbar.apis.ModuleNode.ModuleNode -->
<g id="node5" class="node">
<title>uqbar.apis.ModuleNode.ModuleNode</title>
<g id="a_node5"><a xlink:href="../api/uqbar/containers/../apis/ModuleNode.html#uqbar.apis.ModuleNode.ModuleNode" xlink:title="Module\nNode" target="_top">
<path fill="#b3cde3" stroke="#b3cde3" stroke-width="2" d="M302.5,-539.8732C302.5,-539.8732 281.5,-539.8732 281.5,-539.8732 276.5,-539.8732 271.5,-534.8732 271.5,-529.8732 271.5,-529.8732 271.5,-519.8732 271.5,-519.8732 271.5,-514.8732 276.5,-509.8732 281.5,-509.8732 281.5,-509.8732 302.5,-509.8732 302.5,-509.8732 307.5,-509.8732 312.5,-514.8732 312.5,-519.8732 312.5,-519.8732 312.5,-529.8732 312.5,-529.8732 312.5,-534.8732 307.5,-539.8732 302.5,-539.8732"/>
<text text-anchor="middle" x="292" y="-527.8732" font-family="Arial" font-size="10.00" fill="#000000">Module</text>
<text text-anchor="middle" x="292" y="-516.8732" font-family="Arial" font-size="10.00" fill="#000000">Node</text>
</a>
</g>
</g>
<!-- uqbar.apis.PackageNode.PackageNode -->
<g id="node6" class="node">
<title>uqbar.apis.PackageNode.PackageNode</title>
<g id="a_node6"><a xlink:href="../api/uqbar/containers/../apis/PackageNode.html#uqbar.apis.PackageNode.PackageNode" xlink:title="Package\nNode" target="_top">
<path fill="#b3cde3" stroke="#b3cde3" stroke-width="2" d="M305,-491.8732C305,-491.8732 279,-491.8732 279,-491.8732 274,-491.8732 269,-486.8732 269,-481.8732 269,-481.8732 269,-471.8732 269,-471.8732 269,-466.8732 274,-461.8732 279,-461.8732 279,-461.8732 305,-461.8732 305,-461.8732 310,-461.8732 315,-466.8732 315,-471.8732 315,-471.8732 315,-481.8732 315,-481.8732 315,-486.8732 310,-491.8732 305,-491.8732"/>
<text text-anchor="middle" x="292" y="-479.8732" font-family="Arial" font-size="10.00" fill="#000000">Package</text>
<text text-anchor="middle" x="292" y="-468.8732" font-family="Arial" font-size="10.00" fill="#000000">Node</text>
</a>
</g>
</g>
<!-- uqbar.graphs.Attachable.Attachable -->
<g id="node7" class="node">
<title>uqbar.graphs.Attachable.Attachable</title>
<g id="a_node7"><a xlink:href="../api/uqbar/containers/../graphs/Attachable.html#uqbar.graphs.Attachable.Attachable" xlink:title="Attachable" target="_top">
<path fill="#decbe4" stroke="#decbe4" stroke-width="2" d="M396.6667,-196.3732C396.6667,-196.3732 357.3333,-196.3732 357.3333,-196.3732 354.1667,-196.3732 351,-193.2065 351,-190.0399 351,-190.0399 351,-183.7065 351,-183.7065 351,-180.5399 354.1667,-177.3732 357.3333,-177.3732 357.3333,-177.3732 396.6667,-177.3732 396.6667,-177.3732 399.8333,-177.3732 403,-180.5399 403,-183.7065 403,-183.7065 403,-190.0399 403,-190.0399 403,-193.2065 399.8333,-196.3732 396.6667,-196.3732"/>
<text text-anchor="middle" x="377" y="-184.3732" font-family="Arial" font-size="10.00" fill="#000000">Attachable</text>
</a>
</g>
</g>
<!-- uqbar.graphs.RecordField.RecordField -->
<g id="node8" class="node">
<title>uqbar.graphs.RecordField.RecordField</title>
<g id="a_node8"><a xlink:href="../api/uqbar/containers/../graphs/RecordField.html#uqbar.graphs.RecordField.RecordField" xlink:title="Record\nField" target="_top">
<path fill="#decbe4" stroke="#decbe4" stroke-width="2" d="M470,-150.8732C470,-150.8732 449,-150.8732 449,-150.8732 444,-150.8732 439,-145.8732 439,-140.8732 439,-140.8732 439,-130.8732 439,-130.8732 439,-125.8732 444,-120.8732 449,-120.8732 449,-120.8732 470,-120.8732 470,-120.8732 475,-120.8732 480,-125.8732 480,-130.8732 480,-130.8732 480,-140.8732 480,-140.8732 480,-145.8732 475,-150.8732 470,-150.8732"/>
<text text-anchor="middle" x="459.5" y="-138.8732" font-family="Arial" font-size="10.00" fill="#000000">Record</text>
<text text-anchor="middle" x="459.5" y="-127.8732" font-family="Arial" font-size="10.00" fill="#000000">Field</text>
</a>
</g>
</g>
<!-- uqbar.graphs.TableCell.TableCell -->
<g id="node9" class="node">
<title>uqbar.graphs.TableCell.TableCell</title>
<g id="a_node9"><a xlink:href="../api/uqbar/containers/../graphs/TableCell.html#uqbar.graphs.TableCell.TableCell" xlink:title="Table\nCell" target="_top">
<path fill="#decbe4" stroke="#decbe4" stroke-width="2" d="M467,-251.8732C467,-251.8732 452,-251.8732 452,-251.8732 447,-251.8732 442,-246.8732 442,-241.8732 442,-241.8732 442,-231.8732 442,-231.8732 442,-226.8732 447,-221.8732 452,-221.8732 452,-221.8732 467,-221.8732 467,-221.8732 472,-221.8732 477,-226.8732 477,-231.8732 477,-231.8732 477,-241.8732 477,-241.8732 477,-246.8732 472,-251.8732 467,-251.8732"/>
<text text-anchor="middle" x="459.5" y="-239.8732" font-family="Arial" font-size="10.00" fill="#000000">Table</text>
<text text-anchor="middle" x="459.5" y="-228.8732" font-family="Arial" font-size="10.00" fill="#000000">Cell</text>
</a>
</g>
</g>
<!-- uqbar.graphs.Graph.Graph -->
<g id="node10" class="node">
<title>uqbar.graphs.Graph.Graph</title>
<g id="a_node10"><a xlink:href="../api/uqbar/containers/../graphs/Graph.html#uqbar.graphs.Graph.Graph" xlink:title="Graph" target="_top">
<path fill="#decbe4" stroke="#decbe4" stroke-width="2" d="M389.1667,-405.3732C389.1667,-405.3732 364.8333,-405.3732 364.8333,-405.3732 361.6667,-405.3732 358.5,-402.2065 358.5,-399.0399 358.5,-399.0399 358.5,-392.7065 358.5,-392.7065 358.5,-389.5399 361.6667,-386.3732 364.8333,-386.3732 364.8333,-386.3732 389.1667,-386.3732 389.1667,-386.3732 392.3333,-386.3732 395.5,-389.5399 395.5,-392.7065 395.5,-392.7065 395.5,-399.0399 395.5,-399.0399 395.5,-402.2065 392.3333,-405.3732 389.1667,-405.3732"/>
<text text-anchor="middle" x="377" y="-393.3732" font-family="Arial" font-size="10.00" fill="#000000">Graph</text>
</a>
</g>
</g>
<!-- uqbar.graphs.HRule.HRule -->
<g id="node11" class="node">
<title>uqbar.graphs.HRule.HRule</title>
<g id="a_node11"><a xlink:href="../api/uqbar/containers/../graphs/HRule.html#uqbar.graphs.HRule.HRule" xlink:title="HRule" target="_top">
<path fill="#decbe4" stroke="#decbe4" stroke-width="2" d="M389.1667,-159.3732C389.1667,-159.3732 364.8333,-159.3732 364.8333,-159.3732 361.6667,-159.3732 358.5,-156.2065 358.5,-153.0399 358.5,-153.0399 358.5,-146.7065 358.5,-146.7065 358.5,-143.5399 361.6667,-140.3732 364.8333,-140.3732 364.8333,-140.3732 389.1667,-140.3732 389.1667,-140.3732 392.3333,-140.3732 395.5,-143.5399 395.5,-146.7065 395.5,-146.7065 395.5,-153.0399 395.5,-153.0399 395.5,-156.2065 392.3333,-159.3732 389.1667,-159.3732"/>
<text text-anchor="middle" x="377" y="-147.3732" font-family="Arial" font-size="10.00" fill="#000000">HRule</text>
</a>
</g>
</g>
<!-- uqbar.graphs.LineBreak.LineBreak -->
<g id="node12" class="node">
<title>uqbar.graphs.LineBreak.LineBreak</title>
<g id="a_node12"><a xlink:href="../api/uqbar/containers/../graphs/LineBreak.html#uqbar.graphs.LineBreak.LineBreak" xlink:title="Line\nBreak" target="_top">
<path fill="#decbe4" stroke="#decbe4" stroke-width="2" d="M385,-121.8732C385,-121.8732 369,-121.8732 369,-121.8732 364,-121.8732 359,-116.8732 359,-111.8732 359,-111.8732 359,-101.8732 359,-101.8732 359,-96.8732 364,-91.8732 369,-91.8732 369,-91.8732 385,-91.8732 385,-91.8732 390,-91.8732 395,-96.8732 395,-101.8732 395,-101.8732 395,-111.8732 395,-111.8732 395,-116.8732 390,-121.8732 385,-121.8732"/>
<text text-anchor="middle" x="377" y="-109.8732" font-family="Arial" font-size="10.00" fill="#000000">Line</text>
<text text-anchor="middle" x="377" y="-98.8732" font-family="Arial" font-size="10.00" fill="#000000">Break</text>
</a>
</g>
</g>
<!-- uqbar.graphs.Node.Node -->
<g id="node13" class="node">
<title>uqbar.graphs.Node.Node</title>
<g id="a_node13"><a xlink:href="../api/uqbar/containers/../graphs/Node.html#uqbar.graphs.Node.Node" xlink:title="Node" target="_top">
<path fill="#decbe4" stroke="#decbe4" stroke-width="2" d="M387.6667,-368.3732C387.6667,-368.3732 366.3333,-368.3732 366.3333,-368.3732 363.1667,-368.3732 360,-365.2065 360,-362.0399 360,-362.0399 360,-355.7065 360,-355.7065 360,-352.5399 363.1667,-349.3732 366.3333,-349.3732 366.3333,-349.3732 387.6667,-349.3732 387.6667,-349.3732 390.8333,-349.3732 394,-352.5399 394,-355.7065 394,-355.7065 394,-362.0399 394,-362.0399 394,-365.2065 390.8333,-368.3732 387.6667,-368.3732"/>
<text text-anchor="middle" x="377" y="-356.3732" font-family="Arial" font-size="10.00" fill="#000000">Node</text>
</a>
</g>
</g>
<!-- uqbar.graphs.RecordGroup.RecordGroup -->
<g id="node14" class="node">
<title>uqbar.graphs.RecordGroup.RecordGroup</title>
<g id="a_node14"><a xlink:href="../api/uqbar/containers/../graphs/RecordGroup.html#uqbar.graphs.RecordGroup.RecordGroup" xlink:title="Record\nGroup" target="_top">
<path fill="#decbe4" stroke="#decbe4" stroke-width="2" d="M387.5,-330.8732C387.5,-330.8732 366.5,-330.8732 366.5,-330.8732 361.5,-330.8732 356.5,-325.8732 356.5,-320.8732 356.5,-320.8732 356.5,-310.8732 356.5,-310.8732 356.5,-305.8732 361.5,-300.8732 366.5,-300.8732 366.5,-300.8732 387.5,-300.8732 387.5,-300.8732 392.5,-300.8732 397.5,-305.8732 397.5,-310.8732 397.5,-310.8732 397.5,-320.8732 397.5,-320.8732 397.5,-325.8732 392.5,-330.8732 387.5,-330.8732"/>
<text text-anchor="middle" x="377" y="-318.8732" font-family="Arial" font-size="10.00" fill="#000000">Record</text>
<text text-anchor="middle" x="377" y="-307.8732" font-family="Arial" font-size="10.00" fill="#000000">Group</text>
</a>
</g>
</g>
<!-- uqbar.graphs.Table.Table -->
<g id="node15" class="node">
<title>uqbar.graphs.Table.Table</title>
<g id="a_node15"><a xlink:href="../api/uqbar/containers/../graphs/Table.html#uqbar.graphs.Table.Table" xlink:title="Table" target="_top">
<path fill="#decbe4" stroke="#decbe4" stroke-width="2" d="M388.1667,-282.3732C388.1667,-282.3732 365.8333,-282.3732 365.8333,-282.3732 362.6667,-282.3732 359.5,-279.2065 359.5,-276.0399 359.5,-276.0399 359.5,-269.7065 359.5,-269.7065 359.5,-266.5399 362.6667,-263.3732 365.8333,-263.3732 365.8333,-263.3732 388.1667,-263.3732 388.1667,-263.3732 391.3333,-263.3732 394.5,-266.5399 394.5,-269.7065 394.5,-269.7065 394.5,-276.0399 394.5,-276.0399 394.5,-279.2065 391.3333,-282.3732 388.1667,-282.3732"/>
<text text-anchor="middle" x="377" y="-270.3732" font-family="Arial" font-size="10.00" fill="#000000">Table</text>
</a>
</g>
</g>
<!-- uqbar.graphs.TableRow.TableRow -->
<g id="node16" class="node">
<title>uqbar.graphs.TableRow.TableRow</title>
<g id="a_node16"><a xlink:href="../api/uqbar/containers/../graphs/TableRow.html#uqbar.graphs.TableRow.TableRow" xlink:title="Table\nRow" target="_top">
<path fill="#decbe4" stroke="#decbe4" stroke-width="2" d="M384.5,-244.8732C384.5,-244.8732 369.5,-244.8732 369.5,-244.8732 364.5,-244.8732 359.5,-239.8732 359.5,-234.8732 359.5,-234.8732 359.5,-224.8732 359.5,-224.8732 359.5,-219.8732 364.5,-214.8732 369.5,-214.8732 369.5,-214.8732 384.5,-214.8732 384.5,-214.8732 389.5,-214.8732 394.5,-219.8732 394.5,-224.8732 394.5,-224.8732 394.5,-234.8732 394.5,-234.8732 394.5,-239.8732 389.5,-244.8732 384.5,-244.8732"/>
<text text-anchor="middle" x="377" y="-232.8732" font-family="Arial" font-size="10.00" fill="#000000">Table</text>
<text text-anchor="middle" x="377" y="-221.8732" font-family="Arial" font-size="10.00" fill="#000000">Row</text>
</a>
</g>
</g>
<!-- uqbar.graphs.Text.Text -->
<g id="node17" class="node">
<title>uqbar.graphs.Text.Text</title>
<g id="a_node17"><a xlink:href="../api/uqbar/containers/../graphs/Text.html#uqbar.graphs.Text.Text" xlink:title="Text" target="_top">
<path fill="#decbe4" stroke="#decbe4" stroke-width="2" d="M386.1667,-73.3732C386.1667,-73.3732 367.8333,-73.3732 367.8333,-73.3732 364.6667,-73.3732 361.5,-70.2065 361.5,-67.0399 361.5,-67.0399 361.5,-60.7065 361.5,-60.7065 361.5,-57.5399 364.6667,-54.3732 367.8333,-54.3732 367.8333,-54.3732 386.1667,-54.3732 386.1667,-54.3732 389.3333,-54.3732 392.5,-57.5399 392.5,-60.7065 392.5,-60.7065 392.5,-67.0399 392.5,-67.0399 392.5,-70.2065 389.3333,-73.3732 386.1667,-73.3732"/>
<text text-anchor="middle" x="377" y="-61.3732" font-family="Arial" font-size="10.00" fill="#000000">Text</text>
</a>
</g>
</g>
<!-- uqbar.graphs.VRule.VRule -->
<g id="node18" class="node">
<title>uqbar.graphs.VRule.VRule</title>
<g id="a_node18"><a xlink:href="../api/uqbar/containers/../graphs/VRule.html#uqbar.graphs.VRule.VRule" xlink:title="VRule" target="_top">
<path fill="#decbe4" stroke="#decbe4" stroke-width="2" d="M389.1667,-36.3732C389.1667,-36.3732 364.8333,-36.3732 364.8333,-36.3732 361.6667,-36.3732 358.5,-33.2065 358.5,-30.0399 358.5,-30.0399 358.5,-23.7065 358.5,-23.7065 358.5,-20.5399 361.6667,-17.3732 364.8333,-17.3732 364.8333,-17.3732 389.1667,-17.3732 389.1667,-17.3732 392.3333,-17.3732 395.5,-20.5399 395.5,-23.7065 395.5,-23.7065 395.5,-30.0399 395.5,-30.0399 395.5,-33.2065 392.3333,-36.3732 389.1667,-36.3732"/>
<text text-anchor="middle" x="377" y="-24.3732" font-family="Arial" font-size="10.00" fill="#000000">VRule</text>
</a>
</g>
</g>
</g>
</svg>
