<?xml version="1.0" encoding="UTF-8" standalone="no"?>
<!DOCTYPE svg PUBLIC "-//W3C//DTD SVG 1.1//EN"
 "http://www.w3.org/Graphics/SVG/1.1/DTD/svg11.dtd">
<!-- Generated by graphviz version 2.44.0 (20200408.0750)
 -->
<!-- Title: InheritanceGraph Pages: 1 -->
<svg width="276pt" height="101pt"
 viewBox="0.00 0.00 276.00 101.00" xmlns="http://www.w3.org/2000/svg" xmlns:xlink="http://www.w3.org/1999/xlink">
<g id="graph0" class="graph" transform="scale(1 1) rotate(0) translate(4 97)">
<title>InheritanceGraph</title>
<g id="clust1" class="cluster">
<title>cluster_builtins</title>
<path fill="transparent" stroke="#bcd2ee" stroke-width="2" stroke-dasharray="5,2" d="M20,-19C20,-19 55,-19 55,-19 61,-19 67,-25 67,-31 67,-31 67,-62 67,-62 67,-68 61,-74 55,-74 55,-74 20,-74 20,-74 14,-74 8,-68 8,-62 8,-62 8,-31 8,-31 8,-25 14,-19 20,-19"/>
<text text-anchor="middle" x="37.5" y="-62" font-family="Arial" font-size="10.00">builtins</text>
</g>
<g id="clust2" class="cluster">
<title>cluster_uqbar.apis</title>
<path fill="transparent" stroke="#bcd2ee" stroke-width="2" stroke-dasharray="5,2" d="M208,-14C208,-14 248,-14 248,-14 254,-14 260,-20 260,-26 260,-26 260,-67 260,-67 260,-73 254,-79 248,-79 248,-79 208,-79 208,-79 202,-79 196,-73 196,-67 196,-67 196,-26 196,-26 196,-20 202,-14 208,-14"/>
<text text-anchor="middle" x="228" y="-67" font-family="Arial" font-size="10.00">uqbar.apis</text>
</g>
<g id="clust3" class="cluster">
<title>cluster_uqbar.containers</title>
<path fill="transparent" stroke="#bcd2ee" stroke-width="2" stroke-dasharray="5,2" d="M99,-8C99,-8 164,-8 164,-8 170,-8 176,-14 176,-20 176,-20 176,-73 176,-73 176,-79 170,-85 164,-85 164,-85 99,-85 99,-85 93,-85 87,-79 87,-73 87,-73 87,-20 87,-20 87,-14 93,-8 99,-8"/>
<text text-anchor="middle" x="131.5" y="-73" font-family="Arial" font-size="10.00">uqbar.containers</text>
</g>
<!-- builtins.object&#45;&gt;uqbar.containers.UniqueTreeNode.UniqueTreeNode -->
<g id="edge1" class="edge">
<title>builtins.object&#45;&gt;uqbar.containers.UniqueTreeNode.UniqueTreeNode</title>
<path fill="none" stroke="lightslategrey" d="M59.38,-37C70.64,-37 84.81,-37 97.53,-37"/>
<polygon fill="lightslategrey" stroke="lightslategrey" points="97.77,-40.5 107.77,-37 97.77,-33.5 97.77,-40.5"/>
</g>
<!-- uqbar.containers.UniqueTreeNode.UniqueTreeNode&#45;&gt;uqbar.apis.ModuleNode.ModuleNode -->
<g id="edge2" class="edge">
<title>uqbar.containers.UniqueTreeNode.UniqueTreeNode&#45;&gt;uqbar.apis.ModuleNode.ModuleNode</title>
<path fill="none" stroke="lightslategrey" d="M155.38,-37C166.81,-37 180.87,-37 193.5,-37"/>
<polygon fill="lightslategrey" stroke="lightslategrey" points="193.68,-40.5 203.68,-37 193.68,-33.5 193.68,-40.5"/>
</g>
<!-- builtins.object -->
<g id="node1" class="node">
<title>builtins.object</title>
<g id="a_node1"><a xlink:href="https://docs.python.org/3.6/library/functions.html#object" xlink:title="object" target="_top">
<path fill="#fbb4ae" stroke="#fbb4ae" stroke-width="2" d="M52.67,-46.5C52.67,-46.5 22.33,-46.5 22.33,-46.5 19.17,-46.5 16,-43.33 16,-40.17 16,-40.17 16,-33.83 16,-33.83 16,-30.67 19.17,-27.5 22.33,-27.5 22.33,-27.5 52.67,-27.5 52.67,-27.5 55.83,-27.5 59,-30.67 59,-33.83 59,-33.83 59,-40.17 59,-40.17 59,-43.33 55.83,-46.5 52.67,-46.5"/>
<text text-anchor="middle" x="37.5" y="-34.5" font-family="Arial" font-size="10.00">object</text>
</a>
</g>
</g>
<!-- uqbar.apis.ModuleNode.ModuleNode -->
<g id="node2" class="node">
<title>uqbar.apis.ModuleNode.ModuleNode</title>
<g id="a_node2"><a xlink:href="../api/uqbar/apis/ModuleNode.html#uqbar.apis.ModuleNode.ModuleNode" xlink:title="Module\nNode" target="_top">
<path fill="black" stroke="black" stroke-width="2" d="M242,-52C242,-52 214,-52 214,-52 209,-52 204,-47 204,-42 204,-42 204,-32 204,-32 204,-27 209,-22 214,-22 214,-22 242,-22 242,-22 247,-22 252,-27 252,-32 252,-32 252,-42 252,-42 252,-47 247,-52 242,-52"/>
<text text-anchor="middle" x="228" y="-40" font-family="Arial" font-size="10.00" fill="white">Module</text>
<text text-anchor="middle" x="228" y="-29" font-family="Arial" font-size="10.00" fill="white">Node</text>
</a>
</g>
</g>
<!-- uqbar.containers.UniqueTreeNode.UniqueTreeNode -->
<g id="node3" class="node">
<title>uqbar.containers.UniqueTreeNode.UniqueTreeNode</title>
<g id="a_node3"><a xlink:href="../api/uqbar/apis/../containers/UniqueTreeNode.html#uqbar.containers.UniqueTreeNode.UniqueTreeNode" xlink:title="Unique\nTree\nNode" target="_top">
<path fill="#ccebc5" stroke="#ccebc5" stroke-width="2" d="M143,-57.5C143,-57.5 120,-57.5 120,-57.5 114,-57.5 108,-51.5 108,-45.5 108,-45.5 108,-28.5 108,-28.5 108,-22.5 114,-16.5 120,-16.5 120,-16.5 143,-16.5 143,-16.5 149,-16.5 155,-22.5 155,-28.5 155,-28.5 155,-45.5 155,-45.5 155,-51.5 149,-57.5 143,-57.5"/>
<text text-anchor="middle" x="131.5" y="-45.5" font-family="Arial" font-size="10.00">Unique</text>
<text text-anchor="middle" x="131.5" y="-34.5" font-family="Arial" font-size="10.00">Tree</text>
<text text-anchor="middle" x="131.5" y="-23.5" font-family="Arial" font-size="10.00">Node</text>
</a>
</g>
</g>
</g>
</svg>
