<?xml version="1.0" encoding="UTF-8" standalone="no"?>
<!DOCTYPE svg PUBLIC "-//W3C//DTD SVG 1.1//EN"
 "http://www.w3.org/Graphics/SVG/1.1/DTD/svg11.dtd">
<!-- Generated by graphviz version 2.40.1 (20161225.0304)
 -->
<!-- Title: InheritanceGraph Pages: 1 -->
<svg width="383pt" height="381pt"
 viewBox="0.00 0.00 383.00 381.00" xmlns="http://www.w3.org/2000/svg" xmlns:xlink="http://www.w3.org/1999/xlink">
<g id="graph0" class="graph" transform="scale(1 1) rotate(0) translate(4 377)">
<title>InheritanceGraph</title>
<g id="clust1" class="cluster">
<title>cluster_builtins</title>
<path fill="transparent" stroke="#bcd2ee" stroke-width="2" stroke-dasharray="5,2" d="M20,-223C20,-223 49,-223 49,-223 55,-223 61,-229 61,-235 61,-235 61,-266 61,-266 61,-272 55,-278 49,-278 49,-278 20,-278 20,-278 14,-278 8,-272 8,-266 8,-266 8,-235 8,-235 8,-229 14,-223 20,-223"/>
<text text-anchor="middle" x="34.5" y="-266" font-family="Arial" font-size="10.00" fill="#000000">builtins</text>
</g>
<g id="clust2" class="cluster">
<title>cluster_docutils.nodes</title>
<path fill="transparent" stroke="#bcd2ee" stroke-width="2" stroke-dasharray="5,2" d="M144,-224C144,-224 265,-224 265,-224 271,-224 277,-230 277,-236 277,-236 277,-304 277,-304 277,-310 271,-316 265,-316 265,-316 144,-316 144,-316 138,-316 132,-310 132,-304 132,-304 132,-236 132,-236 132,-230 138,-224 144,-224"/>
<text text-anchor="middle" x="204.5" y="-304" font-family="Arial" font-size="10.00" fill="#000000">docutils.nodes</text>
</g>
<g id="clust3" class="cluster">
<title>cluster_docutils.parsers.rst</title>
<path fill="transparent" stroke="#bcd2ee" stroke-width="2" stroke-dasharray="5,2" d="M130,-113C130,-113 185,-113 185,-113 191,-113 197,-119 197,-125 197,-125 197,-156 197,-156 197,-162 191,-168 185,-168 185,-168 130,-168 130,-168 124,-168 118,-162 118,-156 118,-156 118,-125 118,-125 118,-119 124,-113 130,-113"/>
<text text-anchor="middle" x="157.5" y="-156" font-family="Arial" font-size="10.00" fill="#000000">docutils.parsers.rst</text>
</g>
<g id="clust4" class="cluster">
<title>cluster_uqbar.book.sphinx</title>
<path fill="transparent" stroke="#bcd2ee" stroke-width="2" stroke-dasharray="5,2" d="M309,-8C309,-8 363,-8 363,-8 369,-8 375,-14 375,-20 375,-20 375,-353 375,-353 375,-359 369,-365 363,-365 363,-365 309,-365 309,-365 303,-365 297,-359 297,-353 297,-353 297,-20 297,-20 297,-14 303,-8 309,-8"/>
<text text-anchor="middle" x="336" y="-353" font-family="Arial" font-size="10.00" fill="#000000">uqbar.book.sphinx</text>
</g>
<!-- builtins.object&#45;&gt;docutils.nodes.Body -->
<g id="edge3" class="edge">
<title>builtins.object&#45;&gt;docutils.nodes.Body</title>
<path fill="none" stroke="#778899" d="M53.1051,-246.7714C73.628,-253.1377 106.8318,-263.4376 130.1673,-270.6764"/>
<polygon fill="#778899" stroke="#778899" points="129.2176,-274.0463 139.8056,-273.6662 131.2916,-267.3605 129.2176,-274.0463"/>
</g>
<!-- builtins.object&#45;&gt;docutils.nodes.Node -->
<g id="edge4" class="edge">
<title>builtins.object&#45;&gt;docutils.nodes.Node</title>
<path fill="none" stroke="#778899" d="M53.1051,-241.1519C73.444,-241.3179 106.2373,-241.5856 129.5371,-241.7758"/>
<polygon fill="#778899" stroke="#778899" points="129.7773,-245.2778 139.8056,-241.8596 129.8345,-238.278 129.7773,-245.2778"/>
</g>
<!-- builtins.object&#45;&gt;docutils.parsers.rst.Directive -->
<g id="edge5" class="edge">
<title>builtins.object&#45;&gt;docutils.parsers.rst.Directive</title>
<path fill="none" stroke="#778899" d="M45.3711,-231.2382C66.4002,-212.3549 112.8504,-170.6445 138.713,-147.421"/>
<polygon fill="#778899" stroke="#778899" points="141.2262,-149.8683 146.3282,-140.5828 136.5493,-144.6599 141.2262,-149.8683"/>
</g>
<!-- docutils.nodes.Body&#45;&gt;docutils.nodes.General -->
<g id="edge1" class="edge">
<title>docutils.nodes.Body&#45;&gt;docutils.nodes.General</title>
<path fill="none" stroke="#778899" d="M174.3529,-279C185.9129,-279 201.4472,-279 215.1838,-279"/>
<polygon fill="#778899" stroke="#778899" points="215.2422,-282.5001 225.2422,-279 215.2422,-275.5001 215.2422,-282.5001"/>
</g>
<!-- docutils.nodes.General&#45;&gt;uqbar.book.sphinx.uqbar_book_defaults_block -->
<g id="edge8" class="edge">
<title>docutils.nodes.General&#45;&gt;uqbar.book.sphinx.uqbar_book_defaults_block</title>
<path fill="none" stroke="#778899" d="M268.5444,-270.0433C279.5046,-265.4869 293.0232,-259.8668 305.0733,-254.8572"/>
<polygon fill="#778899" stroke="#778899" points="306.4553,-258.0731 314.3455,-251.0024 303.7681,-251.6094 306.4553,-258.0731"/>
</g>
<!-- docutils.nodes.General&#45;&gt;uqbar.book.sphinx.uqbar_book_import_block -->
<g id="edge9" class="edge">
<title>docutils.nodes.General&#45;&gt;uqbar.book.sphinx.uqbar_book_import_block</title>
<path fill="none" stroke="#778899" d="M268.5444,-286.9884C280.3165,-291.3533 295.04,-296.8126 307.7253,-301.5161"/>
<polygon fill="#778899" stroke="#778899" points="306.7734,-304.896 317.3664,-305.0909 309.207,-298.3326 306.7734,-304.896"/>
</g>
<!-- docutils.nodes.Element&#45;&gt;uqbar.book.sphinx.uqbar_book_defaults_block -->
<g id="edge6" class="edge">
<title>docutils.nodes.Element&#45;&gt;uqbar.book.sphinx.uqbar_book_defaults_block</title>
<path fill="none" stroke="#778899" d="M269,-242C279.5621,-242 292.4192,-242 304.0354,-242"/>
<polygon fill="#778899" stroke="#778899" points="304.2531,-245.5001 314.2531,-242 304.253,-238.5001 304.2531,-245.5001"/>
</g>
<!-- docutils.nodes.Element&#45;&gt;uqbar.book.sphinx.uqbar_book_import_block -->
<g id="edge7" class="edge">
<title>docutils.nodes.Element&#45;&gt;uqbar.book.sphinx.uqbar_book_import_block</title>
<path fill="none" stroke="#778899" d="M263.1747,-251.6296C267.7381,-254.51 272.6442,-257.7658 277,-261 283.6166,-265.9128 297.2818,-277.6856 309.7959,-288.6833"/>
<polygon fill="#778899" stroke="#778899" points="307.5515,-291.3707 317.3656,-295.3625 312.1829,-286.1218 307.5515,-291.3707"/>
</g>
<!-- docutils.nodes.Node&#45;&gt;docutils.nodes.Element -->
<g id="edge2" class="edge">
<title>docutils.nodes.Node&#45;&gt;docutils.nodes.Element</title>
<path fill="none" stroke="#778899" d="M174.3529,-242C185.8315,-242 201.2286,-242 214.8933,-242"/>
<polygon fill="#778899" stroke="#778899" points="214.9115,-245.5001 224.9115,-242 214.9115,-238.5001 214.9115,-245.5001"/>
</g>
<!-- docutils.parsers.rst.Directive&#45;&gt;uqbar.book.sphinx.UqbarBookDefaultsDirective -->
<g id="edge10" class="edge">
<title>docutils.parsers.rst.Directive&#45;&gt;uqbar.book.sphinx.UqbarBookDefaultsDirective</title>
<path fill="none" stroke="#778899" d="M180.0347,-127.2681C211.2311,-122.214 267.1094,-113.161 302.8258,-107.3746"/>
<polygon fill="#778899" stroke="#778899" points="303.4587,-110.8178 312.7702,-105.7635 302.3392,-103.9079 303.4587,-110.8178"/>
</g>
<!-- docutils.parsers.rst.Directive&#45;&gt;uqbar.book.sphinx.UqbarBookDirective -->
<g id="edge11" class="edge">
<title>docutils.parsers.rst.Directive&#45;&gt;uqbar.book.sphinx.UqbarBookDirective</title>
<path fill="none" stroke="#778899" d="M175.1485,-121.4695C205.3014,-105.635 266.1153,-73.6992 303.7203,-53.9514"/>
<polygon fill="#778899" stroke="#778899" points="305.5218,-56.9586 312.748,-49.2105 302.2673,-50.7612 305.5218,-56.9586"/>
</g>
<!-- docutils.parsers.rst.Directive&#45;&gt;uqbar.book.sphinx.UqbarBookImportDirective -->
<g id="edge12" class="edge">
<title>docutils.parsers.rst.Directive&#45;&gt;uqbar.book.sphinx.UqbarBookImportDirective</title>
<path fill="none" stroke="#778899" d="M180.0347,-136.2761C211.2311,-143.4216 267.1094,-156.2206 302.8258,-164.4014"/>
<polygon fill="#778899" stroke="#778899" points="302.2412,-167.8581 312.7702,-166.6792 303.8041,-161.0348 302.2412,-167.8581"/>
</g>
<!-- builtins.object -->
<g id="node1" class="node">
<title>builtins.object</title>
<g id="a_node1"><a xlink:href="https://docs.python.org/3.6/library/functions.html#object" xlink:title="object" target="_top">
<path fill="#fbb4ae" stroke="#fbb4ae" stroke-width="2" d="M46.6667,-250.5C46.6667,-250.5 22.3333,-250.5 22.3333,-250.5 19.1667,-250.5 16,-247.3333 16,-244.1667 16,-244.1667 16,-237.8333 16,-237.8333 16,-234.6667 19.1667,-231.5 22.3333,-231.5 22.3333,-231.5 46.6667,-231.5 46.6667,-231.5 49.8333,-231.5 53,-234.6667 53,-237.8333 53,-237.8333 53,-244.1667 53,-244.1667 53,-247.3333 49.8333,-250.5 46.6667,-250.5"/>
<text text-anchor="middle" x="34.5" y="-238.5" font-family="Arial" font-size="10.00" fill="#000000">object</text>
</a>
</g>
</g>
<!-- docutils.nodes.Body -->
<g id="node2" class="node">
<title>docutils.nodes.Body</title>
<path fill="#b3cde3" stroke="#b3cde3" stroke-width="2" d="M167.6667,-288.5C167.6667,-288.5 146.3333,-288.5 146.3333,-288.5 143.1667,-288.5 140,-285.3333 140,-282.1667 140,-282.1667 140,-275.8333 140,-275.8333 140,-272.6667 143.1667,-269.5 146.3333,-269.5 146.3333,-269.5 167.6667,-269.5 167.6667,-269.5 170.8333,-269.5 174,-272.6667 174,-275.8333 174,-275.8333 174,-282.1667 174,-282.1667 174,-285.3333 170.8333,-288.5 167.6667,-288.5"/>
<text text-anchor="middle" x="157" y="-276.5" font-family="Arial" font-size="10.00" fill="#000000">Body</text>
</g>
<!-- docutils.nodes.General -->
<g id="node3" class="node">
<title>docutils.nodes.General</title>
<path fill="#b3cde3" stroke="#b3cde3" stroke-width="2" d="M262.1667,-288.5C262.1667,-288.5 231.8333,-288.5 231.8333,-288.5 228.6667,-288.5 225.5,-285.3333 225.5,-282.1667 225.5,-282.1667 225.5,-275.8333 225.5,-275.8333 225.5,-272.6667 228.6667,-269.5 231.8333,-269.5 231.8333,-269.5 262.1667,-269.5 262.1667,-269.5 265.3333,-269.5 268.5,-272.6667 268.5,-275.8333 268.5,-275.8333 268.5,-282.1667 268.5,-282.1667 268.5,-285.3333 265.3333,-288.5 262.1667,-288.5"/>
<text text-anchor="middle" x="247" y="-276.5" font-family="Arial" font-size="10.00" fill="#000000">General</text>
</g>
<!-- docutils.nodes.Element -->
<g id="node4" class="node">
<title>docutils.nodes.Element</title>
<path fill="#b3cde3" stroke="#b3cde3" stroke-width="2" d="M262.6667,-251.5C262.6667,-251.5 231.3333,-251.5 231.3333,-251.5 228.1667,-251.5 225,-248.3333 225,-245.1667 225,-245.1667 225,-238.8333 225,-238.8333 225,-235.6667 228.1667,-232.5 231.3333,-232.5 231.3333,-232.5 262.6667,-232.5 262.6667,-232.5 265.8333,-232.5 269,-235.6667 269,-238.8333 269,-238.8333 269,-245.1667 269,-245.1667 269,-248.3333 265.8333,-251.5 262.6667,-251.5"/>
<text text-anchor="middle" x="247" y="-239.5" font-family="Arial" font-size="10.00" fill="#000000">Element</text>
</g>
<!-- docutils.nodes.Node -->
<g id="node5" class="node">
<title>docutils.nodes.Node</title>
<path fill="#b3cde3" stroke="#b3cde3" stroke-width="2" d="M167.6667,-251.5C167.6667,-251.5 146.3333,-251.5 146.3333,-251.5 143.1667,-251.5 140,-248.3333 140,-245.1667 140,-245.1667 140,-238.8333 140,-238.8333 140,-235.6667 143.1667,-232.5 146.3333,-232.5 146.3333,-232.5 167.6667,-232.5 167.6667,-232.5 170.8333,-232.5 174,-235.6667 174,-238.8333 174,-238.8333 174,-245.1667 174,-245.1667 174,-248.3333 170.8333,-251.5 167.6667,-251.5"/>
<text text-anchor="middle" x="157" y="-239.5" font-family="Arial" font-size="10.00" fill="#000000">Node</text>
</g>
<!-- docutils.parsers.rst.Directive -->
<g id="node6" class="node">
<title>docutils.parsers.rst.Directive</title>
<g id="a_node6"><a xlink:href="http://www.sphinx-doc.org/en/master/extdev/markupapi.html#docutils.parsers.rst.Directive" xlink:title="Directive" target="_top">
<path fill="#ccebc5" stroke="#ccebc5" stroke-width="2" d="M173.6667,-140.5C173.6667,-140.5 140.3333,-140.5 140.3333,-140.5 137.1667,-140.5 134,-137.3333 134,-134.1667 134,-134.1667 134,-127.8333 134,-127.8333 134,-124.6667 137.1667,-121.5 140.3333,-121.5 140.3333,-121.5 173.6667,-121.5 173.6667,-121.5 176.8333,-121.5 180,-124.6667 180,-127.8333 180,-127.8333 180,-134.1667 180,-134.1667 180,-137.3333 176.8333,-140.5 173.6667,-140.5"/>
<text text-anchor="middle" x="157" y="-128.5" font-family="Arial" font-size="10.00" fill="#000000">Directive</text>
</a>
</g>
</g>
<!-- uqbar.book.sphinx.UqbarBookDefaultsDirective -->
<g id="node7" class="node">
<title>uqbar.book.sphinx.UqbarBookDefaultsDirective</title>
<g id="a_node7"><a xlink:href="../api/uqbar/book/sphinx.html#uqbar.book.sphinx.UqbarBookDefaultsDirective" xlink:title="Uqbar\nBook\nDefaults\nDirective" target="_top">
<path fill="#000000" stroke="#000000" stroke-width="2" d="M347,-128C347,-128 325,-128 325,-128 319,-128 313,-122 313,-116 313,-116 313,-88 313,-88 313,-82 319,-76 325,-76 325,-76 347,-76 347,-76 353,-76 359,-82 359,-88 359,-88 359,-116 359,-116 359,-122 353,-128 347,-128"/>
<text text-anchor="middle" x="336" y="-116" font-family="Arial" font-size="10.00" fill="#ffffff">Uqbar</text>
<text text-anchor="middle" x="336" y="-105" font-family="Arial" font-size="10.00" fill="#ffffff">Book</text>
<text text-anchor="middle" x="336" y="-94" font-family="Arial" font-size="10.00" fill="#ffffff">Defaults</text>
<text text-anchor="middle" x="336" y="-83" font-family="Arial" font-size="10.00" fill="#ffffff">Directive</text>
</a>
</g>
</g>
<!-- uqbar.book.sphinx.UqbarBookDirective -->
<g id="node8" class="node">
<title>uqbar.book.sphinx.UqbarBookDirective</title>
<g id="a_node8"><a xlink:href="../api/uqbar/book/sphinx.html#uqbar.book.sphinx.UqbarBookDirective" xlink:title="Uqbar\nBook\nDirective" target="_top">
<path fill="#000000" stroke="#000000" stroke-width="2" d="M347,-57.5C347,-57.5 325,-57.5 325,-57.5 319,-57.5 313,-51.5 313,-45.5 313,-45.5 313,-28.5 313,-28.5 313,-22.5 319,-16.5 325,-16.5 325,-16.5 347,-16.5 347,-16.5 353,-16.5 359,-22.5 359,-28.5 359,-28.5 359,-45.5 359,-45.5 359,-51.5 353,-57.5 347,-57.5"/>
<text text-anchor="middle" x="336" y="-45.5" font-family="Arial" font-size="10.00" fill="#ffffff">Uqbar</text>
<text text-anchor="middle" x="336" y="-34.5" font-family="Arial" font-size="10.00" fill="#ffffff">Book</text>
<text text-anchor="middle" x="336" y="-23.5" font-family="Arial" font-size="10.00" fill="#ffffff">Directive</text>
</a>
</g>
</g>
<!-- uqbar.book.sphinx.UqbarBookImportDirective -->
<g id="node9" class="node">
<title>uqbar.book.sphinx.UqbarBookImportDirective</title>
<g id="a_node9"><a xlink:href="../api/uqbar/book/sphinx.html#uqbar.book.sphinx.UqbarBookImportDirective" xlink:title="Uqbar\nBook\nImport\nDirective" target="_top">
<path fill="#000000" stroke="#000000" stroke-width="2" d="M347,-198C347,-198 325,-198 325,-198 319,-198 313,-192 313,-186 313,-186 313,-158 313,-158 313,-152 319,-146 325,-146 325,-146 347,-146 347,-146 353,-146 359,-152 359,-158 359,-158 359,-186 359,-186 359,-192 353,-198 347,-198"/>
<text text-anchor="middle" x="336" y="-186" font-family="Arial" font-size="10.00" fill="#ffffff">Uqbar</text>
<text text-anchor="middle" x="336" y="-175" font-family="Arial" font-size="10.00" fill="#ffffff">Book</text>
<text text-anchor="middle" x="336" y="-164" font-family="Arial" font-size="10.00" fill="#ffffff">Import</text>
<text text-anchor="middle" x="336" y="-153" font-family="Arial" font-size="10.00" fill="#ffffff">Directive</text>
</a>
</g>
</g>
<!-- uqbar.book.sphinx.uqbar_book_defaults_block -->
<g id="node10" class="node">
<title>uqbar.book.sphinx.uqbar_book_defaults_block</title>
<g id="a_node10"><a xlink:href="../api/uqbar/book/sphinx.html#uqbar.book.sphinx.uqbar_book_defaults_block" xlink:title="uqbar\nbook\ndefaults\nblock" target="_top">
<path fill="#000000" stroke="#000000" stroke-width="2" d="M345.5,-268C345.5,-268 326.5,-268 326.5,-268 320.5,-268 314.5,-262 314.5,-256 314.5,-256 314.5,-228 314.5,-228 314.5,-222 320.5,-216 326.5,-216 326.5,-216 345.5,-216 345.5,-216 351.5,-216 357.5,-222 357.5,-228 357.5,-228 357.5,-256 357.5,-256 357.5,-262 351.5,-268 345.5,-268"/>
<text text-anchor="middle" x="336" y="-256" font-family="Arial" font-size="10.00" fill="#ffffff">uqbar</text>
<text text-anchor="middle" x="336" y="-245" font-family="Arial" font-size="10.00" fill="#ffffff">book</text>
<text text-anchor="middle" x="336" y="-234" font-family="Arial" font-size="10.00" fill="#ffffff">defaults</text>
<text text-anchor="middle" x="336" y="-223" font-family="Arial" font-size="10.00" fill="#ffffff">block</text>
</a>
</g>
</g>
<!-- uqbar.book.sphinx.uqbar_book_import_block -->
<g id="node11" class="node">
<title>uqbar.book.sphinx.uqbar_book_import_block</title>
<g id="a_node11"><a xlink:href="../api/uqbar/book/sphinx.html#uqbar.book.sphinx.uqbar_book_import_block" xlink:title="uqbar\nbook\nimport\nblock" target="_top">
<path fill="#000000" stroke="#000000" stroke-width="2" d="M342.5,-338C342.5,-338 329.5,-338 329.5,-338 323.5,-338 317.5,-332 317.5,-326 317.5,-326 317.5,-298 317.5,-298 317.5,-292 323.5,-286 329.5,-286 329.5,-286 342.5,-286 342.5,-286 348.5,-286 354.5,-292 354.5,-298 354.5,-298 354.5,-326 354.5,-326 354.5,-332 348.5,-338 342.5,-338"/>
<text text-anchor="middle" x="336" y="-326" font-family="Arial" font-size="10.00" fill="#ffffff">uqbar</text>
<text text-anchor="middle" x="336" y="-315" font-family="Arial" font-size="10.00" fill="#ffffff">book</text>
<text text-anchor="middle" x="336" y="-304" font-family="Arial" font-size="10.00" fill="#ffffff">import</text>
<text text-anchor="middle" x="336" y="-293" font-family="Arial" font-size="10.00" fill="#ffffff">block</text>
</a>
</g>
</g>
</g>
</svg>
