<?xml version="1.0" encoding="UTF-8" standalone="no"?>
<!DOCTYPE svg PUBLIC "-//W3C//DTD SVG 1.1//EN"
 "http://www.w3.org/Graphics/SVG/1.1/DTD/svg11.dtd">
<!-- Generated by graphviz version 2.40.1 (20161225.0304)
 -->
<!-- Title: InheritanceGraph Pages: 1 -->
<svg width="475pt" height="564pt"
 viewBox="0.00 0.00 475.00 564.00" xmlns="http://www.w3.org/2000/svg" xmlns:xlink="http://www.w3.org/1999/xlink">
<g id="graph0" class="graph" transform="scale(1 1) rotate(0) translate(4 560)">
<title>InheritanceGraph</title>
<g id="clust1" class="cluster">
<title>cluster_builtins</title>
<path fill="transparent" stroke="#bcd2ee" stroke-width="2" stroke-dasharray="5,2" d="M20,-422C20,-422 49,-422 49,-422 55,-422 61,-428 61,-434 61,-434 61,-465 61,-465 61,-471 55,-477 49,-477 49,-477 20,-477 20,-477 14,-477 8,-471 8,-465 8,-465 8,-434 8,-434 8,-428 14,-422 20,-422"/>
<text text-anchor="middle" x="34.5" y="-465" font-family="Arial" font-size="10.00" fill="#000000">builtins</text>
</g>
<g id="clust2" class="cluster">
<title>cluster_uqbar.apis</title>
<path fill="transparent" stroke="#bcd2ee" stroke-width="2" stroke-dasharray="5,2" d="M330,-259C330,-259 368,-259 368,-259 374,-259 380,-265 380,-271 380,-271 380,-312 380,-312 380,-318 374,-324 368,-324 368,-324 330,-324 330,-324 324,-324 318,-318 318,-312 318,-312 318,-271 318,-271 318,-265 324,-259 330,-259"/>
<text text-anchor="middle" x="349" y="-312" font-family="Arial" font-size="10.00" fill="#000000">uqbar.apis</text>
</g>
<g id="clust3" class="cluster">
<title>cluster_uqbar.containers</title>
<path fill="transparent" stroke="#bcd2ee" stroke-width="2" stroke-dasharray="5,2" d="M93,-332C93,-332 365,-332 365,-332 371,-332 377,-338 377,-344 377,-344 377,-536 377,-536 377,-542 371,-548 365,-548 365,-548 93,-548 93,-548 87,-548 81,-542 81,-536 81,-536 81,-344 81,-344 81,-338 87,-332 93,-332"/>
<text text-anchor="middle" x="229" y="-536" font-family="Arial" font-size="10.00" fill="#000000">uqbar.containers</text>
</g>
<g id="clust4" class="cluster">
<title>cluster_uqbar.graphs</title>
<path fill="transparent" stroke="#bcd2ee" stroke-width="2" stroke-dasharray="5,2" d="M412,-8C412,-8 449,-8 449,-8 455,-8 461,-14 461,-20 461,-20 461,-270 461,-270 461,-276 455,-282 449,-282 449,-282 412,-282 412,-282 406,-282 400,-276 400,-270 400,-270 400,-20 400,-20 400,-14 406,-8 412,-8"/>
<text text-anchor="middle" x="430.5" y="-270" font-family="Arial" font-size="10.00" fill="#000000">uqbar.graphs</text>
</g>
<!-- builtins.object&#45;&gt;uqbar.containers.UniqueTreeNode.UniqueTreeNode -->
<g id="edge6" class="edge">
<title>builtins.object&#45;&gt;uqbar.containers.UniqueTreeNode.UniqueTreeNode</title>
<path fill="none" stroke="#778899" d="M53.2995,-440C61.0221,-440 70.1602,-440 78.7776,-440"/>
<polygon fill="#778899" stroke="#778899" points="78.9006,-443.5001 88.9006,-440 78.9005,-436.5001 78.9006,-443.5001"/>
</g>
<!-- uqbar.containers.UniqueTreeContainer.UniqueTreeContainer&#45;&gt;uqbar.containers.UniqueTreeDict.UniqueTreeDict -->
<g id="edge1" class="edge">
<title>uqbar.containers.UniqueTreeContainer.UniqueTreeContainer&#45;&gt;uqbar.containers.UniqueTreeDict.UniqueTreeDict</title>
<path fill="none" stroke="#778899" d="M210.6504,-419.2437C220.3966,-409.6791 232.0877,-398.2059 242.5068,-387.9809"/>
<polygon fill="#778899" stroke="#778899" points="245.137,-390.3036 249.8228,-380.8012 240.234,-385.3075 245.137,-390.3036"/>
</g>
<!-- uqbar.containers.UniqueTreeContainer.UniqueTreeContainer&#45;&gt;uqbar.containers.UniqueTreeList.UniqueTreeList -->
<g id="edge2" class="edge">
<title>uqbar.containers.UniqueTreeContainer.UniqueTreeContainer&#45;&gt;uqbar.containers.UniqueTreeList.UniqueTreeList</title>
<path fill="none" stroke="#778899" d="M214.0901,-433.8907C222.2423,-431.8653 231.41,-429.5876 239.927,-427.4716"/>
<polygon fill="#778899" stroke="#778899" points="241.0201,-430.8065 249.8811,-424.9985 239.3322,-424.013 241.0201,-430.8065"/>
</g>
<!-- uqbar.containers.UniqueTreeContainer.UniqueTreeContainer&#45;&gt;uqbar.containers.UniqueTreeSet.UniqueTreeSet -->
<g id="edge3" class="edge">
<title>uqbar.containers.UniqueTreeContainer.UniqueTreeContainer&#45;&gt;uqbar.containers.UniqueTreeSet.UniqueTreeSet</title>
<path fill="none" stroke="#778899" d="M214.1731,-444.4403C225.1231,-446.3173 238.1806,-448.4278 250,-450 272.9731,-453.0558 299.0562,-455.6551 318.6807,-457.4371"/>
<polygon fill="#778899" stroke="#778899" points="318.5875,-460.9425 328.8579,-458.3408 319.2067,-453.97 318.5875,-460.9425"/>
</g>
<!-- uqbar.containers.UniqueTreeContainer.UniqueTreeContainer&#45;&gt;uqbar.containers.UniqueTreeTuple.UniqueTreeTuple -->
<g id="edge4" class="edge">
<title>uqbar.containers.UniqueTreeContainer.UniqueTreeContainer&#45;&gt;uqbar.containers.UniqueTreeTuple.UniqueTreeTuple</title>
<path fill="none" stroke="#778899" d="M214.0901,-458.328C222.7798,-464.8048 232.6233,-472.1416 241.6027,-478.8343"/>
<polygon fill="#778899" stroke="#778899" points="239.7716,-481.8347 249.8811,-485.0046 243.9549,-476.2222 239.7716,-481.8347"/>
</g>
<!-- uqbar.containers.UniqueTreeList.UniqueTreeList&#45;&gt;uqbar.apis.PackageNode.PackageNode -->
<g id="edge7" class="edge">
<title>uqbar.containers.UniqueTreeList.UniqueTreeList&#45;&gt;uqbar.apis.PackageNode.PackageNode</title>
<path fill="none" stroke="#778899" d="M284.8968,-399.3881C286.6961,-396.6177 288.4447,-393.774 290,-391 304.9846,-364.2731 303.1593,-354.807 318,-328 322.1324,-320.5357 327.1172,-312.7285 331.8697,-305.7098"/>
<polygon fill="#778899" stroke="#778899" points="334.8609,-307.5383 337.6834,-297.3263 329.1087,-303.5492 334.8609,-307.5383"/>
</g>
<!-- uqbar.containers.UniqueTreeList.UniqueTreeList&#45;&gt;uqbar.graphs.Graph.Graph -->
<g id="edge8" class="edge">
<title>uqbar.containers.UniqueTreeList.UniqueTreeList&#45;&gt;uqbar.graphs.Graph.Graph</title>
<path fill="none" stroke="#778899" d="M285.6774,-399.3502C287.3052,-396.6327 288.7996,-393.8125 290,-391 314.2248,-334.2413 271.9398,-296.0713 318,-255 340.538,-234.9032 376.6712,-235.3666 401.8868,-238.9263"/>
<polygon fill="#778899" stroke="#778899" points="401.5167,-242.4125 411.9537,-240.5905 402.6585,-235.5062 401.5167,-242.4125"/>
</g>
<!-- uqbar.containers.UniqueTreeList.UniqueTreeList&#45;&gt;uqbar.graphs.Node.Node -->
<g id="edge9" class="edge">
<title>uqbar.containers.UniqueTreeList.UniqueTreeList&#45;&gt;uqbar.graphs.Node.Node</title>
<path fill="none" stroke="#778899" d="M285.7531,-399.3819C287.3679,-396.6589 288.8386,-393.8288 290,-391 317.0854,-325.0272 268.6746,-284.5075 318,-233 339.7951,-210.2407 377.3548,-206.0232 403.0315,-206.147"/>
<polygon fill="#778899" stroke="#778899" points="403.1361,-209.6511 413.2276,-206.4245 403.3266,-202.6537 403.1361,-209.6511"/>
</g>
<!-- uqbar.containers.UniqueTreeList.UniqueTreeList&#45;&gt;uqbar.graphs.RecordGroup.RecordGroup -->
<g id="edge10" class="edge">
<title>uqbar.containers.UniqueTreeList.UniqueTreeList&#45;&gt;uqbar.graphs.RecordGroup.RecordGroup</title>
<path fill="none" stroke="#778899" d="M285.829,-399.4124C287.4308,-396.6842 288.8777,-393.8446 290,-391 321.0045,-312.4181 263.808,-267.8045 318,-203 338.1083,-178.9539 374.0172,-170.0666 399.8635,-166.8139"/>
<polygon fill="#778899" stroke="#778899" points="400.3234,-170.285 409.9059,-165.7655 399.5965,-163.3229 400.3234,-170.285"/>
</g>
<!-- uqbar.containers.UniqueTreeList.UniqueTreeList&#45;&gt;uqbar.graphs.Table.Table -->
<g id="edge11" class="edge">
<title>uqbar.containers.UniqueTreeList.UniqueTreeList&#45;&gt;uqbar.graphs.Table.Table</title>
<path fill="none" stroke="#778899" d="M285.8956,-399.4382C287.486,-396.7056 288.9119,-393.8579 290,-391 325.8553,-296.8232 256.1444,-245.5534 318,-166 338.3655,-139.8076 376.5238,-129.1844 402.7061,-124.8903"/>
<polygon fill="#778899" stroke="#778899" points="403.3643,-128.3319 412.7683,-123.4517 402.3735,-121.4024 403.3643,-128.3319"/>
</g>
<!-- uqbar.containers.UniqueTreeList.UniqueTreeList&#45;&gt;uqbar.graphs.TableCell.TableCell -->
<g id="edge12" class="edge">
<title>uqbar.containers.UniqueTreeList.UniqueTreeList&#45;&gt;uqbar.graphs.TableCell.TableCell</title>
<path fill="none" stroke="#778899" d="M285.9471,-399.4576C287.5287,-396.7217 288.9385,-393.8678 290,-391 310.5559,-335.4656 282.6283,-173.4917 318,-126 338.0028,-99.1434 376.2467,-87.5312 402.5473,-82.5785"/>
<polygon fill="#778899" stroke="#778899" points="403.3731,-85.9891 412.6592,-80.8881 402.2189,-79.0849 403.3731,-85.9891"/>
</g>
<!-- uqbar.containers.UniqueTreeList.UniqueTreeList&#45;&gt;uqbar.graphs.TableRow.TableRow -->
<g id="edge13" class="edge">
<title>uqbar.containers.UniqueTreeList.UniqueTreeList&#45;&gt;uqbar.graphs.TableRow.TableRow</title>
<path fill="none" stroke="#778899" d="M285.9871,-399.4722C287.5618,-396.7338 288.959,-393.8753 290,-391 313.3198,-326.5859 278.714,-140.1213 318,-84 337.7841,-55.7378 376.7002,-42.1082 403.157,-35.8554"/>
<polygon fill="#778899" stroke="#778899" points="403.9246,-39.2704 412.9604,-33.7383 402.4469,-32.4281 403.9246,-39.2704"/>
</g>
<!-- uqbar.containers.UniqueTreeNode.UniqueTreeNode&#45;&gt;uqbar.containers.UniqueTreeContainer.UniqueTreeContainer -->
<g id="edge5" class="edge">
<title>uqbar.containers.UniqueTreeNode.UniqueTreeNode&#45;&gt;uqbar.containers.UniqueTreeContainer.UniqueTreeContainer</title>
<path fill="none" stroke="#778899" d="M129.3135,-440C136.9959,-440 145.9745,-440 154.617,-440"/>
<polygon fill="#778899" stroke="#778899" points="154.8826,-443.5001 164.8825,-440 154.8825,-436.5001 154.8826,-443.5001"/>
</g>
<!-- builtins.object -->
<g id="node1" class="node">
<title>builtins.object</title>
<g id="a_node1"><a xlink:href="https://docs.python.org/3.6/library/functions.html#object" xlink:title="object" target="_top">
<path fill="#fbb4ae" stroke="#fbb4ae" stroke-width="2" d="M46.6667,-449.5C46.6667,-449.5 22.3333,-449.5 22.3333,-449.5 19.1667,-449.5 16,-446.3333 16,-443.1667 16,-443.1667 16,-436.8333 16,-436.8333 16,-433.6667 19.1667,-430.5 22.3333,-430.5 22.3333,-430.5 46.6667,-430.5 46.6667,-430.5 49.8333,-430.5 53,-433.6667 53,-436.8333 53,-436.8333 53,-443.1667 53,-443.1667 53,-446.3333 49.8333,-449.5 46.6667,-449.5"/>
<text text-anchor="middle" x="34.5" y="-437.5" font-family="Arial" font-size="10.00" fill="#000000">object</text>
</a>
</g>
</g>
<!-- uqbar.apis.PackageNode.PackageNode -->
<g id="node2" class="node">
<title>uqbar.apis.PackageNode.PackageNode</title>
<g id="a_node2"><a xlink:href="../api/uqbar/containers/../apis/PackageNode.html#uqbar.apis.PackageNode.PackageNode" xlink:title="Package\nNode" target="_top">
<path fill="#b3cde3" stroke="#b3cde3" stroke-width="2" d="M362,-297C362,-297 336,-297 336,-297 331,-297 326,-292 326,-287 326,-287 326,-277 326,-277 326,-272 331,-267 336,-267 336,-267 362,-267 362,-267 367,-267 372,-272 372,-277 372,-277 372,-287 372,-287 372,-292 367,-297 362,-297"/>
<text text-anchor="middle" x="349" y="-285" font-family="Arial" font-size="10.00" fill="#000000">Package</text>
<text text-anchor="middle" x="349" y="-274" font-family="Arial" font-size="10.00" fill="#000000">Node</text>
</a>
</g>
</g>
<!-- uqbar.containers.UniqueTreeContainer.UniqueTreeContainer -->
<g id="node3" class="node">
<title>uqbar.containers.UniqueTreeContainer.UniqueTreeContainer</title>
<g id="a_node3"><a xlink:href="../api/uqbar/containers/UniqueTreeContainer.html#uqbar.containers.UniqueTreeContainer.UniqueTreeContainer" xlink:title="Unique\nTree\nContainer" target="_top">
<path fill="#000000" stroke="#000000" stroke-width="2" d="M202,-460.5C202,-460.5 177,-460.5 177,-460.5 171,-460.5 165,-454.5 165,-448.5 165,-448.5 165,-431.5 165,-431.5 165,-425.5 171,-419.5 177,-419.5 177,-419.5 202,-419.5 202,-419.5 208,-419.5 214,-425.5 214,-431.5 214,-431.5 214,-448.5 214,-448.5 214,-454.5 208,-460.5 202,-460.5"/>
<text text-anchor="middle" x="189.5" y="-448.5" font-family="Arial" font-size="10.00" fill="#ffffff">Unique</text>
<text text-anchor="middle" x="189.5" y="-437.5" font-family="Arial" font-size="10.00" fill="#ffffff">Tree</text>
<text text-anchor="middle" x="189.5" y="-426.5" font-family="Arial" font-size="10.00" fill="#ffffff">Container</text>
</a>
</g>
</g>
<!-- uqbar.containers.UniqueTreeDict.UniqueTreeDict -->
<g id="node4" class="node">
<title>uqbar.containers.UniqueTreeDict.UniqueTreeDict</title>
<g id="a_node4"><a xlink:href="../api/uqbar/containers/UniqueTreeDict.html#uqbar.containers.UniqueTreeDict.UniqueTreeDict" xlink:title="Unique\nTree\nDict" target="_top">
<path fill="#ccebc5" stroke="#ccebc5" stroke-width="2" d="M278,-381.5C278,-381.5 262,-381.5 262,-381.5 256,-381.5 250,-375.5 250,-369.5 250,-369.5 250,-352.5 250,-352.5 250,-346.5 256,-340.5 262,-340.5 262,-340.5 278,-340.5 278,-340.5 284,-340.5 290,-346.5 290,-352.5 290,-352.5 290,-369.5 290,-369.5 290,-375.5 284,-381.5 278,-381.5"/>
<text text-anchor="middle" x="270" y="-369.5" font-family="Arial" font-size="10.00" fill="#000000">Unique</text>
<text text-anchor="middle" x="270" y="-358.5" font-family="Arial" font-size="10.00" fill="#000000">Tree</text>
<text text-anchor="middle" x="270" y="-347.5" font-family="Arial" font-size="10.00" fill="#000000">Dict</text>
</a>
</g>
</g>
<!-- uqbar.containers.UniqueTreeList.UniqueTreeList -->
<g id="node5" class="node">
<title>uqbar.containers.UniqueTreeList.UniqueTreeList</title>
<g id="a_node5"><a xlink:href="../api/uqbar/containers/UniqueTreeList.html#uqbar.containers.UniqueTreeList.UniqueTreeList" xlink:title="Unique\nTree\nList" target="_top">
<path fill="#ccebc5" stroke="#ccebc5" stroke-width="2" d="M278,-440.5C278,-440.5 262,-440.5 262,-440.5 256,-440.5 250,-434.5 250,-428.5 250,-428.5 250,-411.5 250,-411.5 250,-405.5 256,-399.5 262,-399.5 262,-399.5 278,-399.5 278,-399.5 284,-399.5 290,-405.5 290,-411.5 290,-411.5 290,-428.5 290,-428.5 290,-434.5 284,-440.5 278,-440.5"/>
<text text-anchor="middle" x="270" y="-428.5" font-family="Arial" font-size="10.00" fill="#000000">Unique</text>
<text text-anchor="middle" x="270" y="-417.5" font-family="Arial" font-size="10.00" fill="#000000">Tree</text>
<text text-anchor="middle" x="270" y="-406.5" font-family="Arial" font-size="10.00" fill="#000000">List</text>
</a>
</g>
</g>
<!-- uqbar.containers.UniqueTreeSet.UniqueTreeSet -->
<g id="node6" class="node">
<title>uqbar.containers.UniqueTreeSet.UniqueTreeSet</title>
<g id="a_node6"><a xlink:href="../api/uqbar/containers/UniqueTreeSet.html#uqbar.containers.UniqueTreeSet.UniqueTreeSet" xlink:title="Unique\nTree\nSet" target="_top">
<path fill="#ccebc5" stroke="#ccebc5" stroke-width="2" d="M357,-480.5C357,-480.5 341,-480.5 341,-480.5 335,-480.5 329,-474.5 329,-468.5 329,-468.5 329,-451.5 329,-451.5 329,-445.5 335,-439.5 341,-439.5 341,-439.5 357,-439.5 357,-439.5 363,-439.5 369,-445.5 369,-451.5 369,-451.5 369,-468.5 369,-468.5 369,-474.5 363,-480.5 357,-480.5"/>
<text text-anchor="middle" x="349" y="-468.5" font-family="Arial" font-size="10.00" fill="#000000">Unique</text>
<text text-anchor="middle" x="349" y="-457.5" font-family="Arial" font-size="10.00" fill="#000000">Tree</text>
<text text-anchor="middle" x="349" y="-446.5" font-family="Arial" font-size="10.00" fill="#000000">Set</text>
</a>
</g>
</g>
<!-- uqbar.containers.UniqueTreeTuple.UniqueTreeTuple -->
<g id="node7" class="node">
<title>uqbar.containers.UniqueTreeTuple.UniqueTreeTuple</title>
<g id="a_node7"><a xlink:href="../api/uqbar/containers/UniqueTreeTuple.html#uqbar.containers.UniqueTreeTuple.UniqueTreeTuple" xlink:title="Unique\nTree\nTuple" target="_top">
<path fill="#ccebc5" stroke="#ccebc5" stroke-width="2" d="M278,-520.5C278,-520.5 262,-520.5 262,-520.5 256,-520.5 250,-514.5 250,-508.5 250,-508.5 250,-491.5 250,-491.5 250,-485.5 256,-479.5 262,-479.5 262,-479.5 278,-479.5 278,-479.5 284,-479.5 290,-485.5 290,-491.5 290,-491.5 290,-508.5 290,-508.5 290,-514.5 284,-520.5 278,-520.5"/>
<text text-anchor="middle" x="270" y="-508.5" font-family="Arial" font-size="10.00" fill="#000000">Unique</text>
<text text-anchor="middle" x="270" y="-497.5" font-family="Arial" font-size="10.00" fill="#000000">Tree</text>
<text text-anchor="middle" x="270" y="-486.5" font-family="Arial" font-size="10.00" fill="#000000">Tuple</text>
</a>
</g>
</g>
<!-- uqbar.containers.UniqueTreeNode.UniqueTreeNode -->
<g id="node8" class="node">
<title>uqbar.containers.UniqueTreeNode.UniqueTreeNode</title>
<g id="a_node8"><a xlink:href="../api/uqbar/containers/UniqueTreeNode.html#uqbar.containers.UniqueTreeNode.UniqueTreeNode" xlink:title="Unique\nTree\nNode" target="_top">
<path fill="#ccebc5" stroke="#ccebc5" stroke-width="2" d="M117,-460.5C117,-460.5 101,-460.5 101,-460.5 95,-460.5 89,-454.5 89,-448.5 89,-448.5 89,-431.5 89,-431.5 89,-425.5 95,-419.5 101,-419.5 101,-419.5 117,-419.5 117,-419.5 123,-419.5 129,-425.5 129,-431.5 129,-431.5 129,-448.5 129,-448.5 129,-454.5 123,-460.5 117,-460.5"/>
<text text-anchor="middle" x="109" y="-448.5" font-family="Arial" font-size="10.00" fill="#000000">Unique</text>
<text text-anchor="middle" x="109" y="-437.5" font-family="Arial" font-size="10.00" fill="#000000">Tree</text>
<text text-anchor="middle" x="109" y="-426.5" font-family="Arial" font-size="10.00" fill="#000000">Node</text>
</a>
</g>
</g>
<!-- uqbar.graphs.Graph.Graph -->
<g id="node9" class="node">
<title>uqbar.graphs.Graph.Graph</title>
<g id="a_node9"><a xlink:href="../api/uqbar/containers/../graphs/Graph.html#uqbar.graphs.Graph.Graph" xlink:title="Graph" target="_top">
<path fill="#decbe4" stroke="#decbe4" stroke-width="2" d="M442.6667,-254.5C442.6667,-254.5 418.3333,-254.5 418.3333,-254.5 415.1667,-254.5 412,-251.3333 412,-248.1667 412,-248.1667 412,-241.8333 412,-241.8333 412,-238.6667 415.1667,-235.5 418.3333,-235.5 418.3333,-235.5 442.6667,-235.5 442.6667,-235.5 445.8333,-235.5 449,-238.6667 449,-241.8333 449,-241.8333 449,-248.1667 449,-248.1667 449,-251.3333 445.8333,-254.5 442.6667,-254.5"/>
<text text-anchor="middle" x="430.5" y="-242.5" font-family="Arial" font-size="10.00" fill="#000000">Graph</text>
</a>
</g>
</g>
<!-- uqbar.graphs.Node.Node -->
<g id="node10" class="node">
<title>uqbar.graphs.Node.Node</title>
<g id="a_node10"><a xlink:href="../api/uqbar/containers/../graphs/Node.html#uqbar.graphs.Node.Node" xlink:title="Node" target="_top">
<path fill="#decbe4" stroke="#decbe4" stroke-width="2" d="M441.1667,-217.5C441.1667,-217.5 419.8333,-217.5 419.8333,-217.5 416.6667,-217.5 413.5,-214.3333 413.5,-211.1667 413.5,-211.1667 413.5,-204.8333 413.5,-204.8333 413.5,-201.6667 416.6667,-198.5 419.8333,-198.5 419.8333,-198.5 441.1667,-198.5 441.1667,-198.5 444.3333,-198.5 447.5,-201.6667 447.5,-204.8333 447.5,-204.8333 447.5,-211.1667 447.5,-211.1667 447.5,-214.3333 444.3333,-217.5 441.1667,-217.5"/>
<text text-anchor="middle" x="430.5" y="-205.5" font-family="Arial" font-size="10.00" fill="#000000">Node</text>
</a>
</g>
</g>
<!-- uqbar.graphs.RecordGroup.RecordGroup -->
<g id="node11" class="node">
<title>uqbar.graphs.RecordGroup.RecordGroup</title>
<g id="a_node11"><a xlink:href="../api/uqbar/containers/../graphs/RecordGroup.html#uqbar.graphs.RecordGroup.RecordGroup" xlink:title="Record\nGroup" target="_top">
<path fill="#decbe4" stroke="#decbe4" stroke-width="2" d="M441,-180C441,-180 420,-180 420,-180 415,-180 410,-175 410,-170 410,-170 410,-160 410,-160 410,-155 415,-150 420,-150 420,-150 441,-150 441,-150 446,-150 451,-155 451,-160 451,-160 451,-170 451,-170 451,-175 446,-180 441,-180"/>
<text text-anchor="middle" x="430.5" y="-168" font-family="Arial" font-size="10.00" fill="#000000">Record</text>
<text text-anchor="middle" x="430.5" y="-157" font-family="Arial" font-size="10.00" fill="#000000">Group</text>
</a>
</g>
</g>
<!-- uqbar.graphs.Table.Table -->
<g id="node12" class="node">
<title>uqbar.graphs.Table.Table</title>
<g id="a_node12"><a xlink:href="../api/uqbar/containers/../graphs/Table.html#uqbar.graphs.Table.Table" xlink:title="Table" target="_top">
<path fill="#decbe4" stroke="#decbe4" stroke-width="2" d="M441.6667,-131.5C441.6667,-131.5 419.3333,-131.5 419.3333,-131.5 416.1667,-131.5 413,-128.3333 413,-125.1667 413,-125.1667 413,-118.8333 413,-118.8333 413,-115.6667 416.1667,-112.5 419.3333,-112.5 419.3333,-112.5 441.6667,-112.5 441.6667,-112.5 444.8333,-112.5 448,-115.6667 448,-118.8333 448,-118.8333 448,-125.1667 448,-125.1667 448,-128.3333 444.8333,-131.5 441.6667,-131.5"/>
<text text-anchor="middle" x="430.5" y="-119.5" font-family="Arial" font-size="10.00" fill="#000000">Table</text>
</a>
</g>
</g>
<!-- uqbar.graphs.TableCell.TableCell -->
<g id="node13" class="node">
<title>uqbar.graphs.TableCell.TableCell</title>
<g id="a_node13"><a xlink:href="../api/uqbar/containers/../graphs/TableCell.html#uqbar.graphs.TableCell.TableCell" xlink:title="Table\nCell" target="_top">
<path fill="#decbe4" stroke="#decbe4" stroke-width="2" d="M438,-94C438,-94 423,-94 423,-94 418,-94 413,-89 413,-84 413,-84 413,-74 413,-74 413,-69 418,-64 423,-64 423,-64 438,-64 438,-64 443,-64 448,-69 448,-74 448,-74 448,-84 448,-84 448,-89 443,-94 438,-94"/>
<text text-anchor="middle" x="430.5" y="-82" font-family="Arial" font-size="10.00" fill="#000000">Table</text>
<text text-anchor="middle" x="430.5" y="-71" font-family="Arial" font-size="10.00" fill="#000000">Cell</text>
</a>
</g>
</g>
<!-- uqbar.graphs.TableRow.TableRow -->
<g id="node14" class="node">
<title>uqbar.graphs.TableRow.TableRow</title>
<g id="a_node14"><a xlink:href="../api/uqbar/containers/../graphs/TableRow.html#uqbar.graphs.TableRow.TableRow" xlink:title="Table\nRow" target="_top">
<path fill="#decbe4" stroke="#decbe4" stroke-width="2" d="M438,-46C438,-46 423,-46 423,-46 418,-46 413,-41 413,-36 413,-36 413,-26 413,-26 413,-21 418,-16 423,-16 423,-16 438,-16 438,-16 443,-16 448,-21 448,-26 448,-26 448,-36 448,-36 448,-41 443,-46 438,-46"/>
<text text-anchor="middle" x="430.5" y="-34" font-family="Arial" font-size="10.00" fill="#000000">Table</text>
<text text-anchor="middle" x="430.5" y="-23" font-family="Arial" font-size="10.00" fill="#000000">Row</text>
</a>
</g>
</g>
</g>
</svg>
