<?xml version="1.0" encoding="UTF-8" standalone="no"?>
<!DOCTYPE svg PUBLIC "-//W3C//DTD SVG 1.1//EN"
 "http://www.w3.org/Graphics/SVG/1.1/DTD/svg11.dtd">
<!-- Generated by graphviz version 2.44.0 (20200408.0750)
 -->
<!-- Title: InheritanceGraph Pages: 1 -->
<svg width="523pt" height="340pt"
 viewBox="0.00 0.00 523.00 340.00" xmlns="http://www.w3.org/2000/svg" xmlns:xlink="http://www.w3.org/1999/xlink">
<g id="graph0" class="graph" transform="scale(1 1) rotate(0) translate(4 336)">
<title>InheritanceGraph</title>
<g id="clust1" class="cluster">
<title>cluster_builtins</title>
<path fill="transparent" stroke="#bcd2ee" stroke-width="2" stroke-dasharray="5,2" d="M20,-145C20,-145 55,-145 55,-145 61,-145 67,-151 67,-157 67,-157 67,-188 67,-188 67,-194 61,-200 55,-200 55,-200 20,-200 20,-200 14,-200 8,-194 8,-188 8,-188 8,-157 8,-157 8,-151 14,-145 20,-145"/>
<text text-anchor="middle" x="37.5" y="-188" font-family="Arial" font-size="10.00">builtins</text>
</g>
<g id="clust2" class="cluster">
<title>cluster_uqbar.apis</title>
<path fill="transparent" stroke="#bcd2ee" stroke-width="2" stroke-dasharray="5,2" d="M360,-259C360,-259 407,-259 407,-259 413,-259 419,-265 419,-271 419,-271 419,-312 419,-312 419,-318 413,-324 407,-324 407,-324 360,-324 360,-324 354,-324 348,-318 348,-312 348,-312 348,-271 348,-271 348,-265 354,-259 360,-259"/>
<text text-anchor="middle" x="383.5" y="-312" font-family="Arial" font-size="10.00">uqbar.apis</text>
</g>
<g id="clust3" class="cluster">
<title>cluster_uqbar.containers</title>
<path fill="transparent" stroke="#bcd2ee" stroke-width="2" stroke-dasharray="5,2" d="M99,-134C99,-134 316,-134 316,-134 322,-134 328,-140 328,-146 328,-146 328,-199 328,-199 328,-205 322,-211 316,-211 316,-211 99,-211 99,-211 93,-211 87,-205 87,-199 87,-199 87,-146 87,-146 87,-140 93,-134 99,-134"/>
<text text-anchor="middle" x="207.5" y="-199" font-family="Arial" font-size="10.00">uqbar.containers</text>
</g>
<g id="clust4" class="cluster">
<title>cluster_uqbar.graphs</title>
<path fill="transparent" stroke="#bcd2ee" stroke-width="2" stroke-dasharray="5,2" d="M451,-8C451,-8 500,-8 500,-8 506,-8 512,-14 512,-20 512,-20 512,-270 512,-270 512,-276 506,-282 500,-282 500,-282 451,-282 451,-282 445,-282 439,-276 439,-270 439,-270 439,-20 439,-20 439,-14 445,-8 451,-8"/>
<text text-anchor="middle" x="475.5" y="-270" font-family="Arial" font-size="10.00">uqbar.graphs</text>
</g>
<!-- builtins.object&#45;&gt;uqbar.containers.UniqueTreeNode.UniqueTreeNode -->
<g id="edge3" class="edge">
<title>builtins.object&#45;&gt;uqbar.containers.UniqueTreeNode.UniqueTreeNode</title>
<path fill="none" stroke="lightslategrey" d="M59.26,-163C67.06,-163 76.13,-163 84.75,-163"/>
<polygon fill="lightslategrey" stroke="lightslategrey" points="84.94,-166.5 94.94,-163 84.94,-159.5 84.94,-166.5"/>
</g>
<!-- uqbar.containers.UniqueTreeContainer.UniqueTreeContainer&#45;&gt;uqbar.containers.UniqueTreeList.UniqueTreeList -->
<g id="edge1" class="edge">
<title>uqbar.containers.UniqueTreeContainer.UniqueTreeContainer&#45;&gt;uqbar.containers.UniqueTreeList.UniqueTreeList</title>
<path fill="none" stroke="lightslategrey" d="M237.47,-163C245.6,-163 254.5,-163 262.83,-163"/>
<polygon fill="lightslategrey" stroke="lightslategrey" points="262.98,-166.5 272.98,-163 262.98,-159.5 262.98,-166.5"/>
</g>
<!-- uqbar.containers.UniqueTreeList.UniqueTreeList&#45;&gt;uqbar.apis.PackageNode.PackageNode -->
<g id="edge4" class="edge">
<title>uqbar.containers.UniqueTreeList.UniqueTreeList&#45;&gt;uqbar.apis.PackageNode.PackageNode</title>
<path fill="none" stroke="lightslategrey" d="M306.44,-183.61C315.32,-202.76 330.18,-231.47 348,-253 349.92,-255.32 352.04,-257.59 354.26,-259.78"/>
<polygon fill="lightslategrey" stroke="lightslategrey" points="352.28,-262.72 362.02,-266.87 356.99,-257.54 352.28,-262.72"/>
</g>
<!-- uqbar.containers.UniqueTreeList.UniqueTreeList&#45;&gt;uqbar.graphs.Graph.Graph -->
<g id="edge5" class="edge">
<title>uqbar.containers.UniqueTreeList.UniqueTreeList&#45;&gt;uqbar.graphs.Graph.Graph</title>
<path fill="none" stroke="lightslategrey" d="M320.04,-181.04C328.49,-187.26 338.38,-193.93 348,-199 379.11,-215.38 417.34,-228.44 443.48,-236.39"/>
<polygon fill="lightslategrey" stroke="lightslategrey" points="442.62,-239.79 453.21,-239.29 444.62,-233.08 442.62,-239.79"/>
</g>
<!-- uqbar.containers.UniqueTreeList.UniqueTreeList&#45;&gt;uqbar.graphs.Node.Node -->
<g id="edge6" class="edge">
<title>uqbar.containers.UniqueTreeList.UniqueTreeList&#45;&gt;uqbar.graphs.Node.Node</title>
<path fill="none" stroke="lightslategrey" d="M320.09,-169.41C328.8,-171.85 338.85,-174.61 348,-177 381.14,-185.67 419.36,-194.98 444.94,-201.1"/>
<polygon fill="lightslategrey" stroke="lightslategrey" points="444.2,-204.53 454.74,-203.45 445.83,-197.72 444.2,-204.53"/>
</g>
<!-- uqbar.containers.UniqueTreeList.UniqueTreeList&#45;&gt;uqbar.graphs.RecordGroup.RecordGroup -->
<g id="edge7" class="edge">
<title>uqbar.containers.UniqueTreeList.UniqueTreeList&#45;&gt;uqbar.graphs.RecordGroup.RecordGroup</title>
<path fill="none" stroke="lightslategrey" d="M320.21,-163.26C350.76,-163.6 405.3,-164.22 440.54,-164.62"/>
<polygon fill="lightslategrey" stroke="lightslategrey" points="440.77,-168.12 450.81,-164.74 440.85,-161.12 440.77,-168.12"/>
</g>
<!-- uqbar.containers.UniqueTreeList.UniqueTreeList&#45;&gt;uqbar.graphs.Table.Table -->
<g id="edge8" class="edge">
<title>uqbar.containers.UniqueTreeList.UniqueTreeList&#45;&gt;uqbar.graphs.Table.Table</title>
<path fill="none" stroke="lightslategrey" d="M320.21,-157.72C352.02,-150.33 409.86,-136.9 444.82,-128.78"/>
<polygon fill="lightslategrey" stroke="lightslategrey" points="445.94,-132.11 454.88,-126.44 444.35,-125.29 445.94,-132.11"/>
</g>
<!-- uqbar.containers.UniqueTreeList.UniqueTreeList&#45;&gt;uqbar.graphs.TableCell.TableCell -->
<g id="edge9" class="edge">
<title>uqbar.containers.UniqueTreeList.UniqueTreeList&#45;&gt;uqbar.graphs.TableCell.TableCell</title>
<path fill="none" stroke="lightslategrey" d="M320.13,-147.48C328.67,-141.94 338.6,-135.87 348,-131 380.28,-114.27 419.18,-98.9 445.14,-89.27"/>
<polygon fill="lightslategrey" stroke="lightslategrey" points="446.57,-92.48 454.75,-85.76 444.16,-85.91 446.57,-92.48"/>
</g>
<!-- uqbar.containers.UniqueTreeList.UniqueTreeList&#45;&gt;uqbar.graphs.TableRow.TableRow -->
<g id="edge10" class="edge">
<title>uqbar.containers.UniqueTreeList.UniqueTreeList&#45;&gt;uqbar.graphs.TableRow.TableRow</title>
<path fill="none" stroke="lightslategrey" d="M309.32,-142.26C318.44,-127.64 332.16,-108.37 348,-95 377.43,-70.16 418.13,-51.72 445.22,-41.17"/>
<polygon fill="lightslategrey" stroke="lightslategrey" points="446.77,-44.33 454.89,-37.52 444.3,-37.78 446.77,-44.33"/>
</g>
<!-- uqbar.containers.UniqueTreeNode.UniqueTreeNode&#45;&gt;uqbar.containers.UniqueTreeContainer.UniqueTreeContainer -->
<g id="edge2" class="edge">
<title>uqbar.containers.UniqueTreeNode.UniqueTreeNode&#45;&gt;uqbar.containers.UniqueTreeContainer.UniqueTreeContainer</title>
<path fill="none" stroke="lightslategrey" d="M142.36,-163C150.17,-163 159.15,-163 167.86,-163"/>
<polygon fill="lightslategrey" stroke="lightslategrey" points="167.88,-166.5 177.88,-163 167.88,-159.5 167.88,-166.5"/>
</g>
<!-- builtins.object -->
<g id="node1" class="node">
<title>builtins.object</title>
<g id="a_node1"><a xlink:href="https://docs.python.org/3.6/library/functions.html#object" xlink:title="object" target="_top">
<path fill="#fbb4ae" stroke="#fbb4ae" stroke-width="2" d="M52.67,-172.5C52.67,-172.5 22.33,-172.5 22.33,-172.5 19.17,-172.5 16,-169.33 16,-166.17 16,-166.17 16,-159.83 16,-159.83 16,-156.67 19.17,-153.5 22.33,-153.5 22.33,-153.5 52.67,-153.5 52.67,-153.5 55.83,-153.5 59,-156.67 59,-159.83 59,-159.83 59,-166.17 59,-166.17 59,-169.33 55.83,-172.5 52.67,-172.5"/>
<text text-anchor="middle" x="37.5" y="-160.5" font-family="Arial" font-size="10.00">object</text>
</a>
</g>
</g>
<!-- uqbar.apis.PackageNode.PackageNode -->
<g id="node2" class="node">
<title>uqbar.apis.PackageNode.PackageNode</title>
<g id="a_node2"><a xlink:href="../api/uqbar/containers/../apis/PackageNode.html#uqbar.apis.PackageNode.PackageNode" xlink:title="Package\nNode" target="_top">
<path fill="#b3cde3" stroke="#b3cde3" stroke-width="2" d="M401,-297C401,-297 366,-297 366,-297 361,-297 356,-292 356,-287 356,-287 356,-277 356,-277 356,-272 361,-267 366,-267 366,-267 401,-267 401,-267 406,-267 411,-272 411,-277 411,-277 411,-287 411,-287 411,-292 406,-297 401,-297"/>
<text text-anchor="middle" x="383.5" y="-285" font-family="Arial" font-size="10.00">Package</text>
<text text-anchor="middle" x="383.5" y="-274" font-family="Arial" font-size="10.00">Node</text>
</a>
</g>
</g>
<!-- uqbar.containers.UniqueTreeContainer.UniqueTreeContainer -->
<g id="node3" class="node">
<title>uqbar.containers.UniqueTreeContainer.UniqueTreeContainer</title>
<g id="a_node3"><a xlink:href="../api/uqbar/containers/UniqueTreeContainer.html#uqbar.containers.UniqueTreeContainer.UniqueTreeContainer" xlink:title="Unique\nTree\nContainer" target="_top">
<path fill="#ccebc5" stroke="#ccebc5" stroke-width="2" d="M225,-183.5C225,-183.5 190,-183.5 190,-183.5 184,-183.5 178,-177.5 178,-171.5 178,-171.5 178,-154.5 178,-154.5 178,-148.5 184,-142.5 190,-142.5 190,-142.5 225,-142.5 225,-142.5 231,-142.5 237,-148.5 237,-154.5 237,-154.5 237,-171.5 237,-171.5 237,-177.5 231,-183.5 225,-183.5"/>
<text text-anchor="middle" x="207.5" y="-171.5" font-family="Arial" font-size="10.00">Unique</text>
<text text-anchor="middle" x="207.5" y="-160.5" font-family="Arial" font-size="10.00">Tree</text>
<text text-anchor="middle" x="207.5" y="-149.5" font-family="Arial" font-size="10.00">Container</text>
</a>
</g>
</g>
<!-- uqbar.containers.UniqueTreeList.UniqueTreeList -->
<g id="node4" class="node">
<title>uqbar.containers.UniqueTreeList.UniqueTreeList</title>
<g id="a_node4"><a xlink:href="../api/uqbar/containers/UniqueTreeList.html#uqbar.containers.UniqueTreeList.UniqueTreeList" xlink:title="Unique\nTree\nList" target="_top">
<path fill="black" stroke="black" stroke-width="2" d="M308,-183.5C308,-183.5 285,-183.5 285,-183.5 279,-183.5 273,-177.5 273,-171.5 273,-171.5 273,-154.5 273,-154.5 273,-148.5 279,-142.5 285,-142.5 285,-142.5 308,-142.5 308,-142.5 314,-142.5 320,-148.5 320,-154.5 320,-154.5 320,-171.5 320,-171.5 320,-177.5 314,-183.5 308,-183.5"/>
<text text-anchor="middle" x="296.5" y="-171.5" font-family="Arial" font-size="10.00" fill="white">Unique</text>
<text text-anchor="middle" x="296.5" y="-160.5" font-family="Arial" font-size="10.00" fill="white">Tree</text>
<text text-anchor="middle" x="296.5" y="-149.5" font-family="Arial" font-size="10.00" fill="white">List</text>
</a>
</g>
</g>
<!-- uqbar.containers.UniqueTreeNode.UniqueTreeNode -->
<g id="node5" class="node">
<title>uqbar.containers.UniqueTreeNode.UniqueTreeNode</title>
<g id="a_node5"><a xlink:href="../api/uqbar/containers/UniqueTreeNode.html#uqbar.containers.UniqueTreeNode.UniqueTreeNode" xlink:title="Unique\nTree\nNode" target="_top">
<path fill="#ccebc5" stroke="#ccebc5" stroke-width="2" d="M130,-183.5C130,-183.5 107,-183.5 107,-183.5 101,-183.5 95,-177.5 95,-171.5 95,-171.5 95,-154.5 95,-154.5 95,-148.5 101,-142.5 107,-142.5 107,-142.5 130,-142.5 130,-142.5 136,-142.5 142,-148.5 142,-154.5 142,-154.5 142,-171.5 142,-171.5 142,-177.5 136,-183.5 130,-183.5"/>
<text text-anchor="middle" x="118.5" y="-171.5" font-family="Arial" font-size="10.00">Unique</text>
<text text-anchor="middle" x="118.5" y="-160.5" font-family="Arial" font-size="10.00">Tree</text>
<text text-anchor="middle" x="118.5" y="-149.5" font-family="Arial" font-size="10.00">Node</text>
</a>
</g>
</g>
<!-- uqbar.graphs.Graph.Graph -->
<g id="node6" class="node">
<title>uqbar.graphs.Graph.Graph</title>
<g id="a_node6"><a xlink:href="../api/uqbar/containers/../graphs/Graph.html#uqbar.graphs.Graph.Graph" xlink:title="Graph" target="_top">
<path fill="#decbe4" stroke="#decbe4" stroke-width="2" d="M490.17,-254.5C490.17,-254.5 459.83,-254.5 459.83,-254.5 456.67,-254.5 453.5,-251.33 453.5,-248.17 453.5,-248.17 453.5,-241.83 453.5,-241.83 453.5,-238.67 456.67,-235.5 459.83,-235.5 459.83,-235.5 490.17,-235.5 490.17,-235.5 493.33,-235.5 496.5,-238.67 496.5,-241.83 496.5,-241.83 496.5,-248.17 496.5,-248.17 496.5,-251.33 493.33,-254.5 490.17,-254.5"/>
<text text-anchor="middle" x="475" y="-242.5" font-family="Arial" font-size="10.00">Graph</text>
</a>
</g>
</g>
<!-- uqbar.graphs.Node.Node -->
<g id="node7" class="node">
<title>uqbar.graphs.Node.Node</title>
<g id="a_node7"><a xlink:href="../api/uqbar/containers/../graphs/Node.html#uqbar.graphs.Node.Node" xlink:title="Node" target="_top">
<path fill="#decbe4" stroke="#decbe4" stroke-width="2" d="M488.67,-217.5C488.67,-217.5 461.33,-217.5 461.33,-217.5 458.17,-217.5 455,-214.33 455,-211.17 455,-211.17 455,-204.83 455,-204.83 455,-201.67 458.17,-198.5 461.33,-198.5 461.33,-198.5 488.67,-198.5 488.67,-198.5 491.83,-198.5 495,-201.67 495,-204.83 495,-204.83 495,-211.17 495,-211.17 495,-214.33 491.83,-217.5 488.67,-217.5"/>
<text text-anchor="middle" x="475" y="-205.5" font-family="Arial" font-size="10.00">Node</text>
</a>
</g>
</g>
<!-- uqbar.graphs.RecordGroup.RecordGroup -->
<g id="node8" class="node">
<title>uqbar.graphs.RecordGroup.RecordGroup</title>
<g id="a_node8"><a xlink:href="../api/uqbar/containers/../graphs/RecordGroup.html#uqbar.graphs.RecordGroup.RecordGroup" xlink:title="Record\nGroup" target="_top">
<path fill="#decbe4" stroke="#decbe4" stroke-width="2" d="M489,-180C489,-180 461,-180 461,-180 456,-180 451,-175 451,-170 451,-170 451,-160 451,-160 451,-155 456,-150 461,-150 461,-150 489,-150 489,-150 494,-150 499,-155 499,-160 499,-160 499,-170 499,-170 499,-175 494,-180 489,-180"/>
<text text-anchor="middle" x="475" y="-168" font-family="Arial" font-size="10.00">Record</text>
<text text-anchor="middle" x="475" y="-157" font-family="Arial" font-size="10.00">Group</text>
</a>
</g>
</g>
<!-- uqbar.graphs.Table.Table -->
<g id="node9" class="node">
<title>uqbar.graphs.Table.Table</title>
<g id="a_node9"><a xlink:href="../api/uqbar/containers/../graphs/Table.html#uqbar.graphs.Table.Table" xlink:title="Table" target="_top">
<path fill="#decbe4" stroke="#decbe4" stroke-width="2" d="M488.67,-131.5C488.67,-131.5 461.33,-131.5 461.33,-131.5 458.17,-131.5 455,-128.33 455,-125.17 455,-125.17 455,-118.83 455,-118.83 455,-115.67 458.17,-112.5 461.33,-112.5 461.33,-112.5 488.67,-112.5 488.67,-112.5 491.83,-112.5 495,-115.67 495,-118.83 495,-118.83 495,-125.17 495,-125.17 495,-128.33 491.83,-131.5 488.67,-131.5"/>
<text text-anchor="middle" x="475" y="-119.5" font-family="Arial" font-size="10.00">Table</text>
</a>
</g>
</g>
<!-- uqbar.graphs.TableCell.TableCell -->
<g id="node10" class="node">
<title>uqbar.graphs.TableCell.TableCell</title>
<g id="a_node10"><a xlink:href="../api/uqbar/containers/../graphs/TableCell.html#uqbar.graphs.TableCell.TableCell" xlink:title="Table\nCell" target="_top">
<path fill="#decbe4" stroke="#decbe4" stroke-width="2" d="M485,-94C485,-94 465,-94 465,-94 460,-94 455,-89 455,-84 455,-84 455,-74 455,-74 455,-69 460,-64 465,-64 465,-64 485,-64 485,-64 490,-64 495,-69 495,-74 495,-74 495,-84 495,-84 495,-89 490,-94 485,-94"/>
<text text-anchor="middle" x="475" y="-82" font-family="Arial" font-size="10.00">Table</text>
<text text-anchor="middle" x="475" y="-71" font-family="Arial" font-size="10.00">Cell</text>
</a>
</g>
</g>
<!-- uqbar.graphs.TableRow.TableRow -->
<g id="node11" class="node">
<title>uqbar.graphs.TableRow.TableRow</title>
<g id="a_node11"><a xlink:href="../api/uqbar/containers/../graphs/TableRow.html#uqbar.graphs.TableRow.TableRow" xlink:title="Table\nRow" target="_top">
<path fill="#decbe4" stroke="#decbe4" stroke-width="2" d="M485,-46C485,-46 465,-46 465,-46 460,-46 455,-41 455,-36 455,-36 455,-26 455,-26 455,-21 460,-16 465,-16 465,-16 485,-16 485,-16 490,-16 495,-21 495,-26 495,-26 495,-36 495,-36 495,-41 490,-46 485,-46"/>
<text text-anchor="middle" x="475" y="-34" font-family="Arial" font-size="10.00">Table</text>
<text text-anchor="middle" x="475" y="-23" font-family="Arial" font-size="10.00">Row</text>
</a>
</g>
</g>
</g>
</svg>
