<?xml version="1.0" encoding="UTF-8" standalone="no"?>
<!DOCTYPE svg PUBLIC "-//W3C//DTD SVG 1.1//EN"
 "http://www.w3.org/Graphics/SVG/1.1/DTD/svg11.dtd">
<!-- Generated by graphviz version 2.44.1 (20200629.0846)
 -->
<!-- Title: InheritanceGraph Pages: 1 -->
<svg width="765pt" height="682pt"
 viewBox="0.00 0.00 765.20 681.91" xmlns="http://www.w3.org/2000/svg" xmlns:xlink="http://www.w3.org/1999/xlink">
<g id="graph0" class="graph" transform="scale(1 1) rotate(0) translate(4 677.91)">
<title>InheritanceGraph</title>
<g id="clust1" class="cluster">
<title>cluster_uqbar.containers</title>
<path fill="transparent" stroke="#bcd2ee" stroke-width="2" stroke-dasharray="5,2" d="M154.22,-170.4C154.22,-170.4 429.27,-170.4 429.27,-170.4 435.27,-170.4 441.27,-176.4 441.27,-182.4 441.27,-182.4 441.27,-235.4 441.27,-235.4 441.27,-241.4 435.27,-247.4 429.27,-247.4 429.27,-247.4 154.22,-247.4 154.22,-247.4 148.22,-247.4 142.22,-241.4 142.22,-235.4 142.22,-235.4 142.22,-182.4 142.22,-182.4 142.22,-176.4 148.22,-170.4 154.22,-170.4"/>
<text text-anchor="middle" x="291.74" y="-235.4" font-family="Arial" font-size="10.00">uqbar.containers</text>
</g>
<g id="clust2" class="cluster">
<title>cluster_builtins</title>
<path fill="transparent" stroke="#bcd2ee" stroke-width="2" stroke-dasharray="5,2" d="M20,-522.4C20,-522.4 55,-522.4 55,-522.4 61,-522.4 67,-528.4 67,-534.4 67,-534.4 67,-565.4 67,-565.4 67,-571.4 61,-577.4 55,-577.4 55,-577.4 20,-577.4 20,-577.4 14,-577.4 8,-571.4 8,-565.4 8,-565.4 8,-534.4 8,-534.4 8,-528.4 14,-522.4 20,-522.4"/>
<text text-anchor="middle" x="37.5" y="-565.4" font-family="Arial" font-size="10.00">builtins</text>
</g>
<g id="clust3" class="cluster">
<title>cluster_collections.abc</title>
<path fill="transparent" stroke="#bcd2ee" stroke-width="2" stroke-dasharray="5,2" d="M136,-496.4C136,-496.4 554.2,-496.4 554.2,-496.4 560.2,-496.4 566.2,-502.4 566.2,-508.4 566.2,-508.4 566.2,-635.4 566.2,-635.4 566.2,-641.4 560.2,-647.4 554.2,-647.4 554.2,-647.4 136,-647.4 136,-647.4 130,-647.4 124,-641.4 124,-635.4 124,-635.4 124,-508.4 124,-508.4 124,-502.4 130,-496.4 136,-496.4"/>
<text text-anchor="middle" x="345.1" y="-635.4" font-family="Arial" font-size="10.00">collections.abc</text>
</g>
<g id="clust4" class="cluster">
<title>cluster_uqbar.graphs</title>
<path fill="transparent" stroke="#bcd2ee" stroke-width="2" stroke-dasharray="5,2" d="M598.2,-24.4C598.2,-24.4 737.2,-24.4 737.2,-24.4 743.2,-24.4 749.2,-30.4 749.2,-36.4 749.2,-36.4 749.2,-547.4 749.2,-547.4 749.2,-553.4 743.2,-559.4 737.2,-559.4 737.2,-559.4 598.2,-559.4 598.2,-559.4 592.2,-559.4 586.2,-553.4 586.2,-547.4 586.2,-547.4 586.2,-36.4 586.2,-36.4 586.2,-30.4 592.2,-24.4 598.2,-24.4"/>
<text text-anchor="middle" x="667.7" y="-547.4" font-family="Arial" font-size="10.00">uqbar.graphs</text>
</g>
<!-- uqbar.containers.UniqueTreeContainer.UniqueTreeContainer&#45;&gt;uqbar.containers.UniqueTreeList.UniqueTreeList -->
<g id="edge1" class="edge">
<title>uqbar.containers.UniqueTreeContainer.UniqueTreeContainer&#45;&gt;uqbar.containers.UniqueTreeList.UniqueTreeList</title>
<path fill="none" stroke="lightslategrey" d="M323.61,-199.4C339.5,-199.4 359.32,-199.4 375.83,-199.4"/>
<polygon fill="lightslategrey" stroke="lightslategrey" points="376.14,-202.9 386.14,-199.4 376.14,-195.9 376.14,-202.9"/>
</g>
<!-- uqbar.containers.UniqueTreeList.UniqueTreeList&#45;&gt;uqbar.graphs.TableCell.TableCell -->
<g id="edge21" class="edge">
<title>uqbar.containers.UniqueTreeList.UniqueTreeList&#45;&gt;uqbar.graphs.TableCell.TableCell</title>
<path fill="none" stroke="lightslategrey" d="M415.44,-178.8C423.66,-147.31 443.7,-87.4 483.24,-54.4 543.48,-4.14 594.1,22.22 657.2,-24.4 709.96,-63.38 717.04,-148.76 717.08,-191.29"/>
<polygon fill="lightslategrey" stroke="lightslategrey" points="713.58,-191.32 716.96,-201.36 720.58,-191.4 713.58,-191.32"/>
</g>
<!-- uqbar.containers.UniqueTreeList.UniqueTreeList&#45;&gt;uqbar.graphs.Graph.Graph -->
<g id="edge17" class="edge">
<title>uqbar.containers.UniqueTreeList.UniqueTreeList&#45;&gt;uqbar.graphs.Graph.Graph</title>
<path fill="none" stroke="lightslategrey" d="M433.66,-195.76C472.4,-189.61 550.87,-177.13 594.22,-170.25"/>
<polygon fill="lightslategrey" stroke="lightslategrey" points="594.85,-173.69 604.18,-168.66 593.75,-166.77 594.85,-173.69"/>
</g>
<!-- uqbar.containers.UniqueTreeList.UniqueTreeList&#45;&gt;uqbar.graphs.Node.Node -->
<g id="edge18" class="edge">
<title>uqbar.containers.UniqueTreeList.UniqueTreeList&#45;&gt;uqbar.graphs.Node.Node</title>
<path fill="none" stroke="lightslategrey" d="M433.46,-190.14C447.67,-184.47 466.41,-177.2 483.24,-171.4 521.72,-158.14 566.78,-144.81 595.53,-136.59"/>
<polygon fill="lightslategrey" stroke="lightslategrey" points="596.67,-139.9 605.33,-133.8 594.76,-133.17 596.67,-139.9"/>
</g>
<!-- uqbar.containers.UniqueTreeList.UniqueTreeList&#45;&gt;uqbar.graphs.RecordGroup.RecordGroup -->
<g id="edge19" class="edge">
<title>uqbar.containers.UniqueTreeList.UniqueTreeList&#45;&gt;uqbar.graphs.RecordGroup.RecordGroup</title>
<path fill="none" stroke="lightslategrey" d="M432.99,-178.72C446.72,-166.71 465.13,-151.92 483.24,-141.4 518.39,-121 562.39,-104.89 591.9,-95.29"/>
<polygon fill="lightslategrey" stroke="lightslategrey" points="593.23,-98.54 601.69,-92.17 591.1,-91.87 593.23,-98.54"/>
</g>
<!-- uqbar.containers.UniqueTreeList.UniqueTreeList&#45;&gt;uqbar.graphs.Table.Table -->
<g id="edge20" class="edge">
<title>uqbar.containers.UniqueTreeList.UniqueTreeList&#45;&gt;uqbar.graphs.Table.Table</title>
<path fill="none" stroke="lightslategrey" d="M421.16,-178.73C433.32,-156.43 455.37,-121.19 483.24,-99.4 517.21,-72.86 565.18,-57.02 595.61,-49.01"/>
<polygon fill="lightslategrey" stroke="lightslategrey" points="596.75,-52.33 605.59,-46.5 595.04,-45.55 596.75,-52.33"/>
</g>
<!-- uqbar.containers.UniqueTreeList.UniqueTreeList&#45;&gt;uqbar.graphs.TableRow.TableRow -->
<g id="edge22" class="edge">
<title>uqbar.containers.UniqueTreeList.UniqueTreeList&#45;&gt;uqbar.graphs.TableRow.TableRow</title>
<path fill="none" stroke="lightslategrey" d="M433.66,-200.36C472.71,-202.01 552.15,-205.35 595.27,-207.16"/>
<polygon fill="lightslategrey" stroke="lightslategrey" points="595.26,-210.67 605.4,-207.59 595.56,-203.67 595.26,-210.67"/>
</g>
<!-- uqbar.containers.UniqueTreeNode.UniqueTreeNode&#45;&gt;uqbar.containers.UniqueTreeContainer.UniqueTreeContainer -->
<g id="edge2" class="edge">
<title>uqbar.containers.UniqueTreeNode.UniqueTreeNode&#45;&gt;uqbar.containers.UniqueTreeContainer.UniqueTreeContainer</title>
<path fill="none" stroke="lightslategrey" d="M197.22,-199.4C213.26,-199.4 235.24,-199.4 254.08,-199.4"/>
<polygon fill="lightslategrey" stroke="lightslategrey" points="254.17,-202.9 264.17,-199.4 254.17,-195.9 254.17,-202.9"/>
</g>
<!-- uqbar.containers.UniqueTreeNode.UniqueTreeNode&#45;&gt;uqbar.graphs.Attachable.Attachable -->
<g id="edge23" class="edge">
<title>uqbar.containers.UniqueTreeNode.UniqueTreeNode&#45;&gt;uqbar.graphs.Attachable.Attachable</title>
<path fill="none" stroke="lightslategrey" d="M197.39,-218.21C211.92,-229.2 231.7,-242.27 251.44,-249.4 366.56,-290.96 513.72,-292.53 583.91,-290.42"/>
<polygon fill="lightslategrey" stroke="lightslategrey" points="584.22,-293.91 594.09,-290.07 583.98,-286.91 584.22,-293.91"/>
</g>
<!-- uqbar.containers.UniqueTreeNode.UniqueTreeNode&#45;&gt;uqbar.graphs.RecordField.RecordField -->
<g id="edge26" class="edge">
<title>uqbar.containers.UniqueTreeNode.UniqueTreeNode&#45;&gt;uqbar.graphs.RecordField.RecordField</title>
<path fill="none" stroke="lightslategrey" d="M178.47,-219.97C186.04,-255.74 206.38,-329.67 251.44,-372.4 360.08,-475.41 459.11,-387.78 566.2,-492.4 583.02,-508.84 566.67,-528.28 586.2,-541.4 612.39,-559 631.66,-559.94 657.2,-541.4 706.81,-505.39 715.5,-426.54 716.53,-385.83"/>
<polygon fill="lightslategrey" stroke="lightslategrey" points="720.03,-385.7 716.64,-375.66 713.03,-385.62 720.03,-385.7"/>
</g>
<!-- uqbar.containers.UniqueTreeNode.UniqueTreeNode&#45;&gt;uqbar.graphs.HRule.HRule -->
<g id="edge24" class="edge">
<title>uqbar.containers.UniqueTreeNode.UniqueTreeNode&#45;&gt;uqbar.graphs.HRule.HRule</title>
<path fill="none" stroke="lightslategrey" d="M197.3,-210.4C212.28,-217.15 232.58,-225.27 251.44,-229.4 375.52,-256.6 527.99,-255.07 592.96,-252.84"/>
<polygon fill="lightslategrey" stroke="lightslategrey" points="593.47,-256.33 603.33,-252.45 593.21,-249.33 593.47,-256.33"/>
</g>
<!-- uqbar.containers.UniqueTreeNode.UniqueTreeNode&#45;&gt;uqbar.graphs.LineBreak.LineBreak -->
<g id="edge25" class="edge">
<title>uqbar.containers.UniqueTreeNode.UniqueTreeNode&#45;&gt;uqbar.graphs.LineBreak.LineBreak</title>
<path fill="none" stroke="lightslategrey" d="M180.89,-220.31C190.83,-250.38 213.24,-305.6 251.44,-336.4 354.42,-419.46 525.44,-414.68 594.44,-408.75"/>
<polygon fill="lightslategrey" stroke="lightslategrey" points="594.99,-412.22 604.62,-407.8 594.34,-405.25 594.99,-412.22"/>
</g>
<!-- uqbar.containers.UniqueTreeNode.UniqueTreeNode&#45;&gt;uqbar.graphs.Text.Text -->
<g id="edge27" class="edge">
<title>uqbar.containers.UniqueTreeNode.UniqueTreeNode&#45;&gt;uqbar.graphs.Text.Text</title>
<path fill="none" stroke="lightslategrey" d="M184.38,-219.93C196.63,-243.67 220,-282.21 251.44,-303.4 362,-377.94 532.28,-371.31 597.76,-365.41"/>
<polygon fill="lightslategrey" stroke="lightslategrey" points="598.43,-368.86 608.04,-364.41 597.75,-361.9 598.43,-368.86"/>
</g>
<!-- uqbar.containers.UniqueTreeNode.UniqueTreeNode&#45;&gt;uqbar.graphs.VRule.VRule -->
<g id="edge28" class="edge">
<title>uqbar.containers.UniqueTreeNode.UniqueTreeNode&#45;&gt;uqbar.graphs.VRule.VRule</title>
<path fill="none" stroke="lightslategrey" d="M189.96,-220.04C203.96,-237.4 226.29,-261.4 251.44,-274.4 366.19,-333.72 526.05,-331.86 593.11,-327.92"/>
<polygon fill="lightslategrey" stroke="lightslategrey" points="593.67,-331.39 603.43,-327.25 593.22,-324.41 593.67,-331.39"/>
</g>
<!-- builtins.object&#45;&gt;uqbar.containers.UniqueTreeNode.UniqueTreeNode -->
<g id="edge13" class="edge">
<title>builtins.object&#45;&gt;uqbar.containers.UniqueTreeNode.UniqueTreeNode</title>
<path fill="none" stroke="lightslategrey" d="M42.37,-530.56C59.86,-486.13 131.87,-303.19 160.7,-229.94"/>
<polygon fill="lightslategrey" stroke="lightslategrey" points="164.07,-230.94 164.47,-220.35 157.55,-228.38 164.07,-230.94"/>
</g>
<!-- builtins.object&#45;&gt;collections.abc.Container -->
<g id="edge10" class="edge">
<title>builtins.object&#45;&gt;collections.abc.Container</title>
<path fill="none" stroke="lightslategrey" d="M59.18,-536.86C77.11,-533.78 103.73,-529.22 126.68,-525.29"/>
<polygon fill="lightslategrey" stroke="lightslategrey" points="127.33,-528.73 136.59,-523.59 126.14,-521.83 127.33,-528.73"/>
</g>
<!-- builtins.object&#45;&gt;collections.abc.Iterable -->
<g id="edge11" class="edge">
<title>builtins.object&#45;&gt;collections.abc.Iterable</title>
<path fill="none" stroke="lightslategrey" d="M56.75,-550.02C74,-559.06 100.64,-572.88 124,-584.4 129.59,-587.16 135.57,-590.04 141.36,-592.79"/>
<polygon fill="lightslategrey" stroke="lightslategrey" points="140.28,-596.15 150.82,-597.25 143.27,-589.82 140.28,-596.15"/>
</g>
<!-- builtins.object&#45;&gt;collections.abc.Sized -->
<g id="edge12" class="edge">
<title>builtins.object&#45;&gt;collections.abc.Sized</title>
<path fill="none" stroke="lightslategrey" d="M59.18,-543.79C79.64,-547.14 111.39,-552.35 136.13,-556.4"/>
<polygon fill="lightslategrey" stroke="lightslategrey" points="135.81,-559.9 146.24,-558.06 136.94,-552.99 135.81,-559.9"/>
</g>
<!-- builtins.object&#45;&gt;uqbar.graphs.Edge.Edge -->
<g id="edge14" class="edge">
<title>builtins.object&#45;&gt;uqbar.graphs.Edge.Edge</title>
<path fill="none" stroke="lightslategrey" d="M43.21,-550.08C54.21,-571.68 83.77,-624.05 124,-651.4 142.63,-664.07 150.19,-665.4 172.72,-665.4 172.72,-665.4 172.72,-665.4 410.77,-665.4 480.13,-665.4 509.64,-691.56 566.2,-651.4 602.49,-625.64 616.7,-571.83 621.92,-542.51"/>
<polygon fill="lightslategrey" stroke="lightslategrey" points="625.44,-542.67 623.55,-532.25 618.52,-541.57 625.44,-542.67"/>
</g>
<!-- builtins.object&#45;&gt;uqbar.graphs.Grapher.Grapher -->
<g id="edge15" class="edge">
<title>builtins.object&#45;&gt;uqbar.graphs.Grapher.Grapher</title>
<path fill="none" stroke="lightslategrey" d="M49.83,-530.68C71.91,-512.78 122.9,-476.4 172.72,-476.4 172.72,-476.4 172.72,-476.4 410.77,-476.4 474.48,-476.4 547.96,-464.04 590.11,-455.74"/>
<polygon fill="lightslategrey" stroke="lightslategrey" points="591.01,-459.13 600.13,-453.73 589.64,-452.27 591.01,-459.13"/>
</g>
<!-- collections.abc.Collection&#45;&gt;collections.abc.Mapping -->
<g id="edge3" class="edge">
<title>collections.abc.Collection&#45;&gt;collections.abc.Mapping</title>
<path fill="none" stroke="lightslategrey" d="M335.99,-555.6C344.51,-555.22 353.54,-554.83 362.23,-554.44"/>
<polygon fill="lightslategrey" stroke="lightslategrey" points="362.4,-557.94 372.24,-554 362.09,-550.95 362.4,-557.94"/>
</g>
<!-- collections.abc.Mapping&#45;&gt;collections.abc.MutableMapping -->
<g id="edge6" class="edge">
<title>collections.abc.Mapping&#45;&gt;collections.abc.MutableMapping</title>
<path fill="none" stroke="lightslategrey" d="M446.44,-549.45C455.1,-548.74 464.48,-547.96 473.55,-547.21"/>
<polygon fill="lightslategrey" stroke="lightslategrey" points="473.91,-550.7 483.59,-546.39 473.34,-543.72 473.91,-550.7"/>
</g>
<!-- collections.abc.Container&#45;&gt;collections.abc.Collection -->
<g id="edge4" class="edge">
<title>collections.abc.Container&#45;&gt;collections.abc.Collection</title>
<path fill="none" stroke="lightslategrey" d="M203.02,-526.98C218.43,-532.2 237.71,-538.73 254.46,-544.4"/>
<polygon fill="lightslategrey" stroke="lightslategrey" points="253.38,-547.73 263.98,-547.62 255.63,-541.1 253.38,-547.73"/>
</g>
<!-- collections.abc.Iterable&#45;&gt;collections.abc.Collection -->
<g id="edge5" class="edge">
<title>collections.abc.Iterable&#45;&gt;collections.abc.Collection</title>
<path fill="none" stroke="lightslategrey" d="M197.78,-597.64C214.9,-590.4 238.54,-580.39 257.97,-572.17"/>
<polygon fill="lightslategrey" stroke="lightslategrey" points="259.56,-575.3 267.41,-568.18 256.83,-568.85 259.56,-575.3"/>
</g>
<!-- collections.abc.MutableMapping&#45;&gt;uqbar.graphs.Attributes.Attributes -->
<g id="edge16" class="edge">
<title>collections.abc.MutableMapping&#45;&gt;uqbar.graphs.Attributes.Attributes</title>
<path fill="none" stroke="lightslategrey" d="M546.54,-527.71C558.4,-520.38 572.89,-511.69 586.2,-504.4 589.14,-502.79 592.24,-501.16 595.34,-499.56"/>
<polygon fill="lightslategrey" stroke="lightslategrey" points="597.18,-502.55 604.55,-494.94 594.04,-496.3 597.18,-502.55"/>
</g>
<!-- collections.abc.Sized&#45;&gt;collections.abc.Collection -->
<g id="edge7" class="edge">
<title>collections.abc.Sized&#45;&gt;collections.abc.Collection</title>
<path fill="none" stroke="lightslategrey" d="M202.72,-561.22C214.35,-560.72 228.24,-560.14 241.59,-559.57"/>
<polygon fill="lightslategrey" stroke="lightslategrey" points="241.8,-563.07 251.64,-559.15 241.5,-556.07 241.8,-563.07"/>
</g>
<!-- uqbar.graphs.Attachable.Attachable&#45;&gt;uqbar.graphs.RecordField.RecordField -->
<g id="edge8" class="edge">
<title>uqbar.graphs.Attachable.Attachable&#45;&gt;uqbar.graphs.RecordField.RecordField</title>
<path fill="none" stroke="lightslategrey" d="M643.19,-297.95C647.83,-300.83 652.81,-304.1 657.2,-307.4 669.78,-316.85 682.88,-328.43 693.53,-338.34"/>
<polygon fill="lightslategrey" stroke="lightslategrey" points="691.14,-340.9 700.82,-345.22 695.95,-335.81 691.14,-340.9"/>
</g>
<!-- uqbar.graphs.Attachable.Attachable&#45;&gt;uqbar.graphs.TableCell.TableCell -->
<g id="edge9" class="edge">
<title>uqbar.graphs.Attachable.Attachable&#45;&gt;uqbar.graphs.TableCell.TableCell</title>
<path fill="none" stroke="lightslategrey" d="M644.52,-278.72C648.78,-276.18 653.24,-273.33 657.2,-270.4 670.13,-260.83 683.44,-248.86 694.14,-238.62"/>
<polygon fill="lightslategrey" stroke="lightslategrey" points="696.7,-241.02 701.43,-231.53 691.82,-236 696.7,-241.02"/>
</g>
<!-- uqbar.containers.UniqueTreeContainer.UniqueTreeContainer -->
<g id="node1" class="node">
<title>uqbar.containers.UniqueTreeContainer.UniqueTreeContainer</title>
<g id="a_node1"><a xlink:href="../api/uqbar/graphs/../containers/UniqueTreeContainer.html#uqbar.containers.UniqueTreeContainer.UniqueTreeContainer" xlink:title="Unique\nTree\nContainer" target="_top">
<path fill="#ccebc5" stroke="#ccebc5" stroke-width="2" d="M311.37,-219.9C311.37,-219.9 276.37,-219.9 276.37,-219.9 270.37,-219.9 264.37,-213.9 264.37,-207.9 264.37,-207.9 264.37,-190.9 264.37,-190.9 264.37,-184.9 270.37,-178.9 276.37,-178.9 276.37,-178.9 311.37,-178.9 311.37,-178.9 317.37,-178.9 323.37,-184.9 323.37,-190.9 323.37,-190.9 323.37,-207.9 323.37,-207.9 323.37,-213.9 317.37,-219.9 311.37,-219.9"/>
<text text-anchor="middle" x="293.87" y="-207.9" font-family="Arial" font-size="10.00">Unique</text>
<text text-anchor="middle" x="293.87" y="-196.9" font-family="Arial" font-size="10.00">Tree</text>
<text text-anchor="middle" x="293.87" y="-185.9" font-family="Arial" font-size="10.00">Container</text>
</a>
</g>
</g>
<!-- uqbar.containers.UniqueTreeList.UniqueTreeList -->
<g id="node2" class="node">
<title>uqbar.containers.UniqueTreeList.UniqueTreeList</title>
<g id="a_node2"><a xlink:href="../api/uqbar/graphs/../containers/UniqueTreeList.html#uqbar.containers.UniqueTreeList.UniqueTreeList" xlink:title="Unique\nTree\nList" target="_top">
<path fill="#ccebc5" stroke="#ccebc5" stroke-width="2" d="M421.27,-219.9C421.27,-219.9 398.27,-219.9 398.27,-219.9 392.27,-219.9 386.27,-213.9 386.27,-207.9 386.27,-207.9 386.27,-190.9 386.27,-190.9 386.27,-184.9 392.27,-178.9 398.27,-178.9 398.27,-178.9 421.27,-178.9 421.27,-178.9 427.27,-178.9 433.27,-184.9 433.27,-190.9 433.27,-190.9 433.27,-207.9 433.27,-207.9 433.27,-213.9 427.27,-219.9 421.27,-219.9"/>
<text text-anchor="middle" x="409.77" y="-207.9" font-family="Arial" font-size="10.00">Unique</text>
<text text-anchor="middle" x="409.77" y="-196.9" font-family="Arial" font-size="10.00">Tree</text>
<text text-anchor="middle" x="409.77" y="-185.9" font-family="Arial" font-size="10.00">List</text>
</a>
</g>
</g>
<!-- uqbar.containers.UniqueTreeNode.UniqueTreeNode -->
<g id="node3" class="node">
<title>uqbar.containers.UniqueTreeNode.UniqueTreeNode</title>
<g id="a_node3"><a xlink:href="../api/uqbar/graphs/../containers/UniqueTreeNode.html#uqbar.containers.UniqueTreeNode.UniqueTreeNode" xlink:title="Unique\nTree\nNode" target="_top">
<path fill="#ccebc5" stroke="#ccebc5" stroke-width="2" d="M185.22,-219.9C185.22,-219.9 162.22,-219.9 162.22,-219.9 156.22,-219.9 150.22,-213.9 150.22,-207.9 150.22,-207.9 150.22,-190.9 150.22,-190.9 150.22,-184.9 156.22,-178.9 162.22,-178.9 162.22,-178.9 185.22,-178.9 185.22,-178.9 191.22,-178.9 197.22,-184.9 197.22,-190.9 197.22,-190.9 197.22,-207.9 197.22,-207.9 197.22,-213.9 191.22,-219.9 185.22,-219.9"/>
<text text-anchor="middle" x="173.72" y="-207.9" font-family="Arial" font-size="10.00">Unique</text>
<text text-anchor="middle" x="173.72" y="-196.9" font-family="Arial" font-size="10.00">Tree</text>
<text text-anchor="middle" x="173.72" y="-185.9" font-family="Arial" font-size="10.00">Node</text>
</a>
</g>
</g>
<!-- builtins.object -->
<g id="node4" class="node">
<title>builtins.object</title>
<g id="a_node4"><a xlink:href="https://docs.python.org/3.6/library/functions.html#object" xlink:title="object" target="_top">
<path fill="#fbb4ae" stroke="#fbb4ae" stroke-width="2" d="M52.67,-549.9C52.67,-549.9 22.33,-549.9 22.33,-549.9 19.17,-549.9 16,-546.73 16,-543.57 16,-543.57 16,-537.23 16,-537.23 16,-534.07 19.17,-530.9 22.33,-530.9 22.33,-530.9 52.67,-530.9 52.67,-530.9 55.83,-530.9 59,-534.07 59,-537.23 59,-537.23 59,-543.57 59,-543.57 59,-546.73 55.83,-549.9 52.67,-549.9"/>
<text text-anchor="middle" x="37.5" y="-537.9" font-family="Arial" font-size="10.00">object</text>
</a>
</g>
</g>
<!-- collections.abc.Collection -->
<g id="node5" class="node">
<title>collections.abc.Collection</title>
<g id="a_node5"><a xlink:href="https://docs.python.org/3.6/library/collections.abc.html#collections.abc.Collection" xlink:title="Collection" target="_top">
<ellipse fill="none" stroke="#b3cde3" stroke-width="2" cx="293.87" cy="-557.4" rx="42.35" ry="13.37"/>
<text text-anchor="middle" x="293.87" y="-554.9" font-family="Arial" font-size="10.00">Collection</text>
</a>
</g>
</g>
<!-- collections.abc.Mapping -->
<g id="node6" class="node">
<title>collections.abc.Mapping</title>
<g id="a_node6"><a xlink:href="https://docs.python.org/3.6/library/collections.abc.html#collections.abc.Mapping" xlink:title="Mapping" target="_top">
<ellipse fill="none" stroke="#b3cde3" stroke-width="2" cx="409.77" cy="-552.4" rx="37.45" ry="13.37"/>
<text text-anchor="middle" x="409.77" y="-549.9" font-family="Arial" font-size="10.00">Mapping</text>
</a>
</g>
</g>
<!-- collections.abc.Container -->
<g id="node7" class="node">
<title>collections.abc.Container</title>
<g id="a_node7"><a xlink:href="https://docs.python.org/3.6/library/collections.abc.html#collections.abc.Container" xlink:title="Container" target="_top">
<ellipse fill="none" stroke="#b3cde3" stroke-width="2" cx="173.72" cy="-517.4" rx="41.94" ry="13.37"/>
<text text-anchor="middle" x="173.72" y="-514.9" font-family="Arial" font-size="10.00">Container</text>
</a>
</g>
</g>
<!-- collections.abc.Iterable -->
<g id="node8" class="node">
<title>collections.abc.Iterable</title>
<g id="a_node8"><a xlink:href="https://docs.python.org/3.6/library/collections.abc.html#collections.abc.Iterable" xlink:title="Iterable" target="_top">
<ellipse fill="none" stroke="#b3cde3" stroke-width="2" cx="173.72" cy="-607.4" rx="34.8" ry="13.37"/>
<text text-anchor="middle" x="173.72" y="-604.9" font-family="Arial" font-size="10.00">Iterable</text>
</a>
</g>
</g>
<!-- collections.abc.MutableMapping -->
<g id="node9" class="node">
<title>collections.abc.MutableMapping</title>
<g id="a_node9"><a xlink:href="https://docs.python.org/3.6/library/collections.abc.html#collections.abc.MutableMapping" xlink:title="Mutable\nMapping" target="_top">
<ellipse fill="none" stroke="#b3cde3" stroke-width="2" cx="520.72" cy="-543.4" rx="37.45" ry="21.43"/>
<text text-anchor="middle" x="520.72" y="-546.4" font-family="Arial" font-size="10.00">Mutable</text>
<text text-anchor="middle" x="520.72" y="-535.4" font-family="Arial" font-size="10.00">Mapping</text>
</a>
</g>
</g>
<!-- collections.abc.Sized -->
<g id="node10" class="node">
<title>collections.abc.Sized</title>
<g id="a_node10"><a xlink:href="https://docs.python.org/3.6/library/collections.abc.html#collections.abc.Sized" xlink:title="Sized" target="_top">
<ellipse fill="none" stroke="#b3cde3" stroke-width="2" cx="173.72" cy="-562.4" rx="28.98" ry="13.37"/>
<text text-anchor="middle" x="173.72" y="-559.9" font-family="Arial" font-size="10.00">Sized</text>
</a>
</g>
</g>
<!-- uqbar.graphs.Attachable.Attachable -->
<g id="node11" class="node">
<title>uqbar.graphs.Attachable.Attachable</title>
<g id="a_node11"><a xlink:href="../api/uqbar/graphs/Attachable.html#uqbar.graphs.Attachable.Attachable" xlink:title="Attachable" target="_top">
<path fill="black" stroke="black" stroke-width="2" d="M650.86,-297.9C650.86,-297.9 600.53,-297.9 600.53,-297.9 597.36,-297.9 594.2,-294.73 594.2,-291.57 594.2,-291.57 594.2,-285.23 594.2,-285.23 594.2,-282.07 597.36,-278.9 600.53,-278.9 600.53,-278.9 650.86,-278.9 650.86,-278.9 654.03,-278.9 657.2,-282.07 657.2,-285.23 657.2,-285.23 657.2,-291.57 657.2,-291.57 657.2,-294.73 654.03,-297.9 650.86,-297.9"/>
<text text-anchor="middle" x="625.7" y="-285.9" font-family="Arial" font-size="10.00" fill="white">Attachable</text>
</a>
</g>
</g>
<!-- uqbar.graphs.RecordField.RecordField -->
<g id="node12" class="node">
<title>uqbar.graphs.RecordField.RecordField</title>
<g id="a_node12"><a xlink:href="../api/uqbar/graphs/RecordField.html#uqbar.graphs.RecordField.RecordField" xlink:title="Record\nField" target="_top">
<path fill="black" stroke="black" stroke-width="2" d="M731.2,-375.4C731.2,-375.4 703.2,-375.4 703.2,-375.4 698.2,-375.4 693.2,-370.4 693.2,-365.4 693.2,-365.4 693.2,-355.4 693.2,-355.4 693.2,-350.4 698.2,-345.4 703.2,-345.4 703.2,-345.4 731.2,-345.4 731.2,-345.4 736.2,-345.4 741.2,-350.4 741.2,-355.4 741.2,-355.4 741.2,-365.4 741.2,-365.4 741.2,-370.4 736.2,-375.4 731.2,-375.4"/>
<text text-anchor="middle" x="717.2" y="-363.4" font-family="Arial" font-size="10.00" fill="white">Record</text>
<text text-anchor="middle" x="717.2" y="-352.4" font-family="Arial" font-size="10.00" fill="white">Field</text>
</a>
</g>
</g>
<!-- uqbar.graphs.TableCell.TableCell -->
<g id="node13" class="node">
<title>uqbar.graphs.TableCell.TableCell</title>
<g id="a_node13"><a xlink:href="../api/uqbar/graphs/TableCell.html#uqbar.graphs.TableCell.TableCell" xlink:title="Table\nCell" target="_top">
<path fill="black" stroke="black" stroke-width="2" d="M727.2,-231.4C727.2,-231.4 707.2,-231.4 707.2,-231.4 702.2,-231.4 697.2,-226.4 697.2,-221.4 697.2,-221.4 697.2,-211.4 697.2,-211.4 697.2,-206.4 702.2,-201.4 707.2,-201.4 707.2,-201.4 727.2,-201.4 727.2,-201.4 732.2,-201.4 737.2,-206.4 737.2,-211.4 737.2,-211.4 737.2,-221.4 737.2,-221.4 737.2,-226.4 732.2,-231.4 727.2,-231.4"/>
<text text-anchor="middle" x="717.2" y="-219.4" font-family="Arial" font-size="10.00" fill="white">Table</text>
<text text-anchor="middle" x="717.2" y="-208.4" font-family="Arial" font-size="10.00" fill="white">Cell</text>
</a>
</g>
</g>
<!-- uqbar.graphs.Attributes.Attributes -->
<g id="node14" class="node">
<title>uqbar.graphs.Attributes.Attributes</title>
<g id="a_node14"><a xlink:href="../api/uqbar/graphs/Attributes.html#uqbar.graphs.Attributes.Attributes" xlink:title="Attributes" target="_top">
<path fill="black" stroke="black" stroke-width="2" d="M648.86,-494.9C648.86,-494.9 602.53,-494.9 602.53,-494.9 599.36,-494.9 596.2,-491.73 596.2,-488.57 596.2,-488.57 596.2,-482.23 596.2,-482.23 596.2,-479.07 599.36,-475.9 602.53,-475.9 602.53,-475.9 648.86,-475.9 648.86,-475.9 652.03,-475.9 655.2,-479.07 655.2,-482.23 655.2,-482.23 655.2,-488.57 655.2,-488.57 655.2,-491.73 652.03,-494.9 648.86,-494.9"/>
<text text-anchor="middle" x="625.7" y="-482.9" font-family="Arial" font-size="10.00" fill="white">Attributes</text>
</a>
</g>
</g>
<!-- uqbar.graphs.Edge.Edge -->
<g id="node15" class="node">
<title>uqbar.graphs.Edge.Edge</title>
<g id="a_node15"><a xlink:href="../api/uqbar/graphs/Edge.html#uqbar.graphs.Edge.Edge" xlink:title="Edge" target="_top">
<path fill="black" stroke="black" stroke-width="2" d="M638.86,-531.9C638.86,-531.9 612.53,-531.9 612.53,-531.9 609.36,-531.9 606.2,-528.73 606.2,-525.57 606.2,-525.57 606.2,-519.23 606.2,-519.23 606.2,-516.07 609.36,-512.9 612.53,-512.9 612.53,-512.9 638.86,-512.9 638.86,-512.9 642.03,-512.9 645.2,-516.07 645.2,-519.23 645.2,-519.23 645.2,-525.57 645.2,-525.57 645.2,-528.73 642.03,-531.9 638.86,-531.9"/>
<text text-anchor="middle" x="625.7" y="-519.9" font-family="Arial" font-size="10.00" fill="white">Edge</text>
</a>
</g>
</g>
<!-- uqbar.graphs.Graph.Graph -->
<g id="node16" class="node">
<title>uqbar.graphs.Graph.Graph</title>
<g id="a_node16"><a xlink:href="../api/uqbar/graphs/Graph.html#uqbar.graphs.Graph.Graph" xlink:title="Graph" target="_top">
<path fill="black" stroke="black" stroke-width="2" d="M640.86,-174.9C640.86,-174.9 610.53,-174.9 610.53,-174.9 607.36,-174.9 604.2,-171.73 604.2,-168.57 604.2,-168.57 604.2,-162.23 604.2,-162.23 604.2,-159.07 607.36,-155.9 610.53,-155.9 610.53,-155.9 640.86,-155.9 640.86,-155.9 644.03,-155.9 647.2,-159.07 647.2,-162.23 647.2,-162.23 647.2,-168.57 647.2,-168.57 647.2,-171.73 644.03,-174.9 640.86,-174.9"/>
<text text-anchor="middle" x="625.7" y="-162.9" font-family="Arial" font-size="10.00" fill="white">Graph</text>
</a>
</g>
</g>
<!-- uqbar.graphs.Grapher.Grapher -->
<g id="node17" class="node">
<title>uqbar.graphs.Grapher.Grapher</title>
<g id="a_node17"><a xlink:href="../api/uqbar/graphs/Grapher.html#uqbar.graphs.Grapher.Grapher" xlink:title="Grapher" target="_top">
<path fill="black" stroke="black" stroke-width="2" d="M644.86,-457.9C644.86,-457.9 606.53,-457.9 606.53,-457.9 603.36,-457.9 600.2,-454.73 600.2,-451.57 600.2,-451.57 600.2,-445.23 600.2,-445.23 600.2,-442.07 603.36,-438.9 606.53,-438.9 606.53,-438.9 644.86,-438.9 644.86,-438.9 648.03,-438.9 651.2,-442.07 651.2,-445.23 651.2,-445.23 651.2,-451.57 651.2,-451.57 651.2,-454.73 648.03,-457.9 644.86,-457.9"/>
<text text-anchor="middle" x="625.7" y="-445.9" font-family="Arial" font-size="10.00" fill="white">Grapher</text>
</a>
</g>
</g>
<!-- uqbar.graphs.HRule.HRule -->
<g id="node18" class="node">
<title>uqbar.graphs.HRule.HRule</title>
<g id="a_node18"><a xlink:href="../api/uqbar/graphs/HRule.html#uqbar.graphs.HRule.HRule" xlink:title="HRule" target="_top">
<path fill="black" stroke="black" stroke-width="2" d="M641.36,-260.9C641.36,-260.9 610.03,-260.9 610.03,-260.9 606.86,-260.9 603.7,-257.73 603.7,-254.57 603.7,-254.57 603.7,-248.23 603.7,-248.23 603.7,-245.07 606.86,-241.9 610.03,-241.9 610.03,-241.9 641.36,-241.9 641.36,-241.9 644.53,-241.9 647.7,-245.07 647.7,-248.23 647.7,-248.23 647.7,-254.57 647.7,-254.57 647.7,-257.73 644.53,-260.9 641.36,-260.9"/>
<text text-anchor="middle" x="625.7" y="-248.9" font-family="Arial" font-size="10.00" fill="white">HRule</text>
</a>
</g>
</g>
<!-- uqbar.graphs.LineBreak.LineBreak -->
<g id="node19" class="node">
<title>uqbar.graphs.LineBreak.LineBreak</title>
<g id="a_node19"><a xlink:href="../api/uqbar/graphs/LineBreak.html#uqbar.graphs.LineBreak.LineBreak" xlink:title="Line\nBreak" target="_top">
<path fill="black" stroke="black" stroke-width="2" d="M636.7,-420.4C636.7,-420.4 614.7,-420.4 614.7,-420.4 609.7,-420.4 604.7,-415.4 604.7,-410.4 604.7,-410.4 604.7,-400.4 604.7,-400.4 604.7,-395.4 609.7,-390.4 614.7,-390.4 614.7,-390.4 636.7,-390.4 636.7,-390.4 641.7,-390.4 646.7,-395.4 646.7,-400.4 646.7,-400.4 646.7,-410.4 646.7,-410.4 646.7,-415.4 641.7,-420.4 636.7,-420.4"/>
<text text-anchor="middle" x="625.7" y="-408.4" font-family="Arial" font-size="10.00" fill="white">Line</text>
<text text-anchor="middle" x="625.7" y="-397.4" font-family="Arial" font-size="10.00" fill="white">Break</text>
</a>
</g>
</g>
<!-- uqbar.graphs.Node.Node -->
<g id="node20" class="node">
<title>uqbar.graphs.Node.Node</title>
<g id="a_node20"><a xlink:href="../api/uqbar/graphs/Node.html#uqbar.graphs.Node.Node" xlink:title="Node" target="_top">
<path fill="black" stroke="black" stroke-width="2" d="M639.36,-137.9C639.36,-137.9 612.03,-137.9 612.03,-137.9 608.86,-137.9 605.7,-134.73 605.7,-131.57 605.7,-131.57 605.7,-125.23 605.7,-125.23 605.7,-122.07 608.86,-118.9 612.03,-118.9 612.03,-118.9 639.36,-118.9 639.36,-118.9 642.53,-118.9 645.7,-122.07 645.7,-125.23 645.7,-125.23 645.7,-131.57 645.7,-131.57 645.7,-134.73 642.53,-137.9 639.36,-137.9"/>
<text text-anchor="middle" x="625.7" y="-125.9" font-family="Arial" font-size="10.00" fill="white">Node</text>
</a>
</g>
</g>
<!-- uqbar.graphs.RecordGroup.RecordGroup -->
<g id="node21" class="node">
<title>uqbar.graphs.RecordGroup.RecordGroup</title>
<g id="a_node21"><a xlink:href="../api/uqbar/graphs/RecordGroup.html#uqbar.graphs.RecordGroup.RecordGroup" xlink:title="Record\nGroup" target="_top">
<path fill="black" stroke="black" stroke-width="2" d="M639.7,-100.4C639.7,-100.4 611.7,-100.4 611.7,-100.4 606.7,-100.4 601.7,-95.4 601.7,-90.4 601.7,-90.4 601.7,-80.4 601.7,-80.4 601.7,-75.4 606.7,-70.4 611.7,-70.4 611.7,-70.4 639.7,-70.4 639.7,-70.4 644.7,-70.4 649.7,-75.4 649.7,-80.4 649.7,-80.4 649.7,-90.4 649.7,-90.4 649.7,-95.4 644.7,-100.4 639.7,-100.4"/>
<text text-anchor="middle" x="625.7" y="-88.4" font-family="Arial" font-size="10.00" fill="white">Record</text>
<text text-anchor="middle" x="625.7" y="-77.4" font-family="Arial" font-size="10.00" fill="white">Group</text>
</a>
</g>
</g>
<!-- uqbar.graphs.Table.Table -->
<g id="node22" class="node">
<title>uqbar.graphs.Table.Table</title>
<g id="a_node22"><a xlink:href="../api/uqbar/graphs/Table.html#uqbar.graphs.Table.Table" xlink:title="Table" target="_top">
<path fill="black" stroke="black" stroke-width="2" d="M639.36,-51.9C639.36,-51.9 612.03,-51.9 612.03,-51.9 608.86,-51.9 605.7,-48.73 605.7,-45.57 605.7,-45.57 605.7,-39.23 605.7,-39.23 605.7,-36.07 608.86,-32.9 612.03,-32.9 612.03,-32.9 639.36,-32.9 639.36,-32.9 642.53,-32.9 645.7,-36.07 645.7,-39.23 645.7,-39.23 645.7,-45.57 645.7,-45.57 645.7,-48.73 642.53,-51.9 639.36,-51.9"/>
<text text-anchor="middle" x="625.7" y="-39.9" font-family="Arial" font-size="10.00" fill="white">Table</text>
</a>
</g>
</g>
<!-- uqbar.graphs.TableRow.TableRow -->
<g id="node23" class="node">
<title>uqbar.graphs.TableRow.TableRow</title>
<g id="a_node23"><a xlink:href="../api/uqbar/graphs/TableRow.html#uqbar.graphs.TableRow.TableRow" xlink:title="Table\nRow" target="_top">
<path fill="black" stroke="black" stroke-width="2" d="M635.7,-223.4C635.7,-223.4 615.7,-223.4 615.7,-223.4 610.7,-223.4 605.7,-218.4 605.7,-213.4 605.7,-213.4 605.7,-203.4 605.7,-203.4 605.7,-198.4 610.7,-193.4 615.7,-193.4 615.7,-193.4 635.7,-193.4 635.7,-193.4 640.7,-193.4 645.7,-198.4 645.7,-203.4 645.7,-203.4 645.7,-213.4 645.7,-213.4 645.7,-218.4 640.7,-223.4 635.7,-223.4"/>
<text text-anchor="middle" x="625.7" y="-211.4" font-family="Arial" font-size="10.00" fill="white">Table</text>
<text text-anchor="middle" x="625.7" y="-200.4" font-family="Arial" font-size="10.00" fill="white">Row</text>
</a>
</g>
</g>
<!-- uqbar.graphs.Text.Text -->
<g id="node24" class="node">
<title>uqbar.graphs.Text.Text</title>
<g id="a_node24"><a xlink:href="../api/uqbar/graphs/Text.html#uqbar.graphs.Text.Text" xlink:title="Text" target="_top">
<path fill="black" stroke="black" stroke-width="2" d="M636.86,-371.9C636.86,-371.9 614.53,-371.9 614.53,-371.9 611.36,-371.9 608.2,-368.73 608.2,-365.57 608.2,-365.57 608.2,-359.23 608.2,-359.23 608.2,-356.07 611.36,-352.9 614.53,-352.9 614.53,-352.9 636.86,-352.9 636.86,-352.9 640.03,-352.9 643.2,-356.07 643.2,-359.23 643.2,-359.23 643.2,-365.57 643.2,-365.57 643.2,-368.73 640.03,-371.9 636.86,-371.9"/>
<text text-anchor="middle" x="625.7" y="-359.9" font-family="Arial" font-size="10.00" fill="white">Text</text>
</a>
</g>
</g>
<!-- uqbar.graphs.VRule.VRule -->
<g id="node25" class="node">
<title>uqbar.graphs.VRule.VRule</title>
<g id="a_node25"><a xlink:href="../api/uqbar/graphs/VRule.html#uqbar.graphs.VRule.VRule" xlink:title="VRule" target="_top">
<path fill="black" stroke="black" stroke-width="2" d="M641.36,-334.9C641.36,-334.9 610.03,-334.9 610.03,-334.9 606.86,-334.9 603.7,-331.73 603.7,-328.57 603.7,-328.57 603.7,-322.23 603.7,-322.23 603.7,-319.07 606.86,-315.9 610.03,-315.9 610.03,-315.9 641.36,-315.9 641.36,-315.9 644.53,-315.9 647.7,-319.07 647.7,-322.23 647.7,-322.23 647.7,-328.57 647.7,-328.57 647.7,-331.73 644.53,-334.9 641.36,-334.9"/>
<text text-anchor="middle" x="625.7" y="-322.9" font-family="Arial" font-size="10.00" fill="white">VRule</text>
</a>
</g>
</g>
</g>
</svg>
