<?xml version="1.0" encoding="UTF-8" standalone="no"?>
<!DOCTYPE svg PUBLIC "-//W3C//DTD SVG 1.1//EN"
 "http://www.w3.org/Graphics/SVG/1.1/DTD/svg11.dtd">
<!-- Generated by graphviz version 2.40.1 (20161225.0304)
 -->
<!-- Title: InheritanceGraph Pages: 1 -->
<svg width="618pt" height="466pt"
 viewBox="0.00 0.00 617.61 466.00" xmlns="http://www.w3.org/2000/svg" xmlns:xlink="http://www.w3.org/1999/xlink">
<g id="graph0" class="graph" transform="scale(1 1) rotate(0) translate(4 462)">
<title>InheritanceGraph</title>
<g id="clust3" class="cluster">
<title>cluster_uqbar.apis.dummy</title>
<path fill="transparent" stroke="#bcd2ee" stroke-width="2" stroke-dasharray="5,2" d="M93.5,-373C93.5,-373 196,-373 196,-373 202,-373 208,-379 208,-385 208,-385 208,-438 208,-438 208,-444 202,-450 196,-450 196,-450 93.5,-450 93.5,-450 87.5,-450 81.5,-444 81.5,-438 81.5,-438 81.5,-385 81.5,-385 81.5,-379 87.5,-373 93.5,-373"/>
<text text-anchor="middle" x="144.75" y="-438" font-family="Arial" font-size="10.00" fill="#000000">uqbar.apis.dummy</text>
</g>
<g id="clust4" class="cluster">
<title>cluster_uqbar.containers</title>
<path fill="transparent" stroke="#bcd2ee" stroke-width="2" stroke-dasharray="5,2" d="M93,-288C93,-288 281,-288 281,-288 287,-288 293,-294 293,-300 293,-300 293,-353 293,-353 293,-359 287,-365 281,-365 281,-365 93,-365 93,-365 87,-365 81,-359 81,-353 81,-353 81,-300 81,-300 81,-294 87,-288 93,-288"/>
<text text-anchor="middle" x="187" y="-353" font-family="Arial" font-size="10.00" fill="#000000">uqbar.containers</text>
</g>
<g id="clust1" class="cluster">
<title>cluster_builtins</title>
<path fill="transparent" stroke="#bcd2ee" stroke-width="2" stroke-dasharray="5,2" d="M20,-169C20,-169 49,-169 49,-169 55,-169 61,-175 61,-181 61,-181 61,-212 61,-212 61,-218 55,-224 49,-224 49,-224 20,-224 20,-224 14,-224 8,-218 8,-212 8,-212 8,-181 8,-181 8,-175 14,-169 20,-169"/>
<text text-anchor="middle" x="34.5" y="-212" font-family="Arial" font-size="10.00" fill="#000000">builtins</text>
</g>
<g id="clust2" class="cluster">
<title>cluster_uqbar.apis</title>
<path fill="transparent" stroke="#bcd2ee" stroke-width="2" stroke-dasharray="5,2" d="M325,-8C325,-8 589.6102,-8 589.6102,-8 595.6102,-8 601.6102,-14 601.6102,-20 601.6102,-20 601.6102,-351 601.6102,-351 601.6102,-357 595.6102,-363 589.6102,-363 589.6102,-363 325,-363 325,-363 319,-363 313,-357 313,-351 313,-351 313,-20 313,-20 313,-14 319,-8 325,-8"/>
<text text-anchor="middle" x="457.3051" y="-351" font-family="Arial" font-size="10.00" fill="#000000">uqbar.apis</text>
</g>
<!-- builtins.object&#45;&gt;uqbar.apis.APIBuilder.APIBuilder -->
<g id="edge8" class="edge">
<title>builtins.object&#45;&gt;uqbar.apis.APIBuilder.APIBuilder</title>
<path fill="none" stroke="#778899" d="M53.2983,-193.5446C61.6838,-196.2331 71.7415,-199.1447 81,-201 167.5712,-218.3477 271.3859,-225.6486 325.1096,-228.4466"/>
<polygon fill="#778899" stroke="#778899" points="325.0046,-231.9457 335.1665,-228.9478 325.3531,-224.9543 325.0046,-231.9457"/>
</g>
<!-- builtins.object&#45;&gt;uqbar.apis.InheritanceGraph.InheritanceGraph -->
<g id="edge9" class="edge">
<title>builtins.object&#45;&gt;uqbar.apis.InheritanceGraph.InheritanceGraph</title>
<path fill="none" stroke="#778899" d="M53.0068,-187C105.1508,-187 254.0242,-187 324.0464,-187"/>
<polygon fill="#778899" stroke="#778899" points="324.183,-190.5001 334.183,-187 324.183,-183.5001 324.183,-190.5001"/>
</g>
<!-- builtins.object&#45;&gt;uqbar.apis.MemberDocumenter.MemberDocumenter -->
<g id="edge10" class="edge">
<title>builtins.object&#45;&gt;uqbar.apis.MemberDocumenter.MemberDocumenter</title>
<path fill="none" stroke="#778899" d="M53.0068,-183.942C102.4633,-175.77 238.9354,-153.2199 312.6154,-141.0453"/>
<polygon fill="#778899" stroke="#778899" points="313.284,-144.4824 322.5796,-139.3989 312.1427,-137.576 313.284,-144.4824"/>
</g>
<!-- builtins.object&#45;&gt;uqbar.apis.ModuleDocumenter.ModuleDocumenter -->
<g id="edge11" class="edge">
<title>builtins.object&#45;&gt;uqbar.apis.ModuleDocumenter.ModuleDocumenter</title>
<path fill="none" stroke="#778899" d="M53.3701,-178.8869C61.7688,-175.3805 71.8171,-171.3278 81,-168 166.4585,-137.0305 268.615,-106.0937 322.9174,-90.121"/>
<polygon fill="#778899" stroke="#778899" points="324.1914,-93.395 332.803,-87.2232 322.2223,-86.6776 324.1914,-93.395"/>
</g>
<!-- builtins.object&#45;&gt;uqbar.apis.RootDocumenter.RootDocumenter -->
<g id="edge12" class="edge">
<title>builtins.object&#45;&gt;uqbar.apis.RootDocumenter.RootDocumenter</title>
<path fill="none" stroke="#778899" d="M43.7653,-177.4415C52.6779,-168.6524 66.8498,-155.7026 81,-147 161.4534,-97.5201 266.7463,-60.4379 322.5938,-42.6657"/>
<polygon fill="#778899" stroke="#778899" points="323.9394,-45.9116 332.4292,-39.5733 321.8398,-39.2339 323.9394,-45.9116"/>
</g>
<!-- builtins.object&#45;&gt;uqbar.apis.dummy.MyParentClass -->
<g id="edge13" class="edge">
<title>builtins.object&#45;&gt;uqbar.apis.dummy.MyParentClass</title>
<path fill="none" stroke="#778899" d="M35.4196,-196.6236C38.4124,-224.6638 49.5645,-308.1552 81,-369 81.7824,-370.5145 82.6461,-372.0197 83.5705,-373.5054"/>
<polygon fill="#778899" stroke="#778899" points="80.7543,-375.5849 89.3851,-381.7298 86.4701,-371.5439 80.7543,-375.5849"/>
</g>
<!-- builtins.object&#45;&gt;uqbar.containers.UniqueTreeNode.UniqueTreeNode -->
<g id="edge14" class="edge">
<title>builtins.object&#45;&gt;uqbar.containers.UniqueTreeNode.UniqueTreeNode</title>
<path fill="none" stroke="#778899" d="M40.0996,-196.7711C50.97,-215.7396 75.3223,-258.2335 91.96,-287.2657"/>
<polygon fill="#778899" stroke="#778899" points="89.055,-289.2358 97.0639,-296.1718 95.1283,-285.7553 89.055,-289.2358"/>
</g>
<!-- uqbar.apis.ClassDocumenter.ClassDocumenter&#45;&gt;uqbar.apis.SummarizingClassDocumenter.SummarizingClassDocumenter -->
<g id="edge1" class="edge">
<title>uqbar.apis.ClassDocumenter.ClassDocumenter&#45;&gt;uqbar.apis.SummarizingClassDocumenter.SummarizingClassDocumenter</title>
<path fill="none" stroke="#778899" d="M496.1534,-148.5134C504.6667,-148.07 514.1629,-147.5754 523.2802,-147.1005"/>
<polygon fill="#778899" stroke="#778899" points="523.5358,-150.592 533.3402,-146.5766 523.1716,-143.6015 523.5358,-150.592"/>
</g>
<!-- uqbar.apis.MemberDocumenter.MemberDocumenter&#45;&gt;uqbar.apis.ClassDocumenter.ClassDocumenter -->
<g id="edge2" class="edge">
<title>uqbar.apis.MemberDocumenter.MemberDocumenter&#45;&gt;uqbar.apis.ClassDocumenter.ClassDocumenter</title>
<path fill="none" stroke="#778899" d="M399.9844,-139.1855C409.4013,-140.6914 419.4742,-142.3022 428.8929,-143.8084"/>
<polygon fill="#778899" stroke="#778899" points="428.3671,-147.2687 438.7943,-145.3919 429.4725,-140.3566 428.3671,-147.2687"/>
</g>
<!-- uqbar.apis.MemberDocumenter.MemberDocumenter&#45;&gt;uqbar.apis.FunctionDocumenter.FunctionDocumenter -->
<g id="edge3" class="edge">
<title>uqbar.apis.MemberDocumenter.MemberDocumenter&#45;&gt;uqbar.apis.FunctionDocumenter.FunctionDocumenter</title>
<path fill="none" stroke="#778899" d="M387.2455,-149.4379C401.6065,-157.8866 420.0577,-167.7028 437.6102,-174 466.0223,-184.1933 499.6128,-190.5964 524.9634,-194.3677"/>
<polygon fill="#778899" stroke="#778899" points="524.5454,-197.8434 534.9373,-195.7797 525.5267,-190.9125 524.5454,-197.8434"/>
</g>
<!-- uqbar.apis.ModuleDocumenter.ModuleDocumenter&#45;&gt;uqbar.apis.SummarizingModuleDocumenter.SummarizingModuleDocumenter -->
<g id="edge4" class="edge">
<title>uqbar.apis.ModuleDocumenter.ModuleDocumenter&#45;&gt;uqbar.apis.SummarizingModuleDocumenter.SummarizingModuleDocumenter</title>
<path fill="none" stroke="#778899" d="M390.0728,-83.6004C401.506,-85.4288 414.8611,-87.5645 427.2342,-89.5432"/>
<polygon fill="#778899" stroke="#778899" points="426.9057,-93.0351 437.333,-91.1582 428.0112,-86.1229 426.9057,-93.0351"/>
</g>
<!-- uqbar.apis.RootDocumenter.RootDocumenter&#45;&gt;uqbar.apis.SummarizingRootDocumenter.SummarizingRootDocumenter -->
<g id="edge5" class="edge">
<title>uqbar.apis.RootDocumenter.RootDocumenter&#45;&gt;uqbar.apis.SummarizingRootDocumenter.SummarizingRootDocumenter</title>
<path fill="none" stroke="#778899" d="M390.0728,-32.6237C401.506,-33.269 414.8611,-34.0228 427.2342,-34.7211"/>
<polygon fill="#778899" stroke="#778899" points="427.1516,-38.2219 437.333,-35.2911 427.5461,-31.2331 427.1516,-38.2219"/>
</g>
<!-- uqbar.apis.dummy.MyParentClass&#45;&gt;uqbar.apis.dummy.MyChildClass -->
<g id="edge6" class="edge">
<title>uqbar.apis.dummy.MyParentClass&#45;&gt;uqbar.apis.dummy.MyChildClass</title>
<path fill="none" stroke="#778899" d="M128.6967,-402C136.6776,-402 146.0373,-402 154.6925,-402"/>
<polygon fill="#778899" stroke="#778899" points="154.7605,-405.5001 164.7604,-402 154.7604,-398.5001 154.7605,-405.5001"/>
</g>
<!-- uqbar.containers.UniqueTreeContainer.UniqueTreeContainer&#45;&gt;uqbar.apis.PackageNode.PackageNode -->
<g id="edge15" class="edge">
<title>uqbar.containers.UniqueTreeContainer.UniqueTreeContainer&#45;&gt;uqbar.apis.PackageNode.PackageNode</title>
<path fill="none" stroke="#778899" d="M285.1597,-317.9785C298.0722,-318.4909 314.066,-319.1255 328.0573,-319.6807"/>
<polygon fill="#778899" stroke="#778899" points="328.1511,-323.1871 338.282,-320.0864 328.4287,-316.1926 328.1511,-323.1871"/>
</g>
<!-- uqbar.containers.UniqueTreeNode.UniqueTreeNode&#45;&gt;uqbar.apis.ModuleNode.ModuleNode -->
<g id="edge16" class="edge">
<title>uqbar.containers.UniqueTreeNode.UniqueTreeNode&#45;&gt;uqbar.apis.ModuleNode.ModuleNode</title>
<path fill="none" stroke="#778899" d="M129.1033,-311.7187C154.0313,-305.3302 197.8959,-294.6122 236,-288 267.9219,-282.4606 304.7751,-278.3158 330.2114,-275.8027"/>
<polygon fill="#778899" stroke="#778899" points="330.7469,-279.2674 340.366,-274.8262 330.0769,-272.2996 330.7469,-279.2674"/>
</g>
<!-- uqbar.containers.UniqueTreeNode.UniqueTreeNode&#45;&gt;uqbar.containers.UniqueTreeContainer.UniqueTreeContainer -->
<g id="edge7" class="edge">
<title>uqbar.containers.UniqueTreeNode.UniqueTreeNode&#45;&gt;uqbar.containers.UniqueTreeContainer.UniqueTreeContainer</title>
<path fill="none" stroke="#778899" d="M129.118,-317C153.7424,-317 195.8468,-317 225.7504,-317"/>
<polygon fill="#778899" stroke="#778899" points="225.7702,-320.5001 235.7702,-317 225.7702,-313.5001 225.7702,-320.5001"/>
</g>
<!-- builtins.object -->
<g id="node1" class="node">
<title>builtins.object</title>
<g id="a_node1"><a xlink:href="https://docs.python.org/3.6/library/functions.html#object" xlink:title="object" target="_top">
<path fill="#fbb4ae" stroke="#fbb4ae" stroke-width="2" d="M46.6667,-196.5C46.6667,-196.5 22.3333,-196.5 22.3333,-196.5 19.1667,-196.5 16,-193.3333 16,-190.1667 16,-190.1667 16,-183.8333 16,-183.8333 16,-180.6667 19.1667,-177.5 22.3333,-177.5 22.3333,-177.5 46.6667,-177.5 46.6667,-177.5 49.8333,-177.5 53,-180.6667 53,-183.8333 53,-183.8333 53,-190.1667 53,-190.1667 53,-193.3333 49.8333,-196.5 46.6667,-196.5"/>
<text text-anchor="middle" x="34.5" y="-184.5" font-family="Arial" font-size="10.00" fill="#000000">object</text>
</a>
</g>
</g>
<!-- uqbar.apis.APIBuilder.APIBuilder -->
<g id="node2" class="node">
<title>uqbar.apis.APIBuilder.APIBuilder</title>
<g id="a_node2"><a xlink:href="../api/uqbar/apis/APIBuilder.html#uqbar.apis.APIBuilder.APIBuilder" xlink:title="APIBuilder" target="_top">
<path fill="#000000" stroke="#000000" stroke-width="2" d="M380.9718,-239.5C380.9718,-239.5 341.6384,-239.5 341.6384,-239.5 338.4718,-239.5 335.3051,-236.3333 335.3051,-233.1667 335.3051,-233.1667 335.3051,-226.8333 335.3051,-226.8333 335.3051,-223.6667 338.4718,-220.5 341.6384,-220.5 341.6384,-220.5 380.9718,-220.5 380.9718,-220.5 384.1384,-220.5 387.3051,-223.6667 387.3051,-226.8333 387.3051,-226.8333 387.3051,-233.1667 387.3051,-233.1667 387.3051,-236.3333 384.1384,-239.5 380.9718,-239.5"/>
<text text-anchor="middle" x="361.3051" y="-227.5" font-family="Arial" font-size="10.00" fill="#ffffff">APIBuilder</text>
</a>
</g>
</g>
<!-- uqbar.apis.ClassDocumenter.ClassDocumenter -->
<g id="node3" class="node">
<title>uqbar.apis.ClassDocumenter.ClassDocumenter</title>
<g id="a_node3"><a xlink:href="../api/uqbar/apis/ClassDocumenter.html#uqbar.apis.ClassDocumenter.ClassDocumenter" xlink:title="Class\nDocumenter" target="_top">
<path fill="#000000" stroke="#000000" stroke-width="2" d="M486.1102,-165C486.1102,-165 449.1102,-165 449.1102,-165 444.1102,-165 439.1102,-160 439.1102,-155 439.1102,-155 439.1102,-145 439.1102,-145 439.1102,-140 444.1102,-135 449.1102,-135 449.1102,-135 486.1102,-135 486.1102,-135 491.1102,-135 496.1102,-140 496.1102,-145 496.1102,-145 496.1102,-155 496.1102,-155 496.1102,-160 491.1102,-165 486.1102,-165"/>
<text text-anchor="middle" x="467.6102" y="-153" font-family="Arial" font-size="10.00" fill="#ffffff">Class</text>
<text text-anchor="middle" x="467.6102" y="-142" font-family="Arial" font-size="10.00" fill="#ffffff">Documenter</text>
</a>
</g>
</g>
<!-- uqbar.apis.SummarizingClassDocumenter.SummarizingClassDocumenter -->
<g id="node4" class="node">
<title>uqbar.apis.SummarizingClassDocumenter.SummarizingClassDocumenter</title>
<g id="a_node4"><a xlink:href="../api/uqbar/apis/SummarizingClassDocumenter.html#uqbar.apis.SummarizingClassDocumenter.SummarizingClassDocumenter" xlink:title="Summarizing\nClass\nDocumenter" target="_top">
<path fill="#000000" stroke="#000000" stroke-width="2" d="M581.6102,-165.5C581.6102,-165.5 545.6102,-165.5 545.6102,-165.5 539.6102,-165.5 533.6102,-159.5 533.6102,-153.5 533.6102,-153.5 533.6102,-136.5 533.6102,-136.5 533.6102,-130.5 539.6102,-124.5 545.6102,-124.5 545.6102,-124.5 581.6102,-124.5 581.6102,-124.5 587.6102,-124.5 593.6102,-130.5 593.6102,-136.5 593.6102,-136.5 593.6102,-153.5 593.6102,-153.5 593.6102,-159.5 587.6102,-165.5 581.6102,-165.5"/>
<text text-anchor="middle" x="563.6102" y="-153.5" font-family="Arial" font-size="10.00" fill="#ffffff">Summarizing</text>
<text text-anchor="middle" x="563.6102" y="-142.5" font-family="Arial" font-size="10.00" fill="#ffffff">Class</text>
<text text-anchor="middle" x="563.6102" y="-131.5" font-family="Arial" font-size="10.00" fill="#ffffff">Documenter</text>
</a>
</g>
</g>
<!-- uqbar.apis.FunctionDocumenter.FunctionDocumenter -->
<g id="node5" class="node">
<title>uqbar.apis.FunctionDocumenter.FunctionDocumenter</title>
<g id="a_node5"><a xlink:href="../api/uqbar/apis/FunctionDocumenter.html#uqbar.apis.FunctionDocumenter.FunctionDocumenter" xlink:title="Function\nDocumenter" target="_top">
<path fill="#000000" stroke="#000000" stroke-width="2" d="M582.1102,-214C582.1102,-214 545.1102,-214 545.1102,-214 540.1102,-214 535.1102,-209 535.1102,-204 535.1102,-204 535.1102,-194 535.1102,-194 535.1102,-189 540.1102,-184 545.1102,-184 545.1102,-184 582.1102,-184 582.1102,-184 587.1102,-184 592.1102,-189 592.1102,-194 592.1102,-194 592.1102,-204 592.1102,-204 592.1102,-209 587.1102,-214 582.1102,-214"/>
<text text-anchor="middle" x="563.6102" y="-202" font-family="Arial" font-size="10.00" fill="#ffffff">Function</text>
<text text-anchor="middle" x="563.6102" y="-191" font-family="Arial" font-size="10.00" fill="#ffffff">Documenter</text>
</a>
</g>
</g>
<!-- uqbar.apis.InheritanceGraph.InheritanceGraph -->
<g id="node6" class="node">
<title>uqbar.apis.InheritanceGraph.InheritanceGraph</title>
<g id="a_node6"><a xlink:href="../api/uqbar/apis/InheritanceGraph.html#uqbar.apis.InheritanceGraph.InheritanceGraph" xlink:title="Inheritance\nGraph" target="_top">
<path fill="#000000" stroke="#000000" stroke-width="2" d="M378.3051,-202C378.3051,-202 344.3051,-202 344.3051,-202 339.3051,-202 334.3051,-197 334.3051,-192 334.3051,-192 334.3051,-182 334.3051,-182 334.3051,-177 339.3051,-172 344.3051,-172 344.3051,-172 378.3051,-172 378.3051,-172 383.3051,-172 388.3051,-177 388.3051,-182 388.3051,-182 388.3051,-192 388.3051,-192 388.3051,-197 383.3051,-202 378.3051,-202"/>
<text text-anchor="middle" x="361.3051" y="-190" font-family="Arial" font-size="10.00" fill="#ffffff">Inheritance</text>
<text text-anchor="middle" x="361.3051" y="-179" font-family="Arial" font-size="10.00" fill="#ffffff">Graph</text>
</a>
</g>
</g>
<!-- uqbar.apis.MemberDocumenter.MemberDocumenter -->
<g id="node7" class="node">
<title>uqbar.apis.MemberDocumenter.MemberDocumenter</title>
<g id="a_node7"><a xlink:href="../api/uqbar/apis/MemberDocumenter.html#uqbar.apis.MemberDocumenter.MemberDocumenter" xlink:title="Member\nDocumenter" target="_top">
<ellipse fill="#000000" stroke="#000000" stroke-width="2" cx="361.3051" cy="-133" rx="40.1111" ry="21.4286"/>
<text text-anchor="middle" x="361.3051" y="-136" font-family="Arial" font-size="10.00" fill="#ffffff">Member</text>
<text text-anchor="middle" x="361.3051" y="-125" font-family="Arial" font-size="10.00" fill="#ffffff">Documenter</text>
</a>
</g>
</g>
<!-- uqbar.apis.ModuleDocumenter.ModuleDocumenter -->
<g id="node8" class="node">
<title>uqbar.apis.ModuleDocumenter.ModuleDocumenter</title>
<g id="a_node8"><a xlink:href="../api/uqbar/apis/ModuleDocumenter.html#uqbar.apis.ModuleDocumenter.ModuleDocumenter" xlink:title="Module\nDocumenter" target="_top">
<path fill="#000000" stroke="#000000" stroke-width="2" d="M379.8051,-94C379.8051,-94 342.8051,-94 342.8051,-94 337.8051,-94 332.8051,-89 332.8051,-84 332.8051,-84 332.8051,-74 332.8051,-74 332.8051,-69 337.8051,-64 342.8051,-64 342.8051,-64 379.8051,-64 379.8051,-64 384.8051,-64 389.8051,-69 389.8051,-74 389.8051,-74 389.8051,-84 389.8051,-84 389.8051,-89 384.8051,-94 379.8051,-94"/>
<text text-anchor="middle" x="361.3051" y="-82" font-family="Arial" font-size="10.00" fill="#ffffff">Module</text>
<text text-anchor="middle" x="361.3051" y="-71" font-family="Arial" font-size="10.00" fill="#ffffff">Documenter</text>
</a>
</g>
</g>
<!-- uqbar.apis.SummarizingModuleDocumenter.SummarizingModuleDocumenter -->
<g id="node9" class="node">
<title>uqbar.apis.SummarizingModuleDocumenter.SummarizingModuleDocumenter</title>
<g id="a_node9"><a xlink:href="../api/uqbar/apis/SummarizingModuleDocumenter.html#uqbar.apis.SummarizingModuleDocumenter.SummarizingModuleDocumenter" xlink:title="Summarizing\nModule\nDocumenter" target="_top">
<path fill="#000000" stroke="#000000" stroke-width="2" d="M485.6102,-116.5C485.6102,-116.5 449.6102,-116.5 449.6102,-116.5 443.6102,-116.5 437.6102,-110.5 437.6102,-104.5 437.6102,-104.5 437.6102,-87.5 437.6102,-87.5 437.6102,-81.5 443.6102,-75.5 449.6102,-75.5 449.6102,-75.5 485.6102,-75.5 485.6102,-75.5 491.6102,-75.5 497.6102,-81.5 497.6102,-87.5 497.6102,-87.5 497.6102,-104.5 497.6102,-104.5 497.6102,-110.5 491.6102,-116.5 485.6102,-116.5"/>
<text text-anchor="middle" x="467.6102" y="-104.5" font-family="Arial" font-size="10.00" fill="#ffffff">Summarizing</text>
<text text-anchor="middle" x="467.6102" y="-93.5" font-family="Arial" font-size="10.00" fill="#ffffff">Module</text>
<text text-anchor="middle" x="467.6102" y="-82.5" font-family="Arial" font-size="10.00" fill="#ffffff">Documenter</text>
</a>
</g>
</g>
<!-- uqbar.apis.ModuleNode.ModuleNode -->
<g id="node10" class="node">
<title>uqbar.apis.ModuleNode.ModuleNode</title>
<g id="a_node10"><a xlink:href="../api/uqbar/apis/ModuleNode.html#uqbar.apis.ModuleNode.ModuleNode" xlink:title="Module\nNode" target="_top">
<path fill="#000000" stroke="#000000" stroke-width="2" d="M371.8051,-288C371.8051,-288 350.8051,-288 350.8051,-288 345.8051,-288 340.8051,-283 340.8051,-278 340.8051,-278 340.8051,-268 340.8051,-268 340.8051,-263 345.8051,-258 350.8051,-258 350.8051,-258 371.8051,-258 371.8051,-258 376.8051,-258 381.8051,-263 381.8051,-268 381.8051,-268 381.8051,-278 381.8051,-278 381.8051,-283 376.8051,-288 371.8051,-288"/>
<text text-anchor="middle" x="361.3051" y="-276" font-family="Arial" font-size="10.00" fill="#ffffff">Module</text>
<text text-anchor="middle" x="361.3051" y="-265" font-family="Arial" font-size="10.00" fill="#ffffff">Node</text>
</a>
</g>
</g>
<!-- uqbar.apis.PackageNode.PackageNode -->
<g id="node11" class="node">
<title>uqbar.apis.PackageNode.PackageNode</title>
<g id="a_node11"><a xlink:href="../api/uqbar/apis/PackageNode.html#uqbar.apis.PackageNode.PackageNode" xlink:title="Package\nNode" target="_top">
<path fill="#000000" stroke="#000000" stroke-width="2" d="M374.3051,-336C374.3051,-336 348.3051,-336 348.3051,-336 343.3051,-336 338.3051,-331 338.3051,-326 338.3051,-326 338.3051,-316 338.3051,-316 338.3051,-311 343.3051,-306 348.3051,-306 348.3051,-306 374.3051,-306 374.3051,-306 379.3051,-306 384.3051,-311 384.3051,-316 384.3051,-316 384.3051,-326 384.3051,-326 384.3051,-331 379.3051,-336 374.3051,-336"/>
<text text-anchor="middle" x="361.3051" y="-324" font-family="Arial" font-size="10.00" fill="#ffffff">Package</text>
<text text-anchor="middle" x="361.3051" y="-313" font-family="Arial" font-size="10.00" fill="#ffffff">Node</text>
</a>
</g>
</g>
<!-- uqbar.apis.RootDocumenter.RootDocumenter -->
<g id="node12" class="node">
<title>uqbar.apis.RootDocumenter.RootDocumenter</title>
<g id="a_node12"><a xlink:href="../api/uqbar/apis/RootDocumenter.html#uqbar.apis.RootDocumenter.RootDocumenter" xlink:title="Root\nDocumenter" target="_top">
<path fill="#000000" stroke="#000000" stroke-width="2" d="M379.8051,-46C379.8051,-46 342.8051,-46 342.8051,-46 337.8051,-46 332.8051,-41 332.8051,-36 332.8051,-36 332.8051,-26 332.8051,-26 332.8051,-21 337.8051,-16 342.8051,-16 342.8051,-16 379.8051,-16 379.8051,-16 384.8051,-16 389.8051,-21 389.8051,-26 389.8051,-26 389.8051,-36 389.8051,-36 389.8051,-41 384.8051,-46 379.8051,-46"/>
<text text-anchor="middle" x="361.3051" y="-34" font-family="Arial" font-size="10.00" fill="#ffffff">Root</text>
<text text-anchor="middle" x="361.3051" y="-23" font-family="Arial" font-size="10.00" fill="#ffffff">Documenter</text>
</a>
</g>
</g>
<!-- uqbar.apis.SummarizingRootDocumenter.SummarizingRootDocumenter -->
<g id="node13" class="node">
<title>uqbar.apis.SummarizingRootDocumenter.SummarizingRootDocumenter</title>
<g id="a_node13"><a xlink:href="../api/uqbar/apis/SummarizingRootDocumenter.html#uqbar.apis.SummarizingRootDocumenter.SummarizingRootDocumenter" xlink:title="Summarizing\nRoot\nDocumenter" target="_top">
<path fill="#000000" stroke="#000000" stroke-width="2" d="M485.6102,-57.5C485.6102,-57.5 449.6102,-57.5 449.6102,-57.5 443.6102,-57.5 437.6102,-51.5 437.6102,-45.5 437.6102,-45.5 437.6102,-28.5 437.6102,-28.5 437.6102,-22.5 443.6102,-16.5 449.6102,-16.5 449.6102,-16.5 485.6102,-16.5 485.6102,-16.5 491.6102,-16.5 497.6102,-22.5 497.6102,-28.5 497.6102,-28.5 497.6102,-45.5 497.6102,-45.5 497.6102,-51.5 491.6102,-57.5 485.6102,-57.5"/>
<text text-anchor="middle" x="467.6102" y="-45.5" font-family="Arial" font-size="10.00" fill="#ffffff">Summarizing</text>
<text text-anchor="middle" x="467.6102" y="-34.5" font-family="Arial" font-size="10.00" fill="#ffffff">Root</text>
<text text-anchor="middle" x="467.6102" y="-23.5" font-family="Arial" font-size="10.00" fill="#ffffff">Documenter</text>
</a>
</g>
</g>
<!-- uqbar.apis.dummy.MyChildClass -->
<g id="node14" class="node">
<title>uqbar.apis.dummy.MyChildClass</title>
<g id="a_node14"><a xlink:href="../api/uqbar/apis/dummy.html#uqbar.apis.dummy.MyChildClass" xlink:title="My\nChild\nClass" target="_top">
<path fill="#ccebc5" stroke="#ccebc5" stroke-width="2" d="M188.3333,-422.5C188.3333,-422.5 176.6667,-422.5 176.6667,-422.5 170.8333,-422.5 165,-416.6667 165,-410.8333 165,-410.8333 165,-393.1667 165,-393.1667 165,-387.3333 170.8333,-381.5 176.6667,-381.5 176.6667,-381.5 188.3333,-381.5 188.3333,-381.5 194.1667,-381.5 200,-387.3333 200,-393.1667 200,-393.1667 200,-410.8333 200,-410.8333 200,-416.6667 194.1667,-422.5 188.3333,-422.5"/>
<text text-anchor="middle" x="182.5" y="-410.5" font-family="Arial" font-size="10.00" fill="#000000">My</text>
<text text-anchor="middle" x="182.5" y="-399.5" font-family="Arial" font-size="10.00" fill="#000000">Child</text>
<text text-anchor="middle" x="182.5" y="-388.5" font-family="Arial" font-size="10.00" fill="#000000">Class</text>
</a>
</g>
</g>
<!-- uqbar.apis.dummy.MyParentClass -->
<g id="node15" class="node">
<title>uqbar.apis.dummy.MyParentClass</title>
<g id="a_node15"><a xlink:href="../api/uqbar/apis/dummy.html#uqbar.apis.dummy.MyParentClass" xlink:title="My\nParent\nClass" target="_top">
<path fill="#ccebc5" stroke="#ccebc5" stroke-width="2" d="M116.5,-422.5C116.5,-422.5 101.5,-422.5 101.5,-422.5 95.5,-422.5 89.5,-416.5 89.5,-410.5 89.5,-410.5 89.5,-393.5 89.5,-393.5 89.5,-387.5 95.5,-381.5 101.5,-381.5 101.5,-381.5 116.5,-381.5 116.5,-381.5 122.5,-381.5 128.5,-387.5 128.5,-393.5 128.5,-393.5 128.5,-410.5 128.5,-410.5 128.5,-416.5 122.5,-422.5 116.5,-422.5"/>
<text text-anchor="middle" x="109" y="-410.5" font-family="Arial" font-size="10.00" fill="#000000">My</text>
<text text-anchor="middle" x="109" y="-399.5" font-family="Arial" font-size="10.00" fill="#000000">Parent</text>
<text text-anchor="middle" x="109" y="-388.5" font-family="Arial" font-size="10.00" fill="#000000">Class</text>
</a>
</g>
</g>
<!-- uqbar.containers.UniqueTreeContainer.UniqueTreeContainer -->
<g id="node16" class="node">
<title>uqbar.containers.UniqueTreeContainer.UniqueTreeContainer</title>
<g id="a_node16"><a xlink:href="../api/uqbar/apis/../containers/UniqueTreeContainer.html#uqbar.containers.UniqueTreeContainer.UniqueTreeContainer" xlink:title="Unique\nTree\nContainer" target="_top">
<path fill="#decbe4" stroke="#decbe4" stroke-width="2" d="M273,-337.5C273,-337.5 248,-337.5 248,-337.5 242,-337.5 236,-331.5 236,-325.5 236,-325.5 236,-308.5 236,-308.5 236,-302.5 242,-296.5 248,-296.5 248,-296.5 273,-296.5 273,-296.5 279,-296.5 285,-302.5 285,-308.5 285,-308.5 285,-325.5 285,-325.5 285,-331.5 279,-337.5 273,-337.5"/>
<text text-anchor="middle" x="260.5" y="-325.5" font-family="Arial" font-size="10.00" fill="#000000">Unique</text>
<text text-anchor="middle" x="260.5" y="-314.5" font-family="Arial" font-size="10.00" fill="#000000">Tree</text>
<text text-anchor="middle" x="260.5" y="-303.5" font-family="Arial" font-size="10.00" fill="#000000">Container</text>
</a>
</g>
</g>
<!-- uqbar.containers.UniqueTreeNode.UniqueTreeNode -->
<g id="node17" class="node">
<title>uqbar.containers.UniqueTreeNode.UniqueTreeNode</title>
<g id="a_node17"><a xlink:href="../api/uqbar/apis/../containers/UniqueTreeNode.html#uqbar.containers.UniqueTreeNode.UniqueTreeNode" xlink:title="Unique\nTree\nNode" target="_top">
<path fill="#decbe4" stroke="#decbe4" stroke-width="2" d="M117,-337.5C117,-337.5 101,-337.5 101,-337.5 95,-337.5 89,-331.5 89,-325.5 89,-325.5 89,-308.5 89,-308.5 89,-302.5 95,-296.5 101,-296.5 101,-296.5 117,-296.5 117,-296.5 123,-296.5 129,-302.5 129,-308.5 129,-308.5 129,-325.5 129,-325.5 129,-331.5 123,-337.5 117,-337.5"/>
<text text-anchor="middle" x="109" y="-325.5" font-family="Arial" font-size="10.00" fill="#000000">Unique</text>
<text text-anchor="middle" x="109" y="-314.5" font-family="Arial" font-size="10.00" fill="#000000">Tree</text>
<text text-anchor="middle" x="109" y="-303.5" font-family="Arial" font-size="10.00" fill="#000000">Node</text>
</a>
</g>
</g>
</g>
</svg>
