<?xml version="1.0" encoding="UTF-8" standalone="no"?>
<!DOCTYPE svg PUBLIC "-//W3C//DTD SVG 1.1//EN"
 "http://www.w3.org/Graphics/SVG/1.1/DTD/svg11.dtd">
<!-- Generated by graphviz version 2.44.0 (20200408.0750)
 -->
<!-- Title: InheritanceGraph Pages: 1 -->
<svg width="488pt" height="291pt"
 viewBox="0.00 0.00 488.00 291.00" xmlns="http://www.w3.org/2000/svg" xmlns:xlink="http://www.w3.org/1999/xlink">
<g id="graph0" class="graph" transform="scale(1 1) rotate(0) translate(4 287)">
<title>InheritanceGraph</title>
<g id="clust1" class="cluster">
<title>cluster_builtins</title>
<path fill="transparent" stroke="#bcd2ee" stroke-width="2" stroke-dasharray="5,2" d="M20,-210C20,-210 248,-210 248,-210 254,-210 260,-216 260,-222 260,-222 260,-263 260,-263 260,-269 254,-275 248,-275 248,-275 20,-275 20,-275 14,-275 8,-269 8,-263 8,-263 8,-222 8,-222 8,-216 14,-210 20,-210"/>
<text text-anchor="middle" x="134" y="-263" font-family="Arial" font-size="10.00">builtins</text>
</g>
<g id="clust2" class="cluster">
<title>cluster_code</title>
<path fill="transparent" stroke="#bcd2ee" stroke-width="2" stroke-dasharray="5,2" d="M195,-137C195,-137 347,-137 347,-137 353,-137 359,-143 359,-149 359,-149 359,-190 359,-190 359,-196 353,-202 347,-202 347,-202 195,-202 195,-202 189,-202 183,-196 183,-190 183,-190 183,-149 183,-149 183,-143 189,-137 195,-137"/>
<text text-anchor="middle" x="271" y="-190" font-family="Arial" font-size="10.00">code</text>
</g>
<g id="clust3" class="cluster">
<title>cluster_uqbar.book.console</title>
<path fill="transparent" stroke="#bcd2ee" stroke-width="2" stroke-dasharray="5,2" d="M391,-8C391,-8 468,-8 468,-8 474,-8 480,-14 480,-20 480,-20 480,-243 480,-243 480,-249 474,-255 468,-255 468,-255 391,-255 391,-255 385,-255 379,-249 379,-243 379,-243 379,-20 379,-20 379,-14 385,-8 391,-8"/>
<text text-anchor="middle" x="429.5" y="-243" font-family="Arial" font-size="10.00">uqbar.book.console</text>
</g>
<!-- builtins.BaseException&#45;&gt;builtins.Exception -->
<g id="edge1" class="edge">
<title>builtins.BaseException&#45;&gt;builtins.Exception</title>
<path fill="none" stroke="lightslategrey" d="M155.02,-232.08C163.41,-231.82 172.72,-231.52 181.63,-231.24"/>
<polygon fill="lightslategrey" stroke="lightslategrey" points="181.95,-234.74 191.83,-230.92 181.73,-227.74 181.95,-234.74"/>
</g>
<!-- builtins.Exception&#45;&gt;uqbar.book.console.ConsoleError -->
<g id="edge4" class="edge">
<title>builtins.Exception&#45;&gt;uqbar.book.console.ConsoleError</title>
<path fill="none" stroke="lightslategrey" d="M252.01,-227.6C288.98,-224.54 352.86,-219.26 392.79,-215.95"/>
<polygon fill="lightslategrey" stroke="lightslategrey" points="393.2,-219.43 402.88,-215.12 392.62,-212.46 393.2,-219.43"/>
</g>
<!-- builtins.object&#45;&gt;builtins.BaseException -->
<g id="edge2" class="edge">
<title>builtins.object&#45;&gt;builtins.BaseException</title>
<path fill="none" stroke="lightslategrey" d="M59.2,-229.21C66.87,-229.66 75.85,-230.18 84.63,-230.7"/>
<polygon fill="lightslategrey" stroke="lightslategrey" points="84.58,-234.2 94.77,-231.29 84.99,-227.21 84.58,-234.2"/>
</g>
<!-- builtins.object&#45;&gt;code.InteractiveInterpreter -->
<g id="edge5" class="edge">
<title>builtins.object&#45;&gt;code.InteractiveInterpreter</title>
<path fill="none" stroke="lightslategrey" d="M59.08,-220.33C88.6,-209.33 143.55,-188.86 181.18,-174.84"/>
<polygon fill="lightslategrey" stroke="lightslategrey" points="182.67,-178.02 190.82,-171.24 180.23,-171.46 182.67,-178.02"/>
</g>
<!-- builtins.object&#45;&gt;uqbar.book.console.ConsoleInput -->
<g id="edge6" class="edge">
<title>builtins.object&#45;&gt;uqbar.book.console.ConsoleInput</title>
<path fill="none" stroke="lightslategrey" d="M48.22,-218.27C69.99,-197.29 125.29,-148.47 183,-133 255.51,-113.56 344.42,-118.03 392.86,-122.71"/>
<polygon fill="lightslategrey" stroke="lightslategrey" points="392.54,-126.19 402.85,-123.73 393.26,-119.23 392.54,-126.19"/>
</g>
<!-- builtins.object&#45;&gt;uqbar.book.console.ConsoleOutput -->
<g id="edge7" class="edge">
<title>builtins.object&#45;&gt;uqbar.book.console.ConsoleOutput</title>
<path fill="none" stroke="lightslategrey" d="M41.9,-218.27C48.84,-199.83 66.47,-159.82 95,-139 185.71,-72.81 326.55,-71.97 392.34,-75.82"/>
<polygon fill="lightslategrey" stroke="lightslategrey" points="392.4,-79.33 402.61,-76.5 392.86,-72.35 392.4,-79.33"/>
</g>
<!-- builtins.object&#45;&gt;uqbar.book.console.MonkeyPatch -->
<g id="edge8" class="edge">
<title>builtins.object&#45;&gt;uqbar.book.console.MonkeyPatch</title>
<path fill="none" stroke="lightslategrey" d="M40.1,-218.25C44.45,-194.83 58.72,-134.95 95,-103 180.69,-27.54 326.43,-24.9 393.2,-28.2"/>
<polygon fill="lightslategrey" stroke="lightslategrey" points="393.41,-31.71 403.59,-28.79 393.81,-24.73 393.41,-31.71"/>
</g>
<!-- code.InteractiveConsole&#45;&gt;uqbar.book.console.Console -->
<g id="edge9" class="edge">
<title>code.InteractiveConsole&#45;&gt;uqbar.book.console.Console</title>
<path fill="none" stroke="lightslategrey" d="M351.23,-162.81C364.07,-164.01 379.14,-165.41 392.54,-166.66"/>
<polygon fill="lightslategrey" stroke="lightslategrey" points="392.58,-170.17 402.86,-167.61 393.23,-163.2 392.58,-170.17"/>
</g>
<!-- code.InteractiveInterpreter&#45;&gt;code.InteractiveConsole -->
<g id="edge3" class="edge">
<title>code.InteractiveInterpreter&#45;&gt;code.InteractiveConsole</title>
<path fill="none" stroke="lightslategrey" d="M253.11,-160C261.24,-160 270.17,-160 278.76,-160"/>
<polygon fill="lightslategrey" stroke="lightslategrey" points="279,-163.5 289,-160 279,-156.5 279,-163.5"/>
</g>
<!-- builtins.BaseException -->
<g id="node1" class="node">
<title>builtins.BaseException</title>
<g id="a_node1"><a xlink:href="https://docs.python.org/3.6/library/exceptions.html#BaseException" xlink:title="Base\nException" target="_top">
<path fill="#fbb4ae" stroke="#fbb4ae" stroke-width="2" d="M145,-248C145,-248 105,-248 105,-248 100,-248 95,-243 95,-238 95,-238 95,-228 95,-228 95,-223 100,-218 105,-218 105,-218 145,-218 145,-218 150,-218 155,-223 155,-228 155,-228 155,-238 155,-238 155,-243 150,-248 145,-248"/>
<text text-anchor="middle" x="125" y="-236" font-family="Arial" font-size="10.00">Base</text>
<text text-anchor="middle" x="125" y="-225" font-family="Arial" font-size="10.00">Exception</text>
</a>
</g>
</g>
<!-- builtins.Exception -->
<g id="node2" class="node">
<title>builtins.Exception</title>
<g id="a_node2"><a xlink:href="https://docs.python.org/3.6/library/exceptions.html#Exception" xlink:title="Exception" target="_top">
<path fill="#fbb4ae" stroke="#fbb4ae" stroke-width="2" d="M245.67,-239.5C245.67,-239.5 198.33,-239.5 198.33,-239.5 195.17,-239.5 192,-236.33 192,-233.17 192,-233.17 192,-226.83 192,-226.83 192,-223.67 195.17,-220.5 198.33,-220.5 198.33,-220.5 245.67,-220.5 245.67,-220.5 248.83,-220.5 252,-223.67 252,-226.83 252,-226.83 252,-233.17 252,-233.17 252,-236.33 248.83,-239.5 245.67,-239.5"/>
<text text-anchor="middle" x="222" y="-227.5" font-family="Arial" font-size="10.00">Exception</text>
</a>
</g>
</g>
<!-- builtins.object -->
<g id="node3" class="node">
<title>builtins.object</title>
<g id="a_node3"><a xlink:href="https://docs.python.org/3.6/library/functions.html#object" xlink:title="object" target="_top">
<path fill="#fbb4ae" stroke="#fbb4ae" stroke-width="2" d="M52.67,-237.5C52.67,-237.5 22.33,-237.5 22.33,-237.5 19.17,-237.5 16,-234.33 16,-231.17 16,-231.17 16,-224.83 16,-224.83 16,-221.67 19.17,-218.5 22.33,-218.5 22.33,-218.5 52.67,-218.5 52.67,-218.5 55.83,-218.5 59,-221.67 59,-224.83 59,-224.83 59,-231.17 59,-231.17 59,-234.33 55.83,-237.5 52.67,-237.5"/>
<text text-anchor="middle" x="37.5" y="-225.5" font-family="Arial" font-size="10.00">object</text>
</a>
</g>
</g>
<!-- code.InteractiveConsole -->
<g id="node4" class="node">
<title>code.InteractiveConsole</title>
<g id="a_node4"><a xlink:href="https://docs.python.org/3.6/library/code.html#code.InteractiveConsole" xlink:title="Interactive\nConsole" target="_top">
<path fill="#b3cde3" stroke="#b3cde3" stroke-width="2" d="M341,-175C341,-175 299,-175 299,-175 294,-175 289,-170 289,-165 289,-165 289,-155 289,-155 289,-150 294,-145 299,-145 299,-145 341,-145 341,-145 346,-145 351,-150 351,-155 351,-155 351,-165 351,-165 351,-170 346,-175 341,-175"/>
<text text-anchor="middle" x="320" y="-163" font-family="Arial" font-size="10.00">Interactive</text>
<text text-anchor="middle" x="320" y="-152" font-family="Arial" font-size="10.00">Console</text>
</a>
</g>
</g>
<!-- code.InteractiveInterpreter -->
<g id="node5" class="node">
<title>code.InteractiveInterpreter</title>
<g id="a_node5"><a xlink:href="https://docs.python.org/3.6/library/code.html#code.InteractiveInterpreter" xlink:title="Interactive\nInterpreter" target="_top">
<path fill="#b3cde3" stroke="#b3cde3" stroke-width="2" d="M243,-175C243,-175 201,-175 201,-175 196,-175 191,-170 191,-165 191,-165 191,-155 191,-155 191,-150 196,-145 201,-145 201,-145 243,-145 243,-145 248,-145 253,-150 253,-155 253,-155 253,-165 253,-165 253,-170 248,-175 243,-175"/>
<text text-anchor="middle" x="222" y="-163" font-family="Arial" font-size="10.00">Interactive</text>
<text text-anchor="middle" x="222" y="-152" font-family="Arial" font-size="10.00">Interpreter</text>
</a>
</g>
</g>
<!-- uqbar.book.console.Console -->
<g id="node6" class="node">
<title>uqbar.book.console.Console</title>
<g id="a_node6"><a xlink:href="../api/uqbar/book/console.html#uqbar.book.console.Console" xlink:title="Console" target="_top">
<path fill="black" stroke="black" stroke-width="2" d="M449.67,-179.5C449.67,-179.5 409.33,-179.5 409.33,-179.5 406.17,-179.5 403,-176.33 403,-173.17 403,-173.17 403,-166.83 403,-166.83 403,-163.67 406.17,-160.5 409.33,-160.5 409.33,-160.5 449.67,-160.5 449.67,-160.5 452.83,-160.5 456,-163.67 456,-166.83 456,-166.83 456,-173.17 456,-173.17 456,-176.33 452.83,-179.5 449.67,-179.5"/>
<text text-anchor="middle" x="429.5" y="-167.5" font-family="Arial" font-size="10.00" fill="white">Console</text>
</a>
</g>
</g>
<!-- uqbar.book.console.ConsoleError -->
<g id="node7" class="node">
<title>uqbar.book.console.ConsoleError</title>
<g id="a_node7"><a xlink:href="../api/uqbar/book/console.html#uqbar.book.console.ConsoleError" xlink:title="Console\nError" target="_top">
<path fill="black" stroke="black" stroke-width="2" d="M446,-228C446,-228 413,-228 413,-228 408,-228 403,-223 403,-218 403,-218 403,-208 403,-208 403,-203 408,-198 413,-198 413,-198 446,-198 446,-198 451,-198 456,-203 456,-208 456,-208 456,-218 456,-218 456,-223 451,-228 446,-228"/>
<text text-anchor="middle" x="429.5" y="-216" font-family="Arial" font-size="10.00" fill="white">Console</text>
<text text-anchor="middle" x="429.5" y="-205" font-family="Arial" font-size="10.00" fill="white">Error</text>
</a>
</g>
</g>
<!-- uqbar.book.console.ConsoleInput -->
<g id="node8" class="node">
<title>uqbar.book.console.ConsoleInput</title>
<g id="a_node8"><a xlink:href="../api/uqbar/book/console.html#uqbar.book.console.ConsoleInput" xlink:title="Console\nInput" target="_top">
<path fill="black" stroke="black" stroke-width="2" d="M446,-142C446,-142 413,-142 413,-142 408,-142 403,-137 403,-132 403,-132 403,-122 403,-122 403,-117 408,-112 413,-112 413,-112 446,-112 446,-112 451,-112 456,-117 456,-122 456,-122 456,-132 456,-132 456,-137 451,-142 446,-142"/>
<text text-anchor="middle" x="429.5" y="-130" font-family="Arial" font-size="10.00" fill="white">Console</text>
<text text-anchor="middle" x="429.5" y="-119" font-family="Arial" font-size="10.00" fill="white">Input</text>
</a>
</g>
</g>
<!-- uqbar.book.console.ConsoleOutput -->
<g id="node9" class="node">
<title>uqbar.book.console.ConsoleOutput</title>
<g id="a_node9"><a xlink:href="../api/uqbar/book/console.html#uqbar.book.console.ConsoleOutput" xlink:title="Console\nOutput" target="_top">
<path fill="black" stroke="black" stroke-width="2" d="M446,-94C446,-94 413,-94 413,-94 408,-94 403,-89 403,-84 403,-84 403,-74 403,-74 403,-69 408,-64 413,-64 413,-64 446,-64 446,-64 451,-64 456,-69 456,-74 456,-74 456,-84 456,-84 456,-89 451,-94 446,-94"/>
<text text-anchor="middle" x="429.5" y="-82" font-family="Arial" font-size="10.00" fill="white">Console</text>
<text text-anchor="middle" x="429.5" y="-71" font-family="Arial" font-size="10.00" fill="white">Output</text>
</a>
</g>
</g>
<!-- uqbar.book.console.MonkeyPatch -->
<g id="node10" class="node">
<title>uqbar.book.console.MonkeyPatch</title>
<g id="a_node10"><a xlink:href="../api/uqbar/book/console.html#uqbar.book.console.MonkeyPatch" xlink:title="Monkey\nPatch" target="_top">
<path fill="black" stroke="black" stroke-width="2" d="M445,-46C445,-46 414,-46 414,-46 409,-46 404,-41 404,-36 404,-36 404,-26 404,-26 404,-21 409,-16 414,-16 414,-16 445,-16 445,-16 450,-16 455,-21 455,-26 455,-26 455,-36 455,-36 455,-41 450,-46 445,-46"/>
<text text-anchor="middle" x="429.5" y="-34" font-family="Arial" font-size="10.00" fill="white">Monkey</text>
<text text-anchor="middle" x="429.5" y="-23" font-family="Arial" font-size="10.00" fill="white">Patch</text>
</a>
</g>
</g>
</g>
</svg>
