<?xml version="1.0" encoding="UTF-8" standalone="no"?>
<!DOCTYPE svg PUBLIC "-//W3C//DTD SVG 1.1//EN"
 "http://www.w3.org/Graphics/SVG/1.1/DTD/svg11.dtd">
<!-- Generated by graphviz version 2.44.1 (20200629.0846)
 -->
<!-- Title: InheritanceGraph Pages: 1 -->
<svg width="173pt" height="79pt"
 viewBox="0.00 0.00 173.00 79.00" xmlns="http://www.w3.org/2000/svg" xmlns:xlink="http://www.w3.org/1999/xlink">
<g id="graph0" class="graph" transform="scale(1 1) rotate(0) translate(4 75)">
<title>InheritanceGraph</title>
<g id="clust1" class="cluster">
<title>cluster_builtins</title>
<path fill="transparent" stroke="#bcd2ee" stroke-width="2" stroke-dasharray="5,2" d="M20,-8C20,-8 55,-8 55,-8 61,-8 67,-14 67,-20 67,-20 67,-51 67,-51 67,-57 61,-63 55,-63 55,-63 20,-63 20,-63 14,-63 8,-57 8,-51 8,-51 8,-20 8,-20 8,-14 14,-8 20,-8"/>
<text text-anchor="middle" x="37.5" y="-51" font-family="Arial" font-size="10.00">builtins</text>
</g>
<g id="clust2" class="cluster">
<title>cluster_uqbar.graphs</title>
<path fill="transparent" stroke="#bcd2ee" stroke-width="2" stroke-dasharray="5,2" d="M99,-8C99,-8 148,-8 148,-8 154,-8 160,-14 160,-20 160,-20 160,-51 160,-51 160,-57 154,-63 148,-63 148,-63 99,-63 99,-63 93,-63 87,-57 87,-51 87,-51 87,-20 87,-20 87,-14 93,-8 99,-8"/>
<text text-anchor="middle" x="123.5" y="-51" font-family="Arial" font-size="10.00">uqbar.graphs</text>
</g>
<!-- builtins.object&#45;&gt;uqbar.graphs.Grapher.Grapher -->
<g id="edge1" class="edge">
<title>builtins.object&#45;&gt;uqbar.graphs.Grapher.Grapher</title>
<path fill="none" stroke="lightslategrey" d="M59.26,-26C67.83,-26 77.99,-26 87.63,-26"/>
<polygon fill="lightslategrey" stroke="lightslategrey" points="87.79,-29.5 97.79,-26 87.79,-22.5 87.79,-29.5"/>
</g>
<!-- builtins.object -->
<g id="node1" class="node">
<title>builtins.object</title>
<g id="a_node1"><a xlink:href="https://docs.python.org/3.6/library/functions.html#object" xlink:title="object" target="_top">
<path fill="#fbb4ae" stroke="#fbb4ae" stroke-width="2" d="M52.67,-35.5C52.67,-35.5 22.33,-35.5 22.33,-35.5 19.17,-35.5 16,-32.33 16,-29.17 16,-29.17 16,-22.83 16,-22.83 16,-19.67 19.17,-16.5 22.33,-16.5 22.33,-16.5 52.67,-16.5 52.67,-16.5 55.83,-16.5 59,-19.67 59,-22.83 59,-22.83 59,-29.17 59,-29.17 59,-32.33 55.83,-35.5 52.67,-35.5"/>
<text text-anchor="middle" x="37.5" y="-23.5" font-family="Arial" font-size="10.00">object</text>
</a>
</g>
</g>
<!-- uqbar.graphs.Grapher.Grapher -->
<g id="node2" class="node">
<title>uqbar.graphs.Grapher.Grapher</title>
<g id="a_node2"><a xlink:href="../api/uqbar/graphs/Grapher.html#uqbar.graphs.Grapher.Grapher" xlink:title="Grapher" target="_top">
<path fill="black" stroke="black" stroke-width="2" d="M142.67,-35.5C142.67,-35.5 104.33,-35.5 104.33,-35.5 101.17,-35.5 98,-32.33 98,-29.17 98,-29.17 98,-22.83 98,-22.83 98,-19.67 101.17,-16.5 104.33,-16.5 104.33,-16.5 142.67,-16.5 142.67,-16.5 145.83,-16.5 149,-19.67 149,-22.83 149,-22.83 149,-29.17 149,-29.17 149,-32.33 145.83,-35.5 142.67,-35.5"/>
<text text-anchor="middle" x="123.5" y="-23.5" font-family="Arial" font-size="10.00" fill="white">Grapher</text>
</a>
</g>
</g>
</g>
</svg>
