<?xml version="1.0" encoding="UTF-8" standalone="no"?>
<!DOCTYPE svg PUBLIC "-//W3C//DTD SVG 1.1//EN"
 "http://www.w3.org/Graphics/SVG/1.1/DTD/svg11.dtd">
<!-- Generated by graphviz version 2.44.0 (20200408.0750)
 -->
<!-- Title: InheritanceGraph Pages: 1 -->
<svg width="618pt" height="644pt"
 viewBox="0.00 0.00 618.00 644.00" xmlns="http://www.w3.org/2000/svg" xmlns:xlink="http://www.w3.org/1999/xlink">
<g id="graph0" class="graph" transform="scale(1 1) rotate(0) translate(4 640)">
<title>InheritanceGraph</title>
<g id="clust1" class="cluster">
<title>cluster_builtins</title>
<path fill="transparent" stroke="#bcd2ee" stroke-width="2" stroke-dasharray="5,2" d="M20,-423C20,-423 55,-423 55,-423 61,-423 67,-429 67,-435 67,-435 67,-466 67,-466 67,-472 61,-478 55,-478 55,-478 20,-478 20,-478 14,-478 8,-472 8,-466 8,-466 8,-435 8,-435 8,-429 14,-423 20,-423"/>
<text text-anchor="middle" x="37.5" y="-466" font-family="Arial" font-size="10.00">builtins</text>
</g>
<g id="clust2" class="cluster">
<title>cluster_uqbar.apis</title>
<path fill="transparent" stroke="#bcd2ee" stroke-width="2" stroke-dasharray="5,2" d="M360,-210C360,-210 407,-210 407,-210 413,-210 419,-216 419,-222 419,-222 419,-311 419,-311 419,-317 413,-323 407,-323 407,-323 360,-323 360,-323 354,-323 348,-317 348,-311 348,-311 348,-222 348,-222 348,-216 354,-210 360,-210"/>
<text text-anchor="middle" x="383.5" y="-311" font-family="Arial" font-size="10.00">uqbar.apis</text>
</g>
<g id="clust3" class="cluster">
<title>cluster_uqbar.containers</title>
<path fill="transparent" stroke="#bcd2ee" stroke-width="2" stroke-dasharray="5,2" d="M99,-412C99,-412 403,-412 403,-412 409,-412 415,-418 415,-424 415,-424 415,-616 415,-616 415,-622 409,-628 403,-628 403,-628 99,-628 99,-628 93,-628 87,-622 87,-616 87,-616 87,-424 87,-424 87,-418 93,-412 99,-412"/>
<text text-anchor="middle" x="251" y="-616" font-family="Arial" font-size="10.00">uqbar.containers</text>
</g>
<g id="clust4" class="cluster">
<title>cluster_uqbar.graphs</title>
<path fill="transparent" stroke="#bcd2ee" stroke-width="2" stroke-dasharray="5,2" d="M451,-63C451,-63 590,-63 590,-63 596,-63 602,-69 602,-75 602,-75 602,-475 602,-475 602,-481 596,-487 590,-487 590,-487 451,-487 451,-487 445,-487 439,-481 439,-475 439,-475 439,-75 439,-75 439,-69 445,-63 451,-63"/>
<text text-anchor="middle" x="520.5" y="-475" font-family="Arial" font-size="10.00">uqbar.graphs</text>
</g>
<!-- builtins.object&#45;&gt;uqbar.containers.UniqueTreeNode.UniqueTreeNode -->
<g id="edge8" class="edge">
<title>builtins.object&#45;&gt;uqbar.containers.UniqueTreeNode.UniqueTreeNode</title>
<path fill="none" stroke="lightslategrey" d="M59.26,-441C67.06,-441 76.13,-441 84.75,-441"/>
<polygon fill="lightslategrey" stroke="lightslategrey" points="84.94,-444.5 94.94,-441 84.94,-437.5 84.94,-444.5"/>
</g>
<!-- uqbar.containers.UniqueTreeContainer.UniqueTreeContainer&#45;&gt;uqbar.containers.UniqueTreeDict.UniqueTreeDict -->
<g id="edge1" class="edge">
<title>uqbar.containers.UniqueTreeContainer.UniqueTreeContainer&#45;&gt;uqbar.containers.UniqueTreeDict.UniqueTreeDict</title>
<path fill="none" stroke="lightslategrey" d="M237.47,-480.35C246.14,-474.47 255.69,-468 264.49,-462.03"/>
<polygon fill="lightslategrey" stroke="lightslategrey" points="266.67,-464.78 272.98,-456.27 262.74,-458.99 266.67,-464.78"/>
</g>
<!-- uqbar.containers.UniqueTreeContainer.UniqueTreeContainer&#45;&gt;uqbar.containers.UniqueTreeList.UniqueTreeList -->
<g id="edge2" class="edge">
<title>uqbar.containers.UniqueTreeContainer.UniqueTreeContainer&#45;&gt;uqbar.containers.UniqueTreeList.UniqueTreeList</title>
<path fill="none" stroke="lightslategrey" d="M237.47,-500C245.6,-500 254.5,-500 262.83,-500"/>
<polygon fill="lightslategrey" stroke="lightslategrey" points="262.98,-503.5 272.98,-500 262.98,-496.5 262.98,-503.5"/>
</g>
<!-- uqbar.containers.UniqueTreeContainer.UniqueTreeContainer&#45;&gt;uqbar.containers.UniqueTreeSet.UniqueTreeSet -->
<g id="edge3" class="edge">
<title>uqbar.containers.UniqueTreeContainer.UniqueTreeContainer&#45;&gt;uqbar.containers.UniqueTreeSet.UniqueTreeSet</title>
<path fill="none" stroke="lightslategrey" d="M237.03,-513.38C248.23,-518.61 261.2,-524.62 273,-530 293.82,-539.49 299.18,-541.52 320,-551 330.06,-555.58 341.01,-560.64 350.89,-565.23"/>
<polygon fill="lightslategrey" stroke="lightslategrey" points="349.43,-568.41 359.97,-569.45 352.38,-562.06 349.43,-568.41"/>
</g>
<!-- uqbar.containers.UniqueTreeContainer.UniqueTreeContainer&#45;&gt;uqbar.containers.UniqueTreeTuple.UniqueTreeTuple -->
<g id="edge4" class="edge">
<title>uqbar.containers.UniqueTreeContainer.UniqueTreeContainer&#45;&gt;uqbar.containers.UniqueTreeTuple.UniqueTreeTuple</title>
<path fill="none" stroke="lightslategrey" d="M230.9,-520.6C241.46,-530.31 254.2,-542.02 265.57,-552.47"/>
<polygon fill="lightslategrey" stroke="lightslategrey" points="263.44,-555.28 273.17,-559.47 268.18,-550.12 263.44,-555.28"/>
</g>
<!-- uqbar.containers.UniqueTreeList.UniqueTreeList&#45;&gt;uqbar.apis.PackageNode.PackageNode -->
<g id="edge9" class="edge">
<title>uqbar.containers.UniqueTreeList.UniqueTreeList&#45;&gt;uqbar.apis.PackageNode.PackageNode</title>
<path fill="none" stroke="lightslategrey" d="M315.42,-479.19C317.16,-476.55 318.74,-473.79 320,-471 346.94,-411.63 321.55,-386.59 348,-327 351.53,-319.04 356.66,-311.17 361.89,-304.25"/>
<polygon fill="lightslategrey" stroke="lightslategrey" points="364.93,-306.05 368.45,-296.05 359.47,-301.67 364.93,-306.05"/>
</g>
<!-- uqbar.containers.UniqueTreeList.UniqueTreeList&#45;&gt;uqbar.graphs.TableCell.TableCell -->
<g id="edge14" class="edge">
<title>uqbar.containers.UniqueTreeList.UniqueTreeList&#45;&gt;uqbar.graphs.TableCell.TableCell</title>
<path fill="none" stroke="lightslategrey" d="M320.2,-504.19C363.29,-510.74 457.31,-518 510,-469 553.5,-428.54 564.97,-355.31 567.96,-316.6"/>
<polygon fill="lightslategrey" stroke="lightslategrey" points="571.48,-316.41 568.62,-306.2 564.49,-315.96 571.48,-316.41"/>
</g>
<!-- uqbar.containers.UniqueTreeList.UniqueTreeList&#45;&gt;uqbar.graphs.Graph.Graph -->
<g id="edge10" class="edge">
<title>uqbar.containers.UniqueTreeList.UniqueTreeList&#45;&gt;uqbar.graphs.Graph.Graph</title>
<path fill="none" stroke="lightslategrey" d="M320.01,-494.72C344.49,-488.86 384.71,-478.93 419,-469 428.17,-466.35 438.06,-463.23 447.06,-460.3"/>
<polygon fill="lightslategrey" stroke="lightslategrey" points="448.35,-463.55 456.75,-457.1 446.16,-456.91 448.35,-463.55"/>
</g>
<!-- uqbar.containers.UniqueTreeList.UniqueTreeList&#45;&gt;uqbar.graphs.Node.Node -->
<g id="edge11" class="edge">
<title>uqbar.containers.UniqueTreeList.UniqueTreeList&#45;&gt;uqbar.graphs.Node.Node</title>
<path fill="none" stroke="lightslategrey" d="M320.23,-485.1C328.78,-479.74 338.69,-473.84 348,-469 381.73,-451.47 422.15,-434.62 448.75,-424.06"/>
<polygon fill="lightslategrey" stroke="lightslategrey" points="450.21,-427.25 458.23,-420.33 447.65,-420.73 450.21,-427.25"/>
</g>
<!-- uqbar.containers.UniqueTreeList.UniqueTreeList&#45;&gt;uqbar.graphs.RecordGroup.RecordGroup -->
<g id="edge12" class="edge">
<title>uqbar.containers.UniqueTreeList.UniqueTreeList&#45;&gt;uqbar.graphs.RecordGroup.RecordGroup</title>
<path fill="none" stroke="lightslategrey" d="M313.57,-479.48C315.75,-476.64 317.94,-473.76 320,-471 332.76,-453.9 331.64,-445.7 348,-432 363.61,-418.92 412.04,-397.29 445.04,-383.34"/>
<polygon fill="lightslategrey" stroke="lightslategrey" points="446.44,-386.55 454.31,-379.45 443.74,-380.09 446.44,-386.55"/>
</g>
<!-- uqbar.containers.UniqueTreeList.UniqueTreeList&#45;&gt;uqbar.graphs.Table.Table -->
<g id="edge13" class="edge">
<title>uqbar.containers.UniqueTreeList.UniqueTreeList&#45;&gt;uqbar.graphs.Table.Table</title>
<path fill="none" stroke="lightslategrey" d="M314.78,-479.31C316.67,-476.6 318.47,-473.79 320,-471 337.73,-438.72 323.73,-420.71 348,-393 351.67,-388.81 411.98,-358.96 448.98,-340.87"/>
<polygon fill="lightslategrey" stroke="lightslategrey" points="450.84,-343.86 458.29,-336.32 447.77,-337.57 450.84,-343.86"/>
</g>
<!-- uqbar.containers.UniqueTreeList.UniqueTreeList&#45;&gt;uqbar.graphs.TableRow.TableRow -->
<g id="edge15" class="edge">
<title>uqbar.containers.UniqueTreeList.UniqueTreeList&#45;&gt;uqbar.graphs.TableRow.TableRow</title>
<path fill="none" stroke="lightslategrey" d="M315.08,-479.46C316.92,-476.73 318.62,-473.87 320,-471 342.99,-423.21 313.19,-395.01 348,-355 370.26,-329.41 390.16,-344.85 419,-327 429.17,-320.71 429.51,-316.28 439,-309 442.41,-306.38 446.1,-303.75 449.79,-301.24"/>
<polygon fill="lightslategrey" stroke="lightslategrey" points="451.87,-304.06 458.3,-295.63 448.02,-298.22 451.87,-304.06"/>
</g>
<!-- uqbar.containers.UniqueTreeNode.UniqueTreeNode&#45;&gt;uqbar.apis.ModuleNode.ModuleNode -->
<g id="edge16" class="edge">
<title>uqbar.containers.UniqueTreeNode.UniqueTreeNode&#45;&gt;uqbar.apis.ModuleNode.ModuleNode</title>
<path fill="none" stroke="lightslategrey" d="M142.11,-421.92C182.66,-387.88 270.75,-314.86 348,-257 349.37,-255.98 350.77,-254.94 352.19,-253.9"/>
<polygon fill="lightslategrey" stroke="lightslategrey" points="354.34,-256.67 360.43,-248.01 350.26,-250.98 354.34,-256.67"/>
</g>
<!-- uqbar.containers.UniqueTreeNode.UniqueTreeNode&#45;&gt;uqbar.containers.UniqueTreeContainer.UniqueTreeContainer -->
<g id="edge5" class="edge">
<title>uqbar.containers.UniqueTreeNode.UniqueTreeNode&#45;&gt;uqbar.containers.UniqueTreeContainer.UniqueTreeContainer</title>
<path fill="none" stroke="lightslategrey" d="M142.36,-456.5C150.68,-462.15 160.32,-468.68 169.56,-474.95"/>
<polygon fill="lightslategrey" stroke="lightslategrey" points="167.64,-477.87 177.88,-480.59 171.57,-472.08 167.64,-477.87"/>
</g>
<!-- uqbar.containers.UniqueTreeNode.UniqueTreeNode&#45;&gt;uqbar.graphs.Attachable.Attachable -->
<g id="edge17" class="edge">
<title>uqbar.containers.UniqueTreeNode.UniqueTreeNode&#45;&gt;uqbar.graphs.Attachable.Attachable</title>
<path fill="none" stroke="lightslategrey" d="M128.73,-420.41C138.89,-399.12 156.65,-365.62 178,-341 241.22,-268.12 256.9,-237.77 348,-206 377.8,-195.61 389.38,-195.11 419,-206 429.95,-210.02 429.18,-216.7 439,-223 440.92,-224.23 442.93,-225.43 444.99,-226.58"/>
<polygon fill="lightslategrey" stroke="lightslategrey" points="443.67,-229.84 454.16,-231.31 446.88,-223.62 443.67,-229.84"/>
</g>
<!-- uqbar.containers.UniqueTreeNode.UniqueTreeNode&#45;&gt;uqbar.graphs.RecordField.RecordField -->
<g id="edge20" class="edge">
<title>uqbar.containers.UniqueTreeNode.UniqueTreeNode&#45;&gt;uqbar.graphs.RecordField.RecordField</title>
<path fill="none" stroke="lightslategrey" d="M120.9,-420.13C125.72,-353.03 143.24,-143.87 178,-87 211.89,-31.56 230.52,0 295.5,0 295.5,0 295.5,0 384.5,0 446.91,0 466.54,-18.2 510,-63 538.22,-92.09 554.71,-137.15 562.77,-165.04"/>
<polygon fill="lightslategrey" stroke="lightslategrey" points="559.44,-166.11 565.46,-174.82 566.19,-164.25 559.44,-166.11"/>
</g>
<!-- uqbar.containers.UniqueTreeNode.UniqueTreeNode&#45;&gt;uqbar.graphs.HRule.HRule -->
<g id="edge18" class="edge">
<title>uqbar.containers.UniqueTreeNode.UniqueTreeNode&#45;&gt;uqbar.graphs.HRule.HRule</title>
<path fill="none" stroke="lightslategrey" d="M121.92,-420.37C126.9,-385.84 141.11,-315.62 178,-270 230.04,-205.65 265.87,-204.24 348,-194 379.31,-190.1 387.56,-191.33 419,-194 428,-194.76 437.7,-196.18 446.56,-197.71"/>
<polygon fill="lightslategrey" stroke="lightslategrey" points="446.02,-201.17 456.49,-199.52 447.28,-194.28 446.02,-201.17"/>
</g>
<!-- uqbar.containers.UniqueTreeNode.UniqueTreeNode&#45;&gt;uqbar.graphs.LineBreak.LineBreak -->
<g id="edge19" class="edge">
<title>uqbar.containers.UniqueTreeNode.UniqueTreeNode&#45;&gt;uqbar.graphs.LineBreak.LineBreak</title>
<path fill="none" stroke="lightslategrey" d="M122.06,-420.28C128.72,-369.86 148.14,-242.84 178,-214 252.17,-142.36 387.45,-149.18 447.46,-156.44"/>
<polygon fill="lightslategrey" stroke="lightslategrey" points="447.06,-159.92 457.42,-157.74 447.96,-152.97 447.06,-159.92"/>
</g>
<!-- uqbar.containers.UniqueTreeNode.UniqueTreeNode&#45;&gt;uqbar.graphs.Text.Text -->
<g id="edge21" class="edge">
<title>uqbar.containers.UniqueTreeNode.UniqueTreeNode&#45;&gt;uqbar.graphs.Text.Text</title>
<path fill="none" stroke="lightslategrey" d="M121.19,-420.39C126.25,-363.88 143.12,-208.33 178,-173 251.98,-98.08 392.12,-106.44 450.71,-113.85"/>
<polygon fill="lightslategrey" stroke="lightslategrey" points="450.6,-117.37 460.98,-115.25 451.54,-110.43 450.6,-117.37"/>
</g>
<!-- uqbar.containers.UniqueTreeNode.UniqueTreeNode&#45;&gt;uqbar.graphs.VRule.VRule -->
<g id="edge22" class="edge">
<title>uqbar.containers.UniqueTreeNode.UniqueTreeNode&#45;&gt;uqbar.graphs.VRule.VRule</title>
<path fill="none" stroke="lightslategrey" d="M120.53,-420.39C124.06,-357.99 137.8,-172.89 178,-131 248.94,-57.09 384.76,-66.58 446.08,-75.44"/>
<polygon fill="lightslategrey" stroke="lightslategrey" points="445.88,-78.95 456.29,-77.01 446.94,-72.03 445.88,-78.95"/>
</g>
<!-- uqbar.graphs.Attachable.Attachable&#45;&gt;uqbar.graphs.RecordField.RecordField -->
<g id="edge6" class="edge">
<title>uqbar.graphs.Attachable.Attachable&#45;&gt;uqbar.graphs.RecordField.RecordField</title>
<path fill="none" stroke="lightslategrey" d="M496.33,-231.41C507.8,-224.87 523.33,-216.02 537.1,-208.18"/>
<polygon fill="lightslategrey" stroke="lightslategrey" points="538.87,-211.2 545.82,-203.21 535.4,-205.12 538.87,-211.2"/>
</g>
<!-- uqbar.graphs.Attachable.Attachable&#45;&gt;uqbar.graphs.TableCell.TableCell -->
<g id="edge7" class="edge">
<title>uqbar.graphs.Attachable.Attachable&#45;&gt;uqbar.graphs.TableCell.TableCell</title>
<path fill="none" stroke="lightslategrey" d="M496.76,-250.64C509.26,-257.62 526.43,-267.22 540.9,-275.3"/>
<polygon fill="lightslategrey" stroke="lightslategrey" points="539.5,-278.53 549.94,-280.35 542.91,-272.42 539.5,-278.53"/>
</g>
<!-- builtins.object -->
<g id="node1" class="node">
<title>builtins.object</title>
<g id="a_node1"><a xlink:href="https://docs.python.org/3.6/library/functions.html#object" xlink:title="object" target="_top">
<path fill="#fbb4ae" stroke="#fbb4ae" stroke-width="2" d="M52.67,-450.5C52.67,-450.5 22.33,-450.5 22.33,-450.5 19.17,-450.5 16,-447.33 16,-444.17 16,-444.17 16,-437.83 16,-437.83 16,-434.67 19.17,-431.5 22.33,-431.5 22.33,-431.5 52.67,-431.5 52.67,-431.5 55.83,-431.5 59,-434.67 59,-437.83 59,-437.83 59,-444.17 59,-444.17 59,-447.33 55.83,-450.5 52.67,-450.5"/>
<text text-anchor="middle" x="37.5" y="-438.5" font-family="Arial" font-size="10.00">object</text>
</a>
</g>
</g>
<!-- uqbar.apis.ModuleNode.ModuleNode -->
<g id="node2" class="node">
<title>uqbar.apis.ModuleNode.ModuleNode</title>
<g id="a_node2"><a xlink:href="../api/uqbar/containers/../apis/ModuleNode.html#uqbar.apis.ModuleNode.ModuleNode" xlink:title="Module\nNode" target="_top">
<path fill="#b3cde3" stroke="#b3cde3" stroke-width="2" d="M397.5,-248C397.5,-248 369.5,-248 369.5,-248 364.5,-248 359.5,-243 359.5,-238 359.5,-238 359.5,-228 359.5,-228 359.5,-223 364.5,-218 369.5,-218 369.5,-218 397.5,-218 397.5,-218 402.5,-218 407.5,-223 407.5,-228 407.5,-228 407.5,-238 407.5,-238 407.5,-243 402.5,-248 397.5,-248"/>
<text text-anchor="middle" x="383.5" y="-236" font-family="Arial" font-size="10.00">Module</text>
<text text-anchor="middle" x="383.5" y="-225" font-family="Arial" font-size="10.00">Node</text>
</a>
</g>
</g>
<!-- uqbar.apis.PackageNode.PackageNode -->
<g id="node3" class="node">
<title>uqbar.apis.PackageNode.PackageNode</title>
<g id="a_node3"><a xlink:href="../api/uqbar/containers/../apis/PackageNode.html#uqbar.apis.PackageNode.PackageNode" xlink:title="Package\nNode" target="_top">
<path fill="#b3cde3" stroke="#b3cde3" stroke-width="2" d="M401,-296C401,-296 366,-296 366,-296 361,-296 356,-291 356,-286 356,-286 356,-276 356,-276 356,-271 361,-266 366,-266 366,-266 401,-266 401,-266 406,-266 411,-271 411,-276 411,-276 411,-286 411,-286 411,-291 406,-296 401,-296"/>
<text text-anchor="middle" x="383.5" y="-284" font-family="Arial" font-size="10.00">Package</text>
<text text-anchor="middle" x="383.5" y="-273" font-family="Arial" font-size="10.00">Node</text>
</a>
</g>
</g>
<!-- uqbar.containers.UniqueTreeContainer.UniqueTreeContainer -->
<g id="node4" class="node">
<title>uqbar.containers.UniqueTreeContainer.UniqueTreeContainer</title>
<g id="a_node4"><a xlink:href="../api/uqbar/containers/UniqueTreeContainer.html#uqbar.containers.UniqueTreeContainer.UniqueTreeContainer" xlink:title="Unique\nTree\nContainer" target="_top">
<path fill="#ccebc5" stroke="#ccebc5" stroke-width="2" d="M225,-520.5C225,-520.5 190,-520.5 190,-520.5 184,-520.5 178,-514.5 178,-508.5 178,-508.5 178,-491.5 178,-491.5 178,-485.5 184,-479.5 190,-479.5 190,-479.5 225,-479.5 225,-479.5 231,-479.5 237,-485.5 237,-491.5 237,-491.5 237,-508.5 237,-508.5 237,-514.5 231,-520.5 225,-520.5"/>
<text text-anchor="middle" x="207.5" y="-508.5" font-family="Arial" font-size="10.00">Unique</text>
<text text-anchor="middle" x="207.5" y="-497.5" font-family="Arial" font-size="10.00">Tree</text>
<text text-anchor="middle" x="207.5" y="-486.5" font-family="Arial" font-size="10.00">Container</text>
</a>
</g>
</g>
<!-- uqbar.containers.UniqueTreeDict.UniqueTreeDict -->
<g id="node5" class="node">
<title>uqbar.containers.UniqueTreeDict.UniqueTreeDict</title>
<g id="a_node5"><a xlink:href="../api/uqbar/containers/UniqueTreeDict.html#uqbar.containers.UniqueTreeDict.UniqueTreeDict" xlink:title="Unique\nTree\nDict" target="_top">
<path fill="#ccebc5" stroke="#ccebc5" stroke-width="2" d="M308,-461.5C308,-461.5 285,-461.5 285,-461.5 279,-461.5 273,-455.5 273,-449.5 273,-449.5 273,-432.5 273,-432.5 273,-426.5 279,-420.5 285,-420.5 285,-420.5 308,-420.5 308,-420.5 314,-420.5 320,-426.5 320,-432.5 320,-432.5 320,-449.5 320,-449.5 320,-455.5 314,-461.5 308,-461.5"/>
<text text-anchor="middle" x="296.5" y="-449.5" font-family="Arial" font-size="10.00">Unique</text>
<text text-anchor="middle" x="296.5" y="-438.5" font-family="Arial" font-size="10.00">Tree</text>
<text text-anchor="middle" x="296.5" y="-427.5" font-family="Arial" font-size="10.00">Dict</text>
</a>
</g>
</g>
<!-- uqbar.containers.UniqueTreeList.UniqueTreeList -->
<g id="node6" class="node">
<title>uqbar.containers.UniqueTreeList.UniqueTreeList</title>
<g id="a_node6"><a xlink:href="../api/uqbar/containers/UniqueTreeList.html#uqbar.containers.UniqueTreeList.UniqueTreeList" xlink:title="Unique\nTree\nList" target="_top">
<path fill="#ccebc5" stroke="#ccebc5" stroke-width="2" d="M308,-520.5C308,-520.5 285,-520.5 285,-520.5 279,-520.5 273,-514.5 273,-508.5 273,-508.5 273,-491.5 273,-491.5 273,-485.5 279,-479.5 285,-479.5 285,-479.5 308,-479.5 308,-479.5 314,-479.5 320,-485.5 320,-491.5 320,-491.5 320,-508.5 320,-508.5 320,-514.5 314,-520.5 308,-520.5"/>
<text text-anchor="middle" x="296.5" y="-508.5" font-family="Arial" font-size="10.00">Unique</text>
<text text-anchor="middle" x="296.5" y="-497.5" font-family="Arial" font-size="10.00">Tree</text>
<text text-anchor="middle" x="296.5" y="-486.5" font-family="Arial" font-size="10.00">List</text>
</a>
</g>
</g>
<!-- uqbar.containers.UniqueTreeSet.UniqueTreeSet -->
<g id="node7" class="node">
<title>uqbar.containers.UniqueTreeSet.UniqueTreeSet</title>
<g id="a_node7"><a xlink:href="../api/uqbar/containers/UniqueTreeSet.html#uqbar.containers.UniqueTreeSet.UniqueTreeSet" xlink:title="Unique\nTree\nSet" target="_top">
<path fill="#ccebc5" stroke="#ccebc5" stroke-width="2" d="M395,-600.5C395,-600.5 372,-600.5 372,-600.5 366,-600.5 360,-594.5 360,-588.5 360,-588.5 360,-571.5 360,-571.5 360,-565.5 366,-559.5 372,-559.5 372,-559.5 395,-559.5 395,-559.5 401,-559.5 407,-565.5 407,-571.5 407,-571.5 407,-588.5 407,-588.5 407,-594.5 401,-600.5 395,-600.5"/>
<text text-anchor="middle" x="383.5" y="-588.5" font-family="Arial" font-size="10.00">Unique</text>
<text text-anchor="middle" x="383.5" y="-577.5" font-family="Arial" font-size="10.00">Tree</text>
<text text-anchor="middle" x="383.5" y="-566.5" font-family="Arial" font-size="10.00">Set</text>
</a>
</g>
</g>
<!-- uqbar.containers.UniqueTreeTuple.UniqueTreeTuple -->
<g id="node8" class="node">
<title>uqbar.containers.UniqueTreeTuple.UniqueTreeTuple</title>
<g id="a_node8"><a xlink:href="../api/uqbar/containers/UniqueTreeTuple.html#uqbar.containers.UniqueTreeTuple.UniqueTreeTuple" xlink:title="Unique\nTree\nTuple" target="_top">
<path fill="#ccebc5" stroke="#ccebc5" stroke-width="2" d="M308,-600.5C308,-600.5 285,-600.5 285,-600.5 279,-600.5 273,-594.5 273,-588.5 273,-588.5 273,-571.5 273,-571.5 273,-565.5 279,-559.5 285,-559.5 285,-559.5 308,-559.5 308,-559.5 314,-559.5 320,-565.5 320,-571.5 320,-571.5 320,-588.5 320,-588.5 320,-594.5 314,-600.5 308,-600.5"/>
<text text-anchor="middle" x="296.5" y="-588.5" font-family="Arial" font-size="10.00">Unique</text>
<text text-anchor="middle" x="296.5" y="-577.5" font-family="Arial" font-size="10.00">Tree</text>
<text text-anchor="middle" x="296.5" y="-566.5" font-family="Arial" font-size="10.00">Tuple</text>
</a>
</g>
</g>
<!-- uqbar.containers.UniqueTreeNode.UniqueTreeNode -->
<g id="node9" class="node">
<title>uqbar.containers.UniqueTreeNode.UniqueTreeNode</title>
<g id="a_node9"><a xlink:href="../api/uqbar/containers/UniqueTreeNode.html#uqbar.containers.UniqueTreeNode.UniqueTreeNode" xlink:title="Unique\nTree\nNode" target="_top">
<path fill="black" stroke="black" stroke-width="2" d="M130,-461.5C130,-461.5 107,-461.5 107,-461.5 101,-461.5 95,-455.5 95,-449.5 95,-449.5 95,-432.5 95,-432.5 95,-426.5 101,-420.5 107,-420.5 107,-420.5 130,-420.5 130,-420.5 136,-420.5 142,-426.5 142,-432.5 142,-432.5 142,-449.5 142,-449.5 142,-455.5 136,-461.5 130,-461.5"/>
<text text-anchor="middle" x="118.5" y="-449.5" font-family="Arial" font-size="10.00" fill="white">Unique</text>
<text text-anchor="middle" x="118.5" y="-438.5" font-family="Arial" font-size="10.00" fill="white">Tree</text>
<text text-anchor="middle" x="118.5" y="-427.5" font-family="Arial" font-size="10.00" fill="white">Node</text>
</a>
</g>
</g>
<!-- uqbar.graphs.Attachable.Attachable -->
<g id="node10" class="node">
<title>uqbar.graphs.Attachable.Attachable</title>
<g id="a_node10"><a xlink:href="../api/uqbar/containers/../graphs/Attachable.html#uqbar.graphs.Attachable.Attachable" xlink:title="Attachable" target="_top">
<path fill="#decbe4" stroke="#decbe4" stroke-width="2" d="M503.67,-250.5C503.67,-250.5 453.33,-250.5 453.33,-250.5 450.17,-250.5 447,-247.33 447,-244.17 447,-244.17 447,-237.83 447,-237.83 447,-234.67 450.17,-231.5 453.33,-231.5 453.33,-231.5 503.67,-231.5 503.67,-231.5 506.83,-231.5 510,-234.67 510,-237.83 510,-237.83 510,-244.17 510,-244.17 510,-247.33 506.83,-250.5 503.67,-250.5"/>
<text text-anchor="middle" x="478.5" y="-238.5" font-family="Arial" font-size="10.00">Attachable</text>
</a>
</g>
</g>
<!-- uqbar.graphs.RecordField.RecordField -->
<g id="node11" class="node">
<title>uqbar.graphs.RecordField.RecordField</title>
<g id="a_node11"><a xlink:href="../api/uqbar/containers/../graphs/RecordField.html#uqbar.graphs.RecordField.RecordField" xlink:title="Record\nField" target="_top">
<path fill="#decbe4" stroke="#decbe4" stroke-width="2" d="M584,-205C584,-205 556,-205 556,-205 551,-205 546,-200 546,-195 546,-195 546,-185 546,-185 546,-180 551,-175 556,-175 556,-175 584,-175 584,-175 589,-175 594,-180 594,-185 594,-185 594,-195 594,-195 594,-200 589,-205 584,-205"/>
<text text-anchor="middle" x="570" y="-193" font-family="Arial" font-size="10.00">Record</text>
<text text-anchor="middle" x="570" y="-182" font-family="Arial" font-size="10.00">Field</text>
</a>
</g>
</g>
<!-- uqbar.graphs.TableCell.TableCell -->
<g id="node12" class="node">
<title>uqbar.graphs.TableCell.TableCell</title>
<g id="a_node12"><a xlink:href="../api/uqbar/containers/../graphs/TableCell.html#uqbar.graphs.TableCell.TableCell" xlink:title="Table\nCell" target="_top">
<path fill="#decbe4" stroke="#decbe4" stroke-width="2" d="M580,-306C580,-306 560,-306 560,-306 555,-306 550,-301 550,-296 550,-296 550,-286 550,-286 550,-281 555,-276 560,-276 560,-276 580,-276 580,-276 585,-276 590,-281 590,-286 590,-286 590,-296 590,-296 590,-301 585,-306 580,-306"/>
<text text-anchor="middle" x="570" y="-294" font-family="Arial" font-size="10.00">Table</text>
<text text-anchor="middle" x="570" y="-283" font-family="Arial" font-size="10.00">Cell</text>
</a>
</g>
</g>
<!-- uqbar.graphs.Graph.Graph -->
<g id="node13" class="node">
<title>uqbar.graphs.Graph.Graph</title>
<g id="a_node13"><a xlink:href="../api/uqbar/containers/../graphs/Graph.html#uqbar.graphs.Graph.Graph" xlink:title="Graph" target="_top">
<path fill="#decbe4" stroke="#decbe4" stroke-width="2" d="M493.67,-459.5C493.67,-459.5 463.33,-459.5 463.33,-459.5 460.17,-459.5 457,-456.33 457,-453.17 457,-453.17 457,-446.83 457,-446.83 457,-443.67 460.17,-440.5 463.33,-440.5 463.33,-440.5 493.67,-440.5 493.67,-440.5 496.83,-440.5 500,-443.67 500,-446.83 500,-446.83 500,-453.17 500,-453.17 500,-456.33 496.83,-459.5 493.67,-459.5"/>
<text text-anchor="middle" x="478.5" y="-447.5" font-family="Arial" font-size="10.00">Graph</text>
</a>
</g>
</g>
<!-- uqbar.graphs.HRule.HRule -->
<g id="node14" class="node">
<title>uqbar.graphs.HRule.HRule</title>
<g id="a_node14"><a xlink:href="../api/uqbar/containers/../graphs/HRule.html#uqbar.graphs.HRule.HRule" xlink:title="HRule" target="_top">
<path fill="#decbe4" stroke="#decbe4" stroke-width="2" d="M494.17,-213.5C494.17,-213.5 462.83,-213.5 462.83,-213.5 459.67,-213.5 456.5,-210.33 456.5,-207.17 456.5,-207.17 456.5,-200.83 456.5,-200.83 456.5,-197.67 459.67,-194.5 462.83,-194.5 462.83,-194.5 494.17,-194.5 494.17,-194.5 497.33,-194.5 500.5,-197.67 500.5,-200.83 500.5,-200.83 500.5,-207.17 500.5,-207.17 500.5,-210.33 497.33,-213.5 494.17,-213.5"/>
<text text-anchor="middle" x="478.5" y="-201.5" font-family="Arial" font-size="10.00">HRule</text>
</a>
</g>
</g>
<!-- uqbar.graphs.LineBreak.LineBreak -->
<g id="node15" class="node">
<title>uqbar.graphs.LineBreak.LineBreak</title>
<g id="a_node15"><a xlink:href="../api/uqbar/containers/../graphs/LineBreak.html#uqbar.graphs.LineBreak.LineBreak" xlink:title="Line\nBreak" target="_top">
<path fill="#decbe4" stroke="#decbe4" stroke-width="2" d="M489.5,-176C489.5,-176 467.5,-176 467.5,-176 462.5,-176 457.5,-171 457.5,-166 457.5,-166 457.5,-156 457.5,-156 457.5,-151 462.5,-146 467.5,-146 467.5,-146 489.5,-146 489.5,-146 494.5,-146 499.5,-151 499.5,-156 499.5,-156 499.5,-166 499.5,-166 499.5,-171 494.5,-176 489.5,-176"/>
<text text-anchor="middle" x="478.5" y="-164" font-family="Arial" font-size="10.00">Line</text>
<text text-anchor="middle" x="478.5" y="-153" font-family="Arial" font-size="10.00">Break</text>
</a>
</g>
</g>
<!-- uqbar.graphs.Node.Node -->
<g id="node16" class="node">
<title>uqbar.graphs.Node.Node</title>
<g id="a_node16"><a xlink:href="../api/uqbar/containers/../graphs/Node.html#uqbar.graphs.Node.Node" xlink:title="Node" target="_top">
<path fill="#decbe4" stroke="#decbe4" stroke-width="2" d="M492.17,-422.5C492.17,-422.5 464.83,-422.5 464.83,-422.5 461.67,-422.5 458.5,-419.33 458.5,-416.17 458.5,-416.17 458.5,-409.83 458.5,-409.83 458.5,-406.67 461.67,-403.5 464.83,-403.5 464.83,-403.5 492.17,-403.5 492.17,-403.5 495.33,-403.5 498.5,-406.67 498.5,-409.83 498.5,-409.83 498.5,-416.17 498.5,-416.17 498.5,-419.33 495.33,-422.5 492.17,-422.5"/>
<text text-anchor="middle" x="478.5" y="-410.5" font-family="Arial" font-size="10.00">Node</text>
</a>
</g>
</g>
<!-- uqbar.graphs.RecordGroup.RecordGroup -->
<g id="node17" class="node">
<title>uqbar.graphs.RecordGroup.RecordGroup</title>
<g id="a_node17"><a xlink:href="../api/uqbar/containers/../graphs/RecordGroup.html#uqbar.graphs.RecordGroup.RecordGroup" xlink:title="Record\nGroup" target="_top">
<path fill="#decbe4" stroke="#decbe4" stroke-width="2" d="M492.5,-385C492.5,-385 464.5,-385 464.5,-385 459.5,-385 454.5,-380 454.5,-375 454.5,-375 454.5,-365 454.5,-365 454.5,-360 459.5,-355 464.5,-355 464.5,-355 492.5,-355 492.5,-355 497.5,-355 502.5,-360 502.5,-365 502.5,-365 502.5,-375 502.5,-375 502.5,-380 497.5,-385 492.5,-385"/>
<text text-anchor="middle" x="478.5" y="-373" font-family="Arial" font-size="10.00">Record</text>
<text text-anchor="middle" x="478.5" y="-362" font-family="Arial" font-size="10.00">Group</text>
</a>
</g>
</g>
<!-- uqbar.graphs.Table.Table -->
<g id="node18" class="node">
<title>uqbar.graphs.Table.Table</title>
<g id="a_node18"><a xlink:href="../api/uqbar/containers/../graphs/Table.html#uqbar.graphs.Table.Table" xlink:title="Table" target="_top">
<path fill="#decbe4" stroke="#decbe4" stroke-width="2" d="M492.17,-336.5C492.17,-336.5 464.83,-336.5 464.83,-336.5 461.67,-336.5 458.5,-333.33 458.5,-330.17 458.5,-330.17 458.5,-323.83 458.5,-323.83 458.5,-320.67 461.67,-317.5 464.83,-317.5 464.83,-317.5 492.17,-317.5 492.17,-317.5 495.33,-317.5 498.5,-320.67 498.5,-323.83 498.5,-323.83 498.5,-330.17 498.5,-330.17 498.5,-333.33 495.33,-336.5 492.17,-336.5"/>
<text text-anchor="middle" x="478.5" y="-324.5" font-family="Arial" font-size="10.00">Table</text>
</a>
</g>
</g>
<!-- uqbar.graphs.TableRow.TableRow -->
<g id="node19" class="node">
<title>uqbar.graphs.TableRow.TableRow</title>
<g id="a_node19"><a xlink:href="../api/uqbar/containers/../graphs/TableRow.html#uqbar.graphs.TableRow.TableRow" xlink:title="Table\nRow" target="_top">
<path fill="#decbe4" stroke="#decbe4" stroke-width="2" d="M488.5,-299C488.5,-299 468.5,-299 468.5,-299 463.5,-299 458.5,-294 458.5,-289 458.5,-289 458.5,-279 458.5,-279 458.5,-274 463.5,-269 468.5,-269 468.5,-269 488.5,-269 488.5,-269 493.5,-269 498.5,-274 498.5,-279 498.5,-279 498.5,-289 498.5,-289 498.5,-294 493.5,-299 488.5,-299"/>
<text text-anchor="middle" x="478.5" y="-287" font-family="Arial" font-size="10.00">Table</text>
<text text-anchor="middle" x="478.5" y="-276" font-family="Arial" font-size="10.00">Row</text>
</a>
</g>
</g>
<!-- uqbar.graphs.Text.Text -->
<g id="node20" class="node">
<title>uqbar.graphs.Text.Text</title>
<g id="a_node20"><a xlink:href="../api/uqbar/containers/../graphs/Text.html#uqbar.graphs.Text.Text" xlink:title="Text" target="_top">
<path fill="#decbe4" stroke="#decbe4" stroke-width="2" d="M489.67,-127.5C489.67,-127.5 467.33,-127.5 467.33,-127.5 464.17,-127.5 461,-124.33 461,-121.17 461,-121.17 461,-114.83 461,-114.83 461,-111.67 464.17,-108.5 467.33,-108.5 467.33,-108.5 489.67,-108.5 489.67,-108.5 492.83,-108.5 496,-111.67 496,-114.83 496,-114.83 496,-121.17 496,-121.17 496,-124.33 492.83,-127.5 489.67,-127.5"/>
<text text-anchor="middle" x="478.5" y="-115.5" font-family="Arial" font-size="10.00">Text</text>
</a>
</g>
</g>
<!-- uqbar.graphs.VRule.VRule -->
<g id="node21" class="node">
<title>uqbar.graphs.VRule.VRule</title>
<g id="a_node21"><a xlink:href="../api/uqbar/containers/../graphs/VRule.html#uqbar.graphs.VRule.VRule" xlink:title="VRule" target="_top">
<path fill="#decbe4" stroke="#decbe4" stroke-width="2" d="M494.17,-90.5C494.17,-90.5 462.83,-90.5 462.83,-90.5 459.67,-90.5 456.5,-87.33 456.5,-84.17 456.5,-84.17 456.5,-77.83 456.5,-77.83 456.5,-74.67 459.67,-71.5 462.83,-71.5 462.83,-71.5 494.17,-71.5 494.17,-71.5 497.33,-71.5 500.5,-74.67 500.5,-77.83 500.5,-77.83 500.5,-84.17 500.5,-84.17 500.5,-87.33 497.33,-90.5 494.17,-90.5"/>
<text text-anchor="middle" x="478.5" y="-78.5" font-family="Arial" font-size="10.00">VRule</text>
</a>
</g>
</g>
</g>
</svg>
