<?xml version="1.0" encoding="UTF-8" standalone="no"?>
<!DOCTYPE svg PUBLIC "-//W3C//DTD SVG 1.1//EN"
 "http://www.w3.org/Graphics/SVG/1.1/DTD/svg11.dtd">
<!-- Generated by graphviz version 2.40.1 (20161225.0304)
 -->
<!-- Title: InheritanceGraph Pages: 1 -->
<svg width="689pt" height="709pt"
 viewBox="0.00 0.00 688.87 709.24" xmlns="http://www.w3.org/2000/svg" xmlns:xlink="http://www.w3.org/1999/xlink">
<g id="graph0" class="graph" transform="scale(1 1) rotate(0) translate(4 705.2413)">
<title>InheritanceGraph</title>
<g id="clust1" class="cluster">
<title>cluster_builtins</title>
<path fill="transparent" stroke="#bcd2ee" stroke-width="2" stroke-dasharray="5,2" d="M20,-545.2413C20,-545.2413 49,-545.2413 49,-545.2413 55,-545.2413 61,-551.2413 61,-557.2413 61,-557.2413 61,-588.2413 61,-588.2413 61,-594.2413 55,-600.2413 49,-600.2413 49,-600.2413 20,-600.2413 20,-600.2413 14,-600.2413 8,-594.2413 8,-588.2413 8,-588.2413 8,-557.2413 8,-557.2413 8,-551.2413 14,-545.2413 20,-545.2413"/>
<text text-anchor="middle" x="34.5" y="-588.2413" font-family="Arial" font-size="10.00" fill="#000000">builtins</text>
</g>
<g id="clust2" class="cluster">
<title>cluster_collections.abc</title>
<path fill="transparent" stroke="#bcd2ee" stroke-width="2" stroke-dasharray="5,2" d="M130,-542.2413C130,-542.2413 495.8721,-542.2413 495.8721,-542.2413 501.8721,-542.2413 507.8721,-548.2413 507.8721,-554.2413 507.8721,-554.2413 507.8721,-681.2413 507.8721,-681.2413 507.8721,-687.2413 501.8721,-693.2413 495.8721,-693.2413 495.8721,-693.2413 130,-693.2413 130,-693.2413 124,-693.2413 118,-687.2413 118,-681.2413 118,-681.2413 118,-554.2413 118,-554.2413 118,-548.2413 124,-542.2413 130,-542.2413"/>
<text text-anchor="middle" x="312.9361" y="-681.2413" font-family="Arial" font-size="10.00" fill="#000000">collections.abc</text>
</g>
<g id="clust3" class="cluster">
<title>cluster_uqbar.containers</title>
<path fill="transparent" stroke="#bcd2ee" stroke-width="2" stroke-dasharray="5,2" d="M249.9447,-169.2413C249.9447,-169.2413 388.9127,-169.2413 388.9127,-169.2413 394.9127,-169.2413 400.9127,-175.2413 400.9127,-181.2413 400.9127,-181.2413 400.9127,-234.2413 400.9127,-234.2413 400.9127,-240.2413 394.9127,-246.2413 388.9127,-246.2413 388.9127,-246.2413 249.9447,-246.2413 249.9447,-246.2413 243.9447,-246.2413 237.9447,-240.2413 237.9447,-234.2413 237.9447,-234.2413 237.9447,-181.2413 237.9447,-181.2413 237.9447,-175.2413 243.9447,-169.2413 249.9447,-169.2413"/>
<text text-anchor="middle" x="319.4287" y="-234.2413" font-family="Arial" font-size="10.00" fill="#000000">uqbar.containers</text>
</g>
<g id="clust4" class="cluster">
<title>cluster_uqbar.graphs</title>
<path fill="transparent" stroke="#bcd2ee" stroke-width="2" stroke-dasharray="5,2" d="M539.8721,-21.2413C539.8721,-21.2413 660.8721,-21.2413 660.8721,-21.2413 666.8721,-21.2413 672.8721,-27.2413 672.8721,-33.2413 672.8721,-33.2413 672.8721,-507.2413 672.8721,-507.2413 672.8721,-513.2413 666.8721,-519.2413 660.8721,-519.2413 660.8721,-519.2413 539.8721,-519.2413 539.8721,-519.2413 533.8721,-519.2413 527.8721,-513.2413 527.8721,-507.2413 527.8721,-507.2413 527.8721,-33.2413 527.8721,-33.2413 527.8721,-27.2413 533.8721,-21.2413 539.8721,-21.2413"/>
<text text-anchor="middle" x="600.3721" y="-507.2413" font-family="Arial" font-size="10.00" fill="#000000">uqbar.graphs</text>
</g>
<!-- builtins.object&#45;&gt;collections.abc.Container -->
<g id="edge9" class="edge">
<title>builtins.object&#45;&gt;collections.abc.Container</title>
<path fill="none" stroke="#778899" d="M45.0921,-572.7902C60.495,-586.4265 90.27,-611.859 118,-630.2413 121.8104,-632.7672 125.9249,-635.2572 130.0426,-637.6126"/>
<polygon fill="#778899" stroke="#778899" points="128.4977,-640.7575 138.9456,-642.516 131.8747,-634.6259 128.4977,-640.7575"/>
</g>
<!-- builtins.object&#45;&gt;collections.abc.Iterable -->
<g id="edge10" class="edge">
<title>builtins.object&#45;&gt;collections.abc.Iterable</title>
<path fill="none" stroke="#778899" d="M53.1136,-569.8812C72.6634,-576.8551 103.8076,-587.965 127.559,-596.4376"/>
<polygon fill="#778899" stroke="#778899" points="126.6355,-599.8242 137.2302,-599.8876 128.9875,-593.2311 126.6355,-599.8242"/>
</g>
<!-- builtins.object&#45;&gt;collections.abc.Sized -->
<g id="edge11" class="edge">
<title>builtins.object&#45;&gt;collections.abc.Sized</title>
<path fill="none" stroke="#778899" d="M53.1136,-563.2413C72.1322,-563.2413 102.1239,-563.2413 125.6071,-563.2413"/>
<polygon fill="#778899" stroke="#778899" points="125.8759,-566.7414 135.8759,-563.2413 125.8759,-559.7414 125.8759,-566.7414"/>
</g>
<!-- builtins.object&#45;&gt;uqbar.containers.UniqueTreeNode.UniqueTreeNode -->
<g id="edge12" class="edge">
<title>builtins.object&#45;&gt;uqbar.containers.UniqueTreeNode.UniqueTreeNode</title>
<path fill="none" stroke="#778899" d="M40.6906,-553.4785C70.3946,-506.6338 198.8642,-304.0307 247.3379,-227.5852"/>
<polygon fill="#778899" stroke="#778899" points="250.4414,-229.2266 252.8407,-218.907 244.5297,-225.478 250.4414,-229.2266"/>
</g>
<!-- builtins.object&#45;&gt;uqbar.graphs.Edge.Edge -->
<g id="edge13" class="edge">
<title>builtins.object&#45;&gt;uqbar.graphs.Edge.Edge</title>
<path fill="none" stroke="#778899" d="M51.884,-553.7321C75.6922,-541.6202 120.1182,-522.2413 160.6482,-522.2413 160.6482,-522.2413 160.6482,-522.2413 368.4127,-522.2413 402.5119,-522.2413 491.4175,-480.4239 535.8325,-458.4231"/>
<polygon fill="#778899" stroke="#778899" points="537.4651,-461.52 544.8516,-453.9245 534.3407,-455.256 537.4651,-461.52"/>
</g>
<!-- collections.abc.Collection&#45;&gt;collections.abc.Mapping -->
<g id="edge1" class="edge">
<title>collections.abc.Collection&#45;&gt;collections.abc.Mapping</title>
<path fill="none" stroke="#778899" d="M300.3501,-601.5625C308.7914,-601.1506 317.9184,-600.7052 326.6633,-600.2785"/>
<polygon fill="#778899" stroke="#778899" points="326.8722,-603.7726 336.6897,-599.7893 326.5309,-596.7809 326.8722,-603.7726"/>
</g>
<!-- collections.abc.Mapping&#45;&gt;collections.abc.MutableMapping -->
<g id="edge4" class="edge">
<title>collections.abc.Mapping&#45;&gt;collections.abc.MutableMapping</title>
<path fill="none" stroke="#778899" d="M399.6659,-595.4184C408.0342,-594.6625 417.218,-593.833 426.0639,-593.034"/>
<polygon fill="#778899" stroke="#778899" points="426.5794,-596.5017 436.2239,-592.1163 425.9496,-589.5301 426.5794,-596.5017"/>
</g>
<!-- collections.abc.Container&#45;&gt;collections.abc.Collection -->
<g id="edge2" class="edge">
<title>collections.abc.Container&#45;&gt;collections.abc.Collection</title>
<path fill="none" stroke="#778899" d="M182.7218,-642.7597C197.7444,-635.6262 217.8495,-626.0793 234.5353,-618.1561"/>
<polygon fill="#778899" stroke="#778899" points="236.3682,-621.1603 243.9002,-613.7092 233.3655,-614.837 236.3682,-621.1603"/>
</g>
<!-- collections.abc.Iterable&#45;&gt;collections.abc.Collection -->
<g id="edge3" class="edge">
<title>collections.abc.Iterable&#45;&gt;collections.abc.Collection</title>
<path fill="none" stroke="#778899" d="M190.2594,-606.8352C199.8398,-606.3803 210.688,-605.8652 221.1174,-605.37"/>
<polygon fill="#778899" stroke="#778899" points="221.5221,-608.8548 231.3448,-604.8843 221.19,-601.8627 221.5221,-608.8548"/>
</g>
<!-- collections.abc.MutableMapping&#45;&gt;uqbar.graphs.Attributes.Attributes -->
<g id="edge14" class="edge">
<title>collections.abc.MutableMapping&#45;&gt;uqbar.graphs.Attributes.Attributes</title>
<path fill="none" stroke="#778899" d="M484.3945,-570.6034C501.9426,-550.59 529.599,-519.0484 546.6868,-499.56"/>
<polygon fill="#778899" stroke="#778899" points="549.3416,-501.8411 553.3028,-492.0146 544.0783,-497.2261 549.3416,-501.8411"/>
</g>
<!-- collections.abc.Sized&#45;&gt;collections.abc.Collection -->
<g id="edge5" class="edge">
<title>collections.abc.Sized&#45;&gt;collections.abc.Collection</title>
<path fill="none" stroke="#778899" d="M180.9504,-570.9537C195.2381,-576.3813 214.7149,-583.7802 231.4193,-590.1258"/>
<polygon fill="#778899" stroke="#778899" points="230.2829,-593.4381 240.8741,-593.7175 232.7688,-586.8944 230.2829,-593.4381"/>
</g>
<!-- uqbar.containers.UniqueTreeContainer.UniqueTreeContainer&#45;&gt;uqbar.graphs.TableCell.TableCell -->
<g id="edge19" class="edge">
<title>uqbar.containers.UniqueTreeContainer.UniqueTreeContainer&#45;&gt;uqbar.graphs.TableCell.TableCell</title>
<path fill="none" stroke="#778899" d="M372.8522,-177.6292C380.5406,-146.6926 399.1927,-88.2635 436.2325,-54.2413 487.0996,-7.5185 532.5966,21.1724 587.8721,-20.2413 614.8956,-40.488 633.3387,-140.3267 640.7397,-187.9192"/>
<polygon fill="#778899" stroke="#778899" points="637.3122,-188.6627 642.267,-198.0275 644.2336,-187.6168 637.3122,-188.6627"/>
</g>
<!-- uqbar.containers.UniqueTreeContainer.UniqueTreeContainer&#45;&gt;uqbar.graphs.Graph.Graph -->
<g id="edge15" class="edge">
<title>uqbar.containers.UniqueTreeContainer.UniqueTreeContainer&#45;&gt;uqbar.graphs.Graph.Graph</title>
<path fill="none" stroke="#778899" d="M392.9145,-193.6819C428.788,-187.0064 495.4545,-174.6007 533.4383,-167.5325"/>
<polygon fill="#778899" stroke="#778899" points="534.1507,-170.9601 543.3416,-165.6896 532.8701,-164.0782 534.1507,-170.9601"/>
</g>
<!-- uqbar.containers.UniqueTreeContainer.UniqueTreeContainer&#45;&gt;uqbar.graphs.Node.Node -->
<g id="edge16" class="edge">
<title>uqbar.containers.UniqueTreeContainer.UniqueTreeContainer&#45;&gt;uqbar.graphs.Node.Node</title>
<path fill="none" stroke="#778899" d="M392.999,-186.7496C405.7813,-180.9326 421.7259,-173.9199 436.2325,-168.2413 469.8187,-155.0941 509.2764,-141.9569 534.8861,-133.7276"/>
<polygon fill="#778899" stroke="#778899" points="536.1683,-136.9924 544.6313,-130.6184 534.0405,-130.3236 536.1683,-136.9924"/>
</g>
<!-- uqbar.containers.UniqueTreeContainer.UniqueTreeContainer&#45;&gt;uqbar.graphs.RecordGroup.RecordGroup -->
<g id="edge17" class="edge">
<title>uqbar.containers.UniqueTreeContainer.UniqueTreeContainer&#45;&gt;uqbar.graphs.RecordGroup.RecordGroup</title>
<path fill="none" stroke="#778899" d="M388.451,-177.551C401.2962,-165.0719 418.7821,-149.4707 436.2325,-138.2413 466.8612,-118.5318 505.5889,-102.4303 531.8941,-92.6335"/>
<polygon fill="#778899" stroke="#778899" points="533.13,-95.9083 541.3248,-89.193 530.7309,-89.3323 533.13,-95.9083"/>
</g>
<!-- uqbar.containers.UniqueTreeContainer.UniqueTreeContainer&#45;&gt;uqbar.graphs.Table.Table -->
<g id="edge18" class="edge">
<title>uqbar.containers.UniqueTreeContainer.UniqueTreeContainer&#45;&gt;uqbar.graphs.Table.Table</title>
<path fill="none" stroke="#778899" d="M378.2591,-177.4364C389.5982,-155.3417 410.0745,-120.5862 436.2325,-98.2413 465.4774,-73.2596 507.0941,-56.4943 534.2875,-47.4109"/>
<polygon fill="#778899" stroke="#778899" points="535.4991,-50.6979 543.9475,-44.3046 533.3562,-44.0339 535.4991,-50.6979"/>
</g>
<!-- uqbar.containers.UniqueTreeContainer.UniqueTreeContainer&#45;&gt;uqbar.graphs.TableRow.TableRow -->
<g id="edge20" class="edge">
<title>uqbar.containers.UniqueTreeContainer.UniqueTreeContainer&#45;&gt;uqbar.graphs.TableRow.TableRow</title>
<path fill="none" stroke="#778899" d="M392.9145,-199.1279C428.9124,-200.4304 495.9169,-202.8549 533.8321,-204.2268"/>
<polygon fill="#778899" stroke="#778899" points="534.032,-207.7362 544.1521,-204.6002 534.2852,-200.7408 534.032,-207.7362"/>
</g>
<!-- uqbar.containers.UniqueTreeNode.UniqueTreeNode&#45;&gt;uqbar.containers.UniqueTreeContainer.UniqueTreeContainer -->
<g id="edge6" class="edge">
<title>uqbar.containers.UniqueTreeNode.UniqueTreeNode&#45;&gt;uqbar.containers.UniqueTreeContainer.UniqueTreeContainer</title>
<path fill="none" stroke="#778899" d="M286.1891,-198.2413C299.6475,-198.2413 317.6759,-198.2413 333.4214,-198.2413"/>
<polygon fill="#778899" stroke="#778899" points="333.8732,-201.7414 343.8732,-198.2413 333.8731,-194.7414 333.8732,-201.7414"/>
</g>
<!-- uqbar.containers.UniqueTreeNode.UniqueTreeNode&#45;&gt;uqbar.graphs.Attachable.Attachable -->
<g id="edge21" class="edge">
<title>uqbar.containers.UniqueTreeNode.UniqueTreeNode&#45;&gt;uqbar.graphs.Attachable.Attachable</title>
<path fill="none" stroke="#778899" d="M286.1656,-215.8797C299.5802,-226.6253 318.0685,-239.697 336.5929,-247.2413 399.81,-272.9875 479.839,-281.2909 525.5079,-283.9681"/>
<polygon fill="#778899" stroke="#778899" points="525.3598,-287.4651 535.5303,-284.4969 525.7287,-280.4748 525.3598,-287.4651"/>
</g>
<!-- uqbar.containers.UniqueTreeNode.UniqueTreeNode&#45;&gt;uqbar.graphs.RecordField.RecordField -->
<g id="edge24" class="edge">
<title>uqbar.containers.UniqueTreeNode.UniqueTreeNode&#45;&gt;uqbar.graphs.RecordField.RecordField</title>
<path fill="none" stroke="#778899" d="M271.211,-219.0037C280.2906,-251.7273 301.3835,-316.1088 336.5929,-360.2413 402.4592,-442.8001 427.5405,-468.2583 527.8721,-501.2413 553.2051,-509.5693 565.8398,-516.2643 587.8721,-501.2413 608.1537,-487.4122 628.2811,-419.9006 638.1319,-382.4293"/>
<polygon fill="#778899" stroke="#778899" points="641.526,-383.2835 640.6294,-372.7267 634.747,-381.5385 641.526,-383.2835"/>
</g>
<!-- uqbar.containers.UniqueTreeNode.UniqueTreeNode&#45;&gt;uqbar.graphs.HRule.HRule -->
<g id="edge22" class="edge">
<title>uqbar.containers.UniqueTreeNode.UniqueTreeNode&#45;&gt;uqbar.graphs.HRule.HRule</title>
<path fill="none" stroke="#778899" d="M280.7243,-218.7751C293.6324,-235.1857 313.8308,-257.4834 336.5929,-270.2413 400.6407,-306.1396 488.1761,-317.2858 532.935,-320.7242"/>
<polygon fill="#778899" stroke="#778899" points="532.8792,-324.2286 543.0969,-321.4271 533.3622,-317.2453 532.8792,-324.2286"/>
</g>
<!-- uqbar.containers.UniqueTreeNode.UniqueTreeNode&#45;&gt;uqbar.graphs.LineBreak.LineBreak -->
<g id="edge23" class="edge">
<title>uqbar.containers.UniqueTreeNode.UniqueTreeNode&#45;&gt;uqbar.graphs.LineBreak.LineBreak</title>
<path fill="none" stroke="#778899" d="M275.4387,-218.7726C286.8588,-241.2534 308.1078,-276.8164 336.5929,-297.2413 398.0664,-341.3202 488.4633,-357.2093 533.7873,-362.6278"/>
<polygon fill="#778899" stroke="#778899" points="533.4554,-366.1124 543.7808,-363.7382 534.2285,-359.1552 533.4554,-366.1124"/>
</g>
<!-- uqbar.containers.UniqueTreeNode.UniqueTreeNode&#45;&gt;uqbar.graphs.Text.Text -->
<g id="edge25" class="edge">
<title>uqbar.containers.UniqueTreeNode.UniqueTreeNode&#45;&gt;uqbar.graphs.Text.Text</title>
<path fill="none" stroke="#778899" d="M272.2434,-219.0281C281.7947,-247.2426 302.5265,-297.5401 336.5929,-327.2413 395.9224,-378.9684 490.7608,-398.4915 536.1004,-405.1493"/>
<polygon fill="#778899" stroke="#778899" points="535.875,-408.6511 546.2583,-406.5447 536.8277,-401.7163 535.875,-408.6511"/>
</g>
<!-- uqbar.containers.UniqueTreeNode.UniqueTreeNode&#45;&gt;uqbar.graphs.VRule.VRule -->
<g id="edge26" class="edge">
<title>uqbar.containers.UniqueTreeNode.UniqueTreeNode&#45;&gt;uqbar.graphs.VRule.VRule</title>
<path fill="none" stroke="#778899" d="M286.0688,-208.7908C299.8948,-215.532 318.8826,-223.8123 336.5929,-228.2413 405.5955,-245.4976 489.7444,-248.3467 533.0537,-248.5375"/>
<polygon fill="#778899" stroke="#778899" points="533.1512,-252.0376 543.1506,-248.5359 533.15,-245.0376 533.1512,-252.0376"/>
</g>
<!-- uqbar.graphs.Attachable.Attachable&#45;&gt;uqbar.graphs.RecordField.RecordField -->
<g id="edge7" class="edge">
<title>uqbar.graphs.Attachable.Attachable&#45;&gt;uqbar.graphs.RecordField.RecordField</title>
<path fill="none" stroke="#778899" d="M575.6052,-294.7964C579.6354,-297.728 583.9988,-301.0297 587.8721,-304.2413 599.4225,-313.8183 611.6359,-325.1136 621.7409,-334.8107"/>
<polygon fill="#778899" stroke="#778899" points="619.3955,-337.4117 629.0114,-341.8598 624.2681,-332.386 619.3955,-337.4117"/>
</g>
<!-- uqbar.graphs.Attachable.Attachable&#45;&gt;uqbar.graphs.TableCell.TableCell -->
<g id="edge8" class="edge">
<title>uqbar.graphs.Attachable.Attachable&#45;&gt;uqbar.graphs.TableCell.TableCell</title>
<path fill="none" stroke="#778899" d="M576.4714,-275.7307C580.2705,-273.0959 584.2984,-270.156 587.8721,-267.2413 599.7705,-257.5374 612.1892,-245.8616 622.3436,-235.8531"/>
<polygon fill="#778899" stroke="#778899" points="625.0189,-238.1279 629.6212,-228.5848 620.0723,-233.1749 625.0189,-238.1279"/>
</g>
<!-- builtins.object -->
<g id="node1" class="node">
<title>builtins.object</title>
<g id="a_node1"><a xlink:href="https://docs.python.org/3.6/library/functions.html#object" xlink:title="object" target="_top">
<path fill="#fbb4ae" stroke="#fbb4ae" stroke-width="2" d="M46.6667,-572.7413C46.6667,-572.7413 22.3333,-572.7413 22.3333,-572.7413 19.1667,-572.7413 16,-569.5747 16,-566.408 16,-566.408 16,-560.0747 16,-560.0747 16,-556.908 19.1667,-553.7413 22.3333,-553.7413 22.3333,-553.7413 46.6667,-553.7413 46.6667,-553.7413 49.8333,-553.7413 53,-556.908 53,-560.0747 53,-560.0747 53,-566.408 53,-566.408 53,-569.5747 49.8333,-572.7413 46.6667,-572.7413"/>
<text text-anchor="middle" x="34.5" y="-560.7413" font-family="Arial" font-size="10.00" fill="#000000">object</text>
</a>
</g>
</g>
<!-- collections.abc.Collection -->
<g id="node2" class="node">
<title>collections.abc.Collection</title>
<g id="a_node2"><a xlink:href="https://docs.python.org/3.6/library/collections.abc.html#collections.abc.Collection" xlink:title="Collection" target="_top">
<ellipse fill="none" stroke="#b3cde3" stroke-width="2" cx="265.9447" cy="-603.2413" rx="34.7971" ry="13.3704"/>
<text text-anchor="middle" x="265.9447" y="-600.7413" font-family="Arial" font-size="10.00" fill="#000000">Collection</text>
</a>
</g>
</g>
<!-- collections.abc.Mapping -->
<g id="node3" class="node">
<title>collections.abc.Mapping</title>
<g id="a_node3"><a xlink:href="https://docs.python.org/3.6/library/collections.abc.html#collections.abc.Mapping" xlink:title="Mapping" target="_top">
<ellipse fill="none" stroke="#b3cde3" stroke-width="2" cx="368.4127" cy="-598.2413" rx="31.6406" ry="13.3704"/>
<text text-anchor="middle" x="368.4127" y="-595.7413" font-family="Arial" font-size="10.00" fill="#000000">Mapping</text>
</a>
</g>
</g>
<!-- collections.abc.Container -->
<g id="node4" class="node">
<title>collections.abc.Container</title>
<g id="a_node4"><a xlink:href="https://docs.python.org/3.6/library/collections.abc.html#collections.abc.Container" xlink:title="Container" target="_top">
<ellipse fill="none" stroke="#b3cde3" stroke-width="2" cx="160.6482" cy="-653.2413" rx="34.7971" ry="13.3704"/>
<text text-anchor="middle" x="160.6482" y="-650.7413" font-family="Arial" font-size="10.00" fill="#000000">Container</text>
</a>
</g>
</g>
<!-- collections.abc.Iterable -->
<g id="node5" class="node">
<title>collections.abc.Iterable</title>
<g id="a_node5"><a xlink:href="https://docs.python.org/3.6/library/collections.abc.html#collections.abc.Iterable" xlink:title="Iterable" target="_top">
<ellipse fill="none" stroke="#b3cde3" stroke-width="2" cx="160.6482" cy="-608.2413" rx="29.8983" ry="13.3704"/>
<text text-anchor="middle" x="160.6482" y="-605.7413" font-family="Arial" font-size="10.00" fill="#000000">Iterable</text>
</a>
</g>
</g>
<!-- collections.abc.MutableMapping -->
<g id="node6" class="node">
<title>collections.abc.MutableMapping</title>
<g id="a_node6"><a xlink:href="https://docs.python.org/3.6/library/collections.abc.html#collections.abc.MutableMapping" xlink:title="Mutable\nMapping" target="_top">
<ellipse fill="none" stroke="#b3cde3" stroke-width="2" cx="468.0523" cy="-589.2413" rx="31.6406" ry="21.4286"/>
<text text-anchor="middle" x="468.0523" y="-592.2413" font-family="Arial" font-size="10.00" fill="#000000">Mutable</text>
<text text-anchor="middle" x="468.0523" y="-581.2413" font-family="Arial" font-size="10.00" fill="#000000">Mapping</text>
</a>
</g>
</g>
<!-- collections.abc.Sized -->
<g id="node7" class="node">
<title>collections.abc.Sized</title>
<g id="a_node7"><a xlink:href="https://docs.python.org/3.6/library/collections.abc.html#collections.abc.Sized" xlink:title="Sized" target="_top">
<ellipse fill="none" stroke="#b3cde3" stroke-width="2" cx="160.6482" cy="-563.2413" rx="25" ry="13.3704"/>
<text text-anchor="middle" x="160.6482" y="-560.7413" font-family="Arial" font-size="10.00" fill="#000000">Sized</text>
</a>
</g>
</g>
<!-- uqbar.containers.UniqueTreeContainer.UniqueTreeContainer -->
<g id="node8" class="node">
<title>uqbar.containers.UniqueTreeContainer.UniqueTreeContainer</title>
<g id="a_node8"><a xlink:href="../api/uqbar/graphs/../containers/UniqueTreeContainer.html#uqbar.containers.UniqueTreeContainer.UniqueTreeContainer" xlink:title="Unique\nTree\nContainer" target="_top">
<path fill="#ccebc5" stroke="#ccebc5" stroke-width="2" d="M380.9127,-218.7413C380.9127,-218.7413 355.9127,-218.7413 355.9127,-218.7413 349.9127,-218.7413 343.9127,-212.7413 343.9127,-206.7413 343.9127,-206.7413 343.9127,-189.7413 343.9127,-189.7413 343.9127,-183.7413 349.9127,-177.7413 355.9127,-177.7413 355.9127,-177.7413 380.9127,-177.7413 380.9127,-177.7413 386.9127,-177.7413 392.9127,-183.7413 392.9127,-189.7413 392.9127,-189.7413 392.9127,-206.7413 392.9127,-206.7413 392.9127,-212.7413 386.9127,-218.7413 380.9127,-218.7413"/>
<text text-anchor="middle" x="368.4127" y="-206.7413" font-family="Arial" font-size="10.00" fill="#000000">Unique</text>
<text text-anchor="middle" x="368.4127" y="-195.7413" font-family="Arial" font-size="10.00" fill="#000000">Tree</text>
<text text-anchor="middle" x="368.4127" y="-184.7413" font-family="Arial" font-size="10.00" fill="#000000">Container</text>
</a>
</g>
</g>
<!-- uqbar.containers.UniqueTreeNode.UniqueTreeNode -->
<g id="node9" class="node">
<title>uqbar.containers.UniqueTreeNode.UniqueTreeNode</title>
<g id="a_node9"><a xlink:href="../api/uqbar/graphs/../containers/UniqueTreeNode.html#uqbar.containers.UniqueTreeNode.UniqueTreeNode" xlink:title="Unique\nTree\nNode" target="_top">
<path fill="#ccebc5" stroke="#ccebc5" stroke-width="2" d="M273.9447,-218.7413C273.9447,-218.7413 257.9447,-218.7413 257.9447,-218.7413 251.9447,-218.7413 245.9447,-212.7413 245.9447,-206.7413 245.9447,-206.7413 245.9447,-189.7413 245.9447,-189.7413 245.9447,-183.7413 251.9447,-177.7413 257.9447,-177.7413 257.9447,-177.7413 273.9447,-177.7413 273.9447,-177.7413 279.9447,-177.7413 285.9447,-183.7413 285.9447,-189.7413 285.9447,-189.7413 285.9447,-206.7413 285.9447,-206.7413 285.9447,-212.7413 279.9447,-218.7413 273.9447,-218.7413"/>
<text text-anchor="middle" x="265.9447" y="-206.7413" font-family="Arial" font-size="10.00" fill="#000000">Unique</text>
<text text-anchor="middle" x="265.9447" y="-195.7413" font-family="Arial" font-size="10.00" fill="#000000">Tree</text>
<text text-anchor="middle" x="265.9447" y="-184.7413" font-family="Arial" font-size="10.00" fill="#000000">Node</text>
</a>
</g>
</g>
<!-- uqbar.graphs.Attachable.Attachable -->
<g id="node10" class="node">
<title>uqbar.graphs.Attachable.Attachable</title>
<g id="a_node10"><a xlink:href="../api/uqbar/graphs/Attachable.html#uqbar.graphs.Attachable.Attachable" xlink:title="Attachable" target="_top">
<path fill="#000000" stroke="#000000" stroke-width="2" d="M581.5388,-294.7413C581.5388,-294.7413 542.2055,-294.7413 542.2055,-294.7413 539.0388,-294.7413 535.8721,-291.5747 535.8721,-288.408 535.8721,-288.408 535.8721,-282.0747 535.8721,-282.0747 535.8721,-278.908 539.0388,-275.7413 542.2055,-275.7413 542.2055,-275.7413 581.5388,-275.7413 581.5388,-275.7413 584.7055,-275.7413 587.8721,-278.908 587.8721,-282.0747 587.8721,-282.0747 587.8721,-288.408 587.8721,-288.408 587.8721,-291.5747 584.7055,-294.7413 581.5388,-294.7413"/>
<text text-anchor="middle" x="561.8721" y="-282.7413" font-family="Arial" font-size="10.00" fill="#ffffff">Attachable</text>
</a>
</g>
</g>
<!-- uqbar.graphs.RecordField.RecordField -->
<g id="node11" class="node">
<title>uqbar.graphs.RecordField.RecordField</title>
<g id="a_node11"><a xlink:href="../api/uqbar/graphs/RecordField.html#uqbar.graphs.RecordField.RecordField" xlink:title="Record\nField" target="_top">
<path fill="#000000" stroke="#000000" stroke-width="2" d="M654.8721,-372.2413C654.8721,-372.2413 633.8721,-372.2413 633.8721,-372.2413 628.8721,-372.2413 623.8721,-367.2413 623.8721,-362.2413 623.8721,-362.2413 623.8721,-352.2413 623.8721,-352.2413 623.8721,-347.2413 628.8721,-342.2413 633.8721,-342.2413 633.8721,-342.2413 654.8721,-342.2413 654.8721,-342.2413 659.8721,-342.2413 664.8721,-347.2413 664.8721,-352.2413 664.8721,-352.2413 664.8721,-362.2413 664.8721,-362.2413 664.8721,-367.2413 659.8721,-372.2413 654.8721,-372.2413"/>
<text text-anchor="middle" x="644.3721" y="-360.2413" font-family="Arial" font-size="10.00" fill="#ffffff">Record</text>
<text text-anchor="middle" x="644.3721" y="-349.2413" font-family="Arial" font-size="10.00" fill="#ffffff">Field</text>
</a>
</g>
</g>
<!-- uqbar.graphs.TableCell.TableCell -->
<g id="node12" class="node">
<title>uqbar.graphs.TableCell.TableCell</title>
<g id="a_node12"><a xlink:href="../api/uqbar/graphs/TableCell.html#uqbar.graphs.TableCell.TableCell" xlink:title="Table\nCell" target="_top">
<path fill="#000000" stroke="#000000" stroke-width="2" d="M651.8721,-228.2413C651.8721,-228.2413 636.8721,-228.2413 636.8721,-228.2413 631.8721,-228.2413 626.8721,-223.2413 626.8721,-218.2413 626.8721,-218.2413 626.8721,-208.2413 626.8721,-208.2413 626.8721,-203.2413 631.8721,-198.2413 636.8721,-198.2413 636.8721,-198.2413 651.8721,-198.2413 651.8721,-198.2413 656.8721,-198.2413 661.8721,-203.2413 661.8721,-208.2413 661.8721,-208.2413 661.8721,-218.2413 661.8721,-218.2413 661.8721,-223.2413 656.8721,-228.2413 651.8721,-228.2413"/>
<text text-anchor="middle" x="644.3721" y="-216.2413" font-family="Arial" font-size="10.00" fill="#ffffff">Table</text>
<text text-anchor="middle" x="644.3721" y="-205.2413" font-family="Arial" font-size="10.00" fill="#ffffff">Cell</text>
</a>
</g>
</g>
<!-- uqbar.graphs.Attributes.Attributes -->
<g id="node13" class="node">
<title>uqbar.graphs.Attributes.Attributes</title>
<g id="a_node13"><a xlink:href="../api/uqbar/graphs/Attributes.html#uqbar.graphs.Attributes.Attributes" xlink:title="Attributes" target="_top">
<path fill="#000000" stroke="#000000" stroke-width="2" d="M579.5388,-491.7413C579.5388,-491.7413 544.2055,-491.7413 544.2055,-491.7413 541.0388,-491.7413 537.8721,-488.5747 537.8721,-485.408 537.8721,-485.408 537.8721,-479.0747 537.8721,-479.0747 537.8721,-475.908 541.0388,-472.7413 544.2055,-472.7413 544.2055,-472.7413 579.5388,-472.7413 579.5388,-472.7413 582.7055,-472.7413 585.8721,-475.908 585.8721,-479.0747 585.8721,-479.0747 585.8721,-485.408 585.8721,-485.408 585.8721,-488.5747 582.7055,-491.7413 579.5388,-491.7413"/>
<text text-anchor="middle" x="561.8721" y="-479.7413" font-family="Arial" font-size="10.00" fill="#ffffff">Attributes</text>
</a>
</g>
</g>
<!-- uqbar.graphs.Edge.Edge -->
<g id="node14" class="node">
<title>uqbar.graphs.Edge.Edge</title>
<g id="a_node14"><a xlink:href="../api/uqbar/graphs/Edge.html#uqbar.graphs.Edge.Edge" xlink:title="Edge" target="_top">
<path fill="#000000" stroke="#000000" stroke-width="2" d="M572.5388,-454.7413C572.5388,-454.7413 551.2055,-454.7413 551.2055,-454.7413 548.0388,-454.7413 544.8721,-451.5747 544.8721,-448.408 544.8721,-448.408 544.8721,-442.0747 544.8721,-442.0747 544.8721,-438.908 548.0388,-435.7413 551.2055,-435.7413 551.2055,-435.7413 572.5388,-435.7413 572.5388,-435.7413 575.7055,-435.7413 578.8721,-438.908 578.8721,-442.0747 578.8721,-442.0747 578.8721,-448.408 578.8721,-448.408 578.8721,-451.5747 575.7055,-454.7413 572.5388,-454.7413"/>
<text text-anchor="middle" x="561.8721" y="-442.7413" font-family="Arial" font-size="10.00" fill="#ffffff">Edge</text>
</a>
</g>
</g>
<!-- uqbar.graphs.Graph.Graph -->
<g id="node15" class="node">
<title>uqbar.graphs.Graph.Graph</title>
<g id="a_node15"><a xlink:href="../api/uqbar/graphs/Graph.html#uqbar.graphs.Graph.Graph" xlink:title="Graph" target="_top">
<path fill="#000000" stroke="#000000" stroke-width="2" d="M574.0388,-171.7413C574.0388,-171.7413 549.7055,-171.7413 549.7055,-171.7413 546.5388,-171.7413 543.3721,-168.5747 543.3721,-165.408 543.3721,-165.408 543.3721,-159.0747 543.3721,-159.0747 543.3721,-155.908 546.5388,-152.7413 549.7055,-152.7413 549.7055,-152.7413 574.0388,-152.7413 574.0388,-152.7413 577.2055,-152.7413 580.3721,-155.908 580.3721,-159.0747 580.3721,-159.0747 580.3721,-165.408 580.3721,-165.408 580.3721,-168.5747 577.2055,-171.7413 574.0388,-171.7413"/>
<text text-anchor="middle" x="561.8721" y="-159.7413" font-family="Arial" font-size="10.00" fill="#ffffff">Graph</text>
</a>
</g>
</g>
<!-- uqbar.graphs.HRule.HRule -->
<g id="node16" class="node">
<title>uqbar.graphs.HRule.HRule</title>
<g id="a_node16"><a xlink:href="../api/uqbar/graphs/HRule.html#uqbar.graphs.HRule.HRule" xlink:title="HRule" target="_top">
<path fill="#000000" stroke="#000000" stroke-width="2" d="M574.0388,-331.7413C574.0388,-331.7413 549.7055,-331.7413 549.7055,-331.7413 546.5388,-331.7413 543.3721,-328.5747 543.3721,-325.408 543.3721,-325.408 543.3721,-319.0747 543.3721,-319.0747 543.3721,-315.908 546.5388,-312.7413 549.7055,-312.7413 549.7055,-312.7413 574.0388,-312.7413 574.0388,-312.7413 577.2055,-312.7413 580.3721,-315.908 580.3721,-319.0747 580.3721,-319.0747 580.3721,-325.408 580.3721,-325.408 580.3721,-328.5747 577.2055,-331.7413 574.0388,-331.7413"/>
<text text-anchor="middle" x="561.8721" y="-319.7413" font-family="Arial" font-size="10.00" fill="#ffffff">HRule</text>
</a>
</g>
</g>
<!-- uqbar.graphs.LineBreak.LineBreak -->
<g id="node17" class="node">
<title>uqbar.graphs.LineBreak.LineBreak</title>
<g id="a_node17"><a xlink:href="../api/uqbar/graphs/LineBreak.html#uqbar.graphs.LineBreak.LineBreak" xlink:title="Line\nBreak" target="_top">
<path fill="#000000" stroke="#000000" stroke-width="2" d="M569.8721,-380.2413C569.8721,-380.2413 553.8721,-380.2413 553.8721,-380.2413 548.8721,-380.2413 543.8721,-375.2413 543.8721,-370.2413 543.8721,-370.2413 543.8721,-360.2413 543.8721,-360.2413 543.8721,-355.2413 548.8721,-350.2413 553.8721,-350.2413 553.8721,-350.2413 569.8721,-350.2413 569.8721,-350.2413 574.8721,-350.2413 579.8721,-355.2413 579.8721,-360.2413 579.8721,-360.2413 579.8721,-370.2413 579.8721,-370.2413 579.8721,-375.2413 574.8721,-380.2413 569.8721,-380.2413"/>
<text text-anchor="middle" x="561.8721" y="-368.2413" font-family="Arial" font-size="10.00" fill="#ffffff">Line</text>
<text text-anchor="middle" x="561.8721" y="-357.2413" font-family="Arial" font-size="10.00" fill="#ffffff">Break</text>
</a>
</g>
</g>
<!-- uqbar.graphs.Node.Node -->
<g id="node18" class="node">
<title>uqbar.graphs.Node.Node</title>
<g id="a_node18"><a xlink:href="../api/uqbar/graphs/Node.html#uqbar.graphs.Node.Node" xlink:title="Node" target="_top">
<path fill="#000000" stroke="#000000" stroke-width="2" d="M572.5388,-134.7413C572.5388,-134.7413 551.2055,-134.7413 551.2055,-134.7413 548.0388,-134.7413 544.8721,-131.5747 544.8721,-128.408 544.8721,-128.408 544.8721,-122.0747 544.8721,-122.0747 544.8721,-118.908 548.0388,-115.7413 551.2055,-115.7413 551.2055,-115.7413 572.5388,-115.7413 572.5388,-115.7413 575.7055,-115.7413 578.8721,-118.908 578.8721,-122.0747 578.8721,-122.0747 578.8721,-128.408 578.8721,-128.408 578.8721,-131.5747 575.7055,-134.7413 572.5388,-134.7413"/>
<text text-anchor="middle" x="561.8721" y="-122.7413" font-family="Arial" font-size="10.00" fill="#ffffff">Node</text>
</a>
</g>
</g>
<!-- uqbar.graphs.RecordGroup.RecordGroup -->
<g id="node19" class="node">
<title>uqbar.graphs.RecordGroup.RecordGroup</title>
<g id="a_node19"><a xlink:href="../api/uqbar/graphs/RecordGroup.html#uqbar.graphs.RecordGroup.RecordGroup" xlink:title="Record\nGroup" target="_top">
<path fill="#000000" stroke="#000000" stroke-width="2" d="M572.3721,-97.2413C572.3721,-97.2413 551.3721,-97.2413 551.3721,-97.2413 546.3721,-97.2413 541.3721,-92.2413 541.3721,-87.2413 541.3721,-87.2413 541.3721,-77.2413 541.3721,-77.2413 541.3721,-72.2413 546.3721,-67.2413 551.3721,-67.2413 551.3721,-67.2413 572.3721,-67.2413 572.3721,-67.2413 577.3721,-67.2413 582.3721,-72.2413 582.3721,-77.2413 582.3721,-77.2413 582.3721,-87.2413 582.3721,-87.2413 582.3721,-92.2413 577.3721,-97.2413 572.3721,-97.2413"/>
<text text-anchor="middle" x="561.8721" y="-85.2413" font-family="Arial" font-size="10.00" fill="#ffffff">Record</text>
<text text-anchor="middle" x="561.8721" y="-74.2413" font-family="Arial" font-size="10.00" fill="#ffffff">Group</text>
</a>
</g>
</g>
<!-- uqbar.graphs.Table.Table -->
<g id="node20" class="node">
<title>uqbar.graphs.Table.Table</title>
<g id="a_node20"><a xlink:href="../api/uqbar/graphs/Table.html#uqbar.graphs.Table.Table" xlink:title="Table" target="_top">
<path fill="#000000" stroke="#000000" stroke-width="2" d="M573.0388,-48.7413C573.0388,-48.7413 550.7055,-48.7413 550.7055,-48.7413 547.5388,-48.7413 544.3721,-45.5747 544.3721,-42.408 544.3721,-42.408 544.3721,-36.0747 544.3721,-36.0747 544.3721,-32.908 547.5388,-29.7413 550.7055,-29.7413 550.7055,-29.7413 573.0388,-29.7413 573.0388,-29.7413 576.2055,-29.7413 579.3721,-32.908 579.3721,-36.0747 579.3721,-36.0747 579.3721,-42.408 579.3721,-42.408 579.3721,-45.5747 576.2055,-48.7413 573.0388,-48.7413"/>
<text text-anchor="middle" x="561.8721" y="-36.7413" font-family="Arial" font-size="10.00" fill="#ffffff">Table</text>
</a>
</g>
</g>
<!-- uqbar.graphs.TableRow.TableRow -->
<g id="node21" class="node">
<title>uqbar.graphs.TableRow.TableRow</title>
<g id="a_node21"><a xlink:href="../api/uqbar/graphs/TableRow.html#uqbar.graphs.TableRow.TableRow" xlink:title="Table\nRow" target="_top">
<path fill="#000000" stroke="#000000" stroke-width="2" d="M569.3721,-220.2413C569.3721,-220.2413 554.3721,-220.2413 554.3721,-220.2413 549.3721,-220.2413 544.3721,-215.2413 544.3721,-210.2413 544.3721,-210.2413 544.3721,-200.2413 544.3721,-200.2413 544.3721,-195.2413 549.3721,-190.2413 554.3721,-190.2413 554.3721,-190.2413 569.3721,-190.2413 569.3721,-190.2413 574.3721,-190.2413 579.3721,-195.2413 579.3721,-200.2413 579.3721,-200.2413 579.3721,-210.2413 579.3721,-210.2413 579.3721,-215.2413 574.3721,-220.2413 569.3721,-220.2413"/>
<text text-anchor="middle" x="561.8721" y="-208.2413" font-family="Arial" font-size="10.00" fill="#ffffff">Table</text>
<text text-anchor="middle" x="561.8721" y="-197.2413" font-family="Arial" font-size="10.00" fill="#ffffff">Row</text>
</a>
</g>
</g>
<!-- uqbar.graphs.Text.Text -->
<g id="node22" class="node">
<title>uqbar.graphs.Text.Text</title>
<g id="a_node22"><a xlink:href="../api/uqbar/graphs/Text.html#uqbar.graphs.Text.Text" xlink:title="Text" target="_top">
<path fill="#000000" stroke="#000000" stroke-width="2" d="M571.0388,-417.7413C571.0388,-417.7413 552.7055,-417.7413 552.7055,-417.7413 549.5388,-417.7413 546.3721,-414.5747 546.3721,-411.408 546.3721,-411.408 546.3721,-405.0747 546.3721,-405.0747 546.3721,-401.908 549.5388,-398.7413 552.7055,-398.7413 552.7055,-398.7413 571.0388,-398.7413 571.0388,-398.7413 574.2055,-398.7413 577.3721,-401.908 577.3721,-405.0747 577.3721,-405.0747 577.3721,-411.408 577.3721,-411.408 577.3721,-414.5747 574.2055,-417.7413 571.0388,-417.7413"/>
<text text-anchor="middle" x="561.8721" y="-405.7413" font-family="Arial" font-size="10.00" fill="#ffffff">Text</text>
</a>
</g>
</g>
<!-- uqbar.graphs.VRule.VRule -->
<g id="node23" class="node">
<title>uqbar.graphs.VRule.VRule</title>
<g id="a_node23"><a xlink:href="../api/uqbar/graphs/VRule.html#uqbar.graphs.VRule.VRule" xlink:title="VRule" target="_top">
<path fill="#000000" stroke="#000000" stroke-width="2" d="M574.0388,-257.7413C574.0388,-257.7413 549.7055,-257.7413 549.7055,-257.7413 546.5388,-257.7413 543.3721,-254.5747 543.3721,-251.408 543.3721,-251.408 543.3721,-245.0747 543.3721,-245.0747 543.3721,-241.908 546.5388,-238.7413 549.7055,-238.7413 549.7055,-238.7413 574.0388,-238.7413 574.0388,-238.7413 577.2055,-238.7413 580.3721,-241.908 580.3721,-245.0747 580.3721,-245.0747 580.3721,-251.408 580.3721,-251.408 580.3721,-254.5747 577.2055,-257.7413 574.0388,-257.7413"/>
<text text-anchor="middle" x="561.8721" y="-245.7413" font-family="Arial" font-size="10.00" fill="#ffffff">VRule</text>
</a>
</g>
</g>
</g>
</svg>
