<?xml version="1.0" encoding="UTF-8" standalone="no"?>
<!DOCTYPE svg PUBLIC "-//W3C//DTD SVG 1.1//EN"
 "http://www.w3.org/Graphics/SVG/1.1/DTD/svg11.dtd">
<!-- Generated by graphviz version 2.44.1 (20200629.0846)
 -->
<!-- Title: InheritanceGraph Pages: 1 -->
<svg width="413pt" height="179pt"
 viewBox="0.00 0.00 413.00 179.00" xmlns="http://www.w3.org/2000/svg" xmlns:xlink="http://www.w3.org/1999/xlink">
<g id="graph0" class="graph" transform="scale(1 1) rotate(0) translate(4 175)">
<title>InheritanceGraph</title>
<g id="clust1" class="cluster">
<title>cluster_builtins</title>
<path fill="transparent" stroke="#bcd2ee" stroke-width="2" stroke-dasharray="5,2" d="M20,-71C20,-71 55,-71 55,-71 61,-71 67,-77 67,-83 67,-83 67,-114 67,-114 67,-120 61,-126 55,-126 55,-126 20,-126 20,-126 14,-126 8,-120 8,-114 8,-114 8,-83 8,-83 8,-77 14,-71 20,-71"/>
<text text-anchor="middle" x="37.5" y="-114" font-family="Arial" font-size="10.00">builtins</text>
</g>
<g id="clust2" class="cluster">
<title>cluster_docutils.nodes</title>
<path fill="transparent" stroke="#bcd2ee" stroke-width="2" stroke-dasharray="5,2" d="M99,-71C99,-71 235.5,-71 235.5,-71 241.5,-71 247.5,-77 247.5,-83 247.5,-83 247.5,-151 247.5,-151 247.5,-157 241.5,-163 235.5,-163 235.5,-163 99,-163 99,-163 93,-163 87,-157 87,-151 87,-151 87,-83 87,-83 87,-77 93,-71 99,-71"/>
<text text-anchor="middle" x="167.25" y="-151" font-family="Arial" font-size="10.00">docutils.nodes</text>
</g>
<g id="clust3" class="cluster">
<title>cluster_docutils.parsers.rst</title>
<path fill="transparent" stroke="#bcd2ee" stroke-width="2" stroke-dasharray="5,2" d="M175,-8C175,-8 251,-8 251,-8 257,-8 263,-14 263,-20 263,-20 263,-51 263,-51 263,-57 257,-63 251,-63 251,-63 175,-63 175,-63 169,-63 163,-57 163,-51 163,-51 163,-20 163,-20 163,-14 169,-8 175,-8"/>
<text text-anchor="middle" x="213" y="-51" font-family="Arial" font-size="10.00">docutils.parsers.rst</text>
</g>
<g id="clust4" class="cluster">
<title>cluster_uqbar.sphinx.inheritance</title>
<path fill="transparent" stroke="#bcd2ee" stroke-width="2" stroke-dasharray="5,2" d="M295,-18C295,-18 393,-18 393,-18 399,-18 405,-24 405,-30 405,-30 405,-119 405,-119 405,-125 399,-131 393,-131 393,-131 295,-131 295,-131 289,-131 283,-125 283,-119 283,-119 283,-30 283,-30 283,-24 289,-18 295,-18"/>
<text text-anchor="middle" x="344" y="-119" font-family="Arial" font-size="10.00">uqbar.sphinx.inheritance</text>
</g>
<!-- builtins.object&#45;&gt;docutils.nodes.Body -->
<g id="edge3" class="edge">
<title>builtins.object&#45;&gt;docutils.nodes.Body</title>
<path fill="none" stroke="lightslategrey" d="M57.94,-98.53C66.59,-102.77 76.94,-107.84 86.37,-112.46"/>
<polygon fill="lightslategrey" stroke="lightslategrey" points="84.88,-115.63 95.4,-116.89 87.96,-109.34 84.88,-115.63"/>
</g>
<!-- builtins.object&#45;&gt;docutils.nodes.Node -->
<g id="edge4" class="edge">
<title>builtins.object&#45;&gt;docutils.nodes.Node</title>
<path fill="none" stroke="lightslategrey" d="M59.13,-89C67.08,-89 76.31,-89 84.9,-89"/>
<polygon fill="lightslategrey" stroke="lightslategrey" points="84.95,-92.5 94.95,-89 84.95,-85.5 84.95,-92.5"/>
</g>
<!-- builtins.object&#45;&gt;docutils.parsers.rst.Directive -->
<g id="edge5" class="edge">
<title>builtins.object&#45;&gt;docutils.parsers.rst.Directive</title>
<path fill="none" stroke="lightslategrey" d="M58.58,-79.3C67.24,-75.27 77.52,-70.69 87,-67 116.18,-55.64 149.96,-44.68 175.04,-36.96"/>
<polygon fill="lightslategrey" stroke="lightslategrey" points="176.33,-40.23 184.88,-33.96 174.29,-33.53 176.33,-40.23"/>
</g>
<!-- docutils.nodes.Body&#45;&gt;docutils.nodes.General -->
<g id="edge1" class="edge">
<title>docutils.nodes.Body&#45;&gt;docutils.nodes.General</title>
<path fill="none" stroke="lightslategrey" d="M134.51,-126C146.7,-126 163.03,-126 177.56,-126"/>
<polygon fill="lightslategrey" stroke="lightslategrey" points="177.73,-129.5 187.73,-126 177.73,-122.5 177.73,-129.5"/>
</g>
<!-- docutils.nodes.Element&#45;&gt;uqbar.sphinx.inheritance.inheritance_diagram -->
<g id="edge6" class="edge">
<title>docutils.nodes.Element&#45;&gt;uqbar.sphinx.inheritance.inheritance_diagram</title>
<path fill="none" stroke="lightslategrey" d="M239.7,-89C257.28,-89 280.99,-89 301.2,-89"/>
<polygon fill="lightslategrey" stroke="lightslategrey" points="301.41,-92.5 311.41,-89 301.41,-85.5 301.41,-92.5"/>
</g>
<!-- docutils.nodes.General&#45;&gt;uqbar.sphinx.inheritance.inheritance_diagram -->
<g id="edge7" class="edge">
<title>docutils.nodes.General&#45;&gt;uqbar.sphinx.inheritance.inheritance_diagram</title>
<path fill="none" stroke="lightslategrey" d="M238.17,-119.04C255.91,-113.93 280.45,-106.87 301.27,-100.87"/>
<polygon fill="lightslategrey" stroke="lightslategrey" points="302.5,-104.16 311.14,-98.03 300.56,-97.43 302.5,-104.16"/>
</g>
<!-- docutils.nodes.Node&#45;&gt;docutils.nodes.Element -->
<g id="edge2" class="edge">
<title>docutils.nodes.Node&#45;&gt;docutils.nodes.Element</title>
<path fill="none" stroke="lightslategrey" d="M135.43,-89C147.13,-89 162.39,-89 176.21,-89"/>
<polygon fill="lightslategrey" stroke="lightslategrey" points="176.41,-92.5 186.41,-89 176.41,-85.5 176.41,-92.5"/>
</g>
<!-- docutils.parsers.rst.Directive&#45;&gt;uqbar.sphinx.inheritance.InheritanceDiagram -->
<g id="edge8" class="edge">
<title>docutils.parsers.rst.Directive&#45;&gt;uqbar.sphinx.inheritance.InheritanceDiagram</title>
<path fill="none" stroke="lightslategrey" d="M241.25,-29.18C258.49,-31.19 281.11,-33.83 300.6,-36.11"/>
<polygon fill="lightslategrey" stroke="lightslategrey" points="300.42,-39.61 310.76,-37.29 301.23,-32.66 300.42,-39.61"/>
</g>
<!-- builtins.object -->
<g id="node1" class="node">
<title>builtins.object</title>
<g id="a_node1"><a xlink:href="https://docs.python.org/3.6/library/functions.html#object" xlink:title="object" target="_top">
<path fill="#fbb4ae" stroke="#fbb4ae" stroke-width="2" d="M52.67,-98.5C52.67,-98.5 22.33,-98.5 22.33,-98.5 19.17,-98.5 16,-95.33 16,-92.17 16,-92.17 16,-85.83 16,-85.83 16,-82.67 19.17,-79.5 22.33,-79.5 22.33,-79.5 52.67,-79.5 52.67,-79.5 55.83,-79.5 59,-82.67 59,-85.83 59,-85.83 59,-92.17 59,-92.17 59,-95.33 55.83,-98.5 52.67,-98.5"/>
<text text-anchor="middle" x="37.5" y="-86.5" font-family="Arial" font-size="10.00">object</text>
</a>
</g>
</g>
<!-- docutils.nodes.Body -->
<g id="node2" class="node">
<title>docutils.nodes.Body</title>
<path fill="#b3cde3" stroke="#b3cde3" stroke-width="2" d="M128.17,-135.5C128.17,-135.5 101.83,-135.5 101.83,-135.5 98.67,-135.5 95.5,-132.33 95.5,-129.17 95.5,-129.17 95.5,-122.83 95.5,-122.83 95.5,-119.67 98.67,-116.5 101.83,-116.5 101.83,-116.5 128.17,-116.5 128.17,-116.5 131.33,-116.5 134.5,-119.67 134.5,-122.83 134.5,-122.83 134.5,-129.17 134.5,-129.17 134.5,-132.33 131.33,-135.5 128.17,-135.5"/>
<text text-anchor="middle" x="115" y="-123.5" font-family="Arial" font-size="10.00">Body</text>
</g>
<!-- docutils.nodes.Element -->
<g id="node3" class="node">
<title>docutils.nodes.Element</title>
<path fill="#b3cde3" stroke="#b3cde3" stroke-width="2" d="M233.17,-98.5C233.17,-98.5 192.83,-98.5 192.83,-98.5 189.67,-98.5 186.5,-95.33 186.5,-92.17 186.5,-92.17 186.5,-85.83 186.5,-85.83 186.5,-82.67 189.67,-79.5 192.83,-79.5 192.83,-79.5 233.17,-79.5 233.17,-79.5 236.33,-79.5 239.5,-82.67 239.5,-85.83 239.5,-85.83 239.5,-92.17 239.5,-92.17 239.5,-95.33 236.33,-98.5 233.17,-98.5"/>
<text text-anchor="middle" x="213" y="-86.5" font-family="Arial" font-size="10.00">Element</text>
</g>
<!-- docutils.nodes.General -->
<g id="node4" class="node">
<title>docutils.nodes.General</title>
<path fill="#b3cde3" stroke="#b3cde3" stroke-width="2" d="M231.67,-135.5C231.67,-135.5 194.33,-135.5 194.33,-135.5 191.17,-135.5 188,-132.33 188,-129.17 188,-129.17 188,-122.83 188,-122.83 188,-119.67 191.17,-116.5 194.33,-116.5 194.33,-116.5 231.67,-116.5 231.67,-116.5 234.83,-116.5 238,-119.67 238,-122.83 238,-122.83 238,-129.17 238,-129.17 238,-132.33 234.83,-135.5 231.67,-135.5"/>
<text text-anchor="middle" x="213" y="-123.5" font-family="Arial" font-size="10.00">General</text>
</g>
<!-- docutils.nodes.Node -->
<g id="node5" class="node">
<title>docutils.nodes.Node</title>
<path fill="#b3cde3" stroke="#b3cde3" stroke-width="2" d="M128.67,-98.5C128.67,-98.5 101.33,-98.5 101.33,-98.5 98.17,-98.5 95,-95.33 95,-92.17 95,-92.17 95,-85.83 95,-85.83 95,-82.67 98.17,-79.5 101.33,-79.5 101.33,-79.5 128.67,-79.5 128.67,-79.5 131.83,-79.5 135,-82.67 135,-85.83 135,-85.83 135,-92.17 135,-92.17 135,-95.33 131.83,-98.5 128.67,-98.5"/>
<text text-anchor="middle" x="115" y="-86.5" font-family="Arial" font-size="10.00">Node</text>
</g>
<!-- docutils.parsers.rst.Directive -->
<g id="node6" class="node">
<title>docutils.parsers.rst.Directive</title>
<g id="a_node6"><a xlink:href="https://www.sphinx-doc.org/en/master/extdev/markupapi.html#docutils.parsers.rst.Directive" xlink:title="Directive" target="_top">
<path fill="#ccebc5" stroke="#ccebc5" stroke-width="2" d="M234.67,-35.5C234.67,-35.5 191.33,-35.5 191.33,-35.5 188.17,-35.5 185,-32.33 185,-29.17 185,-29.17 185,-22.83 185,-22.83 185,-19.67 188.17,-16.5 191.33,-16.5 191.33,-16.5 234.67,-16.5 234.67,-16.5 237.83,-16.5 241,-19.67 241,-22.83 241,-22.83 241,-29.17 241,-29.17 241,-32.33 237.83,-35.5 234.67,-35.5"/>
<text text-anchor="middle" x="213" y="-23.5" font-family="Arial" font-size="10.00">Directive</text>
</a>
</g>
</g>
<!-- uqbar.sphinx.inheritance.InheritanceDiagram -->
<g id="node7" class="node">
<title>uqbar.sphinx.inheritance.InheritanceDiagram</title>
<g id="a_node7"><a xlink:href="../api/uqbar/sphinx/inheritance.html#uqbar.sphinx.inheritance.InheritanceDiagram" xlink:title="Inheritance\nDiagram" target="_top">
<path fill="black" stroke="black" stroke-width="2" d="M366,-56C366,-56 321,-56 321,-56 316,-56 311,-51 311,-46 311,-46 311,-36 311,-36 311,-31 316,-26 321,-26 321,-26 366,-26 366,-26 371,-26 376,-31 376,-36 376,-36 376,-46 376,-46 376,-51 371,-56 366,-56"/>
<text text-anchor="middle" x="343.5" y="-44" font-family="Arial" font-size="10.00" fill="white">Inheritance</text>
<text text-anchor="middle" x="343.5" y="-33" font-family="Arial" font-size="10.00" fill="white">Diagram</text>
</a>
</g>
</g>
<!-- uqbar.sphinx.inheritance.inheritance_diagram -->
<g id="node8" class="node">
<title>uqbar.sphinx.inheritance.inheritance_diagram</title>
<g id="a_node8"><a xlink:href="../api/uqbar/sphinx/inheritance.html#uqbar.sphinx.inheritance.inheritance_diagram" xlink:title="inheritance\ndiagram" target="_top">
<path fill="black" stroke="black" stroke-width="2" d="M365.5,-104C365.5,-104 321.5,-104 321.5,-104 316.5,-104 311.5,-99 311.5,-94 311.5,-94 311.5,-84 311.5,-84 311.5,-79 316.5,-74 321.5,-74 321.5,-74 365.5,-74 365.5,-74 370.5,-74 375.5,-79 375.5,-84 375.5,-84 375.5,-94 375.5,-94 375.5,-99 370.5,-104 365.5,-104"/>
<text text-anchor="middle" x="343.5" y="-92" font-family="Arial" font-size="10.00" fill="white">inheritance</text>
<text text-anchor="middle" x="343.5" y="-81" font-family="Arial" font-size="10.00" fill="white">diagram</text>
</a>
</g>
</g>
</g>
</svg>
