<?xml version="1.0" encoding="UTF-8" standalone="no"?>
<!DOCTYPE svg PUBLIC "-//W3C//DTD SVG 1.1//EN"
 "http://www.w3.org/Graphics/SVG/1.1/DTD/svg11.dtd">
<!-- Generated by graphviz version 2.44.0 (20200408.0750)
 -->
<!-- Title: InheritanceGraph Pages: 1 -->
<svg width="299pt" height="101pt"
 viewBox="0.00 0.00 299.00 101.00" xmlns="http://www.w3.org/2000/svg" xmlns:xlink="http://www.w3.org/1999/xlink">
<g id="graph0" class="graph" transform="scale(1 1) rotate(0) translate(4 97)">
<title>InheritanceGraph</title>
<g id="clust1" class="cluster">
<title>cluster_builtins</title>
<path fill="transparent" stroke="#bcd2ee" stroke-width="2" stroke-dasharray="5,2" d="M20,-19C20,-19 55,-19 55,-19 61,-19 67,-25 67,-31 67,-31 67,-62 67,-62 67,-68 61,-74 55,-74 55,-74 20,-74 20,-74 14,-74 8,-68 8,-62 8,-62 8,-31 8,-31 8,-25 14,-19 20,-19"/>
<text text-anchor="middle" x="37.5" y="-62" font-family="Arial" font-size="10.00">builtins</text>
</g>
<g id="clust2" class="cluster">
<title>cluster_uqbar.apis</title>
<path fill="transparent" stroke="#bcd2ee" stroke-width="2" stroke-dasharray="5,2" d="M99,-8C99,-8 271,-8 271,-8 277,-8 283,-14 283,-20 283,-20 283,-73 283,-73 283,-79 277,-85 271,-85 271,-85 99,-85 99,-85 93,-85 87,-79 87,-73 87,-73 87,-20 87,-20 87,-14 93,-8 99,-8"/>
<text text-anchor="middle" x="185" y="-73" font-family="Arial" font-size="10.00">uqbar.apis</text>
</g>
<!-- builtins.object&#45;&gt;uqbar.apis.ModuleDocumenter.ModuleDocumenter -->
<g id="edge2" class="edge">
<title>builtins.object&#45;&gt;uqbar.apis.ModuleDocumenter.ModuleDocumenter</title>
<path fill="none" stroke="lightslategrey" d="M59.04,-37C66.69,-37 75.7,-37 84.67,-37"/>
<polygon fill="lightslategrey" stroke="lightslategrey" points="84.7,-40.5 94.7,-37 84.7,-33.5 84.7,-40.5"/>
</g>
<!-- uqbar.apis.ModuleDocumenter.ModuleDocumenter&#45;&gt;uqbar.apis.SummarizingModuleDocumenter.SummarizingModuleDocumenter -->
<g id="edge1" class="edge">
<title>uqbar.apis.ModuleDocumenter.ModuleDocumenter&#45;&gt;uqbar.apis.SummarizingModuleDocumenter.SummarizingModuleDocumenter</title>
<path fill="none" stroke="lightslategrey" d="M165.12,-37C173.21,-37 181.98,-37 190.51,-37"/>
<polygon fill="lightslategrey" stroke="lightslategrey" points="190.75,-40.5 200.75,-37 190.75,-33.5 190.75,-40.5"/>
</g>
<!-- builtins.object -->
<g id="node1" class="node">
<title>builtins.object</title>
<g id="a_node1"><a xlink:href="https://docs.python.org/3.6/library/functions.html#object" xlink:title="object" target="_top">
<path fill="#fbb4ae" stroke="#fbb4ae" stroke-width="2" d="M52.67,-46.5C52.67,-46.5 22.33,-46.5 22.33,-46.5 19.17,-46.5 16,-43.33 16,-40.17 16,-40.17 16,-33.83 16,-33.83 16,-30.67 19.17,-27.5 22.33,-27.5 22.33,-27.5 52.67,-27.5 52.67,-27.5 55.83,-27.5 59,-30.67 59,-33.83 59,-33.83 59,-40.17 59,-40.17 59,-43.33 55.83,-46.5 52.67,-46.5"/>
<text text-anchor="middle" x="37.5" y="-34.5" font-family="Arial" font-size="10.00">object</text>
</a>
</g>
</g>
<!-- uqbar.apis.ModuleDocumenter.ModuleDocumenter -->
<g id="node2" class="node">
<title>uqbar.apis.ModuleDocumenter.ModuleDocumenter</title>
<g id="a_node2"><a xlink:href="../api/uqbar/apis/ModuleDocumenter.html#uqbar.apis.ModuleDocumenter.ModuleDocumenter" xlink:title="Module\nDocumenter" target="_top">
<path fill="#b3cde3" stroke="#b3cde3" stroke-width="2" d="M155,-52C155,-52 105,-52 105,-52 100,-52 95,-47 95,-42 95,-42 95,-32 95,-32 95,-27 100,-22 105,-22 105,-22 155,-22 155,-22 160,-22 165,-27 165,-32 165,-32 165,-42 165,-42 165,-47 160,-52 155,-52"/>
<text text-anchor="middle" x="130" y="-40" font-family="Arial" font-size="10.00">Module</text>
<text text-anchor="middle" x="130" y="-29" font-family="Arial" font-size="10.00">Documenter</text>
</a>
</g>
</g>
<!-- uqbar.apis.SummarizingModuleDocumenter.SummarizingModuleDocumenter -->
<g id="node3" class="node">
<title>uqbar.apis.SummarizingModuleDocumenter.SummarizingModuleDocumenter</title>
<g id="a_node3"><a xlink:href="../api/uqbar/apis/SummarizingModuleDocumenter.html#uqbar.apis.SummarizingModuleDocumenter.SummarizingModuleDocumenter" xlink:title="Summarizing\nModule\nDocumenter" target="_top">
<path fill="black" stroke="black" stroke-width="2" d="M263,-57.5C263,-57.5 213,-57.5 213,-57.5 207,-57.5 201,-51.5 201,-45.5 201,-45.5 201,-28.5 201,-28.5 201,-22.5 207,-16.5 213,-16.5 213,-16.5 263,-16.5 263,-16.5 269,-16.5 275,-22.5 275,-28.5 275,-28.5 275,-45.5 275,-45.5 275,-51.5 269,-57.5 263,-57.5"/>
<text text-anchor="middle" x="238" y="-45.5" font-family="Arial" font-size="10.00" fill="white">Summarizing</text>
<text text-anchor="middle" x="238" y="-34.5" font-family="Arial" font-size="10.00" fill="white">Module</text>
<text text-anchor="middle" x="238" y="-23.5" font-family="Arial" font-size="10.00" fill="white">Documenter</text>
</a>
</g>
</g>
</g>
</svg>
