<?xml version="1.0" encoding="UTF-8" standalone="no"?>
<!DOCTYPE svg PUBLIC "-//W3C//DTD SVG 1.1//EN"
 "http://www.w3.org/Graphics/SVG/1.1/DTD/svg11.dtd">
<!-- Generated by graphviz version 2.40.1 (20161225.0304)
 -->
<!-- Title: InheritanceGraph Pages: 1 -->
<svg width="485pt" height="589pt"
 viewBox="0.00 0.00 485.00 589.45" xmlns="http://www.w3.org/2000/svg" xmlns:xlink="http://www.w3.org/1999/xlink">
<g id="graph0" class="graph" transform="scale(1 1) rotate(0) translate(4 585.4464)">
<title>InheritanceGraph</title>
<g id="clust1" class="cluster">
<title>cluster_builtins</title>
<path fill="transparent" stroke="#bcd2ee" stroke-width="2" stroke-dasharray="5,2" d="M20,-243.4464C20,-243.4464 49,-243.4464 49,-243.4464 55,-243.4464 61,-249.4464 61,-255.4464 61,-255.4464 61,-286.4464 61,-286.4464 61,-292.4464 55,-298.4464 49,-298.4464 49,-298.4464 20,-298.4464 20,-298.4464 14,-298.4464 8,-292.4464 8,-286.4464 8,-286.4464 8,-255.4464 8,-255.4464 8,-249.4464 14,-243.4464 20,-243.4464"/>
<text text-anchor="middle" x="34.5" y="-286.4464" font-family="Arial" font-size="10.00" fill="#000000">builtins</text>
</g>
<g id="clust2" class="cluster">
<title>cluster_uqbar.apis</title>
<path fill="transparent" stroke="#bcd2ee" stroke-width="2" stroke-dasharray="5,2" d="M254,-460.4464C254,-460.4464 292,-460.4464 292,-460.4464 298,-460.4464 304,-466.4464 304,-472.4464 304,-472.4464 304,-561.4464 304,-561.4464 304,-567.4464 298,-573.4464 292,-573.4464 292,-573.4464 254,-573.4464 254,-573.4464 248,-573.4464 242,-567.4464 242,-561.4464 242,-561.4464 242,-472.4464 242,-472.4464 242,-466.4464 248,-460.4464 254,-460.4464"/>
<text text-anchor="middle" x="273" y="-561.4464" font-family="Arial" font-size="10.00" fill="#000000">uqbar.apis</text>
</g>
<g id="clust3" class="cluster">
<title>cluster_uqbar.containers</title>
<path fill="transparent" stroke="#bcd2ee" stroke-width="2" stroke-dasharray="5,2" d="M93,-232.4464C93,-232.4464 210,-232.4464 210,-232.4464 216,-232.4464 222,-238.4464 222,-244.4464 222,-244.4464 222,-297.4464 222,-297.4464 222,-303.4464 216,-309.4464 210,-309.4464 210,-309.4464 93,-309.4464 93,-309.4464 87,-309.4464 81,-303.4464 81,-297.4464 81,-297.4464 81,-244.4464 81,-244.4464 81,-238.4464 87,-232.4464 93,-232.4464"/>
<text text-anchor="middle" x="151.5" y="-297.4464" font-family="Arial" font-size="10.00" fill="#000000">uqbar.containers</text>
</g>
<g id="clust4" class="cluster">
<title>cluster_uqbar.graphs</title>
<path fill="transparent" stroke="#bcd2ee" stroke-width="2" stroke-dasharray="5,2" d="M336,-15.4464C336,-15.4464 457,-15.4464 457,-15.4464 463,-15.4464 469,-21.4464 469,-27.4464 469,-27.4464 469,-427.4464 469,-427.4464 469,-433.4464 463,-439.4464 457,-439.4464 457,-439.4464 336,-439.4464 336,-439.4464 330,-439.4464 324,-433.4464 324,-427.4464 324,-427.4464 324,-27.4464 324,-27.4464 324,-21.4464 330,-15.4464 336,-15.4464"/>
<text text-anchor="middle" x="396.5" y="-427.4464" font-family="Arial" font-size="10.00" fill="#000000">uqbar.graphs</text>
</g>
<!-- builtins.object&#45;&gt;uqbar.containers.UniqueTreeNode.UniqueTreeNode -->
<g id="edge4" class="edge">
<title>builtins.object&#45;&gt;uqbar.containers.UniqueTreeNode.UniqueTreeNode</title>
<path fill="none" stroke="#778899" d="M53.2995,-261.4464C61.0221,-261.4464 70.1602,-261.4464 78.7776,-261.4464"/>
<polygon fill="#778899" stroke="#778899" points="78.9006,-264.9465 88.9006,-261.4464 78.9005,-257.9465 78.9006,-264.9465"/>
</g>
<!-- uqbar.containers.UniqueTreeContainer.UniqueTreeContainer&#45;&gt;uqbar.apis.PackageNode.PackageNode -->
<g id="edge5" class="edge">
<title>uqbar.containers.UniqueTreeContainer.UniqueTreeContainer&#45;&gt;uqbar.apis.PackageNode.PackageNode</title>
<path fill="none" stroke="#778899" d="M193.6319,-282.1431C202.5566,-325.6493 224.2619,-424.9989 242,-454.4464 243.3309,-456.6559 244.8774,-458.8034 246.5556,-460.8644"/>
<polygon fill="#778899" stroke="#778899" points="244.13,-463.3956 253.5036,-468.3337 249.2554,-458.6279 244.13,-463.3956"/>
</g>
<!-- uqbar.containers.UniqueTreeContainer.UniqueTreeContainer&#45;&gt;uqbar.graphs.TableCell.TableCell -->
<g id="edge10" class="edge">
<title>uqbar.containers.UniqueTreeContainer.UniqueTreeContainer&#45;&gt;uqbar.graphs.TableCell.TableCell</title>
<path fill="none" stroke="#778899" d="M195.4018,-282.1495C203.0138,-305.9305 218.1799,-345.0567 242,-371.4464 286.8321,-421.1145 330.0034,-460.9585 384,-421.4464 408.9577,-403.1836 428.0941,-313.2928 436.2258,-268.6696"/>
<polygon fill="#778899" stroke="#778899" points="439.7078,-269.0784 438.0098,-258.6206 432.8156,-267.8548 439.7078,-269.0784"/>
</g>
<!-- uqbar.containers.UniqueTreeContainer.UniqueTreeContainer&#45;&gt;uqbar.graphs.Graph.Graph -->
<g id="edge6" class="edge">
<title>uqbar.containers.UniqueTreeContainer.UniqueTreeContainer&#45;&gt;uqbar.graphs.Graph.Graph</title>
<path fill="none" stroke="#778899" d="M200.0331,-282.0206C209.3576,-298.7464 224.2266,-322.1588 242,-338.4464 268.1977,-362.454 305.0221,-380.7936 330.106,-391.5628"/>
<polygon fill="#778899" stroke="#778899" points="328.8454,-394.8292 339.4222,-395.4468 331.5391,-388.3682 328.8454,-394.8292"/>
</g>
<!-- uqbar.containers.UniqueTreeContainer.UniqueTreeContainer&#45;&gt;uqbar.graphs.Node.Node -->
<g id="edge7" class="edge">
<title>uqbar.containers.UniqueTreeContainer.UniqueTreeContainer&#45;&gt;uqbar.graphs.Node.Node</title>
<path fill="none" stroke="#778899" d="M209.8644,-282.0566C219.1726,-290.8303 230.6413,-300.7842 242,-308.4464 270.7752,-327.8572 307.1291,-344.6217 331.3966,-354.8508"/>
<polygon fill="#778899" stroke="#778899" points="330.1091,-358.1058 340.6874,-358.6965 332.7863,-351.638 330.1091,-358.1058"/>
</g>
<!-- uqbar.containers.UniqueTreeContainer.UniqueTreeContainer&#45;&gt;uqbar.graphs.RecordGroup.RecordGroup -->
<g id="edge8" class="edge">
<title>uqbar.containers.UniqueTreeContainer.UniqueTreeContainer&#45;&gt;uqbar.graphs.RecordGroup.RecordGroup</title>
<path fill="none" stroke="#778899" d="M214.1338,-272.8227C222.8601,-276.6965 232.7967,-280.9323 242,-284.4464 270.628,-295.3772 303.9254,-306.0836 327.4832,-313.3316"/>
<polygon fill="#778899" stroke="#778899" points="326.669,-316.7423 337.2551,-316.3116 328.7109,-310.0468 326.669,-316.7423"/>
</g>
<!-- uqbar.containers.UniqueTreeContainer.UniqueTreeContainer&#45;&gt;uqbar.graphs.Table.Table -->
<g id="edge9" class="edge">
<title>uqbar.containers.UniqueTreeContainer.UniqueTreeContainer&#45;&gt;uqbar.graphs.Table.Table</title>
<path fill="none" stroke="#778899" d="M214.0013,-264.0637C244.8354,-267.3576 297.6673,-273.0014 330.0464,-276.4603"/>
<polygon fill="#778899" stroke="#778899" points="329.8665,-279.9609 340.1818,-277.543 330.6102,-273.0005 329.8665,-279.9609"/>
</g>
<!-- uqbar.containers.UniqueTreeContainer.UniqueTreeContainer&#45;&gt;uqbar.graphs.TableRow.TableRow -->
<g id="edge11" class="edge">
<title>uqbar.containers.UniqueTreeContainer.UniqueTreeContainer&#45;&gt;uqbar.graphs.TableRow.TableRow</title>
<path fill="none" stroke="#778899" d="M214.0013,-257.8112C244.8354,-253.2364 297.6673,-245.3978 330.0464,-240.5938"/>
<polygon fill="#778899" stroke="#778899" points="330.8037,-244.0198 340.1818,-239.09 329.7764,-237.0956 330.8037,-244.0198"/>
</g>
<!-- uqbar.containers.UniqueTreeNode.UniqueTreeNode&#45;&gt;uqbar.apis.ModuleNode.ModuleNode -->
<g id="edge12" class="edge">
<title>uqbar.containers.UniqueTreeNode.UniqueTreeNode&#45;&gt;uqbar.apis.ModuleNode.ModuleNode</title>
<path fill="none" stroke="#778899" d="M116.6762,-281.983C134.0204,-326.5383 179.6342,-433.9736 242,-507.4464 242.8424,-508.4388 243.7319,-509.4169 244.6568,-510.3772"/>
<polygon fill="#778899" stroke="#778899" points="242.5097,-513.157 252.2457,-517.3358 247.2406,-507.9977 242.5097,-513.157"/>
</g>
<!-- uqbar.containers.UniqueTreeNode.UniqueTreeNode&#45;&gt;uqbar.containers.UniqueTreeContainer.UniqueTreeContainer -->
<g id="edge1" class="edge">
<title>uqbar.containers.UniqueTreeNode.UniqueTreeNode&#45;&gt;uqbar.containers.UniqueTreeContainer.UniqueTreeContainer</title>
<path fill="none" stroke="#778899" d="M129.3135,-261.4464C136.9959,-261.4464 145.9745,-261.4464 154.617,-261.4464"/>
<polygon fill="#778899" stroke="#778899" points="154.8826,-264.9465 164.8825,-261.4464 154.8825,-257.9465 154.8826,-264.9465"/>
</g>
<!-- uqbar.containers.UniqueTreeNode.UniqueTreeNode&#45;&gt;uqbar.graphs.Attachable.Attachable -->
<g id="edge13" class="edge">
<title>uqbar.containers.UniqueTreeNode.UniqueTreeNode&#45;&gt;uqbar.graphs.Attachable.Attachable</title>
<path fill="none" stroke="#778899" d="M129.1294,-249.2839C139.5286,-243.4554 152.6078,-236.8106 165,-232.4464 217.9808,-213.788 282.4622,-203.0144 321.8533,-197.6906"/>
<polygon fill="#778899" stroke="#778899" points="322.3243,-201.1589 331.7862,-196.3922 321.4169,-194.218 322.3243,-201.1589"/>
</g>
<!-- uqbar.containers.UniqueTreeNode.UniqueTreeNode&#45;&gt;uqbar.graphs.RecordField.RecordField -->
<g id="edge16" class="edge">
<title>uqbar.containers.UniqueTreeNode.UniqueTreeNode&#45;&gt;uqbar.graphs.RecordField.RecordField</title>
<path fill="none" stroke="#778899" d="M112.3539,-240.9039C120.1147,-195.6826 140.5299,-89.4729 165,-63.4464 189.8412,-37.0252 207.3512,-47.1526 242,-36.4464 303.0176,-17.5924 330.4947,20.422 384,-14.4464 418.7999,-37.1249 432.3186,-86.6176 437.4594,-116.9838"/>
<polygon fill="#778899" stroke="#778899" points="434.0505,-117.8522 438.9982,-127.2208 440.9727,-116.8116 434.0505,-117.8522"/>
</g>
<!-- uqbar.containers.UniqueTreeNode.UniqueTreeNode&#45;&gt;uqbar.graphs.HRule.HRule -->
<g id="edge14" class="edge">
<title>uqbar.containers.UniqueTreeNode.UniqueTreeNode&#45;&gt;uqbar.graphs.HRule.HRule</title>
<path fill="none" stroke="#778899" d="M128.021,-240.492C138.1377,-230.4469 151.2987,-218.9891 165,-211.4464 218.8444,-181.8045 290.131,-166.8975 329.2505,-160.4937"/>
<polygon fill="#778899" stroke="#778899" points="330.051,-163.9112 339.39,-158.9078 328.9692,-156.9953 330.051,-163.9112"/>
</g>
<!-- uqbar.containers.UniqueTreeNode.UniqueTreeNode&#45;&gt;uqbar.graphs.LineBreak.LineBreak -->
<g id="edge15" class="edge">
<title>uqbar.containers.UniqueTreeNode.UniqueTreeNode&#45;&gt;uqbar.graphs.LineBreak.LineBreak</title>
<path fill="none" stroke="#778899" d="M119.2149,-240.8594C128.8437,-223.3716 144.798,-198.7414 165,-183.4464 215.8676,-144.9344 289.9616,-126.0552 329.9301,-118.1826"/>
<polygon fill="#778899" stroke="#778899" points="330.6054,-121.617 339.7865,-116.3296 329.312,-114.7375 330.6054,-121.617"/>
</g>
<!-- uqbar.containers.UniqueTreeNode.UniqueTreeNode&#45;&gt;uqbar.graphs.Text.Text -->
<g id="edge17" class="edge">
<title>uqbar.containers.UniqueTreeNode.UniqueTreeNode&#45;&gt;uqbar.graphs.Text.Text</title>
<path fill="none" stroke="#778899" d="M114.2703,-240.5609C121.6398,-215.3223 137.331,-173.0631 165,-147.4464 213.7398,-102.3218 292.204,-82.276 332.4245,-74.5765"/>
<polygon fill="#778899" stroke="#778899" points="333.2527,-77.9836 342.4704,-72.7602 332.0073,-71.0952 333.2527,-77.9836"/>
</g>
<!-- uqbar.containers.UniqueTreeNode.UniqueTreeNode&#45;&gt;uqbar.graphs.VRule.VRule -->
<g id="edge18" class="edge">
<title>uqbar.containers.UniqueTreeNode.UniqueTreeNode&#45;&gt;uqbar.graphs.VRule.VRule</title>
<path fill="none" stroke="#778899" d="M110.9146,-240.8576C115.0381,-207.9561 127.6511,-143.3804 165,-105.4464 210.2397,-59.4979 287.4929,-42.5576 329.2229,-36.5568"/>
<polygon fill="#778899" stroke="#778899" points="329.8145,-40.0091 339.2684,-35.2265 328.8954,-33.0697 329.8145,-40.0091"/>
</g>
<!-- uqbar.graphs.Attachable.Attachable&#45;&gt;uqbar.graphs.RecordField.RecordField -->
<g id="edge2" class="edge">
<title>uqbar.graphs.Attachable.Attachable&#45;&gt;uqbar.graphs.RecordField.RecordField</title>
<path fill="none" stroke="#778899" d="M373.5176,-183.8537C384.0344,-177.3524 398.2666,-168.5543 410.9075,-160.7399"/>
<polygon fill="#778899" stroke="#778899" points="413.0894,-163.5059 419.755,-155.2706 409.4086,-157.5518 413.0894,-163.5059"/>
</g>
<!-- uqbar.graphs.Attachable.Attachable&#45;&gt;uqbar.graphs.TableCell.TableCell -->
<g id="edge3" class="edge">
<title>uqbar.graphs.Attachable.Attachable&#45;&gt;uqbar.graphs.TableCell.TableCell</title>
<path fill="none" stroke="#778899" d="M373.9068,-203.0869C385.32,-210.004 400.9593,-219.4823 414.214,-227.5155"/>
<polygon fill="#778899" stroke="#778899" points="412.5621,-230.6069 422.9281,-232.7968 416.1902,-224.6205 412.5621,-230.6069"/>
</g>
<!-- builtins.object -->
<g id="node1" class="node">
<title>builtins.object</title>
<g id="a_node1"><a xlink:href="https://docs.python.org/3.6/library/functions.html#object" xlink:title="object" target="_top">
<path fill="#fbb4ae" stroke="#fbb4ae" stroke-width="2" d="M46.6667,-270.9464C46.6667,-270.9464 22.3333,-270.9464 22.3333,-270.9464 19.1667,-270.9464 16,-267.7797 16,-264.6131 16,-264.6131 16,-258.2797 16,-258.2797 16,-255.1131 19.1667,-251.9464 22.3333,-251.9464 22.3333,-251.9464 46.6667,-251.9464 46.6667,-251.9464 49.8333,-251.9464 53,-255.1131 53,-258.2797 53,-258.2797 53,-264.6131 53,-264.6131 53,-267.7797 49.8333,-270.9464 46.6667,-270.9464"/>
<text text-anchor="middle" x="34.5" y="-258.9464" font-family="Arial" font-size="10.00" fill="#000000">object</text>
</a>
</g>
</g>
<!-- uqbar.apis.ModuleNode.ModuleNode -->
<g id="node2" class="node">
<title>uqbar.apis.ModuleNode.ModuleNode</title>
<g id="a_node2"><a xlink:href="../api/uqbar/containers/../apis/ModuleNode.html#uqbar.apis.ModuleNode.ModuleNode" xlink:title="Module\nNode" target="_top">
<path fill="#b3cde3" stroke="#b3cde3" stroke-width="2" d="M283.5,-546.4464C283.5,-546.4464 262.5,-546.4464 262.5,-546.4464 257.5,-546.4464 252.5,-541.4464 252.5,-536.4464 252.5,-536.4464 252.5,-526.4464 252.5,-526.4464 252.5,-521.4464 257.5,-516.4464 262.5,-516.4464 262.5,-516.4464 283.5,-516.4464 283.5,-516.4464 288.5,-516.4464 293.5,-521.4464 293.5,-526.4464 293.5,-526.4464 293.5,-536.4464 293.5,-536.4464 293.5,-541.4464 288.5,-546.4464 283.5,-546.4464"/>
<text text-anchor="middle" x="273" y="-534.4464" font-family="Arial" font-size="10.00" fill="#000000">Module</text>
<text text-anchor="middle" x="273" y="-523.4464" font-family="Arial" font-size="10.00" fill="#000000">Node</text>
</a>
</g>
</g>
<!-- uqbar.apis.PackageNode.PackageNode -->
<g id="node3" class="node">
<title>uqbar.apis.PackageNode.PackageNode</title>
<g id="a_node3"><a xlink:href="../api/uqbar/containers/../apis/PackageNode.html#uqbar.apis.PackageNode.PackageNode" xlink:title="Package\nNode" target="_top">
<path fill="#b3cde3" stroke="#b3cde3" stroke-width="2" d="M286,-498.4464C286,-498.4464 260,-498.4464 260,-498.4464 255,-498.4464 250,-493.4464 250,-488.4464 250,-488.4464 250,-478.4464 250,-478.4464 250,-473.4464 255,-468.4464 260,-468.4464 260,-468.4464 286,-468.4464 286,-468.4464 291,-468.4464 296,-473.4464 296,-478.4464 296,-478.4464 296,-488.4464 296,-488.4464 296,-493.4464 291,-498.4464 286,-498.4464"/>
<text text-anchor="middle" x="273" y="-486.4464" font-family="Arial" font-size="10.00" fill="#000000">Package</text>
<text text-anchor="middle" x="273" y="-475.4464" font-family="Arial" font-size="10.00" fill="#000000">Node</text>
</a>
</g>
</g>
<!-- uqbar.containers.UniqueTreeContainer.UniqueTreeContainer -->
<g id="node4" class="node">
<title>uqbar.containers.UniqueTreeContainer.UniqueTreeContainer</title>
<g id="a_node4"><a xlink:href="../api/uqbar/containers/UniqueTreeContainer.html#uqbar.containers.UniqueTreeContainer.UniqueTreeContainer" xlink:title="Unique\nTree\nContainer" target="_top">
<path fill="#ccebc5" stroke="#ccebc5" stroke-width="2" d="M202,-281.9464C202,-281.9464 177,-281.9464 177,-281.9464 171,-281.9464 165,-275.9464 165,-269.9464 165,-269.9464 165,-252.9464 165,-252.9464 165,-246.9464 171,-240.9464 177,-240.9464 177,-240.9464 202,-240.9464 202,-240.9464 208,-240.9464 214,-246.9464 214,-252.9464 214,-252.9464 214,-269.9464 214,-269.9464 214,-275.9464 208,-281.9464 202,-281.9464"/>
<text text-anchor="middle" x="189.5" y="-269.9464" font-family="Arial" font-size="10.00" fill="#000000">Unique</text>
<text text-anchor="middle" x="189.5" y="-258.9464" font-family="Arial" font-size="10.00" fill="#000000">Tree</text>
<text text-anchor="middle" x="189.5" y="-247.9464" font-family="Arial" font-size="10.00" fill="#000000">Container</text>
</a>
</g>
</g>
<!-- uqbar.containers.UniqueTreeNode.UniqueTreeNode -->
<g id="node5" class="node">
<title>uqbar.containers.UniqueTreeNode.UniqueTreeNode</title>
<g id="a_node5"><a xlink:href="../api/uqbar/containers/UniqueTreeNode.html#uqbar.containers.UniqueTreeNode.UniqueTreeNode" xlink:title="Unique\nTree\nNode" target="_top">
<path fill="#000000" stroke="#000000" stroke-width="2" d="M117,-281.9464C117,-281.9464 101,-281.9464 101,-281.9464 95,-281.9464 89,-275.9464 89,-269.9464 89,-269.9464 89,-252.9464 89,-252.9464 89,-246.9464 95,-240.9464 101,-240.9464 101,-240.9464 117,-240.9464 117,-240.9464 123,-240.9464 129,-246.9464 129,-252.9464 129,-252.9464 129,-269.9464 129,-269.9464 129,-275.9464 123,-281.9464 117,-281.9464"/>
<text text-anchor="middle" x="109" y="-269.9464" font-family="Arial" font-size="10.00" fill="#ffffff">Unique</text>
<text text-anchor="middle" x="109" y="-258.9464" font-family="Arial" font-size="10.00" fill="#ffffff">Tree</text>
<text text-anchor="middle" x="109" y="-247.9464" font-family="Arial" font-size="10.00" fill="#ffffff">Node</text>
</a>
</g>
</g>
<!-- uqbar.graphs.Attachable.Attachable -->
<g id="node6" class="node">
<title>uqbar.graphs.Attachable.Attachable</title>
<g id="a_node6"><a xlink:href="../api/uqbar/containers/../graphs/Attachable.html#uqbar.graphs.Attachable.Attachable" xlink:title="Attachable" target="_top">
<path fill="#decbe4" stroke="#decbe4" stroke-width="2" d="M377.6667,-202.9464C377.6667,-202.9464 338.3333,-202.9464 338.3333,-202.9464 335.1667,-202.9464 332,-199.7797 332,-196.6131 332,-196.6131 332,-190.2797 332,-190.2797 332,-187.1131 335.1667,-183.9464 338.3333,-183.9464 338.3333,-183.9464 377.6667,-183.9464 377.6667,-183.9464 380.8333,-183.9464 384,-187.1131 384,-190.2797 384,-190.2797 384,-196.6131 384,-196.6131 384,-199.7797 380.8333,-202.9464 377.6667,-202.9464"/>
<text text-anchor="middle" x="358" y="-190.9464" font-family="Arial" font-size="10.00" fill="#000000">Attachable</text>
</a>
</g>
</g>
<!-- uqbar.graphs.RecordField.RecordField -->
<g id="node7" class="node">
<title>uqbar.graphs.RecordField.RecordField</title>
<g id="a_node7"><a xlink:href="../api/uqbar/containers/../graphs/RecordField.html#uqbar.graphs.RecordField.RecordField" xlink:title="Record\nField" target="_top">
<path fill="#decbe4" stroke="#decbe4" stroke-width="2" d="M451,-157.4464C451,-157.4464 430,-157.4464 430,-157.4464 425,-157.4464 420,-152.4464 420,-147.4464 420,-147.4464 420,-137.4464 420,-137.4464 420,-132.4464 425,-127.4464 430,-127.4464 430,-127.4464 451,-127.4464 451,-127.4464 456,-127.4464 461,-132.4464 461,-137.4464 461,-137.4464 461,-147.4464 461,-147.4464 461,-152.4464 456,-157.4464 451,-157.4464"/>
<text text-anchor="middle" x="440.5" y="-145.4464" font-family="Arial" font-size="10.00" fill="#000000">Record</text>
<text text-anchor="middle" x="440.5" y="-134.4464" font-family="Arial" font-size="10.00" fill="#000000">Field</text>
</a>
</g>
</g>
<!-- uqbar.graphs.TableCell.TableCell -->
<g id="node8" class="node">
<title>uqbar.graphs.TableCell.TableCell</title>
<g id="a_node8"><a xlink:href="../api/uqbar/containers/../graphs/TableCell.html#uqbar.graphs.TableCell.TableCell" xlink:title="Table\nCell" target="_top">
<path fill="#decbe4" stroke="#decbe4" stroke-width="2" d="M448,-258.4464C448,-258.4464 433,-258.4464 433,-258.4464 428,-258.4464 423,-253.4464 423,-248.4464 423,-248.4464 423,-238.4464 423,-238.4464 423,-233.4464 428,-228.4464 433,-228.4464 433,-228.4464 448,-228.4464 448,-228.4464 453,-228.4464 458,-233.4464 458,-238.4464 458,-238.4464 458,-248.4464 458,-248.4464 458,-253.4464 453,-258.4464 448,-258.4464"/>
<text text-anchor="middle" x="440.5" y="-246.4464" font-family="Arial" font-size="10.00" fill="#000000">Table</text>
<text text-anchor="middle" x="440.5" y="-235.4464" font-family="Arial" font-size="10.00" fill="#000000">Cell</text>
</a>
</g>
</g>
<!-- uqbar.graphs.Graph.Graph -->
<g id="node9" class="node">
<title>uqbar.graphs.Graph.Graph</title>
<g id="a_node9"><a xlink:href="../api/uqbar/containers/../graphs/Graph.html#uqbar.graphs.Graph.Graph" xlink:title="Graph" target="_top">
<path fill="#decbe4" stroke="#decbe4" stroke-width="2" d="M370.1667,-411.9464C370.1667,-411.9464 345.8333,-411.9464 345.8333,-411.9464 342.6667,-411.9464 339.5,-408.7797 339.5,-405.6131 339.5,-405.6131 339.5,-399.2797 339.5,-399.2797 339.5,-396.1131 342.6667,-392.9464 345.8333,-392.9464 345.8333,-392.9464 370.1667,-392.9464 370.1667,-392.9464 373.3333,-392.9464 376.5,-396.1131 376.5,-399.2797 376.5,-399.2797 376.5,-405.6131 376.5,-405.6131 376.5,-408.7797 373.3333,-411.9464 370.1667,-411.9464"/>
<text text-anchor="middle" x="358" y="-399.9464" font-family="Arial" font-size="10.00" fill="#000000">Graph</text>
</a>
</g>
</g>
<!-- uqbar.graphs.HRule.HRule -->
<g id="node10" class="node">
<title>uqbar.graphs.HRule.HRule</title>
<g id="a_node10"><a xlink:href="../api/uqbar/containers/../graphs/HRule.html#uqbar.graphs.HRule.HRule" xlink:title="HRule" target="_top">
<path fill="#decbe4" stroke="#decbe4" stroke-width="2" d="M370.1667,-165.9464C370.1667,-165.9464 345.8333,-165.9464 345.8333,-165.9464 342.6667,-165.9464 339.5,-162.7797 339.5,-159.6131 339.5,-159.6131 339.5,-153.2797 339.5,-153.2797 339.5,-150.1131 342.6667,-146.9464 345.8333,-146.9464 345.8333,-146.9464 370.1667,-146.9464 370.1667,-146.9464 373.3333,-146.9464 376.5,-150.1131 376.5,-153.2797 376.5,-153.2797 376.5,-159.6131 376.5,-159.6131 376.5,-162.7797 373.3333,-165.9464 370.1667,-165.9464"/>
<text text-anchor="middle" x="358" y="-153.9464" font-family="Arial" font-size="10.00" fill="#000000">HRule</text>
</a>
</g>
</g>
<!-- uqbar.graphs.LineBreak.LineBreak -->
<g id="node11" class="node">
<title>uqbar.graphs.LineBreak.LineBreak</title>
<g id="a_node11"><a xlink:href="../api/uqbar/containers/../graphs/LineBreak.html#uqbar.graphs.LineBreak.LineBreak" xlink:title="Line\nBreak" target="_top">
<path fill="#decbe4" stroke="#decbe4" stroke-width="2" d="M366,-128.4464C366,-128.4464 350,-128.4464 350,-128.4464 345,-128.4464 340,-123.4464 340,-118.4464 340,-118.4464 340,-108.4464 340,-108.4464 340,-103.4464 345,-98.4464 350,-98.4464 350,-98.4464 366,-98.4464 366,-98.4464 371,-98.4464 376,-103.4464 376,-108.4464 376,-108.4464 376,-118.4464 376,-118.4464 376,-123.4464 371,-128.4464 366,-128.4464"/>
<text text-anchor="middle" x="358" y="-116.4464" font-family="Arial" font-size="10.00" fill="#000000">Line</text>
<text text-anchor="middle" x="358" y="-105.4464" font-family="Arial" font-size="10.00" fill="#000000">Break</text>
</a>
</g>
</g>
<!-- uqbar.graphs.Node.Node -->
<g id="node12" class="node">
<title>uqbar.graphs.Node.Node</title>
<g id="a_node12"><a xlink:href="../api/uqbar/containers/../graphs/Node.html#uqbar.graphs.Node.Node" xlink:title="Node" target="_top">
<path fill="#decbe4" stroke="#decbe4" stroke-width="2" d="M368.6667,-374.9464C368.6667,-374.9464 347.3333,-374.9464 347.3333,-374.9464 344.1667,-374.9464 341,-371.7797 341,-368.6131 341,-368.6131 341,-362.2797 341,-362.2797 341,-359.1131 344.1667,-355.9464 347.3333,-355.9464 347.3333,-355.9464 368.6667,-355.9464 368.6667,-355.9464 371.8333,-355.9464 375,-359.1131 375,-362.2797 375,-362.2797 375,-368.6131 375,-368.6131 375,-371.7797 371.8333,-374.9464 368.6667,-374.9464"/>
<text text-anchor="middle" x="358" y="-362.9464" font-family="Arial" font-size="10.00" fill="#000000">Node</text>
</a>
</g>
</g>
<!-- uqbar.graphs.RecordGroup.RecordGroup -->
<g id="node13" class="node">
<title>uqbar.graphs.RecordGroup.RecordGroup</title>
<g id="a_node13"><a xlink:href="../api/uqbar/containers/../graphs/RecordGroup.html#uqbar.graphs.RecordGroup.RecordGroup" xlink:title="Record\nGroup" target="_top">
<path fill="#decbe4" stroke="#decbe4" stroke-width="2" d="M368.5,-337.4464C368.5,-337.4464 347.5,-337.4464 347.5,-337.4464 342.5,-337.4464 337.5,-332.4464 337.5,-327.4464 337.5,-327.4464 337.5,-317.4464 337.5,-317.4464 337.5,-312.4464 342.5,-307.4464 347.5,-307.4464 347.5,-307.4464 368.5,-307.4464 368.5,-307.4464 373.5,-307.4464 378.5,-312.4464 378.5,-317.4464 378.5,-317.4464 378.5,-327.4464 378.5,-327.4464 378.5,-332.4464 373.5,-337.4464 368.5,-337.4464"/>
<text text-anchor="middle" x="358" y="-325.4464" font-family="Arial" font-size="10.00" fill="#000000">Record</text>
<text text-anchor="middle" x="358" y="-314.4464" font-family="Arial" font-size="10.00" fill="#000000">Group</text>
</a>
</g>
</g>
<!-- uqbar.graphs.Table.Table -->
<g id="node14" class="node">
<title>uqbar.graphs.Table.Table</title>
<g id="a_node14"><a xlink:href="../api/uqbar/containers/../graphs/Table.html#uqbar.graphs.Table.Table" xlink:title="Table" target="_top">
<path fill="#decbe4" stroke="#decbe4" stroke-width="2" d="M369.1667,-288.9464C369.1667,-288.9464 346.8333,-288.9464 346.8333,-288.9464 343.6667,-288.9464 340.5,-285.7797 340.5,-282.6131 340.5,-282.6131 340.5,-276.2797 340.5,-276.2797 340.5,-273.1131 343.6667,-269.9464 346.8333,-269.9464 346.8333,-269.9464 369.1667,-269.9464 369.1667,-269.9464 372.3333,-269.9464 375.5,-273.1131 375.5,-276.2797 375.5,-276.2797 375.5,-282.6131 375.5,-282.6131 375.5,-285.7797 372.3333,-288.9464 369.1667,-288.9464"/>
<text text-anchor="middle" x="358" y="-276.9464" font-family="Arial" font-size="10.00" fill="#000000">Table</text>
</a>
</g>
</g>
<!-- uqbar.graphs.TableRow.TableRow -->
<g id="node15" class="node">
<title>uqbar.graphs.TableRow.TableRow</title>
<g id="a_node15"><a xlink:href="../api/uqbar/containers/../graphs/TableRow.html#uqbar.graphs.TableRow.TableRow" xlink:title="Table\nRow" target="_top">
<path fill="#decbe4" stroke="#decbe4" stroke-width="2" d="M365.5,-251.4464C365.5,-251.4464 350.5,-251.4464 350.5,-251.4464 345.5,-251.4464 340.5,-246.4464 340.5,-241.4464 340.5,-241.4464 340.5,-231.4464 340.5,-231.4464 340.5,-226.4464 345.5,-221.4464 350.5,-221.4464 350.5,-221.4464 365.5,-221.4464 365.5,-221.4464 370.5,-221.4464 375.5,-226.4464 375.5,-231.4464 375.5,-231.4464 375.5,-241.4464 375.5,-241.4464 375.5,-246.4464 370.5,-251.4464 365.5,-251.4464"/>
<text text-anchor="middle" x="358" y="-239.4464" font-family="Arial" font-size="10.00" fill="#000000">Table</text>
<text text-anchor="middle" x="358" y="-228.4464" font-family="Arial" font-size="10.00" fill="#000000">Row</text>
</a>
</g>
</g>
<!-- uqbar.graphs.Text.Text -->
<g id="node16" class="node">
<title>uqbar.graphs.Text.Text</title>
<g id="a_node16"><a xlink:href="../api/uqbar/containers/../graphs/Text.html#uqbar.graphs.Text.Text" xlink:title="Text" target="_top">
<path fill="#decbe4" stroke="#decbe4" stroke-width="2" d="M367.1667,-79.9464C367.1667,-79.9464 348.8333,-79.9464 348.8333,-79.9464 345.6667,-79.9464 342.5,-76.7797 342.5,-73.6131 342.5,-73.6131 342.5,-67.2797 342.5,-67.2797 342.5,-64.1131 345.6667,-60.9464 348.8333,-60.9464 348.8333,-60.9464 367.1667,-60.9464 367.1667,-60.9464 370.3333,-60.9464 373.5,-64.1131 373.5,-67.2797 373.5,-67.2797 373.5,-73.6131 373.5,-73.6131 373.5,-76.7797 370.3333,-79.9464 367.1667,-79.9464"/>
<text text-anchor="middle" x="358" y="-67.9464" font-family="Arial" font-size="10.00" fill="#000000">Text</text>
</a>
</g>
</g>
<!-- uqbar.graphs.VRule.VRule -->
<g id="node17" class="node">
<title>uqbar.graphs.VRule.VRule</title>
<g id="a_node17"><a xlink:href="../api/uqbar/containers/../graphs/VRule.html#uqbar.graphs.VRule.VRule" xlink:title="VRule" target="_top">
<path fill="#decbe4" stroke="#decbe4" stroke-width="2" d="M370.1667,-42.9464C370.1667,-42.9464 345.8333,-42.9464 345.8333,-42.9464 342.6667,-42.9464 339.5,-39.7797 339.5,-36.6131 339.5,-36.6131 339.5,-30.2797 339.5,-30.2797 339.5,-27.1131 342.6667,-23.9464 345.8333,-23.9464 345.8333,-23.9464 370.1667,-23.9464 370.1667,-23.9464 373.3333,-23.9464 376.5,-27.1131 376.5,-30.2797 376.5,-30.2797 376.5,-36.6131 376.5,-36.6131 376.5,-39.7797 373.3333,-42.9464 370.1667,-42.9464"/>
<text text-anchor="middle" x="358" y="-30.9464" font-family="Arial" font-size="10.00" fill="#000000">VRule</text>
</a>
</g>
</g>
</g>
</svg>
