<?xml version="1.0" encoding="UTF-8" standalone="no"?>
<!DOCTYPE svg PUBLIC "-//W3C//DTD SVG 1.1//EN"
 "http://www.w3.org/Graphics/SVG/1.1/DTD/svg11.dtd">
<!-- Generated by graphviz version 2.44.0 (20200408.0750)
 -->
<!-- Title: InheritanceGraph Pages: 1 -->
<svg width="275pt" height="89pt"
 viewBox="0.00 0.00 275.00 89.00" xmlns="http://www.w3.org/2000/svg" xmlns:xlink="http://www.w3.org/1999/xlink">
<g id="graph0" class="graph" transform="scale(1 1) rotate(0) translate(4 85)">
<title>InheritanceGraph</title>
<g id="clust1" class="cluster">
<title>cluster_builtins</title>
<path fill="transparent" stroke="#bcd2ee" stroke-width="2" stroke-dasharray="5,2" d="M20,-13C20,-13 55,-13 55,-13 61,-13 67,-19 67,-25 67,-25 67,-56 67,-56 67,-62 61,-68 55,-68 55,-68 20,-68 20,-68 14,-68 8,-62 8,-56 8,-56 8,-25 8,-25 8,-19 14,-13 20,-13"/>
<text text-anchor="middle" x="37.5" y="-56" font-family="Arial" font-size="10.00">builtins</text>
</g>
<g id="clust2" class="cluster">
<title>cluster_uqbar.book.extensions</title>
<path fill="transparent" stroke="#bcd2ee" stroke-width="2" stroke-dasharray="5,2" d="M99,-8C99,-8 247,-8 247,-8 253,-8 259,-14 259,-20 259,-20 259,-61 259,-61 259,-67 253,-73 247,-73 247,-73 99,-73 99,-73 93,-73 87,-67 87,-61 87,-61 87,-20 87,-20 87,-14 93,-8 99,-8"/>
<text text-anchor="middle" x="173" y="-61" font-family="Arial" font-size="10.00">uqbar.book.extensions</text>
</g>
<!-- builtins.object&#45;&gt;uqbar.book.extensions.Extension -->
<g id="edge2" class="edge">
<title>builtins.object&#45;&gt;uqbar.book.extensions.Extension</title>
<path fill="none" stroke="lightslategrey" d="M59.2,-31C66.87,-31 75.85,-31 84.63,-31"/>
<polygon fill="lightslategrey" stroke="lightslategrey" points="84.77,-34.5 94.77,-31 84.77,-27.5 84.77,-34.5"/>
</g>
<!-- uqbar.book.extensions.Extension&#45;&gt;uqbar.book.extensions.GraphExtension -->
<g id="edge1" class="edge">
<title>uqbar.book.extensions.Extension&#45;&gt;uqbar.book.extensions.GraphExtension</title>
<path fill="none" stroke="lightslategrey" d="M155.23,-31C163.27,-31 172.13,-31 180.65,-31"/>
<polygon fill="lightslategrey" stroke="lightslategrey" points="180.79,-34.5 190.79,-31 180.79,-27.5 180.79,-34.5"/>
</g>
<!-- builtins.object -->
<g id="node1" class="node">
<title>builtins.object</title>
<g id="a_node1"><a xlink:href="https://docs.python.org/3.6/library/functions.html#object" xlink:title="object" target="_top">
<path fill="#fbb4ae" stroke="#fbb4ae" stroke-width="2" d="M52.67,-40.5C52.67,-40.5 22.33,-40.5 22.33,-40.5 19.17,-40.5 16,-37.33 16,-34.17 16,-34.17 16,-27.83 16,-27.83 16,-24.67 19.17,-21.5 22.33,-21.5 22.33,-21.5 52.67,-21.5 52.67,-21.5 55.83,-21.5 59,-24.67 59,-27.83 59,-27.83 59,-34.17 59,-34.17 59,-37.33 55.83,-40.5 52.67,-40.5"/>
<text text-anchor="middle" x="37.5" y="-28.5" font-family="Arial" font-size="10.00">object</text>
</a>
</g>
</g>
<!-- uqbar.book.extensions.Extension -->
<g id="node2" class="node">
<title>uqbar.book.extensions.Extension</title>
<g id="a_node2"><a xlink:href="../api/uqbar/book/extensions.html#uqbar.book.extensions.Extension" xlink:title="Extension" target="_top">
<path fill="black" stroke="black" stroke-width="2" d="M148.67,-40.5C148.67,-40.5 101.33,-40.5 101.33,-40.5 98.17,-40.5 95,-37.33 95,-34.17 95,-34.17 95,-27.83 95,-27.83 95,-24.67 98.17,-21.5 101.33,-21.5 101.33,-21.5 148.67,-21.5 148.67,-21.5 151.83,-21.5 155,-24.67 155,-27.83 155,-27.83 155,-34.17 155,-34.17 155,-37.33 151.83,-40.5 148.67,-40.5"/>
<text text-anchor="middle" x="125" y="-28.5" font-family="Arial" font-size="10.00" fill="white">Extension</text>
</a>
</g>
</g>
<!-- uqbar.book.extensions.GraphExtension -->
<g id="node3" class="node">
<title>uqbar.book.extensions.GraphExtension</title>
<g id="a_node3"><a xlink:href="../api/uqbar/book/extensions.html#uqbar.book.extensions.GraphExtension" xlink:title="Graph\nExtension" target="_top">
<path fill="black" stroke="black" stroke-width="2" d="M241,-46C241,-46 201,-46 201,-46 196,-46 191,-41 191,-36 191,-36 191,-26 191,-26 191,-21 196,-16 201,-16 201,-16 241,-16 241,-16 246,-16 251,-21 251,-26 251,-26 251,-36 251,-36 251,-41 246,-46 241,-46"/>
<text text-anchor="middle" x="221" y="-34" font-family="Arial" font-size="10.00" fill="white">Graph</text>
<text text-anchor="middle" x="221" y="-23" font-family="Arial" font-size="10.00" fill="white">Extension</text>
</a>
</g>
</g>
</g>
</svg>
