<?xml version="1.0" encoding="UTF-8" standalone="no"?>
<!DOCTYPE svg PUBLIC "-//W3C//DTD SVG 1.1//EN"
 "http://www.w3.org/Graphics/SVG/1.1/DTD/svg11.dtd">
<!-- Generated by graphviz version 2.44.1 (20200629.0846)
 -->
<!-- Title: InheritanceGraph Pages: 1 -->
<svg width="344pt" height="101pt"
 viewBox="0.00 0.00 344.00 101.00" xmlns="http://www.w3.org/2000/svg" xmlns:xlink="http://www.w3.org/1999/xlink">
<g id="graph0" class="graph" transform="scale(1 1) rotate(0) translate(4 97)">
<title>InheritanceGraph</title>
<g id="clust1" class="cluster">
<title>cluster_builtins</title>
<path fill="transparent" stroke="#bcd2ee" stroke-width="2" stroke-dasharray="5,2" d="M20,-19C20,-19 55,-19 55,-19 61,-19 67,-25 67,-31 67,-31 67,-62 67,-62 67,-68 61,-74 55,-74 55,-74 20,-74 20,-74 14,-74 8,-68 8,-62 8,-62 8,-31 8,-31 8,-25 14,-19 20,-19"/>
<text text-anchor="middle" x="37.5" y="-62" font-family="Arial" font-size="10.00">builtins</text>
</g>
<g id="clust2" class="cluster">
<title>cluster_uqbar.containers</title>
<path fill="transparent" stroke="#bcd2ee" stroke-width="2" stroke-dasharray="5,2" d="M99,-8C99,-8 316,-8 316,-8 322,-8 328,-14 328,-20 328,-20 328,-73 328,-73 328,-79 322,-85 316,-85 316,-85 99,-85 99,-85 93,-85 87,-79 87,-73 87,-73 87,-20 87,-20 87,-14 93,-8 99,-8"/>
<text text-anchor="middle" x="207.5" y="-73" font-family="Arial" font-size="10.00">uqbar.containers</text>
</g>
<!-- builtins.object&#45;&gt;uqbar.containers.UniqueTreeNode.UniqueTreeNode -->
<g id="edge3" class="edge">
<title>builtins.object&#45;&gt;uqbar.containers.UniqueTreeNode.UniqueTreeNode</title>
<path fill="none" stroke="lightslategrey" d="M59.26,-37C67.06,-37 76.13,-37 84.75,-37"/>
<polygon fill="lightslategrey" stroke="lightslategrey" points="84.94,-40.5 94.94,-37 84.94,-33.5 84.94,-40.5"/>
</g>
<!-- uqbar.containers.UniqueTreeContainer.UniqueTreeContainer&#45;&gt;uqbar.containers.UniqueTreeSet.UniqueTreeSet -->
<g id="edge1" class="edge">
<title>uqbar.containers.UniqueTreeContainer.UniqueTreeContainer&#45;&gt;uqbar.containers.UniqueTreeSet.UniqueTreeSet</title>
<path fill="none" stroke="lightslategrey" d="M237.47,-37C245.6,-37 254.5,-37 262.83,-37"/>
<polygon fill="lightslategrey" stroke="lightslategrey" points="262.98,-40.5 272.98,-37 262.98,-33.5 262.98,-40.5"/>
</g>
<!-- uqbar.containers.UniqueTreeNode.UniqueTreeNode&#45;&gt;uqbar.containers.UniqueTreeContainer.UniqueTreeContainer -->
<g id="edge2" class="edge">
<title>uqbar.containers.UniqueTreeNode.UniqueTreeNode&#45;&gt;uqbar.containers.UniqueTreeContainer.UniqueTreeContainer</title>
<path fill="none" stroke="lightslategrey" d="M142.36,-37C150.17,-37 159.15,-37 167.86,-37"/>
<polygon fill="lightslategrey" stroke="lightslategrey" points="167.88,-40.5 177.88,-37 167.88,-33.5 167.88,-40.5"/>
</g>
<!-- builtins.object -->
<g id="node1" class="node">
<title>builtins.object</title>
<g id="a_node1"><a xlink:href="https://docs.python.org/3.6/library/functions.html#object" xlink:title="object" target="_top">
<path fill="#fbb4ae" stroke="#fbb4ae" stroke-width="2" d="M52.67,-46.5C52.67,-46.5 22.33,-46.5 22.33,-46.5 19.17,-46.5 16,-43.33 16,-40.17 16,-40.17 16,-33.83 16,-33.83 16,-30.67 19.17,-27.5 22.33,-27.5 22.33,-27.5 52.67,-27.5 52.67,-27.5 55.83,-27.5 59,-30.67 59,-33.83 59,-33.83 59,-40.17 59,-40.17 59,-43.33 55.83,-46.5 52.67,-46.5"/>
<text text-anchor="middle" x="37.5" y="-34.5" font-family="Arial" font-size="10.00">object</text>
</a>
</g>
</g>
<!-- uqbar.containers.UniqueTreeContainer.UniqueTreeContainer -->
<g id="node2" class="node">
<title>uqbar.containers.UniqueTreeContainer.UniqueTreeContainer</title>
<g id="a_node2"><a xlink:href="../api/uqbar/containers/UniqueTreeContainer.html#uqbar.containers.UniqueTreeContainer.UniqueTreeContainer" xlink:title="Unique\nTree\nContainer" target="_top">
<path fill="#b3cde3" stroke="#b3cde3" stroke-width="2" d="M225,-57.5C225,-57.5 190,-57.5 190,-57.5 184,-57.5 178,-51.5 178,-45.5 178,-45.5 178,-28.5 178,-28.5 178,-22.5 184,-16.5 190,-16.5 190,-16.5 225,-16.5 225,-16.5 231,-16.5 237,-22.5 237,-28.5 237,-28.5 237,-45.5 237,-45.5 237,-51.5 231,-57.5 225,-57.5"/>
<text text-anchor="middle" x="207.5" y="-45.5" font-family="Arial" font-size="10.00">Unique</text>
<text text-anchor="middle" x="207.5" y="-34.5" font-family="Arial" font-size="10.00">Tree</text>
<text text-anchor="middle" x="207.5" y="-23.5" font-family="Arial" font-size="10.00">Container</text>
</a>
</g>
</g>
<!-- uqbar.containers.UniqueTreeNode.UniqueTreeNode -->
<g id="node3" class="node">
<title>uqbar.containers.UniqueTreeNode.UniqueTreeNode</title>
<g id="a_node3"><a xlink:href="../api/uqbar/containers/UniqueTreeNode.html#uqbar.containers.UniqueTreeNode.UniqueTreeNode" xlink:title="Unique\nTree\nNode" target="_top">
<path fill="#b3cde3" stroke="#b3cde3" stroke-width="2" d="M130,-57.5C130,-57.5 107,-57.5 107,-57.5 101,-57.5 95,-51.5 95,-45.5 95,-45.5 95,-28.5 95,-28.5 95,-22.5 101,-16.5 107,-16.5 107,-16.5 130,-16.5 130,-16.5 136,-16.5 142,-22.5 142,-28.5 142,-28.5 142,-45.5 142,-45.5 142,-51.5 136,-57.5 130,-57.5"/>
<text text-anchor="middle" x="118.5" y="-45.5" font-family="Arial" font-size="10.00">Unique</text>
<text text-anchor="middle" x="118.5" y="-34.5" font-family="Arial" font-size="10.00">Tree</text>
<text text-anchor="middle" x="118.5" y="-23.5" font-family="Arial" font-size="10.00">Node</text>
</a>
</g>
</g>
<!-- uqbar.containers.UniqueTreeSet.UniqueTreeSet -->
<g id="node4" class="node">
<title>uqbar.containers.UniqueTreeSet.UniqueTreeSet</title>
<g id="a_node4"><a xlink:href="../api/uqbar/containers/UniqueTreeSet.html#uqbar.containers.UniqueTreeSet.UniqueTreeSet" xlink:title="Unique\nTree\nSet" target="_top">
<path fill="black" stroke="black" stroke-width="2" d="M308,-57.5C308,-57.5 285,-57.5 285,-57.5 279,-57.5 273,-51.5 273,-45.5 273,-45.5 273,-28.5 273,-28.5 273,-22.5 279,-16.5 285,-16.5 285,-16.5 308,-16.5 308,-16.5 314,-16.5 320,-22.5 320,-28.5 320,-28.5 320,-45.5 320,-45.5 320,-51.5 314,-57.5 308,-57.5"/>
<text text-anchor="middle" x="296.5" y="-45.5" font-family="Arial" font-size="10.00" fill="white">Unique</text>
<text text-anchor="middle" x="296.5" y="-34.5" font-family="Arial" font-size="10.00" fill="white">Tree</text>
<text text-anchor="middle" x="296.5" y="-23.5" font-family="Arial" font-size="10.00" fill="white">Set</text>
</a>
</g>
</g>
</g>
</svg>
