<?xml version="1.0" encoding="UTF-8" standalone="no"?>
<!DOCTYPE svg PUBLIC "-//W3C//DTD SVG 1.1//EN"
 "http://www.w3.org/Graphics/SVG/1.1/DTD/svg11.dtd">
<!-- Generated by graphviz version 2.40.1 (20161225.0304)
 -->
<!-- Title: InheritanceGraph Pages: 1 -->
<svg width="399pt" height="340pt"
 viewBox="0.00 0.00 399.00 340.00" xmlns="http://www.w3.org/2000/svg" xmlns:xlink="http://www.w3.org/1999/xlink">
<g id="graph0" class="graph" transform="scale(1 1) rotate(0) translate(4 336)">
<title>InheritanceGraph</title>
<g id="clust1" class="cluster">
<title>cluster_builtins</title>
<path fill="transparent" stroke="#bcd2ee" stroke-width="2" stroke-dasharray="5,2" d="M20,-145C20,-145 49,-145 49,-145 55,-145 61,-151 61,-157 61,-157 61,-188 61,-188 61,-194 55,-200 49,-200 49,-200 20,-200 20,-200 14,-200 8,-194 8,-188 8,-188 8,-157 8,-157 8,-151 14,-145 20,-145"/>
<text text-anchor="middle" x="34.5" y="-188" font-family="Arial" font-size="10.00" fill="#000000">builtins</text>
</g>
<g id="clust2" class="cluster">
<title>cluster_uqbar.apis</title>
<path fill="transparent" stroke="#bcd2ee" stroke-width="2" stroke-dasharray="5,2" d="M254,-259C254,-259 292,-259 292,-259 298,-259 304,-265 304,-271 304,-271 304,-312 304,-312 304,-318 298,-324 292,-324 292,-324 254,-324 254,-324 248,-324 242,-318 242,-312 242,-312 242,-271 242,-271 242,-265 248,-259 254,-259"/>
<text text-anchor="middle" x="273" y="-312" font-family="Arial" font-size="10.00" fill="#000000">uqbar.apis</text>
</g>
<g id="clust3" class="cluster">
<title>cluster_uqbar.containers</title>
<path fill="transparent" stroke="#bcd2ee" stroke-width="2" stroke-dasharray="5,2" d="M93,-134C93,-134 210,-134 210,-134 216,-134 222,-140 222,-146 222,-146 222,-199 222,-199 222,-205 216,-211 210,-211 210,-211 93,-211 93,-211 87,-211 81,-205 81,-199 81,-199 81,-146 81,-146 81,-140 87,-134 93,-134"/>
<text text-anchor="middle" x="151.5" y="-199" font-family="Arial" font-size="10.00" fill="#000000">uqbar.containers</text>
</g>
<g id="clust4" class="cluster">
<title>cluster_uqbar.graphs</title>
<path fill="transparent" stroke="#bcd2ee" stroke-width="2" stroke-dasharray="5,2" d="M336,-8C336,-8 373,-8 373,-8 379,-8 385,-14 385,-20 385,-20 385,-270 385,-270 385,-276 379,-282 373,-282 373,-282 336,-282 336,-282 330,-282 324,-276 324,-270 324,-270 324,-20 324,-20 324,-14 330,-8 336,-8"/>
<text text-anchor="middle" x="354.5" y="-270" font-family="Arial" font-size="10.00" fill="#000000">uqbar.graphs</text>
</g>
<!-- builtins.object&#45;&gt;uqbar.containers.UniqueTreeNode.UniqueTreeNode -->
<g id="edge2" class="edge">
<title>builtins.object&#45;&gt;uqbar.containers.UniqueTreeNode.UniqueTreeNode</title>
<path fill="none" stroke="#778899" d="M53.2995,-163C61.0221,-163 70.1602,-163 78.7776,-163"/>
<polygon fill="#778899" stroke="#778899" points="78.9006,-166.5001 88.9006,-163 78.9005,-159.5001 78.9006,-166.5001"/>
</g>
<!-- uqbar.containers.UniqueTreeContainer.UniqueTreeContainer&#45;&gt;uqbar.apis.PackageNode.PackageNode -->
<g id="edge3" class="edge">
<title>uqbar.containers.UniqueTreeContainer.UniqueTreeContainer&#45;&gt;uqbar.apis.PackageNode.PackageNode</title>
<path fill="none" stroke="#778899" d="M199.4023,-183.7381C208.9565,-202.7123 224.5142,-231.0824 242,-253 243.8097,-255.2684 245.7961,-257.5251 247.862,-259.7199"/>
<polygon fill="#778899" stroke="#778899" points="245.4931,-262.3002 255.051,-266.8715 250.4299,-257.3375 245.4931,-262.3002"/>
</g>
<!-- uqbar.containers.UniqueTreeContainer.UniqueTreeContainer&#45;&gt;uqbar.graphs.Graph.Graph -->
<g id="edge4" class="edge">
<title>uqbar.containers.UniqueTreeContainer.UniqueTreeContainer&#45;&gt;uqbar.graphs.Graph.Graph</title>
<path fill="none" stroke="#778899" d="M214.098,-182.1189C222.6537,-188.2794 232.4935,-194.8409 242,-200 269.5402,-214.9457 303.1197,-227.7341 326.3863,-235.8156"/>
<polygon fill="#778899" stroke="#778899" points="325.3904,-239.1738 335.9848,-239.0859 327.6479,-232.5479 325.3904,-239.1738"/>
</g>
<!-- uqbar.containers.UniqueTreeContainer.UniqueTreeContainer&#45;&gt;uqbar.graphs.Node.Node -->
<g id="edge5" class="edge">
<title>uqbar.containers.UniqueTreeContainer.UniqueTreeContainer&#45;&gt;uqbar.graphs.Node.Node</title>
<path fill="none" stroke="#778899" d="M214.0469,-170.1106C222.8531,-172.6358 232.8627,-175.4766 242,-178 271.0995,-186.0363 304.5349,-194.9063 327.3434,-200.9022"/>
<polygon fill="#778899" stroke="#778899" points="326.7601,-204.3675 337.3209,-203.5199 328.5365,-197.5967 326.7601,-204.3675"/>
</g>
<!-- uqbar.containers.UniqueTreeContainer.UniqueTreeContainer&#45;&gt;uqbar.graphs.RecordGroup.RecordGroup -->
<g id="edge6" class="edge">
<title>uqbar.containers.UniqueTreeContainer.UniqueTreeContainer&#45;&gt;uqbar.graphs.RecordGroup.RecordGroup</title>
<path fill="none" stroke="#778899" d="M214.2022,-163.2994C243.4412,-163.6538 292.145,-164.2442 323.7864,-164.6277"/>
<polygon fill="#778899" stroke="#778899" points="323.7684,-168.1277 333.8101,-164.7492 323.8533,-161.1282 323.7684,-168.1277"/>
</g>
<!-- uqbar.containers.UniqueTreeContainer.UniqueTreeContainer&#45;&gt;uqbar.graphs.Table.Table -->
<g id="edge7" class="edge">
<title>uqbar.containers.UniqueTreeContainer.UniqueTreeContainer&#45;&gt;uqbar.graphs.Table.Table</title>
<path fill="none" stroke="#778899" d="M214.2022,-156.8619C244.4104,-149.3556 295.3953,-136.6866 326.8755,-128.8643"/>
<polygon fill="#778899" stroke="#778899" points="327.8846,-132.22 336.7454,-126.4117 326.1965,-125.4266 327.8846,-132.22"/>
</g>
<!-- uqbar.containers.UniqueTreeContainer.UniqueTreeContainer&#45;&gt;uqbar.graphs.TableCell.TableCell -->
<g id="edge8" class="edge">
<title>uqbar.containers.UniqueTreeContainer.UniqueTreeContainer&#45;&gt;uqbar.graphs.TableCell.TableCell</title>
<path fill="none" stroke="#778899" d="M214.263,-147.1059C222.9143,-141.7685 232.771,-135.9248 242,-131 270.442,-115.8227 304.1271,-100.599 327.1756,-90.582"/>
<polygon fill="#778899" stroke="#778899" points="328.8604,-93.6672 336.6577,-86.4941 326.0891,-87.2391 328.8604,-93.6672"/>
</g>
<!-- uqbar.containers.UniqueTreeContainer.UniqueTreeContainer&#45;&gt;uqbar.graphs.TableRow.TableRow -->
<g id="edge9" class="edge">
<title>uqbar.containers.UniqueTreeContainer.UniqueTreeContainer&#45;&gt;uqbar.graphs.TableRow.TableRow</title>
<path fill="none" stroke="#778899" d="M202.953,-142.2997C212.6756,-128.3864 226.7393,-110.2421 242,-97 268.306,-74.1736 303.612,-54.9515 327.6074,-43.2425"/>
<polygon fill="#778899" stroke="#778899" points="329.3116,-46.3074 336.8283,-38.8409 326.296,-39.9902 329.3116,-46.3074"/>
</g>
<!-- uqbar.containers.UniqueTreeNode.UniqueTreeNode&#45;&gt;uqbar.containers.UniqueTreeContainer.UniqueTreeContainer -->
<g id="edge1" class="edge">
<title>uqbar.containers.UniqueTreeNode.UniqueTreeNode&#45;&gt;uqbar.containers.UniqueTreeContainer.UniqueTreeContainer</title>
<path fill="none" stroke="#778899" d="M129.3135,-163C136.9959,-163 145.9745,-163 154.617,-163"/>
<polygon fill="#778899" stroke="#778899" points="154.8826,-166.5001 164.8825,-163 154.8825,-159.5001 154.8826,-166.5001"/>
</g>
<!-- builtins.object -->
<g id="node1" class="node">
<title>builtins.object</title>
<g id="a_node1"><a xlink:href="https://docs.python.org/3.6/library/functions.html#object" xlink:title="object" target="_top">
<path fill="#fbb4ae" stroke="#fbb4ae" stroke-width="2" d="M46.6667,-172.5C46.6667,-172.5 22.3333,-172.5 22.3333,-172.5 19.1667,-172.5 16,-169.3333 16,-166.1667 16,-166.1667 16,-159.8333 16,-159.8333 16,-156.6667 19.1667,-153.5 22.3333,-153.5 22.3333,-153.5 46.6667,-153.5 46.6667,-153.5 49.8333,-153.5 53,-156.6667 53,-159.8333 53,-159.8333 53,-166.1667 53,-166.1667 53,-169.3333 49.8333,-172.5 46.6667,-172.5"/>
<text text-anchor="middle" x="34.5" y="-160.5" font-family="Arial" font-size="10.00" fill="#000000">object</text>
</a>
</g>
</g>
<!-- uqbar.apis.PackageNode.PackageNode -->
<g id="node2" class="node">
<title>uqbar.apis.PackageNode.PackageNode</title>
<g id="a_node2"><a xlink:href="../api/uqbar/containers/../apis/PackageNode.html#uqbar.apis.PackageNode.PackageNode" xlink:title="Package\nNode" target="_top">
<path fill="#b3cde3" stroke="#b3cde3" stroke-width="2" d="M286,-297C286,-297 260,-297 260,-297 255,-297 250,-292 250,-287 250,-287 250,-277 250,-277 250,-272 255,-267 260,-267 260,-267 286,-267 286,-267 291,-267 296,-272 296,-277 296,-277 296,-287 296,-287 296,-292 291,-297 286,-297"/>
<text text-anchor="middle" x="273" y="-285" font-family="Arial" font-size="10.00" fill="#000000">Package</text>
<text text-anchor="middle" x="273" y="-274" font-family="Arial" font-size="10.00" fill="#000000">Node</text>
</a>
</g>
</g>
<!-- uqbar.containers.UniqueTreeContainer.UniqueTreeContainer -->
<g id="node3" class="node">
<title>uqbar.containers.UniqueTreeContainer.UniqueTreeContainer</title>
<g id="a_node3"><a xlink:href="../api/uqbar/containers/UniqueTreeContainer.html#uqbar.containers.UniqueTreeContainer.UniqueTreeContainer" xlink:title="Unique\nTree\nContainer" target="_top">
<path fill="#000000" stroke="#000000" stroke-width="2" d="M202,-183.5C202,-183.5 177,-183.5 177,-183.5 171,-183.5 165,-177.5 165,-171.5 165,-171.5 165,-154.5 165,-154.5 165,-148.5 171,-142.5 177,-142.5 177,-142.5 202,-142.5 202,-142.5 208,-142.5 214,-148.5 214,-154.5 214,-154.5 214,-171.5 214,-171.5 214,-177.5 208,-183.5 202,-183.5"/>
<text text-anchor="middle" x="189.5" y="-171.5" font-family="Arial" font-size="10.00" fill="#ffffff">Unique</text>
<text text-anchor="middle" x="189.5" y="-160.5" font-family="Arial" font-size="10.00" fill="#ffffff">Tree</text>
<text text-anchor="middle" x="189.5" y="-149.5" font-family="Arial" font-size="10.00" fill="#ffffff">Container</text>
</a>
</g>
</g>
<!-- uqbar.containers.UniqueTreeNode.UniqueTreeNode -->
<g id="node4" class="node">
<title>uqbar.containers.UniqueTreeNode.UniqueTreeNode</title>
<g id="a_node4"><a xlink:href="../api/uqbar/containers/UniqueTreeNode.html#uqbar.containers.UniqueTreeNode.UniqueTreeNode" xlink:title="Unique\nTree\nNode" target="_top">
<path fill="#ccebc5" stroke="#ccebc5" stroke-width="2" d="M117,-183.5C117,-183.5 101,-183.5 101,-183.5 95,-183.5 89,-177.5 89,-171.5 89,-171.5 89,-154.5 89,-154.5 89,-148.5 95,-142.5 101,-142.5 101,-142.5 117,-142.5 117,-142.5 123,-142.5 129,-148.5 129,-154.5 129,-154.5 129,-171.5 129,-171.5 129,-177.5 123,-183.5 117,-183.5"/>
<text text-anchor="middle" x="109" y="-171.5" font-family="Arial" font-size="10.00" fill="#000000">Unique</text>
<text text-anchor="middle" x="109" y="-160.5" font-family="Arial" font-size="10.00" fill="#000000">Tree</text>
<text text-anchor="middle" x="109" y="-149.5" font-family="Arial" font-size="10.00" fill="#000000">Node</text>
</a>
</g>
</g>
<!-- uqbar.graphs.Graph.Graph -->
<g id="node5" class="node">
<title>uqbar.graphs.Graph.Graph</title>
<g id="a_node5"><a xlink:href="../api/uqbar/containers/../graphs/Graph.html#uqbar.graphs.Graph.Graph" xlink:title="Graph" target="_top">
<path fill="#decbe4" stroke="#decbe4" stroke-width="2" d="M366.6667,-254.5C366.6667,-254.5 342.3333,-254.5 342.3333,-254.5 339.1667,-254.5 336,-251.3333 336,-248.1667 336,-248.1667 336,-241.8333 336,-241.8333 336,-238.6667 339.1667,-235.5 342.3333,-235.5 342.3333,-235.5 366.6667,-235.5 366.6667,-235.5 369.8333,-235.5 373,-238.6667 373,-241.8333 373,-241.8333 373,-248.1667 373,-248.1667 373,-251.3333 369.8333,-254.5 366.6667,-254.5"/>
<text text-anchor="middle" x="354.5" y="-242.5" font-family="Arial" font-size="10.00" fill="#000000">Graph</text>
</a>
</g>
</g>
<!-- uqbar.graphs.Node.Node -->
<g id="node6" class="node">
<title>uqbar.graphs.Node.Node</title>
<g id="a_node6"><a xlink:href="../api/uqbar/containers/../graphs/Node.html#uqbar.graphs.Node.Node" xlink:title="Node" target="_top">
<path fill="#decbe4" stroke="#decbe4" stroke-width="2" d="M365.1667,-217.5C365.1667,-217.5 343.8333,-217.5 343.8333,-217.5 340.6667,-217.5 337.5,-214.3333 337.5,-211.1667 337.5,-211.1667 337.5,-204.8333 337.5,-204.8333 337.5,-201.6667 340.6667,-198.5 343.8333,-198.5 343.8333,-198.5 365.1667,-198.5 365.1667,-198.5 368.3333,-198.5 371.5,-201.6667 371.5,-204.8333 371.5,-204.8333 371.5,-211.1667 371.5,-211.1667 371.5,-214.3333 368.3333,-217.5 365.1667,-217.5"/>
<text text-anchor="middle" x="354.5" y="-205.5" font-family="Arial" font-size="10.00" fill="#000000">Node</text>
</a>
</g>
</g>
<!-- uqbar.graphs.RecordGroup.RecordGroup -->
<g id="node7" class="node">
<title>uqbar.graphs.RecordGroup.RecordGroup</title>
<g id="a_node7"><a xlink:href="../api/uqbar/containers/../graphs/RecordGroup.html#uqbar.graphs.RecordGroup.RecordGroup" xlink:title="Record\nGroup" target="_top">
<path fill="#decbe4" stroke="#decbe4" stroke-width="2" d="M365,-180C365,-180 344,-180 344,-180 339,-180 334,-175 334,-170 334,-170 334,-160 334,-160 334,-155 339,-150 344,-150 344,-150 365,-150 365,-150 370,-150 375,-155 375,-160 375,-160 375,-170 375,-170 375,-175 370,-180 365,-180"/>
<text text-anchor="middle" x="354.5" y="-168" font-family="Arial" font-size="10.00" fill="#000000">Record</text>
<text text-anchor="middle" x="354.5" y="-157" font-family="Arial" font-size="10.00" fill="#000000">Group</text>
</a>
</g>
</g>
<!-- uqbar.graphs.Table.Table -->
<g id="node8" class="node">
<title>uqbar.graphs.Table.Table</title>
<g id="a_node8"><a xlink:href="../api/uqbar/containers/../graphs/Table.html#uqbar.graphs.Table.Table" xlink:title="Table" target="_top">
<path fill="#decbe4" stroke="#decbe4" stroke-width="2" d="M365.6667,-131.5C365.6667,-131.5 343.3333,-131.5 343.3333,-131.5 340.1667,-131.5 337,-128.3333 337,-125.1667 337,-125.1667 337,-118.8333 337,-118.8333 337,-115.6667 340.1667,-112.5 343.3333,-112.5 343.3333,-112.5 365.6667,-112.5 365.6667,-112.5 368.8333,-112.5 372,-115.6667 372,-118.8333 372,-118.8333 372,-125.1667 372,-125.1667 372,-128.3333 368.8333,-131.5 365.6667,-131.5"/>
<text text-anchor="middle" x="354.5" y="-119.5" font-family="Arial" font-size="10.00" fill="#000000">Table</text>
</a>
</g>
</g>
<!-- uqbar.graphs.TableCell.TableCell -->
<g id="node9" class="node">
<title>uqbar.graphs.TableCell.TableCell</title>
<g id="a_node9"><a xlink:href="../api/uqbar/containers/../graphs/TableCell.html#uqbar.graphs.TableCell.TableCell" xlink:title="Table\nCell" target="_top">
<path fill="#decbe4" stroke="#decbe4" stroke-width="2" d="M362,-94C362,-94 347,-94 347,-94 342,-94 337,-89 337,-84 337,-84 337,-74 337,-74 337,-69 342,-64 347,-64 347,-64 362,-64 362,-64 367,-64 372,-69 372,-74 372,-74 372,-84 372,-84 372,-89 367,-94 362,-94"/>
<text text-anchor="middle" x="354.5" y="-82" font-family="Arial" font-size="10.00" fill="#000000">Table</text>
<text text-anchor="middle" x="354.5" y="-71" font-family="Arial" font-size="10.00" fill="#000000">Cell</text>
</a>
</g>
</g>
<!-- uqbar.graphs.TableRow.TableRow -->
<g id="node10" class="node">
<title>uqbar.graphs.TableRow.TableRow</title>
<g id="a_node10"><a xlink:href="../api/uqbar/containers/../graphs/TableRow.html#uqbar.graphs.TableRow.TableRow" xlink:title="Table\nRow" target="_top">
<path fill="#decbe4" stroke="#decbe4" stroke-width="2" d="M362,-46C362,-46 347,-46 347,-46 342,-46 337,-41 337,-36 337,-36 337,-26 337,-26 337,-21 342,-16 347,-16 347,-16 362,-16 362,-16 367,-16 372,-21 372,-26 372,-26 372,-36 372,-36 372,-41 367,-46 362,-46"/>
<text text-anchor="middle" x="354.5" y="-34" font-family="Arial" font-size="10.00" fill="#000000">Table</text>
<text text-anchor="middle" x="354.5" y="-23" font-family="Arial" font-size="10.00" fill="#000000">Row</text>
</a>
</g>
</g>
</g>
</svg>
